  0
SECTION
  2
HEADER
  9
$ACADVER
  1
AC1027
  9
$ACADMAINTVER
 70
105
  9
$DWGCODEPAGE
  3
ANSI_1252
  9
$LASTSAVEDBY
  1
ezdxf
  9
$REQUIREDVERSIONS
160
0
  9
$INSBASE
 10
0.0
 20
0.0
 30
0.0
  9
$EXTMIN
 10
1e+20
 20
1e+20
 30
1e+20
  9
$EXTMAX
 10
-1e+20
 20
-1e+20
 30
-1e+20
  9
$LIMMIN
 10
0.0
 20
0.0
  9
$LIMMAX
 10
420.0
 20
297.0
  9
$ORTHOMODE
 70
0
  9
$REGENMODE
 70
1
  9
$FILLMODE
 70
1
  9
$QTEXTMODE
 70
0
  9
$MIRRTEXT
 70
1
  9
$LTSCALE
 40
1.0
  9
$ATTMODE
 70
1
  9
$TEXTSIZE
 40
2.5
  9
$TRACEWID
 40
1.0
  9
$TEXTSTYLE
  7
Standard
  9
$CLAYER
  8
0
  9
$CELTYPE
  6
ByLayer
  9
$CECOLOR
 62
256
  9
$CELTSCALE
 40
1.0
  9
$DISPSILH
 70
0
  9
$DIMSCALE
 40
1.0
  9
$DIMASZ
 40
2.5
  9
$DIMEXO
 40
0.625
  9
$DIMDLI
 40
3.75
  9
$DIMRND
 40
0.0
  9
$DIMDLE
 40
0.0
  9
$DIMEXE
 40
1.25
  9
$DIMTP
 40
0.0
  9
$DIMTM
 40
0.0
  9
$DIMTXT
 40
2.5
  9
$DIMCEN
 40
2.5
  9
$DIMTSZ
 40
0.0
  9
$DIMTOL
 70
0
  9
$DIMLIM
 70
0
  9
$DIMTIH
 70
0
  9
$DIMTOH
 70
0
  9
$DIMSE1
 70
0
  9
$DIMSE2
 70
0
  9
$DIMTAD
 70
1
  9
$DIMZIN
 70
8
  9
$DIMBLK
  1

  9
$DIMASO
 70
1
  9
$DIMSHO
 70
1
  9
$DIMPOST
  1

  9
$DIMAPOST
  1

  9
$DIMALT
 70
0
  9
$DIMALTD
 70
3
  9
$DIMALTF
 40
0.03937007874
  9
$DIMLFAC
 40
1.0
  9
$DIMTOFL
 70
1
  9
$DIMTVP
 40
0.0
  9
$DIMTIX
 70
0
  9
$DIMSOXD
 70
0
  9
$DIMSAH
 70
0
  9
$DIMBLK1
  1

  9
$DIMBLK2
  1

  9
$DIMSTYLE
  2
ISO-25
  9
$DIMCLRD
 70
0
  9
$DIMCLRE
 70
0
  9
$DIMCLRT
 70
0
  9
$DIMTFAC
 40
1.0
  9
$DIMGAP
 40
0.625
  9
$DIMJUST
 70
0
  9
$DIMSD1
 70
0
  9
$DIMSD2
 70
0
  9
$DIMTOLJ
 70
0
  9
$DIMTZIN
 70
8
  9
$DIMALTZ
 70
0
  9
$DIMALTTZ
 70
0
  9
$DIMUPT
 70
0
  9
$DIMDEC
 70
2
  9
$DIMTDEC
 70
2
  9
$DIMALTU
 70
2
  9
$DIMALTTD
 70
3
  9
$DIMTXSTY
  7
Standard
  9
$DIMAUNIT
 70
0
  9
$DIMADEC
 70
0
  9
$DIMALTRND
 40
0.0
  9
$DIMAZIN
 70
0
  9
$DIMDSEP
 70
44
  9
$DIMATFIT
 70
3
  9
$DIMFRAC
 70
0
  9
$DIMLDRBLK
  1

  9
$DIMLUNIT
 70
2
  9
$DIMLWD
 70
-2
  9
$DIMLWE
 70
-2
  9
$DIMTMOVE
 70
0
  9
$DIMFXL
 40
1.0
  9
$DIMFXLON
 70
0
  9
$DIMJOGANG
 40
0.785398163397
  9
$DIMTFILL
 70
0
  9
$DIMTFILLCLR
 70
0
  9
$DIMARCSYM
 70
0
  9
$DIMLTYPE
  6

  9
$DIMLTEX1
  6

  9
$DIMLTEX2
  6

  9
$DIMTXTDIRECTION
 70
0
  9
$LUNITS
 70
2
  9
$LUPREC
 70
4
  9
$SKETCHINC
 40
1.0
  9
$FILLETRAD
 40
10.0
  9
$AUNITS
 70
0
  9
$AUPREC
 70
2
  9
$MENU
  1
.
  9
$ELEVATION
 40
0.0
  9
$PELEVATION
 40
0.0
  9
$THICKNESS
 40
0.0
  9
$LIMCHECK
 70
0
  9
$CHAMFERA
 40
0.0
  9
$CHAMFERB
 40
0.0
  9
$CHAMFERC
 40
0.0
  9
$CHAMFERD
 40
0.0
  9
$SKPOLY
 70
0
  9
$TDCREATE
 40
2460032.6428240743
  9
$TDUCREATE
 40
2458532.153996898
  9
$TDUPDATE
 40
2460032.6428240743
  9
$TDUUPDATE
 40
2458532.1544311
  9
$TDINDWG
 40
0.0
  9
$TDUSRTIMER
 40
0.0
  9
$USRTIMER
 70
1
  9
$ANGBASE
 50
0.0
  9
$ANGDIR
 70
0
  9
$PDMODE
 70
0
  9
$PDSIZE
 40
0.0
  9
$PLINEWID
 40
0.0
  9
$SPLFRAME
 70
0
  9
$SPLINETYPE
 70
6
  9
$SPLINESEGS
 70
8
  9
$HANDSEED
  5
3A7
  9
$SURFTAB1
 70
6
  9
$SURFTAB2
 70
6
  9
$SURFTYPE
 70
6
  9
$SURFU
 70
6
  9
$SURFV
 70
6
  9
$UCSBASE
  2

  9
$UCSNAME
  2

  9
$UCSORG
 10
0.0
 20
0.0
 30
0.0
  9
$UCSXDIR
 10
1.0
 20
0.0
 30
0.0
  9
$UCSYDIR
 10
0.0
 20
1.0
 30
0.0
  9
$UCSORTHOREF
  2

  9
$UCSORTHOVIEW
 70
0
  9
$UCSORGTOP
 10
0.0
 20
0.0
 30
0.0
  9
$UCSORGBOTTOM
 10
0.0
 20
0.0
 30
0.0
  9
$UCSORGLEFT
 10
0.0
 20
0.0
 30
0.0
  9
$UCSORGRIGHT
 10
0.0
 20
0.0
 30
0.0
  9
$UCSORGFRONT
 10
0.0
 20
0.0
 30
0.0
  9
$UCSORGBACK
 10
0.0
 20
0.0
 30
0.0
  9
$PUCSBASE
  2

  9
$PUCSNAME
  2

  9
$PUCSORG
 10
0.0
 20
0.0
 30
0.0
  9
$PUCSXDIR
 10
1.0
 20
0.0
 30
0.0
  9
$PUCSYDIR
 10
0.0
 20
1.0
 30
0.0
  9
$PUCSORTHOREF
  2

  9
$PUCSORTHOVIEW
 70
0
  9
$PUCSORGTOP
 10
0.0
 20
0.0
 30
0.0
  9
$PUCSORGBOTTOM
 10
0.0
 20
0.0
 30
0.0
  9
$PUCSORGLEFT
 10
0.0
 20
0.0
 30
0.0
  9
$PUCSORGRIGHT
 10
0.0
 20
0.0
 30
0.0
  9
$PUCSORGFRONT
 10
0.0
 20
0.0
 30
0.0
  9
$PUCSORGBACK
 10
0.0
 20
0.0
 30
0.0
  9
$USERI1
 70
0
  9
$USERI2
 70
0
  9
$USERI3
 70
0
  9
$USERI4
 70
0
  9
$USERI5
 70
0
  9
$USERR1
 40
0.0
  9
$USERR2
 40
0.0
  9
$USERR3
 40
0.0
  9
$USERR4
 40
0.0
  9
$USERR5
 40
0.0
  9
$WORLDVIEW
 70
1
  9
$SHADEDGE
 70
3
  9
$SHADEDIF
 70
70
  9
$TILEMODE
 70
1
  9
$MAXACTVP
 70
64
  9
$PINSBASE
 10
0.0
 20
0.0
 30
0.0
  9
$PLIMCHECK
 70
0
  9
$PEXTMIN
 10
1e+20
 20
1e+20
 30
1e+20
  9
$PEXTMAX
 10
-1e+20
 20
-1e+20
 30
-1e+20
  9
$PLIMMIN
 10
0.0
 20
0.0
  9
$PLIMMAX
 10
420.0
 20
297.0
  9
$UNITMODE
 70
0
  9
$VISRETAIN
 70
1
  9
$PLINEGEN
 70
0
  9
$PSLTSCALE
 70
1
  9
$TREEDEPTH
 70
3020
  9
$CMLSTYLE
  2
Standard
  9
$CMLJUST
 70
0
  9
$CMLSCALE
 40
20.0
  9
$PROXYGRAPHICS
 70
1
  9
$MEASUREMENT
 70
1
  9
$CELWEIGHT
370
-1
  9
$ENDCAPS
280
0
  9
$JOINSTYLE
280
0
  9
$LWDISPLAY
290
0
  9
$INSUNITS
 70
6
  9
$HYPERLINKBASE
  1

  9
$STYLESHEET
  1

  9
$XEDIT
290
1
  9
$CEPSNTYPE
380
0
  9
$PSTYLEMODE
290
1
  9
$FINGERPRINTGUID
  2
{9CFE5141-C2B9-4541-A815-644CF939112D}
  9
$VERSIONGUID
  2
{305BAE01-7439-43EE-916F-8E6773CA2417}
  9
$EXTNAMES
290
1
  9
$PSVPSCALE
 40
0.0
  9
$OLESTARTUP
290
0
  9
$SORTENTS
280
127
  9
$INDEXCTL
280
0
  9
$HIDETEXT
280
1
  9
$XCLIPFRAME
280
0
  9
$HALOGAP
280
0
  9
$OBSCOLOR
 70
257
  9
$OBSLTYPE
280
0
  9
$INTERSECTIONDISPLAY
280
0
  9
$INTERSECTIONCOLOR
 70
257
  9
$DIMASSOC
280
2
  9
$PROJECTNAME
  1

  9
$CAMERADISPLAY
290
0
  9
$LENSLENGTH
 40
50.0
  9
$CAMERAHEIGHT
 40
0.0
  9
$STEPSPERSEC
 40
24.0
  9
$STEPSIZE
 40
100.0
  9
$3DDWFPREC
 40
2.0
  9
$PSOLWIDTH
 40
0.005
  9
$PSOLHEIGHT
 40
0.08
  9
$LOFTANG1
 40
1.570796326795
  9
$LOFTANG2
 40
1.570796326795
  9
$LOFTMAG1
 40
0.0
  9
$LOFTMAG2
 40
0.0
  9
$LOFTPARAM
 70
7
  9
$LOFTNORMALS
280
1
  9
$LATITUDE
 40
37.795
  9
$LONGITUDE
 40
-122.394
  9
$NORTHDIRECTION
 40
0.0
  9
$TIMEZONE
 70
-8000
  9
$LIGHTGLYPHDISPLAY
280
1
  9
$TILEMODELIGHTSYNCH
280
1
  9
$CMATERIAL
347
20
  9
$SOLIDHIST
280
0
  9
$SHOWHIST
280
1
  9
$DWFFRAME
280
2
  9
$DGNFRAME
280
2
  9
$REALWORLDSCALE
290
1
  9
$INTERFERECOLOR
 62
256
  9
$CSHADOW
280
0
  9
$SHADOWPLANELOCATION
 40
0.0
  0
ENDSEC
  0
SECTION
  2
CLASSES
  0
CLASS
  1
ACDBDICTIONARYWDFLT
  2
AcDbDictionaryWithDefault
  3
ObjectDBX Classes
 90
0
 91
0
280
0
281
0
  0
CLASS
  1
SUN
  2
AcDbSun
  3
SCENEOE
 90
1153
 91
0
280
0
281
0
  0
CLASS
  1
VISUALSTYLE
  2
AcDbVisualStyle
  3
ObjectDBX Classes
 90
4095
 91
0
280
0
281
0
  0
CLASS
  1
MATERIAL
  2
AcDbMaterial
  3
ObjectDBX Classes
 90
1153
 91
0
280
0
281
0
  0
CLASS
  1
SCALE
  2
AcDbScale
  3
ObjectDBX Classes
 90
1153
 91
0
280
0
281
0
  0
CLASS
  1
TABLESTYLE
  2
AcDbTableStyle
  3
ObjectDBX Classes
 90
4095
 91
0
280
0
281
0
  0
CLASS
  1
MLEADERSTYLE
  2
AcDbMLeaderStyle
  3
ACDB_MLEADERSTYLE_CLASS
 90
4095
 91
0
280
0
281
0
  0
CLASS
  1
DICTIONARYVAR
  2
AcDbDictionaryVar
  3
ObjectDBX Classes
 90
0
 91
0
280
0
281
0
  0
CLASS
  1
CELLSTYLEMAP
  2
AcDbCellStyleMap
  3
ObjectDBX Classes
 90
1152
 91
0
280
0
281
0
  0
CLASS
  1
MENTALRAYRENDERSETTINGS
  2
AcDbMentalRayRenderSettings
  3
SCENEOE
 90
1024
 91
0
280
0
281
0
  0
CLASS
  1
ACDBDETAILVIEWSTYLE
  2
AcDbDetailViewStyle
  3
ObjectDBX Classes
 90
1025
 91
0
280
0
281
0
  0
CLASS
  1
ACDBSECTIONVIEWSTYLE
  2
AcDbSectionViewStyle
  3
ObjectDBX Classes
 90
1025
 91
0
280
0
281
0
  0
CLASS
  1
RASTERVARIABLES
  2
AcDbRasterVariables
  3
ISM
 90
0
 91
0
280
0
281
0
  0
CLASS
  1
LAYOUT
  2
AcDbLayout
  3
ObjectDBX Classes
 90
0
 91
0
280
0
281
0
  0
CLASS
  1
ACDBPLACEHOLDER
  2
AcDbPlaceHolder
  3
ObjectDBX Classes
 90
0
 91
0
280
0
281
0
  0
ENDSEC
  0
SECTION
  2
TABLES
  0
TABLE
  2
VPORT
  5
8
330
0
100
AcDbSymbolTable
 70
1
  0
VPORT
  5
23
330
8
100
AcDbSymbolTableRecord
100
AcDbViewportTableRecord
  2
*Active
 70
0
 10
0.0
 20
0.0
 11
1.0
 21
1.0
 12
0.0
 22
0.0
 13
0.0
 23
0.0
 14
0.5
 24
0.5
 15
0.5
 25
0.5
 16
0.0
 26
0.0
 36
1.0
 17
0.0
 27
0.0
 37
0.0
 40
1000.0
 41
1.34
 42
50.0
 43
0.0
 44
0.0
 50
0.0
 51
0.0
 71
0
 72
1000
 73
1
 74
3
 75
0
 76
0
 77
0
 78
0
281
0
 65
0
146
0.0
  0
ENDTAB
  0
TABLE
  2
LTYPE
  5
2
330
0
100
AcDbSymbolTable
 70
3
  0
LTYPE
  5
24
330
2
100
AcDbSymbolTableRecord
100
AcDbLinetypeTableRecord
  2
ByBlock
 70
0
  3

 72
65
 73
0
 40
0.0
  0
LTYPE
  5
25
330
2
100
AcDbSymbolTableRecord
100
AcDbLinetypeTableRecord
  2
ByLayer
 70
0
  3

 72
65
 73
0
 40
0.0
  0
LTYPE
  5
26
330
2
100
AcDbSymbolTableRecord
100
AcDbLinetypeTableRecord
  2
Continuous
 70
0
  3

 72
65
 73
0
 40
0.0
  0
ENDTAB
  0
TABLE
  2
LAYER
  5
1
330
0
100
AcDbSymbolTable
 70
2
  0
LAYER
  5
27
330
1
100
AcDbSymbolTableRecord
100
AcDbLayerTableRecord
  2
0
 70
0
 62
7
  6
Continuous
370
-3
390
13
347
21
  0
LAYER
  5
28
330
1
100
AcDbSymbolTableRecord
100
AcDbLayerTableRecord
  2
Defpoints
 70
0
 62
7
  6
Continuous
290
0
370
-3
390
13
347
21
  0
ENDTAB
  0
TABLE
  2
STYLE
  5
5
330
0
100
AcDbSymbolTable
 70
1
  0
STYLE
  5
29
330
5
100
AcDbSymbolTableRecord
100
AcDbTextStyleTableRecord
  2
Standard
 70
0
 40
0.0
 41
1.0
 50
0.0
 71
0
 42
2.5
  3
txt
  4

  0
ENDTAB
  0
TABLE
  2
VIEW
  5
7
330
0
100
AcDbSymbolTable
 70
0
  0
ENDTAB
  0
TABLE
  2
UCS
  5
6
330
0
100
AcDbSymbolTable
 70
0
  0
ENDTAB
  0
TABLE
  2
APPID
  5
3
330
0
100
AcDbSymbolTable
 70
3
  0
APPID
  5
2A
330
3
100
AcDbSymbolTableRecord
100
AcDbRegAppTableRecord
  2
ACAD
 70
0
  0
APPID
  5
3A4
330
3
100
AcDbSymbolTableRecord
100
AcDbRegAppTableRecord
  2
HATCHBACKGROUNDCOLOR
 70
0
  0
APPID
  5
3A5
330
3
100
AcDbSymbolTableRecord
100
AcDbRegAppTableRecord
  2
EZDXF
 70
0
  0
ENDTAB
  0
TABLE
  2
DIMSTYLE
  5
4
330
0
100
AcDbSymbolTable
 70
1
100
AcDbDimStyleTable
  0
DIMSTYLE
105
2B
330
4
100
AcDbSymbolTableRecord
100
AcDbDimStyleTableRecord
  2
Standard
 70
0
 40
1.0
 41
2.5
 42
0.625
 43
3.75
 44
1.25
 45
0.0
 46
0.0
 47
0.0
 48
0.0
 49
2.5
140
2.5
141
2.5
142
0.0
143
0.03937007874
144
1.0
145
0.0
146
1.0
147
0.625
148
0.0
 69
0
 70
0
 71
0
 72
0
 73
0
 74
0
 75
0
 76
0
 77
1
 78
8
 79
3
170
0
171
3
172
1
173
0
174
0
175
0
176
0
177
0
178
0
179
2
271
2
272
2
273
2
274
3
275
0
276
0
277
2
278
44
279
0
280
0
281
0
282
0
283
0
284
8
285
0
286
0
288
0
289
3
290
0
371
-2
372
-2
  0
ENDTAB
  0
TABLE
  2
BLOCK_RECORD
  5
9
330
0
100
AcDbSymbolTable
 70
2
  0
BLOCK_RECORD
  5
17
330
9
100
AcDbSymbolTableRecord
100
AcDbBlockTableRecord
  2
*Model_Space
340
1A
 70
0
280
1
281
0
  0
BLOCK_RECORD
  5
1B
330
9
100
AcDbSymbolTableRecord
100
AcDbBlockTableRecord
  2
*Paper_Space
340
1E
 70
0
280
1
281
0
  0
ENDTAB
  0
ENDSEC
  0
SECTION
  2
BLOCKS
  0
BLOCK
  5
18
330
17
100
AcDbEntity
  8
0
100
AcDbBlockBegin
  2
*Model_Space
 70
0
 10
0.0
 20
0.0
 30
0.0
  3
*Model_Space
  1

  0
ENDBLK
  5
19
330
17
100
AcDbEntity
  8
0
100
AcDbBlockEnd
  0
BLOCK
  5
1C
330
1B
100
AcDbEntity
  8
0
100
AcDbBlockBegin
  2
*Paper_Space
 70
0
 10
0.0
 20
0.0
 30
0.0
  3
*Paper_Space
  1

  0
ENDBLK
  5
1D
330
1B
100
AcDbEntity
  8
0
100
AcDbBlockEnd
  0
ENDSEC
  0
SECTION
  2
ENTITIES
  0
LINE
  5
2F
330
17
100
AcDbEntity
  8
0
100
AcDbLine
 10
-185.98951609800469
 20
-166.2069341343005
 30
0.0
 11
-185.98951609800469
 21
-164.89287202729787
 31
0.0
  0
LINE
  5
30
330
17
100
AcDbEntity
  8
0
100
AcDbLine
 10
-185.98951609800469
 20
-164.89287202729787
 30
0.0
 11
-18.54038743420378
 21
-113.04063585887604
 31
0.0
  0
ARC
  5
31
330
17
100
AcDbEntity
  8
0
100
AcDbCircle
 10
3.379333932776126
 20
-101.01874685614615
 30
0.0
 40
25.0
100
AcDbArc
 50
208.74260184856138
 51
282.3759009297887
  0
LINE
  5
32
330
17
100
AcDbEntity
  8
0
100
AcDbLine
 10
68.68802415057914
 20
-260.6420406272034
 30
0.0
 11
8.737446730075582
 21
-125.43780964019689
 31
0.0
  0
LINE
  5
33
330
17
100
AcDbEntity
  8
0
100
AcDbLine
 10
68.68802415057914
 20
-264.58323116335805
 30
0.0
 11
68.68802415057914
 21
-260.6420406272034
 31
0.0
  0
LINE
  5
34
330
17
100
AcDbEntity
  8
0
100
AcDbLine
 10
68.68802415057914
 20
-264.58323116335805
 30
0.0
 11
70.57822791916588
 21
-264.58323116335805
 31
0.0
  0
LINE
  5
35
330
17
100
AcDbEntity
  8
0
100
AcDbLine
 10
136.6952592344714
 20
-398.71347415933883
 30
0.0
 11
70.57822791916588
 21
-264.58323116335805
 31
0.0
  0
ARC
  5
36
330
17
100
AcDbEntity
  8
0
100
AcDbCircle
 10
152.01003983917525
 20
-418.47347150321
 30
0.0
 40
25.0
100
AcDbArc
 50
127.77710209867392
 51
194.70318403304242
  0
LINE
  5
37
330
17
100
AcDbEntity
  8
0
100
AcDbLine
 10
127.82869860214271
 20
-424.8187639297398
 30
0.0
 11
109.4366710908119
 21
-433.8847749333511
 31
0.0
  0
LINE
  5
38
330
17
100
AcDbEntity
  8
0
100
AcDbLine
 10
109.43667109081187
 20
-433.8847749333511
 30
0.0
 11
113.85801498397365
 21
-442.854263111525
 31
0.0
  0
LINE
  5
39
330
17
100
AcDbEntity
  8
0
100
AcDbLine
 10
113.85801498397365
 20
-442.854263111525
 30
0.0
 11
132.25004249530406
 21
-433.7882521079139
 31
0.0
  0
ARC
  5
3A
330
17
100
AcDbEntity
  8
0
100
AcDbCircle
 10
152.01003983917525
 20
-418.47347150321
 30
0.0
 40
25.0
100
AcDbArc
 50
217.7771020986739
 51
284.7031840330424
  0
LINE
  5
3B
330
17
100
AcDbEntity
  8
0
100
AcDbLine
 10
158.355332265705
 20
-442.65481274024256
 30
0.0
 11
167.4213432693163
 21
-461.04684025157337
 31
0.0
  0
LINE
  5
3C
330
17
100
AcDbEntity
  8
0
100
AcDbLine
 10
167.4213432693163
 20
-461.04684025157337
 30
0.0
 11
176.3908314474902
 21
-456.62549635841157
 31
0.0
  0
LINE
  5
3D
330
17
100
AcDbEntity
  8
0
100
AcDbLine
 10
167.3248204438791
 20
-438.2334688470812
 30
0.0
 11
176.3908314474902
 21
-456.6254963584116
 31
0.0
  0
ARC
  5
3E
330
17
100
AcDbEntity
  8
0
100
AcDbCircle
 10
152.01003983917525
 20
-418.47347150321
 30
0.0
 40
25.0
100
AcDbArc
 50
-52.222897901326206
 51
14.703184033042442
  0
LINE
  5
3F
330
17
100
AcDbEntity
  8
0
100
AcDbLine
 10
176.19138107620776
 20
-412.1281790766803
 30
0.0
 11
194.58340858753863
 21
-403.06216807306896
 31
0.0
  0
LINE
  5
40
330
17
100
AcDbEntity
  8
0
100
AcDbLine
 10
194.5834085875386
 20
-403.06216807306896
 30
0.0
 11
190.16206469437682
 21
-394.09267989489507
 31
0.0
  0
LINE
  5
41
330
17
100
AcDbEntity
  8
0
100
AcDbLine
 10
190.16206469437685
 20
-394.09267989489507
 30
0.0
 11
171.77003718304644
 21
-403.15869089850617
 31
0.0
  0
ARC
  5
42
330
17
100
AcDbEntity
  8
0
100
AcDbCircle
 10
152.01003983917525
 20
-418.47347150321
 30
0.0
 40
25.0
100
AcDbArc
 50
37.77710209867391
 51
104.70318403304243
  0
LINE
  5
43
330
17
100
AcDbEntity
  8
0
100
AcDbLine
 10
78.85993751045555
 20
-258.76660519005765
 30
0.0
 11
145.6647474126455
 21
-394.29213026617754
 31
0.0
  0
LINE
  5
44
330
17
100
AcDbEntity
  8
0
100
AcDbLine
 10
78.85993751045555
 20
-258.76660519005765
 30
0.0
 11
97.80608546796057
 21
-128.81156982178388
 31
0.0
  0
LINE
  5
45
330
17
100
AcDbEntity
  8
0
100
AcDbLine
 10
97.8060854679606
 20
-128.81156982178382
 30
0.0
 11
200.2124526112307
 21
-153.3766910589789
 31
0.0
  0
LINE
  5
46
330
17
100
AcDbEntity
  8
0
100
AcDbLine
 10
200.2124526112307
 20
-154.43424257508832
 30
0.0
 11
200.2124526112307
 21
-153.3766910589789
 31
0.0
  0
LINE
  5
47
330
17
100
AcDbEntity
  8
0
100
AcDbLine
 10
200.2124526112307
 20
-154.43424257508832
 30
0.0
 11
210.2124526112307
 21
-154.43424257508832
 31
0.0
  0
LINE
  5
48
330
17
100
AcDbEntity
  8
0
100
AcDbLine
 10
210.2124526112307
 20
-154.43424257508832
 30
0.0
 11
210.2124526112307
 21
-150.51358347045118
 31
0.0
  0
LINE
  5
49
330
17
100
AcDbEntity
  8
0
100
AcDbLine
 10
275.3202954324511
 20
-6.736306720376071
 30
0.0
 11
210.21245261123082
 21
-150.51358347045115
 31
0.0
  0
ARC
  5
4A
330
17
100
AcDbEntity
  8
0
100
AcDbCircle
 10
280.8700167390337
 20
17.639923370006223
 30
0.0
 40
25.0
100
AcDbArc
 50
257.1741252376079
 51
324.90054414334594
  0
LINE
  5
4B
330
17
100
AcDbEntity
  8
0
100
AcDbLine
 10
301.3238961956955
 20
3.2649863206708183
 30
0.0
 11
320.11937729565653
 21
-4.931910757866875
 31
0.0
  0
LINE
  5
4C
330
17
100
AcDbEntity
  8
0
100
AcDbLine
 10
320.1193772956566
 20
-4.9319107578668735
 30
0.0
 11
324.1168686760038
 21
4.234335074754565
 31
0.0
  0
LINE
  5
4D
330
17
100
AcDbEntity
  8
0
100
AcDbLine
 10
324.1168686760038
 20
4.234335074754563
 30
0.0
 11
305.32138757604275
 21
12.431232153292244
 31
0.0
  0
ARC
  5
4E
330
17
100
AcDbEntity
  8
0
100
AcDbCircle
 10
280.8700167390337
 20
17.639923370006223
 30
0.0
 40
25.0
100
AcDbArc
 50
-12.025537791024885
 51
55.70088111471095
  0
LINE
  5
4F
330
17
100
AcDbEntity
  8
0
100
AcDbLine
 10
294.9578503600306
 20
38.292597382518196
 30
0.0
 11
302.89141133766583
 21
57.20073958923173
 31
0.0
  0
LINE
  5
50
330
17
100
AcDbEntity
  8
0
100
AcDbLine
 10
302.89141133766583
 20
57.20073958923172
 30
0.0
 11
293.67022254323507
 21
61.06980630065767
 31
0.0
  0
LINE
  5
51
330
17
100
AcDbEntity
  8
0
100
AcDbLine
 10
293.67022254323507
 20
61.06980630065767
 30
0.0
 11
285.73666156559995
 21
42.161664093944424
 31
0.0
  0
ARC
  5
52
330
17
100
AcDbEntity
  8
0
100
AcDbCircle
 10
280.8700167390337
 20
17.639923370006223
 30
0.0
 40
25.0
100
AcDbArc
 50
78.77479918034538
 51
146.50121808608213
  0
LINE
  5
53
330
17
100
AcDbEntity
  8
0
100
AcDbLine
 10
154.5020185029819
 20
73.98921283347514
 30
0.0
 11
260.02257784290197
 21
31.437904797449008
 31
0.0
  0
LINE
  5
54
330
17
100
AcDbEntity
  8
0
100
AcDbLine
 10
154.5020185029819
 20
73.98921283347514
 30
0.0
 11
224.99700977974922
 21
145.46439500754263
 31
0.0
  0
ARC
  5
55
330
17
100
AcDbEntity
  8
0
100
AcDbCircle
 10
238.63766449428962
 20
166.4151119155317
 30
0.0
 40
25.0
100
AcDbArc
 50
236.93253444020277
 51
326.1858280701672
  0
LINE
  5
56
330
17
100
AcDbEntity
  8
0
100
AcDbLine
 10
259.4088356416603
 20
152.5025834190059
 30
0.0
 11
278.38344881423643
 21
144.7293417241765
 31
0.0
  0
LINE
  5
57
330
17
100
AcDbEntity
  8
0
100
AcDbLine
 10
278.38344881423643
 20
144.7293417241765
 30
0.0
 11
282.17433045819377
 21
153.98294731127103
 31
0.0
  0
LINE
  5
58
330
17
100
AcDbEntity
  8
0
100
AcDbLine
 10
282.17433045819377
 20
153.98294731127106
 30
0.0
 11
263.19971728561757
 21
161.75618900610047
 31
0.0
  0
ARC
  5
59
330
17
100
AcDbEntity
  8
0
100
AcDbCircle
 10
238.63766449428962
 20
166.4151119155317
 30
0.0
 40
25.0
100
AcDbArc
 50
-10.740253864203062
 51
78.51303976575919
  0
LINE
  5
5A
330
17
100
AcDbEntity
  8
0
100
AcDbLine
 10
243.61628727636153
 20
190.91436323457873
 30
0.0
 11
243.59839363093306
 21
211.41945799935849
 31
0.0
  0
LINE
  5
5B
330
17
100
AcDbEntity
  8
0
100
AcDbLine
 10
243.5983936309331
 20
211.41945799935849
 30
0.0
 11
233.5983974384676
 21
211.4107315638942
 31
0.0
  0
LINE
  5
5C
330
17
100
AcDbEntity
  8
0
100
AcDbLine
 10
233.5983974384676
 20
211.41073156389422
 30
0.0
 11
233.61629108389607
 21
190.9056367991144
 31
0.0
  0
ARC
  5
5D
330
17
100
AcDbEntity
  8
0
100
AcDbCircle
 10
238.63766449428962
 20
166.4151119155317
 30
0.0
 40
25.0
100
AcDbArc
 50
101.58695783139193
 51
190.84025146135343
  0
LINE
  5
5E
330
17
100
AcDbEntity
  8
0
100
AcDbLine
 10
214.0837802662246
 20
161.71332828431437
 30
0.0
 11
138.0965560298267
 21
130.42900740079497
 31
0.0
  0
LINE
  5
5F
330
17
100
AcDbEntity
  8
0
100
AcDbLine
 10
138.09655602982673
 20
130.42900740079494
 30
0.0
 11
153.3584387151926
 21
212.6599224491365
 31
0.0
  0
ARC
  5
60
330
17
100
AcDbEntity
  8
0
100
AcDbCircle
 10
152.91225912123278
 20
237.65594060743373
 30
0.0
 40
25.0
100
AcDbArc
 50
-88.97737740158821
 51
1.8344257559693549
  0
LINE
  5
61
330
17
100
AcDbEntity
  8
0
100
AcDbLine
 10
177.8994467967785
 20
238.45622309947495
 30
0.0
 11
197.84868676838425
 21
243.19827498135234
 31
0.0
  0
LINE
  5
62
330
17
100
AcDbEntity
  8
0
100
AcDbLine
 10
197.84868676838425
 20
243.19827498135234
 30
0.0
 11
195.5360663534472
 21
252.92718996794855
 31
0.0
  0
LINE
  5
63
330
17
100
AcDbEntity
  8
0
100
AcDbLine
 10
195.5360663534472
 20
252.92718996794855
 30
0.0
 11
175.58682638184115
 21
248.18513808607108
 31
0.0
  0
ARC
  5
64
330
17
100
AcDbEntity
  8
0
100
AcDbCircle
 10
152.91225912123278
 20
237.65594060743373
 30
0.0
 40
25.0
100
AcDbArc
 50
24.908343821599438
 51
115.72014697915829
  0
LINE
  5
65
330
17
100
AcDbEntity
  8
0
100
AcDbLine
 10
142.0628615088824
 20
260.1790525471534
 30
0.0
 11
129.64922197207557
 21
276.49961580169065
 31
0.0
  0
LINE
  5
66
330
17
100
AcDbEntity
  8
0
100
AcDbLine
 10
129.64922197207557
 20
276.49961580169065
 30
0.0
 11
121.68995271355959
 21
270.4456887398206
 31
0.0
  0
LINE
  5
67
330
17
100
AcDbEntity
  8
0
100
AcDbLine
 10
121.68995271355958
 20
270.44568873982064
 30
0.0
 11
134.1035922503668
 21
254.12512548528284
 31
0.0
  0
ARC
  5
68
330
17
100
AcDbEntity
  8
0
100
AcDbCircle
 10
152.91225912123278
 20
237.65594060743373
 30
0.0
 40
25.0
100
AcDbArc
 50
138.79406504478894
 51
229.60586820234522
  0
LINE
  5
69
330
17
100
AcDbEntity
  8
0
100
AcDbLine
 10
76.27207626254796
 20
108.93683095274737
 30
0.0
 11
136.71121158803865
 21
218.6158235167436
 31
0.0
  0
LINE
  5
6A
330
17
100
AcDbEntity
  8
0
100
AcDbLine
 10
76.27207626254796
 20
108.93683095274737
 30
0.0
 11
-18.40397509772039
 21
231.16662360467058
 31
0.0
  0
ARC
  5
6B
330
17
100
AcDbEntity
  8
0
100
AcDbCircle
 10
-37.35659384558369
 20
247.46994359165885
 30
0.0
 40
25.0
100
AcDbArc
 50
-40.70259949179051
 51
26.54138359324531
  0
LINE
  5
6C
330
17
100
AcDbEntity
  8
0
100
AcDbLine
 10
-14.991297634239984
 20
258.641045837134
 30
0.0
 11
56.25144110805119
 21
314.45901577600154
 31
0.0
  0
LINE
  5
6D
330
17
100
AcDbEntity
  8
0
100
AcDbLine
 10
56.25144110805118
 20
314.4590157760015
 30
0.0
 11
50.08405735260395
 21
322.33069778260244
 31
0.0
  0
LINE
  5
6E
330
17
100
AcDbEntity
  8
0
100
AcDbLine
 10
50.08405735260396
 20
322.3306977826025
 30
0.0
 11
-21.158681389687246
 21
266.512727843735
 31
0.0
  0
ARC
  5
6F
330
17
100
AcDbEntity
  8
0
100
AcDbCircle
 10
-37.35659384558369
 20
247.46994359165885
 30
0.0
 40
25.0
100
AcDbArc
 50
49.615301658875225
 51
116.85928474391037
  0
LINE
  5
70
330
17
100
AcDbEntity
  8
0
100
AcDbLine
 10
-48.651615600206
 20
269.772913877309
 30
0.0
 11
-61.38726101411049
 21
285.8434635687927
 31
0.0
  0
LINE
  5
71
330
17
100
AcDbEntity
  8
0
100
AcDbLine
 10
-61.38726101411049
 20
285.8434635687927
 30
0.0
 11
-69.22460278546848
 21
279.63249955674695
 31
0.0
  0
LINE
  5
72
330
17
100
AcDbEntity
  8
0
100
AcDbLine
 10
-69.22460278546848
 20
279.63249955674695
 30
0.0
 11
-56.488957371564084
 21
263.56194986526344
 31
0.0
  0
ARC
  5
73
330
17
100
AcDbEntity
  8
0
100
AcDbCircle
 10
-37.35659384558369
 20
247.46994359165885
 30
0.0
 40
25.0
100
AcDbArc
 50
139.9332028095435
 51
187.957119721983
  0
LINE
  5
74
330
17
100
AcDbEntity
  8
0
100
AcDbLine
 10
-62.11589256649815
 20
244.0091450062829
 30
0.0
 11
-62.944002874580335
 21
244.6836599779621
 31
0.0
  0
LINE
  5
75
330
17
100
AcDbEntity
  8
0
100
AcDbLine
 10
-62.944002874580335
 20
244.6836599779621
 30
0.0
 11
-75.89373399695475
 21
228.78511616560752
 31
0.0
  0
ARC
  5
76
330
17
100
AcDbEntity
  8
0
100
AcDbCircle
 10
-87.48643955217732
 20
206.6354168920305
 30
0.0
 40
25.0
100
AcDbArc
 50
62.373347598748445
 51
123.128739502731
  0
LINE
  5
77
330
17
100
AcDbEntity
  8
0
100
AcDbLine
 10
-101.14949183027171
 20
227.57153406895873
 30
0.0
 11
-115.56394410012541
 21
242.15518235240415
 31
0.0
  0
LINE
  5
78
330
17
100
AcDbEntity
  8
0
100
AcDbLine
 10
-115.56394410012541
 20
242.15518235240415
 30
0.0
 11
-122.6761486024526
 21
235.12549195260155
 31
0.0
  0
LINE
  5
79
330
17
100
AcDbEntity
  8
0
100
AcDbLine
 10
-122.6761486024526
 20
235.12549195260155
 30
0.0
 11
-108.26169633259875
 21
220.54184366915598
 31
0.0
  0
ARC
  5
7A
330
17
100
AcDbEntity
  8
0
100
AcDbCircle
 10
-87.48643955217732
 20
206.6354168920305
 30
0.0
 40
25.0
100
AcDbArc
 50
146.202657568361
 51
205.98343359094505
  0
LINE
  5
7B
330
17
100
AcDbEntity
  8
0
100
AcDbLine
 10
-193.449519404297
 20
128.76063611927924
 30
0.0
 11
-109.9594585184776
 21
195.68263557675198
 31
0.0
  0
LINE
  5
7C
330
17
100
AcDbEntity
  8
0
100
AcDbLine
 10
-196.69295104864412
 20
128.76063611927924
 30
0.0
 11
-193.449519404297
 21
128.76063611927924
 31
0.0
  0
LINE
  5
7D
330
17
100
AcDbEntity
  8
0
100
AcDbLine
 10
-196.69295104864412
 20
125.64766679440051
 30
0.0
 11
-196.69295104864412
 21
128.76063611927924
 31
0.0
  0
LINE
  5
7E
330
17
100
AcDbEntity
  8
0
100
AcDbLine
 10
-196.69295104864412
 20
125.64766679440051
 30
0.0
 11
-292.98155876552806
 21
16.251323454260202
 31
0.0
  0
ARC
  5
7F
330
17
100
AcDbEntity
  8
0
100
AcDbCircle
 10
-305.41221891559985
 20
-5.439197245654398
 30
0.0
 40
25.0
100
AcDbArc
 50
60.18333047610364
 51
122.99394926093993
  0
LINE
  5
80
330
17
100
AcDbEntity
  8
0
100
AcDbLine
 10
-319.02598051323685
 20
15.529004755535414
 30
0.0
 11
-333.40608440556946
 21
30.146523133867056
 31
0.0
  0
LINE
  5
81
330
17
100
AcDbEntity
  8
0
100
AcDbLine
 10
-333.40608440556946
 20
30.146523133867056
 30
0.0
 11
-340.5348067940017
 21
23.133583870714666
 31
0.0
  0
LINE
  5
82
330
17
100
AcDbEntity
  8
0
100
AcDbLine
 10
-340.5348067940017
 20
23.133583870714666
 30
0.0
 11
-326.15470290166917
 21
8.51606549238305
 31
0.0
  0
ARC
  5
83
330
17
100
AcDbEntity
  8
0
100
AcDbCircle
 10
-305.41221891559985
 20
-5.439197245654398
 30
0.0
 40
25.0
100
AcDbArc
 50
146.0678673265716
 51
208.87848611140643
  0
LINE
  5
84
330
17
100
AcDbEntity
  8
0
100
AcDbLine
 10
-327.30336721827564
 20
-17.513037810704446
 30
0.0
 11
-342.915205256004
 21
-30.807011805672346
 31
0.0
  0
LINE
  5
85
330
17
100
AcDbEntity
  8
0
100
AcDbLine
 10
-342.915205256004
 20
-30.807011805672342
 30
0.0
 11
-336.43195361257557
 21
-38.420647476492334
 31
0.0
  0
LINE
  5
86
330
17
100
AcDbEntity
  8
0
100
AcDbLine
 10
-336.43195361257557
 20
-38.420647476492334
 30
0.0
 11
-320.82011557484714
 21
-25.126673481524403
 31
0.0
  0
ARC
  5
87
330
17
100
AcDbEntity
  8
0
100
AcDbCircle
 10
-305.41221891559985
 20
-5.439197245654398
 30
0.0
 40
25.0
100
AcDbArc
 50
231.95240417703926
 51
294.7630229618738
  0
LINE
  5
88
330
17
100
AcDbEntity
  8
0
100
AcDbLine
 10
-294.9405653701267
 20
-28.14039703825514
 30
0.0
 11
-199.20269795124682
 21
-158.47179609773417
 31
0.0
  0
LINE
  5
89
330
17
100
AcDbEntity
  8
0
100
AcDbLine
 10
-199.20269795124682
 20
-158.47179609773414
 30
0.0
 11
-340.9884263479763
 21
-201.4486182595791
 31
0.0
  0
ARC
  5
8A
330
17
100
AcDbEntity
  8
0
100
AcDbCircle
 10
-362.9797246176549
 20
-213.3390682264235
 30
0.0
 40
25.0
100
AcDbArc
 50
28.399595487516514
 51
95.32567742188346
  0
LINE
  5
8B
330
17
100
AcDbEntity
  8
0
100
AcDbLine
 10
-365.3001450604216
 20
-188.44698818138153
 30
0.0
 11
-391.5537002722979
 21
-101.83333781184854
 31
0.0
  0
LINE
  5
8C
330
17
100
AcDbEntity
  8
0
100
AcDbLine
 10
-391.5537002722979
 20
-101.83333781184854
 30
0.0
 11
-401.1237297963755
 21
-104.73411958721218
 31
0.0
  0
LINE
  5
8D
330
17
100
AcDbEntity
  8
0
100
AcDbLine
 10
-401.1237297963755
 20
-104.73411958721218
 30
0.0
 11
-374.8701745844993
 21
-191.34776995674503
 31
0.0
  0
ARC
  5
8E
330
17
100
AcDbEntity
  8
0
100
AcDbCircle
 10
-362.9797246176549
 20
-213.3390682264235
 30
0.0
 40
25.0
100
AcDbArc
 50
118.3995954875166
 51
185.3256774218835
  0
LINE
  5
8F
330
17
100
AcDbEntity
  8
0
100
AcDbLine
 10
-387.8718046626969
 20
-215.6594886691902
 30
0.0
 11
-407.4952483636862
 21
-221.60757145352105
 31
0.0
  0
LINE
  5
90
330
17
100
AcDbEntity
  8
0
100
AcDbLine
 10
-407.4952483636862
 20
-221.60757145352105
 30
0.0
 11
-404.5944665883226
 21
-231.1776009775987
 31
0.0
  0
LINE
  5
91
330
17
100
AcDbEntity
  8
0
100
AcDbLine
 10
-384.97102288733345
 20
-225.22951819326795
 30
0.0
 11
-404.5944665883226
 21
-231.17760097759873
 31
0.0
  0
ARC
  5
92
330
17
100
AcDbEntity
  8
0
100
AcDbCircle
 10
-362.9797246176549
 20
-213.3390682264235
 30
0.0
 40
25.0
100
AcDbArc
 50
208.3995954875165
 51
275.3256774218834
  0
LINE
  5
93
330
17
100
AcDbEntity
  8
0
100
AcDbLine
 10
-360.6593041748882
 20
-238.23114827146549
 30
0.0
 11
-354.71122139055734
 21
-257.85459197245484
 31
0.0
  0
LINE
  5
94
330
17
100
AcDbEntity
  8
0
100
AcDbLine
 10
-354.71122139055734
 20
-257.85459197245484
 30
0.0
 11
-345.1411918664797
 21
-254.9538101970912
 31
0.0
  0
LINE
  5
95
330
17
100
AcDbEntity
  8
0
100
AcDbLine
 10
-345.1411918664797
 20
-254.95381019709117
 30
0.0
 11
-351.08927465081047
 21
-235.33036649610202
 31
0.0
  0
ARC
  5
96
330
17
100
AcDbEntity
  8
0
100
AcDbCircle
 10
-362.9797246176549
 20
-213.3390682264235
 30
0.0
 40
25.0
100
AcDbArc
 50
-61.60040451248343
 51
5.325677421886093
  0
LINE
  5
97
330
17
100
AcDbEntity
  8
0
100
AcDbLine
 10
-198.15199495260416
 20
-168.60260495744467
 30
0.0
 11
-338.0876445726125
 21
-211.0186477836567
 31
0.0
  0
LINE
  5
98
330
17
100
AcDbEntity
  8
0
100
AcDbLine
 10
-198.15199495260416
 20
-168.60260495744467
 30
0.0
 11
-236.74904052577477
 21
-312.37499508323333
 31
0.0
  0
ARC
  5
99
330
17
100
AcDbEntity
  8
0
100
AcDbCircle
 10
-238.27103404125353
 20
-337.3286227902189
 30
0.0
 40
25.0
100
AcDbArc
 50
86.50968948833376
 51
153.43577142270152
  0
LINE
  5
9A
330
17
100
AcDbEntity
  8
0
100
AcDbLine
 10
-260.6318743309205
 20
-326.1486039378198
 30
0.0
 11
-348.041931707178
 21
-302.68255482259605
 31
0.0
  0
LINE
  5
9B
330
17
100
AcDbEntity
  8
0
100
AcDbLine
 10
-348.041931707178
 20
-302.68255482259605
 30
0.0
 11
-350.6347191244965
 21
-312.3405801595164
 31
0.0
  0
LINE
  5
9C
330
17
100
AcDbEntity
  8
0
100
AcDbLine
 10
-350.6347191244965
 20
-312.3405801595164
 30
0.0
 11
-263.2246617482391
 21
-335.80662927474015
 31
0.0
  0
ARC
  5
9D
330
17
100
AcDbEntity
  8
0
100
AcDbCircle
 10
-238.27103404125353
 20
-337.3286227902189
 30
0.0
 40
25.0
100
AcDbArc
 50
176.50968948833378
 51
243.43577142270155
  0
LINE
  5
9E
330
17
100
AcDbEntity
  8
0
100
AcDbLine
 10
-249.4510528936526
 20
-359.68946307988585
 30
0.0
 11
-254.7675900876469
 21
-379.4933430977011
 31
0.0
  0
LINE
  5
9F
330
17
100
AcDbEntity
  8
0
100
AcDbLine
 10
-254.7675900876469
 20
-379.4933430977011
 30
0.0
 11
-245.10956475072658
 21
-382.0861305150196
 31
0.0
  0
LINE
  5
A0
330
17
100
AcDbEntity
  8
0
100
AcDbLine
 10
-239.79302755673228
 20
-362.2822504972044
 30
0.0
 11
-245.10956475072658
 21
-382.0861305150196
 31
0.0
  0
ARC
  5
A1
330
17
100
AcDbEntity
  8
0
100
AcDbCircle
 10
-238.27103404125353
 20
-337.3286227902189
 30
0.0
 40
25.0
100
AcDbArc
 50
266.5096894883337
 51
333.4357714227015
  0
LINE
  5
A2
330
17
100
AcDbEntity
  8
0
100
AcDbLine
 10
-215.91019375158658
 20
-348.508641642618
 30
0.0
 11
-196.10631373377134
 21
-353.8251788366123
 31
0.0
  0
LINE
  5
A3
330
17
100
AcDbEntity
  8
0
100
AcDbLine
 10
-196.10631373377132
 20
-353.8251788366123
 30
0.0
 11
-193.5135263164528
 21
-344.16715349969195
 31
0.0
  0
LINE
  5
A4
330
17
100
AcDbEntity
  8
0
100
AcDbLine
 10
-193.51352631645284
 20
-344.16715349969195
 30
0.0
 11
-213.31740633426762
 21
-338.8506163056977
 31
0.0
  0
ARC
  5
A5
330
17
100
AcDbEntity
  8
0
100
AcDbCircle
 10
-238.27103404125353
 20
-337.3286227902189
 30
0.0
 40
25.0
100
AcDbArc
 50
-3.4903105116680386
 51
63.43577142270153
  0
LINE
  5
A6
330
17
100
AcDbEntity
  8
0
100
AcDbLine
 10
-187.15477124888656
 20
-166.2069341343005
 30
0.0
 11
-227.0910151888545
 21
-314.96778250055195
 31
0.0
  0
LINE
  5
A7
330
17
100
AcDbEntity
  8
0
100
AcDbLine
 10
-187.15477124888656
 20
-166.2069341343005
 30
0.0
 11
-185.98951609800469
 21
-166.2069341343005
 31
0.0
  0
LINE
  5
A8
330
17
100
AcDbEntity
  8
0
100
AcDbLine
 10
129.4931768936226
 20
84.07406198136482
 30
0.0
 11
144.45316257101456
 21
78.04142755680088
 31
0.0
  0
LINE
  5
A9
330
17
100
AcDbEntity
  8
0
100
AcDbLine
 10
135.92338049605183
 20
118.71995312570657
 30
0.0
 11
129.4931768936226
 21
84.07406198136482
 31
0.0
  0
LINE
  5
AA
330
17
100
AcDbEntity
  8
0
100
AcDbLine
 10
217.83463709534792
 20
152.44322781004774
 30
0.0
 11
135.92338049605183
 21
118.71995312570657
 31
0.0
  0
LINE
  5
AB
330
17
100
AcDbEntity
  8
0
100
AcDbLine
 10
144.45316257101456
 20
78.04142755680087
 30
0.0
 11
217.8346370953479
 21
152.44322781004774
 31
0.0
  0
ARC
  5
AC
330
17
100
AcDbEntity
  8
0
100
AcDbCircle
 10
-54.4115055884236
 20
11.839943598926562
 30
0.0
 40
25.0
100
AcDbArc
 50
152.34781906043597
 51
285.578379385763
  0
LINE
  5
AD
330
17
100
AcDbEntity
  8
0
100
AcDbLine
 10
-12.23548305402683
 20
-81.49497953350485
 30
0.0
 11
-47.69759680813212
 21
-12.241655785041331
 31
0.0
  0
ARC
  5
AE
330
17
100
AcDbEntity
  8
0
100
AcDbCircle
 10
3.379333932776126
 20
-101.01874685614615
 30
0.0
 40
25.0
100
AcDbArc
 50
128.65229745139587
 51
185.66868378292935
  0
LINE
  5
AF
330
17
100
AcDbEntity
  8
0
100
AcDbLine
 10
-189.06759270501053
 20
-155.37755596557687
 30
0.0
 11
-21.498408733015793
 21
-103.48814351416442
 31
0.0
  0
LINE
  5
B0
330
17
100
AcDbEntity
  8
0
100
AcDbLine
 10
-286.8812806872289
 20
-22.220267782908664
 30
0.0
 11
-189.06759270501053
 21
-155.37755596557685
 31
0.0
  0
ARC
  5
B1
330
17
100
AcDbEntity
  8
0
100
AcDbCircle
 10
-305.41221891559985
 20
-5.439197245654398
 30
0.0
 40
25.0
100
AcDbArc
 50
-42.1630589724952
 51
37.10941241047523
  0
LINE
  5
B2
330
17
100
AcDbEntity
  8
0
100
AcDbLine
 10
-191.12074422111178
 20
116.8430582837023
 30
0.0
 11
-285.475098302323
 21
9.644277872887358
 31
0.0
  0
LINE
  5
B3
330
17
100
AcDbEntity
  8
0
100
AcDbLine
 10
-191.12074422111178
 20
116.8430582837023
 30
0.0
 11
-76.5560374519296
 21
23.442516957719278
 31
0.0
  0
LINE
  5
B4
330
17
100
AcDbEntity
  8
0
100
AcDbLine
 10
71.23879662824677
 20
-241.72446543654377
 30
0.0
 11
17.87907671715736
 21
-121.3843418434471
 31
0.0
  0
ARC
  5
B5
330
17
100
AcDbEntity
  8
0
100
AcDbCircle
 10
3.379333932776126
 20
-101.01874685614615
 30
0.0
 40
25.0
100
AcDbArc
 50
305.44981899542057
 51
334.97387138531826
  0
LINE
  5
B6
330
17
100
AcDbEntity
  8
0
100
AcDbLine
 10
88.04184505313927
 20
-126.46933509292529
 30
0.0
 11
26.032208083970396
 21
-111.5945348972405
 31
0.0
  0
LINE
  5
B7
330
17
100
AcDbEntity
  8
0
100
AcDbLine
 10
71.23879662824677
 20
-241.72446543654377
 30
0.0
 11
88.04184505313928
 21
-126.46933509292529
 31
0.0
  0
ARC
  5
B8
330
17
100
AcDbEntity
  8
0
100
AcDbCircle
 10
3.379333932776126
 20
-101.01874685614615
 30
0.0
 40
25.0
100
AcDbArc
 50
-1.9522105490529686
 51
40.220850297736554
  0
LINE
  5
B9
330
17
100
AcDbEntity
  8
0
100
AcDbLine
 10
48.18155539355289
 20
-52.24918013844997
 30
0.0
 11
22.468361230715004
 21
-84.87535697611986
 31
0.0
  0
LINE
  5
BA
330
17
100
AcDbEntity
  8
0
100
AcDbLine
 10
48.181555393552905
 20
-52.249180138449994
 30
0.0
 11
76.6583085773231
 21
-68.44186358585918
 31
0.0
  0
ARC
  5
BB
330
17
100
AcDbEntity
  8
0
100
AcDbCircle
 10
100.42298790504626
 20
-76.20330781038854
 30
0.0
 40
25.0
100
AcDbArc
 50
161.91318006750635
 51
250.1683256793859
  0
LINE
  5
BC
330
17
100
AcDbEntity
  8
0
100
AcDbLine
 10
89.4904435145865
 20
-116.53313778706459
 30
0.0
 11
91.94153772310776
 21
-99.72064190274037
 31
0.0
  0
LINE
  5
BD
330
17
100
AcDbEntity
  8
0
100
AcDbLine
 10
89.49044351458649
 20
-116.53313778706459
 30
0.0
 11
28.36482364443676
 21
-101.87039459348766
 31
0.0
  0
LINE
  5
BE
330
17
100
AcDbEntity
  8
0
100
AcDbLine
 10
-3.3345748475154666
 20
-76.9371474721781
 30
0.0
 11
-38.79668860162049
 21
-7.683823723715051
 31
0.0
  0
ARC
  5
BF
330
17
100
AcDbEntity
  8
0
100
AcDbCircle
 10
-54.4115055884236
 20
11.839943598926562
 30
0.0
 40
25.0
100
AcDbArc
 50
308.65229745139385
 51
318.83926200187324
  0
LINE
  5
C0
330
17
100
AcDbEntity
  8
0
100
AcDbLine
 10
21.484869753306562
 20
-37.06869320309675
 30
0.0
 11
-35.589853089665354
 21
-4.614399208246745
 31
0.0
  0
LINE
  5
C1
330
17
100
AcDbEntity
  8
0
100
AcDbLine
 10
21.484869753306548
 20
-37.06869320309677
 30
0.0
 11
7.111375729079079
 21
-76.29887905652727
 31
0.0
  0
ARC
  5
C2
330
17
100
AcDbEntity
  8
0
100
AcDbCircle
 10
3.379333932776126
 20
-101.01874685614615
 30
0.0
 40
25.0
100
AcDbArc
 50
81.41469930314598
 51
105.57837938576421
  0
LINE
  5
C3
330
17
100
AcDbEntity
  8
0
100
AcDbLine
 10
30.298683058960897
 20
-42.0804755471725
 30
0.0
 11
18.861481268111376
 21
-73.29651467738877
 31
0.0
  0
LINE
  5
C4
330
17
100
AcDbEntity
  8
0
100
AcDbLine
 10
30.298683058960897
 20
-42.08047554717251
 30
0.0
 11
39.38937798416439
 21
-47.24970057401598
 31
0.0
  0
LINE
  5
C5
330
17
100
AcDbEntity
  8
0
100
AcDbLine
 10
39.38937798416438
 20
-47.249700574016
 30
0.0
 11
18.861481268111376
 21
-73.29651467738877
 31
0.0
  0
LINE
  5
C6
330
17
100
AcDbEntity
  8
0
100
AcDbLine
 10
85.82842724640237
 20
-4.480960808028101
 30
0.0
 11
92.23357320765881
 21
-52.58269209203313
 31
0.0
  0
ARC
  5
C7
330
17
100
AcDbEntity
  8
0
100
AcDbCircle
 10
100.42298790504626
 20
-76.20330781038854
 30
0.0
 40
25.0
100
AcDbArc
 50
109.12175007785348
 51
138.83926200187466
  0
LINE
  5
C8
330
17
100
AcDbEntity
  8
0
100
AcDbLine
 10
81.6013354062878
 20
-59.74896500321511
 30
0.0
 11
54.442116977288
 21
-44.3054689044225
 31
0.0
  0
LINE
  5
C9
330
17
100
AcDbEntity
  8
0
100
AcDbLine
 10
85.82842724640236
 20
-4.48096080802808
 30
0.0
 11
54.44211697728802
 21
-44.3054689044225
 31
0.0
  0
LINE
  5
CA
330
17
100
AcDbEntity
  8
0
100
AcDbLine
 10
94.45856373810437
 20
6.469384665520153
 30
0.0
 11
109.30199779097313
 21
25.303470435661538
 31
0.0
  0
LINE
  5
CB
330
17
100
AcDbEntity
  8
0
100
AcDbLine
 10
109.30199779097318
 20
25.303470435661513
 30
0.0
 11
100.49690346584302
 21
-38.87768419787851
 31
0.0
  0
LINE
  5
CC
330
17
100
AcDbEntity
  8
0
100
AcDbLine
 10
94.4585637381044
 20
6.469384665520124
 30
0.0
 11
100.49690346584302
 21
-38.87768419787852
 31
0.0
  0
LINE
  5
CD
330
17
100
AcDbEntity
  8
0
100
AcDbLine
 10
99.25468392940779
 20
-118.87537251592315
 30
0.0
 11
101.83692871955422
 21
-101.16329121128564
 31
0.0
  0
ARC
  5
CE
330
17
100
AcDbEntity
  8
0
100
AcDbCircle
 10
100.42298790504626
 20
-76.20330781038854
 30
0.0
 40
25.0
100
AcDbArc
 50
273.242243745018
 51
313.5157006939234
  0
LINE
  5
CF
330
17
100
AcDbEntity
  8
0
100
AcDbLine
 10
180.71838807987544
 20
-138.4167919091873
 30
0.0
 11
117.6368209879856
 21
-94.3329506803602
 31
0.0
  0
LINE
  5
D0
330
17
100
AcDbEntity
  8
0
100
AcDbLine
 10
180.71838807987544
 20
-138.4167919091873
 30
0.0
 11
99.25468392940776
 21
-118.87537251592312
 31
0.0
  0
LINE
  5
D1
330
17
100
AcDbEntity
  8
0
100
AcDbLine
 10
203.14138726689185
 20
-141.88695203921543
 30
0.0
 11
123.36505422140107
 21
-86.13616203945978
 31
0.0
  0
ARC
  5
D2
330
17
100
AcDbEntity
  8
0
100
AcDbCircle
 10
100.42298790504626
 20
-76.20330781038854
 30
0.0
 40
25.0
100
AcDbArc
 50
-23.410381240447137
 51
70.65132569539985
  0
LINE
  5
D3
330
17
100
AcDbEntity
  8
0
100
AcDbLine
 10
121.11515892887786
 20
37.83701254179772
 30
0.0
 11
108.70588934568798
 21
-52.6153120556702
 31
0.0
  0
LINE
  5
D4
330
17
100
AcDbEntity
  8
0
100
AcDbLine
 10
121.11515892887786
 20
37.83701254179772
 30
0.0
 11
121.75428102651587
 21
37.83701254179772
 31
0.0
  0
LINE
  5
D5
330
17
100
AcDbEntity
  8
0
100
AcDbLine
 10
121.75428102651587
 20
37.83701254179772
 30
0.0
 11
121.75428102651587
 21
40.786137557822926
 31
0.0
  0
LINE
  5
D6
330
17
100
AcDbEntity
  8
0
100
AcDbLine
 10
121.75428102651587
 20
40.786137557822926
 30
0.0
 11
146.89350613830294
 21
66.27490863271272
 31
0.0
  0
LINE
  5
D7
330
17
100
AcDbEntity
  8
0
100
AcDbLine
 10
146.89350613830294
 20
66.27490863271272
 30
0.0
 11
256.2826907181709
 21
22.16357224495387
 31
0.0
  0
ARC
  5
D8
330
17
100
AcDbEntity
  8
0
100
AcDbCircle
 10
280.8700167390337
 20
17.639923370006223
 30
0.0
 40
25.0
100
AcDbArc
 50
169.57513615171158
 51
234.1002071719768
  0
LINE
  5
D9
330
17
100
AcDbEntity
  8
0
100
AcDbLine
 10
266.2107810451194
 20
-2.611170646620856
 30
0.0
 11
203.14138726689185
 21
-141.88695203921543
 31
0.0
  0
LINE
  5
DA
330
17
100
AcDbEntity
  8
0
100
AcDbLine
 10
48.06560881971093
 20
35.479243432138276
 30
0.0
 11
-31.199623484672955
 21
21.12479842824849
 31
0.0
  0
ARC
  5
DB
330
17
100
AcDbEntity
  8
0
100
AcDbCircle
 10
-54.4115055884236
 20
11.839943598926562
 30
0.0
 40
25.0
100
AcDbArc
 50
21.801626507443874
 51
129.2739009948034
  0
LINE
  5
DC
330
17
100
AcDbEntity
  8
0
100
AcDbLine
 10
-183.72085266917227
 20
123.71234502284334
 30
0.0
 11
-70.23721339368859
 21
31.193159674358682
 31
0.0
  0
LINE
  5
DD
330
17
100
AcDbEntity
  8
0
100
AcDbLine
 10
-103.54544214591321
 20
187.47534289179814
 30
0.0
 11
-183.72085266917227
 21
123.71234502284334
 31
0.0
  0
ARC
  5
DE
330
17
100
AcDbEntity
  8
0
100
AcDbCircle
 10
-87.48643955217732
 20
206.6354168920305
 30
0.0
 40
25.0
100
AcDbArc
 50
230.03196753797567
 51
315.47011956350093
  0
LINE
  5
DF
330
17
100
AcDbEntity
  8
0
100
AcDbLine
 10
70.91255735110747
 20
97.83638746125821
 30
0.0
 11
-69.66431906252069
 21
189.1033884511411
 31
0.0
  0
LINE
  5
E0
330
17
100
AcDbEntity
  8
0
100
AcDbLine
 10
70.91255735110747
 20
97.83638746125821
 30
0.0
 11
48.06560881971092
 21
35.47924343213826
 31
0.0
  0
LINE
  5
E1
330
17
100
AcDbEntity
  8
0
100
AcDbLine
 10
24.972967299180546
 20
-27.548480875538772
 30
0.0
 11
-30.646826260700465
 21
4.078499374397218
 31
0.0
  0
ARC
  5
E2
330
17
100
AcDbEntity
  8
0
100
AcDbCircle
 10
-54.4115055884236
 20
11.839943598926562
 30
0.0
 40
25.0
100
AcDbArc
 50
341.91318006750674
 51
358.7277084418123
  0
LINE
  5
E3
330
17
100
AcDbEntity
  8
0
100
AcDbLine
 10
44.07751579158658
 20
24.594372263696215
 30
0.0
 11
-29.41766898614837
 21
11.284847302089991
 31
0.0
  0
LINE
  5
E4
330
17
100
AcDbEntity
  8
0
100
AcDbLine
 10
44.07751579158659
 20
24.5943722636962
 30
0.0
 11
24.97296729918053
 21
-27.548480875538814
 31
0.0
  0
LINE
  5
E5
330
17
100
AcDbEntity
  8
0
100
AcDbLine
 10
55.4844473082118
 20
26.66009725255089
 30
0.0
 11
33.78678060483489
 21
-32.56026321961451
 31
0.0
  0
LINE
  5
E6
330
17
100
AcDbEntity
  8
0
100
AcDbLine
 10
55.4844473082118
 20
26.660097252550873
 30
0.0
 11
81.06488554724316
 21
31.292556947711162
 31
0.0
  0
LINE
  5
E7
330
17
100
AcDbEntity
  8
0
100
AcDbLine
 10
81.06488554724316
 20
31.292556947711162
 30
0.0
 11
83.98812992477346
 21
9.339409216811006
 31
0.0
  0
LINE
  5
E8
330
17
100
AcDbEntity
  8
0
100
AcDbLine
 10
83.98812992477346
 20
9.33940921681101
 30
0.0
 11
45.64993956789952
 21
-39.305989339988514
 31
0.0
  0
LINE
  5
E9
330
17
100
AcDbEntity
  8
0
100
AcDbLine
 10
45.64993956789952
 20
-39.30598933998851
 30
0.0
 11
33.78678060483486
 21
-32.56026321961454
 31
0.0
  0
LINE
  5
EA
330
17
100
AcDbEntity
  8
0
100
AcDbLine
 10
90.9156098372483
 20
33.076462399806076
 30
0.0
 11
92.61826641647549
 21
20.28975469035923
 31
0.0
  0
LINE
  5
EB
330
17
100
AcDbEntity
  8
0
100
AcDbLine
 10
90.9156098372483
 20
33.076462399806076
 30
0.0
 11
104.65685855843648
 21
35.564917846396085
 31
0.0
  0
LINE
  5
EC
330
17
100
AcDbEntity
  8
0
100
AcDbLine
 10
104.65685855843648
 20
35.564917846396085
 30
0.0
 11
92.61826641647548
 21
20.289754690359235
 31
0.0
  0
LINE
  5
ED
330
17
100
AcDbEntity
  8
0
100
AcDbLine
 10
74.69863460222047
 20
79.10219221540696
 30
0.0
 11
79.74350772258484
 21
41.21591567065432
 31
0.0
  0
LINE
  5
EE
330
17
100
AcDbEntity
  8
0
100
AcDbLine
 10
79.74350772258484
 20
41.21591567065433
 30
0.0
 11
59.47254033633611
 21
37.544968420992916
 31
0.0
  0
LINE
  5
EF
330
17
100
AcDbEntity
  8
0
100
AcDbLine
 10
74.69863460222044
 20
79.10219221540696
 30
0.0
 11
59.47254033633612
 21
37.544968420992916
 31
0.0
  0
LINE
  5
F0
330
17
100
AcDbEntity
  8
0
100
AcDbLine
 10
118.16875231765862
 20
77.8582043973216
 30
0.0
 11
112.59688305286309
 21
47.83701254179771
 31
0.0
  0
LINE
  5
F1
330
17
100
AcDbEntity
  8
0
100
AcDbLine
 10
111.75428102651587
 20
47.83701254179772
 30
0.0
 11
112.59688305286309
 21
47.83701254179772
 31
0.0
  0
LINE
  5
F2
330
17
100
AcDbEntity
  8
0
100
AcDbLine
 10
111.75428102651587
 20
47.01286941146674
 30
0.0
 11
111.75428102651587
 21
47.83701254179772
 31
0.0
  0
LINE
  5
F3
330
17
100
AcDbEntity
  8
0
100
AcDbLine
 10
111.75428102651587
 20
47.01286941146674
 30
0.0
 11
89.59423201258996
 21
42.999821122749246
 31
0.0
  0
LINE
  5
F4
330
17
100
AcDbEntity
  8
0
100
AcDbLine
 10
83.06775532505318
 20
92.01272883073153
 30
0.0
 11
89.59423201258996
 21
42.99982112274923
 31
0.0
  0
LINE
  5
F5
330
17
100
AcDbEntity
  8
0
100
AcDbLine
 10
83.06775532505318
 20
92.01272883073153
 30
0.0
 11
118.16875231765862
 21
77.8582043973216
 31
0.0
  0
LINE
  5
F6
330
17
100
AcDbEntity
  8
0
100
AcDbLine
 10
90.22905713959749
 20
99.9073712896948
 30
0.0
 11
120.03060560523815
 21
87.88985663051787
 31
0.0
  0
LINE
  5
F7
330
17
100
AcDbEntity
  8
0
100
AcDbLine
 10
124.91114349841442
 20
114.18615998690638
 30
0.0
 11
90.22905713959749
 21
99.9073712896948
 31
0.0
  0
LINE
  5
F8
330
17
100
AcDbEntity
  8
0
100
AcDbLine
 10
124.91114349841442
 20
114.18615998690638
 30
0.0
 11
120.03060560523815
 21
87.88985663051787
 31
0.0
  0
LINE
  5
F9
330
17
100
AcDbEntity
  8
0
100
AcDbLine
 10
136.8446502063356
 20
70.32712335603847
 30
0.0
 11
124.64630880176185
 21
57.95917127430356
 31
0.0
  0
LINE
  5
FA
330
17
100
AcDbEntity
  8
0
100
AcDbLine
 10
124.64630880176185
 20
57.95917127430357
 30
0.0
 11
127.63132360604304
 21
74.04240974816855
 31
0.0
  0
LINE
  5
FB
330
17
100
AcDbEntity
  8
0
100
AcDbLine
 10
127.63132360604304
 20
74.04240974816855
 30
0.0
 11
136.8446502063356
 21
70.32712335603847
 31
0.0
  0
LINE
  5
FC
330
17
100
AcDbEntity
  8
0
100
AcDbLine
 10
127.08431903218936
 20
125.8952142619948
 30
0.0
 11
88.21695701678544
 21
109.89332661042067
 31
0.0
  0
LINE
  5
FD
330
17
100
AcDbEntity
  8
0
100
AcDbLine
 10
88.21695701678544
 20
109.89332661042067
 30
0.0
 11
142.34497639518545
 21
208.11952728214874
 31
0.0
  0
LINE
  5
FE
330
17
100
AcDbEntity
  8
0
100
AcDbLine
 10
142.34497639518557
 20
208.11952728214874
 30
0.0
 11
127.08431903218937
 21
125.8952142619948
 31
0.0
  0
LINE
  5
FF
330
17
100
AcDbEntity
  8
0
100
AcDbLine
 10
54.968099388932025
 20
120.11071560532194
 30
0.0
 11
-26.309755010579714
 21
225.04300996814595
 31
0.0
  0
LINE
  5
100
330
17
100
AcDbEntity
  8
0
100
AcDbLine
 10
54.968099388932
 20
120.11071560532191
 30
0.0
 11
-64.21896488791033
 21
197.49076693986177
 31
0.0
  0
ARC
  5
101
330
17
100
AcDbEntity
  8
0
100
AcDbCircle
 10
-87.48643955217732
 20
206.6354168920305
 30
0.0
 40
25.0
100
AcDbArc
 50
-21.455962370868107
 51
28.36588182776174
  0
LINE
  5
102
330
17
100
AcDbEntity
  8
0
100
AcDbLine
 10
-65.4881485783686
 20
218.51292480537796
 30
0.0
 11
-53.34219854600862
 21
228.24858977977186
 31
0.0
  0
ARC
  5
103
330
17
100
AcDbEntity
  8
0
100
AcDbCircle
 10
-37.35659384558369
 20
247.46994359165885
 30
0.0
 40
25.0
100
AcDbArc
 50
230.25110396021128
 51
296.22348244257813
  0
LINE
  5
104
330
17
100
AcDbEntity
  8
0
100
AcDbLine
 10
-185.98951609800469
 20
-166.2069341343005
 30
5.0
 11
-185.98951609800469
 21
-164.89287202729787
 31
5.0
  0
LINE
  5
105
330
17
100
AcDbEntity
  8
0
100
AcDbLine
 10
-185.98951609800469
 20
-164.89287202729787
 30
5.0
 11
-185.98951609800469
 21
-164.89287202729787
 31
0.0
  0
LINE
  5
106
330
17
100
AcDbEntity
  8
0
100
AcDbLine
 10
-185.98951609800469
 20
-166.2069341343005
 30
0.0
 11
-185.98951609800469
 21
-166.2069341343005
 31
5.0
  0
LINE
  5
107
330
17
100
AcDbEntity
  8
0
100
AcDbLine
 10
-187.15477124888656
 20
-166.2069341343005
 30
5.0
 11
-185.98951609800469
 21
-166.2069341343005
 31
5.0
  0
LINE
  5
108
330
17
100
AcDbEntity
  8
0
100
AcDbLine
 10
-187.15477124888653
 20
-166.2069341343005
 30
5.0
 11
-187.15477124888653
 21
-166.2069341343005
 31
0.0
  0
LINE
  5
109
330
17
100
AcDbEntity
  8
0
100
AcDbLine
 10
68.68802415057914
 20
-264.58323116335805
 30
5.0
 11
68.68802415057914
 21
-260.6420406272036
 31
5.0
  0
LINE
  5
10A
330
17
100
AcDbEntity
  8
0
100
AcDbLine
 10
68.68802415057917
 20
-260.6420406272035
 30
5.0
 11
68.68802415057917
 21
-260.6420406272035
 31
0.0
  0
LINE
  5
10B
330
17
100
AcDbEntity
  8
0
100
AcDbLine
 10
68.68802415057914
 20
-264.58323116335805
 30
0.0
 11
68.68802415057914
 21
-264.58323116335805
 31
5.0
  0
LINE
  5
10C
330
17
100
AcDbEntity
  8
0
100
AcDbLine
 10
8.737446730075606
 20
-125.43780964019696
 30
5.0
 11
8.737446730075606
 21
-125.43780964019696
 31
0.0
  0
LINE
  5
10D
330
17
100
AcDbEntity
  8
0
100
AcDbLine
 10
21.10259182135875
 20
-153.32444568347086
 30
5.0
 11
68.6880241505792
 21
-260.6420406272036
 31
5.0
  0
LINE
  5
10E
330
17
100
AcDbEntity
  8
0
100
AcDbLine
 10
21.10259182135875
 20
-153.32444568347086
 30
2.5
 11
21.10259182135875
 21
-153.32444568347086
 31
5.0
  0
LINE
  5
10F
330
17
100
AcDbEntity
  8
0
100
AcDbLine
 10
17.049124024609014
 20
-144.18281569638907
 30
2.5
 11
21.102591821358747
 21
-153.32444568347086
 31
2.5
  0
LINE
  5
110
330
17
100
AcDbEntity
  8
0
100
AcDbLine
 10
17.04912402460904
 20
-144.18281569638904
 30
2.5
 11
17.04912402460904
 21
-144.18281569638904
 31
5.0
  0
LINE
  5
111
330
17
100
AcDbEntity
  8
0
100
AcDbLine
 10
8.737446730075618
 20
-125.43780964019692
 30
5.0
 11
17.04912402460904
 21
-144.18281569638904
 31
5.0
  0
ARC
  5
112
330
17
100
AcDbEntity
  8
0
100
AcDbCircle
 10
3.379333932776126
 20
-101.01874685614615
 30
5.0
 40
25.0
100
AcDbArc
 50
208.74260184856138
 51
282.37590092978877
  0
LINE
  5
113
330
17
100
AcDbEntity
  8
0
100
AcDbLine
 10
-18.540387434203918
 20
-113.04063585887606
 30
5.0
 11
-18.540387434203918
 21
-113.04063585887606
 31
0.0
  0
LINE
  5
114
330
17
100
AcDbEntity
  8
0
100
AcDbLine
 10
-38.12787096902032
 20
-119.10608887315587
 30
5.0
 11
-18.54038743420377
 21
-113.04063585887604
 31
5.0
  0
LINE
  5
115
330
17
100
AcDbEntity
  8
0
100
AcDbLine
 10
-38.12787096902032
 20
-119.10608887315587
 30
2.5
 11
-38.12787096902032
 21
-119.10608887315587
 31
5.0
  0
LINE
  5
116
330
17
100
AcDbEntity
  8
0
100
AcDbLine
 10
-47.68036331373193
 20
-122.06411017196783
 30
2.5
 11
-38.12787096902028
 21
-119.10608887315585
 31
2.5
  0
LINE
  5
117
330
17
100
AcDbEntity
  8
0
100
AcDbLine
 10
-47.68036331373193
 20
-122.06411017196783
 30
2.5
 11
-47.68036331373193
 21
-122.06411017196783
 31
5.0
  0
LINE
  5
118
330
17
100
AcDbEntity
  8
0
100
AcDbLine
 10
-185.98951609800469
 20
-164.89287202729787
 30
5.0
 11
-47.68036331373193
 21
-122.06411017196783
 31
5.0
  0
LINE
  5
119
330
17
100
AcDbEntity
  8
0
100
AcDbLine
 10
-221.77447799486015
 20
-295.1639024827367
 30
5.0
 11
-227.09101518885447
 21
-314.96778250055195
 31
5.0
  0
LINE
  5
11A
330
17
100
AcDbEntity
  8
0
100
AcDbLine
 10
-227.0910151888544
 20
-314.9677825005518
 30
5.0
 11
-227.0910151888544
 21
-314.9677825005518
 31
0.0
  0
LINE
  5
11B
330
17
100
AcDbEntity
  8
0
100
AcDbLine
 10
-219.1816905775417
 20
-285.5058771458164
 30
5.0
 11
-187.15477124888656
 21
-166.2069341343005
 31
5.0
  0
LINE
  5
11C
330
17
100
AcDbEntity
  8
0
100
AcDbLine
 10
-219.1816905775417
 20
-285.5058771458164
 30
2.5
 11
-219.1816905775417
 21
-285.5058771458164
 31
5.0
  0
LINE
  5
11D
330
17
100
AcDbEntity
  8
0
100
AcDbLine
 10
-221.77447799486018
 20
-295.1639024827367
 30
2.5
 11
-219.18169057754167
 21
-285.5058771458164
 31
2.5
  0
LINE
  5
11E
330
17
100
AcDbEntity
  8
0
100
AcDbLine
 10
-221.77447799486015
 20
-295.1639024827367
 30
2.5
 11
-221.77447799486015
 21
-295.1639024827367
 31
5.0
  0
LINE
  5
11F
330
17
100
AcDbEntity
  8
0
100
AcDbLine
 10
-213.3174063342679
 20
-338.85061630569766
 30
5.0
 11
-213.3174063342679
 21
-338.85061630569766
 31
0.0
  0
ARC
  5
120
330
17
100
AcDbEntity
  8
0
100
AcDbCircle
 10
-238.27103404125353
 20
-337.3286227902189
 30
5.0
 40
25.0
100
AcDbArc
 50
-3.490310511668042
 51
63.43577142270159
  0
LINE
  5
121
330
17
100
AcDbEntity
  8
0
100
AcDbLine
 10
-193.51352631645284
 20
-344.16715349969195
 30
5.0
 11
-213.31740633426762
 21
-338.8506163056977
 31
5.0
  0
LINE
  5
122
330
17
100
AcDbEntity
  8
0
100
AcDbLine
 10
-193.51352631645284
 20
-344.16715349969195
 30
0.0
 11
-193.51352631645284
 21
-344.16715349969195
 31
5.0
  0
LINE
  5
123
330
17
100
AcDbEntity
  8
0
100
AcDbLine
 10
-196.10631373377132
 20
-353.8251788366123
 30
0.0
 11
-196.10631373377132
 21
-353.8251788366123
 31
5.0
  0
LINE
  5
124
330
17
100
AcDbEntity
  8
0
100
AcDbLine
 10
-196.10631373377132
 20
-353.8251788366123
 30
5.0
 11
-193.5135263164528
 21
-344.16715349969195
 31
5.0
  0
LINE
  5
125
330
17
100
AcDbEntity
  8
0
100
AcDbLine
 10
-215.91019375158658
 20
-348.508641642618
 30
5.0
 11
-196.10631373377134
 21
-353.8251788366123
 31
5.0
  0
LINE
  5
126
330
17
100
AcDbEntity
  8
0
100
AcDbLine
 10
-215.9101937515864
 20
-348.508641642618
 30
5.0
 11
-215.9101937515864
 21
-348.508641642618
 31
0.0
  0
ARC
  5
127
330
17
100
AcDbEntity
  8
0
100
AcDbCircle
 10
-238.27103404125353
 20
-337.3286227902189
 30
5.0
 40
25.0
100
AcDbArc
 50
266.50968948833383
 51
333.4357714227015
  0
LINE
  5
128
330
17
100
AcDbEntity
  8
0
100
AcDbLine
 10
-239.7930275567323
 20
-362.28225049720453
 30
5.0
 11
-239.7930275567323
 21
-362.28225049720453
 31
0.0
  0
LINE
  5
129
330
17
100
AcDbEntity
  8
0
100
AcDbLine
 10
-239.79302755673228
 20
-362.2822504972045
 30
5.0
 11
-245.10956475072658
 21
-382.0861305150196
 31
5.0
  0
LINE
  5
12A
330
17
100
AcDbEntity
  8
0
100
AcDbLine
 10
-245.10956475072658
 20
-382.0861305150196
 30
0.0
 11
-245.10956475072658
 21
-382.0861305150196
 31
5.0
  0
LINE
  5
12B
330
17
100
AcDbEntity
  8
0
100
AcDbLine
 10
-254.7675900876469
 20
-379.4933430977011
 30
0.0
 11
-254.7675900876469
 21
-379.4933430977011
 31
5.0
  0
LINE
  5
12C
330
17
100
AcDbEntity
  8
0
100
AcDbLine
 10
-254.7675900876469
 20
-379.4933430977011
 30
5.0
 11
-245.10956475072658
 21
-382.0861305150196
 31
5.0
  0
LINE
  5
12D
330
17
100
AcDbEntity
  8
0
100
AcDbLine
 10
-249.4510528936526
 20
-359.68946307988585
 30
5.0
 11
-254.7675900876469
 21
-379.4933430977011
 31
5.0
  0
LINE
  5
12E
330
17
100
AcDbEntity
  8
0
100
AcDbLine
 10
-249.45105289365264
 20
-359.689463079886
 30
5.0
 11
-249.45105289365264
 21
-359.689463079886
 31
0.0
  0
ARC
  5
12F
330
17
100
AcDbEntity
  8
0
100
AcDbCircle
 10
-238.27103404125353
 20
-337.3286227902189
 30
5.0
 40
25.0
100
AcDbArc
 50
176.50968948833378
 51
243.43577142270155
  0
LINE
  5
130
330
17
100
AcDbEntity
  8
0
100
AcDbLine
 10
-263.22466174823916
 20
-335.80662927474015
 30
5.0
 11
-263.22466174823916
 21
-335.80662927474015
 31
0.0
  0
LINE
  5
131
330
17
100
AcDbEntity
  8
0
100
AcDbLine
 10
-350.6347191244965
 20
-312.3405801595164
 30
5.0
 11
-263.2246617482391
 21
-335.80662927474015
 31
5.0
  0
LINE
  5
132
330
17
100
AcDbEntity
  8
0
100
AcDbLine
 10
-350.6347191244965
 20
-312.3405801595164
 30
0.0
 11
-350.6347191244965
 21
-312.3405801595164
 31
5.0
  0
LINE
  5
133
330
17
100
AcDbEntity
  8
0
100
AcDbLine
 10
-348.041931707178
 20
-302.68255482259605
 30
0.0
 11
-348.041931707178
 21
-302.68255482259605
 31
5.0
  0
LINE
  5
134
330
17
100
AcDbEntity
  8
0
100
AcDbLine
 10
-348.041931707178
 20
-302.68255482259605
 30
5.0
 11
-350.6347191244965
 21
-312.3405801595164
 31
5.0
  0
LINE
  5
135
330
17
100
AcDbEntity
  8
0
100
AcDbLine
 10
-260.6318743309205
 20
-326.1486039378198
 30
5.0
 11
-348.041931707178
 21
-302.68255482259605
 31
5.0
  0
LINE
  5
136
330
17
100
AcDbEntity
  8
0
100
AcDbLine
 10
-260.63187433092065
 20
-326.14860393781976
 30
5.0
 11
-260.63187433092065
 21
-326.14860393781976
 31
0.0
  0
ARC
  5
137
330
17
100
AcDbEntity
  8
0
100
AcDbCircle
 10
-238.27103404125353
 20
-337.3286227902189
 30
5.0
 40
25.0
100
AcDbArc
 50
86.50968948833376
 51
153.43577142270152
  0
LINE
  5
138
330
17
100
AcDbEntity
  8
0
100
AcDbLine
 10
-236.74904052577477
 20
-312.3749950832333
 30
5.0
 11
-236.74904052577477
 21
-312.3749950832333
 31
0.0
  0
LINE
  5
139
330
17
100
AcDbEntity
  8
0
100
AcDbLine
 10
-231.43250333178048
 20
-292.5711150654182
 30
5.0
 11
-236.74904052577477
 21
-312.37499508323333
 31
5.0
  0
LINE
  5
13A
330
17
100
AcDbEntity
  8
0
100
AcDbLine
 10
-231.43250333178048
 20
-292.5711150654182
 30
2.5
 11
-231.43250333178048
 21
-292.5711150654182
 31
5.0
  0
LINE
  5
13B
330
17
100
AcDbEntity
  8
0
100
AcDbLine
 10
-228.839715914462
 20
-282.9130897284979
 30
2.5
 11
-231.4325033317805
 21
-292.5711150654182
 31
2.5
  0
LINE
  5
13C
330
17
100
AcDbEntity
  8
0
100
AcDbLine
 10
-228.839715914462
 20
-282.9130897284979
 30
2.5
 11
-228.839715914462
 21
-282.9130897284979
 31
5.0
  0
LINE
  5
13D
330
17
100
AcDbEntity
  8
0
100
AcDbLine
 10
-198.15199495260416
 20
-168.60260495744467
 30
5.0
 11
-228.839715914462
 21
-282.9130897284979
 31
5.0
  0
LINE
  5
13E
330
17
100
AcDbEntity
  8
0
100
AcDbLine
 10
-198.15199495260416
 20
-168.60260495744467
 30
5.0
 11
-198.15199495260416
 21
-168.60260495744467
 31
0.0
  0
LINE
  5
13F
330
17
100
AcDbEntity
  8
0
100
AcDbLine
 10
-308.8941713475459
 20
-202.16978322396236
 30
5.0
 11
-198.15199495260413
 21
-168.60260495744467
 31
5.0
  0
LINE
  5
140
330
17
100
AcDbEntity
  8
0
100
AcDbLine
 10
-308.8941713475459
 20
-202.16978322396236
 30
2.5
 11
-308.8941713475459
 21
-202.16978322396236
 31
5.0
  0
LINE
  5
141
330
17
100
AcDbEntity
  8
0
100
AcDbLine
 10
-318.4642008716236
 20
-205.070564999326
 30
2.5
 11
-308.8941713475459
 21
-202.16978322396236
 31
2.5
  0
LINE
  5
142
330
17
100
AcDbEntity
  8
0
100
AcDbLine
 10
-318.4642008716236
 20
-205.07056499932597
 30
2.5
 11
-318.4642008716236
 21
-205.07056499932597
 31
5.0
  0
LINE
  5
143
330
17
100
AcDbEntity
  8
0
100
AcDbLine
 10
-318.4642008716236
 20
-205.07056499932597
 30
5.0
 11
-338.0876445726125
 21
-211.0186477836567
 31
5.0
  0
LINE
  5
144
330
17
100
AcDbEntity
  8
0
100
AcDbLine
 10
-338.08764457261265
 20
-211.01864778365675
 30
5.0
 11
-338.08764457261265
 21
-211.01864778365675
 31
0.0
  0
LINE
  5
145
330
17
100
AcDbEntity
  8
0
100
AcDbLine
 10
-351.08927465081047
 20
-235.33036649610213
 30
5.0
 11
-351.08927465081047
 21
-235.33036649610213
 31
0.0
  0
ARC
  5
146
330
17
100
AcDbEntity
  8
0
100
AcDbCircle
 10
-362.9797246176549
 20
-213.3390682264235
 30
5.0
 40
25.0
100
AcDbArc
 50
-61.600404512483436
 51
5.325677421886155
  0
LINE
  5
147
330
17
100
AcDbEntity
  8
0
100
AcDbLine
 10
-345.1411918664797
 20
-254.95381019709117
 30
5.0
 11
-351.08927465081047
 21
-235.33036649610202
 31
5.0
  0
LINE
  5
148
330
17
100
AcDbEntity
  8
0
100
AcDbLine
 10
-345.1411918664797
 20
-254.95381019709117
 30
0.0
 11
-345.1411918664797
 21
-254.95381019709117
 31
5.0
  0
LINE
  5
149
330
17
100
AcDbEntity
  8
0
100
AcDbLine
 10
-354.71122139055734
 20
-257.85459197245484
 30
0.0
 11
-354.71122139055734
 21
-257.85459197245484
 31
5.0
  0
LINE
  5
14A
330
17
100
AcDbEntity
  8
0
100
AcDbLine
 10
-354.71122139055734
 20
-257.85459197245484
 30
5.0
 11
-345.1411918664797
 21
-254.9538101970912
 31
5.0
  0
LINE
  5
14B
330
17
100
AcDbEntity
  8
0
100
AcDbLine
 10
-360.6593041748882
 20
-238.23114827146549
 30
5.0
 11
-354.71122139055734
 21
-257.85459197245484
 31
5.0
  0
LINE
  5
14C
330
17
100
AcDbEntity
  8
0
100
AcDbLine
 10
-360.6593041748881
 20
-238.23114827146574
 30
5.0
 11
-360.6593041748881
 21
-238.23114827146574
 31
0.0
  0
ARC
  5
14D
330
17
100
AcDbEntity
  8
0
100
AcDbCircle
 10
-362.9797246176549
 20
-213.3390682264235
 30
5.0
 40
25.0
100
AcDbArc
 50
208.3995954875165
 51
275.3256774218834
  0
LINE
  5
14E
330
17
100
AcDbEntity
  8
0
100
AcDbLine
 10
-384.9710228873335
 20
-225.22951819326798
 30
5.0
 11
-384.9710228873335
 21
-225.22951819326798
 31
0.0
  0
LINE
  5
14F
330
17
100
AcDbEntity
  8
0
100
AcDbLine
 10
-384.9710228873334
 20
-225.22951819326792
 30
5.0
 11
-404.5944665883226
 21
-231.17760097759873
 31
5.0
  0
LINE
  5
150
330
17
100
AcDbEntity
  8
0
100
AcDbLine
 10
-404.5944665883226
 20
-231.17760097759873
 30
0.0
 11
-404.5944665883226
 21
-231.17760097759873
 31
5.0
  0
LINE
  5
151
330
17
100
AcDbEntity
  8
0
100
AcDbLine
 10
-407.4952483636862
 20
-221.60757145352105
 30
0.0
 11
-407.4952483636862
 21
-221.60757145352105
 31
5.0
  0
LINE
  5
152
330
17
100
AcDbEntity
  8
0
100
AcDbLine
 10
-407.4952483636862
 20
-221.60757145352105
 30
5.0
 11
-404.5944665883226
 21
-231.1776009775987
 31
5.0
  0
LINE
  5
153
330
17
100
AcDbEntity
  8
0
100
AcDbLine
 10
-387.8718046626969
 20
-215.6594886691902
 30
5.0
 11
-407.4952483636862
 21
-221.60757145352105
 31
5.0
  0
LINE
  5
154
330
17
100
AcDbEntity
  8
0
100
AcDbLine
 10
-387.8718046626971
 20
-215.6594886691903
 30
5.0
 11
-387.8718046626971
 21
-215.6594886691903
 31
0.0
  0
ARC
  5
155
330
17
100
AcDbEntity
  8
0
100
AcDbCircle
 10
-362.9797246176549
 20
-213.3390682264235
 30
5.0
 40
25.0
100
AcDbArc
 50
118.3995954875166
 51
185.3256774218835
  0
LINE
  5
156
330
17
100
AcDbEntity
  8
0
100
AcDbLine
 10
-374.87017458449924
 20
-191.34776995674488
 30
5.0
 11
-374.87017458449924
 21
-191.34776995674488
 31
0.0
  0
LINE
  5
157
330
17
100
AcDbEntity
  8
0
100
AcDbLine
 10
-401.1237297963755
 20
-104.73411958721218
 30
5.0
 11
-374.8701745844993
 21
-191.34776995674503
 31
5.0
  0
LINE
  5
158
330
17
100
AcDbEntity
  8
0
100
AcDbLine
 10
-401.1237297963755
 20
-104.73411958721218
 30
0.0
 11
-401.1237297963755
 21
-104.73411958721218
 31
5.0
  0
LINE
  5
159
330
17
100
AcDbEntity
  8
0
100
AcDbLine
 10
-391.5537002722979
 20
-101.83333781184854
 30
0.0
 11
-391.5537002722979
 21
-101.83333781184854
 31
5.0
  0
LINE
  5
15A
330
17
100
AcDbEntity
  8
0
100
AcDbLine
 10
-391.5537002722979
 20
-101.83333781184854
 30
5.0
 11
-401.1237297963755
 21
-104.73411958721218
 31
5.0
  0
LINE
  5
15B
330
17
100
AcDbEntity
  8
0
100
AcDbLine
 10
-365.3001450604216
 20
-188.4469881813815
 30
5.0
 11
-391.5537002722979
 21
-101.83333781184854
 31
5.0
  0
LINE
  5
15C
330
17
100
AcDbEntity
  8
0
100
AcDbLine
 10
-365.3001450604216
 20
-188.44698818138124
 30
5.0
 11
-365.3001450604216
 21
-188.44698818138124
 31
0.0
  0
ARC
  5
15D
330
17
100
AcDbEntity
  8
0
100
AcDbCircle
 10
-362.9797246176549
 20
-213.3390682264235
 30
5.0
 40
25.0
100
AcDbArc
 50
28.399595487516514
 51
95.32567742188358
  0
LINE
  5
15E
330
17
100
AcDbEntity
  8
0
100
AcDbLine
 10
-340.98842634797626
 20
-201.4486182595791
 30
5.0
 11
-340.98842634797626
 21
-201.4486182595791
 31
0.0
  0
LINE
  5
15F
330
17
100
AcDbEntity
  8
0
100
AcDbLine
 10
-321.3649826469872
 20
-195.5005354752483
 30
5.0
 11
-340.9884263479764
 21
-201.4486182595791
 31
5.0
  0
LINE
  5
160
330
17
100
AcDbEntity
  8
0
100
AcDbLine
 10
-321.3649826469872
 20
-195.5005354752483
 30
2.5
 11
-321.3649826469872
 21
-195.5005354752483
 31
5.0
  0
LINE
  5
161
330
17
100
AcDbEntity
  8
0
100
AcDbLine
 10
-311.79495312290953
 20
-192.59975369988467
 30
2.5
 11
-321.3649826469872
 21
-195.5005354752483
 31
2.5
  0
LINE
  5
162
330
17
100
AcDbEntity
  8
0
100
AcDbLine
 10
-311.79495312290953
 20
-192.59975369988467
 30
2.5
 11
-311.79495312290953
 21
-192.59975369988467
 31
5.0
  0
LINE
  5
163
330
17
100
AcDbEntity
  8
0
100
AcDbLine
 10
-199.20269795124682
 20
-158.47179609773414
 30
5.0
 11
-311.79495312290953
 21
-192.5997536998847
 31
5.0
  0
LINE
  5
164
330
17
100
AcDbEntity
  8
0
100
AcDbLine
 10
-199.20269795124682
 20
-158.4717960977341
 30
0.0
 11
-199.20269795124682
 21
-158.4717960977341
 31
5.0
  0
LINE
  5
165
330
17
100
AcDbEntity
  8
0
100
AcDbLine
 10
-199.20269795124682
 20
-158.47179609773414
 30
5.0
 11
-294.9405653701267
 21
-28.140397038255145
 31
5.0
  0
LINE
  5
166
330
17
100
AcDbEntity
  8
0
100
AcDbLine
 10
-294.9405653701267
 20
-28.14039703825521
 30
5.0
 11
-294.9405653701267
 21
-28.14039703825521
 31
0.0
  0
ARC
  5
167
330
17
100
AcDbEntity
  8
0
100
AcDbCircle
 10
-305.41221891559985
 20
-5.439197245654398
 30
5.0
 40
25.0
100
AcDbArc
 50
231.95240417703926
 51
294.7630229618738
  0
LINE
  5
168
330
17
100
AcDbEntity
  8
0
100
AcDbLine
 10
-320.8201155748473
 20
-25.126673481524538
 30
5.0
 11
-320.8201155748473
 21
-25.126673481524538
 31
0.0
  0
LINE
  5
169
330
17
100
AcDbEntity
  8
0
100
AcDbLine
 10
-336.43195361257557
 20
-38.420647476492334
 30
5.0
 11
-320.82011557484714
 21
-25.126673481524403
 31
5.0
  0
LINE
  5
16A
330
17
100
AcDbEntity
  8
0
100
AcDbLine
 10
-336.43195361257557
 20
-38.420647476492334
 30
0.0
 11
-336.43195361257557
 21
-38.420647476492334
 31
5.0
  0
LINE
  5
16B
330
17
100
AcDbEntity
  8
0
100
AcDbLine
 10
-342.915205256004
 20
-30.807011805672342
 30
0.0
 11
-342.915205256004
 21
-30.807011805672342
 31
5.0
  0
LINE
  5
16C
330
17
100
AcDbEntity
  8
0
100
AcDbLine
 10
-342.915205256004
 20
-30.807011805672342
 30
5.0
 11
-336.43195361257557
 21
-38.420647476492334
 31
5.0
  0
LINE
  5
16D
330
17
100
AcDbEntity
  8
0
100
AcDbLine
 10
-327.30336721827564
 20
-17.513037810704446
 30
5.0
 11
-342.915205256004
 21
-30.807011805672346
 31
5.0
  0
LINE
  5
16E
330
17
100
AcDbEntity
  8
0
100
AcDbLine
 10
-327.30336721827575
 20
-17.513037810704528
 30
5.0
 11
-327.30336721827575
 21
-17.513037810704528
 31
0.0
  0
ARC
  5
16F
330
17
100
AcDbEntity
  8
0
100
AcDbCircle
 10
-305.41221891559985
 20
-5.439197245654398
 30
5.0
 40
25.0
100
AcDbArc
 50
146.0678673265716
 51
208.87848611140643
  0
LINE
  5
170
330
17
100
AcDbEntity
  8
0
100
AcDbLine
 10
-326.15470290166917
 20
8.516065492383099
 30
5.0
 11
-326.15470290166917
 21
8.516065492383099
 31
0.0
  0
LINE
  5
171
330
17
100
AcDbEntity
  8
0
100
AcDbLine
 10
-340.5348067940017
 20
23.133583870714666
 30
5.0
 11
-326.15470290166917
 21
8.51606549238305
 31
5.0
  0
LINE
  5
172
330
17
100
AcDbEntity
  8
0
100
AcDbLine
 10
-340.5348067940017
 20
23.133583870714666
 30
0.0
 11
-340.5348067940017
 21
23.133583870714666
 31
5.0
  0
LINE
  5
173
330
17
100
AcDbEntity
  8
0
100
AcDbLine
 10
-333.40608440556946
 20
30.146523133867056
 30
0.0
 11
-333.40608440556946
 21
30.146523133867056
 31
5.0
  0
LINE
  5
174
330
17
100
AcDbEntity
  8
0
100
AcDbLine
 10
-333.40608440556946
 20
30.146523133867056
 30
5.0
 11
-340.5348067940017
 21
23.133583870714666
 31
5.0
  0
LINE
  5
175
330
17
100
AcDbEntity
  8
0
100
AcDbLine
 10
-319.02598051323685
 20
15.529004755535414
 30
5.0
 11
-333.40608440556946
 21
30.146523133867056
 31
5.0
  0
LINE
  5
176
330
17
100
AcDbEntity
  8
0
100
AcDbLine
 10
-319.0259805132369
 20
15.529004755535468
 30
5.0
 11
-319.0259805132369
 21
15.529004755535468
 31
0.0
  0
ARC
  5
177
330
17
100
AcDbEntity
  8
0
100
AcDbCircle
 10
-305.41221891559985
 20
-5.439197245654398
 30
5.0
 40
25.0
100
AcDbArc
 50
60.18333047610365
 51
122.99394926093993
  0
LINE
  5
178
330
17
100
AcDbEntity
  8
0
100
AcDbLine
 10
-292.9815587655282
 20
16.251323454260085
 30
5.0
 11
-292.9815587655282
 21
16.251323454260085
 31
0.0
  0
LINE
  5
179
330
17
100
AcDbEntity
  8
0
100
AcDbLine
 10
-279.4337440310237
 20
31.643397629454405
 30
5.0
 11
-292.98155876552806
 21
16.25132345426023
 31
5.0
  0
LINE
  5
17A
330
17
100
AcDbEntity
  8
0
100
AcDbLine
 10
-279.4337440310237
 20
31.643397629454405
 30
2.5
 11
-279.4337440310237
 21
31.643397629454405
 31
5.0
  0
LINE
  5
17B
330
17
100
AcDbEntity
  8
0
100
AcDbLine
 10
-272.8266984496506
 20
39.149858092659315
 30
2.5
 11
-279.43374403102365
 21
31.64339762945436
 31
2.5
  0
LINE
  5
17C
330
17
100
AcDbEntity
  8
0
100
AcDbLine
 10
-272.8266984496506
 20
39.149858092659315
 30
2.5
 11
-272.8266984496506
 21
39.149858092659315
 31
5.0
  0
LINE
  5
17D
330
17
100
AcDbEntity
  8
0
100
AcDbLine
 10
-196.69295104864412
 20
125.64766679440051
 30
5.0
 11
-272.8266984496506
 21
39.149858092659315
 31
5.0
  0
LINE
  5
17E
330
17
100
AcDbEntity
  8
0
100
AcDbLine
 10
-196.69295104864412
 20
125.64766679440046
 30
0.0
 11
-196.69295104864412
 21
125.64766679440046
 31
5.0
  0
LINE
  5
17F
330
17
100
AcDbEntity
  8
0
100
AcDbLine
 10
-196.69295104864412
 20
125.64766679440051
 30
5.0
 11
-196.69295104864412
 21
128.76063611927924
 31
5.0
  0
LINE
  5
180
330
17
100
AcDbEntity
  8
0
100
AcDbLine
 10
-196.69295104864412
 20
128.76063611927924
 30
0.0
 11
-196.69295104864412
 21
128.76063611927924
 31
5.0
  0
LINE
  5
181
330
17
100
AcDbEntity
  8
0
100
AcDbLine
 10
-193.449519404297
 20
128.76063611927924
 30
0.0
 11
-193.449519404297
 21
128.76063611927924
 31
5.0
  0
LINE
  5
182
330
17
100
AcDbEntity
  8
0
100
AcDbLine
 10
-196.69295104864412
 20
128.76063611927924
 30
5.0
 11
-193.449519404297
 21
128.76063611927924
 31
5.0
  0
LINE
  5
183
330
17
100
AcDbEntity
  8
0
100
AcDbLine
 10
-109.9594585184776
 20
195.68263557675195
 30
5.0
 11
-193.449519404297
 21
128.76063611927924
 31
5.0
  0
LINE
  5
184
330
17
100
AcDbEntity
  8
0
100
AcDbLine
 10
-109.9594585184775
 20
195.68263557675206
 30
5.0
 11
-109.9594585184775
 21
195.68263557675206
 31
0.0
  0
ARC
  5
185
330
17
100
AcDbEntity
  8
0
100
AcDbCircle
 10
-87.48643955217732
 20
206.6354168920305
 30
5.0
 40
25.0
100
AcDbArc
 50
146.202657568361
 51
205.98343359094505
  0
LINE
  5
186
330
17
100
AcDbEntity
  8
0
100
AcDbLine
 10
-108.26169633259875
 20
220.541843669156
 30
5.0
 11
-108.26169633259875
 21
220.541843669156
 31
0.0
  0
LINE
  5
187
330
17
100
AcDbEntity
  8
0
100
AcDbLine
 10
-122.6761486024526
 20
235.12549195260155
 30
5.0
 11
-108.26169633259875
 21
220.54184366915598
 31
5.0
  0
LINE
  5
188
330
17
100
AcDbEntity
  8
0
100
AcDbLine
 10
-122.6761486024526
 20
235.12549195260155
 30
0.0
 11
-122.6761486024526
 21
235.12549195260155
 31
5.0
  0
LINE
  5
189
330
17
100
AcDbEntity
  8
0
100
AcDbLine
 10
-115.56394410012541
 20
242.15518235240415
 30
0.0
 11
-115.56394410012541
 21
242.15518235240415
 31
5.0
  0
LINE
  5
18A
330
17
100
AcDbEntity
  8
0
100
AcDbLine
 10
-115.56394410012541
 20
242.15518235240415
 30
5.0
 11
-122.6761486024526
 21
235.12549195260155
 31
5.0
  0
LINE
  5
18B
330
17
100
AcDbEntity
  8
0
100
AcDbLine
 10
-101.14949183027171
 20
227.57153406895873
 30
5.0
 11
-115.56394410012541
 21
242.15518235240415
 31
5.0
  0
LINE
  5
18C
330
17
100
AcDbEntity
  8
0
100
AcDbLine
 10
-101.14949183027157
 20
227.57153406895858
 30
5.0
 11
-101.14949183027157
 21
227.57153406895858
 31
0.0
  0
ARC
  5
18D
330
17
100
AcDbEntity
  8
0
100
AcDbCircle
 10
-87.48643955217732
 20
206.6354168920305
 30
5.0
 40
25.0
100
AcDbArc
 50
62.373347598748445
 51
123.128739502731
  0
LINE
  5
18E
330
17
100
AcDbEntity
  8
0
100
AcDbLine
 10
-75.89373399695458
 20
228.78511616560775
 30
5.0
 11
-75.89373399695458
 21
228.78511616560775
 31
0.0
  0
LINE
  5
18F
330
17
100
AcDbEntity
  8
0
100
AcDbLine
 10
-62.944002874580335
 20
244.6836599779621
 30
5.0
 11
-75.89373399695475
 21
228.78511616560752
 31
5.0
  0
LINE
  5
190
330
17
100
AcDbEntity
  8
0
100
AcDbLine
 10
-62.944002874580335
 20
244.6836599779621
 30
0.0
 11
-62.944002874580335
 21
244.6836599779621
 31
5.0
  0
LINE
  5
191
330
17
100
AcDbEntity
  8
0
100
AcDbLine
 10
-62.11589256649815
 20
244.0091450062829
 30
5.0
 11
-62.944002874580335
 21
244.6836599779621
 31
5.0
  0
LINE
  5
192
330
17
100
AcDbEntity
  8
0
100
AcDbLine
 10
-62.11589256649777
 20
244.00914500628258
 30
5.0
 11
-62.11589256649777
 21
244.00914500628258
 31
0.0
  0
ARC
  5
193
330
17
100
AcDbEntity
  8
0
100
AcDbCircle
 10
-37.35659384558369
 20
247.46994359165885
 30
5.0
 40
25.0
100
AcDbArc
 50
139.9332028095435
 51
187.957119721983
  0
LINE
  5
194
330
17
100
AcDbEntity
  8
0
100
AcDbLine
 10
-56.488957371564155
 20
263.5619498652635
 30
5.0
 11
-56.488957371564155
 21
263.5619498652635
 31
0.0
  0
LINE
  5
195
330
17
100
AcDbEntity
  8
0
100
AcDbLine
 10
-69.22460278546848
 20
279.63249955674695
 30
5.0
 11
-56.488957371564084
 21
263.56194986526344
 31
5.0
  0
LINE
  5
196
330
17
100
AcDbEntity
  8
0
100
AcDbLine
 10
-69.22460278546848
 20
279.63249955674695
 30
0.0
 11
-69.22460278546848
 21
279.63249955674695
 31
5.0
  0
LINE
  5
197
330
17
100
AcDbEntity
  8
0
100
AcDbLine
 10
-61.38726101411049
 20
285.8434635687927
 30
0.0
 11
-61.38726101411049
 21
285.8434635687927
 31
5.0
  0
LINE
  5
198
330
17
100
AcDbEntity
  8
0
100
AcDbLine
 10
-61.38726101411049
 20
285.8434635687927
 30
5.0
 11
-69.22460278546848
 21
279.63249955674695
 31
5.0
  0
LINE
  5
199
330
17
100
AcDbEntity
  8
0
100
AcDbLine
 10
-48.651615600206
 20
269.772913877309
 30
5.0
 11
-61.38726101411049
 21
285.8434635687927
 31
5.0
  0
LINE
  5
19A
330
17
100
AcDbEntity
  8
0
100
AcDbLine
 10
-48.65161560020617
 20
269.77291387730924
 30
5.0
 11
-48.65161560020617
 21
269.77291387730924
 31
0.0
  0
ARC
  5
19B
330
17
100
AcDbEntity
  8
0
100
AcDbCircle
 10
-37.35659384558369
 20
247.46994359165885
 30
5.0
 40
25.0
100
AcDbArc
 50
49.615301658875225
 51
116.85928474391037
  0
LINE
  5
19C
330
17
100
AcDbEntity
  8
0
100
AcDbLine
 10
-21.1586813896873
 20
266.5127278437349
 30
5.0
 11
-21.1586813896873
 21
266.5127278437349
 31
0.0
  0
LINE
  5
19D
330
17
100
AcDbEntity
  8
0
100
AcDbLine
 10
50.08405735260396
 20
322.3306977826025
 30
5.0
 11
-21.158681389687246
 21
266.512727843735
 31
5.0
  0
LINE
  5
19E
330
17
100
AcDbEntity
  8
0
100
AcDbLine
 10
50.08405735260396
 20
322.3306977826025
 30
0.0
 11
50.08405735260396
 21
322.3306977826025
 31
5.0
  0
LINE
  5
19F
330
17
100
AcDbEntity
  8
0
100
AcDbLine
 10
56.25144110805118
 20
314.4590157760015
 30
0.0
 11
56.25144110805118
 21
314.4590157760015
 31
5.0
  0
LINE
  5
1A0
330
17
100
AcDbEntity
  8
0
100
AcDbLine
 10
56.25144110805118
 20
314.4590157760015
 30
5.0
 11
50.08405735260395
 21
322.33069778260244
 31
5.0
  0
LINE
  5
1A1
330
17
100
AcDbEntity
  8
0
100
AcDbLine
 10
-14.991297634239984
 20
258.641045837134
 30
5.0
 11
56.25144110805119
 21
314.45901577600154
 31
5.0
  0
LINE
  5
1A2
330
17
100
AcDbEntity
  8
0
100
AcDbLine
 10
-14.991297634240066
 20
258.64104583713396
 30
5.0
 11
-14.991297634240066
 21
258.64104583713396
 31
0.0
  0
LINE
  5
1A3
330
17
100
AcDbEntity
  8
0
100
AcDbLine
 10
-18.403975097720235
 20
231.1666236046705
 30
5.0
 11
-18.403975097720235
 21
231.1666236046705
 31
0.0
  0
ARC
  5
1A4
330
17
100
AcDbEntity
  8
0
100
AcDbCircle
 10
-37.35659384558369
 20
247.46994359165885
 30
5.0
 40
25.0
100
AcDbArc
 50
-40.70259949179109
 51
26.541383593245342
  0
LINE
  5
1A5
330
17
100
AcDbEntity
  8
0
100
AcDbLine
 10
-5.8474425247942605
 20
214.9557408020533
 30
5.0
 11
-18.40397509772035
 21
231.1666236046705
 31
5.0
  0
LINE
  5
1A6
330
17
100
AcDbEntity
  8
0
100
AcDbLine
 10
-5.8474425247942605
 20
214.9557408020533
 30
2.5
 11
-5.8474425247942605
 21
214.9557408020533
 31
5.0
  0
LINE
  5
1A7
330
17
100
AcDbEntity
  8
0
100
AcDbLine
 10
0.2761711117301928
 20
207.0499608891938
 30
2.5
 11
-5.847442524794177
 21
214.9557408020533
 31
2.5
  0
LINE
  5
1A8
330
17
100
AcDbEntity
  8
0
100
AcDbLine
 10
0.2761711117301928
 20
207.0499608891938
 30
2.5
 11
0.2761711117301928
 21
207.0499608891938
 31
5.0
  0
LINE
  5
1A9
330
17
100
AcDbEntity
  8
0
100
AcDbLine
 10
76.27207626254796
 20
108.93683095274739
 30
5.0
 11
0.27617111173020703
 21
207.0499608891938
 31
5.0
  0
LINE
  5
1AA
330
17
100
AcDbEntity
  8
0
100
AcDbLine
 10
76.27207626254796
 20
108.93683095274736
 30
0.0
 11
76.27207626254796
 21
108.93683095274736
 31
5.0
  0
LINE
  5
1AB
330
17
100
AcDbEntity
  8
0
100
AcDbLine
 10
121.9885992342924
 20
191.89867605636124
 30
5.0
 11
76.27207626254796
 21
108.93683095274737
 31
5.0
  0
LINE
  5
1AC
330
17
100
AcDbEntity
  8
0
100
AcDbLine
 10
121.9885992342924
 20
191.89867605636124
 30
2.5
 11
121.9885992342924
 21
191.89867605636124
 31
5.0
  0
LINE
  5
1AD
330
17
100
AcDbEntity
  8
0
100
AcDbLine
 10
126.81487782782145
 20
200.6569313014225
 30
2.5
 11
121.9885992342924
 21
191.89867605636124
 31
2.5
  0
LINE
  5
1AE
330
17
100
AcDbEntity
  8
0
100
AcDbLine
 10
126.81487782782139
 20
200.65693130142256
 30
2.5
 11
126.81487782782139
 21
200.65693130142256
 31
5.0
  0
LINE
  5
1AF
330
17
100
AcDbEntity
  8
0
100
AcDbLine
 10
136.71121158803865
 20
218.6158235167436
 30
5.0
 11
126.8148778278214
 21
200.65693130142253
 31
5.0
  0
LINE
  5
1B0
330
17
100
AcDbEntity
  8
0
100
AcDbLine
 10
136.71121158803876
 20
218.6158235167437
 30
5.0
 11
136.71121158803876
 21
218.6158235167437
 31
0.0
  0
ARC
  5
1B1
330
17
100
AcDbEntity
  8
0
100
AcDbCircle
 10
152.91225912123278
 20
237.65594060743373
 30
5.0
 40
25.0
100
AcDbArc
 50
138.79406504478894
 51
229.60586820234522
  0
LINE
  5
1B2
330
17
100
AcDbEntity
  8
0
100
AcDbLine
 10
134.1035922503666
 20
254.12512548528306
 30
5.0
 11
134.1035922503666
 21
254.12512548528306
 31
0.0
  0
LINE
  5
1B3
330
17
100
AcDbEntity
  8
0
100
AcDbLine
 10
121.68995271355958
 20
270.44568873982064
 30
5.0
 11
134.1035922503668
 21
254.12512548528284
 31
5.0
  0
LINE
  5
1B4
330
17
100
AcDbEntity
  8
0
100
AcDbLine
 10
121.68995271355958
 20
270.44568873982064
 30
0.0
 11
121.68995271355958
 21
270.44568873982064
 31
5.0
  0
LINE
  5
1B5
330
17
100
AcDbEntity
  8
0
100
AcDbLine
 10
129.64922197207557
 20
276.49961580169065
 30
0.0
 11
129.64922197207557
 21
276.49961580169065
 31
5.0
  0
LINE
  5
1B6
330
17
100
AcDbEntity
  8
0
100
AcDbLine
 10
129.64922197207557
 20
276.49961580169065
 30
5.0
 11
121.68995271355959
 21
270.4456887398206
 31
5.0
  0
LINE
  5
1B7
330
17
100
AcDbEntity
  8
0
100
AcDbLine
 10
142.0628615088824
 20
260.1790525471534
 30
5.0
 11
129.64922197207557
 21
276.49961580169065
 31
5.0
  0
LINE
  5
1B8
330
17
100
AcDbEntity
  8
0
100
AcDbLine
 10
142.06286150888258
 20
260.1790525471531
 30
5.0
 11
142.06286150888258
 21
260.1790525471531
 31
0.0
  0
ARC
  5
1B9
330
17
100
AcDbEntity
  8
0
100
AcDbCircle
 10
152.91225912123278
 20
237.65594060743373
 30
5.0
 40
25.0
100
AcDbArc
 50
24.908343821599438
 51
115.72014697915829
  0
LINE
  5
1BA
330
17
100
AcDbEntity
  8
0
100
AcDbLine
 10
175.5868263818412
 20
248.18513808607113
 30
5.0
 11
175.5868263818412
 21
248.18513808607113
 31
0.0
  0
LINE
  5
1BB
330
17
100
AcDbEntity
  8
0
100
AcDbLine
 10
195.5360663534472
 20
252.92718996794855
 30
5.0
 11
175.58682638184115
 21
248.18513808607108
 31
5.0
  0
LINE
  5
1BC
330
17
100
AcDbEntity
  8
0
100
AcDbLine
 10
195.5360663534472
 20
252.92718996794855
 30
0.0
 11
195.5360663534472
 21
252.92718996794855
 31
5.0
  0
LINE
  5
1BD
330
17
100
AcDbEntity
  8
0
100
AcDbLine
 10
197.84868676838425
 20
243.19827498135234
 30
0.0
 11
197.84868676838425
 21
243.19827498135234
 31
5.0
  0
LINE
  5
1BE
330
17
100
AcDbEntity
  8
0
100
AcDbLine
 10
197.84868676838425
 20
243.19827498135234
 30
5.0
 11
195.5360663534472
 21
252.92718996794855
 31
5.0
  0
LINE
  5
1BF
330
17
100
AcDbEntity
  8
0
100
AcDbLine
 10
177.8994467967785
 20
238.45622309947495
 30
5.0
 11
197.84868676838425
 21
243.19827498135234
 31
5.0
  0
LINE
  5
1C0
330
17
100
AcDbEntity
  8
0
100
AcDbLine
 10
177.89944679677825
 20
238.4562230994749
 30
5.0
 11
177.89944679677825
 21
238.4562230994749
 31
0.0
  0
LINE
  5
1C1
330
17
100
AcDbEntity
  8
0
100
AcDbLine
 10
153.35843871519253
 20
212.6599224491363
 30
5.0
 11
153.35843871519253
 21
212.6599224491363
 31
0.0
  0
ARC
  5
1C2
330
17
100
AcDbEntity
  8
0
100
AcDbCircle
 10
152.91225912123278
 20
237.65594060743373
 30
5.0
 40
25.0
100
AcDbArc
 50
-88.97737740158823
 51
1.834425755969363
  0
LINE
  5
1C3
330
17
100
AcDbEntity
  8
0
100
AcDbLine
 10
138.09655602982676
 20
130.429007400795
 30
5.0
 11
153.3584387151926
 21
212.6599224491365
 31
5.0
  0
LINE
  5
1C4
330
17
100
AcDbEntity
  8
0
100
AcDbLine
 10
138.09655602982673
 20
130.42900740079497
 30
5.0
 11
138.09655602982673
 21
130.42900740079497
 31
0.0
  0
LINE
  5
1C5
330
17
100
AcDbEntity
  8
0
100
AcDbLine
 10
138.09655602982673
 20
130.42900740079497
 30
5.0
 11
214.08378026622458
 21
161.71332828431434
 31
5.0
  0
LINE
  5
1C6
330
17
100
AcDbEntity
  8
0
100
AcDbLine
 10
214.08378026622466
 20
161.7133282843144
 30
5.0
 11
214.08378026622466
 21
161.7133282843144
 31
0.0
  0
ARC
  5
1C7
330
17
100
AcDbEntity
  8
0
100
AcDbCircle
 10
238.63766449428962
 20
166.4151119155317
 30
5.0
 40
25.0
100
AcDbArc
 50
101.58695783139193
 51
190.8402514613535
  0
LINE
  5
1C8
330
17
100
AcDbEntity
  8
0
100
AcDbLine
 10
233.61629108389604
 20
190.90563679911457
 30
5.0
 11
233.61629108389604
 21
190.90563679911457
 31
0.0
  0
LINE
  5
1C9
330
17
100
AcDbEntity
  8
0
100
AcDbLine
 10
233.5983974384676
 20
211.41073156389422
 30
5.0
 11
233.61629108389607
 21
190.9056367991144
 31
5.0
  0
LINE
  5
1CA
330
17
100
AcDbEntity
  8
0
100
AcDbLine
 10
233.5983974384676
 20
211.41073156389422
 30
0.0
 11
233.5983974384676
 21
211.41073156389422
 31
5.0
  0
LINE
  5
1CB
330
17
100
AcDbEntity
  8
0
100
AcDbLine
 10
243.5983936309331
 20
211.41945799935849
 30
0.0
 11
243.5983936309331
 21
211.41945799935849
 31
5.0
  0
LINE
  5
1CC
330
17
100
AcDbEntity
  8
0
100
AcDbLine
 10
243.5983936309331
 20
211.41945799935849
 30
5.0
 11
233.5983974384676
 21
211.4107315638942
 31
5.0
  0
LINE
  5
1CD
330
17
100
AcDbEntity
  8
0
100
AcDbLine
 10
243.61628727636153
 20
190.91436323457873
 30
5.0
 11
243.59839363093306
 21
211.41945799935849
 31
5.0
  0
LINE
  5
1CE
330
17
100
AcDbEntity
  8
0
100
AcDbLine
 10
243.61628727636148
 20
190.91436323457887
 30
5.0
 11
243.61628727636148
 21
190.91436323457887
 31
0.0
  0
LINE
  5
1CF
330
17
100
AcDbEntity
  8
0
100
AcDbLine
 10
263.1997172856175
 20
161.75618900610053
 30
5.0
 11
263.1997172856175
 21
161.75618900610053
 31
0.0
  0
ARC
  5
1D0
330
17
100
AcDbEntity
  8
0
100
AcDbCircle
 10
238.63766449428962
 20
166.4151119155317
 30
5.0
 40
25.0
100
AcDbArc
 50
-10.740253864203055
 51
78.51303976575917
  0
LINE
  5
1D1
330
17
100
AcDbEntity
  8
0
100
AcDbLine
 10
282.17433045819377
 20
153.98294731127106
 30
5.0
 11
263.19971728561757
 21
161.75618900610047
 31
5.0
  0
LINE
  5
1D2
330
17
100
AcDbEntity
  8
0
100
AcDbLine
 10
282.17433045819377
 20
153.98294731127106
 30
0.0
 11
282.17433045819377
 21
153.98294731127106
 31
5.0
  0
LINE
  5
1D3
330
17
100
AcDbEntity
  8
0
100
AcDbLine
 10
278.38344881423643
 20
144.7293417241765
 30
0.0
 11
278.38344881423643
 21
144.7293417241765
 31
5.0
  0
LINE
  5
1D4
330
17
100
AcDbEntity
  8
0
100
AcDbLine
 10
278.38344881423643
 20
144.7293417241765
 30
5.0
 11
282.17433045819377
 21
153.98294731127103
 31
5.0
  0
LINE
  5
1D5
330
17
100
AcDbEntity
  8
0
100
AcDbLine
 10
259.4088356416603
 20
152.5025834190059
 30
5.0
 11
278.38344881423643
 21
144.7293417241765
 31
5.0
  0
LINE
  5
1D6
330
17
100
AcDbEntity
  8
0
100
AcDbLine
 10
259.4088356416602
 20
152.50258341900593
 30
5.0
 11
259.4088356416602
 21
152.50258341900593
 31
0.0
  0
ARC
  5
1D7
330
17
100
AcDbEntity
  8
0
100
AcDbCircle
 10
238.63766449428962
 20
166.4151119155317
 30
5.0
 40
25.0
100
AcDbArc
 50
236.9325344402027
 51
326.1858280701672
  0
LINE
  5
1D8
330
17
100
AcDbEntity
  8
0
100
AcDbLine
 10
224.99700977974936
 20
145.46439500754283
 30
5.0
 11
224.99700977974936
 21
145.46439500754283
 31
0.0
  0
LINE
  5
1D9
330
17
100
AcDbEntity
  8
0
100
AcDbLine
 10
210.59816197059627
 20
130.8653397893451
 30
5.0
 11
224.99700977974916
 21
145.46439500754258
 31
5.0
  0
LINE
  5
1DA
330
17
100
AcDbEntity
  8
0
100
AcDbLine
 10
210.59816197059627
 20
130.8653397893451
 30
2.5
 11
210.59816197059627
 21
130.8653397893451
 31
5.0
  0
LINE
  5
1DB
330
17
100
AcDbEntity
  8
0
100
AcDbLine
 10
203.576081608659
 20
123.74562157929665
 30
2.5
 11
210.59816197059624
 21
130.8653397893451
 31
2.5
  0
LINE
  5
1DC
330
17
100
AcDbEntity
  8
0
100
AcDbLine
 10
203.576081608659
 20
123.74562157929665
 30
2.5
 11
203.576081608659
 21
123.74562157929665
 31
5.0
  0
LINE
  5
1DD
330
17
100
AcDbEntity
  8
0
100
AcDbLine
 10
154.50201850298194
 20
73.98921283347516
 30
5.0
 11
203.576081608659
 21
123.74562157929665
 31
5.0
  0
LINE
  5
1DE
330
17
100
AcDbEntity
  8
0
100
AcDbLine
 10
154.5020185029819
 20
73.98921283347516
 30
5.0
 11
154.5020185029819
 21
73.98921283347516
 31
0.0
  0
LINE
  5
1DF
330
17
100
AcDbEntity
  8
0
100
AcDbLine
 10
231.73113126267555
 20
42.84646883227372
 30
2.5
 11
231.73113126267555
 21
42.84646883227372
 31
5.0
  0
LINE
  5
1E0
330
17
100
AcDbEntity
  8
0
100
AcDbLine
 10
241.00546381517074
 20
39.10658170754284
 30
2.5
 11
231.73113126267555
 21
42.846468832273715
 31
2.5
  0
LINE
  5
1E1
330
17
100
AcDbEntity
  8
0
100
AcDbLine
 10
241.00546381517074
 20
39.10658170754279
 30
2.5
 11
241.00546381517074
 21
39.10658170754279
 31
5.0
  0
LINE
  5
1E2
330
17
100
AcDbEntity
  8
0
100
AcDbLine
 10
260.022577842902
 20
31.437904797448994
 30
5.0
 11
241.00546381517074
 21
39.10658170754279
 31
5.0
  0
LINE
  5
1E3
330
17
100
AcDbEntity
  8
0
100
AcDbLine
 10
260.022577842902
 20
31.43790479744903
 30
5.0
 11
260.022577842902
 21
31.43790479744903
 31
0.0
  0
LINE
  5
1E4
330
17
100
AcDbEntity
  8
0
100
AcDbLine
 10
231.73113126267555
 20
42.84646883227372
 30
5.0
 11
154.5020185029819
 21
73.98921283347516
 31
5.0
  0
ARC
  5
1E5
330
17
100
AcDbEntity
  8
0
100
AcDbCircle
 10
280.8700167390337
 20
17.639923370006223
 30
5.0
 40
25.0
100
AcDbArc
 50
78.77479918034538
 51
146.50121808608213
  0
LINE
  5
1E6
330
17
100
AcDbEntity
  8
0
100
AcDbLine
 10
285.73666156560006
 20
42.16166409394454
 30
5.0
 11
285.73666156560006
 21
42.16166409394454
 31
0.0
  0
LINE
  5
1E7
330
17
100
AcDbEntity
  8
0
100
AcDbLine
 10
293.67022254323507
 20
61.06980630065767
 30
5.0
 11
285.73666156559995
 21
42.161664093944424
 31
5.0
  0
LINE
  5
1E8
330
17
100
AcDbEntity
  8
0
100
AcDbLine
 10
293.67022254323507
 20
61.06980630065767
 30
0.0
 11
293.67022254323507
 21
61.06980630065767
 31
5.0
  0
LINE
  5
1E9
330
17
100
AcDbEntity
  8
0
100
AcDbLine
 10
302.89141133766583
 20
57.20073958923172
 30
0.0
 11
302.89141133766583
 21
57.20073958923172
 31
5.0
  0
LINE
  5
1EA
330
17
100
AcDbEntity
  8
0
100
AcDbLine
 10
302.89141133766583
 20
57.20073958923172
 30
5.0
 11
293.67022254323507
 21
61.06980630065767
 31
5.0
  0
LINE
  5
1EB
330
17
100
AcDbEntity
  8
0
100
AcDbLine
 10
294.9578503600306
 20
38.292597382518196
 30
5.0
 11
302.89141133766583
 21
57.20073958923173
 31
5.0
  0
LINE
  5
1EC
330
17
100
AcDbEntity
  8
0
100
AcDbLine
 10
294.9578503600308
 20
38.29259738251858
 30
5.0
 11
294.9578503600308
 21
38.29259738251858
 31
0.0
  0
LINE
  5
1ED
330
17
100
AcDbEntity
  8
0
100
AcDbLine
 10
305.3213875760426
 20
12.43123215329232
 30
5.0
 11
305.3213875760426
 21
12.43123215329232
 31
0.0
  0
ARC
  5
1EE
330
17
100
AcDbEntity
  8
0
100
AcDbCircle
 10
280.8700167390337
 20
17.639923370006223
 30
5.0
 40
25.0
100
AcDbArc
 50
-12.025537791024902
 51
55.70088111471095
  0
LINE
  5
1EF
330
17
100
AcDbEntity
  8
0
100
AcDbLine
 10
324.1168686760038
 20
4.234335074754563
 30
5.0
 11
305.32138757604275
 21
12.431232153292244
 31
5.0
  0
LINE
  5
1F0
330
17
100
AcDbEntity
  8
0
100
AcDbLine
 10
324.1168686760038
 20
4.234335074754563
 30
0.0
 11
324.1168686760038
 21
4.234335074754563
 31
5.0
  0
LINE
  5
1F1
330
17
100
AcDbEntity
  8
0
100
AcDbLine
 10
320.1193772956566
 20
-4.9319107578668735
 30
0.0
 11
320.1193772956566
 21
-4.9319107578668735
 31
5.0
  0
LINE
  5
1F2
330
17
100
AcDbEntity
  8
0
100
AcDbLine
 10
320.1193772956566
 20
-4.9319107578668735
 30
5.0
 11
324.1168686760038
 21
4.234335074754565
 31
5.0
  0
LINE
  5
1F3
330
17
100
AcDbEntity
  8
0
100
AcDbLine
 10
301.3238961956955
 20
3.2649863206708183
 30
5.0
 11
320.11937729565653
 21
-4.931910757866875
 31
5.0
  0
LINE
  5
1F4
330
17
100
AcDbEntity
  8
0
100
AcDbLine
 10
301.32389619569534
 20
3.2649863206708556
 30
5.0
 11
301.32389619569534
 21
3.2649863206708556
 31
0.0
  0
ARC
  5
1F5
330
17
100
AcDbEntity
  8
0
100
AcDbCircle
 10
280.8700167390337
 20
17.639923370006223
 30
5.0
 40
25.0
100
AcDbArc
 50
257.1741252376079
 51
324.90054414334594
  0
LINE
  5
1F6
330
17
100
AcDbEntity
  8
0
100
AcDbLine
 10
275.3202954324511
 20
-6.736306720376147
 30
5.0
 11
275.3202954324511
 21
-6.736306720376147
 31
0.0
  0
LINE
  5
1F7
330
17
100
AcDbEntity
  8
0
100
AcDbLine
 10
210.2124526112307
 20
-150.5135834704514
 30
5.0
 11
275.320295432451
 21
-6.736306720376149
 31
5.0
  0
LINE
  5
1F8
330
17
100
AcDbEntity
  8
0
100
AcDbLine
 10
210.21245261123067
 20
-150.51358347045135
 30
5.0
 11
210.21245261123067
 21
-150.51358347045135
 31
0.0
  0
LINE
  5
1F9
330
17
100
AcDbEntity
  8
0
100
AcDbLine
 10
210.2124526112307
 20
-154.43424257508832
 30
5.0
 11
210.2124526112307
 21
-150.5135834704514
 31
5.0
  0
LINE
  5
1FA
330
17
100
AcDbEntity
  8
0
100
AcDbLine
 10
210.2124526112307
 20
-154.43424257508832
 30
0.0
 11
210.2124526112307
 21
-154.43424257508832
 31
5.0
  0
LINE
  5
1FB
330
17
100
AcDbEntity
  8
0
100
AcDbLine
 10
200.2124526112307
 20
-154.43424257508832
 30
5.0
 11
210.2124526112307
 21
-154.43424257508832
 31
5.0
  0
LINE
  5
1FC
330
17
100
AcDbEntity
  8
0
100
AcDbLine
 10
200.2124526112307
 20
-154.43424257508832
 30
0.0
 11
200.2124526112307
 21
-154.43424257508832
 31
5.0
  0
LINE
  5
1FD
330
17
100
AcDbEntity
  8
0
100
AcDbLine
 10
200.2124526112307
 20
-154.43424257508832
 30
5.0
 11
200.2124526112307
 21
-153.3766910589789
 31
5.0
  0
LINE
  5
1FE
330
17
100
AcDbEntity
  8
0
100
AcDbLine
 10
200.2124526112307
 20
-153.3766910589789
 30
5.0
 11
200.2124526112307
 21
-153.3766910589789
 31
0.0
  0
LINE
  5
1FF
330
17
100
AcDbEntity
  8
0
100
AcDbLine
 10
88.04184505313924
 20
-126.46933509292526
 30
0.0
 11
88.04184505313924
 21
-126.46933509292526
 31
2.5
  0
LINE
  5
200
330
17
100
AcDbEntity
  8
0
100
AcDbLine
 10
97.80608546796054
 20
-128.8115698217838
 30
2.5
 11
88.04184505313924
 21
-126.46933509292526
 31
2.5
  0
LINE
  5
201
330
17
100
AcDbEntity
  8
0
100
AcDbLine
 10
97.80608546796054
 20
-128.8115698217838
 30
2.5
 11
97.80608546796054
 21
-128.8115698217838
 31
0.0
  0
LINE
  5
202
330
17
100
AcDbEntity
  8
0
100
AcDbLine
 10
55.69579782318422
 20
-118.71020259058552
 30
5.0
 11
200.2124526112307
 21
-153.3766910589789
 31
5.0
  0
LINE
  5
203
330
17
100
AcDbEntity
  8
0
100
AcDbLine
 10
55.69579782318422
 20
-118.71020259058552
 30
2.5
 11
55.69579782318422
 21
-118.71020259058552
 31
5.0
  0
LINE
  5
204
330
17
100
AcDbEntity
  8
0
100
AcDbLine
 10
45.97165751943132
 20
-116.37758703011953
 30
2.5
 11
55.695797823184236
 21
-118.71020259058552
 31
2.5
  0
LINE
  5
205
330
17
100
AcDbEntity
  8
0
100
AcDbLine
 10
45.97165751943126
 20
-116.3775870301196
 30
2.5
 11
45.97165751943126
 21
-116.3775870301196
 31
5.0
  0
LINE
  5
206
330
17
100
AcDbEntity
  8
0
100
AcDbLine
 10
26.032208083970396
 20
-111.5945348972405
 30
5.0
 11
45.97165751943127
 21
-116.37758703011959
 31
5.0
  0
LINE
  5
207
330
17
100
AcDbEntity
  8
0
100
AcDbLine
 10
26.03220808397043
 20
-111.59453489724044
 30
5.0
 11
26.03220808397043
 21
-111.59453489724044
 31
0.0
  0
LINE
  5
208
330
17
100
AcDbEntity
  8
0
100
AcDbLine
 10
97.43611220626954
 20
-131.34928294511673
 30
2.5
 11
97.80608546796053
 21
-128.81156982178376
 31
2.5
  0
LINE
  5
209
330
17
100
AcDbEntity
  8
0
100
AcDbLine
 10
97.43611220626954
 20
-131.34928294511673
 30
2.5
 11
97.43611220626954
 21
-131.34928294511673
 31
5.0
  0
LINE
  5
20A
330
17
100
AcDbEntity
  8
0
100
AcDbLine
 10
78.85993751045554
 20
-258.7666051900577
 30
5.0
 11
97.43611220626956
 21
-131.34928294511676
 31
5.0
  0
LINE
  5
20B
330
17
100
AcDbEntity
  8
0
100
AcDbLine
 10
78.85993751045552
 20
-258.76660519005765
 30
0.0
 11
78.85993751045552
 21
-258.76660519005765
 31
5.0
  0
LINE
  5
20C
330
17
100
AcDbEntity
  8
0
100
AcDbLine
 10
78.85993751045555
 20
-258.7666051900577
 30
5.0
 11
145.66474741264548
 21
-394.29213026617754
 31
5.0
  0
LINE
  5
20D
330
17
100
AcDbEntity
  8
0
100
AcDbLine
 10
145.66474741264534
 20
-394.29213026617725
 30
5.0
 11
145.66474741264534
 21
-394.29213026617725
 31
0.0
  0
ARC
  5
20E
330
17
100
AcDbEntity
  8
0
100
AcDbCircle
 10
152.01003983917525
 20
-418.47347150321
 30
5.0
 40
25.0
100
AcDbArc
 50
37.77710209867391
 51
104.70318403304243
  0
LINE
  5
20F
330
17
100
AcDbEntity
  8
0
100
AcDbLine
 10
171.7700371830463
 20
-403.1586908985063
 30
5.0
 11
171.7700371830463
 21
-403.1586908985063
 31
0.0
  0
LINE
  5
210
330
17
100
AcDbEntity
  8
0
100
AcDbLine
 10
190.16206469437685
 20
-394.09267989489507
 30
5.0
 11
171.77003718304644
 21
-403.15869089850617
 31
5.0
  0
LINE
  5
211
330
17
100
AcDbEntity
  8
0
100
AcDbLine
 10
190.16206469437685
 20
-394.09267989489507
 30
0.0
 11
190.16206469437685
 21
-394.09267989489507
 31
5.0
  0
LINE
  5
212
330
17
100
AcDbEntity
  8
0
100
AcDbLine
 10
194.5834085875386
 20
-403.06216807306896
 30
0.0
 11
194.5834085875386
 21
-403.06216807306896
 31
5.0
  0
LINE
  5
213
330
17
100
AcDbEntity
  8
0
100
AcDbLine
 10
194.5834085875386
 20
-403.06216807306896
 30
5.0
 11
190.16206469437682
 21
-394.09267989489507
 31
5.0
  0
LINE
  5
214
330
17
100
AcDbEntity
  8
0
100
AcDbLine
 10
176.19138107620776
 20
-412.1281790766803
 30
5.0
 11
194.58340858753863
 21
-403.06216807306896
 31
5.0
  0
LINE
  5
215
330
17
100
AcDbEntity
  8
0
100
AcDbLine
 10
176.19138107620805
 20
-412.1281790766801
 30
5.0
 11
176.19138107620805
 21
-412.1281790766801
 31
0.0
  0
LINE
  5
216
330
17
100
AcDbEntity
  8
0
100
AcDbLine
 10
167.324820443879
 20
-438.23346884708104
 30
5.0
 11
167.324820443879
 21
-438.23346884708104
 31
0.0
  0
ARC
  5
217
330
17
100
AcDbEntity
  8
0
100
AcDbCircle
 10
152.01003983917525
 20
-418.47347150321
 30
5.0
 40
25.0
100
AcDbArc
 50
-52.22289790132365
 51
14.703184033042447
  0
LINE
  5
218
330
17
100
AcDbEntity
  8
0
100
AcDbLine
 10
167.32482044387893
 20
-438.23346884708087
 30
5.0
 11
176.3908314474902
 21
-456.6254963584116
 31
5.0
  0
LINE
  5
219
330
17
100
AcDbEntity
  8
0
100
AcDbLine
 10
176.3908314474902
 20
-456.6254963584116
 30
0.0
 11
176.3908314474902
 21
-456.6254963584116
 31
5.0
  0
LINE
  5
21A
330
17
100
AcDbEntity
  8
0
100
AcDbLine
 10
167.4213432693163
 20
-461.04684025157337
 30
0.0
 11
167.4213432693163
 21
-461.04684025157337
 31
5.0
  0
LINE
  5
21B
330
17
100
AcDbEntity
  8
0
100
AcDbLine
 10
167.4213432693163
 20
-461.04684025157337
 30
5.0
 11
176.3908314474902
 21
-456.62549635841157
 31
5.0
  0
LINE
  5
21C
330
17
100
AcDbEntity
  8
0
100
AcDbLine
 10
158.355332265705
 20
-442.65481274024256
 30
5.0
 11
167.4213432693163
 21
-461.04684025157337
 31
5.0
  0
LINE
  5
21D
330
17
100
AcDbEntity
  8
0
100
AcDbLine
 10
158.35533226570513
 20
-442.6548127402428
 30
5.0
 11
158.35533226570513
 21
-442.6548127402428
 31
0.0
  0
ARC
  5
21E
330
17
100
AcDbEntity
  8
0
100
AcDbCircle
 10
152.01003983917525
 20
-418.47347150321
 30
5.0
 40
25.0
100
AcDbArc
 50
217.7771020986739
 51
284.7031840330424
  0
LINE
  5
21F
330
17
100
AcDbEntity
  8
0
100
AcDbLine
 10
132.25004249530426
 20
-433.7882521079138
 30
5.0
 11
132.25004249530426
 21
-433.7882521079138
 31
0.0
  0
LINE
  5
220
330
17
100
AcDbEntity
  8
0
100
AcDbLine
 10
113.85801498397365
 20
-442.854263111525
 30
5.0
 11
132.25004249530406
 21
-433.7882521079139
 31
5.0
  0
LINE
  5
221
330
17
100
AcDbEntity
  8
0
100
AcDbLine
 10
113.85801498397365
 20
-442.854263111525
 30
0.0
 11
113.85801498397365
 21
-442.854263111525
 31
5.0
  0
LINE
  5
222
330
17
100
AcDbEntity
  8
0
100
AcDbLine
 10
109.43667109081187
 20
-433.8847749333511
 30
0.0
 11
109.43667109081187
 21
-433.8847749333511
 31
5.0
  0
LINE
  5
223
330
17
100
AcDbEntity
  8
0
100
AcDbLine
 10
109.43667109081187
 20
-433.8847749333511
 30
5.0
 11
113.85801498397365
 21
-442.854263111525
 31
5.0
  0
LINE
  5
224
330
17
100
AcDbEntity
  8
0
100
AcDbLine
 10
127.82869860214271
 20
-424.8187639297398
 30
5.0
 11
109.4366710908119
 21
-433.8847749333511
 31
5.0
  0
LINE
  5
225
330
17
100
AcDbEntity
  8
0
100
AcDbLine
 10
127.82869860214248
 20
-424.81876392974
 30
5.0
 11
127.82869860214248
 21
-424.81876392974
 31
0.0
  0
ARC
  5
226
330
17
100
AcDbEntity
  8
0
100
AcDbCircle
 10
152.01003983917525
 20
-418.47347150321
 30
5.0
 40
25.0
100
AcDbArc
 50
127.77710209867641
 51
194.70318403304242
  0
LINE
  5
227
330
17
100
AcDbEntity
  8
0
100
AcDbLine
 10
136.6952592344715
 20
-398.713474159339
 30
5.0
 11
136.6952592344715
 21
-398.713474159339
 31
0.0
  0
LINE
  5
228
330
17
100
AcDbEntity
  8
0
100
AcDbLine
 10
70.57822791916587
 20
-264.58323116335805
 30
5.0
 11
136.69525923447156
 21
-398.71347415933917
 31
5.0
  0
LINE
  5
229
330
17
100
AcDbEntity
  8
0
100
AcDbLine
 10
70.57822791916597
 20
-264.58323116335805
 30
0.0
 11
70.57822791916597
 21
-264.58323116335805
 31
5.0
  0
LINE
  5
22A
330
17
100
AcDbEntity
  8
0
100
AcDbLine
 10
68.68802415057914
 20
-264.58323116335805
 30
5.0
 11
70.57822791916587
 21
-264.58323116335805
 31
5.0
  0
LINE
  5
22B
330
17
100
AcDbEntity
  8
0
100
AcDbLine
 10
-47.6975968081321
 20
-12.241655785041372
 30
5.0
 11
-47.6975968081321
 21
-12.241655785041372
 31
0.0
  0
ARC
  5
22C
330
17
100
AcDbEntity
  8
0
100
AcDbCircle
 10
-54.4115055884236
 20
11.839943598926562
 30
5.0
 40
25.0
100
AcDbArc
 50
152.34781906043588
 51
285.5783793857629
  0
LINE
  5
22D
330
17
100
AcDbEntity
  8
0
100
AcDbLine
 10
-76.5560374519296
 20
23.442516957719338
 30
5.0
 11
-76.5560374519296
 21
23.442516957719338
 31
0.0
  0
LINE
  5
22E
330
17
100
AcDbEntity
  8
0
100
AcDbLine
 10
-92.44880984242172
 20
36.399330502690596
 30
5.0
 11
-76.55603745192957
 21
23.442516957719306
 31
5.0
  0
LINE
  5
22F
330
17
100
AcDbEntity
  8
0
100
AcDbLine
 10
-92.44880984242172
 20
36.399330502690596
 30
2.5
 11
-92.44880984242172
 21
36.399330502690596
 31
5.0
  0
LINE
  5
230
330
17
100
AcDbEntity
  8
0
100
AcDbLine
 10
-100.1994525590612
 20
42.71815456093144
 30
2.5
 11
-92.44880984242171
 21
36.399330502690596
 31
2.5
  0
LINE
  5
231
330
17
100
AcDbEntity
  8
0
100
AcDbLine
 10
-100.1994525590612
 20
42.71815456093144
 30
2.5
 11
-100.1994525590612
 21
42.71815456093144
 31
5.0
  0
LINE
  5
232
330
17
100
AcDbEntity
  8
0
100
AcDbLine
 10
-191.1207442211118
 20
116.84305828370233
 30
5.0
 11
-100.19945255906121
 21
42.71815456093144
 31
5.0
  0
LINE
  5
233
330
17
100
AcDbEntity
  8
0
100
AcDbLine
 10
-191.1207442211118
 20
116.84305828370232
 30
5.0
 11
-191.1207442211118
 21
116.84305828370232
 31
0.0
  0
LINE
  5
234
330
17
100
AcDbEntity
  8
0
100
AcDbLine
 10
-33.793883354384256
 20
-39.393967567550355
 30
5.0
 11
-12.235483054026844
 21
-81.49497953350482
 31
5.0
  0
LINE
  5
235
330
17
100
AcDbEntity
  8
0
100
AcDbLine
 10
-33.793883354384256
 20
-39.393967567550355
 30
2.5
 11
-33.793883354384256
 21
-39.393967567550355
 31
5.0
  0
LINE
  5
236
330
17
100
AcDbEntity
  8
0
100
AcDbLine
 10
-38.35171541571064
 20
-30.493059361038775
 30
2.5
 11
-33.793883354384256
 21
-39.39396756755036
 31
2.5
  0
LINE
  5
237
330
17
100
AcDbEntity
  8
0
100
AcDbLine
 10
-38.35171541571068
 20
-30.493059361038775
 30
2.5
 11
-38.35171541571068
 21
-30.493059361038775
 31
5.0
  0
LINE
  5
238
330
17
100
AcDbEntity
  8
0
100
AcDbLine
 10
-47.69759680813215
 20
-12.241655785041324
 30
5.0
 11
-38.35171541571068
 21
-30.493059361038775
 31
5.0
  0
LINE
  5
239
330
17
100
AcDbEntity
  8
0
100
AcDbLine
 10
-12.235483054026961
 20
-81.49497953350462
 30
5.0
 11
-12.235483054026961
 21
-81.49497953350462
 31
0.0
  0
LINE
  5
23A
330
17
100
AcDbEntity
  8
0
100
AcDbLine
 10
-265.3202379864457
 20
32.542812511286286
 30
2.5
 11
-265.3202379864457
 21
32.542812511286286
 31
5.0
  0
LINE
  5
23B
330
17
100
AcDbEntity
  8
0
100
AcDbLine
 10
-271.92728356781873
 20
25.03635204808134
 30
2.5
 11
-265.3202379864457
 21
32.54281251128629
 31
2.5
  0
LINE
  5
23C
330
17
100
AcDbEntity
  8
0
100
AcDbLine
 10
-271.92728356781873
 20
25.036352048081376
 30
2.5
 11
-271.92728356781873
 21
25.036352048081376
 31
5.0
  0
LINE
  5
23D
330
17
100
AcDbEntity
  8
0
100
AcDbLine
 10
-285.47509830232303
 20
9.644277872887326
 30
5.0
 11
-271.92728356781873
 21
25.036352048081376
 31
5.0
  0
LINE
  5
23E
330
17
100
AcDbEntity
  8
0
100
AcDbLine
 10
-285.4750983023232
 20
9.644277872887066
 30
5.0
 11
-285.4750983023232
 21
9.644277872887066
 31
0.0
  0
LINE
  5
23F
330
17
100
AcDbEntity
  8
0
100
AcDbLine
 10
-265.3202379864457
 20
32.542812511286286
 30
5.0
 11
-191.1207442211118
 21
116.8430582837023
 31
5.0
  0
LINE
  5
240
330
17
100
AcDbEntity
  8
0
100
AcDbLine
 10
-21.49840873301589
 20
-103.4881435141644
 30
5.0
 11
-21.49840873301589
 21
-103.4881435141644
 31
0.0
  0
ARC
  5
241
330
17
100
AcDbEntity
  8
0
100
AcDbCircle
 10
3.379333932776126
 20
-101.01874685614615
 30
5.0
 40
25.0
100
AcDbArc
 50
128.65229745139587
 51
185.66868378292938
  0
LINE
  5
242
330
17
100
AcDbEntity
  8
0
100
AcDbLine
 10
-286.881280687229
 20
-22.220267782908614
 30
5.0
 11
-286.881280687229
 21
-22.220267782908614
 31
0.0
  0
ARC
  5
243
330
17
100
AcDbEntity
  8
0
100
AcDbCircle
 10
-305.41221891559985
 20
-5.439197245654398
 30
5.0
 40
25.0
100
AcDbArc
 50
-42.16305897249518
 51
37.10941241047536
  0
LINE
  5
244
330
17
100
AcDbEntity
  8
0
100
AcDbLine
 10
-189.06759270501055
 20
-155.37755596557687
 30
5.0
 11
-189.06759270501055
 21
-155.37755596557687
 31
0.0
  0
LINE
  5
245
330
17
100
AcDbEntity
  8
0
100
AcDbLine
 10
-50.63838461254389
 20
-112.51161782725617
 30
5.0
 11
-189.06759270501053
 21
-155.37755596557687
 31
5.0
  0
LINE
  5
246
330
17
100
AcDbEntity
  8
0
100
AcDbLine
 10
-50.63838461254389
 20
-112.51161782725617
 30
2.5
 11
-50.63838461254389
 21
-112.51161782725617
 31
5.0
  0
LINE
  5
247
330
17
100
AcDbEntity
  8
0
100
AcDbLine
 10
-41.085892267832236
 20
-109.55359652844419
 30
2.5
 11
-50.63838461254389
 21
-112.51161782725616
 31
2.5
  0
LINE
  5
248
330
17
100
AcDbEntity
  8
0
100
AcDbLine
 10
-41.08589226783229
 20
-109.55359652844422
 30
2.5
 11
-41.08589226783229
 21
-109.55359652844422
 31
5.0
  0
LINE
  5
249
330
17
100
AcDbEntity
  8
0
100
AcDbLine
 10
-21.49840873301586
 20
-103.48814351416442
 30
5.0
 11
-41.08589226783229
 21
-109.55359652844422
 31
5.0
  0
LINE
  5
24A
330
17
100
AcDbEntity
  8
0
100
AcDbLine
 10
-189.06759270501053
 20
-155.37755596557685
 30
5.0
 11
-286.8812806872289
 21
-22.22026778290865
 31
5.0
  0
LINE
  5
24B
330
17
100
AcDbEntity
  8
0
100
AcDbLine
 10
17.87907671715741
 20
-121.38434184344725
 30
5.0
 11
17.87907671715741
 21
-121.38434184344725
 31
0.0
  0
LINE
  5
24C
330
17
100
AcDbEntity
  8
0
100
AcDbLine
 10
26.19075401169082
 20
-140.1293478996393
 30
5.0
 11
17.879076717157382
 21
-121.38434184344715
 31
5.0
  0
LINE
  5
24D
330
17
100
AcDbEntity
  8
0
100
AcDbLine
 10
26.19075401169082
 20
-140.1293478996393
 30
2.5
 11
26.19075401169082
 21
-140.1293478996393
 31
5.0
  0
LINE
  5
24E
330
17
100
AcDbEntity
  8
0
100
AcDbLine
 10
30.244221808440535
 20
-149.27097788672108
 30
2.5
 11
26.190754011690803
 21
-140.1293478996393
 31
2.5
  0
LINE
  5
24F
330
17
100
AcDbEntity
  8
0
100
AcDbLine
 10
30.244221808440535
 20
-149.27097788672108
 30
2.5
 11
30.244221808440535
 21
-149.27097788672108
 31
5.0
  0
LINE
  5
250
330
17
100
AcDbEntity
  8
0
100
AcDbLine
 10
71.2387966282468
 20
-241.72446543654382
 30
5.0
 11
30.24422180844053
 21
-149.27097788672108
 31
5.0
  0
LINE
  5
251
330
17
100
AcDbEntity
  8
0
100
AcDbLine
 10
71.23879662824675
 20
-241.72446543654382
 30
5.0
 11
71.23879662824675
 21
-241.72446543654382
 31
0.0
  0
LINE
  5
252
330
17
100
AcDbEntity
  8
0
100
AcDbLine
 10
87.5407212098231
 20
-129.9066336365713
 30
5.0
 11
71.23879662824676
 21
-241.72446543654382
 31
5.0
  0
LINE
  5
253
330
17
100
AcDbEntity
  8
0
100
AcDbLine
 10
87.5407212098231
 20
-129.9066336365713
 30
2.5
 11
87.5407212098231
 21
-129.9066336365713
 31
5.0
  0
LINE
  5
254
330
17
100
AcDbEntity
  8
0
100
AcDbLine
 10
88.04184505313924
 20
-126.46933509292525
 30
2.5
 11
87.5407212098231
 21
-129.9066336365713
 31
2.5
  0
ARC
  5
255
330
17
100
AcDbEntity
  8
0
100
AcDbCircle
 10
3.379333932776126
 20
-101.01874685614615
 30
5.0
 40
25.0
100
AcDbArc
 50
305.44981899542057
 51
334.97387138531826
  0
LINE
  5
256
330
17
100
AcDbEntity
  8
0
100
AcDbLine
 10
28.3648236444364
 20
-101.87039459348753
 30
5.0
 11
28.3648236444364
 21
-101.87039459348753
 31
0.0
  0
ARC
  5
257
330
17
100
AcDbEntity
  8
0
100
AcDbCircle
 10
3.379333932776126
 20
-101.01874685614615
 30
5.0
 40
25.0
100
AcDbArc
 50
-1.9522105490529498
 51
40.220850297736575
  0
LINE
  5
258
330
17
100
AcDbEntity
  8
0
100
AcDbLine
 10
22.46836123071511
 20
-84.87535697611972
 30
5.0
 11
22.46836123071511
 21
-84.87535697611972
 31
0.0
  0
LINE
  5
259
330
17
100
AcDbEntity
  8
0
100
AcDbLine
 10
48.30427307989726
 20
-106.65344672636668
 30
5.0
 11
28.36482364443676
 21
-101.87039459348767
 31
5.0
  0
LINE
  5
25A
330
17
100
AcDbEntity
  8
0
100
AcDbLine
 10
48.30427307989726
 20
-106.65344672636668
 30
2.5
 11
48.30427307989726
 21
-106.65344672636668
 31
5.0
  0
LINE
  5
25B
330
17
100
AcDbEntity
  8
0
100
AcDbLine
 10
58.02841338365019
 20
-108.9860622868326
 30
2.5
 11
48.30427307989727
 21
-106.65344672636661
 31
2.5
  0
LINE
  5
25C
330
17
100
AcDbEntity
  8
0
100
AcDbLine
 10
58.02841338365019
 20
-108.9860622868326
 30
2.5
 11
58.02841338365019
 21
-108.9860622868326
 31
5.0
  0
LINE
  5
25D
330
17
100
AcDbEntity
  8
0
100
AcDbLine
 10
89.4904435145865
 20
-116.53313778706459
 30
5.0
 11
58.02841338365016
 21
-108.9860622868326
 31
5.0
  0
LINE
  5
25E
330
17
100
AcDbEntity
  8
0
100
AcDbLine
 10
89.49044351458642
 20
-116.53313778706458
 30
5.0
 11
89.49044351458642
 21
-116.53313778706458
 31
0.0
  0
LINE
  5
25F
330
17
100
AcDbEntity
  8
0
100
AcDbLine
 10
41.350620289560496
 20
-60.916609601243124
 30
5.0
 11
48.18155539355286
 21
-52.24918013844997
 31
5.0
  0
LINE
  5
260
330
17
100
AcDbEntity
  8
0
100
AcDbLine
 10
41.350620289560496
 20
-60.916609601243124
 30
2.5
 11
41.350620289560496
 21
-60.916609601243124
 31
5.0
  0
LINE
  5
261
330
17
100
AcDbEntity
  8
0
100
AcDbLine
 10
35.16075122940107
 20
-68.77062265305817
 30
2.5
 11
41.3506202895605
 21
-60.916609601243124
 31
2.5
  0
LINE
  5
262
330
17
100
AcDbEntity
  8
0
100
AcDbLine
 10
35.16075122940108
 20
-68.77062265305818
 30
2.5
 11
35.16075122940108
 21
-68.77062265305818
 31
5.0
  0
LINE
  5
263
330
17
100
AcDbEntity
  8
0
100
AcDbLine
 10
22.468361230715004
 20
-84.87535697611986
 30
5.0
 11
35.16075122940108
 21
-68.77062265305818
 31
5.0
  0
LINE
  5
264
330
17
100
AcDbEntity
  8
0
100
AcDbLine
 10
48.181555393552884
 20
-52.24918013844999
 30
5.0
 11
48.181555393552884
 21
-52.24918013844999
 31
0.0
  0
LINE
  5
265
330
17
100
AcDbEntity
  8
0
100
AcDbLine
 10
91.94153772310769
 20
-99.72064190274038
 30
5.0
 11
91.94153772310769
 21
-99.72064190274038
 31
0.0
  0
LINE
  5
266
330
17
100
AcDbEntity
  8
0
100
AcDbLine
 10
91.94153772310776
 20
-99.72064190274043
 30
5.0
 11
89.49044351458652
 21
-116.53313778706459
 31
5.0
  0
LINE
  5
267
330
17
100
AcDbEntity
  8
0
100
AcDbLine
 10
76.65830857732297
 20
-68.4418635858591
 30
5.0
 11
76.65830857732297
 21
-68.4418635858591
 31
0.0
  0
LINE
  5
268
330
17
100
AcDbEntity
  8
0
100
AcDbLine
 10
48.18155539355287
 20
-52.24918013844997
 30
5.0
 11
76.6583085773231
 21
-68.44186358585918
 31
5.0
  0
ARC
  5
269
330
17
100
AcDbEntity
  8
0
100
AcDbCircle
 10
100.42298790504626
 20
-76.20330781038854
 30
5.0
 40
25.0
100
AcDbArc
 50
161.91318006750635
 51
250.16832567938596
  0
LINE
  5
26A
330
17
100
AcDbEntity
  8
0
100
AcDbLine
 10
-38.79668860162051
 20
-7.683823723714976
 30
5.0
 11
-38.79668860162051
 21
-7.683823723714976
 31
0.0
  0
LINE
  5
26B
330
17
100
AcDbEntity
  8
0
100
AcDbLine
 10
-29.45080720919909
 20
-25.935227299712395
 30
5.0
 11
-38.79668860162049
 21
-7.683823723715069
 31
5.0
  0
LINE
  5
26C
330
17
100
AcDbEntity
  8
0
100
AcDbLine
 10
-29.45080720919909
 20
-25.935227299712395
 30
2.5
 11
-29.45080720919909
 21
-25.935227299712395
 31
5.0
  0
LINE
  5
26D
330
17
100
AcDbEntity
  8
0
100
AcDbLine
 10
-24.89297514787267
 20
-34.83613550622397
 30
2.5
 11
-29.450807209199056
 21
-25.935227299712384
 31
2.5
  0
LINE
  5
26E
330
17
100
AcDbEntity
  8
0
100
AcDbLine
 10
-24.89297514787267
 20
-34.83613550622397
 30
2.5
 11
-24.89297514787267
 21
-34.83613550622397
 31
5.0
  0
LINE
  5
26F
330
17
100
AcDbEntity
  8
0
100
AcDbLine
 10
-3.334574847515432
 20
-76.9371474721781
 30
5.0
 11
-24.892975147872672
 21
-34.83613550622397
 31
5.0
  0
LINE
  5
270
330
17
100
AcDbEntity
  8
0
100
AcDbLine
 10
-3.3345748475153734
 20
-76.93714747217821
 30
5.0
 11
-3.3345748475153734
 21
-76.93714747217821
 31
0.0
  0
ARC
  5
271
330
17
100
AcDbEntity
  8
0
100
AcDbCircle
 10
3.379333932776126
 20
-101.01874685614615
 30
5.0
 40
25.0
100
AcDbArc
 50
81.41469930314595
 51
105.57837938576414
  0
LINE
  5
272
330
17
100
AcDbEntity
  8
0
100
AcDbLine
 10
7.111375729079146
 20
-76.29887905652701
 30
5.0
 11
7.111375729079146
 21
-76.29887905652701
 31
0.0
  0
LINE
  5
273
330
17
100
AcDbEntity
  8
0
100
AcDbLine
 10
-35.58985308966515
 20
-4.614399208246862
 30
5.0
 11
-35.58985308966515
 21
-4.614399208246862
 31
0.0
  0
ARC
  5
274
330
17
100
AcDbEntity
  8
0
100
AcDbCircle
 10
-54.4115055884236
 20
11.839943598926562
 30
5.0
 40
25.0
100
AcDbArc
 50
308.65229745139374
 51
318.83926200187324
  0
LINE
  5
275
330
17
100
AcDbEntity
  8
0
100
AcDbLine
 10
14.165633634812613
 20
-57.04539425780715
 30
5.0
 11
7.111375729079116
 21
-76.29887905652716
 31
5.0
  0
LINE
  5
276
330
17
100
AcDbEntity
  8
0
100
AcDbLine
 10
14.165633634812613
 20
-57.04539425780715
 30
2.5
 11
14.165633634812613
 21
-57.04539425780715
 31
5.0
  0
LINE
  5
277
330
17
100
AcDbEntity
  8
0
100
AcDbLine
 10
17.6058787547313
 20
-47.655787582611694
 30
2.5
 11
14.16563363481258
 21
-57.045394257807175
 31
2.5
  0
LINE
  5
278
330
17
100
AcDbEntity
  8
0
100
AcDbLine
 10
17.6058787547313
 20
-47.655787582611694
 30
2.5
 11
17.6058787547313
 21
-47.655787582611694
 31
5.0
  0
LINE
  5
279
330
17
100
AcDbEntity
  8
0
100
AcDbLine
 10
21.484869753306533
 20
-37.06869320309676
 30
5.0
 11
17.605878754731307
 21
-47.65578758261168
 31
5.0
  0
LINE
  5
27A
330
17
100
AcDbEntity
  8
0
100
AcDbLine
 10
21.48486975330656
 20
-37.068693203096714
 30
0.0
 11
21.48486975330656
 21
-37.068693203096714
 31
5.0
  0
LINE
  5
27B
330
17
100
AcDbEntity
  8
0
100
AcDbLine
 10
-9.07207679836408
 20
-19.693153251702057
 30
5.0
 11
21.484869753306555
 21
-37.068693203096714
 31
5.0
  0
LINE
  5
27C
330
17
100
AcDbEntity
  8
0
100
AcDbLine
 10
-9.07207679836408
 20
-19.693153251702057
 30
2.5
 11
-9.07207679836408
 21
-19.693153251702057
 31
5.0
  0
LINE
  5
27D
330
17
100
AcDbEntity
  8
0
100
AcDbLine
 10
-17.76497538100807
 20
-14.75012642273721
 30
2.5
 11
-9.072076798364085
 21
-19.69315325170205
 31
2.5
  0
LINE
  5
27E
330
17
100
AcDbEntity
  8
0
100
AcDbLine
 10
-17.76497538100807
 20
-14.750126422737194
 30
2.5
 11
-17.76497538100807
 21
-14.750126422737194
 31
5.0
  0
LINE
  5
27F
330
17
100
AcDbEntity
  8
0
100
AcDbLine
 10
-35.589853089665354
 20
-4.614399208246736
 30
5.0
 11
-17.76497538100807
 21
-14.750126422737193
 31
5.0
  0
LINE
  5
280
330
17
100
AcDbEntity
  8
0
100
AcDbLine
 10
18.861481268111383
 20
-73.29651467738873
 30
5.0
 11
18.861481268111383
 21
-73.29651467738873
 31
0.0
  0
LINE
  5
281
330
17
100
AcDbEntity
  8
0
100
AcDbLine
 10
30.298683058960876
 20
-42.0804755471725
 30
5.0
 11
30.298683058960876
 21
-42.0804755471725
 31
0.0
  0
LINE
  5
282
330
17
100
AcDbEntity
  8
0
100
AcDbLine
 10
26.99548542992678
 20
-51.096032702530394
 30
5.0
 11
30.298683058960865
 21
-42.08047554717249
 31
5.0
  0
LINE
  5
283
330
17
100
AcDbEntity
  8
0
100
AcDbLine
 10
26.99548542992678
 20
-51.096032702530394
 30
2.5
 11
26.99548542992678
 21
-51.096032702530394
 31
5.0
  0
LINE
  5
284
330
17
100
AcDbEntity
  8
0
100
AcDbLine
 10
23.555240310008067
 20
-60.48563937772586
 30
2.5
 11
26.995485429926784
 21
-51.09603270253038
 31
2.5
  0
LINE
  5
285
330
17
100
AcDbEntity
  8
0
100
AcDbLine
 10
23.55524031000809
 20
-60.48563937772587
 30
2.5
 11
23.55524031000809
 21
-60.48563937772587
 31
5.0
  0
LINE
  5
286
330
17
100
AcDbEntity
  8
0
100
AcDbLine
 10
18.861481268111376
 20
-73.29651467738876
 30
5.0
 11
23.55524031000809
 21
-60.48563937772587
 31
5.0
  0
LINE
  5
287
330
17
100
AcDbEntity
  8
0
100
AcDbLine
 10
39.38937798416438
 20
-47.249700574015975
 30
0.0
 11
39.38937798416438
 21
-47.249700574015975
 31
5.0
  0
LINE
  5
288
330
17
100
AcDbEntity
  8
0
100
AcDbLine
 10
30.29868305896087
 20
-42.0804755471725
 30
5.0
 11
39.38937798416438
 21
-47.249700574015975
 31
5.0
  0
LINE
  5
289
330
17
100
AcDbEntity
  8
0
100
AcDbLine
 10
27.306738177586038
 20
-62.58075359289875
 30
5.0
 11
18.86148126811137
 21
-73.29651467738877
 31
5.0
  0
LINE
  5
28A
330
17
100
AcDbEntity
  8
0
100
AcDbLine
 10
27.306738177586038
 20
-62.58075359289875
 30
2.5
 11
27.306738177586038
 21
-62.58075359289875
 31
5.0
  0
LINE
  5
28B
330
17
100
AcDbEntity
  8
0
100
AcDbLine
 10
33.496607237745465
 20
-54.7267405410837
 30
2.5
 11
27.306738177586034
 21
-62.580753592898745
 31
2.5
  0
LINE
  5
28C
330
17
100
AcDbEntity
  8
0
100
AcDbLine
 10
33.496607237745465
 20
-54.7267405410837
 30
2.5
 11
33.496607237745465
 21
-54.7267405410837
 31
5.0
  0
LINE
  5
28D
330
17
100
AcDbEntity
  8
0
100
AcDbLine
 10
39.38937798416438
 20
-47.249700574015975
 30
5.0
 11
33.496607237745465
 21
-54.7267405410837
 31
5.0
  0
LINE
  5
28E
330
17
100
AcDbEntity
  8
0
100
AcDbLine
 10
92.23357320765888
 20
-52.58269209203319
 30
5.0
 11
92.23357320765888
 21
-52.58269209203319
 31
0.0
  0
LINE
  5
28F
330
17
100
AcDbEntity
  8
0
100
AcDbLine
 10
89.5270376456651
 20
-32.25699661200589
 30
5.0
 11
92.2335732076588
 21
-52.582692092033085
 31
5.0
  0
LINE
  5
290
330
17
100
AcDbEntity
  8
0
100
AcDbLine
 10
89.5270376456651
 20
-32.25699661200589
 30
2.5
 11
89.5270376456651
 21
-32.25699661200589
 31
5.0
  0
LINE
  5
291
330
17
100
AcDbEntity
  8
0
100
AcDbLine
 10
88.20710493502985
 20
-22.344490488961412
 30
2.5
 11
89.52703764566516
 21
-32.25699661200592
 31
2.5
  0
LINE
  5
292
330
17
100
AcDbEntity
  8
0
100
AcDbLine
 10
88.20710493502985
 20
-22.344490488961412
 30
2.5
 11
88.20710493502985
 21
-22.344490488961412
 31
5.0
  0
LINE
  5
293
330
17
100
AcDbEntity
  8
0
100
AcDbLine
 10
85.8284272464024
 20
-4.480960808028016
 30
5.0
 11
88.20710493502985
 21
-22.344490488961412
 31
5.0
  0
LINE
  5
294
330
17
100
AcDbEntity
  8
0
100
AcDbLine
 10
85.82842724640241
 20
-4.480960808027994
 30
0.0
 11
85.82842724640241
 21
-4.480960808027994
 31
5.0
  0
LINE
  5
295
330
17
100
AcDbEntity
  8
0
100
AcDbLine
 10
54.442116977287995
 20
-44.3054689044225
 30
5.0
 11
85.8284272464024
 21
-4.480960808027994
 31
5.0
  0
LINE
  5
296
330
17
100
AcDbEntity
  8
0
100
AcDbLine
 10
54.442116977287995
 20
-44.30546890442248
 30
0.0
 11
54.442116977287995
 21
-44.30546890442248
 31
5.0
  0
LINE
  5
297
330
17
100
AcDbEntity
  8
0
100
AcDbLine
 10
81.6013354062878
 20
-59.74896500321512
 30
5.0
 11
81.6013354062878
 21
-59.74896500321512
 31
0.0
  0
ARC
  5
298
330
17
100
AcDbEntity
  8
0
100
AcDbCircle
 10
100.42298790504626
 20
-76.20330781038854
 30
5.0
 40
25.0
100
AcDbArc
 50
109.1217500778535
 51
138.83926200187466
  0
LINE
  5
299
330
17
100
AcDbEntity
  8
0
100
AcDbLine
 10
81.6013354062878
 20
-59.74896500321511
 30
5.0
 11
54.44211697728798
 21
-44.30546890442248
 31
5.0
  0
LINE
  5
29A
330
17
100
AcDbEntity
  8
0
100
AcDbLine
 10
109.30199779097323
 20
25.30347043566166
 30
0.0
 11
109.30199779097323
 21
25.30347043566166
 31
5.0
  0
LINE
  5
29B
330
17
100
AcDbEntity
  8
0
100
AcDbLine
 10
94.45856373810446
 20
6.469384665520266
 30
5.0
 11
109.3019977909732
 21
25.303470435661623
 31
5.0
  0
LINE
  5
29C
330
17
100
AcDbEntity
  8
0
100
AcDbLine
 10
94.45856373810444
 20
6.469384665520234
 30
5.0
 11
94.45856373810444
 21
6.469384665520234
 31
0.0
  0
LINE
  5
29D
330
17
100
AcDbEntity
  8
0
100
AcDbLine
 10
100.49690346584302
 20
-38.87768419787842
 30
5.0
 11
100.49690346584302
 21
-38.87768419787842
 31
0.0
  0
LINE
  5
29E
330
17
100
AcDbEntity
  8
0
100
AcDbLine
 10
98.11961105807436
 20
-21.024557778326084
 30
5.0
 11
94.45856373810443
 21
6.469384665520263
 31
5.0
  0
LINE
  5
29F
330
17
100
AcDbEntity
  8
0
100
AcDbLine
 10
98.11961105807436
 20
-21.024557778326084
 30
2.5
 11
98.11961105807436
 21
-21.024557778326084
 31
5.0
  0
LINE
  5
2A0
330
17
100
AcDbEntity
  8
0
100
AcDbLine
 10
99.43954376870968
 20
-30.937063901370593
 30
2.5
 11
98.11961105807437
 21
-21.024557778326084
 31
2.5
  0
LINE
  5
2A1
330
17
100
AcDbEntity
  8
0
100
AcDbLine
 10
99.43954376870961
 20
-30.93706390137058
 30
2.5
 11
99.43954376870961
 21
-30.93706390137058
 31
5.0
  0
LINE
  5
2A2
330
17
100
AcDbEntity
  8
0
100
AcDbLine
 10
100.49690346584303
 20
-38.87768419787851
 30
5.0
 11
99.43954376870961
 21
-30.937063901370585
 31
5.0
  0
LINE
  5
2A3
330
17
100
AcDbEntity
  8
0
100
AcDbLine
 10
101.58570420932415
 20
-30.941313921522273
 30
5.0
 11
100.49690346584302
 21
-38.87768419787851
 31
5.0
  0
LINE
  5
2A4
330
17
100
AcDbEntity
  8
0
100
AcDbLine
 10
101.58570420932415
 20
-30.941313921522273
 30
2.5
 11
101.58570420932415
 21
-30.941313921522273
 31
5.0
  0
LINE
  5
2A5
330
17
100
AcDbEntity
  8
0
100
AcDbLine
 10
102.94488568804047
 20
-21.0341132216316
 30
2.5
 11
101.5857042093242
 21
-30.941313921522294
 31
2.5
  0
LINE
  5
2A6
330
17
100
AcDbEntity
  8
0
100
AcDbLine
 10
102.94488568804047
 20
-21.0341132216316
 30
2.5
 11
102.94488568804047
 21
-21.0341132216316
 31
5.0
  0
LINE
  5
2A7
330
17
100
AcDbEntity
  8
0
100
AcDbLine
 10
109.30199779097319
 20
25.303470435661623
 30
5.0
 11
102.94488568804047
 21
-21.0341132216316
 31
5.0
  0
LINE
  5
2A8
330
17
100
AcDbEntity
  8
0
100
AcDbLine
 10
101.83692871955414
 20
-101.16329121128584
 30
5.0
 11
101.83692871955414
 21
-101.16329121128584
 31
0.0
  0
LINE
  5
2A9
330
17
100
AcDbEntity
  8
0
100
AcDbLine
 10
99.25468392940782
 20
-118.87537251592313
 30
5.0
 11
101.83692871955424
 21
-101.16329121128564
 31
5.0
  0
LINE
  5
2AA
330
17
100
AcDbEntity
  8
0
100
AcDbLine
 10
99.25468392940772
 20
-118.8753725159231
 30
0.0
 11
99.25468392940772
 21
-118.8753725159231
 31
5.0
  0
LINE
  5
2AB
330
17
100
AcDbEntity
  8
0
100
AcDbLine
 10
180.7183880798755
 20
-138.41679190918734
 30
5.0
 11
99.25468392940782
 21
-118.87537251592313
 31
5.0
  0
LINE
  5
2AC
330
17
100
AcDbEntity
  8
0
100
AcDbLine
 10
180.71838807987547
 20
-138.41679190918734
 30
5.0
 11
180.71838807987547
 21
-138.41679190918734
 31
0.0
  0
LINE
  5
2AD
330
17
100
AcDbEntity
  8
0
100
AcDbLine
 10
117.6368209879854
 20
-94.33295068036007
 30
5.0
 11
117.6368209879854
 21
-94.33295068036007
 31
0.0
  0
ARC
  5
2AE
330
17
100
AcDbEntity
  8
0
100
AcDbCircle
 10
100.42298790504626
 20
-76.20330781038854
 30
5.0
 40
25.0
100
AcDbArc
 50
273.2422437450181
 51
313.5157006939234
  0
LINE
  5
2AF
330
17
100
AcDbEntity
  8
0
100
AcDbLine
 10
142.64120881329015
 20
-111.80698491462482
 30
5.0
 11
180.7183880798755
 21
-138.41679190918734
 31
5.0
  0
LINE
  5
2B0
330
17
100
AcDbEntity
  8
0
100
AcDbLine
 10
142.64120881329015
 20
-111.80698491462482
 30
2.5
 11
142.64120881329015
 21
-111.80698491462482
 31
5.0
  0
LINE
  5
2B1
330
17
100
AcDbEntity
  8
0
100
AcDbLine
 10
134.44442017238984
 20
-106.07875168120917
 30
2.5
 11
142.64120881329015
 21
-111.80698491462482
 31
2.5
  0
LINE
  5
2B2
330
17
100
AcDbEntity
  8
0
100
AcDbLine
 10
134.4444201723898
 20
-106.07875168120916
 30
2.5
 11
134.4444201723898
 21
-106.07875168120916
 31
5.0
  0
LINE
  5
2B3
330
17
100
AcDbEntity
  8
0
100
AcDbLine
 10
117.6368209879856
 20
-94.3329506803602
 30
5.0
 11
134.4444201723898
 21
-106.07875168120916
 31
5.0
  0
LINE
  5
2B4
330
17
100
AcDbEntity
  8
0
100
AcDbLine
 10
123.36505422140107
 20
-86.13616203945976
 30
5.0
 11
123.36505422140107
 21
-86.13616203945976
 31
0.0
  0
LINE
  5
2B5
330
17
100
AcDbEntity
  8
0
100
AcDbLine
 10
140.17265340580548
 20
-97.88196304030885
 30
5.0
 11
123.36505422140108
 21
-86.13616203945978
 31
5.0
  0
LINE
  5
2B6
330
17
100
AcDbEntity
  8
0
100
AcDbLine
 10
140.17265340580548
 20
-97.88196304030885
 30
2.5
 11
140.17265340580548
 21
-97.88196304030885
 31
5.0
  0
LINE
  5
2B7
330
17
100
AcDbEntity
  8
0
100
AcDbLine
 10
148.3694420467058
 20
-103.61019627372451
 30
2.5
 11
140.1726534058055
 21
-97.88196304030885
 31
2.5
  0
LINE
  5
2B8
330
17
100
AcDbEntity
  8
0
100
AcDbLine
 10
148.3694420467058
 20
-103.61019627372451
 30
2.5
 11
148.3694420467058
 21
-103.61019627372451
 31
5.0
  0
LINE
  5
2B9
330
17
100
AcDbEntity
  8
0
100
AcDbLine
 10
203.14138726689185
 20
-141.88695203921543
 30
5.0
 11
148.3694420467058
 21
-103.61019627372451
 31
5.0
  0
LINE
  5
2BA
330
17
100
AcDbEntity
  8
0
100
AcDbLine
 10
203.14138726689185
 20
-141.88695203921543
 30
0.0
 11
203.14138726689185
 21
-141.88695203921543
 31
5.0
  0
LINE
  5
2BB
330
17
100
AcDbEntity
  8
0
100
AcDbLine
 10
203.14138726689185
 20
-141.88695203921543
 30
5.0
 11
266.2107810451194
 21
-2.611170646620849
 31
5.0
  0
LINE
  5
2BC
330
17
100
AcDbEntity
  8
0
100
AcDbLine
 10
266.2107810451194
 20
-2.611170646620831
 30
5.0
 11
266.2107810451194
 21
-2.611170646620831
 31
0.0
  0
ARC
  5
2BD
330
17
100
AcDbEntity
  8
0
100
AcDbCircle
 10
100.42298790504626
 20
-76.20330781038854
 30
5.0
 40
25.0
100
AcDbArc
 50
-23.410381240447123
 51
70.65132569539983
  0
LINE
  5
2BE
330
17
100
AcDbEntity
  8
0
100
AcDbLine
 10
108.70588934568804
 20
-52.61531205567012
 30
5.0
 11
108.70588934568804
 21
-52.61531205567012
 31
0.0
  0
ARC
  5
2BF
330
17
100
AcDbEntity
  8
0
100
AcDbCircle
 10
280.8700167390337
 20
17.639923370006223
 30
5.0
 40
25.0
100
AcDbArc
 50
169.57513615171158
 51
234.1002071719768
  0
LINE
  5
2C0
330
17
100
AcDbEntity
  8
0
100
AcDbLine
 10
256.2826907181712
 20
22.163572244953833
 30
5.0
 11
256.2826907181712
 21
22.163572244953833
 31
0.0
  0
LINE
  5
2C1
330
17
100
AcDbEntity
  8
0
100
AcDbLine
 10
121.11515892887786
 20
37.83701254179772
 30
5.0
 11
121.11515892887786
 21
37.83701254179772
 31
0.0
  0
LINE
  5
2C2
330
17
100
AcDbEntity
  8
0
100
AcDbLine
 10
112.85208638793117
 20
-22.393294700347866
 30
5.0
 11
121.11515892887788
 21
37.83701254179772
 31
5.0
  0
LINE
  5
2C3
330
17
100
AcDbEntity
  8
0
100
AcDbLine
 10
112.85208638793117
 20
-22.393294700347866
 30
2.5
 11
112.85208638793117
 21
-22.393294700347866
 31
5.0
  0
LINE
  5
2C4
330
17
100
AcDbEntity
  8
0
100
AcDbLine
 10
111.49290490921489
 20
-32.30049540023856
 30
2.5
 11
112.85208638793115
 21
-22.393294700347866
 31
2.5
  0
LINE
  5
2C5
330
17
100
AcDbEntity
  8
0
100
AcDbLine
 10
111.49290490921484
 20
-32.30049540023855
 30
2.5
 11
111.49290490921484
 21
-32.30049540023855
 31
5.0
  0
LINE
  5
2C6
330
17
100
AcDbEntity
  8
0
100
AcDbLine
 10
108.70588934568798
 20
-52.6153120556702
 30
5.0
 11
111.49290490921484
 21
-32.300495400238546
 31
5.0
  0
LINE
  5
2C7
330
17
100
AcDbEntity
  8
0
100
AcDbLine
 10
237.26557669043984
 20
29.832249155047585
 30
5.0
 11
256.2826907181709
 21
22.163572244953883
 31
5.0
  0
LINE
  5
2C8
330
17
100
AcDbEntity
  8
0
100
AcDbLine
 10
237.26557669043984
 20
29.832249155047585
 30
2.5
 11
237.26557669043984
 21
29.832249155047585
 31
5.0
  0
LINE
  5
2C9
330
17
100
AcDbEntity
  8
0
100
AcDbLine
 10
227.99124413794465
 20
33.57213627977852
 30
2.5
 11
237.26557669043984
 21
29.83224915504764
 31
2.5
  0
LINE
  5
2CA
330
17
100
AcDbEntity
  8
0
100
AcDbLine
 10
227.99124413794465
 20
33.57213627977852
 30
2.5
 11
227.99124413794465
 21
33.57213627977852
 31
5.0
  0
LINE
  5
2CB
330
17
100
AcDbEntity
  8
0
100
AcDbLine
 10
146.893506138303
 20
66.27490863271274
 30
5.0
 11
227.99124413794468
 21
33.57213627977852
 31
5.0
  0
LINE
  5
2CC
330
17
100
AcDbEntity
  8
0
100
AcDbLine
 10
146.89350613830294
 20
66.27490863271274
 30
0.0
 11
146.89350613830294
 21
66.27490863271274
 31
5.0
  0
LINE
  5
2CD
330
17
100
AcDbEntity
  8
0
100
AcDbLine
 10
121.75428102651587
 20
37.83701254179772
 30
0.0
 11
121.75428102651587
 21
37.83701254179772
 31
5.0
  0
LINE
  5
2CE
330
17
100
AcDbEntity
  8
0
100
AcDbLine
 10
121.11515892887788
 20
37.83701254179772
 30
5.0
 11
121.75428102651587
 21
37.83701254179772
 31
5.0
  0
LINE
  5
2CF
330
17
100
AcDbEntity
  8
0
100
AcDbLine
 10
121.75428102651587
 20
40.786137557822926
 30
5.0
 11
146.89350613830297
 21
66.27490863271275
 31
5.0
  0
LINE
  5
2D0
330
17
100
AcDbEntity
  8
0
100
AcDbLine
 10
121.75428102651587
 20
40.786137557822926
 30
5.0
 11
121.75428102651587
 21
40.786137557822926
 31
0.0
  0
LINE
  5
2D1
330
17
100
AcDbEntity
  8
0
100
AcDbLine
 10
121.75428102651587
 20
37.83701254179772
 30
5.0
 11
121.75428102651587
 21
40.786137557822926
 31
5.0
  0
LINE
  5
2D2
330
17
100
AcDbEntity
  8
0
100
AcDbLine
 10
-31.199623484672994
 20
21.12479842824847
 30
5.0
 11
-31.199623484672994
 21
21.12479842824847
 31
0.0
  0
LINE
  5
2D3
330
17
100
AcDbEntity
  8
0
100
AcDbLine
 10
-11.022702769972838
 20
24.778714405367126
 30
5.0
 11
-31.199623484672966
 21
21.124798428248496
 31
5.0
  0
LINE
  5
2D4
330
17
100
AcDbEntity
  8
0
100
AcDbLine
 10
-11.022702769972838
 20
24.778714405367126
 30
2.5
 11
-11.022702769972838
 21
24.778714405367126
 31
5.0
  0
LINE
  5
2D5
330
17
100
AcDbEntity
  8
0
100
AcDbLine
 10
-1.182751643814342
 20
26.560668903891848
 30
2.5
 11
-11.022702769972817
 21
24.778714405367108
 31
2.5
  0
LINE
  5
2D6
330
17
100
AcDbEntity
  8
0
100
AcDbLine
 10
-1.182751643814342
 20
26.560668903891848
 30
2.5
 11
-1.182751643814342
 21
26.560668903891848
 31
5.0
  0
LINE
  5
2D7
330
17
100
AcDbEntity
  8
0
100
AcDbLine
 10
48.06560881971092
 20
35.47924343213828
 30
5.0
 11
-1.182751643814342
 21
26.560668903891845
 31
5.0
  0
LINE
  5
2D8
330
17
100
AcDbEntity
  8
0
100
AcDbLine
 10
48.06560881971092
 20
35.47924343213829
 30
5.0
 11
48.06560881971092
 21
35.47924343213829
 31
0.0
  0
LINE
  5
2D9
330
17
100
AcDbEntity
  8
0
100
AcDbLine
 10
70.91255735110748
 20
97.83638746125823
 30
5.0
 11
48.06560881971092
 21
35.47924343213826
 31
5.0
  0
LINE
  5
2DA
330
17
100
AcDbEntity
  8
0
100
AcDbLine
 10
70.9125573511075
 20
97.83638746125821
 30
5.0
 11
70.9125573511075
 21
97.83638746125821
 31
0.0
  0
LINE
  5
2DB
330
17
100
AcDbEntity
  8
0
100
AcDbLine
 10
-70.23721339368876
 20
31.193159674358817
 30
5.0
 11
-70.23721339368876
 21
31.193159674358817
 31
0.0
  0
ARC
  5
2DC
330
17
100
AcDbEntity
  8
0
100
AcDbCircle
 10
-54.4115055884236
 20
11.839943598926562
 30
5.0
 40
25.0
100
AcDbArc
 50
21.801626507443892
 51
129.2739009948034
  0
LINE
  5
2DD
330
17
100
AcDbEntity
  8
0
100
AcDbLine
 10
-52.46591344023888
 20
177.93763386192452
 30
2.5
 11
-44.078534951518094
 21
172.4922796873144
 31
2.5
  0
LINE
  5
2DE
330
17
100
AcDbEntity
  8
0
100
AcDbLine
 10
-52.46591344023889
 20
177.9376338619245
 30
2.5
 11
-52.46591344023889
 21
177.9376338619245
 31
5.0
  0
LINE
  5
2DF
330
17
100
AcDbEntity
  8
0
100
AcDbLine
 10
-69.66431906252066
 20
189.1033884511411
 30
5.0
 11
-52.4659134402389
 21
177.9376338619245
 31
5.0
  0
LINE
  5
2E0
330
17
100
AcDbEntity
  8
0
100
AcDbLine
 10
-69.66431906252056
 20
189.10338845114103
 30
5.0
 11
-69.66431906252056
 21
189.10338845114103
 31
0.0
  0
LINE
  5
2E1
330
17
100
AcDbEntity
  8
0
100
AcDbLine
 10
-44.07853495151811
 20
172.4922796873144
 30
5.0
 11
70.9125573511075
 21
97.83638746125821
 31
5.0
  0
LINE
  5
2E2
330
17
100
AcDbEntity
  8
0
100
AcDbLine
 10
-44.07853495151811
 20
172.4922796873144
 30
2.5
 11
-44.07853495151811
 21
172.4922796873144
 31
5.0
  0
LINE
  5
2E3
330
17
100
AcDbEntity
  8
0
100
AcDbLine
 10
-183.7208526691723
 20
123.71234502284335
 30
5.0
 11
-183.7208526691723
 21
123.71234502284335
 31
0.0
  0
LINE
  5
2E4
330
17
100
AcDbEntity
  8
0
100
AcDbLine
 10
-93.88062850082036
 20
50.468797277570914
 30
5.0
 11
-183.7208526691723
 21
123.71234502284335
 31
5.0
  0
LINE
  5
2E5
330
17
100
AcDbEntity
  8
0
100
AcDbLine
 10
-93.88062850082036
 20
50.468797277570914
 30
2.5
 11
-93.88062850082036
 21
50.468797277570914
 31
5.0
  0
LINE
  5
2E6
330
17
100
AcDbEntity
  8
0
100
AcDbLine
 10
-86.12998578418087
 20
44.14997321933008
 30
2.5
 11
-93.88062850082036
 21
50.46879727757092
 31
2.5
  0
LINE
  5
2E7
330
17
100
AcDbEntity
  8
0
100
AcDbLine
 10
-86.12998578418089
 20
44.149973219330086
 30
2.5
 11
-86.12998578418089
 21
44.149973219330086
 31
5.0
  0
LINE
  5
2E8
330
17
100
AcDbEntity
  8
0
100
AcDbLine
 10
-70.23721339368859
 20
31.19315967435868
 30
5.0
 11
-86.12998578418089
 21
44.149973219330086
 31
5.0
  0
ARC
  5
2E9
330
17
100
AcDbEntity
  8
0
100
AcDbCircle
 10
-87.48643955217732
 20
206.6354168920305
 30
5.0
 40
25.0
100
AcDbArc
 50
230.03196753797567
 51
315.4701195635011
  0
LINE
  5
2EA
330
17
100
AcDbEntity
  8
0
100
AcDbLine
 10
-103.54544214591331
 20
187.4753428917981
 30
5.0
 11
-103.54544214591331
 21
187.4753428917981
 31
0.0
  0
LINE
  5
2EB
330
17
100
AcDbEntity
  8
0
100
AcDbLine
 10
-103.54544214591323
 20
187.47534289179816
 30
5.0
 11
-183.7208526691723
 21
123.71234502284334
 31
5.0
  0
LINE
  5
2EC
330
17
100
AcDbEntity
  8
0
100
AcDbLine
 10
-30.64682626070031
 20
4.078499374397122
 30
5.0
 11
-30.64682626070031
 21
4.078499374397122
 31
0.0
  0
LINE
  5
2ED
330
17
100
AcDbEntity
  8
0
100
AcDbLine
 10
-12.821948552043239
 20
-6.057227840093203
 30
5.0
 11
-30.646826260700465
 21
4.078499374397223
 31
5.0
  0
LINE
  5
2EE
330
17
100
AcDbEntity
  8
0
100
AcDbLine
 10
-12.821948552043239
 20
-6.057227840093203
 30
2.5
 11
-12.821948552043239
 21
-6.057227840093203
 31
5.0
  0
LINE
  5
2EF
330
17
100
AcDbEntity
  8
0
100
AcDbLine
 10
-4.129049969399247
 20
-11.000254669058066
 30
2.5
 11
-12.821948552043233
 21
-6.057227840093226
 31
2.5
  0
LINE
  5
2F0
330
17
100
AcDbEntity
  8
0
100
AcDbLine
 10
-4.129049969399247
 20
-11.000254669058066
 30
2.5
 11
-4.129049969399247
 21
-11.000254669058066
 31
5.0
  0
LINE
  5
2F1
330
17
100
AcDbEntity
  8
0
100
AcDbLine
 10
24.97296729918054
 20
-27.54848087553875
 30
5.0
 11
-4.129049969399276
 21
-11.000254669058059
 31
5.0
  0
LINE
  5
2F2
330
17
100
AcDbEntity
  8
0
100
AcDbLine
 10
24.97296729918051
 20
-27.54848087553873
 30
5.0
 11
24.97296729918051
 21
-27.54848087553873
 31
0.0
  0
LINE
  5
2F3
330
17
100
AcDbEntity
  8
0
100
AcDbLine
 10
44.07751579158659
 20
24.594372263696215
 30
5.0
 11
24.97296729918053
 21
-27.548480875538758
 31
5.0
  0
LINE
  5
2F4
330
17
100
AcDbEntity
  8
0
100
AcDbLine
 10
44.07751579158659
 20
24.594372263696236
 30
0.0
 11
44.07751579158659
 21
24.594372263696236
 31
5.0
  0
LINE
  5
2F5
330
17
100
AcDbEntity
  8
0
100
AcDbLine
 10
-29.417668986148268
 20
11.284847302089998
 30
5.0
 11
-29.417668986148268
 21
11.284847302089998
 31
0.0
  0
ARC
  5
2F6
330
17
100
AcDbEntity
  8
0
100
AcDbCircle
 10
-54.4115055884236
 20
11.839943598926562
 30
5.0
 40
25.0
100
AcDbArc
 50
341.91318006750674
 51
358.72770844181224
  0
LINE
  5
2F7
330
17
100
AcDbEntity
  8
0
100
AcDbLine
 10
0.5992028547103843
 20
16.720717777733373
 30
5.0
 11
44.07751579158659
 21
24.594372263696233
 31
5.0
  0
LINE
  5
2F8
330
17
100
AcDbEntity
  8
0
100
AcDbLine
 10
0.5992028547103843
 20
16.720717777733373
 30
2.5
 11
0.5992028547103843
 21
16.720717777733373
 31
5.0
  0
LINE
  5
2F9
330
17
100
AcDbEntity
  8
0
100
AcDbLine
 10
-9.240748271448098
 20
14.938763279208633
 30
2.5
 11
0.5992028547103772
 21
16.720717777733373
 31
2.5
  0
LINE
  5
2FA
330
17
100
AcDbEntity
  8
0
100
AcDbLine
 10
-9.240748271448098
 20
14.93876327920865
 30
2.5
 11
-9.240748271448098
 21
14.93876327920865
 31
5.0
  0
LINE
  5
2FB
330
17
100
AcDbEntity
  8
0
100
AcDbLine
 10
-29.417668986148414
 20
11.28484730208999
 30
5.0
 11
-9.24074827144809
 21
14.938763279208652
 31
5.0
  0
LINE
  5
2FC
330
17
100
AcDbEntity
  8
0
100
AcDbLine
 10
55.484447308211756
 20
26.660097252550866
 30
5.0
 11
55.484447308211756
 21
26.660097252550866
 31
0.0
  0
LINE
  5
2FD
330
17
100
AcDbEntity
  8
0
100
AcDbLine
 10
33.786780604834846
 20
-32.56026321961454
 30
5.0
 11
55.484447308211756
 21
26.660097252550884
 31
5.0
  0
LINE
  5
2FE
330
17
100
AcDbEntity
  8
0
100
AcDbLine
 10
33.78678060483483
 20
-32.56026321961451
 30
0.0
 11
33.78678060483483
 21
-32.56026321961451
 31
5.0
  0
LINE
  5
2FF
330
17
100
AcDbEntity
  8
0
100
AcDbLine
 10
81.0648855472432
 20
31.29255694771117
 30
0.0
 11
81.0648855472432
 21
31.29255694771117
 31
5.0
  0
LINE
  5
300
330
17
100
AcDbEntity
  8
0
100
AcDbLine
 10
55.484447308211756
 20
26.660097252550866
 30
5.0
 11
81.0648855472432
 21
31.29255694771117
 31
5.0
  0
LINE
  5
301
330
17
100
AcDbEntity
  8
0
100
AcDbLine
 10
45.6499395678995
 20
-39.30598933998849
 30
5.0
 11
33.786780604834846
 21
-32.560263219614534
 31
5.0
  0
LINE
  5
302
330
17
100
AcDbEntity
  8
0
100
AcDbLine
 10
45.64993956789951
 20
-39.305989339988486
 30
5.0
 11
45.64993956789951
 21
-39.305989339988486
 31
0.0
  0
LINE
  5
303
330
17
100
AcDbEntity
  8
0
100
AcDbLine
 10
83.98812992477349
 20
9.339409216811072
 30
5.0
 11
83.98812992477349
 21
9.339409216811072
 31
0.0
  0
LINE
  5
304
330
17
100
AcDbEntity
  8
0
100
AcDbLine
 10
81.0648855472432
 20
31.292556947711162
 30
5.0
 11
83.98812992477349
 21
9.339409216811063
 31
5.0
  0
LINE
  5
305
330
17
100
AcDbEntity
  8
0
100
AcDbLine
 10
83.98812992477349
 20
9.339409216811056
 30
5.0
 11
45.649939567899494
 21
-39.305989339988514
 31
5.0
  0
LINE
  5
306
330
17
100
AcDbEntity
  8
0
100
AcDbLine
 10
90.91560983724834
 20
33.076462399806076
 30
5.0
 11
90.91560983724834
 21
33.076462399806076
 31
0.0
  0
LINE
  5
307
330
17
100
AcDbEntity
  8
0
100
AcDbLine
 10
92.61826641647554
 20
20.289754690359295
 30
5.0
 11
90.91560983724834
 21
33.076462399806076
 31
5.0
  0
LINE
  5
308
330
17
100
AcDbEntity
  8
0
100
AcDbLine
 10
92.61826641647554
 20
20.289754690359302
 30
0.0
 11
92.61826641647554
 21
20.289754690359302
 31
5.0
  0
LINE
  5
309
330
17
100
AcDbEntity
  8
0
100
AcDbLine
 10
104.65685855843651
 20
35.56491784639609
 30
0.0
 11
104.65685855843651
 21
35.56491784639609
 31
5.0
  0
LINE
  5
30A
330
17
100
AcDbEntity
  8
0
100
AcDbLine
 10
90.91560983724834
 20
33.076462399806076
 30
5.0
 11
104.65685855843648
 21
35.564917846396085
 31
5.0
  0
LINE
  5
30B
330
17
100
AcDbEntity
  8
0
100
AcDbLine
 10
104.65685855843648
 20
35.564917846396085
 30
5.0
 11
92.61826641647554
 21
20.289754690359302
 31
5.0
  0
LINE
  5
30C
330
17
100
AcDbEntity
  8
0
100
AcDbLine
 10
79.74350772258484
 20
41.215915670654354
 30
5.0
 11
79.74350772258484
 21
41.215915670654354
 31
0.0
  0
LINE
  5
30D
330
17
100
AcDbEntity
  8
0
100
AcDbLine
 10
74.69863460222045
 20
79.10219221540703
 30
5.0
 11
79.74350772258485
 21
41.21591567065434
 31
5.0
  0
LINE
  5
30E
330
17
100
AcDbEntity
  8
0
100
AcDbLine
 10
74.69863460222047
 20
79.10219221540723
 30
0.0
 11
74.69863460222047
 21
79.10219221540723
 31
5.0
  0
LINE
  5
30F
330
17
100
AcDbEntity
  8
0
100
AcDbLine
 10
59.47254033633609
 20
37.544968420992944
 30
5.0
 11
74.69863460222044
 21
79.10219221540704
 31
5.0
  0
LINE
  5
310
330
17
100
AcDbEntity
  8
0
100
AcDbLine
 10
59.472540336336074
 20
37.544968420992916
 30
0.0
 11
59.472540336336074
 21
37.544968420992916
 31
5.0
  0
LINE
  5
311
330
17
100
AcDbEntity
  8
0
100
AcDbLine
 10
79.74350772258484
 20
41.21591567065434
 30
5.0
 11
59.47254033633609
 21
37.544968420992916
 31
5.0
  0
LINE
  5
312
330
17
100
AcDbEntity
  8
0
100
AcDbLine
 10
112.59688305286309
 20
47.83701254179772
 30
0.0
 11
112.59688305286309
 21
47.83701254179772
 31
5.0
  0
LINE
  5
313
330
17
100
AcDbEntity
  8
0
100
AcDbLine
 10
118.16875231765862
 20
77.85820439732161
 30
5.0
 11
112.59688305286309
 21
47.83701254179771
 31
5.0
  0
LINE
  5
314
330
17
100
AcDbEntity
  8
0
100
AcDbLine
 10
118.1687523176586
 20
77.85820439732161
 30
5.0
 11
118.1687523176586
 21
77.85820439732161
 31
0.0
  0
LINE
  5
315
330
17
100
AcDbEntity
  8
0
100
AcDbLine
 10
83.06775532505321
 20
92.01272883073152
 30
5.0
 11
118.16875231765862
 21
77.85820439732161
 31
5.0
  0
LINE
  5
316
330
17
100
AcDbEntity
  8
0
100
AcDbLine
 10
83.06775532505318
 20
92.01272883073153
 30
0.0
 11
83.06775532505318
 21
92.01272883073153
 31
5.0
  0
LINE
  5
317
330
17
100
AcDbEntity
  8
0
100
AcDbLine
 10
111.75428102651587
 20
47.83701254179772
 30
5.0
 11
112.59688305286309
 21
47.83701254179772
 31
5.0
  0
LINE
  5
318
330
17
100
AcDbEntity
  8
0
100
AcDbLine
 10
111.75428102651587
 20
47.83701254179772
 30
0.0
 11
111.75428102651587
 21
47.83701254179772
 31
5.0
  0
LINE
  5
319
330
17
100
AcDbEntity
  8
0
100
AcDbLine
 10
89.59423201259
 20
42.99982112274925
 30
5.0
 11
83.0677553250532
 21
92.0127288307315
 31
5.0
  0
LINE
  5
31A
330
17
100
AcDbEntity
  8
0
100
AcDbLine
 10
89.59423201259
 20
42.99982112274926
 30
0.0
 11
89.59423201259
 21
42.99982112274926
 31
5.0
  0
LINE
  5
31B
330
17
100
AcDbEntity
  8
0
100
AcDbLine
 10
111.75428102651587
 20
47.01286941146674
 30
5.0
 11
111.75428102651587
 21
47.83701254179772
 31
5.0
  0
LINE
  5
31C
330
17
100
AcDbEntity
  8
0
100
AcDbLine
 10
111.75428102651587
 20
47.01286941146674
 30
0.0
 11
111.75428102651587
 21
47.01286941146674
 31
5.0
  0
LINE
  5
31D
330
17
100
AcDbEntity
  8
0
100
AcDbLine
 10
111.75428102651587
 20
47.01286941146674
 30
5.0
 11
89.59423201259
 21
42.99982112274925
 31
5.0
  0
LINE
  5
31E
330
17
100
AcDbEntity
  8
0
100
AcDbLine
 10
90.22905713959747
 20
99.90737128969481
 30
5.0
 11
90.22905713959747
 21
99.90737128969481
 31
0.0
  0
LINE
  5
31F
330
17
100
AcDbEntity
  8
0
100
AcDbLine
 10
120.03060560523812
 20
87.8898566305179
 30
5.0
 11
90.22905713959747
 21
99.90737128969481
 31
5.0
  0
LINE
  5
320
330
17
100
AcDbEntity
  8
0
100
AcDbLine
 10
120.03060560523814
 20
87.88985663051788
 30
0.0
 11
120.03060560523814
 21
87.88985663051788
 31
5.0
  0
LINE
  5
321
330
17
100
AcDbEntity
  8
0
100
AcDbLine
 10
124.91114349841442
 20
114.18615998690636
 30
5.0
 11
124.91114349841442
 21
114.18615998690636
 31
0.0
  0
LINE
  5
322
330
17
100
AcDbEntity
  8
0
100
AcDbLine
 10
90.22905713959747
 20
99.9073712896948
 30
5.0
 11
124.91114349841445
 21
114.18615998690639
 31
5.0
  0
LINE
  5
323
330
17
100
AcDbEntity
  8
0
100
AcDbLine
 10
120.03060560523815
 20
87.8898566305179
 30
5.0
 11
124.91114349841445
 21
114.1861599869064
 31
5.0
  0
LINE
  5
324
330
17
100
AcDbEntity
  8
0
100
AcDbLine
 10
124.64630880176182
 20
57.95917127430352
 30
5.0
 11
124.64630880176182
 21
57.95917127430352
 31
0.0
  0
LINE
  5
325
330
17
100
AcDbEntity
  8
0
100
AcDbLine
 10
136.84465020633561
 20
70.3271233560385
 30
5.0
 11
124.64630880176185
 21
57.95917127430356
 31
5.0
  0
LINE
  5
326
330
17
100
AcDbEntity
  8
0
100
AcDbLine
 10
136.8446502063356
 20
70.32712335603848
 30
5.0
 11
136.8446502063356
 21
70.32712335603848
 31
0.0
  0
LINE
  5
327
330
17
100
AcDbEntity
  8
0
100
AcDbLine
 10
127.63132360604305
 20
74.04240974816858
 30
5.0
 11
136.84465020633561
 21
70.32712335603847
 31
5.0
  0
LINE
  5
328
330
17
100
AcDbEntity
  8
0
100
AcDbLine
 10
127.63132360604303
 20
74.04240974816858
 30
0.0
 11
127.63132360604303
 21
74.04240974816858
 31
5.0
  0
LINE
  5
329
330
17
100
AcDbEntity
  8
0
100
AcDbLine
 10
124.64630880176185
 20
57.95917127430357
 30
5.0
 11
127.63132360604305
 21
74.04240974816858
 31
5.0
  0
LINE
  5
32A
330
17
100
AcDbEntity
  8
0
100
AcDbLine
 10
88.21695701678547
 20
109.8933266104207
 30
0.0
 11
88.21695701678547
 21
109.8933266104207
 31
5.0
  0
LINE
  5
32B
330
17
100
AcDbEntity
  8
0
100
AcDbLine
 10
88.21695701678549
 20
109.8933266104207
 30
5.0
 11
127.08431903218931
 21
125.89521426199478
 31
5.0
  0
LINE
  5
32C
330
17
100
AcDbEntity
  8
0
100
AcDbLine
 10
127.08431903218936
 20
125.89521426199477
 30
0.0
 11
127.08431903218936
 21
125.89521426199477
 31
5.0
  0
LINE
  5
32D
330
17
100
AcDbEntity
  8
0
100
AcDbLine
 10
142.34497639518563
 20
208.11952728214902
 30
5.0
 11
127.08431903218936
 21
125.89521426199472
 31
5.0
  0
LINE
  5
32E
330
17
100
AcDbEntity
  8
0
100
AcDbLine
 10
142.3449763951856
 20
208.11952728214888
 30
5.0
 11
142.3449763951856
 21
208.11952728214888
 31
0.0
  0
LINE
  5
32F
330
17
100
AcDbEntity
  8
0
100
AcDbLine
 10
135.57313307288268
 20
195.8306527078935
 30
5.0
 11
142.34497639518563
 21
208.11952728214902
 31
5.0
  0
LINE
  5
330
330
17
100
AcDbEntity
  8
0
100
AcDbLine
 10
135.57313307288268
 20
195.8306527078935
 30
2.5
 11
135.57313307288268
 21
195.8306527078935
 31
5.0
  0
LINE
  5
331
330
17
100
AcDbEntity
  8
0
100
AcDbLine
 10
130.74685447935366
 20
187.0723974628322
 30
2.5
 11
135.5731330728827
 21
195.83065270789348
 31
2.5
  0
LINE
  5
332
330
17
100
AcDbEntity
  8
0
100
AcDbLine
 10
130.74685447935366
 20
187.0723974628322
 30
2.5
 11
130.74685447935366
 21
187.0723974628322
 31
5.0
  0
LINE
  5
333
330
17
100
AcDbEntity
  8
0
100
AcDbLine
 10
88.21695701678549
 20
109.8933266104207
 30
5.0
 11
130.74685447935366
 21
187.0723974628322
 31
5.0
  0
LINE
  5
334
330
17
100
AcDbEntity
  8
0
100
AcDbLine
 10
54.96809938893215
 20
120.11071560532184
 30
0.0
 11
54.96809938893215
 21
120.11071560532184
 31
5.0
  0
LINE
  5
335
330
17
100
AcDbEntity
  8
0
100
AcDbLine
 10
-7.629608801129294
 20
200.92634725266947
 30
5.0
 11
54.96809938893216
 21
120.11071560532183
 31
5.0
  0
LINE
  5
336
330
17
100
AcDbEntity
  8
0
100
AcDbLine
 10
-7.629608801129294
 20
200.92634725266947
 30
2.5
 11
-7.629608801129294
 21
200.92634725266947
 31
5.0
  0
LINE
  5
337
330
17
100
AcDbEntity
  8
0
100
AcDbLine
 10
-13.753222437653662
 20
208.83212716552896
 30
2.5
 11
-7.629608801129292
 21
200.92634725266947
 31
2.5
  0
LINE
  5
338
330
17
100
AcDbEntity
  8
0
100
AcDbLine
 10
-13.753222437653761
 20
208.8321271655289
 30
2.5
 11
-13.753222437653761
 21
208.8321271655289
 31
5.0
  0
LINE
  5
339
330
17
100
AcDbEntity
  8
0
100
AcDbLine
 10
-26.309755010579707
 20
225.04300996814592
 30
5.0
 11
-13.753222437653761
 21
208.8321271655289
 31
5.0
  0
LINE
  5
33A
330
17
100
AcDbEntity
  8
0
100
AcDbLine
 10
-26.309755010579686
 20
225.04300996814607
 30
5.0
 11
-26.309755010579686
 21
225.04300996814607
 31
0.0
  0
LINE
  5
33B
330
17
100
AcDbEntity
  8
0
100
AcDbLine
 10
-64.21896488791045
 20
197.4907669398618
 30
5.0
 11
-64.21896488791045
 21
197.4907669398618
 31
0.0
  0
LINE
  5
33C
330
17
100
AcDbEntity
  8
0
100
AcDbLine
 10
-47.02055926562876
 20
186.3250123506453
 30
5.0
 11
-64.2189648879103
 21
197.49076693986171
 31
5.0
  0
LINE
  5
33D
330
17
100
AcDbEntity
  8
0
100
AcDbLine
 10
-47.02055926562876
 20
186.3250123506453
 30
2.5
 11
-47.02055926562876
 21
186.3250123506453
 31
5.0
  0
LINE
  5
33E
330
17
100
AcDbEntity
  8
0
100
AcDbLine
 10
-38.63318077690799
 20
180.87965817603518
 30
2.5
 11
-47.020559265628776
 21
186.3250123506453
 31
2.5
  0
LINE
  5
33F
330
17
100
AcDbEntity
  8
0
100
AcDbLine
 10
-38.63318077690799
 20
180.87965817603518
 30
2.5
 11
-38.63318077690799
 21
180.87965817603518
 31
5.0
  0
LINE
  5
340
330
17
100
AcDbEntity
  8
0
100
AcDbLine
 10
54.96809938893216
 20
120.11071560532181
 30
5.0
 11
-38.63318077690799
 21
180.87965817603518
 31
5.0
  0
ARC
  5
341
330
17
100
AcDbEntity
  8
0
100
AcDbCircle
 10
-37.35659384558369
 20
247.46994359165885
 30
5.0
 40
25.0
100
AcDbArc
 50
230.25110396021134
 51
296.22348244257813
  0
LINE
  5
342
330
17
100
AcDbEntity
  8
0
100
AcDbLine
 10
-53.34219854600876
 20
228.24858977977172
 30
5.0
 11
-53.34219854600876
 21
228.24858977977172
 31
0.0
  0
ARC
  5
343
330
17
100
AcDbEntity
  8
0
100
AcDbCircle
 10
-87.48643955217732
 20
206.6354168920305
 30
5.0
 40
25.0
100
AcDbArc
 50
-21.45596237086818
 51
28.365881827761
  0
LINE
  5
344
330
17
100
AcDbEntity
  8
0
100
AcDbLine
 10
-65.48814857836837
 20
218.5129248053781
 30
5.0
 11
-65.48814857836837
 21
218.5129248053781
 31
0.0
  0
LINE
  5
345
330
17
100
AcDbEntity
  8
0
100
AcDbLine
 10
-65.48814857836868
 20
218.5129248053779
 30
5.0
 11
-53.34219854600859
 21
228.24858977977186
 31
5.0
  0
LINE
  5
346
330
17
100
AcDbEntity
  8
0
100
AcDbLine
 10
129.49317689362258
 20
84.07406198136485
 30
5.0
 11
129.49317689362258
 21
84.07406198136485
 31
0.0
  0
LINE
  5
347
330
17
100
AcDbEntity
  8
0
100
AcDbLine
 10
144.45316257101456
 20
78.04142755680091
 30
5.0
 11
129.4931768936226
 21
84.07406198136485
 31
5.0
  0
LINE
  5
348
330
17
100
AcDbEntity
  8
0
100
AcDbLine
 10
144.45316257101456
 20
78.0414275568009
 30
0.0
 11
144.45316257101456
 21
78.0414275568009
 31
5.0
  0
LINE
  5
349
330
17
100
AcDbEntity
  8
0
100
AcDbLine
 10
129.4931768936226
 20
84.07406198136485
 30
5.0
 11
135.9233804960518
 21
118.71995312570655
 31
5.0
  0
LINE
  5
34A
330
17
100
AcDbEntity
  8
0
100
AcDbLine
 10
135.9233804960518
 20
118.71995312570655
 30
0.0
 11
135.9233804960518
 21
118.71995312570655
 31
5.0
  0
LINE
  5
34B
330
17
100
AcDbEntity
  8
0
100
AcDbLine
 10
196.45636339861056
 20
130.7677019412339
 30
5.0
 11
144.45316257101456
 21
78.0414275568009
 31
5.0
  0
LINE
  5
34C
330
17
100
AcDbEntity
  8
0
100
AcDbLine
 10
196.45636339861056
 20
130.7677019412339
 30
2.5
 11
196.45636339861056
 21
130.7677019412339
 31
5.0
  0
LINE
  5
34D
330
17
100
AcDbEntity
  8
0
100
AcDbLine
 10
203.4784437605478
 20
137.88742015128236
 30
2.5
 11
196.45636339861056
 21
130.76770194123392
 31
2.5
  0
LINE
  5
34E
330
17
100
AcDbEntity
  8
0
100
AcDbLine
 10
203.47844376054783
 20
137.88742015128233
 30
2.5
 11
203.47844376054783
 21
137.88742015128233
 31
5.0
  0
LINE
  5
34F
330
17
100
AcDbEntity
  8
0
100
AcDbLine
 10
217.8346370953479
 20
152.44322781004774
 30
5.0
 11
203.4784437605478
 21
137.88742015128233
 31
5.0
  0
LINE
  5
350
330
17
100
AcDbEntity
  8
0
100
AcDbLine
 10
217.83463709534777
 20
152.4432278100477
 30
0.0
 11
217.83463709534777
 21
152.4432278100477
 31
5.0
  0
LINE
  5
351
330
17
100
AcDbEntity
  8
0
100
AcDbLine
 10
135.9233804960518
 20
118.71995312570657
 30
5.0
 11
217.8346370953479
 21
152.44322781004774
 31
5.0
  0
LINE
  5
352
330
17
100
AcDbEntity
  8
0
100
AcDbLine
 10
-47.68036331373193
 20
-122.06411017196783
 30
5.0
 11
-50.63838461254391
 21
-112.51161782725617
 31
5.0
  0
LINE
  5
353
330
17
100
AcDbEntity
  8
0
100
AcDbLine
 10
-271.92728356781873
 20
25.036352048081376
 30
5.0
 11
-279.4337440310237
 21
31.643397629454405
 31
5.0
  0
LINE
  5
354
330
17
100
AcDbEntity
  8
0
100
AcDbLine
 10
-311.79495312290953
 20
-192.59975369988467
 30
5.0
 11
-308.8941713475459
 21
-202.16978322396233
 31
5.0
  0
LINE
  5
355
330
17
100
AcDbEntity
  8
0
100
AcDbLine
 10
-228.839715914462
 20
-282.9130897284979
 30
5.0
 11
-219.18169057754167
 21
-285.5058771458164
 31
5.0
  0
LINE
  5
356
330
17
100
AcDbEntity
  8
0
100
AcDbLine
 10
97.43611220626954
 20
-131.34928294511673
 30
5.0
 11
87.54072120982309
 21
-129.90663363657129
 31
5.0
  0
LINE
  5
357
330
17
100
AcDbEntity
  8
0
100
AcDbLine
 10
30.244221808440535
 20
-149.27097788672108
 30
5.0
 11
21.10259182135875
 21
-153.32444568347083
 31
5.0
  0
LINE
  5
358
330
17
100
AcDbEntity
  8
0
100
AcDbLine
 10
21.10259182135875
 20
-153.32444568347086
 30
2.5
 11
30.244221808440535
 21
-149.2709778867211
 31
2.5
  0
LINE
  5
359
330
17
100
AcDbEntity
  8
0
100
AcDbLine
 10
26.1907540116908
 20
-140.1293478996393
 30
2.5
 11
17.049124024609014
 21
-144.18281569638904
 31
2.5
  0
LINE
  5
35A
330
17
100
AcDbEntity
  8
0
100
AcDbLine
 10
17.04912402460904
 20
-144.18281569638904
 30
5.0
 11
26.19075401169082
 21
-140.1293478996393
 31
5.0
  0
LINE
  5
35B
330
17
100
AcDbEntity
  8
0
100
AcDbLine
 10
35.16075122940108
 20
-68.77062265305818
 30
5.0
 11
27.306738177586038
 21
-62.58075359289875
 31
5.0
  0
LINE
  5
35C
330
17
100
AcDbEntity
  8
0
100
AcDbLine
 10
23.55524031000809
 20
-60.48563937772587
 30
5.0
 11
14.165633634812615
 21
-57.04539425780715
 31
5.0
  0
LINE
  5
35D
330
17
100
AcDbEntity
  8
0
100
AcDbLine
 10
-24.89297514787267
 20
-34.83613550622397
 30
5.0
 11
-33.79388335438425
 21
-39.393967567550355
 31
5.0
  0
LINE
  5
35E
330
17
100
AcDbEntity
  8
0
100
AcDbLine
 10
-41.08589226783229
 20
-109.55359652844422
 30
5.0
 11
-38.127870969020314
 21
-119.10608887315587
 31
5.0
  0
LINE
  5
35F
330
17
100
AcDbEntity
  8
0
100
AcDbLine
 10
45.97165751943126
 20
-116.3775870301196
 30
5.0
 11
48.30427307989726
 21
-106.65344672636668
 31
5.0
  0
LINE
  5
360
330
17
100
AcDbEntity
  8
0
100
AcDbLine
 10
-38.12787096902028
 20
-119.10608887315584
 30
2.5
 11
-41.08589226783226
 21
-109.55359652844419
 31
2.5
  0
LINE
  5
361
330
17
100
AcDbEntity
  8
0
100
AcDbLine
 10
-50.63838461254389
 20
-112.51161782725617
 30
2.5
 11
-47.68036331373191
 21
-122.06411017196783
 31
2.5
  0
LINE
  5
362
330
17
100
AcDbEntity
  8
0
100
AcDbLine
 10
-221.77447799486015
 20
-295.1639024827367
 30
5.0
 11
-231.43250333178048
 21
-292.5711150654182
 31
5.0
  0
LINE
  5
363
330
17
100
AcDbEntity
  8
0
100
AcDbLine
 10
-219.1816905775417
 20
-285.5058771458164
 30
2.5
 11
-228.83971591446203
 21
-282.9130897284979
 31
2.5
  0
LINE
  5
364
330
17
100
AcDbEntity
  8
0
100
AcDbLine
 10
-231.4325033317805
 20
-292.5711150654182
 30
2.5
 11
-221.77447799486018
 21
-295.1639024827367
 31
2.5
  0
LINE
  5
365
330
17
100
AcDbEntity
  8
0
100
AcDbLine
 10
-308.8941713475459
 20
-202.16978322396236
 30
2.5
 11
-311.79495312290953
 21
-192.5997536998847
 31
2.5
  0
LINE
  5
366
330
17
100
AcDbEntity
  8
0
100
AcDbLine
 10
-321.3649826469872
 20
-195.50053547524834
 30
2.5
 11
-318.4642008716236
 21
-205.070564999326
 31
2.5
  0
LINE
  5
367
330
17
100
AcDbEntity
  8
0
100
AcDbLine
 10
-318.4642008716236
 20
-205.07056499932597
 30
5.0
 11
-321.3649826469872
 21
-195.5005354752483
 31
5.0
  0
LINE
  5
368
330
17
100
AcDbEntity
  8
0
100
AcDbLine
 10
-279.43374403102365
 20
31.64339762945437
 30
2.5
 11
-271.9272835678187
 21
25.03635204808134
 31
2.5
  0
LINE
  5
369
330
17
100
AcDbEntity
  8
0
100
AcDbLine
 10
-265.3202379864457
 20
32.542812511286286
 30
2.5
 11
-272.8266984496507
 21
39.149858092659315
 31
2.5
  0
LINE
  5
36A
330
17
100
AcDbEntity
  8
0
100
AcDbLine
 10
-272.8266984496506
 20
39.149858092659315
 30
5.0
 11
-265.32023798644565
 21
32.542812511286286
 31
5.0
  0
LINE
  5
36B
330
17
100
AcDbEntity
  8
0
100
AcDbLine
 10
-100.1994525590612
 20
42.71815456093144
 30
5.0
 11
-93.88062850082036
 21
50.46879727757093
 31
5.0
  0
LINE
  5
36C
330
17
100
AcDbEntity
  8
0
100
AcDbLine
 10
-52.46591344023889
 20
177.9376338619245
 30
5.0
 11
-47.02055926562876
 21
186.32501235064527
 31
5.0
  0
LINE
  5
36D
330
17
100
AcDbEntity
  8
0
100
AcDbLine
 10
-13.753222437653761
 20
208.8321271655289
 30
5.0
 11
-5.847442524794262
 21
214.95574080205327
 31
5.0
  0
LINE
  5
36E
330
17
100
AcDbEntity
  8
0
100
AcDbLine
 10
-5.847442524794175
 20
214.95574080205333
 30
2.5
 11
-13.753222437653676
 21
208.83212716552896
 31
2.5
  0
LINE
  5
36F
330
17
100
AcDbEntity
  8
0
100
AcDbLine
 10
-7.629608801129294
 20
200.92634725266947
 30
2.5
 11
0.27617111173020703
 21
207.04996088919384
 31
2.5
  0
LINE
  5
370
330
17
100
AcDbEntity
  8
0
100
AcDbLine
 10
0.2761711117301928
 20
207.0499608891938
 30
5.0
 11
-7.629608801129308
 21
200.92634725266944
 31
5.0
  0
LINE
  5
371
330
17
100
AcDbEntity
  8
0
100
AcDbLine
 10
241.00546381517074
 20
39.10658170754279
 30
5.0
 11
237.26557669043987
 21
29.832249155047585
 31
5.0
  0
LINE
  5
372
330
17
100
AcDbEntity
  8
0
100
AcDbLine
 10
148.3694420467058
 20
-103.61019627372451
 30
5.0
 11
142.64120881329015
 21
-111.80698491462482
 31
5.0
  0
LINE
  5
373
330
17
100
AcDbEntity
  8
0
100
AcDbLine
 10
134.4444201723898
 20
-106.07875168120916
 30
5.0
 11
140.17265340580548
 21
-97.88196304030885
 31
5.0
  0
LINE
  5
374
330
17
100
AcDbEntity
  8
0
100
AcDbLine
 10
111.49290490921484
 20
-32.30049540023855
 30
5.0
 11
101.58570420932415
 21
-30.94131392152228
 31
5.0
  0
LINE
  5
375
330
17
100
AcDbEntity
  8
0
100
AcDbLine
 10
99.43954376870961
 20
-30.93706390137058
 30
5.0
 11
89.5270376456651
 21
-32.25699661200589
 31
5.0
  0
LINE
  5
376
330
17
100
AcDbEntity
  8
0
100
AcDbLine
 10
88.20710493502985
 20
-22.344490488961412
 30
5.0
 11
98.11961105807436
 21
-21.024557778326095
 31
5.0
  0
LINE
  5
377
330
17
100
AcDbEntity
  8
0
100
AcDbLine
 10
102.94488568804047
 20
-21.0341132216316
 30
5.0
 11
112.85208638793117
 21
-22.393294700347873
 31
5.0
  0
LINE
  5
378
330
17
100
AcDbEntity
  8
0
100
AcDbLine
 10
227.99124413794465
 20
33.57213627977852
 30
5.0
 11
231.73113126267552
 21
42.84646883227372
 31
5.0
  0
LINE
  5
379
330
17
100
AcDbEntity
  8
0
100
AcDbLine
 10
203.576081608659
 20
123.74562157929665
 30
5.0
 11
196.45636339861056
 21
130.7677019412339
 31
5.0
  0
LINE
  5
37A
330
17
100
AcDbEntity
  8
0
100
AcDbLine
 10
203.47844376054783
 20
137.88742015128233
 30
5.0
 11
210.59816197059627
 21
130.8653397893451
 31
5.0
  0
LINE
  5
37B
330
17
100
AcDbEntity
  8
0
100
AcDbLine
 10
126.81487782782139
 20
200.65693130142256
 30
5.0
 11
135.57313307288265
 21
195.8306527078935
 31
5.0
  0
LINE
  5
37C
330
17
100
AcDbEntity
  8
0
100
AcDbLine
 10
130.74685447935366
 20
187.0723974628322
 30
5.0
 11
121.9885992342924
 21
191.89867605636127
 31
5.0
  0
LINE
  5
37D
330
17
100
AcDbEntity
  8
0
100
AcDbLine
 10
-38.63318077690799
 20
180.87965817603518
 30
5.0
 11
-44.078534951518115
 21
172.4922796873144
 31
5.0
  0
LINE
  5
37E
330
17
100
AcDbEntity
  8
0
100
AcDbLine
 10
-1.182751643814342
 20
26.560668903891848
 30
5.0
 11
0.5992028547103982
 21
16.720717777733373
 31
5.0
  0
LINE
  5
37F
330
17
100
AcDbEntity
  8
0
100
AcDbLine
 10
-4.129049969399247
 20
-11.000254669058066
 30
5.0
 11
-9.072076798364087
 21
-19.69315325170205
 31
5.0
  0
LINE
  5
380
330
17
100
AcDbEntity
  8
0
100
AcDbLine
 10
17.6058787547313
 20
-47.655787582611694
 30
5.0
 11
26.995485429926777
 21
-51.096032702530415
 31
5.0
  0
LINE
  5
381
330
17
100
AcDbEntity
  8
0
100
AcDbLine
 10
33.496607237745465
 20
-54.7267405410837
 30
5.0
 11
41.35062028956051
 21
-60.91660960124313
 31
5.0
  0
LINE
  5
382
330
17
100
AcDbEntity
  8
0
100
AcDbLine
 10
58.02841338365019
 20
-108.9860622868326
 30
5.0
 11
55.69579782318419
 21
-118.71020259058552
 31
5.0
  0
LINE
  5
383
330
17
100
AcDbEntity
  8
0
100
AcDbLine
 10
121.9885992342924
 20
191.89867605636124
 30
2.5
 11
130.74685447935366
 21
187.07239746283219
 31
2.5
  0
LINE
  5
384
330
17
100
AcDbEntity
  8
0
100
AcDbLine
 10
135.5731330728827
 20
195.83065270789348
 30
2.5
 11
126.81487782782145
 21
200.65693130142253
 31
2.5
  0
LINE
  5
385
330
17
100
AcDbEntity
  8
0
100
AcDbLine
 10
210.59816197059624
 20
130.86533978934511
 30
2.5
 11
203.4784437605478
 21
137.88742015128236
 31
2.5
  0
LINE
  5
386
330
17
100
AcDbEntity
  8
0
100
AcDbLine
 10
196.45636339861056
 20
130.7677019412339
 30
2.5
 11
203.576081608659
 21
123.74562157929665
 31
2.5
  0
LINE
  5
387
330
17
100
AcDbEntity
  8
0
100
AcDbLine
 10
231.73113126267555
 20
42.84646883227372
 30
2.5
 11
227.99124413794468
 21
33.57213627977852
 31
2.5
  0
LINE
  5
388
330
17
100
AcDbEntity
  8
0
100
AcDbLine
 10
237.26557669043984
 20
29.832249155047634
 30
2.5
 11
241.0054638151707
 21
39.10658170754284
 31
2.5
  0
LINE
  5
389
330
17
100
AcDbEntity
  8
0
100
AcDbLine
 10
87.5407212098231
 20
-129.9066336365713
 30
2.5
 11
97.43611220626956
 21
-131.34928294511676
 31
2.5
  0
LINE
  5
38A
330
17
100
AcDbEntity
  8
0
100
AcDbLine
 10
55.69579782318422
 20
-118.71020259058552
 30
2.5
 11
58.02841338365022
 21
-108.9860622868326
 31
2.5
  0
LINE
  5
38B
330
17
100
AcDbEntity
  8
0
100
AcDbLine
 10
48.304273079897285
 20
-106.65344672636661
 30
2.5
 11
45.97165751943129
 21
-116.37758703011953
 31
2.5
  0
LINE
  5
38C
330
17
100
AcDbEntity
  8
0
100
AcDbLine
 10
-38.35171541571068
 20
-30.493059361038775
 30
5.0
 11
-29.45080720919909
 21
-25.935227299712395
 31
5.0
  0
LINE
  5
38D
330
17
100
AcDbEntity
  8
0
100
AcDbLine
 10
-17.76497538100807
 20
-14.750126422737194
 30
5.0
 11
-12.821948552043235
 21
-6.057227840093207
 31
5.0
  0
LINE
  5
38E
330
17
100
AcDbEntity
  8
0
100
AcDbLine
 10
-9.240748271448098
 20
14.93876327920865
 30
5.0
 11
-11.022702769972838
 21
24.778714405367126
 31
5.0
  0
LINE
  5
38F
330
17
100
AcDbEntity
  8
0
100
AcDbLine
 10
-86.12998578418089
 20
44.149973219330086
 30
5.0
 11
-92.44880984242172
 21
36.399330502690596
 31
5.0
  0
LINE
  5
390
330
17
100
AcDbEntity
  8
0
100
AcDbLine
 10
-92.44880984242171
 20
36.3993305026906
 30
2.5
 11
-86.12998578418087
 21
44.14997321933009
 31
2.5
  0
LINE
  5
391
330
17
100
AcDbEntity
  8
0
100
AcDbLine
 10
-93.88062850082036
 20
50.468797277570914
 30
2.5
 11
-100.1994525590612
 21
42.718154560931424
 31
2.5
  0
LINE
  5
392
330
17
100
AcDbEntity
  8
0
100
AcDbLine
 10
-33.793883354384256
 20
-39.393967567550355
 30
2.5
 11
-24.892975147872672
 21
-34.83613550622397
 31
2.5
  0
LINE
  5
393
330
17
100
AcDbEntity
  8
0
100
AcDbLine
 10
-29.450807209199056
 20
-25.93522729971238
 30
2.5
 11
-38.35171541571064
 21
-30.493059361038767
 31
2.5
  0
LINE
  5
394
330
17
100
AcDbEntity
  8
0
100
AcDbLine
 10
41.350620289560496
 20
-60.916609601243124
 30
2.5
 11
33.49660723774545
 21
-54.72674054108369
 31
2.5
  0
LINE
  5
395
330
17
100
AcDbEntity
  8
0
100
AcDbLine
 10
27.30673817758604
 20
-62.580753592898745
 30
2.5
 11
35.160751229401086
 21
-68.77062265305817
 31
2.5
  0
LINE
  5
396
330
17
100
AcDbEntity
  8
0
100
AcDbLine
 10
14.165633634812586
 20
-57.04539425780716
 30
2.5
 11
23.555240310008063
 21
-60.48563937772588
 31
2.5
  0
LINE
  5
397
330
17
100
AcDbEntity
  8
0
100
AcDbLine
 10
26.99548542992678
 20
-51.096032702530394
 30
2.5
 11
17.605878754731304
 21
-47.65578758261167
 31
2.5
  0
LINE
  5
398
330
17
100
AcDbEntity
  8
0
100
AcDbLine
 10
-9.07207679836408
 20
-19.693153251702057
 30
2.5
 11
-4.12904996939924
 21
-11.000254669058071
 31
2.5
  0
LINE
  5
399
330
17
100
AcDbEntity
  8
0
100
AcDbLine
 10
-12.821948552043239
 20
-6.057227840093233
 30
2.5
 11
-17.764975381008078
 21
-14.75012642273722
 31
2.5
  0
LINE
  5
39A
330
17
100
AcDbEntity
  8
0
100
AcDbLine
 10
89.52703764566516
 20
-32.25699661200592
 30
2.5
 11
99.43954376870967
 21
-30.937063901370603
 31
2.5
  0
LINE
  5
39B
330
17
100
AcDbEntity
  8
0
100
AcDbLine
 10
98.11961105807436
 20
-21.024557778326084
 30
2.5
 11
88.20710493502985
 21
-22.3444904889614
 31
2.5
  0
LINE
  5
39C
330
17
100
AcDbEntity
  8
0
100
AcDbLine
 10
101.58570420932419
 20
-30.941313921522294
 30
2.5
 11
111.49290490921489
 21
-32.30049540023857
 31
2.5
  0
LINE
  5
39D
330
17
100
AcDbEntity
  8
0
100
AcDbLine
 10
112.85208638793117
 20
-22.393294700347866
 30
2.5
 11
102.94488568804047
 21
-21.034113221631593
 31
2.5
  0
LINE
  5
39E
330
17
100
AcDbEntity
  8
0
100
AcDbLine
 10
142.64120881329015
 20
-111.80698491462482
 30
2.5
 11
148.3694420467058
 21
-103.61019627372451
 31
2.5
  0
LINE
  5
39F
330
17
100
AcDbEntity
  8
0
100
AcDbLine
 10
140.1726534058055
 20
-97.88196304030886
 30
2.5
 11
134.44442017238984
 21
-106.07875168120917
 31
2.5
  0
LINE
  5
3A0
330
17
100
AcDbEntity
  8
0
100
AcDbLine
 10
-11.022702769972824
 20
24.778714405367108
 30
2.5
 11
-9.240748271448084
 21
14.938763279208633
 31
2.5
  0
LINE
  5
3A1
330
17
100
AcDbEntity
  8
0
100
AcDbLine
 10
0.5992028547103843
 20
16.720717777733373
 30
2.5
 11
-1.182751643814356
 21
26.560668903891848
 31
2.5
  0
LINE
  5
3A2
330
17
100
AcDbEntity
  8
0
100
AcDbLine
 10
-47.02055926562876
 20
186.3250123506453
 30
2.5
 11
-52.465913440238886
 21
177.93763386192452
 31
2.5
  0
LINE
  5
3A3
330
17
100
AcDbEntity
  8
0
100
AcDbLine
 10
-44.07853495151811
 20
172.4922796873144
 30
2.5
 11
-38.633180776907984
 21
180.87965817603518
 31
2.5
  0
ENDSEC
  0
SECTION
  2
OBJECTS
  0
DICTIONARY
  5
A
330
0
100
AcDbDictionary
280
0
281
1
  3
ACAD_COLOR
350
B
  3
ACAD_GROUP
350
C
  3
ACAD_LAYOUT
350
D
  3
ACAD_MATERIAL
350
E
  3
ACAD_MLEADERSTYLE
350
F
  3
ACAD_MLINESTYLE
350
10
  3
ACAD_PLOTSETTINGS
350
11
  3
ACAD_PLOTSTYLENAME
350
12
  3
ACAD_SCALELIST
350
14
  3
ACAD_TABLESTYLE
350
15
  3
ACAD_VISUALSTYLE
350
16
  3
EZDXF_META
350
2D
  0
DICTIONARY
  5
B
330
A
100
AcDbDictionary
280
0
281
1
  0
DICTIONARY
  5
C
330
A
100
AcDbDictionary
280
0
281
1
  0
DICTIONARY
  5
D
330
A
100
AcDbDictionary
280
0
281
1
  3
Model
350
1A
  3
Layout1
350
1E
  0
DICTIONARY
  5
E
330
A
100
AcDbDictionary
280
0
281
1
  3
ByBlock
350
1F
  3
ByLayer
350
20
  3
Global
350
21
  0
DICTIONARY
  5
F
330
A
100
AcDbDictionary
280
0
281
1
  3
Standard
350
2C
  0
DICTIONARY
  5
10
330
A
100
AcDbDictionary
280
0
281
1
  3
Standard
350
22
  0
DICTIONARY
  5
11
330
A
100
AcDbDictionary
280
0
281
1
  0
ACDBDICTIONARYWDFLT
  5
12
330
A
100
AcDbDictionary
280
0
281
1
  3
Normal
350
13
100
AcDbDictionaryWithDefault
340
13
  0
ACDBPLACEHOLDER
  5
13
330
12
  0
DICTIONARY
  5
14
330
A
100
AcDbDictionary
280
0
281
1
  0
DICTIONARY
  5
15
330
A
100
AcDbDictionary
280
0
281
1
  0
DICTIONARY
  5
16
330
A
100
AcDbDictionary
280
0
281
1
  0
LAYOUT
  5
1A
330
D
100
AcDbPlotSettings
  1

  2
Adobe PDF
  4
A3
  6

 40
7.5
 41
20.0
 42
7.5
 43
20.0
 44
420.0
 45
297.0
 46
0.0
 47
0.0
 48
0.0
 49
0.0
140
0.0
141
0.0
142
1.0
143
1.0
 70
1024
 72
1
 73
0
 74
5
  7

 75
16
 76
0
 77
2
 78
300
147
1.0
148
0.0
149
0.0
100
AcDbLayout
  1
Model
 70
1
 71
0
 10
0.0
 20
0.0
 11
420.0
 21
297.0
 12
0.0
 22
0.0
 32
0.0
 14
1e+20
 24
1e+20
 34
1e+20
 15
-1e+20
 25
-1e+20
 35
-1e+20
146
0.0
 13
0.0
 23
0.0
 33
0.0
 16
1.0
 26
0.0
 36
0.0
 17
0.0
 27
1.0
 37
0.0
 76
1
330
17
  0
LAYOUT
  5
1E
330
D
100
AcDbPlotSettings
  1

  2
Adobe PDF
  4
A3
  6

 40
7.5
 41
20.0
 42
7.5
 43
20.0
 44
420.0
 45
297.0
 46
0.0
 47
0.0
 48
0.0
 49
0.0
140
0.0
141
0.0
142
1.0
143
1.0
 70
0
 72
1
 73
0
 74
5
  7

 75
16
 76
0
 77
2
 78
300
147
1.0
148
0.0
149
0.0
100
AcDbLayout
  1
Layout1
 70
1
 71
1
 10
0.0
 20
0.0
 11
420.0
 21
297.0
 12
0.0
 22
0.0
 32
0.0
 14
1e+20
 24
1e+20
 34
1e+20
 15
-1e+20
 25
-1e+20
 35
-1e+20
146
0.0
 13
0.0
 23
0.0
 33
0.0
 16
1.0
 26
0.0
 36
0.0
 17
0.0
 27
1.0
 37
0.0
 76
1
330
1B
  0
MATERIAL
  5
1F
102
{ACAD_REACTORS
330
E
102
}
330
E
100
AcDbMaterial
  1
ByBlock
  2

 70
0
 40
1.0
 71
1
 41
1.0
 91
-1023410177
 42
1.0
 72
1
  3

 73
1
 74
1
 75
1
 44
0.5
 73
0
 45
1.0
 46
1.0
 77
1
  4

 78
1
 79
1
170
1
 48
1.0
171
1
  6

172
1
173
1
174
1
140
1.0
141
1.0
175
1
  7

176
1
177
1
178
1
143
1.0
179
1
  8

270
1
271
1
272
1
145
1.0
146
1.0
273
1
  9

274
1
275
1
276
1
 42
1.0
 72
1
  3

 73
1
 74
1
 75
1
 94
63
  0
MATERIAL
  5
20
102
{ACAD_REACTORS
330
E
102
}
330
E
100
AcDbMaterial
  1
ByLayer
  2

 70
0
 40
1.0
 71
1
 41
1.0
 91
-1023410177
 42
1.0
 72
1
  3

 73
1
 74
1
 75
1
 44
0.5
 73
0
 45
1.0
 46
1.0
 77
1
  4

 78
1
 79
1
170
1
 48
1.0
171
1
  6

172
1
173
1
174
1
140
1.0
141
1.0
175
1
  7

176
1
177
1
178
1
143
1.0
179
1
  8

270
1
271
1
272
1
145
1.0
146
1.0
273
1
  9

274
1
275
1
276
1
 42
1.0
 72
1
  3

 73
1
 74
1
 75
1
 94
63
  0
MATERIAL
  5
21
102
{ACAD_REACTORS
330
E
102
}
330
E
100
AcDbMaterial
  1
Global
  2

 70
0
 40
1.0
 71
1
 41
1.0
 91
-1023410177
 42
1.0
 72
1
  3

 73
1
 74
1
 75
1
 44
0.5
 73
0
 45
1.0
 46
1.0
 77
1
  4

 78
1
 79
1
170
1
 48
1.0
171
1
  6

172
1
173
1
174
1
140
1.0
141
1.0
175
1
  7

176
1
177
1
178
1
143
1.0
179
1
  8

270
1
271
1
272
1
145
1.0
146
1.0
273
1
  9

274
1
275
1
276
1
 42
1.0
 72
1
  3

 73
1
 74
1
 75
1
 94
63
  0
MLINESTYLE
  5
22
102
{ACAD_REACTORS
330
10
102
}
330
10
100
AcDbMlineStyle
  2
Standard
 70
0
  3

 62
256
 51
90.0
 52
90.0
 71
2
 49
0.5
 62
256
  6
BYLAYER
 49
-0.5
 62
256
  6
BYLAYER
  0
MLEADERSTYLE
  5
2C
102
{ACAD_REACTORS
330
F
102
}
330
F
100
AcDbMLeaderStyle
179
2
170
2
171
1
172
0
 90
2
 40
0.0
 41
0.0
173
1
 91
-1056964608
 92
-2
290
1
 42
2.0
291
1
 43
8.0
  3
Standard
 44
4.0
300

342
29
174
1
175
1
176
0
178
1
 93
-1056964608
 45
4.0
292
0
297
0
 46
4.0
 94
-1056964608
 47
1.0
 49
1.0
140
1.0
294
1
141
0.0
177
0
142
1.0
295
0
296
0
143
3.75
271
0
272
9
273
9
  0
DICTIONARY
  5
2D
330
A
100
AcDbDictionary
281
1
  3
CREATED_BY_EZDXF
350
2E
  3
WRITTEN_BY_EZDXF
350
3A6
  0
DICTIONARYVAR
  5
2E
330
2D
100
DictionaryVariables
280
0
  1
1.0.2 @ 2023-03-28T19:25:40.407959+00:00
  0
DICTIONARYVAR
  5
3A6
330
2D
100
DictionaryVariables
280
0
  1
1.0.2 @ 2023-03-28T19:25:40.466548+00:00
  0
ENDSEC
  0
EOF
