  0
SECTION
  2
HEADER
  9
$ACADVER
  1
AC1027
  9
$ACADMAINTVER
 70
105
  9
$DWGCODEPAGE
  3
ANSI_1252
  9
$LASTSAVEDBY
  1
ezdxf
  9
$REQUIREDVERSIONS
160
0
  9
$INSBASE
 10
0.0
 20
0.0
 30
0.0
  9
$EXTMIN
 10
1e+20
 20
1e+20
 30
1e+20
  9
$EXTMAX
 10
-1e+20
 20
-1e+20
 30
-1e+20
  9
$LIMMIN
 10
0.0
 20
0.0
  9
$LIMMAX
 10
420.0
 20
297.0
  9
$ORTHOMODE
 70
0
  9
$REGENMODE
 70
1
  9
$FILLMODE
 70
1
  9
$QTEXTMODE
 70
0
  9
$MIRRTEXT
 70
1
  9
$LTSCALE
 40
1.0
  9
$ATTMODE
 70
1
  9
$TEXTSIZE
 40
2.5
  9
$TRACEWID
 40
1.0
  9
$TEXTSTYLE
  7
Standard
  9
$CLAYER
  8
0
  9
$CELTYPE
  6
ByLayer
  9
$CECOLOR
 62
256
  9
$CELTSCALE
 40
1.0
  9
$DISPSILH
 70
0
  9
$DIMSCALE
 40
1.0
  9
$DIMASZ
 40
2.5
  9
$DIMEXO
 40
0.625
  9
$DIMDLI
 40
3.75
  9
$DIMRND
 40
0.0
  9
$DIMDLE
 40
0.0
  9
$DIMEXE
 40
1.25
  9
$DIMTP
 40
0.0
  9
$DIMTM
 40
0.0
  9
$DIMTXT
 40
2.5
  9
$DIMCEN
 40
2.5
  9
$DIMTSZ
 40
0.0
  9
$DIMTOL
 70
0
  9
$DIMLIM
 70
0
  9
$DIMTIH
 70
0
  9
$DIMTOH
 70
0
  9
$DIMSE1
 70
0
  9
$DIMSE2
 70
0
  9
$DIMTAD
 70
1
  9
$DIMZIN
 70
8
  9
$DIMBLK
  1

  9
$DIMASO
 70
1
  9
$DIMSHO
 70
1
  9
$DIMPOST
  1

  9
$DIMAPOST
  1

  9
$DIMALT
 70
0
  9
$DIMALTD
 70
3
  9
$DIMALTF
 40
0.03937007874
  9
$DIMLFAC
 40
1.0
  9
$DIMTOFL
 70
1
  9
$DIMTVP
 40
0.0
  9
$DIMTIX
 70
0
  9
$DIMSOXD
 70
0
  9
$DIMSAH
 70
0
  9
$DIMBLK1
  1

  9
$DIMBLK2
  1

  9
$DIMSTYLE
  2
ISO-25
  9
$DIMCLRD
 70
0
  9
$DIMCLRE
 70
0
  9
$DIMCLRT
 70
0
  9
$DIMTFAC
 40
1.0
  9
$DIMGAP
 40
0.625
  9
$DIMJUST
 70
0
  9
$DIMSD1
 70
0
  9
$DIMSD2
 70
0
  9
$DIMTOLJ
 70
0
  9
$DIMTZIN
 70
8
  9
$DIMALTZ
 70
0
  9
$DIMALTTZ
 70
0
  9
$DIMUPT
 70
0
  9
$DIMDEC
 70
2
  9
$DIMTDEC
 70
2
  9
$DIMALTU
 70
2
  9
$DIMALTTD
 70
3
  9
$DIMTXSTY
  7
Standard
  9
$DIMAUNIT
 70
0
  9
$DIMADEC
 70
0
  9
$DIMALTRND
 40
0.0
  9
$DIMAZIN
 70
0
  9
$DIMDSEP
 70
44
  9
$DIMATFIT
 70
3
  9
$DIMFRAC
 70
0
  9
$DIMLDRBLK
  1

  9
$DIMLUNIT
 70
2
  9
$DIMLWD
 70
-2
  9
$DIMLWE
 70
-2
  9
$DIMTMOVE
 70
0
  9
$DIMFXL
 40
1.0
  9
$DIMFXLON
 70
0
  9
$DIMJOGANG
 40
0.785398163397
  9
$DIMTFILL
 70
0
  9
$DIMTFILLCLR
 70
0
  9
$DIMARCSYM
 70
0
  9
$DIMLTYPE
  6

  9
$DIMLTEX1
  6

  9
$DIMLTEX2
  6

  9
$DIMTXTDIRECTION
 70
0
  9
$LUNITS
 70
2
  9
$LUPREC
 70
4
  9
$SKETCHINC
 40
1.0
  9
$FILLETRAD
 40
10.0
  9
$AUNITS
 70
0
  9
$AUPREC
 70
2
  9
$MENU
  1
.
  9
$ELEVATION
 40
0.0
  9
$PELEVATION
 40
0.0
  9
$THICKNESS
 40
0.0
  9
$LIMCHECK
 70
0
  9
$CHAMFERA
 40
0.0
  9
$CHAMFERB
 40
0.0
  9
$CHAMFERC
 40
0.0
  9
$CHAMFERD
 40
0.0
  9
$SKPOLY
 70
0
  9
$TDCREATE
 40
2460032.6430092594
  9
$TDUCREATE
 40
2458532.153996898
  9
$TDUPDATE
 40
2460032.6430092594
  9
$TDUUPDATE
 40
2458532.1544311
  9
$TDINDWG
 40
0.0
  9
$TDUSRTIMER
 40
0.0
  9
$USRTIMER
 70
1
  9
$ANGBASE
 50
0.0
  9
$ANGDIR
 70
0
  9
$PDMODE
 70
0
  9
$PDSIZE
 40
0.0
  9
$PLINEWID
 40
0.0
  9
$SPLFRAME
 70
0
  9
$SPLINETYPE
 70
6
  9
$SPLINESEGS
 70
8
  9
$HANDSEED
  5
3BC
  9
$SURFTAB1
 70
6
  9
$SURFTAB2
 70
6
  9
$SURFTYPE
 70
6
  9
$SURFU
 70
6
  9
$SURFV
 70
6
  9
$UCSBASE
  2

  9
$UCSNAME
  2

  9
$UCSORG
 10
0.0
 20
0.0
 30
0.0
  9
$UCSXDIR
 10
1.0
 20
0.0
 30
0.0
  9
$UCSYDIR
 10
0.0
 20
1.0
 30
0.0
  9
$UCSORTHOREF
  2

  9
$UCSORTHOVIEW
 70
0
  9
$UCSORGTOP
 10
0.0
 20
0.0
 30
0.0
  9
$UCSORGBOTTOM
 10
0.0
 20
0.0
 30
0.0
  9
$UCSORGLEFT
 10
0.0
 20
0.0
 30
0.0
  9
$UCSORGRIGHT
 10
0.0
 20
0.0
 30
0.0
  9
$UCSORGFRONT
 10
0.0
 20
0.0
 30
0.0
  9
$UCSORGBACK
 10
0.0
 20
0.0
 30
0.0
  9
$PUCSBASE
  2

  9
$PUCSNAME
  2

  9
$PUCSORG
 10
0.0
 20
0.0
 30
0.0
  9
$PUCSXDIR
 10
1.0
 20
0.0
 30
0.0
  9
$PUCSYDIR
 10
0.0
 20
1.0
 30
0.0
  9
$PUCSORTHOREF
  2

  9
$PUCSORTHOVIEW
 70
0
  9
$PUCSORGTOP
 10
0.0
 20
0.0
 30
0.0
  9
$PUCSORGBOTTOM
 10
0.0
 20
0.0
 30
0.0
  9
$PUCSORGLEFT
 10
0.0
 20
0.0
 30
0.0
  9
$PUCSORGRIGHT
 10
0.0
 20
0.0
 30
0.0
  9
$PUCSORGFRONT
 10
0.0
 20
0.0
 30
0.0
  9
$PUCSORGBACK
 10
0.0
 20
0.0
 30
0.0
  9
$USERI1
 70
0
  9
$USERI2
 70
0
  9
$USERI3
 70
0
  9
$USERI4
 70
0
  9
$USERI5
 70
0
  9
$USERR1
 40
0.0
  9
$USERR2
 40
0.0
  9
$USERR3
 40
0.0
  9
$USERR4
 40
0.0
  9
$USERR5
 40
0.0
  9
$WORLDVIEW
 70
1
  9
$SHADEDGE
 70
3
  9
$SHADEDIF
 70
70
  9
$TILEMODE
 70
1
  9
$MAXACTVP
 70
64
  9
$PINSBASE
 10
0.0
 20
0.0
 30
0.0
  9
$PLIMCHECK
 70
0
  9
$PEXTMIN
 10
1e+20
 20
1e+20
 30
1e+20
  9
$PEXTMAX
 10
-1e+20
 20
-1e+20
 30
-1e+20
  9
$PLIMMIN
 10
0.0
 20
0.0
  9
$PLIMMAX
 10
420.0
 20
297.0
  9
$UNITMODE
 70
0
  9
$VISRETAIN
 70
1
  9
$PLINEGEN
 70
0
  9
$PSLTSCALE
 70
1
  9
$TREEDEPTH
 70
3020
  9
$CMLSTYLE
  2
Standard
  9
$CMLJUST
 70
0
  9
$CMLSCALE
 40
20.0
  9
$PROXYGRAPHICS
 70
1
  9
$MEASUREMENT
 70
1
  9
$CELWEIGHT
370
-1
  9
$ENDCAPS
280
0
  9
$JOINSTYLE
280
0
  9
$LWDISPLAY
290
0
  9
$INSUNITS
 70
6
  9
$HYPERLINKBASE
  1

  9
$STYLESHEET
  1

  9
$XEDIT
290
1
  9
$CEPSNTYPE
380
0
  9
$PSTYLEMODE
290
1
  9
$FINGERPRINTGUID
  2
{11C7FD8D-A1F1-4774-AAC5-7003C2DEEA68}
  9
$VERSIONGUID
  2
{ABDE2AB6-4B2D-489B-B4CA-84D743FCF186}
  9
$EXTNAMES
290
1
  9
$PSVPSCALE
 40
0.0
  9
$OLESTARTUP
290
0
  9
$SORTENTS
280
127
  9
$INDEXCTL
280
0
  9
$HIDETEXT
280
1
  9
$XCLIPFRAME
280
0
  9
$HALOGAP
280
0
  9
$OBSCOLOR
 70
257
  9
$OBSLTYPE
280
0
  9
$INTERSECTIONDISPLAY
280
0
  9
$INTERSECTIONCOLOR
 70
257
  9
$DIMASSOC
280
2
  9
$PROJECTNAME
  1

  9
$CAMERADISPLAY
290
0
  9
$LENSLENGTH
 40
50.0
  9
$CAMERAHEIGHT
 40
0.0
  9
$STEPSPERSEC
 40
24.0
  9
$STEPSIZE
 40
100.0
  9
$3DDWFPREC
 40
2.0
  9
$PSOLWIDTH
 40
0.005
  9
$PSOLHEIGHT
 40
0.08
  9
$LOFTANG1
 40
1.570796326795
  9
$LOFTANG2
 40
1.570796326795
  9
$LOFTMAG1
 40
0.0
  9
$LOFTMAG2
 40
0.0
  9
$LOFTPARAM
 70
7
  9
$LOFTNORMALS
280
1
  9
$LATITUDE
 40
37.795
  9
$LONGITUDE
 40
-122.394
  9
$NORTHDIRECTION
 40
0.0
  9
$TIMEZONE
 70
-8000
  9
$LIGHTGLYPHDISPLAY
280
1
  9
$TILEMODELIGHTSYNCH
280
1
  9
$CMATERIAL
347
20
  9
$SOLIDHIST
280
0
  9
$SHOWHIST
280
1
  9
$DWFFRAME
280
2
  9
$DGNFRAME
280
2
  9
$REALWORLDSCALE
290
1
  9
$INTERFERECOLOR
 62
256
  9
$CSHADOW
280
0
  9
$SHADOWPLANELOCATION
 40
0.0
  0
ENDSEC
  0
SECTION
  2
CLASSES
  0
CLASS
  1
ACDBDICTIONARYWDFLT
  2
AcDbDictionaryWithDefault
  3
ObjectDBX Classes
 90
0
 91
0
280
0
281
0
  0
CLASS
  1
SUN
  2
AcDbSun
  3
SCENEOE
 90
1153
 91
0
280
0
281
0
  0
CLASS
  1
VISUALSTYLE
  2
AcDbVisualStyle
  3
ObjectDBX Classes
 90
4095
 91
0
280
0
281
0
  0
CLASS
  1
MATERIAL
  2
AcDbMaterial
  3
ObjectDBX Classes
 90
1153
 91
0
280
0
281
0
  0
CLASS
  1
SCALE
  2
AcDbScale
  3
ObjectDBX Classes
 90
1153
 91
0
280
0
281
0
  0
CLASS
  1
TABLESTYLE
  2
AcDbTableStyle
  3
ObjectDBX Classes
 90
4095
 91
0
280
0
281
0
  0
CLASS
  1
MLEADERSTYLE
  2
AcDbMLeaderStyle
  3
ACDB_MLEADERSTYLE_CLASS
 90
4095
 91
0
280
0
281
0
  0
CLASS
  1
DICTIONARYVAR
  2
AcDbDictionaryVar
  3
ObjectDBX Classes
 90
0
 91
0
280
0
281
0
  0
CLASS
  1
CELLSTYLEMAP
  2
AcDbCellStyleMap
  3
ObjectDBX Classes
 90
1152
 91
0
280
0
281
0
  0
CLASS
  1
MENTALRAYRENDERSETTINGS
  2
AcDbMentalRayRenderSettings
  3
SCENEOE
 90
1024
 91
0
280
0
281
0
  0
CLASS
  1
ACDBDETAILVIEWSTYLE
  2
AcDbDetailViewStyle
  3
ObjectDBX Classes
 90
1025
 91
0
280
0
281
0
  0
CLASS
  1
ACDBSECTIONVIEWSTYLE
  2
AcDbSectionViewStyle
  3
ObjectDBX Classes
 90
1025
 91
0
280
0
281
0
  0
CLASS
  1
RASTERVARIABLES
  2
AcDbRasterVariables
  3
ISM
 90
0
 91
0
280
0
281
0
  0
CLASS
  1
LAYOUT
  2
AcDbLayout
  3
ObjectDBX Classes
 90
0
 91
0
280
0
281
0
  0
CLASS
  1
ACDBPLACEHOLDER
  2
AcDbPlaceHolder
  3
ObjectDBX Classes
 90
0
 91
0
280
0
281
0
  0
ENDSEC
  0
SECTION
  2
TABLES
  0
TABLE
  2
VPORT
  5
8
330
0
100
AcDbSymbolTable
 70
1
  0
VPORT
  5
23
330
8
100
AcDbSymbolTableRecord
100
AcDbViewportTableRecord
  2
*Active
 70
0
 10
0.0
 20
0.0
 11
1.0
 21
1.0
 12
0.0
 22
0.0
 13
0.0
 23
0.0
 14
0.5
 24
0.5
 15
0.5
 25
0.5
 16
0.0
 26
0.0
 36
1.0
 17
0.0
 27
0.0
 37
0.0
 40
1000.0
 41
1.34
 42
50.0
 43
0.0
 44
0.0
 50
0.0
 51
0.0
 71
0
 72
1000
 73
1
 74
3
 75
0
 76
0
 77
0
 78
0
281
0
 65
0
146
0.0
  0
ENDTAB
  0
TABLE
  2
LTYPE
  5
2
330
0
100
AcDbSymbolTable
 70
3
  0
LTYPE
  5
24
330
2
100
AcDbSymbolTableRecord
100
AcDbLinetypeTableRecord
  2
ByBlock
 70
0
  3

 72
65
 73
0
 40
0.0
  0
LTYPE
  5
25
330
2
100
AcDbSymbolTableRecord
100
AcDbLinetypeTableRecord
  2
ByLayer
 70
0
  3

 72
65
 73
0
 40
0.0
  0
LTYPE
  5
26
330
2
100
AcDbSymbolTableRecord
100
AcDbLinetypeTableRecord
  2
Continuous
 70
0
  3

 72
65
 73
0
 40
0.0
  0
ENDTAB
  0
TABLE
  2
LAYER
  5
1
330
0
100
AcDbSymbolTable
 70
2
  0
LAYER
  5
27
330
1
100
AcDbSymbolTableRecord
100
AcDbLayerTableRecord
  2
0
 70
0
 62
7
  6
Continuous
370
-3
390
13
347
21
  0
LAYER
  5
28
330
1
100
AcDbSymbolTableRecord
100
AcDbLayerTableRecord
  2
Defpoints
 70
0
 62
7
  6
Continuous
290
0
370
-3
390
13
347
21
  0
ENDTAB
  0
TABLE
  2
STYLE
  5
5
330
0
100
AcDbSymbolTable
 70
1
  0
STYLE
  5
29
330
5
100
AcDbSymbolTableRecord
100
AcDbTextStyleTableRecord
  2
Standard
 70
0
 40
0.0
 41
1.0
 50
0.0
 71
0
 42
2.5
  3
txt
  4

  0
ENDTAB
  0
TABLE
  2
VIEW
  5
7
330
0
100
AcDbSymbolTable
 70
0
  0
ENDTAB
  0
TABLE
  2
UCS
  5
6
330
0
100
AcDbSymbolTable
 70
0
  0
ENDTAB
  0
TABLE
  2
APPID
  5
3
330
0
100
AcDbSymbolTable
 70
3
  0
APPID
  5
2A
330
3
100
AcDbSymbolTableRecord
100
AcDbRegAppTableRecord
  2
ACAD
 70
0
  0
APPID
  5
3B9
330
3
100
AcDbSymbolTableRecord
100
AcDbRegAppTableRecord
  2
HATCHBACKGROUNDCOLOR
 70
0
  0
APPID
  5
3BA
330
3
100
AcDbSymbolTableRecord
100
AcDbRegAppTableRecord
  2
EZDXF
 70
0
  0
ENDTAB
  0
TABLE
  2
DIMSTYLE
  5
4
330
0
100
AcDbSymbolTable
 70
1
100
AcDbDimStyleTable
  0
DIMSTYLE
105
2B
330
4
100
AcDbSymbolTableRecord
100
AcDbDimStyleTableRecord
  2
Standard
 70
0
 40
1.0
 41
2.5
 42
0.625
 43
3.75
 44
1.25
 45
0.0
 46
0.0
 47
0.0
 48
0.0
 49
2.5
140
2.5
141
2.5
142
0.0
143
0.03937007874
144
1.0
145
0.0
146
1.0
147
0.625
148
0.0
 69
0
 70
0
 71
0
 72
0
 73
0
 74
0
 75
0
 76
0
 77
1
 78
8
 79
3
170
0
171
3
172
1
173
0
174
0
175
0
176
0
177
0
178
0
179
2
271
2
272
2
273
2
274
3
275
0
276
0
277
2
278
44
279
0
280
0
281
0
282
0
283
0
284
8
285
0
286
0
288
0
289
3
290
0
371
-2
372
-2
  0
ENDTAB
  0
TABLE
  2
BLOCK_RECORD
  5
9
330
0
100
AcDbSymbolTable
 70
2
  0
BLOCK_RECORD
  5
17
330
9
100
AcDbSymbolTableRecord
100
AcDbBlockTableRecord
  2
*Model_Space
340
1A
 70
0
280
1
281
0
  0
BLOCK_RECORD
  5
1B
330
9
100
AcDbSymbolTableRecord
100
AcDbBlockTableRecord
  2
*Paper_Space
340
1E
 70
0
280
1
281
0
  0
ENDTAB
  0
ENDSEC
  0
SECTION
  2
BLOCKS
  0
BLOCK
  5
18
330
17
100
AcDbEntity
  8
0
100
AcDbBlockBegin
  2
*Model_Space
 70
0
 10
0.0
 20
0.0
 30
0.0
  3
*Model_Space
  1

  0
ENDBLK
  5
19
330
17
100
AcDbEntity
  8
0
100
AcDbBlockEnd
  0
BLOCK
  5
1C
330
1B
100
AcDbEntity
  8
0
100
AcDbBlockBegin
  2
*Paper_Space
 70
0
 10
0.0
 20
0.0
 30
0.0
  3
*Paper_Space
  1

  0
ENDBLK
  5
1D
330
1B
100
AcDbEntity
  8
0
100
AcDbBlockEnd
  0
ENDSEC
  0
SECTION
  2
ENTITIES
  0
LINE
  5
2F
330
17
100
AcDbEntity
  8
0
100
AcDbLine
 10
-188.50330231096524
 20
126.56542050984625
 30
0.0
 11
-186.39345749267537
 21
126.56542050984625
 31
0.0
  0
LINE
  5
30
330
17
100
AcDbEntity
  8
0
100
AcDbLine
 10
-188.50330231096524
 20
116.56542050984625
 30
0.0
 11
-188.50330231096524
 21
126.56542050984625
 31
0.0
  0
LINE
  5
31
330
17
100
AcDbEntity
  8
0
100
AcDbLine
 10
-188.50330231096524
 20
116.56542050984625
 30
0.0
 11
-186.04755217336913
 21
116.56542050984625
 31
0.0
  0
LINE
  5
32
330
17
100
AcDbEntity
  8
0
100
AcDbLine
 10
-186.04755217336913
 20
116.56542050984625
 30
0.0
 11
-143.96387410129665
 21
58.77269068424001
 31
0.0
  0
LINE
  5
33
330
17
100
AcDbEntity
  8
0
100
AcDbLine
 10
-256.98227629097573
 20
-3.9811146048376505
 30
0.0
 11
-143.96387410129665
 21
58.77269068423999
 31
0.0
  0
LINE
  5
34
330
17
100
AcDbEntity
  8
0
100
AcDbLine
 10
-260.6872630448028
 20
-3.9811146048376607
 30
0.0
 11
-256.98227629097573
 21
-3.9811146048376607
 31
0.0
  0
LINE
  5
35
330
17
100
AcDbEntity
  8
0
100
AcDbLine
 10
-260.6872630448028
 20
-4.707928555049778
 30
0.0
 11
-260.6872630448028
 21
-3.9811146048376607
 31
0.0
  0
LINE
  5
36
330
17
100
AcDbEntity
  8
0
100
AcDbLine
 10
-396.9267422441726
 20
-26.196294949899816
 30
0.0
 11
-260.68726304480276
 21
-4.707928555049769
 31
0.0
  0
ARC
  5
37
330
17
100
AcDbEntity
  8
0
100
AcDbCircle
 10
-420.34353253315476
 20
-34.95151810878206
 30
0.0
 40
25.0
100
AcDbArc
 50
20.500094512784756
 51
87.42617644715311
  0
LINE
  5
38
330
17
100
AcDbEntity
  8
0
100
AcDbLine
 10
-419.22086781984376
 20
-9.97673835116493
 30
0.0
 11
-422.4155412059156
 21
10.277972050405047
 31
0.0
  0
LINE
  5
39
330
17
100
AcDbEntity
  8
0
100
AcDbLine
 10
-422.4155412059156
 20
10.277972050405047
 30
0.0
 11
-432.29342907810883
 21
8.719982581770058
 31
0.0
  0
LINE
  5
3A
330
17
100
AcDbEntity
  8
0
100
AcDbLine
 10
-432.29342907810883
 20
8.719982581770061
 30
0.0
 11
-429.098755692037
 21
-11.534727819799862
 31
0.0
  0
ARC
  5
3B
330
17
100
AcDbEntity
  8
0
100
AcDbCircle
 10
-420.34353253315476
 20
-34.95151810878206
 30
0.0
 40
25.0
100
AcDbArc
 50
110.50009451278463
 51
177.42617644715315
  0
LINE
  5
3C
330
17
100
AcDbEntity
  8
0
100
AcDbLine
 10
-445.3183122907719
 20
-33.82885339547104
 30
0.0
 11
-465.5730226923419
 21
-37.023526781542884
 31
0.0
  0
LINE
  5
3D
330
17
100
AcDbEntity
  8
0
100
AcDbLine
 10
-465.57302269234185
 20
-37.023526781542884
 30
0.0
 11
-464.01503322370684
 21
-46.90141465373613
 31
0.0
  0
LINE
  5
3E
330
17
100
AcDbEntity
  8
0
100
AcDbLine
 10
-443.7603228221369
 20
-43.7067412676643
 30
0.0
 11
-464.0150332237069
 21
-46.90141465373614
 31
0.0
  0
ARC
  5
3F
330
17
100
AcDbEntity
  8
0
100
AcDbCircle
 10
-420.34353253315476
 20
-34.95151810878206
 30
0.0
 40
25.0
100
AcDbArc
 50
200.50009451278476
 51
267.4261764471531
  0
LINE
  5
40
330
17
100
AcDbEntity
  8
0
100
AcDbLine
 10
-421.4661972464658
 20
-59.926297866399196
 30
0.0
 11
-418.271523860394
 21
-80.18100826796919
 31
0.0
  0
LINE
  5
41
330
17
100
AcDbEntity
  8
0
100
AcDbLine
 10
-418.271523860394
 20
-80.18100826796919
 30
0.0
 11
-408.39363598820074
 21
-78.6230187993342
 31
0.0
  0
LINE
  5
42
330
17
100
AcDbEntity
  8
0
100
AcDbLine
 10
-408.39363598820074
 20
-78.6230187993342
 30
0.0
 11
-411.58830937427257
 21
-58.36830839776428
 31
0.0
  0
ARC
  5
43
330
17
100
AcDbEntity
  8
0
100
AcDbCircle
 10
-420.34353253315476
 20
-34.95151810878206
 30
0.0
 40
25.0
100
AcDbArc
 50
290.5000945127846
 51
357.4261764471532
  0
LINE
  5
44
330
17
100
AcDbEntity
  8
0
100
AcDbLine
 10
-255.37953826471536
 20
-13.994389575571903
 30
0.0
 11
-395.3687527755376
 21
-36.074182822093064
 31
0.0
  0
LINE
  5
45
330
17
100
AcDbEntity
  8
0
100
AcDbLine
 10
-255.37953826471536
 20
-13.994389575571905
 30
0.0
 11
-108.86631916291958
 21
-18.952249208133292
 31
0.0
  0
ARC
  5
46
330
17
100
AcDbEntity
  8
0
100
AcDbCircle
 10
-84.21633580690359
 20
-14.783517920541145
 30
0.0
 40
25.0
100
AcDbArc
 50
189.59886714400002
 51
273.0936883402262
  0
LINE
  5
47
330
17
100
AcDbEntity
  8
0
100
AcDbLine
 10
-26.21015430202957
 20
-256.7805226304533
 30
0.0
 11
-82.86711544160725
 21
-39.74708345925913
 31
0.0
  0
LINE
  5
48
330
17
100
AcDbEntity
  8
0
100
AcDbLine
 10
-26.210154302029572
 20
-256.7805226304533
 30
0.0
 11
-86.43521274920803
 21
-379.50335852432613
 31
0.0
  0
ARC
  5
49
330
17
100
AcDbEntity
  8
0
100
AcDbCircle
 10
-92.73783137007815
 20
-403.69585733118515
 30
0.0
 40
25.0
100
AcDbArc
 50
75.39790483331667
 51
142.3239867676878
  0
LINE
  5
4A
330
17
100
AcDbEntity
  8
0
100
AcDbLine
 10
-112.52481832606904
 20
-388.4159637712336
 30
0.0
 11
-193.77373724408233
 21
-348.543833576663
 31
0.0
  0
LINE
  5
4B
330
17
100
AcDbEntity
  8
0
100
AcDbLine
 10
-193.77373724408233
 20
-348.543833576663
 30
0.0
 11
-198.17924909495028
 21
-357.5211085157446
 31
0.0
  0
LINE
  5
4C
330
17
100
AcDbEntity
  8
0
100
AcDbLine
 10
-198.17924909495025
 20
-357.52110851574463
 30
0.0
 11
-116.93033017693719
 21
-397.3932387103151
 31
0.0
  0
ARC
  5
4D
330
17
100
AcDbEntity
  8
0
100
AcDbCircle
 10
-92.73783137007815
 20
-403.69585733118515
 30
0.0
 40
25.0
100
AcDbArc
 50
165.3979048333167
 51
232.32398676768761
  0
LINE
  5
4E
330
17
100
AcDbEntity
  8
0
100
AcDbLine
 10
-108.01772493002973
 20
-423.482844287176
 30
0.0
 11
-117.05127216852469
 21
-441.8908386316183
 31
0.0
  0
LINE
  5
4F
330
17
100
AcDbEntity
  8
0
100
AcDbLine
 10
-117.05127216852469
 20
-441.8908386316183
 30
0.0
 11
-108.07399722944311
 21
-446.2963504824862
 31
0.0
  0
LINE
  5
50
330
17
100
AcDbEntity
  8
0
100
AcDbLine
 10
-99.04044999094825
 20
-427.8883561380442
 30
0.0
 11
-108.07399722944311
 21
-446.2963504824862
 31
0.0
  0
ARC
  5
51
330
17
100
AcDbEntity
  8
0
100
AcDbCircle
 10
-92.73783137007815
 20
-403.69585733118515
 30
0.0
 40
25.0
100
AcDbArc
 50
255.39790483331663
 51
322.3239867676878
  0
LINE
  5
52
330
17
100
AcDbEntity
  8
0
100
AcDbLine
 10
-72.95084441408726
 20
-418.9757508911367
 30
0.0
 11
-54.54285006964504
 21
-428.0092981296317
 31
0.0
  0
LINE
  5
53
330
17
100
AcDbEntity
  8
0
100
AcDbLine
 10
-54.542850069645034
 20
-428.0092981296317
 30
0.0
 11
-50.13733821877709
 21
-419.03202319055015
 31
0.0
  0
LINE
  5
54
330
17
100
AcDbEntity
  8
0
100
AcDbLine
 10
-50.137338218777096
 20
-419.0320231905501
 30
0.0
 11
-68.54533256321912
 21
-409.99847595205523
 31
0.0
  0
ARC
  5
55
330
17
100
AcDbEntity
  8
0
100
AcDbCircle
 10
-92.73783137007815
 20
-403.69585733118515
 30
0.0
 40
25.0
100
AcDbArc
 50
-14.602095166683313
 51
52.323986767687636
  0
LINE
  5
56
330
17
100
AcDbEntity
  8
0
100
AcDbLine
 10
-22.02111849016616
 20
-270.94320699026287
 30
0.0
 11
-77.4579378101266
 21
-383.9088703751943
 31
0.0
  0
LINE
  5
57
330
17
100
AcDbEntity
  8
0
100
AcDbLine
 10
-22.02111849016616
 20
-270.94320699026287
 30
0.0
 11
15.04132671454881
 21
-394.0252014434616
 31
0.0
  0
ARC
  5
58
330
17
100
AcDbEntity
  8
0
100
AcDbCircle
 10
26.891632396563413
 20
-416.03815797462306
 30
0.0
 40
25.0
100
AcDbArc
 50
118.29505571223218
 51
185.22113764660028
  0
LINE
  5
59
330
17
100
AcDbEntity
  8
0
100
AcDbLine
 10
1.9953600331843226
 20
-418.3131574050506
 30
0.0
 11
-84.66604741279755
 21
-444.4086369193307
 31
0.0
  0
LINE
  5
5A
330
17
100
AcDbEntity
  8
0
100
AcDbLine
 10
-84.66604741279754
 20
-444.40863691933066
 30
0.0
 11
-81.78273158058005
 21
-453.9839431709178
 31
0.0
  0
LINE
  5
5B
330
17
100
AcDbEntity
  8
0
100
AcDbLine
 10
-81.78273158058003
 20
-453.9839431709178
 30
0.0
 11
4.878675865401945
 21
-427.88846365663767
 31
0.0
  0
ARC
  5
5C
330
17
100
AcDbEntity
  8
0
100
AcDbCircle
 10
26.891632396563413
 20
-416.03815797462306
 30
0.0
 40
25.0
100
AcDbArc
 50
208.29505571223214
 51
275.22113764660025
  0
LINE
  5
5D
330
17
100
AcDbEntity
  8
0
100
AcDbLine
 10
29.16663182699094
 20
-440.9344303380022
 30
0.0
 11
35.078900515748565
 21
-460.56869402287396
 31
0.0
  0
LINE
  5
5E
330
17
100
AcDbEntity
  8
0
100
AcDbLine
 10
35.078900515748565
 20
-460.56869402287396
 30
0.0
 11
44.654206767335715
 21
-457.6853781906565
 31
0.0
  0
LINE
  5
5F
330
17
100
AcDbEntity
  8
0
100
AcDbLine
 10
38.741938078578066
 20
-438.05111450578454
 30
0.0
 11
44.654206767335715
 21
-457.6853781906565
 31
0.0
  0
ARC
  5
60
330
17
100
AcDbEntity
  8
0
100
AcDbCircle
 10
26.891632396563413
 20
-416.03815797462306
 30
0.0
 40
25.0
100
AcDbArc
 50
-61.70494428776781
 51
5.221137646600785
  0
LINE
  5
61
330
17
100
AcDbEntity
  8
0
100
AcDbLine
 10
51.78790475994259
 20
-413.7631585441955
 30
0.0
 11
71.42216844481433
 21
-407.8508898554379
 31
0.0
  0
LINE
  5
62
330
17
100
AcDbEntity
  8
0
100
AcDbLine
 10
71.42216844481433
 20
-407.8508898554379
 30
0.0
 11
68.53885261259684
 21
-398.27558360385075
 31
0.0
  0
LINE
  5
63
330
17
100
AcDbEntity
  8
0
100
AcDbLine
 10
68.53885261259684
 20
-398.27558360385075
 30
0.0
 11
48.90458892772489
 21
-404.1878522926084
 31
0.0
  0
ARC
  5
64
330
17
100
AcDbEntity
  8
0
100
AcDbCircle
 10
26.891632396563413
 20
-416.03815797462306
 30
0.0
 40
25.0
100
AcDbArc
 50
28.295055712232244
 51
95.22113764660014
  0
LINE
  5
65
330
17
100
AcDbEntity
  8
0
100
AcDbLine
 10
-14.687539513923447
 20
-260.6152591985101
 30
0.0
 11
24.61663296613598
 21
-391.141885611244
 31
0.0
  0
LINE
  5
66
330
17
100
AcDbEntity
  8
0
100
AcDbLine
 10
105.33443672576082
 20
-223.20516427128484
 30
0.0
 11
-14.68753951392344
 21
-260.6152591985101
 31
0.0
  0
ARC
  5
67
330
17
100
AcDbEntity
  8
0
100
AcDbCircle
 10
127.23181947700701
 20
-211.14263432747063
 30
0.0
 40
25.0
100
AcDbArc
 50
208.84888699810313
 51
265.63773091695725
  0
LINE
  5
68
330
17
100
AcDbEntity
  8
0
100
AcDbLine
 10
125.3302588856084
 20
-236.07021077038326
 30
0.0
 11
127.89124287003452
 21
-256.41475776771506
 31
0.0
  0
LINE
  5
69
330
17
100
AcDbEntity
  8
0
100
AcDbLine
 10
127.8912428700345
 20
-256.41475776771506
 30
0.0
 11
137.8129425668436
 21
-255.16580815850793
 31
0.0
  0
LINE
  5
6A
330
17
100
AcDbEntity
  8
0
100
AcDbLine
 10
137.8129425668436
 20
-255.16580815850793
 30
0.0
 11
135.25195858241747
 21
-234.8212611611761
 31
0.0
  0
ARC
  5
6B
330
17
100
AcDbEntity
  8
0
100
AcDbCircle
 10
127.23181947700701
 20
-211.14263432747063
 30
0.0
 40
25.0
100
AcDbArc
 50
288.71164898258553
 51
345.5004929014388
  0
LINE
  5
6C
330
17
100
AcDbEntity
  8
0
100
AcDbLine
 10
151.43556433449723
 20
-217.40192621022393
 30
0.0
 11
171.91326247904874
 21
-218.4616951453143
 31
0.0
  0
LINE
  5
6D
330
17
100
AcDbEntity
  8
0
100
AcDbLine
 10
171.91326247904877
 20
-218.4616951453143
 30
0.0
 11
172.43009429267198
 21
-208.4750598322358
 31
0.0
  0
LINE
  5
6E
330
17
100
AcDbEntity
  8
0
100
AcDbLine
 10
172.43009429267195
 20
-208.4750598322358
 30
0.0
 11
151.95239614812073
 21
-207.41529089714544
 31
0.0
  0
ARC
  5
6F
330
17
100
AcDbEntity
  8
0
100
AcDbCircle
 10
127.23181947700701
 20
-211.14263432747063
 30
0.0
 40
25.0
100
AcDbArc
 50
8.57441096707152
 51
65.36325488592801
  0
LINE
  5
70
330
17
100
AcDbEntity
  8
0
100
AcDbLine
 10
168.81556562936703
 20
-54.504781345615825
 30
0.0
 11
137.65341499817265
 21
-188.41841053889564
 31
0.0
  0
LINE
  5
71
330
17
100
AcDbEntity
  8
0
100
AcDbLine
 10
168.81556562936703
 20
-54.504781345615825
 30
0.0
 11
169.8454899649709
 21
-54.504781345615825
 31
0.0
  0
LINE
  5
72
330
17
100
AcDbEntity
  8
0
100
AcDbLine
 10
169.8454899649709
 20
-54.504781345615825
 30
0.0
 11
169.8454899649709
 21
-50.195722728000234
 31
0.0
  0
LINE
  5
73
330
17
100
AcDbEntity
  8
0
100
AcDbLine
 10
169.8454899649709
 20
-50.195722728000234
 30
0.0
 11
195.50300519926734
 21
40.86684774216042
 31
0.0
  0
LINE
  5
74
330
17
100
AcDbEntity
  8
0
100
AcDbLine
 10
195.5030051992673
 20
40.866847742160424
 30
0.0
 11
211.73553026305373
 21
37.30110956126832
 31
0.0
  0
LINE
  5
75
330
17
100
AcDbEntity
  8
0
100
AcDbLine
 10
211.7355302630537
 20
37.30110956126832
 30
0.0
 11
213.8810388476697
 21
47.068237742742085
 31
0.0
  0
LINE
  5
76
330
17
100
AcDbEntity
  8
0
100
AcDbLine
 10
213.88103884766974
 20
47.068237742742085
 30
0.0
 11
198.219614901804
 21
50.50852427311661
 31
0.0
  0
LINE
  5
77
330
17
100
AcDbEntity
  8
0
100
AcDbLine
 10
198.219614901804
 20
50.508524273116635
 30
0.0
 11
205.07316804722046
 21
74.83286591634948
 31
0.0
  0
ARC
  5
78
330
17
100
AcDbEntity
  8
0
100
AcDbCircle
 10
206.9035111309786
 20
99.76577277045992
 30
0.0
 40
25.0
100
AcDbArc
 50
265.8014060187795
 51
333.7796653351806
  0
LINE
  5
79
330
17
100
AcDbEntity
  8
0
100
AcDbLine
 10
229.3310516238742
 20
88.72016606736152
 30
0.0
 11
316.880378815272
 21
65.77917873175957
 31
0.0
  0
LINE
  5
7A
330
17
100
AcDbEntity
  8
0
100
AcDbLine
 10
316.880378815272
 20
65.77917873175957
 30
0.0
 11
319.4151516273694
 21
75.45259213091975
 31
0.0
  0
LINE
  5
7B
330
17
100
AcDbEntity
  8
0
100
AcDbLine
 10
319.41515162736937
 20
75.45259213091975
 30
0.0
 11
231.86582443597177
 21
98.39357946652166
 31
0.0
  0
ARC
  5
7C
330
17
100
AcDbEntity
  8
0
100
AcDbCircle
 10
206.9035111309786
 20
99.76577277045992
 30
0.0
 40
25.0
100
AcDbArc
 50
-3.1464165991905233
 51
64.83184271721204
  0
LINE
  5
7D
330
17
100
AcDbEntity
  8
0
100
AcDbLine
 10
217.53542010396941
 20
122.39236136861251
 30
0.0
 11
222.36788475178395
 21
142.31989300007035
 31
0.0
  0
LINE
  5
7E
330
17
100
AcDbEntity
  8
0
100
AcDbLine
 10
222.36788475178395
 20
142.31989300007035
 30
0.0
 11
212.64955656428884
 21
144.67660622830542
 31
0.0
  0
LINE
  5
7F
330
17
100
AcDbEntity
  8
0
100
AcDbLine
 10
212.64955656428884
 20
144.67660622830542
 30
0.0
 11
207.81709191647425
 21
124.74907459684724
 31
0.0
  0
ARC
  5
80
330
17
100
AcDbEntity
  8
0
100
AcDbCircle
 10
206.9035111309786
 20
99.76577277045992
 30
0.0
 40
25.0
100
AcDbArc
 50
87.90576078284211
 51
155.88402009924118
  0
LINE
  5
81
330
17
100
AcDbEntity
  8
0
100
AcDbLine
 10
40.73079568836522
 20
141.96886443022458
 30
0.0
 11
184.08550469104088
 21
109.98039866213922
 31
0.0
  0
LINE
  5
82
330
17
100
AcDbEntity
  8
0
100
AcDbLine
 10
77.39592094509426
 20
223.13439299588654
 30
0.0
 11
40.73079568836522
 21
141.96886443022458
 31
0.0
  0
ARC
  5
83
330
17
100
AcDbEntity
  8
0
100
AcDbCircle
 10
82.92326889344747
 20
247.51570601749873
 30
0.0
 40
25.0
100
AcDbArc
 50
257.22670782599437
 51
347.15648106519103
  0
LINE
  5
84
330
17
100
AcDbEntity
  8
0
100
AcDbLine
 10
107.29778879744188
 20
241.95847834087894
 30
0.0
 11
127.79756015068585
 21
241.49092517828652
 31
0.0
  0
LINE
  5
85
330
17
100
AcDbEntity
  8
0
100
AcDbLine
 10
127.79756015068585
 20
241.4909251782865
 30
0.0
 11
128.02557810911688
 21
251.4883252308318
 31
0.0
  0
LINE
  5
86
330
17
100
AcDbEntity
  8
0
100
AcDbLine
 10
128.02557810911685
 20
251.4883252308318
 30
0.0
 11
107.5258067558728
 21
251.95587839342423
 31
0.0
  0
ARC
  5
87
330
17
100
AcDbEntity
  8
0
100
AcDbCircle
 10
82.92326889344747
 20
247.51570601749873
 30
0.0
 40
25.0
100
AcDbArc
 50
10.230399130820459
 51
100.16017237001509
  0
LINE
  5
88
330
17
100
AcDbEntity
  8
0
100
AcDbLine
 10
78.51325488555702
 20
272.12366766510775
 30
0.0
 11
70.9325135756644
 21
291.1760059123581
 31
0.0
  0
LINE
  5
89
330
17
100
AcDbEntity
  8
0
100
AcDbLine
 10
70.93251357566439
 20
291.1760059123581
 30
0.0
 11
61.64100275283631
 21
287.4790035280921
 31
0.0
  0
LINE
  5
8A
330
17
100
AcDbEntity
  8
0
100
AcDbLine
 10
61.641002752836314
 20
287.47900352809205
 30
0.0
 11
69.22174406272883
 21
268.42666528084203
 31
0.0
  0
ARC
  5
8B
330
17
100
AcDbEntity
  8
0
100
AcDbCircle
 10
82.92326889344747
 20
247.51570601749873
 30
0.0
 40
25.0
100
AcDbArc
 50
123.2340904356473
 51
213.16386367484145
  0
LINE
  5
8C
330
17
100
AcDbEntity
  8
0
100
AcDbLine
 10
24.754480227885416
 20
196.98567162604752
 30
0.0
 11
61.99553154440132
 21
233.839821788341
 31
0.0
  0
LINE
  5
8D
330
17
100
AcDbEntity
  8
0
100
AcDbLine
 10
24.754480227885416
 20
196.98567162604752
 30
0.0
 11
11.577841258193237
 21
251.97668825618365
 31
0.0
  0
ARC
  5
8E
330
17
100
AcDbEntity
  8
0
100
AcDbCircle
 10
1.0077186051350306
 20
274.63220650448915
 30
0.0
 40
25.0
100
AcDbArc
 50
-64.98819998118687
 51
23.62359681763494
  0
LINE
  5
8F
330
17
100
AcDbEntity
  8
0
100
AcDbLine
 10
23.912662886193317
 20
284.6503663894987
 30
0.0
 11
40.67643598250554
 21
296.45863226855556
 31
0.0
  0
LINE
  5
90
330
17
100
AcDbEntity
  8
0
100
AcDbLine
 10
40.676435982505545
 20
296.45863226855556
 30
0.0
 11
34.91773965923802
 21
304.6340476498304
 31
0.0
  0
LINE
  5
91
330
17
100
AcDbEntity
  8
0
100
AcDbLine
 10
34.917739659238016
 20
304.6340476498304
 30
0.0
 11
18.153966562925667
 21
292.82578177077346
 31
0.0
  0
ARC
  5
92
330
17
100
AcDbEntity
  8
0
100
AcDbCircle
 10
1.0077186051350306
 20
274.63220650448915
 30
0.0
 40
25.0
100
AcDbArc
 50
46.697514883267026
 51
135.30931168209048
  0
LINE
  5
93
330
17
100
AcDbEntity
  8
0
100
AcDbLine
 10
-16.76512589108631
 20
292.21418587295483
 30
0.0
 11
-33.93212570906405
 21
303.42816593110894
 31
0.0
  0
LINE
  5
94
330
17
100
AcDbEntity
  8
0
100
AcDbLine
 10
-33.93212570906405
 20
303.4281659311089
 30
0.0
 11
-39.400998648707436
 21
295.0561035346598
 31
0.0
  0
LINE
  5
95
330
17
100
AcDbEntity
  8
0
100
AcDbLine
 10
-39.40099864870743
 20
295.0561035346598
 30
0.0
 11
-22.233998830729465
 21
283.8421234765056
 31
0.0
  0
ARC
  5
96
330
17
100
AcDbEntity
  8
0
100
AcDbCircle
 10
1.0077186051350306
 20
274.63220650448915
 30
0.0
 40
25.0
100
AcDbArc
 50
158.38322974771867
 51
246.99502654654054
  0
LINE
  5
97
330
17
100
AcDbEntity
  8
0
100
AcDbLine
 10
-8.762557138039938
 20
251.62043317207693
 30
0.0
 11
-23.521861972391633
 21
178.86826779259098
 31
0.0
  0
LINE
  5
98
330
17
100
AcDbEntity
  8
0
100
AcDbLine
 10
-23.521861972391626
 20
178.86826779259098
 30
0.0
 11
-96.62778958203177
 21
223.1116128065157
 31
0.0
  0
ARC
  5
99
330
17
100
AcDbEntity
  8
0
100
AcDbCircle
 10
-120.17260870329369
 20
231.5164621535926
 30
0.0
 40
25.0
100
AcDbArc
 50
-19.64515923920437
 51
47.694458912528034
  0
LINE
  5
9A
330
17
100
AcDbEntity
  8
0
100
AcDbLine
 10
-103.34550769707722
 20
250.0056122618746
 30
0.0
 11
-92.85567587142256
 21
267.6244277658926
 31
0.0
  0
LINE
  5
9B
330
17
100
AcDbEntity
  8
0
100
AcDbLine
 10
-92.85567587142256
 20
267.6244277658926
 30
0.0
 11
-101.44808131880235
 21
272.74014556771067
 31
0.0
  0
LINE
  5
9C
330
17
100
AcDbEntity
  8
0
100
AcDbLine
 10
-101.44808131880235
 20
272.74014556771067
 30
0.0
 11
-111.93791314445701
 21
255.12133006369262
 31
0.0
  0
ARC
  5
9D
330
17
100
AcDbEntity
  8
0
100
AcDbCircle
 10
-120.17260870329369
 20
231.5164621535926
 30
0.0
 40
25.0
100
AcDbArc
 50
70.7683769781603
 51
138.10799512989334
  0
LINE
  5
9E
330
17
100
AcDbEntity
  8
0
100
AcDbLine
 10
-138.7827269341563
 20
248.20967932205127
 30
0.0
 11
-156.47679395222346
 21
258.5720740189966
 31
0.0
  0
LINE
  5
9F
330
17
100
AcDbEntity
  8
0
100
AcDbLine
 10
-156.47679395222343
 20
258.57207401899666
 30
0.0
 11
-161.53036277026504
 21
249.9429696505632
 31
0.0
  0
LINE
  5
A0
330
17
100
AcDbEntity
  8
0
100
AcDbLine
 10
-161.53036277026507
 20
249.94296965056316
 30
0.0
 11
-143.83629575219763
 21
239.58057495361763
 31
0.0
  0
ARC
  5
A1
330
17
100
AcDbEntity
  8
0
100
AcDbCircle
 10
-120.17260870329369
 20
231.5164621535926
 30
0.0
 40
25.0
100
AcDbArc
 50
161.18191319552452
 51
228.52153134725785
  0
LINE
  5
A2
330
17
100
AcDbEntity
  8
0
100
AcDbLine
 10
-136.7310724330655
 20
212.7863452583395
 30
0.0
 11
-186.39345749267537
 21
126.56542050984625
 31
0.0
  0
LINE
  5
A3
330
17
100
AcDbEntity
  8
0
100
AcDbLine
 10
-17.38857500437912
 20
-250.98264797203313
 30
0.0
 11
-73.19137343396928
 21
-37.22121398487428
 31
0.0
  0
ARC
  5
A4
330
17
100
AcDbEntity
  8
0
100
AcDbCircle
 10
-84.21633580690359
 20
-14.783517920541145
 30
0.0
 40
25.0
100
AcDbArc
 50
-63.83239359414333
 51
3.3217403732282773
  0
LINE
  5
A5
330
17
100
AcDbEntity
  8
0
100
AcDbLine
 10
-59.25833824218272
 20
-13.334947052614545
 30
0.0
 11
-7.829206555294078
 21
0.30959808291420643
 31
0.0
  0
ARC
  5
A6
330
17
100
AcDbEntity
  8
0
100
AcDbCircle
 10
14.564429687019876
 20
11.423780727037071
 30
0.0
 40
25.0
100
AcDbArc
 50
206.3956584388572
 51
326.39389454994597
  0
LINE
  5
A7
330
17
100
AcDbEntity
  8
0
100
AcDbLine
 10
159.00720475012258
 20
-52.53306937860427
 30
0.0
 11
35.38598634861792
 21
-2.4132268319640033
 31
0.0
  0
LINE
  5
A8
330
17
100
AcDbEntity
  8
0
100
AcDbLine
 10
159.00720475012258
 20
-52.53306937860427
 30
0.0
 11
127.91364686322757
 21
-186.15193382877743
 31
0.0
  0
ARC
  5
A9
330
17
100
AcDbEntity
  8
0
100
AcDbCircle
 10
127.23181947700701
 20
-211.14263432747063
 30
0.0
 40
25.0
100
AcDbArc
 50
88.43717295155814
 51
185.77496893247076
  0
LINE
  5
AA
330
17
100
AcDbEntity
  8
0
100
AcDbLine
 10
102.35870040675823
 20
-213.6581755649037
 30
0.0
 11
-17.38857500437912
 21
-250.98264797203313
 31
0.0
  0
LINE
  5
AB
330
17
100
AcDbEntity
  8
0
100
AcDbLine
 10
-138.03288299163546
 20
50.62777126413383
 30
0.0
 11
-102.67725628943217
 21
2.0745488410348685
 31
0.0
  0
ARC
  5
AC
330
17
100
AcDbEntity
  8
0
100
AcDbCircle
 10
-84.21633580690359
 20
-14.783517920541145
 30
0.0
 40
25.0
100
AcDbArc
 50
137.59842625831118
 51
166.52494907837212
  0
LINE
  5
AD
330
17
100
AcDbEntity
  8
0
100
AcDbLine
 10
-237.4865028092761
 20
-4.59414810839216
 30
0.0
 11
-108.52812281913836
 21
-8.957969682672093
 31
0.0
  0
LINE
  5
AE
330
17
100
AcDbEntity
  8
0
100
AcDbLine
 10
-237.4865028092761
 20
-4.59414810839216
 30
0.0
 11
-138.03288299163546
 21
50.62777126413382
 31
0.0
  0
LINE
  5
AF
330
17
100
AcDbEntity
  8
0
100
AcDbLine
 10
-135.1551422624696
 20
63.663765340646066
 30
0.0
 11
-163.34008075994825
 21
102.36961545542178
 31
0.0
  0
LINE
  5
B0
330
17
100
AcDbEntity
  8
0
100
AcDbLine
 10
-163.34008075994825
 20
102.36961545542178
 30
0.0
 11
-132.01225600409
 21
81.8337456058903
 31
0.0
  0
ARC
  5
B1
330
17
100
AcDbEntity
  8
0
100
AcDbCircle
 10
-108.78531285966075
 20
72.58663188508788
 30
0.0
 40
25.0
100
AcDbArc
 50
158.29150271125044
 51
197.50439607571832
  0
LINE
  5
B2
330
17
100
AcDbEntity
  8
0
100
AcDbLine
 10
-135.1551422624696
 20
63.66376534064609
 30
0.0
 11
-132.62765975939158
 21
65.06715754754985
 31
0.0
  0
LINE
  5
B3
330
17
100
AcDbEntity
  8
0
100
AcDbLine
 10
-66.71183026525915
 20
46.14361703842912
 30
0.0
 11
-80.29840788627999
 21
9.90757036670935
 31
0.0
  0
ARC
  5
B4
330
17
100
AcDbEntity
  8
0
100
AcDbCircle
 10
-84.21633580690359
 20
-14.783517920541145
 30
0.0
 40
25.0
100
AcDbArc
 50
80.98360300417934
 51
114.52450819268012
  0
LINE
  5
B5
330
17
100
AcDbEntity
  8
0
100
AcDbLine
 10
-129.22415115280847
 20
55.5188459205399
 30
0.0
 11
-94.5933967923284
 21
7.96107715839522
 31
0.0
  0
LINE
  5
B6
330
17
100
AcDbEntity
  8
0
100
AcDbLine
 10
-129.22415115280847
 20
55.5188459205399
 30
0.0
 11
-127.77325196566571
 21
56.324462026589856
 31
0.0
  0
ARC
  5
B7
330
17
100
AcDbEntity
  8
0
100
AcDbCircle
 10
-108.78531285966075
 20
72.58663188508788
 30
0.0
 40
25.0
100
AcDbArc
 50
220.57831414135046
 51
322.08857161829707
  0
LINE
  5
B8
330
17
100
AcDbEntity
  8
0
100
AcDbLine
 10
-89.06127430871416
 20
57.22556736335753
 30
0.0
 11
-66.71183026525915
 21
46.14361703842913
 31
0.0
  0
LINE
  5
B9
330
17
100
AcDbEntity
  8
0
100
AcDbLine
 10
-40.88858354926669
 20
33.33918500072016
 30
0.0
 11
-9.601968977324642
 21
17.825747268340443
 31
0.0
  0
ARC
  5
BA
330
17
100
AcDbEntity
  8
0
100
AcDbCircle
 10
14.564429687019876
 20
11.423780727037071
 30
0.0
 40
25.0
100
AcDbArc
 50
165.16248968392915
 51
183.32174037322832
  0
LINE
  5
BB
330
17
100
AcDbEntity
  8
0
100
AcDbLine
 10
-61.82269956458963
 20
-3.6693352764182894
 30
0.0
 11
-10.393567877700995
 21
9.97520985911045
 31
0.0
  0
ARC
  5
BC
330
17
100
AcDbEntity
  8
0
100
AcDbCircle
 10
-84.21633580690359
 20
-14.783517920541145
 30
0.0
 40
25.0
100
AcDbArc
 50
26.39565843885707
 51
40.892952642035524
  0
LINE
  5
BD
330
17
100
AcDbEntity
  8
0
100
AcDbLine
 10
-40.888583549266684
 20
33.339185000720164
 30
0.0
 11
-65.317985899203
 21
1.5826780567195442
 31
0.0
  0
LINE
  5
BE
330
17
100
AcDbEntity
  8
0
100
AcDbLine
 10
-57.70629435949359
 20
41.67823072443358
 30
0.0
 11
-67.80068938666955
 21
14.756000599196156
 31
0.0
  0
LINE
  5
BF
330
17
100
AcDbEntity
  8
0
100
AcDbLine
 10
-57.70629435949358
 20
41.67823072443359
 30
0.0
 11
-50.02148051996807
 21
37.86772317622082
 31
0.0
  0
LINE
  5
C0
330
17
100
AcDbEntity
  8
0
100
AcDbLine
 10
-50.02148051996808
 20
37.86772317622082
 30
0.0
 11
-67.80068938666955
 21
14.756000599196156
 31
0.0
  0
ARC
  5
C1
330
17
100
AcDbEntity
  8
0
100
AcDbCircle
 10
-108.78531285966075
 20
72.58663188508788
 30
0.0
 40
25.0
100
AcDbArc
 50
-14.8375103160699
 51
13.272576014010944
  0
LINE
  5
C2
330
17
100
AcDbEntity
  8
0
100
AcDbLine
 10
-48.395354934262116
 20
94.99452515295869
 30
0.0
 11
-84.45309105868213
 21
78.32622962604297
 31
0.0
  0
LINE
  5
C3
330
17
100
AcDbEntity
  8
0
100
AcDbLine
 10
-48.395354934262095
 20
94.99452515295869
 30
0.0
 11
-63.18283772690443
 21
55.5556074521242
 31
0.0
  0
LINE
  5
C4
330
17
100
AcDbEntity
  8
0
100
AcDbLine
 10
-63.18283772690443
 20
55.5556074521242
 30
0.0
 11
-84.61891419531639
 21
66.1846653437846
 31
0.0
  0
LINE
  5
C5
330
17
100
AcDbEntity
  8
0
100
AcDbLine
 10
-21.487274212512247
 20
107.43323844279487
 30
0.0
 11
-35.47634710417664
 21
100.96655400367084
 31
0.0
  0
LINE
  5
C6
330
17
100
AcDbEntity
  8
0
100
AcDbLine
 10
-21.487274212512247
 20
107.43323844279487
 30
0.0
 11
-14.135520472274933
 21
84.51695032973186
 31
0.0
  0
LINE
  5
C7
330
17
100
AcDbEntity
  8
0
100
AcDbLine
 10
-14.13552047227494
 20
84.51695032973187
 30
0.0
 11
-43.80588312561956
 21
45.94756315704849
 31
0.0
  0
LINE
  5
C8
330
17
100
AcDbEntity
  8
0
100
AcDbLine
 10
-43.80588312561956
 20
45.947563157048485
 30
0.0
 11
-54.17730182113887
 21
51.09022113812867
 31
0.0
  0
LINE
  5
C9
330
17
100
AcDbEntity
  8
0
100
AcDbLine
 10
-35.47634710417663
 20
100.96655400367084
 30
0.0
 11
-54.17730182113887
 21
51.09022113812867
 31
0.0
  0
LINE
  5
CA
330
17
100
AcDbEntity
  8
0
100
AcDbLine
 10
-37.58593306417916
 20
123.82376576853645
 30
0.0
 11
-43.39859339018902
 21
108.32112509364941
 31
0.0
  0
LINE
  5
CB
330
17
100
AcDbEntity
  8
0
100
AcDbLine
 10
-43.39859339018902
 20
108.3211250936494
 30
0.0
 11
-74.44056838616609
 21
93.97144958471873
 31
0.0
  0
LINE
  5
CC
330
17
100
AcDbEntity
  8
0
100
AcDbLine
 10
-37.58593306417915
 20
123.82376576853645
 30
0.0
 11
-74.44056838616609
 21
93.97144958471873
 31
0.0
  0
LINE
  5
CD
330
17
100
AcDbEntity
  8
0
100
AcDbLine
 10
-30.479585560103562
 20
114.29315394436158
 30
0.0
 11
-26.81956175352542
 21
124.0546109627631
 31
0.0
  0
LINE
  5
CE
330
17
100
AcDbEntity
  8
0
100
AcDbLine
 10
-26.81956175352542
 20
124.0546109627631
 30
0.0
 11
-24.565110643430597
 21
117.02721954009013
 31
0.0
  0
LINE
  5
CF
330
17
100
AcDbEntity
  8
0
100
AcDbLine
 10
-24.565110643430593
 20
117.02721954009013
 30
0.0
 11
-30.479585560103573
 21
114.29315394436156
 31
0.0
  0
LINE
  5
D0
330
17
100
AcDbEntity
  8
0
100
AcDbLine
 10
-31.451973882980266
 20
141.66124836057924
 30
0.0
 11
-31.451973882980266
 21
144.27677401043942
 31
0.0
  0
LINE
  5
D1
330
17
100
AcDbEntity
  8
0
100
AcDbLine
 10
-31.451973882980266
 20
141.66124836057924
 30
0.0
 11
-92.89834104234264
 21
91.88958830310168
 31
0.0
  0
ARC
  5
D2
330
17
100
AcDbEntity
  8
0
100
AcDbCircle
 10
-108.78531285966075
 20
72.58663188508788
 30
0.0
 40
25.0
100
AcDbArc
 50
50.54448938575324
 51
135.21758464562006
  0
LINE
  5
D3
330
17
100
AcDbEntity
  8
0
100
AcDbLine
 10
-176.81495881515565
 20
123.1596126417283
 30
0.0
 11
-126.52998691902289
 21
90.19704194638416
 31
0.0
  0
LINE
  5
D4
330
17
100
AcDbEntity
  8
0
100
AcDbLine
 10
-128.06571866011518
 20
207.7951886799886
 30
0.0
 11
-176.81495881515565
 21
123.1596126417283
 31
0.0
  0
ARC
  5
D5
330
17
100
AcDbEntity
  8
0
100
AcDbCircle
 10
-120.17260870329369
 20
231.5164621535926
 30
0.0
 40
25.0
100
AcDbArc
 50
251.59544941288905
 51
317.28092269516634
  0
LINE
  5
D6
330
17
100
AcDbEntity
  8
0
100
AcDbLine
 10
-25.63385994261869
 20
168.45772154155912
 30
0.0
 11
-101.80538987418097
 21
214.5563538849671
 31
0.0
  0
LINE
  5
D7
330
17
100
AcDbEntity
  8
0
100
AcDbLine
 10
-25.633859942618674
 20
168.45772154155912
 30
0.0
 11
-30.53947304614141
 21
144.27677401043942
 31
0.0
  0
LINE
  5
D8
330
17
100
AcDbEntity
  8
0
100
AcDbLine
 10
-31.451973882980266
 20
144.27677401043942
 30
0.0
 11
-30.53947304614141
 21
144.27677401043942
 31
0.0
  0
LINE
  5
D9
330
17
100
AcDbEntity
  8
0
100
AcDbLine
 10
-10.422483740128587
 20
72.94297457717832
 30
0.0
 11
2.3208617214040146
 21
33.22045578245217
 31
0.0
  0
ARC
  5
DA
330
17
100
AcDbEntity
  8
0
100
AcDbCircle
 10
14.564429687019876
 20
11.423780727037071
 30
0.0
 40
25.0
100
AcDbArc
 50
119.3236726209395
 51
142.08857161829727
  0
LINE
  5
DB
330
17
100
AcDbEntity
  8
0
100
AcDbLine
 10
-34.67298615491816
 20
41.41902498154783
 30
0.0
 11
-5.159608863926728
 21
26.78484524876748
 31
0.0
  0
LINE
  5
DC
330
17
100
AcDbEntity
  8
0
100
AcDbLine
 10
-10.422483740128577
 20
72.94297457717832
 30
0.0
 11
-34.67298615491816
 21
41.419024981547835
 31
0.0
  0
ARC
  5
DD
330
17
100
AcDbEntity
  8
0
100
AcDbCircle
 10
14.564429687019876
 20
11.423780727037071
 30
0.0
 40
25.0
100
AcDbArc
 50
-10.532187384422548
 51
96.2497545553101
  0
LINE
  5
DE
330
17
100
AcDbEntity
  8
0
100
AcDbLine
 10
-3.0112095915759878
 20
82.57711034485158
 30
0.0
 11
11.842864274655994
 21
36.27520084151399
 31
0.0
  0
LINE
  5
DF
330
17
100
AcDbEntity
  8
0
100
AcDbLine
 10
34.81069214619848
 20
131.74292569989137
 30
0.0
 11
-3.011209591575991
 21
82.57711034485158
 31
0.0
  0
LINE
  5
E0
330
17
100
AcDbEntity
  8
0
100
AcDbLine
 10
34.81069214619846
 20
131.74292569989134
 30
0.0
 11
145.53204878535365
 21
60.8385516321311
 31
0.0
  0
ARC
  5
E1
330
17
100
AcDbEntity
  8
0
100
AcDbCircle
 10
168.85620773872978
 20
51.83946228277723
 30
0.0
 40
25.0
100
AcDbArc
 50
158.9020410054061
 51
256.19673223063194
  0
LINE
  5
E2
330
17
100
AcDbEntity
  8
0
100
AcDbLine
 10
162.89148663330502
 20
27.56144543348539
 30
0.0
 11
160.1307444519495
 21
-42.19797021351961
 31
0.0
  0
LINE
  5
E3
330
17
100
AcDbEntity
  8
0
100
AcDbLine
 10
160.1307444519495
 20
-42.1979702135196
 30
0.0
 11
39.14323910954421
 21
6.85408408817414
 31
0.0
  0
LINE
  5
E4
330
17
100
AcDbEntity
  8
0
100
AcDbLine
 10
17.278977500719105
 20
125.35359089635135
 30
0.0
 11
-12.341582328289157
 21
111.66098847674954
 31
0.0
  0
LINE
  5
E5
330
17
100
AcDbEntity
  8
0
100
AcDbLine
 10
17.278977500719108
 20
125.35359089635135
 30
0.0
 11
-6.724246323722326
 21
94.15108609740516
 31
0.0
  0
LINE
  5
E6
330
17
100
AcDbEntity
  8
0
100
AcDbLine
 10
-6.724246323722333
 20
94.15108609740516
 30
0.0
 11
-12.341582328289142
 21
111.66098847674954
 31
0.0
  0
LINE
  5
E7
330
17
100
AcDbEntity
  8
0
100
AcDbLine
 10
172.88366484133223
 20
27.166003074820644
 30
0.0
 11
171.5159668746699
 21
-7.393475742253528
 31
0.0
  0
ARC
  5
E8
330
17
100
AcDbEntity
  8
0
100
AcDbCircle
 10
168.85620773872978
 20
51.83946228277723
 30
0.0
 40
25.0
100
AcDbArc
 50
279.27065029626306
 51
302.41983966647746
  0
LINE
  5
E9
330
17
100
AcDbEntity
  8
0
100
AcDbLine
 10
171.5159668746699
 20
-7.393475742253514
 30
0.0
 11
182.25918589303208
 21
30.73590389573541
 31
0.0
  0
LINE
  5
EA
330
17
100
AcDbEntity
  8
0
100
AcDbLine
 10
60.152509302196655
 20
127.38912551281963
 30
0.0
 11
181.90764579055028
 21
100.22043295474282
 31
0.0
  0
ARC
  5
EB
330
17
100
AcDbEntity
  8
0
100
AcDbCircle
 10
206.9035111309786
 20
99.76577277045992
 30
0.0
 40
25.0
100
AcDbArc
 50
178.95793816487205
 51
191.10709066719207
  0
LINE
  5
EC
330
17
100
AcDbEntity
  8
0
100
AcDbLine
 10
182.37179036028402
 20
94.94968763534867
 30
0.0
 11
181.46670899117535
 21
95.32480760924403
 31
0.0
  0
LINE
  5
ED
330
17
100
AcDbEntity
  8
0
100
AcDbLine
 10
181.46670899117535
 20
95.32480760924403
 30
0.0
 11
173.61576250016063
 21
76.38221352368213
 31
0.0
  0
ARC
  5
EE
330
17
100
AcDbEntity
  8
0
100
AcDbCircle
 10
168.85620773872978
 20
51.83946228277723
 30
0.0
 40
25.0
100
AcDbArc
 50
79.02491076902618
 51
135.82812293977724
  0
LINE
  5
EF
330
17
100
AcDbEntity
  8
0
100
AcDbLine
 10
60.152509302196655
 20
127.38912551281963
 30
0.0
 11
150.92488983052482
 21
69.25979058263698
 31
0.0
  0
LINE
  5
F0
330
17
100
AcDbEntity
  8
0
100
AcDbLine
 10
182.85375290713034
 20
72.55343653347558
 30
0.0
 11
187.56540393178574
 21
83.92160633758965
 31
0.0
  0
ARC
  5
F1
330
17
100
AcDbEntity
  8
0
100
AcDbCircle
 10
206.9035111309786
 20
99.76577277045992
 30
0.0
 40
25.0
100
AcDbArc
 50
219.3285696536991
 51
242.72748795315007
  0
LINE
  5
F2
330
17
100
AcDbEntity
  8
0
100
AcDbLine
 10
191.3051587908881
 20
62.841489216837395
 30
0.0
 11
195.44793155841535
 21
77.54484352218876
 31
0.0
  0
ARC
  5
F3
330
17
100
AcDbEntity
  8
0
100
AcDbCircle
 10
168.85620773872978
 20
51.83946228277723
 30
0.0
 40
25.0
100
AcDbArc
 50
26.109054305452634
 51
55.95099270339606
  0
LINE
  5
F4
330
17
100
AcDbEntity
  8
0
100
AcDbLine
 10
23.00914123445878
 20
139.01921834545996
 30
0.0
 11
-15.419418759207502
 21
121.2549695740448
 31
0.0
  0
LINE
  5
F5
330
17
100
AcDbEntity
  8
0
100
AcDbLine
 10
-15.419418759207495
 20
121.2549695740448
 30
0.0
 11
-20.753422056277813
 21
137.88169030908205
 31
0.0
  0
LINE
  5
F6
330
17
100
AcDbEntity
  8
0
100
AcDbLine
 10
-20.753422056277795
 20
137.88169030908205
 30
0.0
 11
-3.433186573817757
 21
155.0219840642634
 31
0.0
  0
LINE
  5
F7
330
17
100
AcDbEntity
  8
0
100
AcDbLine
 10
23.00914123445878
 20
139.01921834545996
 30
0.0
 11
-3.433186573817764
 21
155.0219840642634
 31
0.0
  0
LINE
  5
F8
330
17
100
AcDbEntity
  8
0
100
AcDbLine
 10
-12.254865134012462
 20
160.3608202011182
 30
0.0
 11
-18.28300834164824
 21
154.39530400003576
 31
0.0
  0
LINE
  5
F9
330
17
100
AcDbEntity
  8
0
100
AcDbLine
 10
-18.28300834164825
 20
154.39530400003574
 30
0.0
 11
-16.545935382472383
 21
162.95775464527622
 31
0.0
  0
LINE
  5
FA
330
17
100
AcDbEntity
  8
0
100
AcDbLine
 10
-12.254865134012476
 20
160.3608202011182
 30
0.0
 11
-16.54593538247238
 21
162.95775464527622
 31
0.0
  0
LINE
  5
FB
330
17
100
AcDbEntity
  8
0
100
AcDbLine
 10
25.992909459844377
 20
148.902173559308
 30
0.0
 11
3.896054349260673
 21
162.27508074134263
 31
0.0
  0
LINE
  5
FC
330
17
100
AcDbEntity
  8
0
100
AcDbLine
 10
3.896054349260675
 20
162.27508074134263
 30
0.0
 11
19.16735992421725
 21
177.38773113486468
 31
0.0
  0
LINE
  5
FD
330
17
100
AcDbEntity
  8
0
100
AcDbLine
 10
19.16735992421725
 20
177.38773113486468
 30
0.0
 11
25.992909459844398
 21
148.90217355930804
 31
0.0
  0
LINE
  5
FE
330
17
100
AcDbEntity
  8
0
100
AcDbLine
 10
-4.925624210934032
 20
167.61391687819744
 30
0.0
 11
16.44241088967573
 21
188.75995724043028
 31
0.0
  0
LINE
  5
FF
330
17
100
AcDbEntity
  8
0
100
AcDbLine
 10
-4.925624210934039
 20
167.61391687819744
 30
0.0
 11
-14.43393741224535
 21
173.36830089630814
 31
0.0
  0
LINE
  5
100
330
17
100
AcDbEntity
  8
0
100
AcDbLine
 10
1.0378013599733205
 20
249.63222460393854
 30
0.0
 11
-14.433937412245346
 21
173.36830089630814
 31
0.0
  0
ARC
  5
101
330
17
100
AcDbEntity
  8
0
100
AcDbCircle
 10
1.0077186051350306
 20
274.63220650448915
 30
0.0
 40
25.0
100
AcDbArc
 50
270.0689446121729
 51
271.93788195317916
  0
LINE
  5
102
330
17
100
AcDbEntity
  8
0
100
AcDbLine
 10
16.442410889675728
 20
188.75995724043028
 30
0.0
 11
1.8531179152826418
 21
249.64650459306824
 31
0.0
  0
LINE
  5
103
330
17
100
AcDbEntity
  8
0
100
AcDbLine
 10
35.10236790751663
 20
153.8000865321369
 30
0.0
 11
27.479429262426944
 21
185.61344552048192
 31
0.0
  0
LINE
  5
104
330
17
100
AcDbEntity
  8
0
100
AcDbLine
 10
27.479429262426933
 20
185.61344552048192
 30
0.0
 11
67.25456494134056
 21
224.97535317925366
 31
0.0
  0
LINE
  5
105
330
17
100
AcDbEntity
  8
0
100
AcDbLine
 10
67.25456494134053
 20
224.97535317925366
 30
0.0
 11
35.10236790751662
 21
153.8000865321369
 31
0.0
  0
LINE
  5
106
330
17
100
AcDbEntity
  8
0
100
AcDbLine
 10
-186.3934574926754
 20
126.56542050984625
 30
0.0
 11
-186.3934574926754
 21
126.56542050984625
 31
5.0
  0
LINE
  5
107
330
17
100
AcDbEntity
  8
0
100
AcDbLine
 10
-188.50330231096524
 20
126.56542050984625
 30
5.0
 11
-186.39345749267537
 21
126.56542050984625
 31
5.0
  0
LINE
  5
108
330
17
100
AcDbEntity
  8
0
100
AcDbLine
 10
-188.50330231096524
 20
126.56542050984625
 30
0.0
 11
-188.50330231096524
 21
126.56542050984625
 31
5.0
  0
LINE
  5
109
330
17
100
AcDbEntity
  8
0
100
AcDbLine
 10
-188.50330231096524
 20
116.56542050984625
 30
0.0
 11
-188.50330231096524
 21
116.56542050984625
 31
5.0
  0
LINE
  5
10A
330
17
100
AcDbEntity
  8
0
100
AcDbLine
 10
-188.50330231096524
 20
116.56542050984625
 30
5.0
 11
-188.50330231096524
 21
126.56542050984625
 31
5.0
  0
LINE
  5
10B
330
17
100
AcDbEntity
  8
0
100
AcDbLine
 10
-186.39345749267537
 20
126.56542050984625
 30
5.0
 11
-136.7310724330655
 21
212.7863452583395
 31
5.0
  0
LINE
  5
10C
330
17
100
AcDbEntity
  8
0
100
AcDbLine
 10
-136.73107243306532
 20
212.78634525833974
 30
5.0
 11
-136.73107243306532
 21
212.78634525833974
 31
0.0
  0
LINE
  5
10D
330
17
100
AcDbEntity
  8
0
100
AcDbLine
 10
-186.04755217336913
 20
116.56542050984625
 30
0.0
 11
-186.04755217336913
 21
116.56542050984625
 31
5.0
  0
LINE
  5
10E
330
17
100
AcDbEntity
  8
0
100
AcDbLine
 10
-188.50330231096524
 20
116.56542050984625
 30
5.0
 11
-186.04755217336913
 21
116.56542050984625
 31
5.0
  0
ARC
  5
10F
330
17
100
AcDbEntity
  8
0
100
AcDbCircle
 10
-120.17260870329369
 20
231.5164621535926
 30
5.0
 40
25.0
100
AcDbArc
 50
161.18191319552452
 51
228.5215313472579
  0
LINE
  5
110
330
17
100
AcDbEntity
  8
0
100
AcDbLine
 10
-143.83629575219777
 20
239.5805749536177
 30
5.0
 11
-143.83629575219777
 21
239.5805749536177
 31
0.0
  0
LINE
  5
111
330
17
100
AcDbEntity
  8
0
100
AcDbLine
 10
-143.96387410129665
 20
58.77269068423999
 30
0.0
 11
-143.96387410129665
 21
58.77269068423999
 31
5.0
  0
LINE
  5
112
330
17
100
AcDbEntity
  8
0
100
AcDbLine
 10
-186.04755217336913
 20
116.56542050984625
 30
5.0
 11
-143.96387410129665
 21
58.77269068424002
 31
5.0
  0
LINE
  5
113
330
17
100
AcDbEntity
  8
0
100
AcDbLine
 10
-161.53036277026507
 20
249.94296965056316
 30
5.0
 11
-143.83629575219763
 21
239.58057495361763
 31
5.0
  0
LINE
  5
114
330
17
100
AcDbEntity
  8
0
100
AcDbLine
 10
-161.53036277026507
 20
249.94296965056316
 30
0.0
 11
-161.53036277026507
 21
249.94296965056316
 31
5.0
  0
LINE
  5
115
330
17
100
AcDbEntity
  8
0
100
AcDbLine
 10
-256.98227629097573
 20
-3.9811146048376695
 30
0.0
 11
-256.98227629097573
 21
-3.9811146048376695
 31
5.0
  0
LINE
  5
116
330
17
100
AcDbEntity
  8
0
100
AcDbLine
 10
-159.2973421218037
 20
50.25873678007598
 30
5.0
 11
-256.9822762909758
 21
-3.9811146048376713
 31
5.0
  0
LINE
  5
117
330
17
100
AcDbEntity
  8
0
100
AcDbLine
 10
-159.2973421218037
 20
50.25873678007598
 30
2.5
 11
-159.2973421218037
 21
50.25873678007598
 31
5.0
  0
LINE
  5
118
330
17
100
AcDbEntity
  8
0
100
AcDbLine
 10
-150.55464660084368
 20
55.113144573801776
 30
2.5
 11
-159.2973421218037
 21
50.25873678007597
 31
2.5
  0
LINE
  5
119
330
17
100
AcDbEntity
  8
0
100
AcDbLine
 10
-150.55464660084368
 20
55.11314457380178
 30
2.5
 11
-150.55464660084368
 21
55.11314457380178
 31
5.0
  0
LINE
  5
11A
330
17
100
AcDbEntity
  8
0
100
AcDbLine
 10
-143.96387410129665
 20
58.772690684240004
 30
5.0
 11
-150.55464660084368
 21
55.11314457380178
 31
5.0
  0
LINE
  5
11B
330
17
100
AcDbEntity
  8
0
100
AcDbLine
 10
-156.47679395222343
 20
258.57207401899666
 30
0.0
 11
-156.47679395222343
 21
258.57207401899666
 31
5.0
  0
LINE
  5
11C
330
17
100
AcDbEntity
  8
0
100
AcDbLine
 10
-156.47679395222343
 20
258.57207401899666
 30
5.0
 11
-161.53036277026504
 21
249.9429696505632
 31
5.0
  0
LINE
  5
11D
330
17
100
AcDbEntity
  8
0
100
AcDbLine
 10
-260.6872630448028
 20
-3.9811146048376607
 30
5.0
 11
-256.9822762909758
 21
-3.9811146048376607
 31
5.0
  0
LINE
  5
11E
330
17
100
AcDbEntity
  8
0
100
AcDbLine
 10
-260.6872630448028
 20
-3.9811146048376607
 30
0.0
 11
-260.6872630448028
 21
-3.9811146048376607
 31
5.0
  0
LINE
  5
11F
330
17
100
AcDbEntity
  8
0
100
AcDbLine
 10
-138.7827269341563
 20
248.20967932205127
 30
5.0
 11
-156.47679395222346
 21
258.5720740189966
 31
5.0
  0
LINE
  5
120
330
17
100
AcDbEntity
  8
0
100
AcDbLine
 10
-138.78272693415616
 20
248.2096793220512
 30
5.0
 11
-138.78272693415616
 21
248.2096793220512
 31
0.0
  0
LINE
  5
121
330
17
100
AcDbEntity
  8
0
100
AcDbLine
 10
-260.6872630448028
 20
-4.707928555049779
 30
5.0
 11
-260.6872630448028
 21
-3.9811146048376607
 31
5.0
  0
LINE
  5
122
330
17
100
AcDbEntity
  8
0
100
AcDbLine
 10
-260.6872630448028
 20
-4.707928555049823
 30
0.0
 11
-260.6872630448028
 21
-4.707928555049823
 31
5.0
  0
ARC
  5
123
330
17
100
AcDbEntity
  8
0
100
AcDbCircle
 10
-120.17260870329369
 20
231.5164621535926
 30
5.0
 40
25.0
100
AcDbArc
 50
70.7683769781603
 51
138.10799512989334
  0
LINE
  5
124
330
17
100
AcDbEntity
  8
0
100
AcDbLine
 10
-111.93791314445694
 20
255.12133006369274
 30
5.0
 11
-111.93791314445694
 21
255.12133006369274
 31
0.0
  0
LINE
  5
125
330
17
100
AcDbEntity
  8
0
100
AcDbLine
 10
-396.92674224417254
 20
-26.196294949899823
 30
5.0
 11
-396.92674224417254
 21
-26.196294949899823
 31
0.0
  0
LINE
  5
126
330
17
100
AcDbEntity
  8
0
100
AcDbLine
 10
-260.6872630448028
 20
-4.707928555049779
 30
5.0
 11
-396.9267422441726
 21
-26.19629494989982
 31
5.0
  0
LINE
  5
127
330
17
100
AcDbEntity
  8
0
100
AcDbLine
 10
-101.44808131880235
 20
272.74014556771067
 30
5.0
 11
-111.93791314445701
 21
255.12133006369262
 31
5.0
  0
LINE
  5
128
330
17
100
AcDbEntity
  8
0
100
AcDbLine
 10
-101.44808131880235
 20
272.74014556771067
 30
0.0
 11
-101.44808131880235
 21
272.74014556771067
 31
5.0
  0
LINE
  5
129
330
17
100
AcDbEntity
  8
0
100
AcDbLine
 10
-419.22086781984376
 20
-9.976738351164855
 30
5.0
 11
-419.22086781984376
 21
-9.976738351164855
 31
0.0
  0
ARC
  5
12A
330
17
100
AcDbEntity
  8
0
100
AcDbCircle
 10
-420.34353253315476
 20
-34.95151810878206
 30
5.0
 40
25.0
100
AcDbArc
 50
20.500094512784756
 51
87.42617644715311
  0
LINE
  5
12B
330
17
100
AcDbEntity
  8
0
100
AcDbLine
 10
-92.85567587142256
 20
267.6244277658926
 30
0.0
 11
-92.85567587142256
 21
267.6244277658926
 31
5.0
  0
LINE
  5
12C
330
17
100
AcDbEntity
  8
0
100
AcDbLine
 10
-92.85567587142256
 20
267.6244277658926
 30
5.0
 11
-101.44808131880235
 21
272.74014556771067
 31
5.0
  0
LINE
  5
12D
330
17
100
AcDbEntity
  8
0
100
AcDbLine
 10
-422.4155412059156
 20
10.277972050405047
 30
0.0
 11
-422.4155412059156
 21
10.277972050405047
 31
5.0
  0
LINE
  5
12E
330
17
100
AcDbEntity
  8
0
100
AcDbLine
 10
-419.22086781984376
 20
-9.97673835116493
 30
5.0
 11
-422.4155412059156
 21
10.277972050405047
 31
5.0
  0
LINE
  5
12F
330
17
100
AcDbEntity
  8
0
100
AcDbLine
 10
-103.34550769707722
 20
250.0056122618746
 30
5.0
 11
-92.85567587142256
 21
267.6244277658926
 31
5.0
  0
LINE
  5
130
330
17
100
AcDbEntity
  8
0
100
AcDbLine
 10
-103.34550769707717
 20
250.0056122618747
 30
5.0
 11
-103.34550769707717
 21
250.0056122618747
 31
0.0
  0
LINE
  5
131
330
17
100
AcDbEntity
  8
0
100
AcDbLine
 10
-432.29342907810883
 20
8.719982581770061
 30
0.0
 11
-432.29342907810883
 21
8.719982581770061
 31
5.0
  0
LINE
  5
132
330
17
100
AcDbEntity
  8
0
100
AcDbLine
 10
-422.4155412059156
 20
10.277972050405047
 30
5.0
 11
-432.29342907810883
 21
8.719982581770058
 31
5.0
  0
LINE
  5
133
330
17
100
AcDbEntity
  8
0
100
AcDbLine
 10
-96.62778958203174
 20
223.1116128065158
 30
5.0
 11
-96.62778958203174
 21
223.1116128065158
 31
0.0
  0
ARC
  5
134
330
17
100
AcDbEntity
  8
0
100
AcDbCircle
 10
-120.17260870329369
 20
231.5164621535926
 30
5.0
 40
25.0
100
AcDbArc
 50
-19.64515923920439
 51
47.694458912528006
  0
LINE
  5
135
330
17
100
AcDbEntity
  8
0
100
AcDbLine
 10
-429.098755692037
 20
-11.53472781979984
 30
5.0
 11
-429.098755692037
 21
-11.53472781979984
 31
0.0
  0
LINE
  5
136
330
17
100
AcDbEntity
  8
0
100
AcDbLine
 10
-432.29342907810883
 20
8.719982581770061
 30
5.0
 11
-429.098755692037
 21
-11.534727819799862
 31
5.0
  0
LINE
  5
137
330
17
100
AcDbEntity
  8
0
100
AcDbLine
 10
-79.08514341025094
 20
212.49489029969453
 30
5.0
 11
-96.62778958203177
 21
223.1116128065157
 31
5.0
  0
LINE
  5
138
330
17
100
AcDbEntity
  8
0
100
AcDbLine
 10
-79.08514341025094
 20
212.49489029969453
 30
2.5
 11
-79.08514341025094
 21
212.49489029969453
 31
5.0
  0
LINE
  5
139
330
17
100
AcDbEntity
  8
0
100
AcDbLine
 10
-70.52988448870244
 20
207.3172900075452
 30
2.5
 11
-79.0851434102509
 21
212.49489029969462
 31
2.5
  0
LINE
  5
13A
330
17
100
AcDbEntity
  8
0
100
AcDbLine
 10
-70.52988448870244
 20
207.3172900075452
 30
2.5
 11
-70.52988448870244
 21
207.3172900075452
 31
5.0
  0
LINE
  5
13B
330
17
100
AcDbEntity
  8
0
100
AcDbLine
 10
-23.52186197239162
 20
178.86826779259104
 30
5.0
 11
-70.52988448870244
 21
207.3172900075452
 31
5.0
  0
LINE
  5
13C
330
17
100
AcDbEntity
  8
0
100
AcDbLine
 10
-23.52186197239162
 20
178.86826779259104
 30
0.0
 11
-23.52186197239162
 21
178.86826779259104
 31
5.0
  0
LINE
  5
13D
330
17
100
AcDbEntity
  8
0
100
AcDbLine
 10
-445.318312290772
 20
-33.828853395471064
 30
5.0
 11
-445.318312290772
 21
-33.828853395471064
 31
0.0
  0
ARC
  5
13E
330
17
100
AcDbEntity
  8
0
100
AcDbCircle
 10
-420.34353253315476
 20
-34.95151810878206
 30
5.0
 40
25.0
100
AcDbArc
 50
110.50009451278463
 51
177.42617644715315
  0
LINE
  5
13F
330
17
100
AcDbEntity
  8
0
100
AcDbLine
 10
-23.52186197239162
 20
178.86826779259104
 30
5.0
 11
-8.76255713803994
 21
251.6204331720769
 31
5.0
  0
LINE
  5
140
330
17
100
AcDbEntity
  8
0
100
AcDbLine
 10
-8.76255713803999
 20
251.62043317207673
 30
5.0
 11
-8.76255713803999
 21
251.62043317207673
 31
0.0
  0
LINE
  5
141
330
17
100
AcDbEntity
  8
0
100
AcDbLine
 10
-465.57302269234185
 20
-37.023526781542884
 30
0.0
 11
-465.57302269234185
 21
-37.023526781542884
 31
5.0
  0
LINE
  5
142
330
17
100
AcDbEntity
  8
0
100
AcDbLine
 10
-445.3183122907719
 20
-33.82885339547104
 30
5.0
 11
-465.5730226923419
 21
-37.023526781542884
 31
5.0
  0
ARC
  5
143
330
17
100
AcDbEntity
  8
0
100
AcDbCircle
 10
1.0077186051350306
 20
274.63220650448915
 30
5.0
 40
25.0
100
AcDbArc
 50
158.38322974771867
 51
246.99502654654054
  0
LINE
  5
144
330
17
100
AcDbEntity
  8
0
100
AcDbLine
 10
-22.233998830729373
 20
283.8421234765056
 30
5.0
 11
-22.233998830729373
 21
283.8421234765056
 31
0.0
  0
LINE
  5
145
330
17
100
AcDbEntity
  8
0
100
AcDbLine
 10
-464.0150332237069
 20
-46.90141465373614
 30
0.0
 11
-464.0150332237069
 21
-46.90141465373614
 31
5.0
  0
LINE
  5
146
330
17
100
AcDbEntity
  8
0
100
AcDbLine
 10
-465.57302269234185
 20
-37.023526781542884
 30
5.0
 11
-464.01503322370684
 21
-46.90141465373613
 31
5.0
  0
LINE
  5
147
330
17
100
AcDbEntity
  8
0
100
AcDbLine
 10
-39.40099864870743
 20
295.0561035346598
 30
5.0
 11
-22.233998830729465
 21
283.8421234765056
 31
5.0
  0
LINE
  5
148
330
17
100
AcDbEntity
  8
0
100
AcDbLine
 10
-39.40099864870743
 20
295.0561035346598
 30
0.0
 11
-39.40099864870743
 21
295.0561035346598
 31
5.0
  0
LINE
  5
149
330
17
100
AcDbEntity
  8
0
100
AcDbLine
 10
-443.7603228221369
 20
-43.7067412676643
 30
5.0
 11
-464.0150332237069
 21
-46.90141465373614
 31
5.0
  0
LINE
  5
14A
330
17
100
AcDbEntity
  8
0
100
AcDbLine
 10
-443.76032282213697
 20
-43.706741267664306
 30
5.0
 11
-443.76032282213697
 21
-43.706741267664306
 31
0.0
  0
LINE
  5
14B
330
17
100
AcDbEntity
  8
0
100
AcDbLine
 10
-33.93212570906405
 20
303.4281659311089
 30
0.0
 11
-33.93212570906405
 21
303.4281659311089
 31
5.0
  0
LINE
  5
14C
330
17
100
AcDbEntity
  8
0
100
AcDbLine
 10
-33.93212570906405
 20
303.4281659311089
 30
5.0
 11
-39.400998648707436
 21
295.0561035346598
 31
5.0
  0
LINE
  5
14D
330
17
100
AcDbEntity
  8
0
100
AcDbLine
 10
-421.46619724646575
 20
-59.926297866399274
 30
5.0
 11
-421.46619724646575
 21
-59.926297866399274
 31
0.0
  0
ARC
  5
14E
330
17
100
AcDbEntity
  8
0
100
AcDbCircle
 10
-420.34353253315476
 20
-34.95151810878206
 30
5.0
 40
25.0
100
AcDbArc
 50
200.50009451278476
 51
267.4261764471531
  0
LINE
  5
14F
330
17
100
AcDbEntity
  8
0
100
AcDbLine
 10
-16.76512589108631
 20
292.21418587295483
 30
5.0
 11
-33.93212570906405
 21
303.42816593110894
 31
5.0
  0
LINE
  5
150
330
17
100
AcDbEntity
  8
0
100
AcDbLine
 10
-16.765125891085987
 20
292.21418587295466
 30
5.0
 11
-16.765125891085987
 21
292.21418587295466
 31
0.0
  0
LINE
  5
151
330
17
100
AcDbEntity
  8
0
100
AcDbLine
 10
-418.271523860394
 20
-80.18100826796919
 30
0.0
 11
-418.271523860394
 21
-80.18100826796919
 31
5.0
  0
LINE
  5
152
330
17
100
AcDbEntity
  8
0
100
AcDbLine
 10
-421.4661972464658
 20
-59.926297866399196
 30
5.0
 11
-418.271523860394
 21
-80.18100826796919
 31
5.0
  0
ARC
  5
153
330
17
100
AcDbEntity
  8
0
100
AcDbCircle
 10
1.0077186051350306
 20
274.63220650448915
 30
5.0
 40
25.0
100
AcDbArc
 50
46.697514883267026
 51
135.30931168209048
  0
LINE
  5
154
330
17
100
AcDbEntity
  8
0
100
AcDbLine
 10
18.153966562925795
 20
292.8257817707736
 30
5.0
 11
18.153966562925795
 21
292.8257817707736
 31
0.0
  0
LINE
  5
155
330
17
100
AcDbEntity
  8
0
100
AcDbLine
 10
-408.39363598820074
 20
-78.6230187993342
 30
0.0
 11
-408.39363598820074
 21
-78.6230187993342
 31
5.0
  0
LINE
  5
156
330
17
100
AcDbEntity
  8
0
100
AcDbLine
 10
-418.271523860394
 20
-80.18100826796919
 30
5.0
 11
-408.39363598820074
 21
-78.6230187993342
 31
5.0
  0
LINE
  5
157
330
17
100
AcDbEntity
  8
0
100
AcDbLine
 10
34.917739659238016
 20
304.6340476498304
 30
5.0
 11
18.153966562925667
 21
292.82578177077346
 31
5.0
  0
LINE
  5
158
330
17
100
AcDbEntity
  8
0
100
AcDbLine
 10
34.917739659238016
 20
304.6340476498304
 30
0.0
 11
34.917739659238016
 21
304.6340476498304
 31
5.0
  0
LINE
  5
159
330
17
100
AcDbEntity
  8
0
100
AcDbLine
 10
-411.5883093742725
 20
-58.36830839776429
 30
5.0
 11
-411.5883093742725
 21
-58.36830839776429
 31
0.0
  0
LINE
  5
15A
330
17
100
AcDbEntity
  8
0
100
AcDbLine
 10
-408.39363598820074
 20
-78.6230187993342
 30
5.0
 11
-411.58830937427257
 21
-58.36830839776428
 31
5.0
  0
LINE
  5
15B
330
17
100
AcDbEntity
  8
0
100
AcDbLine
 10
40.676435982505545
 20
296.45863226855556
 30
0.0
 11
40.676435982505545
 21
296.45863226855556
 31
5.0
  0
LINE
  5
15C
330
17
100
AcDbEntity
  8
0
100
AcDbLine
 10
40.676435982505545
 20
296.45863226855556
 30
5.0
 11
34.91773965923802
 21
304.6340476498304
 31
5.0
  0
LINE
  5
15D
330
17
100
AcDbEntity
  8
0
100
AcDbLine
 10
-395.36875277553753
 20
-36.07418282209307
 30
5.0
 11
-395.36875277553753
 21
-36.07418282209307
 31
0.0
  0
ARC
  5
15E
330
17
100
AcDbEntity
  8
0
100
AcDbCircle
 10
-420.34353253315476
 20
-34.95151810878206
 30
5.0
 40
25.0
100
AcDbArc
 50
290.5000945127846
 51
357.4261764471532
  0
LINE
  5
15F
330
17
100
AcDbEntity
  8
0
100
AcDbLine
 10
23.912662886193317
 20
284.6503663894987
 30
5.0
 11
40.67643598250554
 21
296.45863226855556
 31
5.0
  0
LINE
  5
160
330
17
100
AcDbEntity
  8
0
100
AcDbLine
 10
23.912662886193317
 20
284.6503663894987
 30
5.0
 11
23.912662886193317
 21
284.6503663894987
 31
0.0
  0
LINE
  5
161
330
17
100
AcDbEntity
  8
0
100
AcDbLine
 10
-255.37953826471568
 20
-13.994389575571859
 30
0.0
 11
-255.37953826471568
 21
-13.994389575571859
 31
5.0
  0
LINE
  5
162
330
17
100
AcDbEntity
  8
0
100
AcDbLine
 10
-255.37953826471528
 20
-13.994389575571898
 30
5.0
 11
-395.3687527755376
 21
-36.074182822093064
 31
5.0
  0
LINE
  5
163
330
17
100
AcDbEntity
  8
0
100
AcDbLine
 10
11.577841258193239
 20
251.97668825618356
 30
5.0
 11
11.577841258193239
 21
251.97668825618356
 31
0.0
  0
ARC
  5
164
330
17
100
AcDbEntity
  8
0
100
AcDbCircle
 10
1.0077186051350306
 20
274.63220650448915
 30
5.0
 40
25.0
100
AcDbArc
 50
-64.98819998118688
 51
23.623596817634933
  0
LINE
  5
165
330
17
100
AcDbEntity
  8
0
100
AcDbLine
 10
-108.8663191629193
 20
-18.952249208133157
 30
5.0
 11
-108.8663191629193
 21
-18.952249208133157
 31
0.0
  0
LINE
  5
166
330
17
100
AcDbEntity
  8
0
100
AcDbLine
 10
-129.35969184336955
 20
-18.258774136257045
 30
5.0
 11
-108.86631916291962
 21
-18.952249208133296
 31
5.0
  0
LINE
  5
167
330
17
100
AcDbEntity
  8
0
100
AcDbLine
 10
-129.35969184336955
 20
-18.258774136257045
 30
2.5
 11
-129.35969184336955
 21
-18.258774136257045
 31
5.0
  0
LINE
  5
168
330
17
100
AcDbEntity
  8
0
100
AcDbLine
 10
-139.3539713688308
 20
-17.920577792475875
 30
2.5
 11
-129.3596918433696
 21
-18.258774136256914
 31
2.5
  0
LINE
  5
169
330
17
100
AcDbEntity
  8
0
100
AcDbLine
 10
-139.3539713688308
 20
-17.920577792475875
 30
2.5
 11
-139.3539713688308
 21
-17.920577792475875
 31
5.0
  0
LINE
  5
16A
330
17
100
AcDbEntity
  8
0
100
AcDbLine
 10
-255.37953826471528
 20
-13.994389575571907
 30
5.0
 11
-139.35397136883077
 21
-17.920577792475875
 31
5.0
  0
LINE
  5
16B
330
17
100
AcDbEntity
  8
0
100
AcDbLine
 10
16.35590676061117
 20
232.03604329294976
 30
5.0
 11
11.577841258193239
 21
251.97668825618365
 31
5.0
  0
LINE
  5
16C
330
17
100
AcDbEntity
  8
0
100
AcDbLine
 10
16.35590676061117
 20
232.03604329294976
 30
2.5
 11
16.35590676061117
 21
232.03604329294976
 31
5.0
  0
LINE
  5
16D
330
17
100
AcDbEntity
  8
0
100
AcDbLine
 10
18.686090423726903
 20
222.31131995003926
 30
2.5
 11
16.35590676061115
 21
232.03604329294976
 31
2.5
  0
LINE
  5
16E
330
17
100
AcDbEntity
  8
0
100
AcDbLine
 10
18.686090423726903
 20
222.31131995003926
 30
2.5
 11
18.686090423726903
 21
222.31131995003926
 31
5.0
  0
LINE
  5
16F
330
17
100
AcDbEntity
  8
0
100
AcDbLine
 10
24.754480227885416
 20
196.98567162604752
 30
5.0
 11
18.686090423726906
 21
222.31131995003926
 31
5.0
  0
LINE
  5
170
330
17
100
AcDbEntity
  8
0
100
AcDbLine
 10
24.754480227885416
 20
196.98567162604752
 30
5.0
 11
24.754480227885416
 21
196.98567162604752
 31
0.0
  0
LINE
  5
171
330
17
100
AcDbEntity
  8
0
100
AcDbLine
 10
-82.86711544160715
 20
-39.74708345925916
 30
5.0
 11
-82.86711544160715
 21
-39.74708345925916
 31
0.0
  0
ARC
  5
172
330
17
100
AcDbEntity
  8
0
100
AcDbCircle
 10
-84.21633580690359
 20
-14.783517920541145
 30
5.0
 40
25.0
100
AcDbArc
 50
189.598867144
 51
273.09368834022615
  0
LINE
  5
173
330
17
100
AcDbEntity
  8
0
100
AcDbLine
 10
40.312828789878594
 20
212.3823828871689
 30
5.0
 11
24.754480227885416
 21
196.98567162604752
 31
5.0
  0
LINE
  5
174
330
17
100
AcDbEntity
  8
0
100
AcDbLine
 10
40.312828789878594
 20
212.3823828871689
 30
2.5
 11
40.312828789878594
 21
212.3823828871689
 31
5.0
  0
LINE
  5
175
330
17
100
AcDbEntity
  8
0
100
AcDbLine
 10
47.420722527729865
 20
219.41643197794264
 30
2.5
 11
40.312828789878594
 21
212.38238288716892
 31
2.5
  0
LINE
  5
176
330
17
100
AcDbEntity
  8
0
100
AcDbLine
 10
47.42072252772988
 20
219.4164319779426
 30
2.5
 11
47.42072252772988
 21
219.4164319779426
 31
5.0
  0
LINE
  5
177
330
17
100
AcDbEntity
  8
0
100
AcDbLine
 10
61.99553154440132
 20
233.83982178834097
 30
5.0
 11
47.42072252772987
 21
219.4164319779426
 31
5.0
  0
LINE
  5
178
330
17
100
AcDbEntity
  8
0
100
AcDbLine
 10
61.99553154440112
 20
233.8398217883408
 30
5.0
 11
61.99553154440112
 21
233.8398217883408
 31
0.0
  0
LINE
  5
179
330
17
100
AcDbEntity
  8
0
100
AcDbLine
 10
-75.16192470160473
 20
-69.26303369974241
 30
5.0
 11
-26.210154302029558
 21
-256.78052263045333
 31
5.0
  0
LINE
  5
17A
330
17
100
AcDbEntity
  8
0
100
AcDbLine
 10
-75.16192470160473
 20
-69.26303369974241
 30
2.5
 11
-75.16192470160473
 21
-69.26303369974241
 31
5.0
  0
LINE
  5
17B
330
17
100
AcDbEntity
  8
0
100
AcDbLine
 10
-77.68779417598978
 20
-59.58729169210446
 30
2.5
 11
-75.16192470160473
 21
-69.26303369974242
 31
2.5
  0
LINE
  5
17C
330
17
100
AcDbEntity
  8
0
100
AcDbLine
 10
-77.68779417598988
 20
-59.58729169210448
 30
2.5
 11
-77.68779417598988
 21
-59.58729169210448
 31
5.0
  0
LINE
  5
17D
330
17
100
AcDbEntity
  8
0
100
AcDbLine
 10
-82.86711544160728
 20
-39.74708345925909
 30
5.0
 11
-77.68779417598986
 21
-59.58729169210448
 31
5.0
  0
LINE
  5
17E
330
17
100
AcDbEntity
  8
0
100
AcDbLine
 10
-26.21015430202956
 20
-256.78052263045333
 30
5.0
 11
-26.21015430202956
 21
-256.78052263045333
 31
0.0
  0
ARC
  5
17F
330
17
100
AcDbEntity
  8
0
100
AcDbCircle
 10
82.92326889344747
 20
247.51570601749873
 30
5.0
 40
25.0
100
AcDbArc
 50
123.2340904356473
 51
213.16386367484145
  0
LINE
  5
180
330
17
100
AcDbEntity
  8
0
100
AcDbLine
 10
69.22174406272885
 20
268.426665280842
 30
5.0
 11
69.22174406272885
 21
268.426665280842
 31
0.0
  0
LINE
  5
181
330
17
100
AcDbEntity
  8
0
100
AcDbLine
 10
-86.43521274920822
 20
-379.5033585243264
 30
5.0
 11
-86.43521274920822
 21
-379.5033585243264
 31
0.0
  0
LINE
  5
182
330
17
100
AcDbEntity
  8
0
100
AcDbLine
 10
-77.4016655107132
 20
-361.0953641798841
 30
5.0
 11
-86.43521274920805
 21
-379.50335852432613
 31
5.0
  0
LINE
  5
183
330
17
100
AcDbEntity
  8
0
100
AcDbLine
 10
-77.4016655107132
 20
-361.0953641798841
 30
2.5
 11
-77.4016655107132
 21
-361.0953641798841
 31
5.0
  0
LINE
  5
184
330
17
100
AcDbEntity
  8
0
100
AcDbLine
 10
-72.99615365984525
 20
-352.1180892408024
 30
2.5
 11
-77.40166551071319
 21
-361.095364179884
 31
2.5
  0
LINE
  5
185
330
17
100
AcDbEntity
  8
0
100
AcDbLine
 10
-72.99615365984525
 20
-352.1180892408024
 30
2.5
 11
-72.99615365984525
 21
-352.1180892408024
 31
5.0
  0
LINE
  5
186
330
17
100
AcDbEntity
  8
0
100
AcDbLine
 10
-26.210154302029604
 20
-256.78052263045333
 30
5.0
 11
-72.99615365984525
 21
-352.1180892408025
 31
5.0
  0
LINE
  5
187
330
17
100
AcDbEntity
  8
0
100
AcDbLine
 10
61.641002752836314
 20
287.47900352809205
 30
5.0
 11
69.22174406272883
 21
268.42666528084203
 31
5.0
  0
LINE
  5
188
330
17
100
AcDbEntity
  8
0
100
AcDbLine
 10
61.641002752836314
 20
287.47900352809205
 30
0.0
 11
61.641002752836314
 21
287.47900352809205
 31
5.0
  0
LINE
  5
189
330
17
100
AcDbEntity
  8
0
100
AcDbLine
 10
-112.52481832606901
 20
-388.4159637712337
 30
5.0
 11
-112.52481832606901
 21
-388.4159637712337
 31
0.0
  0
ARC
  5
18A
330
17
100
AcDbEntity
  8
0
100
AcDbCircle
 10
-92.73783137007815
 20
-403.69585733118515
 30
5.0
 40
25.0
100
AcDbArc
 50
75.39790483331667
 51
142.32398676768773
  0
LINE
  5
18B
330
17
100
AcDbEntity
  8
0
100
AcDbLine
 10
70.93251357566439
 20
291.1760059123581
 30
0.0
 11
70.93251357566439
 21
291.1760059123581
 31
5.0
  0
LINE
  5
18C
330
17
100
AcDbEntity
  8
0
100
AcDbLine
 10
70.93251357566439
 20
291.1760059123581
 30
5.0
 11
61.64100275283631
 21
287.4790035280921
 31
5.0
  0
LINE
  5
18D
330
17
100
AcDbEntity
  8
0
100
AcDbLine
 10
-193.77373724408233
 20
-348.543833576663
 30
0.0
 11
-193.77373724408233
 21
-348.543833576663
 31
5.0
  0
LINE
  5
18E
330
17
100
AcDbEntity
  8
0
100
AcDbLine
 10
-112.52481832606908
 20
-388.4159637712336
 30
5.0
 11
-193.77373724408233
 21
-348.543833576663
 31
5.0
  0
LINE
  5
18F
330
17
100
AcDbEntity
  8
0
100
AcDbLine
 10
78.51325488555702
 20
272.12366766510775
 30
5.0
 11
70.9325135756644
 21
291.1760059123581
 31
5.0
  0
LINE
  5
190
330
17
100
AcDbEntity
  8
0
100
AcDbLine
 10
78.51325488555693
 20
272.123667665108
 30
5.0
 11
78.51325488555693
 21
272.123667665108
 31
0.0
  0
LINE
  5
191
330
17
100
AcDbEntity
  8
0
100
AcDbLine
 10
-198.17924909495025
 20
-357.52110851574463
 30
0.0
 11
-198.17924909495025
 21
-357.52110851574463
 31
5.0
  0
LINE
  5
192
330
17
100
AcDbEntity
  8
0
100
AcDbLine
 10
-193.77373724408233
 20
-348.543833576663
 30
5.0
 11
-198.17924909495028
 21
-357.5211085157446
 31
5.0
  0
ARC
  5
193
330
17
100
AcDbEntity
  8
0
100
AcDbCircle
 10
82.92326889344747
 20
247.51570601749873
 30
5.0
 40
25.0
100
AcDbArc
 50
10.230399130820459
 51
100.16017237001509
  0
LINE
  5
194
330
17
100
AcDbEntity
  8
0
100
AcDbLine
 10
107.52580675587274
 20
251.9558783934242
 30
5.0
 11
107.52580675587274
 21
251.9558783934242
 31
0.0
  0
LINE
  5
195
330
17
100
AcDbEntity
  8
0
100
AcDbLine
 10
-116.93033017693693
 20
-397.39323871031525
 30
5.0
 11
-116.93033017693693
 21
-397.39323871031525
 31
0.0
  0
LINE
  5
196
330
17
100
AcDbEntity
  8
0
100
AcDbLine
 10
-198.17924909495025
 20
-357.52110851574463
 30
5.0
 11
-116.93033017693719
 21
-397.3932387103151
 31
5.0
  0
LINE
  5
197
330
17
100
AcDbEntity
  8
0
100
AcDbLine
 10
128.02557810911685
 20
251.4883252308318
 30
5.0
 11
107.5258067558728
 21
251.95587839342423
 31
5.0
  0
LINE
  5
198
330
17
100
AcDbEntity
  8
0
100
AcDbLine
 10
128.02557810911685
 20
251.4883252308318
 30
0.0
 11
128.02557810911685
 21
251.4883252308318
 31
5.0
  0
LINE
  5
199
330
17
100
AcDbEntity
  8
0
100
AcDbLine
 10
-108.0177249300297
 20
-423.48284428717596
 30
5.0
 11
-108.0177249300297
 21
-423.48284428717596
 31
0.0
  0
ARC
  5
19A
330
17
100
AcDbEntity
  8
0
100
AcDbCircle
 10
-92.73783137007815
 20
-403.69585733118515
 30
5.0
 40
25.0
100
AcDbArc
 50
165.3979048333167
 51
232.32398676768761
  0
LINE
  5
19B
330
17
100
AcDbEntity
  8
0
100
AcDbLine
 10
127.79756015068585
 20
241.4909251782865
 30
0.0
 11
127.79756015068585
 21
241.4909251782865
 31
5.0
  0
LINE
  5
19C
330
17
100
AcDbEntity
  8
0
100
AcDbLine
 10
127.79756015068585
 20
241.4909251782865
 30
5.0
 11
128.02557810911688
 21
251.4883252308318
 31
5.0
  0
LINE
  5
19D
330
17
100
AcDbEntity
  8
0
100
AcDbLine
 10
-117.05127216852469
 20
-441.8908386316183
 30
0.0
 11
-117.05127216852469
 21
-441.8908386316183
 31
5.0
  0
LINE
  5
19E
330
17
100
AcDbEntity
  8
0
100
AcDbLine
 10
-108.01772493002973
 20
-423.482844287176
 30
5.0
 11
-117.05127216852469
 21
-441.8908386316183
 31
5.0
  0
LINE
  5
19F
330
17
100
AcDbEntity
  8
0
100
AcDbLine
 10
107.29778879744188
 20
241.95847834087894
 30
5.0
 11
127.79756015068585
 21
241.49092517828652
 31
5.0
  0
LINE
  5
1A0
330
17
100
AcDbEntity
  8
0
100
AcDbLine
 10
107.2977887974417
 20
241.9584783408789
 30
5.0
 11
107.2977887974417
 21
241.9584783408789
 31
0.0
  0
LINE
  5
1A1
330
17
100
AcDbEntity
  8
0
100
AcDbLine
 10
-108.07399722944311
 20
-446.2963504824862
 30
0.0
 11
-108.07399722944311
 21
-446.2963504824862
 31
5.0
  0
LINE
  5
1A2
330
17
100
AcDbEntity
  8
0
100
AcDbLine
 10
-117.05127216852469
 20
-441.8908386316183
 30
5.0
 11
-108.07399722944311
 21
-446.2963504824862
 31
5.0
  0
ARC
  5
1A3
330
17
100
AcDbEntity
  8
0
100
AcDbCircle
 10
82.92326889344747
 20
247.51570601749873
 30
5.0
 40
25.0
100
AcDbArc
 50
257.22670782599437
 51
347.15648106519103
  0
LINE
  5
1A4
330
17
100
AcDbEntity
  8
0
100
AcDbLine
 10
77.39592094509426
 20
223.13439299588657
 30
5.0
 11
77.39592094509426
 21
223.13439299588657
 31
0.0
  0
LINE
  5
1A5
330
17
100
AcDbEntity
  8
0
100
AcDbLine
 10
-99.04044999094823
 20
-427.8883561380441
 30
5.0
 11
-108.07399722944311
 21
-446.2963504824862
 31
5.0
  0
LINE
  5
1A6
330
17
100
AcDbEntity
  8
0
100
AcDbLine
 10
-99.04044999094812
 20
-427.8883561380439
 30
5.0
 11
-99.04044999094812
 21
-427.8883561380439
 31
0.0
  0
LINE
  5
1A7
330
17
100
AcDbEntity
  8
0
100
AcDbLine
 10
40.730795688365205
 20
141.96886443022458
 30
5.0
 11
40.730795688365205
 21
141.96886443022458
 31
0.0
  0
LINE
  5
1A8
330
17
100
AcDbEntity
  8
0
100
AcDbLine
 10
40.73079568836522
 20
141.96886443022458
 30
5.0
 11
77.39592094509428
 21
223.13439299588657
 31
5.0
  0
LINE
  5
1A9
330
17
100
AcDbEntity
  8
0
100
AcDbLine
 10
-72.95084441408733
 20
-418.97575089113667
 30
5.0
 11
-72.95084441408733
 21
-418.97575089113667
 31
0.0
  0
ARC
  5
1AA
330
17
100
AcDbEntity
  8
0
100
AcDbCircle
 10
-92.73783137007815
 20
-403.69585733118515
 30
5.0
 40
25.0
100
AcDbArc
 50
255.3979048333167
 51
322.32398676768787
  0
LINE
  5
1AB
330
17
100
AcDbEntity
  8
0
100
AcDbLine
 10
154.31262919054384
 20
116.62397957685707
 30
2.5
 11
154.31262919054384
 21
116.62397957685707
 31
5.0
  0
LINE
  5
1AC
330
17
100
AcDbEntity
  8
0
100
AcDbLine
 10
164.0725948979402
 20
114.44612067636633
 30
2.5
 11
154.31262919054382
 21
116.62397957685707
 31
2.5
  0
LINE
  5
1AD
330
17
100
AcDbEntity
  8
0
100
AcDbLine
 10
164.07259489794023
 20
114.4461206763664
 30
2.5
 11
164.07259489794023
 21
114.4461206763664
 31
5.0
  0
LINE
  5
1AE
330
17
100
AcDbEntity
  8
0
100
AcDbLine
 10
184.0855046910409
 20
109.98039866213922
 30
5.0
 11
164.07259489794023
 21
114.44612067636642
 31
5.0
  0
LINE
  5
1AF
330
17
100
AcDbEntity
  8
0
100
AcDbLine
 10
184.0855046910409
 20
109.98039866213912
 30
5.0
 11
184.0855046910409
 21
109.98039866213912
 31
0.0
  0
LINE
  5
1B0
330
17
100
AcDbEntity
  8
0
100
AcDbLine
 10
154.31262919054384
 20
116.62397957685707
 30
5.0
 11
40.73079568836522
 21
141.96886443022458
 31
5.0
  0
LINE
  5
1B1
330
17
100
AcDbEntity
  8
0
100
AcDbLine
 10
-54.542850069645034
 20
-428.0092981296317
 30
0.0
 11
-54.542850069645034
 21
-428.0092981296317
 31
5.0
  0
LINE
  5
1B2
330
17
100
AcDbEntity
  8
0
100
AcDbLine
 10
-72.95084441408724
 20
-418.9757508911367
 30
5.0
 11
-54.54285006964504
 21
-428.0092981296317
 31
5.0
  0
ARC
  5
1B3
330
17
100
AcDbEntity
  8
0
100
AcDbCircle
 10
206.9035111309786
 20
99.76577277045992
 30
5.0
 40
25.0
100
AcDbArc
 50
87.90576078284211
 51
155.88402009924118
  0
LINE
  5
1B4
330
17
100
AcDbEntity
  8
0
100
AcDbLine
 10
207.81709191647425
 20
124.74907459684734
 30
5.0
 11
207.81709191647425
 21
124.74907459684734
 31
0.0
  0
LINE
  5
1B5
330
17
100
AcDbEntity
  8
0
100
AcDbLine
 10
-50.137338218777096
 20
-419.0320231905501
 30
0.0
 11
-50.137338218777096
 21
-419.0320231905501
 31
5.0
  0
LINE
  5
1B6
330
17
100
AcDbEntity
  8
0
100
AcDbLine
 10
-54.542850069645034
 20
-428.0092981296317
 30
5.0
 11
-50.13733821877709
 21
-419.03202319055015
 31
5.0
  0
LINE
  5
1B7
330
17
100
AcDbEntity
  8
0
100
AcDbLine
 10
212.64955656428884
 20
144.67660622830542
 30
5.0
 11
207.81709191647425
 21
124.74907459684724
 31
5.0
  0
LINE
  5
1B8
330
17
100
AcDbEntity
  8
0
100
AcDbLine
 10
212.64955656428884
 20
144.67660622830542
 30
0.0
 11
212.64955656428884
 21
144.67660622830542
 31
5.0
  0
LINE
  5
1B9
330
17
100
AcDbEntity
  8
0
100
AcDbLine
 10
-68.54533256321938
 20
-409.9984759520551
 30
5.0
 11
-68.54533256321938
 21
-409.9984759520551
 31
0.0
  0
LINE
  5
1BA
330
17
100
AcDbEntity
  8
0
100
AcDbLine
 10
-50.137338218777096
 20
-419.0320231905501
 30
5.0
 11
-68.54533256321912
 21
-409.99847595205523
 31
5.0
  0
LINE
  5
1BB
330
17
100
AcDbEntity
  8
0
100
AcDbLine
 10
222.36788475178395
 20
142.31989300007035
 30
0.0
 11
222.36788475178395
 21
142.31989300007035
 31
5.0
  0
LINE
  5
1BC
330
17
100
AcDbEntity
  8
0
100
AcDbLine
 10
222.36788475178395
 20
142.31989300007035
 30
5.0
 11
212.64955656428884
 21
144.67660622830542
 31
5.0
  0
ARC
  5
1BD
330
17
100
AcDbEntity
  8
0
100
AcDbCircle
 10
-92.73783137007815
 20
-403.69585733118515
 30
5.0
 40
25.0
100
AcDbArc
 50
-14.602095166683313
 51
52.32398676768763
  0
LINE
  5
1BE
330
17
100
AcDbEntity
  8
0
100
AcDbLine
 10
-77.45793781012661
 20
-383.90887037519434
 30
5.0
 11
-77.45793781012661
 21
-383.90887037519434
 31
0.0
  0
LINE
  5
1BF
330
17
100
AcDbEntity
  8
0
100
AcDbLine
 10
217.53542010396941
 20
122.39236136861251
 30
5.0
 11
222.36788475178395
 21
142.31989300007035
 31
5.0
  0
LINE
  5
1C0
330
17
100
AcDbEntity
  8
0
100
AcDbLine
 10
217.53542010396936
 20
122.39236136861227
 30
5.0
 11
217.53542010396936
 21
122.39236136861227
 31
0.0
  0
LINE
  5
1C1
330
17
100
AcDbEntity
  8
0
100
AcDbLine
 10
-64.01887872076367
 20
-356.5236010916704
 30
5.0
 11
-22.021118490166153
 21
-270.94320699026287
 31
5.0
  0
LINE
  5
1C2
330
17
100
AcDbEntity
  8
0
100
AcDbLine
 10
-64.01887872076367
 20
-356.5236010916704
 30
2.5
 11
-64.01887872076367
 21
-356.5236010916704
 31
5.0
  0
LINE
  5
1C3
330
17
100
AcDbEntity
  8
0
100
AcDbLine
 10
-68.42439057163162
 20
-365.500876030752
 30
2.5
 11
-64.01887872076368
 21
-356.52360109167046
 31
2.5
  0
LINE
  5
1C4
330
17
100
AcDbEntity
  8
0
100
AcDbLine
 10
-68.42439057163162
 20
-365.500876030752
 30
2.5
 11
-68.42439057163162
 21
-365.500876030752
 31
5.0
  0
LINE
  5
1C5
330
17
100
AcDbEntity
  8
0
100
AcDbLine
 10
-68.42439057163162
 20
-365.500876030752
 30
5.0
 11
-77.45793781012658
 21
-383.9088703751943
 31
5.0
  0
LINE
  5
1C6
330
17
100
AcDbEntity
  8
0
100
AcDbLine
 10
-22.021118490166153
 20
-270.94320699026287
 30
5.0
 11
-22.021118490166153
 21
-270.94320699026287
 31
0.0
  0
LINE
  5
1C7
330
17
100
AcDbEntity
  8
0
100
AcDbLine
 10
231.86582443597152
 20
98.39357946652173
 30
5.0
 11
231.86582443597152
 21
98.39357946652173
 31
0.0
  0
ARC
  5
1C8
330
17
100
AcDbEntity
  8
0
100
AcDbCircle
 10
206.9035111309786
 20
99.76577277045992
 30
5.0
 40
25.0
100
AcDbArc
 50
-3.1464165991905304
 51
64.83184271721203
  0
LINE
  5
1C9
330
17
100
AcDbEntity
  8
0
100
AcDbLine
 10
15.041326714548791
 20
-394.0252014434614
 30
5.0
 11
15.041326714548791
 21
-394.0252014434614
 31
0.0
  0
LINE
  5
1CA
330
17
100
AcDbEntity
  8
0
100
AcDbLine
 10
9.129058025791124
 20
-374.39093775858964
 30
5.0
 11
15.041326714548793
 21
-394.0252014434616
 31
5.0
  0
LINE
  5
1CB
330
17
100
AcDbEntity
  8
0
100
AcDbLine
 10
9.129058025791124
 20
-374.39093775858964
 30
2.5
 11
9.129058025791124
 21
-374.39093775858964
 31
5.0
  0
LINE
  5
1CC
330
17
100
AcDbEntity
  8
0
100
AcDbLine
 10
6.245742193573669
 20
-364.8156315070025
 30
2.5
 11
9.129058025791164
 21
-374.39093775858964
 31
2.5
  0
LINE
  5
1CD
330
17
100
AcDbEntity
  8
0
100
AcDbLine
 10
6.245742193573669
 20
-364.8156315070025
 30
2.5
 11
6.245742193573669
 21
-364.8156315070025
 31
5.0
  0
LINE
  5
1CE
330
17
100
AcDbEntity
  8
0
100
AcDbLine
 10
-22.021118490166153
 20
-270.94320699026287
 30
5.0
 11
6.245742193573669
 21
-364.8156315070024
 31
5.0
  0
LINE
  5
1CF
330
17
100
AcDbEntity
  8
0
100
AcDbLine
 10
319.41515162736937
 20
75.45259213091975
 30
5.0
 11
231.86582443597177
 21
98.39357946652166
 31
5.0
  0
LINE
  5
1D0
330
17
100
AcDbEntity
  8
0
100
AcDbLine
 10
319.41515162736937
 20
75.45259213091975
 30
0.0
 11
319.41515162736937
 21
75.45259213091975
 31
5.0
  0
LINE
  5
1D1
330
17
100
AcDbEntity
  8
0
100
AcDbLine
 10
1.9953600331843084
 20
-418.3131574050507
 30
5.0
 11
1.9953600331843084
 21
-418.3131574050507
 31
0.0
  0
ARC
  5
1D2
330
17
100
AcDbEntity
  8
0
100
AcDbCircle
 10
26.891632396563413
 20
-416.03815797462306
 30
5.0
 40
25.0
100
AcDbArc
 50
118.29505571223218
 51
185.22113764660028
  0
LINE
  5
1D3
330
17
100
AcDbEntity
  8
0
100
AcDbLine
 10
316.880378815272
 20
65.77917873175957
 30
0.0
 11
316.880378815272
 21
65.77917873175957
 31
5.0
  0
LINE
  5
1D4
330
17
100
AcDbEntity
  8
0
100
AcDbLine
 10
316.880378815272
 20
65.77917873175957
 30
5.0
 11
319.4151516273694
 21
75.45259213091975
 31
5.0
  0
LINE
  5
1D5
330
17
100
AcDbEntity
  8
0
100
AcDbLine
 10
-84.66604741279754
 20
-444.40863691933066
 30
0.0
 11
-84.66604741279754
 21
-444.40863691933066
 31
5.0
  0
LINE
  5
1D6
330
17
100
AcDbEntity
  8
0
100
AcDbLine
 10
1.9953600331843226
 20
-418.3131574050506
 30
5.0
 11
-84.66604741279755
 21
-444.4086369193307
 31
5.0
  0
LINE
  5
1D7
330
17
100
AcDbEntity
  8
0
100
AcDbLine
 10
229.3310516238742
 20
88.72016606736152
 30
5.0
 11
316.880378815272
 21
65.77917873175957
 31
5.0
  0
LINE
  5
1D8
330
17
100
AcDbEntity
  8
0
100
AcDbLine
 10
229.33105162387412
 20
88.72016606736155
 30
5.0
 11
229.33105162387412
 21
88.72016606736155
 31
0.0
  0
LINE
  5
1D9
330
17
100
AcDbEntity
  8
0
100
AcDbLine
 10
-81.78273158058003
 20
-453.9839431709178
 30
0.0
 11
-81.78273158058003
 21
-453.9839431709178
 31
5.0
  0
LINE
  5
1DA
330
17
100
AcDbEntity
  8
0
100
AcDbLine
 10
-84.66604741279754
 20
-444.40863691933066
 30
5.0
 11
-81.78273158058005
 21
-453.9839431709178
 31
5.0
  0
ARC
  5
1DB
330
17
100
AcDbEntity
  8
0
100
AcDbCircle
 10
206.9035111309786
 20
99.76577277045992
 30
5.0
 40
25.0
100
AcDbArc
 50
265.8014060187795
 51
333.7796653351806
  0
LINE
  5
1DC
330
17
100
AcDbEntity
  8
0
100
AcDbLine
 10
205.07316804722046
 20
74.83286591634965
 30
5.0
 11
205.07316804722046
 21
74.83286591634965
 31
0.0
  0
LINE
  5
1DD
330
17
100
AcDbEntity
  8
0
100
AcDbLine
 10
4.878675865401799
 20
-427.8884636566377
 30
5.0
 11
4.878675865401799
 21
-427.8884636566377
 31
0.0
  0
LINE
  5
1DE
330
17
100
AcDbEntity
  8
0
100
AcDbLine
 10
-81.78273158058003
 20
-453.9839431709178
 30
5.0
 11
4.878675865401945
 21
-427.88846365663767
 31
5.0
  0
LINE
  5
1DF
330
17
100
AcDbEntity
  8
0
100
AcDbLine
 10
199.51223014910502
 20
55.09621976791697
 30
5.0
 11
205.07316804722046
 21
74.83286591634946
 31
5.0
  0
LINE
  5
1E0
330
17
100
AcDbEntity
  8
0
100
AcDbLine
 10
199.51223014910502
 20
55.09621976791697
 30
2.5
 11
199.51223014910502
 21
55.09621976791697
 31
5.0
  0
LINE
  5
1E1
330
17
100
AcDbEntity
  8
0
100
AcDbLine
 10
198.21961490180396
 20
50.50852427311661
 30
2.5
 11
199.512230149105
 21
55.096219767917
 31
2.5
  0
LINE
  5
1E2
330
17
100
AcDbEntity
  8
0
100
AcDbLine
 10
198.219614901804
 20
50.50852427311662
 30
0.0
 11
198.219614901804
 21
50.50852427311662
 31
2.5
  0
LINE
  5
1E3
330
17
100
AcDbEntity
  8
0
100
AcDbLine
 10
29.166631826990933
 20
-440.9344303380022
 30
5.0
 11
29.166631826990933
 21
-440.9344303380022
 31
0.0
  0
ARC
  5
1E4
330
17
100
AcDbEntity
  8
0
100
AcDbCircle
 10
26.891632396563413
 20
-416.03815797462306
 30
5.0
 40
25.0
100
AcDbArc
 50
208.29505571223214
 51
275.22113764660025
  0
LINE
  5
1E5
330
17
100
AcDbEntity
  8
0
100
AcDbLine
 10
193.8534423280065
 20
51.467625102443904
 30
2.5
 11
198.219614901804
 21
50.50852427311661
 31
2.5
  0
LINE
  5
1E6
330
17
100
AcDbEntity
  8
0
100
AcDbLine
 10
193.8534423280063
 20
51.46762510244397
 30
5.0
 11
193.8534423280063
 21
51.46762510244397
 31
2.5
  0
LINE
  5
1E7
330
17
100
AcDbEntity
  8
0
100
AcDbLine
 10
213.88103884766974
 20
47.068237742742085
 30
5.0
 11
193.8534423280065
 21
51.467625102443904
 31
5.0
  0
LINE
  5
1E8
330
17
100
AcDbEntity
  8
0
100
AcDbLine
 10
213.88103884766974
 20
47.068237742742085
 30
0.0
 11
213.88103884766974
 21
47.068237742742085
 31
5.0
  0
LINE
  5
1E9
330
17
100
AcDbEntity
  8
0
100
AcDbLine
 10
35.078900515748565
 20
-460.56869402287396
 30
0.0
 11
35.078900515748565
 21
-460.56869402287396
 31
5.0
  0
LINE
  5
1EA
330
17
100
AcDbEntity
  8
0
100
AcDbLine
 10
29.16663182699094
 20
-440.9344303380022
 30
5.0
 11
35.078900515748565
 21
-460.56869402287396
 31
5.0
  0
LINE
  5
1EB
330
17
100
AcDbEntity
  8
0
100
AcDbLine
 10
211.7355302630537
 20
37.30110956126832
 30
0.0
 11
211.7355302630537
 21
37.30110956126832
 31
5.0
  0
LINE
  5
1EC
330
17
100
AcDbEntity
  8
0
100
AcDbLine
 10
211.7355302630537
 20
37.30110956126832
 30
5.0
 11
213.8810388476697
 21
47.068237742742085
 31
5.0
  0
LINE
  5
1ED
330
17
100
AcDbEntity
  8
0
100
AcDbLine
 10
44.65420676733571
 20
-457.6853781906565
 30
0.0
 11
44.65420676733571
 21
-457.6853781906565
 31
5.0
  0
LINE
  5
1EE
330
17
100
AcDbEntity
  8
0
100
AcDbLine
 10
35.078900515748565
 20
-460.56869402287396
 30
5.0
 11
44.654206767335715
 21
-457.6853781906565
 31
5.0
  0
LINE
  5
1EF
330
17
100
AcDbEntity
  8
0
100
AcDbLine
 10
195.5030051992673
 20
40.866847742160424
 30
5.0
 11
211.73553026305373
 21
37.30110956126832
 31
5.0
  0
LINE
  5
1F0
330
17
100
AcDbEntity
  8
0
100
AcDbLine
 10
195.5030051992673
 20
40.86684774216043
 30
5.0
 11
195.5030051992673
 21
40.86684774216043
 31
0.0
  0
LINE
  5
1F1
330
17
100
AcDbEntity
  8
0
100
AcDbLine
 10
38.74193807857804
 20
-438.05111450578454
 30
5.0
 11
44.65420676733571
 21
-457.6853781906565
 31
5.0
  0
LINE
  5
1F2
330
17
100
AcDbEntity
  8
0
100
AcDbLine
 10
38.74193807857813
 20
-438.05111450578465
 30
5.0
 11
38.74193807857813
 21
-438.05111450578465
 31
0.0
  0
LINE
  5
1F3
330
17
100
AcDbEntity
  8
0
100
AcDbLine
 10
169.8454899649709
 20
-50.19572272800017
 30
5.0
 11
195.5030051992673
 21
40.86684774216041
 31
5.0
  0
LINE
  5
1F4
330
17
100
AcDbEntity
  8
0
100
AcDbLine
 10
169.8454899649709
 20
-50.19572272800013
 30
5.0
 11
169.8454899649709
 21
-50.19572272800013
 31
0.0
  0
ARC
  5
1F5
330
17
100
AcDbEntity
  8
0
100
AcDbCircle
 10
26.891632396563413
 20
-416.03815797462306
 30
5.0
 40
25.0
100
AcDbArc
 50
-61.70494428776786
 51
5.221137646600653
  0
LINE
  5
1F6
330
17
100
AcDbEntity
  8
0
100
AcDbLine
 10
51.78790475994252
 20
-413.76315854419545
 30
5.0
 11
51.78790475994252
 21
-413.76315854419545
 31
0.0
  0
LINE
  5
1F7
330
17
100
AcDbEntity
  8
0
100
AcDbLine
 10
169.8454899649709
 20
-54.504781345615825
 30
5.0
 11
169.8454899649709
 21
-50.19572272800017
 31
5.0
  0
LINE
  5
1F8
330
17
100
AcDbEntity
  8
0
100
AcDbLine
 10
169.8454899649709
 20
-54.504781345615825
 30
0.0
 11
169.8454899649709
 21
-54.504781345615825
 31
5.0
  0
LINE
  5
1F9
330
17
100
AcDbEntity
  8
0
100
AcDbLine
 10
71.42216844481433
 20
-407.8508898554379
 30
0.0
 11
71.42216844481433
 21
-407.8508898554379
 31
5.0
  0
LINE
  5
1FA
330
17
100
AcDbEntity
  8
0
100
AcDbLine
 10
51.78790475994258
 20
-413.7631585441955
 30
5.0
 11
71.42216844481433
 21
-407.8508898554379
 31
5.0
  0
LINE
  5
1FB
330
17
100
AcDbEntity
  8
0
100
AcDbLine
 10
168.81556562936703
 20
-54.504781345615825
 30
5.0
 11
169.8454899649709
 21
-54.504781345615825
 31
5.0
  0
LINE
  5
1FC
330
17
100
AcDbEntity
  8
0
100
AcDbLine
 10
168.81556562936703
 20
-54.504781345615825
 30
5.0
 11
168.81556562936703
 21
-54.504781345615825
 31
0.0
  0
LINE
  5
1FD
330
17
100
AcDbEntity
  8
0
100
AcDbLine
 10
68.53885261259684
 20
-398.27558360385075
 30
0.0
 11
68.53885261259684
 21
-398.27558360385075
 31
5.0
  0
LINE
  5
1FE
330
17
100
AcDbEntity
  8
0
100
AcDbLine
 10
71.42216844481433
 20
-407.8508898554379
 30
5.0
 11
68.53885261259684
 21
-398.27558360385075
 31
5.0
  0
LINE
  5
1FF
330
17
100
AcDbEntity
  8
0
100
AcDbLine
 10
142.30084874001432
 20
-168.44691607527787
 30
2.5
 11
144.56732545013318
 21
-158.70714794033293
 31
2.5
  0
LINE
  5
200
330
17
100
AcDbEntity
  8
0
100
AcDbLine
 10
142.30084874001432
 20
-168.44691607527784
 30
2.5
 11
142.30084874001432
 21
-168.44691607527784
 31
5.0
  0
LINE
  5
201
330
17
100
AcDbEntity
  8
0
100
AcDbLine
 10
137.65341499817268
 20
-188.41841053889559
 30
5.0
 11
142.30084874001432
 21
-168.44691607527784
 31
5.0
  0
LINE
  5
202
330
17
100
AcDbEntity
  8
0
100
AcDbLine
 10
137.6534149981726
 20
-188.41841053889598
 30
5.0
 11
137.6534149981726
 21
-188.41841053889598
 31
0.0
  0
LINE
  5
203
330
17
100
AcDbEntity
  8
0
100
AcDbLine
 10
144.56732545013318
 20
-158.70714794033293
 30
5.0
 11
168.81556562936703
 21
-54.504781345615825
 31
5.0
  0
LINE
  5
204
330
17
100
AcDbEntity
  8
0
100
AcDbLine
 10
144.56732545013318
 20
-158.70714794033293
 30
2.5
 11
144.56732545013318
 21
-158.70714794033293
 31
5.0
  0
LINE
  5
205
330
17
100
AcDbEntity
  8
0
100
AcDbLine
 10
48.90458892772503
 20
-404.1878522926084
 30
5.0
 11
48.90458892772503
 21
-404.1878522926084
 31
0.0
  0
LINE
  5
206
330
17
100
AcDbEntity
  8
0
100
AcDbLine
 10
68.53885261259684
 20
-398.27558360385075
 30
5.0
 11
48.90458892772489
 21
-404.1878522926084
 31
5.0
  0
ARC
  5
207
330
17
100
AcDbEntity
  8
0
100
AcDbCircle
 10
127.23181947700701
 20
-211.14263432747063
 30
5.0
 40
25.0
100
AcDbArc
 50
8.57441096707152
 51
65.36325488592806
  0
LINE
  5
208
330
17
100
AcDbEntity
  8
0
100
AcDbLine
 10
151.95239614812073
 20
-207.41529089714547
 30
5.0
 11
151.95239614812073
 21
-207.41529089714547
 31
0.0
  0
LINE
  5
209
330
17
100
AcDbEntity
  8
0
100
AcDbLine
 10
24.61663296613595
 20
-391.141885611244
 30
5.0
 11
24.61663296613595
 21
-391.141885611244
 31
0.0
  0
ARC
  5
20A
330
17
100
AcDbEntity
  8
0
100
AcDbCircle
 10
26.891632396563413
 20
-416.03815797462306
 30
5.0
 40
25.0
100
AcDbArc
 50
28.295055712232244
 51
95.22113764660028
  0
LINE
  5
20B
330
17
100
AcDbEntity
  8
0
100
AcDbLine
 10
172.43009429267195
 20
-208.4750598322358
 30
5.0
 11
151.95239614812073
 21
-207.41529089714544
 31
5.0
  0
LINE
  5
20C
330
17
100
AcDbEntity
  8
0
100
AcDbLine
 10
172.43009429267195
 20
-208.4750598322358
 30
0.0
 11
172.43009429267195
 21
-208.4750598322358
 31
5.0
  0
LINE
  5
20D
330
17
100
AcDbEntity
  8
0
100
AcDbLine
 10
15.82104844516082
 20
-361.93231567478495
 30
5.0
 11
-14.687539513923564
 21
-260.61525919851016
 31
5.0
  0
LINE
  5
20E
330
17
100
AcDbEntity
  8
0
100
AcDbLine
 10
15.82104844516082
 20
-361.93231567478495
 30
2.5
 11
15.82104844516082
 21
-361.93231567478495
 31
5.0
  0
LINE
  5
20F
330
17
100
AcDbEntity
  8
0
100
AcDbLine
 10
18.704364277378318
 20
-371.5076219263721
 30
2.5
 11
15.821048445160823
 21
-361.93231567478495
 31
2.5
  0
LINE
  5
210
330
17
100
AcDbEntity
  8
0
100
AcDbLine
 10
18.70436427737827
 20
-371.50762192637217
 30
2.5
 11
18.70436427737827
 21
-371.50762192637217
 31
5.0
  0
LINE
  5
211
330
17
100
AcDbEntity
  8
0
100
AcDbLine
 10
18.70436427737827
 20
-371.50762192637217
 30
5.0
 11
24.61663296613589
 21
-391.14188561124394
 31
5.0
  0
LINE
  5
212
330
17
100
AcDbEntity
  8
0
100
AcDbLine
 10
-14.687539513923578
 20
-260.6152591985101
 30
5.0
 11
-14.687539513923578
 21
-260.6152591985101
 31
0.0
  0
LINE
  5
213
330
17
100
AcDbEntity
  8
0
100
AcDbLine
 10
171.91326247904877
 20
-218.4616951453143
 30
0.0
 11
171.91326247904877
 21
-218.4616951453143
 31
5.0
  0
LINE
  5
214
330
17
100
AcDbEntity
  8
0
100
AcDbLine
 10
171.91326247904877
 20
-218.4616951453143
 30
5.0
 11
172.43009429267198
 21
-208.4750598322358
 31
5.0
  0
LINE
  5
215
330
17
100
AcDbEntity
  8
0
100
AcDbLine
 10
105.33443672576058
 20
-223.2051642712849
 30
5.0
 11
105.33443672576058
 21
-223.2051642712849
 31
0.0
  0
LINE
  5
216
330
17
100
AcDbEntity
  8
0
100
AcDbLine
 10
-14.687539513923568
 20
-260.61525919851016
 30
5.0
 11
105.3344367257608
 21
-223.20516427128487
 31
5.0
  0
LINE
  5
217
330
17
100
AcDbEntity
  8
0
100
AcDbLine
 10
151.43556433449723
 20
-217.40192621022393
 30
5.0
 11
171.91326247904874
 21
-218.4616951453143
 31
5.0
  0
LINE
  5
218
330
17
100
AcDbEntity
  8
0
100
AcDbLine
 10
151.4355643344975
 20
-217.40192621022396
 30
5.0
 11
151.4355643344975
 21
-217.40192621022396
 31
0.0
  0
LINE
  5
219
330
17
100
AcDbEntity
  8
0
100
AcDbLine
 10
125.33025888560837
 20
-236.070210770383
 30
5.0
 11
125.33025888560837
 21
-236.070210770383
 31
0.0
  0
ARC
  5
21A
330
17
100
AcDbEntity
  8
0
100
AcDbCircle
 10
127.23181947700701
 20
-211.14263432747063
 30
5.0
 40
25.0
100
AcDbArc
 50
208.84888699810324
 51
265.63773091695725
  0
ARC
  5
21B
330
17
100
AcDbEntity
  8
0
100
AcDbCircle
 10
127.23181947700701
 20
-211.14263432747063
 30
5.0
 40
25.0
100
AcDbArc
 50
288.71164898258553
 51
345.5004929014388
  0
LINE
  5
21C
330
17
100
AcDbEntity
  8
0
100
AcDbLine
 10
135.25195858241744
 20
-234.8212611611759
 30
5.0
 11
135.25195858241744
 21
-234.8212611611759
 31
0.0
  0
LINE
  5
21D
330
17
100
AcDbEntity
  8
0
100
AcDbLine
 10
127.8912428700345
 20
-256.41475776771506
 30
0.0
 11
127.8912428700345
 21
-256.41475776771506
 31
5.0
  0
LINE
  5
21E
330
17
100
AcDbEntity
  8
0
100
AcDbLine
 10
125.3302588856084
 20
-236.07021077038326
 30
5.0
 11
127.89124287003452
 21
-256.41475776771506
 31
5.0
  0
LINE
  5
21F
330
17
100
AcDbEntity
  8
0
100
AcDbLine
 10
137.8129425668436
 20
-255.16580815850793
 30
5.0
 11
135.25195858241747
 21
-234.8212611611761
 31
5.0
  0
LINE
  5
220
330
17
100
AcDbEntity
  8
0
100
AcDbLine
 10
137.8129425668436
 20
-255.16580815850793
 30
0.0
 11
137.8129425668436
 21
-255.16580815850793
 31
5.0
  0
LINE
  5
221
330
17
100
AcDbEntity
  8
0
100
AcDbLine
 10
127.8912428700345
 20
-256.41475776771506
 30
5.0
 11
137.8129425668436
 21
-255.16580815850793
 31
5.0
  0
LINE
  5
222
330
17
100
AcDbEntity
  8
0
100
AcDbLine
 10
-73.19137343396923
 20
-37.22121398487408
 30
5.0
 11
-73.19137343396923
 21
-37.22121398487408
 31
0.0
  0
LINE
  5
223
330
17
100
AcDbEntity
  8
0
100
AcDbLine
 10
-68.01205216835191
 20
-57.06142221771943
 30
5.0
 11
-73.19137343396926
 21
-37.22121398487427
 31
5.0
  0
LINE
  5
224
330
17
100
AcDbEntity
  8
0
100
AcDbLine
 10
-68.01205216835191
 20
-57.06142221771943
 30
2.5
 11
-68.01205216835191
 21
-57.06142221771943
 31
5.0
  0
LINE
  5
225
330
17
100
AcDbEntity
  8
0
100
AcDbLine
 10
-65.48618269396678
 20
-66.73716422535736
 30
2.5
 11
-68.01205216835183
 21
-57.061422217719404
 31
2.5
  0
LINE
  5
226
330
17
100
AcDbEntity
  8
0
100
AcDbLine
 10
-65.48618269396678
 20
-66.73716422535736
 30
2.5
 11
-65.48618269396678
 21
-66.73716422535736
 31
5.0
  0
LINE
  5
227
330
17
100
AcDbEntity
  8
0
100
AcDbLine
 10
-17.38857500437912
 20
-250.98264797203313
 30
5.0
 11
-65.48618269396678
 21
-66.73716422535739
 31
5.0
  0
LINE
  5
228
330
17
100
AcDbEntity
  8
0
100
AcDbLine
 10
-17.388575004379124
 20
-250.98264797203313
 30
0.0
 11
-17.388575004379124
 21
-250.98264797203313
 31
5.0
  0
LINE
  5
229
330
17
100
AcDbEntity
  8
0
100
AcDbLine
 10
-17.38857500437912
 20
-250.98264797203313
 30
5.0
 11
102.35870040675822
 21
-213.6581755649037
 31
5.0
  0
LINE
  5
22A
330
17
100
AcDbEntity
  8
0
100
AcDbLine
 10
102.35870040675822
 20
-213.6581755649037
 30
5.0
 11
102.35870040675822
 21
-213.6581755649037
 31
0.0
  0
ARC
  5
22B
330
17
100
AcDbEntity
  8
0
100
AcDbCircle
 10
-84.21633580690359
 20
-14.783517920541145
 30
5.0
 40
25.0
100
AcDbArc
 50
-63.8323935941433
 51
3.3217403732282946
  0
LINE
  5
22C
330
17
100
AcDbEntity
  8
0
100
AcDbLine
 10
-59.258338242183086
 20
-13.33494705261463
 30
5.0
 11
-59.258338242183086
 21
-13.33494705261463
 31
0.0
  0
ARC
  5
22D
330
17
100
AcDbEntity
  8
0
100
AcDbCircle
 10
127.23181947700701
 20
-211.14263432747063
 30
5.0
 40
25.0
100
AcDbArc
 50
88.43717295155818
 51
185.77496893247076
  0
LINE
  5
22E
330
17
100
AcDbEntity
  8
0
100
AcDbLine
 10
127.91364686322764
 20
-186.15193382877712
 30
5.0
 11
127.91364686322764
 21
-186.15193382877712
 31
0.0
  0
LINE
  5
22F
330
17
100
AcDbEntity
  8
0
100
AcDbLine
 10
-7.829206555294096
 20
0.30959808291418955
 30
5.0
 11
-7.829206555294096
 21
0.30959808291418955
 31
0.0
  0
LINE
  5
230
330
17
100
AcDbEntity
  8
0
100
AcDbLine
 10
-27.64864264466042
 20
-4.948651111890461
 30
5.0
 11
-7.829206555294068
 21
0.30959808291422153
 31
5.0
  0
LINE
  5
231
330
17
100
AcDbEntity
  8
0
100
AcDbLine
 10
-27.64864264466042
 20
-4.948651111890461
 30
2.5
 11
-27.64864264466042
 21
-4.948651111890461
 31
5.0
  0
LINE
  5
232
330
17
100
AcDbEntity
  8
0
100
AcDbLine
 10
-37.314254420856756
 20
-7.513012434297008
 30
2.5
 11
-27.64864264466041
 21
-4.948651111890483
 31
2.5
  0
LINE
  5
233
330
17
100
AcDbEntity
  8
0
100
AcDbLine
 10
-37.314254420856756
 20
-7.513012434297008
 30
2.5
 11
-37.314254420856756
 21
-7.513012434297008
 31
5.0
  0
LINE
  5
234
330
17
100
AcDbEntity
  8
0
100
AcDbLine
 10
-59.258338242182695
 20
-13.334947052614526
 30
5.0
 11
-37.31425442085676
 21
-7.513012434297005
 31
5.0
  0
LINE
  5
235
330
17
100
AcDbEntity
  8
0
100
AcDbLine
 10
132.56108060506938
 20
-166.18043936515897
 30
5.0
 11
127.91364686322757
 21
-186.15193382877737
 31
5.0
  0
LINE
  5
236
330
17
100
AcDbEntity
  8
0
100
AcDbLine
 10
132.56108060506938
 20
-166.18043936515897
 30
2.5
 11
132.56108060506938
 21
-166.18043936515897
 31
5.0
  0
LINE
  5
237
330
17
100
AcDbEntity
  8
0
100
AcDbLine
 10
134.82755731518824
 20
-156.44067123021406
 30
2.5
 11
132.56108060506938
 21
-166.180439365159
 31
2.5
  0
LINE
  5
238
330
17
100
AcDbEntity
  8
0
100
AcDbLine
 10
134.82755731518824
 20
-156.44067123021406
 30
2.5
 11
134.82755731518824
 21
-156.44067123021406
 31
5.0
  0
LINE
  5
239
330
17
100
AcDbEntity
  8
0
100
AcDbLine
 10
159.00720475012258
 20
-52.53306937860425
 30
5.0
 11
134.82755731518824
 21
-156.44067123021406
 31
5.0
  0
LINE
  5
23A
330
17
100
AcDbEntity
  8
0
100
AcDbLine
 10
159.00720475012258
 20
-52.53306937860425
 30
0.0
 11
159.00720475012258
 21
-52.53306937860425
 31
5.0
  0
LINE
  5
23B
330
17
100
AcDbEntity
  8
0
100
AcDbLine
 10
35.38598634861808
 20
-2.413226831964093
 30
5.0
 11
35.38598634861808
 21
-2.413226831964093
 31
0.0
  0
ARC
  5
23C
330
17
100
AcDbEntity
  8
0
100
AcDbCircle
 10
14.564429687019876
 20
11.423780727037071
 30
5.0
 40
25.0
100
AcDbArc
 50
206.39565843885717
 51
326.39389454994597
  0
LINE
  5
23D
330
17
100
AcDbEntity
  8
0
100
AcDbLine
 10
63.656013367317314
 20
-13.87476491812508
 30
5.0
 11
159.00720475012258
 21
-52.53306937860425
 31
5.0
  0
LINE
  5
23E
330
17
100
AcDbEntity
  8
0
100
AcDbLine
 10
63.656013367317314
 20
-13.87476491812508
 30
2.5
 11
63.656013367317314
 21
-13.87476491812508
 31
5.0
  0
LINE
  5
23F
330
17
100
AcDbEntity
  8
0
100
AcDbLine
 10
54.38870244717904
 20
-10.117512157199073
 30
2.5
 11
63.65601336731731
 21
-13.874764918125074
 31
2.5
  0
LINE
  5
240
330
17
100
AcDbEntity
  8
0
100
AcDbLine
 10
54.388702447179064
 20
-10.117512157199064
 30
2.5
 11
54.388702447179064
 21
-10.117512157199064
 31
5.0
  0
LINE
  5
241
330
17
100
AcDbEntity
  8
0
100
AcDbLine
 10
35.385986348617884
 20
-2.413226831963991
 30
5.0
 11
54.38870244717907
 21
-10.117512157199064
 31
5.0
  0
LINE
  5
242
330
17
100
AcDbEntity
  8
0
100
AcDbLine
 10
-102.67725628943218
 20
2.074548841034936
 30
5.0
 11
-102.67725628943218
 21
2.074548841034936
 31
0.0
  0
LINE
  5
243
330
17
100
AcDbEntity
  8
0
100
AcDbLine
 10
-114.74764298357672
 20
18.650585657745914
 30
5.0
 11
-102.67725628943217
 21
2.0745488410348507
 31
5.0
  0
LINE
  5
244
330
17
100
AcDbEntity
  8
0
100
AcDbLine
 10
-114.74764298357672
 20
18.650585657745914
 30
2.5
 11
-114.74764298357672
 21
18.650585657745914
 31
5.0
  0
LINE
  5
245
330
17
100
AcDbEntity
  8
0
100
AcDbLine
 10
-120.63417130093696
 20
26.734445154849723
 30
2.5
 11
-114.74764298357668
 21
18.650585657745903
 31
2.5
  0
LINE
  5
246
330
17
100
AcDbEntity
  8
0
100
AcDbLine
 10
-120.63417130093696
 20
26.734445154849723
 30
2.5
 11
-120.63417130093696
 21
26.734445154849723
 31
5.0
  0
LINE
  5
247
330
17
100
AcDbEntity
  8
0
100
AcDbLine
 10
-138.03288299163552
 20
50.627771264133855
 30
5.0
 11
-120.63417130093697
 21
26.734445154849723
 31
5.0
  0
LINE
  5
248
330
17
100
AcDbEntity
  8
0
100
AcDbLine
 10
-138.03288299163546
 20
50.62777126413379
 30
5.0
 11
-138.03288299163546
 21
50.62777126413379
 31
0.0
  0
LINE
  5
249
330
17
100
AcDbEntity
  8
0
100
AcDbLine
 10
-145.7002388071179
 20
46.37044905284177
 30
5.0
 11
-138.03288299163552
 21
50.62777126413382
 31
5.0
  0
LINE
  5
24A
330
17
100
AcDbEntity
  8
0
100
AcDbLine
 10
-145.7002388071179
 20
46.37044905284177
 30
2.5
 11
-145.7002388071179
 21
46.37044905284177
 31
5.0
  0
LINE
  5
24B
330
17
100
AcDbEntity
  8
0
100
AcDbLine
 10
-154.44293432807785
 20
41.516041259115966
 30
2.5
 11
-145.70023880711784
 21
46.37044905284177
 31
2.5
  0
LINE
  5
24C
330
17
100
AcDbEntity
  8
0
100
AcDbLine
 10
-154.44293432807785
 20
41.516041259115966
 30
2.5
 11
-154.44293432807785
 21
41.516041259115966
 31
5.0
  0
LINE
  5
24D
330
17
100
AcDbEntity
  8
0
100
AcDbLine
 10
-237.4865028092761
 20
-4.59414810839216
 30
5.0
 11
-154.44293432807788
 21
41.516041259115966
 31
5.0
  0
LINE
  5
24E
330
17
100
AcDbEntity
  8
0
100
AcDbLine
 10
-237.48650280927603
 20
-4.594148108392155
 30
0.0
 11
-237.48650280927603
 21
-4.594148108392155
 31
5.0
  0
LINE
  5
24F
330
17
100
AcDbEntity
  8
0
100
AcDbLine
 10
-108.52812281913819
 20
-8.95796968267195
 30
5.0
 11
-108.52812281913819
 21
-8.95796968267195
 31
0.0
  0
ARC
  5
250
330
17
100
AcDbEntity
  8
0
100
AcDbCircle
 10
-84.21633580690359
 20
-14.783517920541145
 30
5.0
 40
25.0
100
AcDbArc
 50
137.59842625831124
 51
166.52494907837212
  0
LINE
  5
251
330
17
100
AcDbEntity
  8
0
100
AcDbLine
 10
-139.01577502504972
 20
-7.9262982670146656
 30
5.0
 11
-237.4865028092761
 21
-4.594148108392161
 31
5.0
  0
LINE
  5
252
330
17
100
AcDbEntity
  8
0
100
AcDbLine
 10
-139.01577502504972
 20
-7.9262982670146656
 30
2.5
 11
-139.01577502504972
 21
-7.9262982670146656
 31
5.0
  0
LINE
  5
253
330
17
100
AcDbEntity
  8
0
100
AcDbLine
 10
-129.02149549958853
 20
-8.264494610795703
 30
2.5
 11
-139.01577502504972
 21
-7.926298267014665
 31
2.5
  0
LINE
  5
254
330
17
100
AcDbEntity
  8
0
100
AcDbLine
 10
-129.0214954995885
 20
-8.264494610795836
 30
2.5
 11
-129.0214954995885
 21
-8.264494610795836
 31
5.0
  0
LINE
  5
255
330
17
100
AcDbEntity
  8
0
100
AcDbLine
 10
-108.52812281913839
 20
-8.95796968267209
 30
5.0
 11
-129.0214954995885
 21
-8.264494610795836
 31
5.0
  0
LINE
  5
256
330
17
100
AcDbEntity
  8
0
100
AcDbLine
 10
-163.34008075994825
 20
102.36961545542181
 30
0.0
 11
-163.34008075994825
 21
102.36961545542181
 31
5.0
  0
LINE
  5
257
330
17
100
AcDbEntity
  8
0
100
AcDbLine
 10
-135.15514226246964
 20
63.66376534064609
 30
5.0
 11
-163.34008075994825
 21
102.3696154554218
 31
5.0
  0
LINE
  5
258
330
17
100
AcDbEntity
  8
0
100
AcDbLine
 10
-135.15514226246964
 20
63.66376534064608
 30
5.0
 11
-135.15514226246964
 21
63.66376534064608
 31
0.0
  0
LINE
  5
259
330
17
100
AcDbEntity
  8
0
100
AcDbLine
 10
-132.62765975939163
 20
65.06715754754981
 30
5.0
 11
-132.62765975939163
 21
65.06715754754981
 31
0.0
  0
LINE
  5
25A
330
17
100
AcDbEntity
  8
0
100
AcDbLine
 10
-132.6276597593916
 20
65.06715754754984
 30
5.0
 11
-135.15514226246964
 21
63.66376534064609
 31
5.0
  0
LINE
  5
25B
330
17
100
AcDbEntity
  8
0
100
AcDbLine
 10
-132.01225600408998
 20
81.83374560589031
 30
5.0
 11
-132.01225600408998
 21
81.83374560589031
 31
0.0
  0
LINE
  5
25C
330
17
100
AcDbEntity
  8
0
100
AcDbLine
 10
-149.16128093441642
 20
93.07519459764319
 30
5.0
 11
-132.01225600408998
 21
81.8337456058903
 31
5.0
  0
LINE
  5
25D
330
17
100
AcDbEntity
  8
0
100
AcDbLine
 10
-149.16128093441642
 20
93.07519459764319
 30
2.5
 11
-149.16128093441642
 21
93.07519459764319
 31
5.0
  0
LINE
  5
25E
330
17
100
AcDbEntity
  8
0
100
AcDbLine
 10
-157.5245772749102
 20
98.55746368271036
 30
2.5
 11
-149.1612809344164
 21
93.0751945976432
 31
2.5
  0
LINE
  5
25F
330
17
100
AcDbEntity
  8
0
100
AcDbLine
 10
-157.5245772749102
 20
98.55746368271036
 30
2.5
 11
-157.5245772749102
 21
98.55746368271036
 31
5.0
  0
LINE
  5
260
330
17
100
AcDbEntity
  8
0
100
AcDbLine
 10
-163.34008075994825
 20
102.36961545542178
 30
5.0
 11
-157.52457727491023
 21
98.55746368271035
 31
5.0
  0
ARC
  5
261
330
17
100
AcDbEntity
  8
0
100
AcDbCircle
 10
-108.78531285966075
 20
72.58663188508788
 30
5.0
 40
25.0
100
AcDbArc
 50
158.29150271125047
 51
197.50439607571846
  0
LINE
  5
262
330
17
100
AcDbEntity
  8
0
100
AcDbLine
 10
-80.29840788627993
 20
9.907570366709331
 30
5.0
 11
-80.29840788627993
 21
9.907570366709331
 31
0.0
  0
LINE
  5
263
330
17
100
AcDbEntity
  8
0
100
AcDbLine
 10
-73.09948684322784
 20
29.107434098284124
 30
5.0
 11
-80.29840788627999
 21
9.907570366709361
 31
5.0
  0
LINE
  5
264
330
17
100
AcDbEntity
  8
0
100
AcDbLine
 10
-73.09948684322784
 20
29.107434098284124
 30
2.5
 11
-73.09948684322784
 21
29.107434098284124
 31
5.0
  0
LINE
  5
265
330
17
100
AcDbEntity
  8
0
100
AcDbLine
 10
-69.58869189952274
 20
38.47089066427803
 30
2.5
 11
-73.0994868432278
 21
29.107434098284088
 31
2.5
  0
LINE
  5
266
330
17
100
AcDbEntity
  8
0
100
AcDbLine
 10
-69.58869189952274
 20
38.47089066427803
 30
2.5
 11
-69.58869189952274
 21
38.47089066427803
 31
5.0
  0
LINE
  5
267
330
17
100
AcDbEntity
  8
0
100
AcDbLine
 10
-66.71183026525911
 20
46.1436170384291
 30
5.0
 11
-69.58869189952274
 21
38.47089066427803
 31
5.0
  0
LINE
  5
268
330
17
100
AcDbEntity
  8
0
100
AcDbLine
 10
-66.7118302652591
 20
46.1436170384291
 30
0.0
 11
-66.7118302652591
 21
46.1436170384291
 31
5.0
  0
LINE
  5
269
330
17
100
AcDbEntity
  8
0
100
AcDbLine
 10
-89.06127430871416
 20
57.22556736335753
 30
5.0
 11
-66.71183026525912
 21
46.14361703842911
 31
5.0
  0
LINE
  5
26A
330
17
100
AcDbEntity
  8
0
100
AcDbLine
 10
-89.06127430871399
 20
57.22556736335744
 30
5.0
 11
-89.06127430871399
 21
57.22556736335744
 31
0.0
  0
LINE
  5
26B
330
17
100
AcDbEntity
  8
0
100
AcDbLine
 10
-94.59339679232836
 20
7.96107715839519
 30
5.0
 11
-94.59339679232836
 21
7.96107715839519
 31
0.0
  0
ARC
  5
26C
330
17
100
AcDbEntity
  8
0
100
AcDbCircle
 10
-84.21633580690359
 20
-14.783517920541145
 30
5.0
 40
25.0
100
AcDbArc
 50
80.98360300417934
 51
114.52450819268014
  0
ARC
  5
26D
330
17
100
AcDbEntity
  8
0
100
AcDbCircle
 10
-108.78531285966075
 20
72.58663188508788
 30
5.0
 40
25.0
100
AcDbArc
 50
220.57831414135043
 51
322.08857161829707
  0
LINE
  5
26E
330
17
100
AcDbEntity
  8
0
100
AcDbLine
 10
-127.77325196566579
 20
56.32446202658978
 30
5.0
 11
-127.77325196566579
 21
56.32446202658978
 31
0.0
  0
LINE
  5
26F
330
17
100
AcDbEntity
  8
0
100
AcDbLine
 10
-129.22415115280847
 20
55.51884592053989
 30
0.0
 11
-129.22415115280847
 21
55.51884592053989
 31
5.0
  0
LINE
  5
270
330
17
100
AcDbEntity
  8
0
100
AcDbLine
 10
-112.55031180383314
 20
32.62097347221
 30
5.0
 11
-129.22415115280847
 21
55.5188459205399
 31
5.0
  0
LINE
  5
271
330
17
100
AcDbEntity
  8
0
100
AcDbLine
 10
-112.55031180383314
 20
32.62097347221
 30
2.5
 11
-112.55031180383314
 21
32.62097347221
 31
5.0
  0
LINE
  5
272
330
17
100
AcDbEntity
  8
0
100
AcDbLine
 10
-106.66378348647287
 20
24.53711397510618
 30
2.5
 11
-112.55031180383314
 21
32.62097347221
 31
2.5
  0
LINE
  5
273
330
17
100
AcDbEntity
  8
0
100
AcDbLine
 10
-106.66378348647291
 20
24.537113975106188
 30
2.5
 11
-106.66378348647291
 21
24.537113975106188
 31
5.0
  0
LINE
  5
274
330
17
100
AcDbEntity
  8
0
100
AcDbLine
 10
-94.59339679232842
 20
7.961077158395229
 30
5.0
 11
-106.66378348647291
 21
24.537113975106188
 31
5.0
  0
LINE
  5
275
330
17
100
AcDbEntity
  8
0
100
AcDbLine
 10
-129.22415115280847
 20
55.51884592053991
 30
5.0
 11
-127.77325196566571
 21
56.324462026589885
 31
5.0
  0
LINE
  5
276
330
17
100
AcDbEntity
  8
0
100
AcDbLine
 10
-9.601968977324622
 20
17.82574726834049
 30
5.0
 11
-9.601968977324622
 21
17.82574726834049
 31
0.0
  0
LINE
  5
277
330
17
100
AcDbEntity
  8
0
100
AcDbLine
 10
-27.972691281600902
 20
26.934852247113405
 30
5.0
 11
-9.601968977324631
 21
17.82574726834043
 31
5.0
  0
LINE
  5
278
330
17
100
AcDbEntity
  8
0
100
AcDbLine
 10
-27.972691281600902
 20
26.934852247113405
 30
2.5
 11
-27.972691281600902
 21
26.934852247113405
 31
5.0
  0
LINE
  5
279
330
17
100
AcDbEntity
  8
0
100
AcDbLine
 10
-36.93178926202796
 20
31.377212360511194
 30
2.5
 11
-27.972691281600873
 21
26.934852247113447
 31
2.5
  0
LINE
  5
27A
330
17
100
AcDbEntity
  8
0
100
AcDbLine
 10
-36.93178926202796
 20
31.377212360511194
 30
2.5
 11
-36.93178926202796
 21
31.377212360511194
 31
5.0
  0
LINE
  5
27B
330
17
100
AcDbEntity
  8
0
100
AcDbLine
 10
-40.88858354926673
 20
33.33918500072018
 30
5.0
 11
-36.93178926202796
 21
31.377212360511194
 31
5.0
  0
LINE
  5
27C
330
17
100
AcDbEntity
  8
0
100
AcDbLine
 10
-40.88858354926671
 20
33.33918500072018
 30
5.0
 11
-40.88858354926671
 21
33.33918500072018
 31
0.0
  0
LINE
  5
27D
330
17
100
AcDbEntity
  8
0
100
AcDbLine
 10
-46.71806516270855
 20
25.76126841130055
 30
5.0
 11
-40.88858354926672
 21
33.33918500072017
 31
5.0
  0
LINE
  5
27E
330
17
100
AcDbEntity
  8
0
100
AcDbLine
 10
-46.71806516270855
 20
25.76126841130055
 30
2.5
 11
-46.71806516270855
 21
25.76126841130055
 31
5.0
  0
LINE
  5
27F
330
17
100
AcDbEntity
  8
0
100
AcDbLine
 10
-52.81537976523813
 20
17.835187750735727
 30
2.5
 11
-46.71806516270855
 21
25.76126841130054
 31
2.5
  0
LINE
  5
280
330
17
100
AcDbEntity
  8
0
100
AcDbLine
 10
-52.815379765238085
 20
17.83518775073574
 30
2.5
 11
-52.815379765238085
 21
17.83518775073574
 31
5.0
  0
LINE
  5
281
330
17
100
AcDbEntity
  8
0
100
AcDbLine
 10
-65.31798589920301
 20
1.5826780567195406
 30
5.0
 11
-52.81537976523808
 21
17.83518775073574
 31
5.0
  0
LINE
  5
282
330
17
100
AcDbEntity
  8
0
100
AcDbLine
 10
-65.31798589920291
 20
1.582678056719729
 30
5.0
 11
-65.31798589920291
 21
1.582678056719729
 31
0.0
  0
LINE
  5
283
330
17
100
AcDbEntity
  8
0
100
AcDbLine
 10
-10.39356787770063
 20
9.975209859110533
 30
5.0
 11
-10.39356787770063
 21
9.975209859110533
 31
0.0
  0
ARC
  5
284
330
17
100
AcDbEntity
  8
0
100
AcDbCircle
 10
14.564429687019876
 20
11.423780727037071
 30
5.0
 40
25.0
100
AcDbArc
 50
165.16248968392918
 51
183.3217403732283
  0
ARC
  5
285
330
17
100
AcDbEntity
  8
0
100
AcDbCircle
 10
-84.21633580690359
 20
-14.783517920541145
 30
5.0
 40
25.0
100
AcDbArc
 50
26.39565843885707
 51
40.892952642035546
  0
LINE
  5
286
330
17
100
AcDbEntity
  8
0
100
AcDbLine
 10
-61.8226995645896
 20
-3.669335276418285
 30
5.0
 11
-61.8226995645896
 21
-3.669335276418285
 31
0.0
  0
LINE
  5
287
330
17
100
AcDbEntity
  8
0
100
AcDbLine
 10
-39.87861574326328
 20
2.1525993418993377
 30
5.0
 11
-61.82269956458963
 21
-3.669335276418292
 31
5.0
  0
LINE
  5
288
330
17
100
AcDbEntity
  8
0
100
AcDbLine
 10
-39.87861574326328
 20
2.1525993418993377
 30
2.5
 11
-39.87861574326328
 21
2.1525993418993377
 31
5.0
  0
LINE
  5
289
330
17
100
AcDbEntity
  8
0
100
AcDbLine
 10
-30.21300396706694
 20
4.71696066430586
 30
2.5
 11
-39.87861574326328
 21
2.1525993418993354
 31
2.5
  0
LINE
  5
28A
330
17
100
AcDbEntity
  8
0
100
AcDbLine
 10
-30.213003967066946
 20
4.716960664305885
 30
2.5
 11
-30.213003967066946
 21
4.716960664305885
 31
5.0
  0
LINE
  5
28B
330
17
100
AcDbEntity
  8
0
100
AcDbLine
 10
-10.393567877701003
 20
9.975209859110457
 30
5.0
 11
-30.213003967066943
 21
4.716960664305885
 31
5.0
  0
LINE
  5
28C
330
17
100
AcDbEntity
  8
0
100
AcDbLine
 10
-57.70629435949354
 20
41.67823072443357
 30
5.0
 11
-57.70629435949354
 21
41.67823072443357
 31
0.0
  0
LINE
  5
28D
330
17
100
AcDbEntity
  8
0
100
AcDbLine
 10
-60.2252353335288
 20
34.960095720572994
 30
5.0
 11
-57.70629435949355
 21
41.678230724433575
 31
5.0
  0
LINE
  5
28E
330
17
100
AcDbEntity
  8
0
100
AcDbLine
 10
-60.2252353335288
 20
34.960095720572994
 30
2.5
 11
-60.2252353335288
 21
34.960095720572994
 31
5.0
  0
LINE
  5
28F
330
17
100
AcDbEntity
  8
0
100
AcDbLine
 10
-63.73603027723385
 20
25.596639154579037
 30
2.5
 11
-60.22523533352881
 21
34.96009572057298
 31
2.5
  0
LINE
  5
290
330
17
100
AcDbEntity
  8
0
100
AcDbLine
 10
-63.7360302772339
 20
25.596639154579073
 30
2.5
 11
-63.7360302772339
 21
25.596639154579073
 31
5.0
  0
LINE
  5
291
330
17
100
AcDbEntity
  8
0
100
AcDbLine
 10
-67.80068938666955
 20
14.756000599196163
 30
5.0
 11
-63.7360302772339
 21
25.596639154579073
 31
5.0
  0
LINE
  5
292
330
17
100
AcDbEntity
  8
0
100
AcDbLine
 10
-67.80068938666955
 20
14.756000599196128
 30
0.0
 11
-67.80068938666955
 21
14.756000599196128
 31
5.0
  0
LINE
  5
293
330
17
100
AcDbEntity
  8
0
100
AcDbLine
 10
-50.02148051996811
 20
37.86772317622085
 30
0.0
 11
-50.02148051996811
 21
37.86772317622085
 31
5.0
  0
LINE
  5
294
330
17
100
AcDbEntity
  8
0
100
AcDbLine
 10
-57.706294359493555
 20
41.67823072443357
 30
5.0
 11
-50.021480519968115
 21
37.86772317622085
 31
5.0
  0
LINE
  5
295
330
17
100
AcDbEntity
  8
0
100
AcDbLine
 10
-60.7414604258029
 20
23.93250235326532
 30
5.0
 11
-67.80068938666955
 21
14.756000599196158
 31
5.0
  0
LINE
  5
296
330
17
100
AcDbEntity
  8
0
100
AcDbLine
 10
-60.7414604258029
 20
23.93250235326532
 30
2.5
 11
-60.7414604258029
 21
23.93250235326532
 31
5.0
  0
LINE
  5
297
330
17
100
AcDbEntity
  8
0
100
AcDbLine
 10
-54.64414582327337
 20
31.858583013830142
 30
2.5
 11
-60.74146042580295
 21
23.932502353265328
 31
2.5
  0
LINE
  5
298
330
17
100
AcDbEntity
  8
0
100
AcDbLine
 10
-54.64414582327337
 20
31.858583013830142
 30
2.5
 11
-54.64414582327337
 21
31.858583013830142
 31
5.0
  0
LINE
  5
299
330
17
100
AcDbEntity
  8
0
100
AcDbLine
 10
-50.02148051996812
 20
37.86772317622081
 30
5.0
 11
-54.64414582327336
 21
31.858583013830142
 31
5.0
  0
LINE
  5
29A
330
17
100
AcDbEntity
  8
0
100
AcDbLine
 10
-84.61891419531624
 20
66.18466534378452
 30
5.0
 11
-84.61891419531624
 21
66.18466534378452
 31
0.0
  0
ARC
  5
29B
330
17
100
AcDbEntity
  8
0
100
AcDbCircle
 10
-108.78531285966075
 20
72.58663188508788
 30
5.0
 40
25.0
100
AcDbArc
 50
-14.83751031606991
 51
13.272576014010696
  0
LINE
  5
29C
330
17
100
AcDbEntity
  8
0
100
AcDbLine
 10
-84.45309105868205
 20
78.32622962604293
 30
5.0
 11
-84.45309105868205
 21
78.32622962604293
 31
0.0
  0
LINE
  5
29D
330
17
100
AcDbEntity
  8
0
100
AcDbLine
 10
-63.18283772690441
 20
55.55560745212419
 30
5.0
 11
-84.61891419531639
 21
66.1846653437846
 31
5.0
  0
LINE
  5
29E
330
17
100
AcDbEntity
  8
0
100
AcDbLine
 10
-63.1828377269044
 20
55.55560745212419
 30
5.0
 11
-63.1828377269044
 21
55.55560745212419
 31
0.0
  0
LINE
  5
29F
330
17
100
AcDbEntity
  8
0
100
AcDbLine
 10
-48.3953549342621
 20
94.99452515295863
 30
5.0
 11
-48.3953549342621
 21
94.99452515295863
 31
0.0
  0
LINE
  5
2A0
330
17
100
AcDbEntity
  8
0
100
AcDbLine
 10
-56.763375735960246
 20
91.12626666837728
 30
5.0
 11
-48.3953549342621
 21
94.99452515295863
 31
5.0
  0
LINE
  5
2A1
330
17
100
AcDbEntity
  8
0
100
AcDbLine
 10
-56.763375735960246
 20
91.12626666837728
 30
2.5
 11
-56.763375735960246
 21
91.12626666837728
 31
5.0
  0
LINE
  5
2A2
330
17
100
AcDbEntity
  8
0
100
AcDbLine
 10
-65.84045235198346
 20
86.93023519723165
 30
2.5
 11
-56.763375735960246
 21
91.12626666837728
 31
2.5
  0
LINE
  5
2A3
330
17
100
AcDbEntity
  8
0
100
AcDbLine
 10
-65.84045235198347
 20
86.93023519723162
 30
2.5
 11
-65.84045235198347
 21
86.93023519723162
 31
5.0
  0
LINE
  5
2A4
330
17
100
AcDbEntity
  8
0
100
AcDbLine
 10
-84.45309105868209
 20
78.32622962604287
 30
5.0
 11
-65.84045235198347
 21
86.93023519723161
 31
5.0
  0
LINE
  5
2A5
330
17
100
AcDbEntity
  8
0
100
AcDbLine
 10
-48.3953549342621
 20
94.99452515295863
 30
5.0
 11
-63.18283772690441
 21
55.555607452124164
 31
5.0
  0
LINE
  5
2A6
330
17
100
AcDbEntity
  8
0
100
AcDbLine
 10
-35.47634710417663
 20
100.9665540036708
 30
5.0
 11
-21.487274212512233
 21
107.43323844279485
 31
5.0
  0
LINE
  5
2A7
330
17
100
AcDbEntity
  8
0
100
AcDbLine
 10
-35.47634710417664
 20
100.96655400367081
 30
0.0
 11
-35.47634710417664
 21
100.96655400367081
 31
5.0
  0
LINE
  5
2A8
330
17
100
AcDbEntity
  8
0
100
AcDbLine
 10
-21.487274212512236
 20
107.43323844279485
 30
5.0
 11
-21.487274212512236
 21
107.43323844279485
 31
0.0
  0
LINE
  5
2A9
330
17
100
AcDbEntity
  8
0
100
AcDbLine
 10
-14.13552047227495
 20
84.5169503297319
 30
0.0
 11
-14.13552047227495
 21
84.5169503297319
 31
5.0
  0
LINE
  5
2AA
330
17
100
AcDbEntity
  8
0
100
AcDbLine
 10
-21.487274212512236
 20
107.43323844279485
 30
5.0
 11
-14.135520472274944
 21
84.51695032973188
 31
5.0
  0
LINE
  5
2AB
330
17
100
AcDbEntity
  8
0
100
AcDbLine
 10
-54.17730182113884
 20
51.09022113812865
 30
5.0
 11
-35.47634710417664
 21
100.96655400367081
 31
5.0
  0
LINE
  5
2AC
330
17
100
AcDbEntity
  8
0
100
AcDbLine
 10
-54.17730182113884
 20
51.090221138128655
 30
0.0
 11
-54.17730182113884
 21
51.090221138128655
 31
5.0
  0
LINE
  5
2AD
330
17
100
AcDbEntity
  8
0
100
AcDbLine
 10
-43.80588312561959
 20
45.947563157048506
 30
5.0
 11
-43.80588312561959
 21
45.947563157048506
 31
0.0
  0
LINE
  5
2AE
330
17
100
AcDbEntity
  8
0
100
AcDbLine
 10
-14.135520472274951
 20
84.51695032973188
 30
5.0
 11
-43.8058831256196
 21
45.94756315704849
 31
5.0
  0
LINE
  5
2AF
330
17
100
AcDbEntity
  8
0
100
AcDbLine
 10
-43.80588312561959
 20
45.9475631570485
 30
5.0
 11
-54.17730182113884
 21
51.09022113812865
 31
5.0
  0
LINE
  5
2B0
330
17
100
AcDbEntity
  8
0
100
AcDbLine
 10
-43.398593390189006
 20
108.32112509364944
 30
0.0
 11
-43.398593390189006
 21
108.32112509364944
 31
5.0
  0
LINE
  5
2B1
330
17
100
AcDbEntity
  8
0
100
AcDbLine
 10
-37.58593306417915
 20
123.82376576853648
 30
5.0
 11
-43.39859339018902
 21
108.32112509364941
 31
5.0
  0
LINE
  5
2B2
330
17
100
AcDbEntity
  8
0
100
AcDbLine
 10
-37.58593306417915
 20
123.82376576853646
 30
5.0
 11
-37.58593306417915
 21
123.82376576853646
 31
0.0
  0
LINE
  5
2B3
330
17
100
AcDbEntity
  8
0
100
AcDbLine
 10
-62.89972183916471
 20
103.3195545690725
 30
5.0
 11
-37.585933064179144
 21
123.82376576853648
 31
5.0
  0
LINE
  5
2B4
330
17
100
AcDbEntity
  8
0
100
AcDbLine
 10
-62.89972183916471
 20
103.3195545690725
 30
2.5
 11
-62.89972183916471
 21
103.3195545690725
 31
5.0
  0
LINE
  5
2B5
330
17
100
AcDbEntity
  8
0
100
AcDbLine
 10
-70.6703542742708
 20
97.02532931424746
 30
2.5
 11
-62.89972183916471
 21
103.31955456907248
 31
2.5
  0
LINE
  5
2B6
330
17
100
AcDbEntity
  8
0
100
AcDbLine
 10
-70.67035427427082
 20
97.02532931424744
 30
2.5
 11
-70.67035427427082
 21
97.02532931424744
 31
5.0
  0
LINE
  5
2B7
330
17
100
AcDbEntity
  8
0
100
AcDbLine
 10
-74.44056838616609
 20
93.97144958471873
 30
5.0
 11
-70.67035427427082
 21
97.02532931424746
 31
5.0
  0
LINE
  5
2B8
330
17
100
AcDbEntity
  8
0
100
AcDbLine
 10
-74.44056838616605
 20
93.97144958471878
 30
0.0
 11
-74.44056838616605
 21
93.97144958471878
 31
5.0
  0
LINE
  5
2B9
330
17
100
AcDbEntity
  8
0
100
AcDbLine
 10
-70.0364838231291
 20
96.00731181325483
 30
5.0
 11
-74.44056838616609
 21
93.97144958471874
 31
5.0
  0
LINE
  5
2BA
330
17
100
AcDbEntity
  8
0
100
AcDbLine
 10
-70.0364838231291
 20
96.00731181325483
 30
2.5
 11
-70.0364838231291
 21
96.00731181325483
 31
5.0
  0
LINE
  5
2BB
330
17
100
AcDbEntity
  8
0
100
AcDbLine
 10
-60.959407207105876
 20
100.2033432844005
 30
2.5
 11
-70.03648382312909
 21
96.00731181325487
 31
2.5
  0
LINE
  5
2BC
330
17
100
AcDbEntity
  8
0
100
AcDbLine
 10
-60.959407207105876
 20
100.2033432844005
 30
2.5
 11
-60.959407207105876
 21
100.2033432844005
 31
5.0
  0
LINE
  5
2BD
330
17
100
AcDbEntity
  8
0
100
AcDbLine
 10
-43.39859339018904
 20
108.32112509364941
 30
5.0
 11
-60.959407207105876
 21
100.20334328440049
 31
5.0
  0
LINE
  5
2BE
330
17
100
AcDbEntity
  8
0
100
AcDbLine
 10
-26.819561753525424
 20
124.05461096276312
 30
5.0
 11
-26.819561753525424
 21
124.05461096276312
 31
0.0
  0
LINE
  5
2BF
330
17
100
AcDbEntity
  8
0
100
AcDbLine
 10
-30.479585560103544
 20
114.2931539443616
 30
5.0
 11
-26.81956175352542
 21
124.0546109627631
 31
5.0
  0
LINE
  5
2C0
330
17
100
AcDbEntity
  8
0
100
AcDbLine
 10
-30.479585560103537
 20
114.29315394436162
 30
5.0
 11
-30.479585560103537
 21
114.29315394436162
 31
0.0
  0
LINE
  5
2C1
330
17
100
AcDbEntity
  8
0
100
AcDbLine
 10
-24.56511064343062
 20
117.02721954009013
 30
5.0
 11
-30.47958556010356
 21
114.29315394436159
 31
5.0
  0
LINE
  5
2C2
330
17
100
AcDbEntity
  8
0
100
AcDbLine
 10
-24.565110643430604
 20
117.02721954009016
 30
0.0
 11
-24.565110643430604
 21
117.02721954009016
 31
5.0
  0
LINE
  5
2C3
330
17
100
AcDbEntity
  8
0
100
AcDbLine
 10
-26.81956175352542
 20
124.0546109627631
 30
5.0
 11
-24.565110643430597
 21
117.02721954009013
 31
5.0
  0
LINE
  5
2C4
330
17
100
AcDbEntity
  8
0
100
AcDbLine
 10
-31.451973882980266
 20
141.66124836057924
 30
5.0
 11
-31.451973882980266
 21
144.27677401043942
 31
5.0
  0
LINE
  5
2C5
330
17
100
AcDbEntity
  8
0
100
AcDbLine
 10
-31.451973882980266
 20
144.27677401043942
 30
0.0
 11
-31.451973882980266
 21
144.27677401043942
 31
5.0
  0
LINE
  5
2C6
330
17
100
AcDbEntity
  8
0
100
AcDbLine
 10
-31.451973882980262
 20
141.66124836057924
 30
0.0
 11
-31.451973882980262
 21
141.66124836057924
 31
5.0
  0
LINE
  5
2C7
330
17
100
AcDbEntity
  8
0
100
AcDbLine
 10
-92.89834104234262
 20
91.88958830310166
 30
5.0
 11
-92.89834104234262
 21
91.88958830310166
 31
0.0
  0
LINE
  5
2C8
330
17
100
AcDbEntity
  8
0
100
AcDbLine
 10
-76.96457952909584
 20
104.79596174935355
 30
5.0
 11
-92.89834104234262
 21
91.88958830310168
 31
5.0
  0
LINE
  5
2C9
330
17
100
AcDbEntity
  8
0
100
AcDbLine
 10
-76.96457952909584
 20
104.79596174935355
 30
2.5
 11
-76.96457952909584
 21
104.79596174935355
 31
5.0
  0
LINE
  5
2CA
330
17
100
AcDbEntity
  8
0
100
AcDbLine
 10
-69.19394709398973
 20
111.09018700417857
 30
2.5
 11
-76.96457952909583
 21
104.79596174935355
 31
2.5
  0
LINE
  5
2CB
330
17
100
AcDbEntity
  8
0
100
AcDbLine
 10
-69.19394709398973
 20
111.09018700417857
 30
2.5
 11
-69.19394709398973
 21
111.09018700417857
 31
5.0
  0
LINE
  5
2CC
330
17
100
AcDbEntity
  8
0
100
AcDbLine
 10
-31.451973882980266
 20
141.66124836057924
 30
5.0
 11
-69.19394709398973
 21
111.09018700417859
 31
5.0
  0
LINE
  5
2CD
330
17
100
AcDbEntity
  8
0
100
AcDbLine
 10
-30.539473046141413
 20
144.27677401043942
 30
0.0
 11
-30.539473046141413
 21
144.27677401043942
 31
5.0
  0
LINE
  5
2CE
330
17
100
AcDbEntity
  8
0
100
AcDbLine
 10
-31.451973882980266
 20
144.27677401043942
 30
5.0
 11
-30.53947304614141
 21
144.27677401043942
 31
5.0
  0
LINE
  5
2CF
330
17
100
AcDbEntity
  8
0
100
AcDbLine
 10
-126.52998691902282
 20
90.19704194638409
 30
5.0
 11
-126.52998691902282
 21
90.19704194638409
 31
0.0
  0
ARC
  5
2D0
330
17
100
AcDbEntity
  8
0
100
AcDbCircle
 10
-108.78531285966075
 20
72.58663188508788
 30
5.0
 40
25.0
100
AcDbArc
 50
50.54448938575321
 51
135.2175846456201
  0
LINE
  5
2D1
330
17
100
AcDbEntity
  8
0
100
AcDbLine
 10
-25.633859942618667
 20
168.45772154155915
 30
5.0
 11
-30.53947304614141
 21
144.27677401043942
 31
5.0
  0
LINE
  5
2D2
330
17
100
AcDbEntity
  8
0
100
AcDbLine
 10
-25.63385994261867
 20
168.45772154155918
 30
5.0
 11
-25.63385994261867
 21
168.45772154155918
 31
0.0
  0
LINE
  5
2D3
330
17
100
AcDbEntity
  8
0
100
AcDbLine
 10
-152.04230818984306
 20
106.92076002320414
 30
5.0
 11
-176.81495881515568
 21
123.1596126417283
 31
5.0
  0
LINE
  5
2D4
330
17
100
AcDbEntity
  8
0
100
AcDbLine
 10
-152.04230818984306
 20
106.92076002320414
 30
2.5
 11
-152.04230818984306
 21
106.92076002320414
 31
5.0
  0
LINE
  5
2D5
330
17
100
AcDbEntity
  8
0
100
AcDbLine
 10
-143.67901184934925
 20
101.43849093813698
 30
2.5
 11
-152.04230818984306
 21
106.92076002320414
 31
2.5
  0
LINE
  5
2D6
330
17
100
AcDbEntity
  8
0
100
AcDbLine
 10
-143.67901184934925
 20
101.438490938137
 30
2.5
 11
-143.67901184934925
 21
101.438490938137
 31
5.0
  0
LINE
  5
2D7
330
17
100
AcDbEntity
  8
0
100
AcDbLine
 10
-126.52998691902289
 20
90.19704194638416
 30
5.0
 11
-143.67901184934925
 21
101.438490938137
 31
5.0
  0
LINE
  5
2D8
330
17
100
AcDbEntity
  8
0
100
AcDbLine
 10
-176.81495881515565
 20
123.1596126417283
 30
5.0
 11
-176.81495881515565
 21
123.1596126417283
 31
0.0
  0
LINE
  5
2D9
330
17
100
AcDbEntity
  8
0
100
AcDbLine
 10
-84.26274370240034
 20
203.9396313781461
 30
2.5
 11
-84.26274370240034
 21
203.9396313781461
 31
5.0
  0
LINE
  5
2DA
330
17
100
AcDbEntity
  8
0
100
AcDbLine
 10
-101.80538987418095
 20
214.5563538849671
 30
5.0
 11
-84.26274370240034
 21
203.9396313781461
 31
5.0
  0
LINE
  5
2DB
330
17
100
AcDbEntity
  8
0
100
AcDbLine
 10
-101.80538987418109
 20
214.55635388496734
 30
5.0
 11
-101.80538987418109
 21
214.55635388496734
 31
0.0
  0
LINE
  5
2DC
330
17
100
AcDbEntity
  8
0
100
AcDbLine
 10
-75.70748478085184
 20
198.76203108599677
 30
5.0
 11
-25.63385994261867
 21
168.45772154155915
 31
5.0
  0
LINE
  5
2DD
330
17
100
AcDbEntity
  8
0
100
AcDbLine
 10
-75.70748478085184
 20
198.76203108599677
 30
2.5
 11
-75.70748478085184
 21
198.76203108599677
 31
5.0
  0
LINE
  5
2DE
330
17
100
AcDbEntity
  8
0
100
AcDbLine
 10
-84.26274370240029
 20
203.93963137814617
 30
2.5
 11
-75.70748478085183
 21
198.76203108599677
 31
2.5
  0
LINE
  5
2DF
330
17
100
AcDbEntity
  8
0
100
AcDbLine
 10
-128.06571866011532
 20
207.7951886799883
 30
5.0
 11
-128.06571866011532
 21
207.7951886799883
 31
0.0
  0
LINE
  5
2E0
330
17
100
AcDbEntity
  8
0
100
AcDbLine
 10
-176.81495881515568
 20
123.1596126417283
 30
5.0
 11
-128.06571866011518
 21
207.79518867998854
 31
5.0
  0
ARC
  5
2E1
330
17
100
AcDbEntity
  8
0
100
AcDbCircle
 10
-120.17260870329369
 20
231.5164621535926
 30
5.0
 40
25.0
100
AcDbArc
 50
251.59544941288905
 51
317.28092269516634
  0
LINE
  5
2E2
330
17
100
AcDbEntity
  8
0
100
AcDbLine
 10
2.320861721404058
 20
33.22045578245197
 30
5.0
 11
2.320861721404058
 21
33.22045578245197
 31
0.0
  0
LINE
  5
2E3
330
17
100
AcDbEntity
  8
0
100
AcDbLine
 10
-3.942924355384859
 20
52.745419687139865
 30
5.0
 11
2.32086172140401
 21
33.22045578245216
 31
5.0
  0
LINE
  5
2E4
330
17
100
AcDbEntity
  8
0
100
AcDbLine
 10
-3.942924355384859
 20
52.745419687139865
 30
2.5
 11
-3.942924355384859
 21
52.745419687139865
 31
5.0
  0
LINE
  5
2E5
330
17
100
AcDbEntity
  8
0
100
AcDbLine
 10
-6.997669414446815
 20
62.267422240391795
 30
2.5
 11
-3.9429243553848687
 21
52.745419687139844
 31
2.5
  0
LINE
  5
2E6
330
17
100
AcDbEntity
  8
0
100
AcDbLine
 10
-6.997669414446815
 20
62.267422240391795
 30
2.5
 11
-6.997669414446815
 21
62.267422240391795
 31
5.0
  0
LINE
  5
2E7
330
17
100
AcDbEntity
  8
0
100
AcDbLine
 10
-10.422483740128595
 20
72.94297457717832
 30
5.0
 11
-6.997669414446811
 21
62.26742224039181
 31
5.0
  0
LINE
  5
2E8
330
17
100
AcDbEntity
  8
0
100
AcDbLine
 10
-10.422483740128602
 20
72.94297457717832
 30
5.0
 11
-10.422483740128602
 21
72.94297457717832
 31
0.0
  0
LINE
  5
2E9
330
17
100
AcDbEntity
  8
0
100
AcDbLine
 10
-34.6729861549182
 20
41.41902498154784
 30
5.0
 11
-10.422483740128598
 21
72.94297457717832
 31
5.0
  0
LINE
  5
2EA
330
17
100
AcDbEntity
  8
0
100
AcDbLine
 10
-34.67298615491819
 20
41.419024981547835
 30
0.0
 11
-34.67298615491819
 21
41.419024981547835
 31
5.0
  0
LINE
  5
2EB
330
17
100
AcDbEntity
  8
0
100
AcDbLine
 10
-5.159608863926849
 20
26.784845248767567
 30
5.0
 11
-5.159608863926849
 21
26.784845248767567
 31
0.0
  0
ARC
  5
2EC
330
17
100
AcDbEntity
  8
0
100
AcDbCircle
 10
14.564429687019876
 20
11.423780727037071
 30
5.0
 40
25.0
100
AcDbArc
 50
119.3236726209395
 51
142.08857161829735
  0
LINE
  5
2ED
330
17
100
AcDbEntity
  8
0
100
AcDbLine
 10
-32.48942914863022
 20
40.33631034093828
 30
5.0
 11
-34.6729861549182
 21
41.419024981547835
 31
5.0
  0
LINE
  5
2EE
330
17
100
AcDbEntity
  8
0
100
AcDbLine
 10
-32.48942914863022
 20
40.33631034093828
 30
2.5
 11
-32.48942914863022
 21
40.33631034093828
 31
5.0
  0
LINE
  5
2EF
330
17
100
AcDbEntity
  8
0
100
AcDbLine
 10
-23.530331168203134
 20
35.893950227540536
 30
2.5
 11
-32.48942914863022
 21
40.33631034093828
 31
2.5
  0
LINE
  5
2F0
330
17
100
AcDbEntity
  8
0
100
AcDbLine
 10
-23.530331168203148
 20
35.89395022754049
 30
2.5
 11
-23.530331168203148
 21
35.89395022754049
 31
5.0
  0
LINE
  5
2F1
330
17
100
AcDbEntity
  8
0
100
AcDbLine
 10
-5.15960886392676
 20
26.784845248767457
 30
5.0
 11
-23.530331168203148
 21
35.89395022754049
 31
5.0
  0
LINE
  5
2F2
330
17
100
AcDbEntity
  8
0
100
AcDbLine
 10
39.14323910954408
 20
6.8540840881741705
 30
5.0
 11
39.14323910954408
 21
6.8540840881741705
 31
0.0
  0
ARC
  5
2F3
330
17
100
AcDbEntity
  8
0
100
AcDbCircle
 10
14.564429687019876
 20
11.423780727037071
 30
5.0
 40
25.0
100
AcDbArc
 50
-10.532187384422542
 51
96.24975455531012
  0
LINE
  5
2F4
330
17
100
AcDbEntity
  8
0
100
AcDbLine
 10
11.842864274656009
 20
36.27520084151392
 30
5.0
 11
11.842864274656009
 21
36.27520084151392
 31
0.0
  0
LINE
  5
2F5
330
17
100
AcDbEntity
  8
0
100
AcDbLine
 10
58.14595520810507
 20
-0.8502012370607996
 30
5.0
 11
39.143239109544226
 21
6.854084088174137
 31
5.0
  0
LINE
  5
2F6
330
17
100
AcDbEntity
  8
0
100
AcDbLine
 10
58.14595520810507
 20
-0.8502012370607996
 30
2.5
 11
58.14595520810507
 21
-0.8502012370607996
 31
5.0
  0
LINE
  5
2F7
330
17
100
AcDbEntity
  8
0
100
AcDbLine
 10
67.41326612824332
 20
-4.607453997986809
 30
2.5
 11
58.14595520810506
 21
-0.8502012370608094
 31
2.5
  0
LINE
  5
2F8
330
17
100
AcDbEntity
  8
0
100
AcDbLine
 10
67.41326612824332
 20
-4.607453997986809
 30
2.5
 11
67.41326612824332
 21
-4.607453997986809
 31
5.0
  0
LINE
  5
2F9
330
17
100
AcDbEntity
  8
0
100
AcDbLine
 10
160.1307444519495
 20
-42.1979702135196
 30
5.0
 11
67.41326612824332
 21
-4.607453997986809
 31
5.0
  0
LINE
  5
2FA
330
17
100
AcDbEntity
  8
0
100
AcDbLine
 10
160.1307444519495
 20
-42.197970213519596
 30
0.0
 11
160.1307444519495
 21
-42.197970213519596
 31
5.0
  0
LINE
  5
2FB
330
17
100
AcDbEntity
  8
0
100
AcDbLine
 10
-3.011209591575996
 20
82.57711034485158
 30
0.0
 11
-3.011209591575996
 21
82.57711034485158
 31
5.0
  0
LINE
  5
2FC
330
17
100
AcDbEntity
  8
0
100
AcDbLine
 10
2.5243331388051367
 20
65.32216729945375
 30
5.0
 11
-3.0112095915759935
 21
82.5771103448516
 31
5.0
  0
LINE
  5
2FD
330
17
100
AcDbEntity
  8
0
100
AcDbLine
 10
2.5243331388051367
 20
65.32216729945375
 30
2.5
 11
2.5243331388051367
 21
65.32216729945375
 31
5.0
  0
LINE
  5
2FE
330
17
100
AcDbEntity
  8
0
100
AcDbLine
 10
5.57907819786708
 20
55.800164746201816
 30
2.5
 11
2.524333138805134
 21
65.32216729945377
 31
2.5
  0
LINE
  5
2FF
330
17
100
AcDbEntity
  8
0
100
AcDbLine
 10
5.579078197867087
 20
55.80016474620181
 30
2.5
 11
5.579078197867087
 21
55.80016474620181
 31
5.0
  0
LINE
  5
300
330
17
100
AcDbEntity
  8
0
100
AcDbLine
 10
11.842864274655998
 20
36.275200841513985
 30
5.0
 11
5.579078197867087
 21
55.800164746201816
 31
5.0
  0
LINE
  5
301
330
17
100
AcDbEntity
  8
0
100
AcDbLine
 10
160.1307444519495
 20
-42.19797021351961
 30
5.0
 11
162.89148663330505
 21
27.561445433485346
 31
5.0
  0
LINE
  5
302
330
17
100
AcDbEntity
  8
0
100
AcDbLine
 10
162.89148663330502
 20
27.56144543348534
 30
5.0
 11
162.89148663330502
 21
27.56144543348534
 31
0.0
  0
LINE
  5
303
330
17
100
AcDbEntity
  8
0
100
AcDbLine
 10
34.81069214619846
 20
131.74292569989134
 30
0.0
 11
34.81069214619846
 21
131.74292569989134
 31
5.0
  0
LINE
  5
304
330
17
100
AcDbEntity
  8
0
100
AcDbLine
 10
-3.011209591575984
 20
82.5771103448516
 30
5.0
 11
34.810692146198484
 21
131.74292569989137
 31
5.0
  0
ARC
  5
305
330
17
100
AcDbEntity
  8
0
100
AcDbCircle
 10
168.85620773872978
 20
51.83946228277723
 30
5.0
 40
25.0
100
AcDbArc
 50
158.9020410054061
 51
256.196732230632
  0
LINE
  5
306
330
17
100
AcDbEntity
  8
0
100
AcDbLine
 10
145.5320487853538
 20
60.83855163213091
 30
5.0
 11
145.5320487853538
 21
60.83855163213091
 31
0.0
  0
LINE
  5
307
330
17
100
AcDbEntity
  8
0
100
AcDbLine
 10
128.26421193886765
 20
71.89662751079422
 30
5.0
 11
145.53204878535365
 21
60.83855163213111
 31
5.0
  0
LINE
  5
308
330
17
100
AcDbEntity
  8
0
100
AcDbLine
 10
128.26421193886765
 20
71.89662751079422
 30
2.5
 11
128.26421193886765
 21
71.89662751079422
 31
5.0
  0
LINE
  5
309
330
17
100
AcDbEntity
  8
0
100
AcDbLine
 10
119.84297298836168
 20
77.28946855596526
 30
2.5
 11
128.2642119388676
 21
71.89662751079415
 31
2.5
  0
LINE
  5
30A
330
17
100
AcDbEntity
  8
0
100
AcDbLine
 10
119.84297298836168
 20
77.28946855596526
 30
2.5
 11
119.84297298836168
 21
77.28946855596526
 31
5.0
  0
LINE
  5
30B
330
17
100
AcDbEntity
  8
0
100
AcDbLine
 10
34.81069214619847
 20
131.74292569989137
 30
5.0
 11
119.84297298836171
 21
77.28946855596527
 31
5.0
  0
LINE
  5
30C
330
17
100
AcDbEntity
  8
0
100
AcDbLine
 10
-12.341582328289135
 20
111.66098847674951
 30
5.0
 11
17.278977500719172
 21
125.35359089635136
 31
5.0
  0
LINE
  5
30D
330
17
100
AcDbEntity
  8
0
100
AcDbLine
 10
-12.341582328289139
 20
111.66098847674951
 30
0.0
 11
-12.341582328289139
 21
111.66098847674951
 31
5.0
  0
LINE
  5
30E
330
17
100
AcDbEntity
  8
0
100
AcDbLine
 10
17.27897750071908
 20
125.35359089635134
 30
5.0
 11
17.27897750071908
 21
125.35359089635134
 31
0.0
  0
LINE
  5
30F
330
17
100
AcDbEntity
  8
0
100
AcDbLine
 10
-6.724246323722341
 20
94.15108609740517
 30
5.0
 11
-6.724246323722341
 21
94.15108609740517
 31
0.0
  0
LINE
  5
310
330
17
100
AcDbEntity
  8
0
100
AcDbLine
 10
17.278977500719144
 20
125.3535908963514
 30
5.0
 11
-6.724246323722344
 21
94.15108609740516
 31
5.0
  0
LINE
  5
311
330
17
100
AcDbEntity
  8
0
100
AcDbLine
 10
-6.724246323722333
 20
94.15108609740516
 30
5.0
 11
-12.341582328289135
 21
111.66098847674951
 31
5.0
  0
LINE
  5
312
330
17
100
AcDbEntity
  8
0
100
AcDbLine
 10
171.51596687466989
 20
-7.3934757422534965
 30
5.0
 11
171.51596687466989
 21
-7.3934757422534965
 31
0.0
  0
LINE
  5
313
330
17
100
AcDbEntity
  8
0
100
AcDbLine
 10
172.88366484133223
 20
27.166003074820658
 30
5.0
 11
172.88366484133223
 21
27.166003074820658
 31
0.0
  0
LINE
  5
314
330
17
100
AcDbEntity
  8
0
100
AcDbLine
 10
171.5159668746699
 20
-7.3934757422534645
 30
5.0
 11
172.88366484133223
 21
27.166003074820637
 31
5.0
  0
LINE
  5
315
330
17
100
AcDbEntity
  8
0
100
AcDbLine
 10
182.25918589303194
 20
30.735903895735017
 30
5.0
 11
182.25918589303194
 21
30.735903895735017
 31
0.0
  0
ARC
  5
316
330
17
100
AcDbEntity
  8
0
100
AcDbCircle
 10
168.85620773872978
 20
51.83946228277723
 30
5.0
 40
25.0
100
AcDbArc
 50
279.27065029626306
 51
302.41983966647746
  0
LINE
  5
317
330
17
100
AcDbEntity
  8
0
100
AcDbLine
 10
182.25918589303205
 20
30.73590389573539
 30
5.0
 11
171.5159668746699
 21
-7.3934757422534645
 31
5.0
  0
LINE
  5
318
330
17
100
AcDbEntity
  8
0
100
AcDbLine
 10
181.90764579055022
 20
100.22043295474273
 30
5.0
 11
181.90764579055022
 21
100.22043295474273
 31
0.0
  0
LINE
  5
319
330
17
100
AcDbEntity
  8
0
100
AcDbLine
 10
161.89473599744952
 20
104.68615496897003
 30
5.0
 11
181.90764579055022
 21
100.22043295474283
 31
5.0
  0
LINE
  5
31A
330
17
100
AcDbEntity
  8
0
100
AcDbLine
 10
161.89473599744952
 20
104.68615496897003
 30
2.5
 11
161.89473599744952
 21
104.68615496897003
 31
5.0
  0
LINE
  5
31B
330
17
100
AcDbEntity
  8
0
100
AcDbLine
 10
152.1347702900531
 20
106.8640138694607
 30
2.5
 11
161.8947359974495
 21
104.68615496896997
 31
2.5
  0
LINE
  5
31C
330
17
100
AcDbEntity
  8
0
100
AcDbLine
 10
152.1347702900531
 20
106.8640138694607
 30
2.5
 11
152.1347702900531
 21
106.8640138694607
 31
5.0
  0
LINE
  5
31D
330
17
100
AcDbEntity
  8
0
100
AcDbLine
 10
60.15250930219649
 20
127.38912551281967
 30
5.0
 11
152.1347702900531
 21
106.8640138694607
 31
5.0
  0
LINE
  5
31E
330
17
100
AcDbEntity
  8
0
100
AcDbLine
 10
60.152509302196655
 20
127.38912551281966
 30
5.0
 11
60.152509302196655
 21
127.38912551281966
 31
0.0
  0
LINE
  5
31F
330
17
100
AcDbEntity
  8
0
100
AcDbLine
 10
125.23581403353279
 20
85.71070750647117
 30
2.5
 11
125.23581403353279
 21
85.71070750647117
 31
5.0
  0
LINE
  5
320
330
17
100
AcDbEntity
  8
0
100
AcDbLine
 10
133.6570529840387
 20
80.31786646130007
 30
2.5
 11
125.23581403353279
 21
85.71070750647118
 31
2.5
  0
LINE
  5
321
330
17
100
AcDbEntity
  8
0
100
AcDbLine
 10
133.65705298403873
 20
80.31786646130013
 30
2.5
 11
133.65705298403873
 21
80.31786646130013
 31
5.0
  0
LINE
  5
322
330
17
100
AcDbEntity
  8
0
100
AcDbLine
 10
150.92488983052482
 20
69.25979058263698
 30
5.0
 11
133.65705298403873
 21
80.31786646130013
 31
5.0
  0
LINE
  5
323
330
17
100
AcDbEntity
  8
0
100
AcDbLine
 10
150.92488983052488
 20
69.25979058263685
 30
5.0
 11
150.92488983052488
 21
69.25979058263685
 31
0.0
  0
LINE
  5
324
330
17
100
AcDbEntity
  8
0
100
AcDbLine
 10
125.23581403353279
 20
85.71070750647117
 30
5.0
 11
60.152509302196506
 21
127.38912551281972
 31
5.0
  0
LINE
  5
325
330
17
100
AcDbEntity
  8
0
100
AcDbLine
 10
182.37179036028328
 20
94.94968763534897
 30
5.0
 11
182.37179036028328
 21
94.94968763534897
 31
0.0
  0
ARC
  5
326
330
17
100
AcDbEntity
  8
0
100
AcDbCircle
 10
206.9035111309786
 20
99.76577277045992
 30
5.0
 40
25.0
100
AcDbArc
 50
178.95793816487202
 51
191.10709066719207
  0
ARC
  5
327
330
17
100
AcDbEntity
  8
0
100
AcDbCircle
 10
168.85620773872978
 20
51.83946228277723
 30
5.0
 40
25.0
100
AcDbArc
 50
79.02491076902618
 51
135.82812293977716
  0
LINE
  5
328
330
17
100
AcDbEntity
  8
0
100
AcDbLine
 10
173.61576250016066
 20
76.38221352368217
 30
5.0
 11
173.61576250016066
 21
76.38221352368217
 31
0.0
  0
LINE
  5
329
330
17
100
AcDbEntity
  8
0
100
AcDbLine
 10
181.46670899117535
 20
95.32480760924403
 30
0.0
 11
181.46670899117535
 21
95.32480760924403
 31
5.0
  0
LINE
  5
32A
330
17
100
AcDbEntity
  8
0
100
AcDbLine
 10
182.37179036028402
 20
94.94968763534867
 30
5.0
 11
181.46670899117535
 21
95.32480760924403
 31
5.0
  0
LINE
  5
32B
330
17
100
AcDbEntity
  8
0
100
AcDbLine
 10
181.46670899117535
 20
95.32480760924403
 30
5.0
 11
173.61576250016063
 21
76.38221352368213
 31
5.0
  0
LINE
  5
32C
330
17
100
AcDbEntity
  8
0
100
AcDbLine
 10
187.56540393178545
 20
83.92160633758897
 30
5.0
 11
187.56540393178545
 21
83.92160633758897
 31
0.0
  0
LINE
  5
32D
330
17
100
AcDbEntity
  8
0
100
AcDbLine
 10
182.85375290713034
 20
72.55343653347558
 30
5.0
 11
187.56540393178574
 21
83.92160633758965
 31
5.0
  0
LINE
  5
32E
330
17
100
AcDbEntity
  8
0
100
AcDbLine
 10
182.85375290713026
 20
72.55343653347542
 30
5.0
 11
182.85375290713026
 21
72.55343653347542
 31
0.0
  0
ARC
  5
32F
330
17
100
AcDbEntity
  8
0
100
AcDbCircle
 10
168.85620773872978
 20
51.83946228277723
 30
5.0
 40
25.0
100
AcDbArc
 50
26.109054305454055
 51
55.95099270339606
  0
LINE
  5
330
330
17
100
AcDbEntity
  8
0
100
AcDbLine
 10
191.30515879088819
 20
62.84148921683786
 30
5.0
 11
191.30515879088819
 21
62.84148921683786
 31
0.0
  0
LINE
  5
331
330
17
100
AcDbEntity
  8
0
100
AcDbLine
 10
195.4479315584153
 20
77.54484352218881
 30
5.0
 11
195.4479315584153
 21
77.54484352218881
 31
0.0
  0
ARC
  5
332
330
17
100
AcDbEntity
  8
0
100
AcDbCircle
 10
206.9035111309786
 20
99.76577277045992
 30
5.0
 40
25.0
100
AcDbArc
 50
219.3285696536991
 51
242.72748795315007
  0
LINE
  5
333
330
17
100
AcDbEntity
  8
0
100
AcDbLine
 10
195.44793155841532
 20
77.54484352218874
 30
5.0
 11
191.30515879088824
 21
62.84148921683796
 31
5.0
  0
LINE
  5
334
330
17
100
AcDbEntity
  8
0
100
AcDbLine
 10
-15.419418759207506
 20
121.25496957404482
 30
5.0
 11
-15.419418759207506
 21
121.25496957404482
 31
0.0
  0
LINE
  5
335
330
17
100
AcDbEntity
  8
0
100
AcDbLine
 10
23.009141234458777
 20
139.01921834545996
 30
5.0
 11
-15.41941875920751
 21
121.25496957404481
 31
5.0
  0
LINE
  5
336
330
17
100
AcDbEntity
  8
0
100
AcDbLine
 10
23.009141234458806
 20
139.01921834545996
 30
5.0
 11
23.009141234458806
 21
139.01921834545996
 31
0.0
  0
LINE
  5
337
330
17
100
AcDbEntity
  8
0
100
AcDbLine
 10
-3.4331865738177214
 20
155.0219840642634
 30
5.0
 11
23.00914123445878
 21
139.01921834545996
 31
5.0
  0
LINE
  5
338
330
17
100
AcDbEntity
  8
0
100
AcDbLine
 10
-3.433186573817741
 20
155.02198406426342
 30
0.0
 11
-3.433186573817741
 21
155.02198406426342
 31
5.0
  0
LINE
  5
339
330
17
100
AcDbEntity
  8
0
100
AcDbLine
 10
-20.753422056277806
 20
137.88169030908202
 30
0.0
 11
-20.753422056277806
 21
137.88169030908202
 31
5.0
  0
LINE
  5
33A
330
17
100
AcDbEntity
  8
0
100
AcDbLine
 10
-15.419418759207495
 20
121.2549695740448
 30
5.0
 11
-20.753422056277813
 21
137.88169030908205
 31
5.0
  0
LINE
  5
33B
330
17
100
AcDbEntity
  8
0
100
AcDbLine
 10
-20.753422056277795
 20
137.88169030908205
 30
5.0
 11
-3.433186573817739
 21
155.0219840642634
 31
5.0
  0
LINE
  5
33C
330
17
100
AcDbEntity
  8
0
100
AcDbLine
 10
-18.283008341648255
 20
154.3953040000357
 30
5.0
 11
-18.283008341648255
 21
154.3953040000357
 31
0.0
  0
LINE
  5
33D
330
17
100
AcDbEntity
  8
0
100
AcDbLine
 10
-12.25486513401244
 20
160.3608202011182
 30
5.0
 11
-18.28300834164824
 21
154.39530400003576
 31
5.0
  0
LINE
  5
33E
330
17
100
AcDbEntity
  8
0
100
AcDbLine
 10
-12.25486513401244
 20
160.36082020111823
 30
5.0
 11
-12.25486513401244
 21
160.36082020111823
 31
0.0
  0
LINE
  5
33F
330
17
100
AcDbEntity
  8
0
100
AcDbLine
 10
-16.545935382472376
 20
162.95775464527628
 30
0.0
 11
-16.545935382472376
 21
162.95775464527628
 31
5.0
  0
LINE
  5
340
330
17
100
AcDbEntity
  8
0
100
AcDbLine
 10
-16.545935382472386
 20
162.95775464527628
 30
5.0
 11
-12.254865134012455
 21
160.3608202011182
 31
5.0
  0
LINE
  5
341
330
17
100
AcDbEntity
  8
0
100
AcDbLine
 10
-18.28300834164825
 20
154.39530400003574
 30
5.0
 11
-16.545935382472372
 21
162.95775464527628
 31
5.0
  0
LINE
  5
342
330
17
100
AcDbEntity
  8
0
100
AcDbLine
 10
3.896054349260682
 20
162.27508074134266
 30
5.0
 11
3.896054349260682
 21
162.27508074134266
 31
0.0
  0
LINE
  5
343
330
17
100
AcDbEntity
  8
0
100
AcDbLine
 10
25.992909459844387
 20
148.902173559308
 30
5.0
 11
3.896054349260716
 21
162.27508074134266
 31
5.0
  0
LINE
  5
344
330
17
100
AcDbEntity
  8
0
100
AcDbLine
 10
25.992909459844412
 20
148.90217355930798
 30
0.0
 11
25.992909459844412
 21
148.90217355930798
 31
5.0
  0
LINE
  5
345
330
17
100
AcDbEntity
  8
0
100
AcDbLine
 10
19.16735992421725
 20
177.38773113486468
 30
5.0
 11
25.992909459844398
 21
148.90217355930804
 31
5.0
  0
LINE
  5
346
330
17
100
AcDbEntity
  8
0
100
AcDbLine
 10
19.16735992421725
 20
177.38773113486468
 30
5.0
 11
19.16735992421725
 21
177.38773113486468
 31
0.0
  0
LINE
  5
347
330
17
100
AcDbEntity
  8
0
100
AcDbLine
 10
3.8960543492607087
 20
162.27508074134266
 30
5.0
 11
19.167359924217255
 21
177.38773113486468
 31
5.0
  0
LINE
  5
348
330
17
100
AcDbEntity
  8
0
100
AcDbLine
 10
-4.925624210934018
 20
167.61391687819747
 30
0.0
 11
-4.925624210934018
 21
167.61391687819747
 31
5.0
  0
LINE
  5
349
330
17
100
AcDbEntity
  8
0
100
AcDbLine
 10
16.44241088967574
 20
188.75995724043028
 30
5.0
 11
-4.925624210934004
 21
167.61391687819747
 31
5.0
  0
LINE
  5
34A
330
17
100
AcDbEntity
  8
0
100
AcDbLine
 10
16.442410889675728
 20
188.7599572404303
 30
0.0
 11
16.442410889675728
 21
188.7599572404303
 31
5.0
  0
LINE
  5
34B
330
17
100
AcDbEntity
  8
0
100
AcDbLine
 10
-14.43393741224532
 20
173.36830089630814
 30
5.0
 11
-14.43393741224532
 21
173.36830089630814
 31
0.0
  0
LINE
  5
34C
330
17
100
AcDbEntity
  8
0
100
AcDbLine
 10
-4.925624210934011
 20
167.61391687819747
 30
5.0
 11
-14.43393741224532
 21
173.36830089630817
 31
5.0
  0
LINE
  5
34D
330
17
100
AcDbEntity
  8
0
100
AcDbLine
 10
8.961367080816402
 20
219.98113628692352
 30
5.0
 11
16.442410889675728
 21
188.75995724043028
 31
5.0
  0
LINE
  5
34E
330
17
100
AcDbEntity
  8
0
100
AcDbLine
 10
8.961367080816402
 20
219.98113628692352
 30
2.5
 11
8.961367080816402
 21
219.98113628692352
 31
5.0
  0
LINE
  5
34F
330
17
100
AcDbEntity
  8
0
100
AcDbLine
 10
6.6311834177006475
 20
229.70585962983398
 30
2.5
 11
8.9613670808164
 21
219.9811362869235
 31
2.5
  0
LINE
  5
350
330
17
100
AcDbEntity
  8
0
100
AcDbLine
 10
6.631183417700665
 20
229.705859629834
 30
2.5
 11
6.631183417700665
 21
229.705859629834
 31
5.0
  0
LINE
  5
351
330
17
100
AcDbEntity
  8
0
100
AcDbLine
 10
1.8531179152826445
 20
249.64650459306824
 30
5.0
 11
6.631183417700665
 21
229.70585962983398
 31
5.0
  0
LINE
  5
352
330
17
100
AcDbEntity
  8
0
100
AcDbLine
 10
1.8531179152827324
 20
249.64650459306785
 30
5.0
 11
1.8531179152827324
 21
249.64650459306785
 31
0.0
  0
LINE
  5
353
330
17
100
AcDbEntity
  8
0
100
AcDbLine
 10
1.0378013599733098
 20
249.63222460393848
 30
5.0
 11
1.0378013599733098
 21
249.63222460393848
 31
0.0
  0
LINE
  5
354
330
17
100
AcDbEntity
  8
0
100
AcDbLine
 10
-14.433937412245323
 20
173.36830089630817
 30
5.0
 11
1.0378013599733258
 21
249.63222460393854
 31
5.0
  0
ARC
  5
355
330
17
100
AcDbEntity
  8
0
100
AcDbCircle
 10
1.0077186051350306
 20
274.63220650448915
 30
5.0
 40
25.0
100
AcDbArc
 50
270.0689446121729
 51
271.9378819531792
  0
LINE
  5
356
330
17
100
AcDbEntity
  8
0
100
AcDbLine
 10
27.47942926242694
 20
185.61344552048195
 30
0.0
 11
27.47942926242694
 21
185.61344552048195
 31
5.0
  0
LINE
  5
357
330
17
100
AcDbEntity
  8
0
100
AcDbLine
 10
35.10236790751663
 20
153.8000865321369
 30
5.0
 11
27.47942926242694
 21
185.61344552048195
 31
5.0
  0
LINE
  5
358
330
17
100
AcDbEntity
  8
0
100
AcDbLine
 10
35.10236790751662
 20
153.8000865321369
 30
0.0
 11
35.10236790751662
 21
153.8000865321369
 31
5.0
  0
LINE
  5
359
330
17
100
AcDbEntity
  8
0
100
AcDbLine
 10
67.2545649413405
 20
224.97535317925363
 30
5.0
 11
67.2545649413405
 21
224.97535317925363
 31
0.0
  0
LINE
  5
35A
330
17
100
AcDbEntity
  8
0
100
AcDbLine
 10
35.10236790751662
 20
153.8000865321369
 30
5.0
 11
67.25456494134052
 21
224.97535317925366
 31
5.0
  0
LINE
  5
35B
330
17
100
AcDbEntity
  8
0
100
AcDbLine
 10
54.4547716185036
 20
212.30853824009134
 30
5.0
 11
67.25456494134053
 21
224.97535317925363
 31
5.0
  0
LINE
  5
35C
330
17
100
AcDbEntity
  8
0
100
AcDbLine
 10
54.4547716185036
 20
212.30853824009134
 30
2.5
 11
54.4547716185036
 21
212.30853824009134
 31
5.0
  0
LINE
  5
35D
330
17
100
AcDbEntity
  8
0
100
AcDbLine
 10
47.346877880652315
 20
205.27448914931762
 30
2.5
 11
54.454771618503585
 21
212.30853824009134
 31
2.5
  0
LINE
  5
35E
330
17
100
AcDbEntity
  8
0
100
AcDbLine
 10
47.346877880652315
 20
205.27448914931762
 30
2.5
 11
47.346877880652315
 21
205.27448914931762
 31
5.0
  0
LINE
  5
35F
330
17
100
AcDbEntity
  8
0
100
AcDbLine
 10
27.479429262426944
 20
185.61344552048195
 30
5.0
 11
47.346877880652315
 21
205.27448914931762
 31
5.0
  0
LINE
  5
360
330
17
100
AcDbEntity
  8
0
100
AcDbLine
 10
-69.19394709398973
 20
111.09018700417857
 30
5.0
 11
-62.89972183916471
 21
103.31955456907248
 31
5.0
  0
LINE
  5
361
330
17
100
AcDbEntity
  8
0
100
AcDbLine
 10
-60.959407207105876
 20
100.2033432844005
 30
5.0
 11
-56.763375735960246
 21
91.12626666837728
 31
5.0
  0
LINE
  5
362
330
17
100
AcDbEntity
  8
0
100
AcDbLine
 10
-65.84045235198347
 20
86.93023519723162
 30
5.0
 11
-70.0364838231291
 21
96.00731181325483
 31
5.0
  0
LINE
  5
363
330
17
100
AcDbEntity
  8
0
100
AcDbLine
 10
-70.67035427427082
 20
97.02532931424744
 30
5.0
 11
-76.96457952909584
 21
104.79596174935354
 31
5.0
  0
LINE
  5
364
330
17
100
AcDbEntity
  8
0
100
AcDbLine
 10
-143.67901184934925
 20
101.438490938137
 30
5.0
 11
-149.1612809344164
 21
93.0751945976432
 31
5.0
  0
LINE
  5
365
330
17
100
AcDbEntity
  8
0
100
AcDbLine
 10
-157.5245772749102
 20
98.55746368271036
 30
5.0
 11
-152.04230818984303
 21
106.92076002320415
 31
5.0
  0
LINE
  5
366
330
17
100
AcDbEntity
  8
0
100
AcDbLine
 10
-84.26274370240034
 20
203.9396313781461
 30
5.0
 11
-79.08514341025094
 21
212.49489029969453
 31
5.0
  0
LINE
  5
367
330
17
100
AcDbEntity
  8
0
100
AcDbLine
 10
-150.55464660084368
 20
55.11314457380178
 30
5.0
 11
-145.70023880711787
 21
46.37044905284178
 31
5.0
  0
LINE
  5
368
330
17
100
AcDbEntity
  8
0
100
AcDbLine
 10
-120.63417130093696
 20
26.734445154849723
 30
5.0
 11
-112.55031180383314
 21
32.62097347221
 31
5.0
  0
LINE
  5
369
330
17
100
AcDbEntity
  8
0
100
AcDbLine
 10
-69.58869189952274
 20
38.47089066427803
 30
5.0
 11
-60.2252353335288
 21
34.96009572057299
 31
5.0
  0
LINE
  5
36A
330
17
100
AcDbEntity
  8
0
100
AcDbLine
 10
-54.64414582327337
 20
31.858583013830142
 30
5.0
 11
-46.718065162708555
 21
25.761268411300563
 31
5.0
  0
LINE
  5
36B
330
17
100
AcDbEntity
  8
0
100
AcDbLine
 10
-36.93178926202796
 20
31.377212360511194
 30
5.0
 11
-32.489429148630215
 21
40.33631034093828
 31
5.0
  0
LINE
  5
36C
330
17
100
AcDbEntity
  8
0
100
AcDbLine
 10
-6.997669414446815
 20
62.267422240391795
 30
5.0
 11
2.524333138805133
 21
65.32216729945374
 31
5.0
  0
LINE
  5
36D
330
17
100
AcDbEntity
  8
0
100
AcDbLine
 10
119.84297298836168
 20
77.28946855596526
 30
5.0
 11
125.23581403353279
 21
85.71070750647117
 31
5.0
  0
LINE
  5
36E
330
17
100
AcDbEntity
  8
0
100
AcDbLine
 10
152.1347702900531
 20
106.8640138694607
 30
5.0
 11
154.31262919054384
 21
116.62397957685708
 31
5.0
  0
LINE
  5
36F
330
17
100
AcDbEntity
  8
0
100
AcDbLine
 10
47.42072252772988
 20
219.4164319779426
 30
5.0
 11
54.4547716185036
 21
212.30853824009134
 31
5.0
  0
LINE
  5
370
330
17
100
AcDbEntity
  8
0
100
AcDbLine
 10
47.346877880652315
 20
205.27448914931762
 30
5.0
 11
40.312828789878594
 21
212.3823828871689
 31
5.0
  0
LINE
  5
371
330
17
100
AcDbEntity
  8
0
100
AcDbLine
 10
18.686090423726903
 20
222.31131995003926
 30
5.0
 11
8.961367080816398
 21
219.98113628692352
 31
5.0
  0
LINE
  5
372
330
17
100
AcDbEntity
  8
0
100
AcDbLine
 10
6.631183417700665
 20
229.705859629834
 30
5.0
 11
16.35590676061117
 21
232.03604329294976
 31
5.0
  0
LINE
  5
373
330
17
100
AcDbEntity
  8
0
100
AcDbLine
 10
-70.52988448870244
 20
207.3172900075452
 30
5.0
 11
-75.70748478085184
 21
198.76203108599677
 31
5.0
  0
LINE
  5
374
330
17
100
AcDbEntity
  8
0
100
AcDbLine
 10
-139.3539713688308
 20
-17.920577792475875
 30
5.0
 11
-139.01577502504975
 21
-7.9262982670146656
 31
5.0
  0
LINE
  5
375
330
17
100
AcDbEntity
  8
0
100
AcDbLine
 10
-154.44293432807785
 20
41.516041259115966
 30
5.0
 11
-159.29734212180367
 21
50.25873678007597
 31
5.0
  0
LINE
  5
376
330
17
100
AcDbEntity
  8
0
100
AcDbLine
 10
-159.2973421218037
 20
50.25873678007598
 30
2.5
 11
-154.44293432807788
 21
41.51604125911597
 31
2.5
  0
LINE
  5
377
330
17
100
AcDbEntity
  8
0
100
AcDbLine
 10
-145.70023880711784
 20
46.370449052841764
 30
2.5
 11
-150.55464660084365
 21
55.11314457380177
 31
2.5
  0
LINE
  5
378
330
17
100
AcDbEntity
  8
0
100
AcDbLine
 10
-79.08514341025088
 20
212.49489029969462
 30
2.5
 11
-84.26274370240029
 21
203.93963137814617
 31
2.5
  0
LINE
  5
379
330
17
100
AcDbEntity
  8
0
100
AcDbLine
 10
-75.70748478085184
 20
198.76203108599677
 30
2.5
 11
-70.52988448870244
 21
207.3172900075452
 31
2.5
  0
LINE
  5
37A
330
17
100
AcDbEntity
  8
0
100
AcDbLine
 10
-37.314254420856756
 20
-7.513012434297008
 30
5.0
 11
-39.87861574326328
 21
2.1525993418993385
 31
5.0
  0
LINE
  5
37B
330
17
100
AcDbEntity
  8
0
100
AcDbLine
 10
-52.815379765238085
 20
17.83518775073574
 30
5.0
 11
-60.7414604258029
 21
23.932502353265317
 31
5.0
  0
LINE
  5
37C
330
17
100
AcDbEntity
  8
0
100
AcDbLine
 10
-63.7360302772339
 20
25.596639154579073
 30
5.0
 11
-73.09948684322785
 21
29.10743409828412
 31
5.0
  0
LINE
  5
37D
330
17
100
AcDbEntity
  8
0
100
AcDbLine
 10
-106.66378348647291
 20
24.537113975106188
 30
5.0
 11
-114.74764298357672
 21
18.650585657745914
 31
5.0
  0
LINE
  5
37E
330
17
100
AcDbEntity
  8
0
100
AcDbLine
 10
-129.0214954995885
 20
-8.264494610795836
 30
5.0
 11
-129.35969184336955
 21
-18.258774136257045
 31
5.0
  0
LINE
  5
37F
330
17
100
AcDbEntity
  8
0
100
AcDbLine
 10
-77.68779417598988
 20
-59.58729169210448
 30
5.0
 11
-68.01205216835191
 21
-57.06142221771944
 31
5.0
  0
LINE
  5
380
330
17
100
AcDbEntity
  8
0
100
AcDbLine
 10
-129.35969184336957
 20
-18.25877413625691
 30
2.5
 11
-129.02149549958853
 21
-8.264494610795701
 31
2.5
  0
LINE
  5
381
330
17
100
AcDbEntity
  8
0
100
AcDbLine
 10
-139.01577502504972
 20
-7.9262982670146656
 30
2.5
 11
-139.35397136883077
 21
-17.920577792475875
 31
2.5
  0
LINE
  5
382
330
17
100
AcDbEntity
  8
0
100
AcDbLine
 10
16.355906760611155
 20
232.03604329294973
 30
2.5
 11
6.631183417700651
 21
229.70585962983398
 31
2.5
  0
LINE
  5
383
330
17
100
AcDbEntity
  8
0
100
AcDbLine
 10
8.961367080816402
 20
219.98113628692352
 30
2.5
 11
18.686090423726906
 21
222.31131995003926
 31
2.5
  0
LINE
  5
384
330
17
100
AcDbEntity
  8
0
100
AcDbLine
 10
40.312828789878594
 20
212.3823828871689
 30
2.5
 11
47.346877880652315
 21
205.27448914931762
 31
2.5
  0
LINE
  5
385
330
17
100
AcDbEntity
  8
0
100
AcDbLine
 10
54.454771618503585
 20
212.30853824009137
 30
2.5
 11
47.420722527729865
 21
219.41643197794264
 31
2.5
  0
LINE
  5
386
330
17
100
AcDbEntity
  8
0
100
AcDbLine
 10
142.30084874001432
 20
-168.44691607527784
 30
5.0
 11
132.56108060506938
 21
-166.18043936515897
 31
5.0
  0
LINE
  5
387
330
17
100
AcDbEntity
  8
0
100
AcDbLine
 10
-65.48618269396678
 20
-66.73716422535736
 30
5.0
 11
-75.16192470160475
 21
-69.26303369974241
 31
5.0
  0
LINE
  5
388
330
17
100
AcDbEntity
  8
0
100
AcDbLine
 10
-72.99615365984525
 20
-352.1180892408024
 30
5.0
 11
-64.01887872076367
 21
-356.52360109167034
 31
5.0
  0
LINE
  5
389
330
17
100
AcDbEntity
  8
0
100
AcDbLine
 10
6.245742193573669
 20
-364.8156315070025
 30
5.0
 11
15.821048445160818
 21
-361.932315674785
 31
5.0
  0
LINE
  5
38A
330
17
100
AcDbEntity
  8
0
100
AcDbLine
 10
-75.16192470160473
 20
-69.26303369974241
 30
2.5
 11
-65.48618269396677
 21
-66.73716422535736
 31
2.5
  0
LINE
  5
38B
330
17
100
AcDbEntity
  8
0
100
AcDbLine
 10
-68.01205216835183
 20
-57.06142221771941
 30
2.5
 11
-77.6877941759898
 21
-59.58729169210445
 31
2.5
  0
LINE
  5
38C
330
17
100
AcDbEntity
  8
0
100
AcDbLine
 10
-68.42439057163162
 20
-365.500876030752
 30
5.0
 11
-77.4016655107132
 21
-361.0953641798841
 31
5.0
  0
LINE
  5
38D
330
17
100
AcDbEntity
  8
0
100
AcDbLine
 10
-77.40166551071317
 20
-361.09536417988403
 30
2.5
 11
-68.42439057163159
 21
-365.50087603075195
 31
2.5
  0
LINE
  5
38E
330
17
100
AcDbEntity
  8
0
100
AcDbLine
 10
-64.01887872076367
 20
-356.5236010916704
 30
2.5
 11
-72.99615365984525
 21
-352.1180892408025
 31
2.5
  0
LINE
  5
38F
330
17
100
AcDbEntity
  8
0
100
AcDbLine
 10
154.31262919054384
 20
116.62397957685707
 30
2.5
 11
152.1347702900531
 21
106.86401386946069
 31
2.5
  0
LINE
  5
390
330
17
100
AcDbEntity
  8
0
100
AcDbLine
 10
161.8947359974495
 20
104.68615496896996
 30
2.5
 11
164.07259489794023
 21
114.44612067636633
 31
2.5
  0
LINE
  5
391
330
17
100
AcDbEntity
  8
0
100
AcDbLine
 10
164.07259489794023
 20
114.4461206763664
 30
5.0
 11
161.89473599744952
 21
104.68615496897003
 31
5.0
  0
LINE
  5
392
330
17
100
AcDbEntity
  8
0
100
AcDbLine
 10
133.65705298403873
 20
80.31786646130013
 30
5.0
 11
128.26421193886762
 21
71.89662751079422
 31
5.0
  0
LINE
  5
393
330
17
100
AcDbEntity
  8
0
100
AcDbLine
 10
67.41326612824332
 20
-4.607453997986809
 30
5.0
 11
63.65601336731732
 21
-13.874764918125074
 31
5.0
  0
LINE
  5
394
330
17
100
AcDbEntity
  8
0
100
AcDbLine
 10
134.82755731518824
 20
-156.44067123021406
 30
5.0
 11
144.56732545013318
 21
-158.70714794033293
 31
5.0
  0
ARC
  5
395
330
17
100
AcDbEntity
  8
0
100
AcDbCircle
 10
168.85620773872978
 20
51.83946228277723
 30
5.0
 40
25.0
100
AcDbArc
 50
-0.8522194673565945
 51
11.518836904966848
  0
LINE
  5
396
330
17
100
AcDbEntity
  8
0
100
AcDbLine
 10
193.35268539529434
 20
56.83171452214219
 30
5.0
 11
199.51223014910502
 21
55.09621976791698
 31
5.0
  0
LINE
  5
397
330
17
100
AcDbEntity
  8
0
100
AcDbLine
 10
18.70436427737827
 20
-371.50762192637217
 30
5.0
 11
9.129058025791121
 21
-374.39093775858964
 31
5.0
  0
LINE
  5
398
330
17
100
AcDbEntity
  8
0
100
AcDbLine
 10
9.129058025791167
 20
-374.39093775858964
 30
2.5
 11
18.704364277378318
 21
-371.50762192637217
 31
2.5
  0
LINE
  5
399
330
17
100
AcDbEntity
  8
0
100
AcDbLine
 10
15.82104844516082
 20
-361.93231567478495
 30
2.5
 11
6.245742193573671
 21
-364.8156315070024
 31
2.5
  0
LINE
  5
39A
330
17
100
AcDbEntity
  8
0
100
AcDbLine
 10
193.35268539529412
 20
56.831714522142256
 30
5.0
 11
193.35268539529412
 21
56.831714522142256
 31
2.5
  0
LINE
  5
39B
330
17
100
AcDbEntity
  8
0
100
AcDbLine
 10
199.51223014910502
 20
55.09621976791699
 30
2.5
 11
193.3526853952937
 21
56.83171452214239
 31
2.5
  0
ARC
  5
39C
330
17
100
AcDbEntity
  8
0
100
AcDbCircle
 10
168.85620773872978
 20
51.83946228277723
 30
2.5
 40
25.0
100
AcDbArc
 50
-0.8522194673555248
 51
11.51883690496814
  0
LINE
  5
39D
330
17
100
AcDbEntity
  8
0
100
AcDbLine
 10
132.56108060506938
 20
-166.180439365159
 30
2.5
 11
142.30084874001432
 21
-168.44691607527787
 31
2.5
  0
LINE
  5
39E
330
17
100
AcDbEntity
  8
0
100
AcDbLine
 10
144.56732545013318
 20
-158.70714794033293
 30
2.5
 11
134.82755731518824
 21
-156.44067123021406
 31
2.5
  0
LINE
  5
39F
330
17
100
AcDbEntity
  8
0
100
AcDbLine
 10
5.579078197867087
 20
55.80016474620181
 30
5.0
 11
-3.9429243553848607
 21
52.74541968713986
 31
5.0
  0
LINE
  5
3A0
330
17
100
AcDbEntity
  8
0
100
AcDbLine
 10
-23.530331168203148
 20
35.89395022754049
 30
5.0
 11
-27.9726912816009
 21
26.934852247113405
 31
5.0
  0
LINE
  5
3A1
330
17
100
AcDbEntity
  8
0
100
AcDbLine
 10
-30.213003967066946
 20
4.716960664305885
 30
5.0
 11
-27.64864264466042
 21
-4.948651111890461
 31
5.0
  0
LINE
  5
3A2
330
17
100
AcDbEntity
  8
0
100
AcDbLine
 10
54.388702447179064
 20
-10.117512157199064
 30
5.0
 11
58.145955208105065
 21
-0.8502012370607996
 31
5.0
  0
LINE
  5
3A3
330
17
100
AcDbEntity
  8
0
100
AcDbLine
 10
-27.648642644660413
 20
-4.948651111890483
 30
2.5
 11
-30.21300396706694
 21
4.716960664305864
 31
2.5
  0
LINE
  5
3A4
330
17
100
AcDbEntity
  8
0
100
AcDbLine
 10
-39.87861574326328
 20
2.1525993418993377
 30
2.5
 11
-37.314254420856756
 21
-7.513012434297009
 31
2.5
  0
LINE
  5
3A5
330
17
100
AcDbEntity
  8
0
100
AcDbLine
 10
63.656013367317314
 20
-13.87476491812508
 30
2.5
 11
67.41326612824331
 21
-4.607453997986816
 31
2.5
  0
LINE
  5
3A6
330
17
100
AcDbEntity
  8
0
100
AcDbLine
 10
58.14595520810505
 20
-0.8502012370608156
 30
2.5
 11
54.38870244717905
 21
-10.11751215719908
 31
2.5
  0
LINE
  5
3A7
330
17
100
AcDbEntity
  8
0
100
AcDbLine
 10
-114.74764298357668
 20
18.650585657745907
 30
2.5
 11
-106.66378348647287
 21
24.53711397510618
 31
2.5
  0
LINE
  5
3A8
330
17
100
AcDbEntity
  8
0
100
AcDbLine
 10
-112.55031180383314
 20
32.62097347221
 30
2.5
 11
-120.63417130093696
 21
26.734445154849723
 31
2.5
  0
LINE
  5
3A9
330
17
100
AcDbEntity
  8
0
100
AcDbLine
 10
-149.16128093441642
 20
93.07519459764319
 30
2.5
 11
-143.67901184934925
 21
101.43849093813698
 31
2.5
  0
LINE
  5
3AA
330
17
100
AcDbEntity
  8
0
100
AcDbLine
 10
-152.04230818984306
 20
106.92076002320414
 30
2.5
 11
-157.52457727491023
 21
98.55746368271035
 31
2.5
  0
LINE
  5
3AB
330
17
100
AcDbEntity
  8
0
100
AcDbLine
 10
-73.0994868432278
 20
29.107434098284074
 30
2.5
 11
-63.73603027723385
 21
25.59663915457903
 31
2.5
  0
LINE
  5
3AC
330
17
100
AcDbEntity
  8
0
100
AcDbLine
 10
-60.2252353335288
 20
34.960095720572994
 30
2.5
 11
-69.58869189952274
 21
38.47089066427804
 31
2.5
  0
LINE
  5
3AD
330
17
100
AcDbEntity
  8
0
100
AcDbLine
 10
-27.972691281600873
 20
26.934852247113447
 30
2.5
 11
-23.530331168203126
 21
35.893950227540536
 31
2.5
  0
LINE
  5
3AE
330
17
100
AcDbEntity
  8
0
100
AcDbLine
 10
-32.48942914863022
 20
40.33631034093828
 30
2.5
 11
-36.93178926202797
 21
31.377212360511194
 31
2.5
  0
LINE
  5
3AF
330
17
100
AcDbEntity
  8
0
100
AcDbLine
 10
-46.71806516270855
 20
25.76126841130055
 30
2.5
 11
-54.64414582327336
 21
31.858583013830128
 31
2.5
  0
LINE
  5
3B0
330
17
100
AcDbEntity
  8
0
100
AcDbLine
 10
-60.74146042580295
 20
23.93250235326532
 30
2.5
 11
-52.815379765238134
 21
17.83518775073574
 31
2.5
  0
LINE
  5
3B1
330
17
100
AcDbEntity
  8
0
100
AcDbLine
 10
-56.763375735960246
 20
91.12626666837728
 30
2.5
 11
-60.959407207105876
 21
100.2033432844005
 31
2.5
  0
LINE
  5
3B2
330
17
100
AcDbEntity
  8
0
100
AcDbLine
 10
-70.03648382312909
 20
96.00731181325487
 30
2.5
 11
-65.84045235198346
 21
86.93023519723165
 31
2.5
  0
LINE
  5
3B3
330
17
100
AcDbEntity
  8
0
100
AcDbLine
 10
-62.89972183916471
 20
103.3195545690725
 30
2.5
 11
-69.19394709398973
 21
111.09018700417859
 31
2.5
  0
LINE
  5
3B4
330
17
100
AcDbEntity
  8
0
100
AcDbLine
 10
-76.96457952909583
 20
104.79596174935355
 30
2.5
 11
-70.6703542742708
 21
97.02532931424746
 31
2.5
  0
LINE
  5
3B5
330
17
100
AcDbEntity
  8
0
100
AcDbLine
 10
-3.9429243553848643
 20
52.74541968713986
 30
2.5
 11
5.579078197867084
 21
55.8001647462018
 31
2.5
  0
LINE
  5
3B6
330
17
100
AcDbEntity
  8
0
100
AcDbLine
 10
2.5243331388051367
 20
65.32216729945375
 30
2.5
 11
-6.997669414446811
 21
62.26742224039181
 31
2.5
  0
LINE
  5
3B7
330
17
100
AcDbEntity
  8
0
100
AcDbLine
 10
128.2642119388676
 20
71.89662751079416
 30
2.5
 11
133.6570529840387
 21
80.31786646130007
 31
2.5
  0
LINE
  5
3B8
330
17
100
AcDbEntity
  8
0
100
AcDbLine
 10
125.23581403353279
 20
85.71070750647117
 30
2.5
 11
119.84297298836168
 21
77.28946855596526
 31
2.5
  0
ENDSEC
  0
SECTION
  2
OBJECTS
  0
DICTIONARY
  5
A
330
0
100
AcDbDictionary
280
0
281
1
  3
ACAD_COLOR
350
B
  3
ACAD_GROUP
350
C
  3
ACAD_LAYOUT
350
D
  3
ACAD_MATERIAL
350
E
  3
ACAD_MLEADERSTYLE
350
F
  3
ACAD_MLINESTYLE
350
10
  3
ACAD_PLOTSETTINGS
350
11
  3
ACAD_PLOTSTYLENAME
350
12
  3
ACAD_SCALELIST
350
14
  3
ACAD_TABLESTYLE
350
15
  3
ACAD_VISUALSTYLE
350
16
  3
EZDXF_META
350
2D
  0
DICTIONARY
  5
B
330
A
100
AcDbDictionary
280
0
281
1
  0
DICTIONARY
  5
C
330
A
100
AcDbDictionary
280
0
281
1
  0
DICTIONARY
  5
D
330
A
100
AcDbDictionary
280
0
281
1
  3
Model
350
1A
  3
Layout1
350
1E
  0
DICTIONARY
  5
E
330
A
100
AcDbDictionary
280
0
281
1
  3
ByBlock
350
1F
  3
ByLayer
350
20
  3
Global
350
21
  0
DICTIONARY
  5
F
330
A
100
AcDbDictionary
280
0
281
1
  3
Standard
350
2C
  0
DICTIONARY
  5
10
330
A
100
AcDbDictionary
280
0
281
1
  3
Standard
350
22
  0
DICTIONARY
  5
11
330
A
100
AcDbDictionary
280
0
281
1
  0
ACDBDICTIONARYWDFLT
  5
12
330
A
100
AcDbDictionary
280
0
281
1
  3
Normal
350
13
100
AcDbDictionaryWithDefault
340
13
  0
ACDBPLACEHOLDER
  5
13
330
12
  0
DICTIONARY
  5
14
330
A
100
AcDbDictionary
280
0
281
1
  0
DICTIONARY
  5
15
330
A
100
AcDbDictionary
280
0
281
1
  0
DICTIONARY
  5
16
330
A
100
AcDbDictionary
280
0
281
1
  0
LAYOUT
  5
1A
330
D
100
AcDbPlotSettings
  1

  2
Adobe PDF
  4
A3
  6

 40
7.5
 41
20.0
 42
7.5
 43
20.0
 44
420.0
 45
297.0
 46
0.0
 47
0.0
 48
0.0
 49
0.0
140
0.0
141
0.0
142
1.0
143
1.0
 70
1024
 72
1
 73
0
 74
5
  7

 75
16
 76
0
 77
2
 78
300
147
1.0
148
0.0
149
0.0
100
AcDbLayout
  1
Model
 70
1
 71
0
 10
0.0
 20
0.0
 11
420.0
 21
297.0
 12
0.0
 22
0.0
 32
0.0
 14
1e+20
 24
1e+20
 34
1e+20
 15
-1e+20
 25
-1e+20
 35
-1e+20
146
0.0
 13
0.0
 23
0.0
 33
0.0
 16
1.0
 26
0.0
 36
0.0
 17
0.0
 27
1.0
 37
0.0
 76
1
330
17
  0
LAYOUT
  5
1E
330
D
100
AcDbPlotSettings
  1

  2
Adobe PDF
  4
A3
  6

 40
7.5
 41
20.0
 42
7.5
 43
20.0
 44
420.0
 45
297.0
 46
0.0
 47
0.0
 48
0.0
 49
0.0
140
0.0
141
0.0
142
1.0
143
1.0
 70
0
 72
1
 73
0
 74
5
  7

 75
16
 76
0
 77
2
 78
300
147
1.0
148
0.0
149
0.0
100
AcDbLayout
  1
Layout1
 70
1
 71
1
 10
0.0
 20
0.0
 11
420.0
 21
297.0
 12
0.0
 22
0.0
 32
0.0
 14
1e+20
 24
1e+20
 34
1e+20
 15
-1e+20
 25
-1e+20
 35
-1e+20
146
0.0
 13
0.0
 23
0.0
 33
0.0
 16
1.0
 26
0.0
 36
0.0
 17
0.0
 27
1.0
 37
0.0
 76
1
330
1B
  0
MATERIAL
  5
1F
102
{ACAD_REACTORS
330
E
102
}
330
E
100
AcDbMaterial
  1
ByBlock
  2

 70
0
 40
1.0
 71
1
 41
1.0
 91
-1023410177
 42
1.0
 72
1
  3

 73
1
 74
1
 75
1
 44
0.5
 73
0
 45
1.0
 46
1.0
 77
1
  4

 78
1
 79
1
170
1
 48
1.0
171
1
  6

172
1
173
1
174
1
140
1.0
141
1.0
175
1
  7

176
1
177
1
178
1
143
1.0
179
1
  8

270
1
271
1
272
1
145
1.0
146
1.0
273
1
  9

274
1
275
1
276
1
 42
1.0
 72
1
  3

 73
1
 74
1
 75
1
 94
63
  0
MATERIAL
  5
20
102
{ACAD_REACTORS
330
E
102
}
330
E
100
AcDbMaterial
  1
ByLayer
  2

 70
0
 40
1.0
 71
1
 41
1.0
 91
-1023410177
 42
1.0
 72
1
  3

 73
1
 74
1
 75
1
 44
0.5
 73
0
 45
1.0
 46
1.0
 77
1
  4

 78
1
 79
1
170
1
 48
1.0
171
1
  6

172
1
173
1
174
1
140
1.0
141
1.0
175
1
  7

176
1
177
1
178
1
143
1.0
179
1
  8

270
1
271
1
272
1
145
1.0
146
1.0
273
1
  9

274
1
275
1
276
1
 42
1.0
 72
1
  3

 73
1
 74
1
 75
1
 94
63
  0
MATERIAL
  5
21
102
{ACAD_REACTORS
330
E
102
}
330
E
100
AcDbMaterial
  1
Global
  2

 70
0
 40
1.0
 71
1
 41
1.0
 91
-1023410177
 42
1.0
 72
1
  3

 73
1
 74
1
 75
1
 44
0.5
 73
0
 45
1.0
 46
1.0
 77
1
  4

 78
1
 79
1
170
1
 48
1.0
171
1
  6

172
1
173
1
174
1
140
1.0
141
1.0
175
1
  7

176
1
177
1
178
1
143
1.0
179
1
  8

270
1
271
1
272
1
145
1.0
146
1.0
273
1
  9

274
1
275
1
276
1
 42
1.0
 72
1
  3

 73
1
 74
1
 75
1
 94
63
  0
MLINESTYLE
  5
22
102
{ACAD_REACTORS
330
10
102
}
330
10
100
AcDbMlineStyle
  2
Standard
 70
0
  3

 62
256
 51
90.0
 52
90.0
 71
2
 49
0.5
 62
256
  6
BYLAYER
 49
-0.5
 62
256
  6
BYLAYER
  0
MLEADERSTYLE
  5
2C
102
{ACAD_REACTORS
330
F
102
}
330
F
100
AcDbMLeaderStyle
179
2
170
2
171
1
172
0
 90
2
 40
0.0
 41
0.0
173
1
 91
-1056964608
 92
-2
290
1
 42
2.0
291
1
 43
8.0
  3
Standard
 44
4.0
300

342
29
174
1
175
1
176
0
178
1
 93
-1056964608
 45
4.0
292
0
297
0
 46
4.0
 94
-1056964608
 47
1.0
 49
1.0
140
1.0
294
1
141
0.0
177
0
142
1.0
295
0
296
0
143
3.75
271
0
272
9
273
9
  0
DICTIONARY
  5
2D
330
A
100
AcDbDictionary
281
1
  3
CREATED_BY_EZDXF
350
2E
  3
WRITTEN_BY_EZDXF
350
3BB
  0
DICTIONARYVAR
  5
2E
330
2D
100
DictionaryVariables
280
0
  1
1.0.2 @ 2023-03-28T19:25:56.567443+00:00
  0
DICTIONARYVAR
  5
3BB
330
2D
100
DictionaryVariables
280
0
  1
1.0.2 @ 2023-03-28T19:25:56.617151+00:00
  0
ENDSEC
  0
EOF
