<?xml version="1.0" encoding="utf-8" standalone="no"?>
<!DOCTYPE svg PUBLIC "-//W3C//DTD SVG 1.1//EN"
  "http://www.w3.org/Graphics/SVG/1.1/DTD/svg11.dtd">
<svg xmlns:xlink="http://www.w3.org/1999/xlink" width="432pt" height="288pt" viewBox="0 0 432 288" xmlns="http://www.w3.org/2000/svg" version="1.1">
 <metadata>
  <rdf:RDF xmlns:dc="http://purl.org/dc/elements/1.1/" xmlns:cc="http://creativecommons.org/ns#" xmlns:rdf="http://www.w3.org/1999/02/22-rdf-syntax-ns#">
   <cc:Work>
    <dc:type rdf:resource="http://purl.org/dc/dcmitype/StillImage"/>
    <dc:date>2023-03-28T22:03:16.234776</dc:date>
    <dc:format>image/svg+xml</dc:format>
    <dc:creator>
     <cc:Agent>
      <dc:title>Matplotlib v3.7.1, https://matplotlib.org/</dc:title>
     </cc:Agent>
    </dc:creator>
   </cc:Work>
  </rdf:RDF>
 </metadata>
 <defs>
  <style type="text/css">*{stroke-linejoin: round; stroke-linecap: butt}</style>
 </defs>
 <g id="figure_1">
  <g id="patch_1">
   <path d="M 0 288 
L 432 288 
L 432 0 
L 0 0 
z
" style="fill: #ffffff"/>
  </g>
  <g id="axes_1">
   <g id="patch_2">
    <path d="M 92.73699 252 
L 350.06301 252 
L 350.06301 34.56 
L 92.73699 34.56 
z
" style="fill: #ffffff"/>
   </g>
   <g id="patch_3">
    <path d="M 336.439791 162.974223 
L 305.17242 92.760803 
" clip-path="url(#pc04d53cd0e)" style="fill: none; stroke: #000000; stroke-linecap: round"/>
   </g>
   <g id="patch_4">
    <path d="M 334.886047 169.420844 
L 287.989229 197.991871 
" clip-path="url(#pc04d53cd0e)" style="fill: none; stroke: #000000; stroke-linecap: round"/>
   </g>
   <g id="patch_5">
    <path d="M 287.056098 48.865031 
L 315.898371 119.927712 
" clip-path="url(#pc04d53cd0e)" style="fill: none; stroke: #000000; stroke-linecap: round"/>
   </g>
   <g id="patch_6">
    <path d="M 281.503634 45.489628 
L 229.068624 60.084454 
" clip-path="url(#pc04d53cd0e)" style="fill: none; stroke: #000000; stroke-linecap: round"/>
   </g>
   <g id="patch_7">
    <path d="M 225.476973 208.413666 
L 280.688175 200.649492 
" clip-path="url(#pc04d53cd0e)" style="fill: none; stroke: #000000; stroke-linecap: round"/>
   </g>
   <g id="patch_8">
    <path d="M 215.769875 232.14454 
L 280.89098 201.798145 
" clip-path="url(#pc04d53cd0e)" style="fill: none; stroke: #000000; stroke-linecap: round"/>
   </g>
   <g id="patch_9">
    <path d="M 187.037409 96.910191 
L 222.189778 64.048016 
" clip-path="url(#pc04d53cd0e)" style="fill: none; stroke: #000000; stroke-linecap: round"/>
   </g>
   <g id="patch_10">
    <path d="M 151.317329 89.907799 
L 221.628676 62.562443 
" clip-path="url(#pc04d53cd0e)" style="fill: none; stroke: #000000; stroke-linecap: round"/>
   </g>
   <g id="patch_11">
    <path d="M 182.959792 104.670339 
L 175.1156 144.374888 
" clip-path="url(#pc04d53cd0e)" style="fill: none; stroke: #000000; stroke-linecap: round"/>
   </g>
   <g id="patch_12">
    <path d="M 221.54975 203.952883 
L 220.796694 168.609713 
" clip-path="url(#pc04d53cd0e)" style="fill: none; stroke: #000000; stroke-linecap: round"/>
   </g>
   <g id="patch_13">
    <path d="M 149.603397 95.634365 
L 172.190812 144.922898 
" clip-path="url(#pc04d53cd0e)" style="fill: none; stroke: #000000; stroke-linecap: round"/>
   </g>
   <g id="patch_14">
    <path d="M 218.067891 210.740695 
L 158.749087 240.326631 
" clip-path="url(#pc04d53cd0e)" style="fill: none; stroke: #000000; stroke-linecap: round"/>
   </g>
   <g id="patch_15">
    <path d="M 212.752458 228.891911 
L 220.089694 168.550213 
" clip-path="url(#pc04d53cd0e)" style="fill: none; stroke: #000000; stroke-linecap: round"/>
   </g>
   <g id="patch_16">
    <path d="M 180.20502 101.124487 
L 113.22937 124.524545 
" clip-path="url(#pc04d53cd0e)" style="fill: none; stroke: #000000; stroke-linecap: round"/>
   </g>
   <g id="patch_17">
    <path d="M 208.409651 232.693493 
L 134.336661 210.188421 
" clip-path="url(#pc04d53cd0e)" style="fill: none; stroke: #000000; stroke-linecap: round"/>
   </g>
   <g id="patch_18">
    <path d="M 208.332742 234.38576 
L 158.979944 241.561094 
" clip-path="url(#pc04d53cd0e)" style="fill: none; stroke: #000000; stroke-linecap: round"/>
   </g>
   <g id="patch_19">
    <path d="M 145.379641 95.387865 
L 106.689315 164.82172 
" clip-path="url(#pc04d53cd0e)" style="fill: none; stroke: #000000; stroke-linecap: round"/>
   </g>
   <g id="patch_20">
    <path d="M 144.480056 94.194091 
L 112.67315 122.966977 
" clip-path="url(#pc04d53cd0e)" style="fill: none; stroke: #000000; stroke-linecap: round"/>
   </g>
   <g id="patch_21">
    <path d="M 129.391793 204.302536 
L 110.720445 130.57016 
" clip-path="url(#pc04d53cd0e)" style="fill: none; stroke: #000000; stroke-linecap: round"/>
   </g>
   <g id="patch_22">
    <path d="M 107.00612 172.584298 
L 152.588241 238.401854 
" clip-path="url(#pc04d53cd0e)" style="fill: none; stroke: #000000; stroke-linecap: round"/>
   </g>
   <g id="patch_23">
    <path d="M 315.790168 128.693244 
L 286.411621 195.768058 
" clip-path="url(#pc04d53cd0e)" style="fill: none; stroke: #000000; stroke-linecap: round"/>
   </g>
   <g id="patch_24">
    <path d="M 299.535034 87.134452 
L 229.02148 62.430502 
" clip-path="url(#pc04d53cd0e)" style="fill: none; stroke: #000000; stroke-linecap: round"/>
   </g>
   <g id="patch_25">
    <path d="M 218.893093 205.475976 
L 176.922032 152.692453 
" clip-path="url(#pc04d53cd0e)" style="fill: none; stroke: #000000; stroke-linecap: round"/>
   </g>
   <g id="patch_26">
    <path d="M 186.222528 103.827539 
L 218.384184 159.611855 
" clip-path="url(#pc04d53cd0e)" style="fill: none; stroke: #000000; stroke-linecap: round"/>
   </g>
   <g id="patch_27">
    <path d="M 133.265312 212.646372 
L 152.489782 238.521415 
" clip-path="url(#pc04d53cd0e)" style="fill: none; stroke: #000000; stroke-linecap: round"/>
   </g>
   <g id="patch_28">
    <path d="M 105.017302 163.927794 
L 108.934202 130.763266 
" clip-path="url(#pc04d53cd0e)" style="fill: none; stroke: #000000; stroke-linecap: round"/>
   </g>
   <g id="matplotlib.axis_1">
    <g id="xtick_1">
     <g id="line2d_1">
      <defs>
       <path id="m2f6a2bc676" d="M 0 0 
L 0 3.5 
" style="stroke: #000000; stroke-width: 0.8"/>
      </defs>
      <g>
       <use xlink:href="#m2f6a2bc676" x="100.255471" y="252" style="stroke: #000000; stroke-width: 0.8"/>
      </g>
     </g>
     <g id="text_1">
      <!-- −2 -->
      <g transform="translate(92.884377 266.598437) scale(0.1 -0.1)">
       <defs>
        <path id="DejaVuSans-2212" d="M 678 2272 
L 4684 2272 
L 4684 1741 
L 678 1741 
L 678 2272 
z
" transform="scale(0.015625)"/>
        <path id="DejaVuSans-32" d="M 1228 531 
L 3431 531 
L 3431 0 
L 469 0 
L 469 531 
Q 828 903 1448 1529 
Q 2069 2156 2228 2338 
Q 2531 2678 2651 2914 
Q 2772 3150 2772 3378 
Q 2772 3750 2511 3984 
Q 2250 4219 1831 4219 
Q 1534 4219 1204 4116 
Q 875 4013 500 3803 
L 500 4441 
Q 881 4594 1212 4672 
Q 1544 4750 1819 4750 
Q 2544 4750 2975 4387 
Q 3406 4025 3406 3419 
Q 3406 3131 3298 2873 
Q 3191 2616 2906 2266 
Q 2828 2175 2409 1742 
Q 1991 1309 1228 531 
z
" transform="scale(0.015625)"/>
       </defs>
       <use xlink:href="#DejaVuSans-2212"/>
       <use xlink:href="#DejaVuSans-32" x="83.789062"/>
      </g>
     </g>
    </g>
    <g id="xtick_2">
     <g id="line2d_2">
      <g>
       <use xlink:href="#m2f6a2bc676" x="162.739906" y="252" style="stroke: #000000; stroke-width: 0.8"/>
      </g>
     </g>
     <g id="text_2">
      <!-- −1 -->
      <g transform="translate(155.368812 266.598437) scale(0.1 -0.1)">
       <defs>
        <path id="DejaVuSans-31" d="M 794 531 
L 1825 531 
L 1825 4091 
L 703 3866 
L 703 4441 
L 1819 4666 
L 2450 4666 
L 2450 531 
L 3481 531 
L 3481 0 
L 794 0 
L 794 531 
z
" transform="scale(0.015625)"/>
       </defs>
       <use xlink:href="#DejaVuSans-2212"/>
       <use xlink:href="#DejaVuSans-31" x="83.789062"/>
      </g>
     </g>
    </g>
    <g id="xtick_3">
     <g id="line2d_3">
      <g>
       <use xlink:href="#m2f6a2bc676" x="225.224342" y="252" style="stroke: #000000; stroke-width: 0.8"/>
      </g>
     </g>
     <g id="text_3">
      <!-- 0 -->
      <g transform="translate(222.043092 266.598437) scale(0.1 -0.1)">
       <defs>
        <path id="DejaVuSans-30" d="M 2034 4250 
Q 1547 4250 1301 3770 
Q 1056 3291 1056 2328 
Q 1056 1369 1301 889 
Q 1547 409 2034 409 
Q 2525 409 2770 889 
Q 3016 1369 3016 2328 
Q 3016 3291 2770 3770 
Q 2525 4250 2034 4250 
z
M 2034 4750 
Q 2819 4750 3233 4129 
Q 3647 3509 3647 2328 
Q 3647 1150 3233 529 
Q 2819 -91 2034 -91 
Q 1250 -91 836 529 
Q 422 1150 422 2328 
Q 422 3509 836 4129 
Q 1250 4750 2034 4750 
z
" transform="scale(0.015625)"/>
       </defs>
       <use xlink:href="#DejaVuSans-30"/>
      </g>
     </g>
    </g>
    <g id="xtick_4">
     <g id="line2d_4">
      <g>
       <use xlink:href="#m2f6a2bc676" x="287.708777" y="252" style="stroke: #000000; stroke-width: 0.8"/>
      </g>
     </g>
     <g id="text_4">
      <!-- 1 -->
      <g transform="translate(284.527527 266.598437) scale(0.1 -0.1)">
       <use xlink:href="#DejaVuSans-31"/>
      </g>
     </g>
    </g>
   </g>
   <g id="matplotlib.axis_2">
    <g id="ytick_1">
     <g id="line2d_5">
      <defs>
       <path id="me160d7ab52" d="M 0 0 
L -3.5 0 
" style="stroke: #000000; stroke-width: 0.8"/>
      </defs>
      <g>
       <use xlink:href="#me160d7ab52" x="92.73699" y="232.08843" style="stroke: #000000; stroke-width: 0.8"/>
      </g>
     </g>
     <g id="text_5">
      <!-- −1.5 -->
      <g transform="translate(61.454177 235.887648) scale(0.1 -0.1)">
       <defs>
        <path id="DejaVuSans-2e" d="M 684 794 
L 1344 794 
L 1344 0 
L 684 0 
L 684 794 
z
" transform="scale(0.015625)"/>
        <path id="DejaVuSans-35" d="M 691 4666 
L 3169 4666 
L 3169 4134 
L 1269 4134 
L 1269 2991 
Q 1406 3038 1543 3061 
Q 1681 3084 1819 3084 
Q 2600 3084 3056 2656 
Q 3513 2228 3513 1497 
Q 3513 744 3044 326 
Q 2575 -91 1722 -91 
Q 1428 -91 1123 -41 
Q 819 9 494 109 
L 494 744 
Q 775 591 1075 516 
Q 1375 441 1709 441 
Q 2250 441 2565 725 
Q 2881 1009 2881 1497 
Q 2881 1984 2565 2268 
Q 2250 2553 1709 2553 
Q 1456 2553 1204 2497 
Q 953 2441 691 2322 
L 691 4666 
z
" transform="scale(0.015625)"/>
       </defs>
       <use xlink:href="#DejaVuSans-2212"/>
       <use xlink:href="#DejaVuSans-31" x="83.789062"/>
       <use xlink:href="#DejaVuSans-2e" x="147.412109"/>
       <use xlink:href="#DejaVuSans-35" x="179.199219"/>
      </g>
     </g>
    </g>
    <g id="ytick_2">
     <g id="line2d_6">
      <g>
       <use xlink:href="#me160d7ab52" x="92.73699" y="200.846212" style="stroke: #000000; stroke-width: 0.8"/>
      </g>
     </g>
     <g id="text_6">
      <!-- −1.0 -->
      <g transform="translate(61.454177 204.645431) scale(0.1 -0.1)">
       <use xlink:href="#DejaVuSans-2212"/>
       <use xlink:href="#DejaVuSans-31" x="83.789062"/>
       <use xlink:href="#DejaVuSans-2e" x="147.412109"/>
       <use xlink:href="#DejaVuSans-30" x="179.199219"/>
      </g>
     </g>
    </g>
    <g id="ytick_3">
     <g id="line2d_7">
      <g>
       <use xlink:href="#me160d7ab52" x="92.73699" y="169.603994" style="stroke: #000000; stroke-width: 0.8"/>
      </g>
     </g>
     <g id="text_7">
      <!-- −0.5 -->
      <g transform="translate(61.454177 173.403213) scale(0.1 -0.1)">
       <use xlink:href="#DejaVuSans-2212"/>
       <use xlink:href="#DejaVuSans-30" x="83.789062"/>
       <use xlink:href="#DejaVuSans-2e" x="147.412109"/>
       <use xlink:href="#DejaVuSans-35" x="179.199219"/>
      </g>
     </g>
    </g>
    <g id="ytick_4">
     <g id="line2d_8">
      <g>
       <use xlink:href="#me160d7ab52" x="92.73699" y="138.361776" style="stroke: #000000; stroke-width: 0.8"/>
      </g>
     </g>
     <g id="text_8">
      <!-- 0.0 -->
      <g transform="translate(69.833865 142.160995) scale(0.1 -0.1)">
       <use xlink:href="#DejaVuSans-30"/>
       <use xlink:href="#DejaVuSans-2e" x="63.623047"/>
       <use xlink:href="#DejaVuSans-30" x="95.410156"/>
      </g>
     </g>
    </g>
    <g id="ytick_5">
     <g id="line2d_9">
      <g>
       <use xlink:href="#me160d7ab52" x="92.73699" y="107.119559" style="stroke: #000000; stroke-width: 0.8"/>
      </g>
     </g>
     <g id="text_9">
      <!-- 0.5 -->
      <g transform="translate(69.833865 110.918777) scale(0.1 -0.1)">
       <use xlink:href="#DejaVuSans-30"/>
       <use xlink:href="#DejaVuSans-2e" x="63.623047"/>
       <use xlink:href="#DejaVuSans-35" x="95.410156"/>
      </g>
     </g>
    </g>
    <g id="ytick_6">
     <g id="line2d_10">
      <g>
       <use xlink:href="#me160d7ab52" x="92.73699" y="75.877341" style="stroke: #000000; stroke-width: 0.8"/>
      </g>
     </g>
     <g id="text_10">
      <!-- 1.0 -->
      <g transform="translate(69.833865 79.67656) scale(0.1 -0.1)">
       <use xlink:href="#DejaVuSans-31"/>
       <use xlink:href="#DejaVuSans-2e" x="63.623047"/>
       <use xlink:href="#DejaVuSans-30" x="95.410156"/>
      </g>
     </g>
    </g>
    <g id="ytick_7">
     <g id="line2d_11">
      <g>
       <use xlink:href="#me160d7ab52" x="92.73699" y="44.635123" style="stroke: #000000; stroke-width: 0.8"/>
      </g>
     </g>
     <g id="text_11">
      <!-- 1.5 -->
      <g transform="translate(69.833865 48.434342) scale(0.1 -0.1)">
       <use xlink:href="#DejaVuSans-31"/>
       <use xlink:href="#DejaVuSans-2e" x="63.623047"/>
       <use xlink:href="#DejaVuSans-35" x="95.410156"/>
      </g>
     </g>
    </g>
   </g>
   <g id="PathCollection_1">
    <path d="M 338.366373 169.800519 
C 339.029381 169.800519 339.665323 169.537103 340.13414 169.068286 
C 340.602957 168.599469 340.866373 167.963527 340.866373 167.300519 
C 340.866373 166.637511 340.602957 166.001569 340.13414 165.532752 
C 339.665323 165.063935 339.029381 164.800519 338.366373 164.800519 
C 337.703365 164.800519 337.067423 165.063935 336.598606 165.532752 
C 336.129789 166.001569 335.866373 166.637511 335.866373 167.300519 
C 335.866373 167.963527 336.129789 168.599469 336.598606 169.068286 
C 337.067423 169.537103 337.703365 169.800519 338.366373 169.800519 
z
" clip-path="url(#pc04d53cd0e)" style="fill: #4682b4; stroke: #4682b4"/>
    <path d="M 285.261582 46.943636 
C 285.92459 46.943636 286.560532 46.680221 287.029349 46.211403 
C 287.498167 45.742586 287.761582 45.106644 287.761582 44.443636 
C 287.761582 43.780629 287.498167 43.144687 287.029349 42.675869 
C 286.560532 42.207052 285.92459 41.943636 285.261582 41.943636 
C 284.598575 41.943636 283.962633 42.207052 283.493815 42.675869 
C 283.024998 43.144687 282.761582 43.780629 282.761582 44.443636 
C 282.761582 45.106644 283.024998 45.742586 283.493815 46.211403 
C 283.962633 46.680221 284.598575 46.943636 285.261582 46.943636 
z
" clip-path="url(#pc04d53cd0e)" style="fill: #4682b4; stroke: #4682b4"/>
    <path d="M 317.692886 126.849106 
C 318.355894 126.849106 318.991836 126.585691 319.460653 126.116873 
C 319.92947 125.648056 320.192886 125.012114 320.192886 124.349106 
C 320.192886 123.686099 319.92947 123.050157 319.460653 122.581339 
C 318.991836 122.112522 318.355894 121.849106 317.692886 121.849106 
C 317.029878 121.849106 316.393936 122.112522 315.925119 122.581339 
C 315.456302 123.050157 315.192886 123.686099 315.192886 124.349106 
C 315.192886 125.012114 315.456302 125.648056 315.925119 126.116873 
C 316.393936 126.585691 317.029878 126.849106 317.692886 126.849106 
z
" clip-path="url(#pc04d53cd0e)" style="fill: #4682b4; stroke: #4682b4"/>
    <path d="M 303.245838 90.934507 
C 303.908846 90.934507 304.544788 90.671091 305.013605 90.202274 
C 305.482422 89.733457 305.745838 89.097515 305.745838 88.434507 
C 305.745838 87.771499 305.482422 87.135557 305.013605 86.66674 
C 304.544788 86.197923 303.908846 85.934507 303.245838 85.934507 
C 302.58283 85.934507 301.946888 86.197923 301.478071 86.66674 
C 301.009254 87.135557 300.745838 87.771499 300.745838 88.434507 
C 300.745838 89.097515 301.009254 89.733457 301.478071 90.202274 
C 301.946888 90.671091 302.58283 90.934507 303.245838 90.934507 
z
" clip-path="url(#pc04d53cd0e)" style="fill: #4682b4; stroke: #4682b4"/>
    <path d="M 221.656244 211.450963 
C 222.319252 211.450963 222.955194 211.187547 223.424011 210.71873 
C 223.892828 210.249912 224.156244 209.61397 224.156244 208.950963 
C 224.156244 208.287955 223.892828 207.652013 223.424011 207.183196 
C 222.955194 206.714378 222.319252 206.450963 221.656244 206.450963 
C 220.993236 206.450963 220.357295 206.714378 219.888477 207.183196 
C 219.41966 207.652013 219.156244 208.287955 219.156244 208.950963 
C 219.156244 209.61397 219.41966 210.249912 219.888477 210.71873 
C 220.357295 211.187547 220.993236 211.450963 221.656244 211.450963 
z
" clip-path="url(#pc04d53cd0e)" style="fill: #4682b4; stroke: #4682b4"/>
    <path d="M 183.916512 102.32776 
C 184.57952 102.32776 185.215462 102.064344 185.684279 101.595527 
C 186.153096 101.12671 186.416512 100.490768 186.416512 99.82776 
C 186.416512 99.164752 186.153096 98.52881 185.684279 98.059993 
C 185.215462 97.591176 184.57952 97.32776 183.916512 97.32776 
C 183.253504 97.32776 182.617562 97.591176 182.148745 98.059993 
C 181.679928 98.52881 181.416512 99.164752 181.416512 99.82776 
C 181.416512 100.490768 181.679928 101.12671 182.148745 101.595527 
C 182.617562 102.064344 183.253504 102.32776 183.916512 102.32776 
z
" clip-path="url(#pc04d53cd0e)" style="fill: #4682b4; stroke: #4682b4"/>
    <path d="M 212.151952 236.33049 
C 212.81496 236.33049 213.450902 236.067074 213.919719 235.598257 
C 214.388536 235.12944 214.651952 234.493498 214.651952 233.83049 
C 214.651952 233.167482 214.388536 232.53154 213.919719 232.062723 
C 213.450902 231.593906 212.81496 231.33049 212.151952 231.33049 
C 211.488945 231.33049 210.853003 231.593906 210.384185 232.062723 
C 209.915368 232.53154 209.651952 233.167482 209.651952 233.83049 
C 209.651952 234.493498 209.915368 235.12944 210.384185 235.598257 
C 210.853003 236.067074 211.488945 236.33049 212.151952 236.33049 
z
" clip-path="url(#pc04d53cd0e)" style="fill: #4682b4; stroke: #4682b4"/>
    <path d="M 147.635329 93.839796 
C 148.298336 93.839796 148.934278 93.57638 149.403096 93.107563 
C 149.871913 92.638745 150.135329 92.002803 150.135329 91.339796 
C 150.135329 90.676788 149.871913 90.040846 149.403096 89.572029 
C 148.934278 89.103212 148.298336 88.839796 147.635329 88.839796 
C 146.972321 88.839796 146.336379 89.103212 145.867562 89.572029 
C 145.398744 90.040846 145.135329 90.676788 145.135329 91.339796 
C 145.135329 92.002803 145.398744 92.638745 145.867562 93.107563 
C 146.336379 93.57638 146.972321 93.839796 147.635329 93.839796 
z
" clip-path="url(#pc04d53cd0e)" style="fill: #4682b4; stroke: #4682b4"/>
    <path d="M 130.59436 211.551424 
C 131.257368 211.551424 131.89331 211.288008 132.362127 210.819191 
C 132.830944 210.350373 133.09436 209.714431 133.09436 209.051424 
C 133.09436 208.388416 132.830944 207.752474 132.362127 207.283657 
C 131.89331 206.814839 131.257368 206.551424 130.59436 206.551424 
C 129.931352 206.551424 129.295411 206.814839 128.826593 207.283657 
C 128.357776 207.752474 128.09436 208.388416 128.09436 209.051424 
C 128.09436 209.714431 128.357776 210.350373 128.826593 210.819191 
C 129.295411 211.288008 129.931352 211.551424 130.59436 211.551424 
z
" clip-path="url(#pc04d53cd0e)" style="fill: #4682b4; stroke: #4682b4"/>
    <path d="M 104.433627 171.369788 
C 105.096635 171.369788 105.732577 171.106373 106.201394 170.637555 
C 106.670211 170.168738 106.933627 169.532796 106.933627 168.869788 
C 106.933627 168.206781 106.670211 167.570839 106.201394 167.102021 
C 105.732577 166.633204 105.096635 166.369788 104.433627 166.369788 
C 103.770619 166.369788 103.134677 166.633204 102.66586 167.102021 
C 102.197043 167.570839 101.933627 168.206781 101.933627 168.869788 
C 101.933627 169.532796 102.197043 170.168738 102.66586 170.637555 
C 103.134677 171.106373 103.770619 171.369788 104.433627 171.369788 
z
" clip-path="url(#pc04d53cd0e)" style="fill: #4682b4; stroke: #4682b4"/>
    <path d="M 284.508903 202.612195 
C 285.171911 202.612195 285.807853 202.34878 286.27667 201.879962 
C 286.745487 201.411145 287.008903 200.775203 287.008903 200.112195 
C 287.008903 199.449188 286.745487 198.813246 286.27667 198.344428 
C 285.807853 197.875611 285.171911 197.612195 284.508903 197.612195 
C 283.845895 197.612195 283.209953 197.875611 282.741136 198.344428 
C 282.272319 198.813246 282.008903 199.449188 282.008903 200.112195 
C 282.008903 200.775203 282.272319 201.411145 282.741136 201.879962 
C 283.209953 202.34878 283.845895 202.612195 284.508903 202.612195 
z
" clip-path="url(#pc04d53cd0e)" style="fill: #4682b4; stroke: #4682b4"/>
    <path d="M 225.310676 63.630446 
C 225.973683 63.630446 226.609625 63.367031 227.078443 62.898213 
C 227.54726 62.429396 227.810676 61.793454 227.810676 61.130446 
C 227.810676 60.467439 227.54726 59.831497 227.078443 59.362679 
C 226.609625 58.893862 225.973683 58.630446 225.310676 58.630446 
C 224.647668 58.630446 224.011726 58.893862 223.542909 59.362679 
C 223.074091 59.831497 222.810676 60.467439 222.810676 61.130446 
C 222.810676 61.793454 223.074091 62.429396 223.542909 62.898213 
C 224.011726 63.367031 224.647668 63.630446 225.310676 63.630446 
z
" clip-path="url(#pc04d53cd0e)" style="fill: #4682b4; stroke: #4682b4"/>
    <path d="M 174.15888 151.717467 
C 174.821888 151.717467 175.45783 151.454051 175.926647 150.985234 
C 176.395465 150.516416 176.65888 149.880474 176.65888 149.217467 
C 176.65888 148.554459 176.395465 147.918517 175.926647 147.4497 
C 175.45783 146.980882 174.821888 146.717467 174.15888 146.717467 
C 173.495873 146.717467 172.859931 146.980882 172.391113 147.4497 
C 171.922296 147.918517 171.65888 148.554459 171.65888 149.217467 
C 171.65888 149.880474 171.922296 150.516416 172.391113 150.985234 
C 172.859931 151.454051 173.495873 151.717467 174.15888 151.717467 
z
" clip-path="url(#pc04d53cd0e)" style="fill: #4682b4; stroke: #4682b4"/>
    <path d="M 220.6902 166.111633 
C 221.353208 166.111633 221.98915 165.848217 222.457967 165.3794 
C 222.926784 164.910583 223.1902 164.274641 223.1902 163.611633 
C 223.1902 162.948625 222.926784 162.312684 222.457967 161.843866 
C 221.98915 161.375049 221.353208 161.111633 220.6902 161.111633 
C 220.027192 161.111633 219.39125 161.375049 218.922433 161.843866 
C 218.453616 162.312684 218.1902 162.948625 218.1902 163.611633 
C 218.1902 164.274641 218.453616 164.910583 218.922433 165.3794 
C 219.39125 165.848217 220.027192 166.111633 220.6902 166.111633 
z
" clip-path="url(#pc04d53cd0e)" style="fill: #4682b4; stroke: #4682b4"/>
    <path d="M 155.160734 244.616364 
C 155.823741 244.616364 156.459683 244.352948 156.928501 243.884131 
C 157.397318 243.415313 157.660734 242.779371 157.660734 242.116364 
C 157.660734 241.453356 157.397318 240.817414 156.928501 240.348597 
C 156.459683 239.879779 155.823741 239.616364 155.160734 239.616364 
C 154.497726 239.616364 153.861784 239.879779 153.392967 240.348597 
C 152.924149 240.817414 152.660734 241.453356 152.660734 242.116364 
C 152.660734 242.779371 152.924149 243.415313 153.392967 243.884131 
C 153.861784 244.352948 154.497726 244.616364 155.160734 244.616364 
z
" clip-path="url(#pc04d53cd0e)" style="fill: #4682b4; stroke: #4682b4"/>
    <path d="M 109.517877 128.321272 
C 110.180885 128.321272 110.816827 128.057856 111.285644 127.589039 
C 111.754462 127.120221 112.017877 126.484279 112.017877 125.821272 
C 112.017877 125.158264 111.754462 124.522322 111.285644 124.053505 
C 110.816827 123.584687 110.180885 123.321272 109.517877 123.321272 
C 108.85487 123.321272 108.218928 123.584687 107.75011 124.053505 
C 107.281293 124.522322 107.017877 125.158264 107.017877 125.821272 
C 107.017877 126.484279 107.281293 127.120221 107.75011 127.589039 
C 108.218928 128.057856 108.85487 128.321272 109.517877 128.321272 
z
" clip-path="url(#pc04d53cd0e)" style="fill: #4682b4; stroke: #4682b4"/>
   </g>
   <g id="patch_29">
    <path d="M 92.73699 252 
L 92.73699 34.56 
" style="fill: none; stroke: #000000; stroke-width: 0.8; stroke-linejoin: miter; stroke-linecap: square"/>
   </g>
   <g id="patch_30">
    <path d="M 350.06301 252 
L 350.06301 34.56 
" style="fill: none; stroke: #000000; stroke-width: 0.8; stroke-linejoin: miter; stroke-linecap: square"/>
   </g>
   <g id="patch_31">
    <path d="M 92.73699 252 
L 350.06301 252 
" style="fill: none; stroke: #000000; stroke-width: 0.8; stroke-linejoin: miter; stroke-linecap: square"/>
   </g>
   <g id="patch_32">
    <path d="M 92.73699 34.56 
L 350.06301 34.56 
" style="fill: none; stroke: #000000; stroke-width: 0.8; stroke-linejoin: miter; stroke-linecap: square"/>
   </g>
   <g id="text_12">
    <!-- 0 -->
    <g transform="translate(338.366373 167.300519) scale(0.1 -0.1)">
     <use xlink:href="#DejaVuSans-30"/>
    </g>
   </g>
   <g id="text_13">
    <!-- 1 -->
    <g transform="translate(285.261582 44.443636) scale(0.1 -0.1)">
     <use xlink:href="#DejaVuSans-31"/>
    </g>
   </g>
   <g id="text_14">
    <!-- 2 -->
    <g transform="translate(317.692886 124.349106) scale(0.1 -0.1)">
     <use xlink:href="#DejaVuSans-32"/>
    </g>
   </g>
   <g id="text_15">
    <!-- 3 -->
    <g transform="translate(303.245838 88.434507) scale(0.1 -0.1)">
     <defs>
      <path id="DejaVuSans-33" d="M 2597 2516 
Q 3050 2419 3304 2112 
Q 3559 1806 3559 1356 
Q 3559 666 3084 287 
Q 2609 -91 1734 -91 
Q 1441 -91 1130 -33 
Q 819 25 488 141 
L 488 750 
Q 750 597 1062 519 
Q 1375 441 1716 441 
Q 2309 441 2620 675 
Q 2931 909 2931 1356 
Q 2931 1769 2642 2001 
Q 2353 2234 1838 2234 
L 1294 2234 
L 1294 2753 
L 1863 2753 
Q 2328 2753 2575 2939 
Q 2822 3125 2822 3475 
Q 2822 3834 2567 4026 
Q 2313 4219 1838 4219 
Q 1578 4219 1281 4162 
Q 984 4106 628 3988 
L 628 4550 
Q 988 4650 1302 4700 
Q 1616 4750 1894 4750 
Q 2613 4750 3031 4423 
Q 3450 4097 3450 3541 
Q 3450 3153 3228 2886 
Q 3006 2619 2597 2516 
z
" transform="scale(0.015625)"/>
     </defs>
     <use xlink:href="#DejaVuSans-33"/>
    </g>
   </g>
   <g id="text_16">
    <!-- 4 -->
    <g transform="translate(221.656244 208.950963) scale(0.1 -0.1)">
     <defs>
      <path id="DejaVuSans-34" d="M 2419 4116 
L 825 1625 
L 2419 1625 
L 2419 4116 
z
M 2253 4666 
L 3047 4666 
L 3047 1625 
L 3713 1625 
L 3713 1100 
L 3047 1100 
L 3047 0 
L 2419 0 
L 2419 1100 
L 313 1100 
L 313 1709 
L 2253 4666 
z
" transform="scale(0.015625)"/>
     </defs>
     <use xlink:href="#DejaVuSans-34"/>
    </g>
   </g>
   <g id="text_17">
    <!-- 5 -->
    <g transform="translate(183.916512 99.82776) scale(0.1 -0.1)">
     <use xlink:href="#DejaVuSans-35"/>
    </g>
   </g>
   <g id="text_18">
    <!-- 6 -->
    <g transform="translate(212.151952 233.83049) scale(0.1 -0.1)">
     <defs>
      <path id="DejaVuSans-36" d="M 2113 2584 
Q 1688 2584 1439 2293 
Q 1191 2003 1191 1497 
Q 1191 994 1439 701 
Q 1688 409 2113 409 
Q 2538 409 2786 701 
Q 3034 994 3034 1497 
Q 3034 2003 2786 2293 
Q 2538 2584 2113 2584 
z
M 3366 4563 
L 3366 3988 
Q 3128 4100 2886 4159 
Q 2644 4219 2406 4219 
Q 1781 4219 1451 3797 
Q 1122 3375 1075 2522 
Q 1259 2794 1537 2939 
Q 1816 3084 2150 3084 
Q 2853 3084 3261 2657 
Q 3669 2231 3669 1497 
Q 3669 778 3244 343 
Q 2819 -91 2113 -91 
Q 1303 -91 875 529 
Q 447 1150 447 2328 
Q 447 3434 972 4092 
Q 1497 4750 2381 4750 
Q 2619 4750 2861 4703 
Q 3103 4656 3366 4563 
z
" transform="scale(0.015625)"/>
     </defs>
     <use xlink:href="#DejaVuSans-36"/>
    </g>
   </g>
   <g id="text_19">
    <!-- 7 -->
    <g transform="translate(147.635329 91.339796) scale(0.1 -0.1)">
     <defs>
      <path id="DejaVuSans-37" d="M 525 4666 
L 3525 4666 
L 3525 4397 
L 1831 0 
L 1172 0 
L 2766 4134 
L 525 4134 
L 525 4666 
z
" transform="scale(0.015625)"/>
     </defs>
     <use xlink:href="#DejaVuSans-37"/>
    </g>
   </g>
   <g id="text_20">
    <!-- 8 -->
    <g transform="translate(130.59436 209.051424) scale(0.1 -0.1)">
     <defs>
      <path id="DejaVuSans-38" d="M 2034 2216 
Q 1584 2216 1326 1975 
Q 1069 1734 1069 1313 
Q 1069 891 1326 650 
Q 1584 409 2034 409 
Q 2484 409 2743 651 
Q 3003 894 3003 1313 
Q 3003 1734 2745 1975 
Q 2488 2216 2034 2216 
z
M 1403 2484 
Q 997 2584 770 2862 
Q 544 3141 544 3541 
Q 544 4100 942 4425 
Q 1341 4750 2034 4750 
Q 2731 4750 3128 4425 
Q 3525 4100 3525 3541 
Q 3525 3141 3298 2862 
Q 3072 2584 2669 2484 
Q 3125 2378 3379 2068 
Q 3634 1759 3634 1313 
Q 3634 634 3220 271 
Q 2806 -91 2034 -91 
Q 1263 -91 848 271 
Q 434 634 434 1313 
Q 434 1759 690 2068 
Q 947 2378 1403 2484 
z
M 1172 3481 
Q 1172 3119 1398 2916 
Q 1625 2713 2034 2713 
Q 2441 2713 2670 2916 
Q 2900 3119 2900 3481 
Q 2900 3844 2670 4047 
Q 2441 4250 2034 4250 
Q 1625 4250 1398 4047 
Q 1172 3844 1172 3481 
z
" transform="scale(0.015625)"/>
     </defs>
     <use xlink:href="#DejaVuSans-38"/>
    </g>
   </g>
   <g id="text_21">
    <!-- 9 -->
    <g transform="translate(104.433627 168.869788) scale(0.1 -0.1)">
     <defs>
      <path id="DejaVuSans-39" d="M 703 97 
L 703 672 
Q 941 559 1184 500 
Q 1428 441 1663 441 
Q 2288 441 2617 861 
Q 2947 1281 2994 2138 
Q 2813 1869 2534 1725 
Q 2256 1581 1919 1581 
Q 1219 1581 811 2004 
Q 403 2428 403 3163 
Q 403 3881 828 4315 
Q 1253 4750 1959 4750 
Q 2769 4750 3195 4129 
Q 3622 3509 3622 2328 
Q 3622 1225 3098 567 
Q 2575 -91 1691 -91 
Q 1453 -91 1209 -44 
Q 966 3 703 97 
z
M 1959 2075 
Q 2384 2075 2632 2365 
Q 2881 2656 2881 3163 
Q 2881 3666 2632 3958 
Q 2384 4250 1959 4250 
Q 1534 4250 1286 3958 
Q 1038 3666 1038 3163 
Q 1038 2656 1286 2365 
Q 1534 2075 1959 2075 
z
" transform="scale(0.015625)"/>
     </defs>
     <use xlink:href="#DejaVuSans-39"/>
    </g>
   </g>
   <g id="text_22">
    <!-- 10 -->
    <g transform="translate(284.508903 200.112195) scale(0.1 -0.1)">
     <use xlink:href="#DejaVuSans-31"/>
     <use xlink:href="#DejaVuSans-30" x="63.623047"/>
    </g>
   </g>
   <g id="text_23">
    <!-- 11 -->
    <g transform="translate(225.310676 61.130446) scale(0.1 -0.1)">
     <use xlink:href="#DejaVuSans-31"/>
     <use xlink:href="#DejaVuSans-31" x="63.623047"/>
    </g>
   </g>
   <g id="text_24">
    <!-- 12 -->
    <g transform="translate(174.15888 149.217467) scale(0.1 -0.1)">
     <use xlink:href="#DejaVuSans-31"/>
     <use xlink:href="#DejaVuSans-32" x="63.623047"/>
    </g>
   </g>
   <g id="text_25">
    <!-- 13 -->
    <g transform="translate(220.6902 163.611633) scale(0.1 -0.1)">
     <use xlink:href="#DejaVuSans-31"/>
     <use xlink:href="#DejaVuSans-33" x="63.623047"/>
    </g>
   </g>
   <g id="text_26">
    <!-- 14 -->
    <g transform="translate(155.160734 242.116364) scale(0.1 -0.1)">
     <use xlink:href="#DejaVuSans-31"/>
     <use xlink:href="#DejaVuSans-34" x="63.623047"/>
    </g>
   </g>
   <g id="text_27">
    <!-- 15 -->
    <g transform="translate(109.517877 125.821272) scale(0.1 -0.1)">
     <use xlink:href="#DejaVuSans-31"/>
     <use xlink:href="#DejaVuSans-35" x="63.623047"/>
    </g>
   </g>
   <g id="text_28">
    <!-- Kamada Kawai -->
    <g transform="translate(177.222188 28.56) scale(0.12 -0.12)">
     <defs>
      <path id="DejaVuSans-4b" d="M 628 4666 
L 1259 4666 
L 1259 2694 
L 3353 4666 
L 4166 4666 
L 1850 2491 
L 4331 0 
L 3500 0 
L 1259 2247 
L 1259 0 
L 628 0 
L 628 4666 
z
" transform="scale(0.015625)"/>
      <path id="DejaVuSans-61" d="M 2194 1759 
Q 1497 1759 1228 1600 
Q 959 1441 959 1056 
Q 959 750 1161 570 
Q 1363 391 1709 391 
Q 2188 391 2477 730 
Q 2766 1069 2766 1631 
L 2766 1759 
L 2194 1759 
z
M 3341 1997 
L 3341 0 
L 2766 0 
L 2766 531 
Q 2569 213 2275 61 
Q 1981 -91 1556 -91 
Q 1019 -91 701 211 
Q 384 513 384 1019 
Q 384 1609 779 1909 
Q 1175 2209 1959 2209 
L 2766 2209 
L 2766 2266 
Q 2766 2663 2505 2880 
Q 2244 3097 1772 3097 
Q 1472 3097 1187 3025 
Q 903 2953 641 2809 
L 641 3341 
Q 956 3463 1253 3523 
Q 1550 3584 1831 3584 
Q 2591 3584 2966 3190 
Q 3341 2797 3341 1997 
z
" transform="scale(0.015625)"/>
      <path id="DejaVuSans-6d" d="M 3328 2828 
Q 3544 3216 3844 3400 
Q 4144 3584 4550 3584 
Q 5097 3584 5394 3201 
Q 5691 2819 5691 2113 
L 5691 0 
L 5113 0 
L 5113 2094 
Q 5113 2597 4934 2840 
Q 4756 3084 4391 3084 
Q 3944 3084 3684 2787 
Q 3425 2491 3425 1978 
L 3425 0 
L 2847 0 
L 2847 2094 
Q 2847 2600 2669 2842 
Q 2491 3084 2119 3084 
Q 1678 3084 1418 2786 
Q 1159 2488 1159 1978 
L 1159 0 
L 581 0 
L 581 3500 
L 1159 3500 
L 1159 2956 
Q 1356 3278 1631 3431 
Q 1906 3584 2284 3584 
Q 2666 3584 2933 3390 
Q 3200 3197 3328 2828 
z
" transform="scale(0.015625)"/>
      <path id="DejaVuSans-64" d="M 2906 2969 
L 2906 4863 
L 3481 4863 
L 3481 0 
L 2906 0 
L 2906 525 
Q 2725 213 2448 61 
Q 2172 -91 1784 -91 
Q 1150 -91 751 415 
Q 353 922 353 1747 
Q 353 2572 751 3078 
Q 1150 3584 1784 3584 
Q 2172 3584 2448 3432 
Q 2725 3281 2906 2969 
z
M 947 1747 
Q 947 1113 1208 752 
Q 1469 391 1925 391 
Q 2381 391 2643 752 
Q 2906 1113 2906 1747 
Q 2906 2381 2643 2742 
Q 2381 3103 1925 3103 
Q 1469 3103 1208 2742 
Q 947 2381 947 1747 
z
" transform="scale(0.015625)"/>
      <path id="DejaVuSans-20" transform="scale(0.015625)"/>
      <path id="DejaVuSans-77" d="M 269 3500 
L 844 3500 
L 1563 769 
L 2278 3500 
L 2956 3500 
L 3675 769 
L 4391 3500 
L 4966 3500 
L 4050 0 
L 3372 0 
L 2619 2869 
L 1863 0 
L 1184 0 
L 269 3500 
z
" transform="scale(0.015625)"/>
      <path id="DejaVuSans-69" d="M 603 3500 
L 1178 3500 
L 1178 0 
L 603 0 
L 603 3500 
z
M 603 4863 
L 1178 4863 
L 1178 4134 
L 603 4134 
L 603 4863 
z
" transform="scale(0.015625)"/>
     </defs>
     <use xlink:href="#DejaVuSans-4b"/>
     <use xlink:href="#DejaVuSans-61" x="63.826172"/>
     <use xlink:href="#DejaVuSans-6d" x="125.105469"/>
     <use xlink:href="#DejaVuSans-61" x="222.517578"/>
     <use xlink:href="#DejaVuSans-64" x="283.796875"/>
     <use xlink:href="#DejaVuSans-61" x="347.273438"/>
     <use xlink:href="#DejaVuSans-20" x="408.552734"/>
     <use xlink:href="#DejaVuSans-4b" x="440.339844"/>
     <use xlink:href="#DejaVuSans-61" x="504.166016"/>
     <use xlink:href="#DejaVuSans-77" x="565.445312"/>
     <use xlink:href="#DejaVuSans-61" x="647.232422"/>
     <use xlink:href="#DejaVuSans-69" x="708.511719"/>
    </g>
   </g>
  </g>
 </g>
 <defs>
  <clipPath id="pc04d53cd0e">
   <rect x="92.73699" y="34.56" width="257.326021" height="217.44"/>
  </clipPath>
 </defs>
</svg>
