<?xml version="1.0" encoding="utf-8" standalone="no"?>
<!DOCTYPE svg PUBLIC "-//W3C//DTD SVG 1.1//EN"
  "http://www.w3.org/Graphics/SVG/1.1/DTD/svg11.dtd">
<svg xmlns:xlink="http://www.w3.org/1999/xlink" width="432pt" height="288pt" viewBox="0 0 432 288" xmlns="http://www.w3.org/2000/svg" version="1.1">
 <metadata>
  <rdf:RDF xmlns:dc="http://purl.org/dc/elements/1.1/" xmlns:cc="http://creativecommons.org/ns#" xmlns:rdf="http://www.w3.org/1999/02/22-rdf-syntax-ns#">
   <cc:Work>
    <dc:type rdf:resource="http://purl.org/dc/dcmitype/StillImage"/>
    <dc:date>2023-03-28T22:03:16.405863</dc:date>
    <dc:format>image/svg+xml</dc:format>
    <dc:creator>
     <cc:Agent>
      <dc:title>Matplotlib v3.7.1, https://matplotlib.org/</dc:title>
     </cc:Agent>
    </dc:creator>
   </cc:Work>
  </rdf:RDF>
 </metadata>
 <defs>
  <style type="text/css">*{stroke-linejoin: round; stroke-linecap: butt}</style>
 </defs>
 <g id="figure_1">
  <g id="patch_1">
   <path d="M 0 288 
L 432 288 
L 432 0 
L 0 0 
z
" style="fill: #ffffff"/>
  </g>
  <g id="axes_1">
   <g id="patch_2">
    <path d="M 141.327786 252 
L 301.472214 252 
L 301.472214 34.56 
L 141.327786 34.56 
z
" style="fill: #ffffff"/>
   </g>
   <g id="patch_3">
    <path d="M 188.840769 212.701959 
L 229.784133 240.56854 
" clip-path="url(#p0975d52cac)" style="fill: none; stroke: #000000; stroke-linecap: round"/>
   </g>
   <g id="patch_4">
    <path d="M 185.311718 206.897691 
L 171.03788 158.48243 
" clip-path="url(#p0975d52cac)" style="fill: none; stroke: #000000; stroke-linecap: round"/>
   </g>
   <g id="patch_5">
    <path d="M 193.812877 237.266862 
L 150.915905 213.032205 
" clip-path="url(#p0975d52cac)" style="fill: none; stroke: #000000; stroke-linecap: round"/>
   </g>
   <g id="patch_6">
    <path d="M 198.354468 236.77925 
L 246.862046 197.847768 
" clip-path="url(#p0975d52cac)" style="fill: none; stroke: #000000; stroke-linecap: round"/>
   </g>
   <g id="patch_7">
    <path d="M 209.797036 116.693302 
L 171.96507 152.179223 
" clip-path="url(#p0975d52cac)" style="fill: none; stroke: #000000; stroke-linecap: round"/>
   </g>
   <g id="patch_8">
    <path d="M 185.687549 86.516915 
L 170.837212 149.737944 
" clip-path="url(#p0975d52cac)" style="fill: none; stroke: #000000; stroke-linecap: round"/>
   </g>
   <g id="patch_9">
    <path d="M 238.235176 144.968032 
L 248.123557 191.486647 
" clip-path="url(#p0975d52cac)" style="fill: none; stroke: #000000; stroke-linecap: round"/>
   </g>
   <g id="patch_10">
    <path d="M 288.704476 137.977887 
L 251.052877 193.184758 
" clip-path="url(#p0975d52cac)" style="fill: none; stroke: #000000; stroke-linecap: round"/>
   </g>
   <g id="patch_11">
    <path d="M 239.62054 139.546315 
L 259.82126 132.23807 
" clip-path="url(#p0975d52cac)" style="fill: none; stroke: #000000; stroke-linecap: round"/>
   </g>
   <g id="patch_12">
    <path d="M 209.588363 114.510018 
L 187.068806 113.224067 
" clip-path="url(#p0975d52cac)" style="fill: none; stroke: #000000; stroke-linecap: round"/>
   </g>
   <g id="patch_13">
    <path d="M 288.275555 134.795014 
L 264.564864 131.697337 
" clip-path="url(#p0975d52cac)" style="fill: none; stroke: #000000; stroke-linecap: round"/>
   </g>
   <g id="patch_14">
    <path d="M 213.723625 111.226205 
L 233.919178 71.630273 
" clip-path="url(#p0975d52cac)" style="fill: none; stroke: #000000; stroke-linecap: round"/>
   </g>
   <g id="patch_15">
    <path d="M 186.412701 86.981318 
L 185.007123 108.135101 
" clip-path="url(#p0975d52cac)" style="fill: none; stroke: #000000; stroke-linecap: round"/>
   </g>
   <g id="patch_16">
    <path d="M 239.115165 137.233251 
L 264.933994 93.082792 
" clip-path="url(#p0975d52cac)" style="fill: none; stroke: #000000; stroke-linecap: round"/>
   </g>
   <g id="patch_17">
    <path d="M 188.913419 79.934189 
L 223.536355 46.53832 
" clip-path="url(#p0975d52cac)" style="fill: none; stroke: #000000; stroke-linecap: round"/>
   </g>
   <g id="patch_18">
    <path d="M 189.111877 81.359391 
L 233.293582 68.879421 
" clip-path="url(#p0975d52cac)" style="fill: none; stroke: #000000; stroke-linecap: round"/>
   </g>
   <g id="patch_19">
    <path d="M 290.974053 130.149456 
L 293.881411 83.881613 
" clip-path="url(#p0975d52cac)" style="fill: none; stroke: #000000; stroke-linecap: round"/>
   </g>
   <g id="patch_20">
    <path d="M 288.889506 131.751249 
L 268.558273 93.27276 
" clip-path="url(#p0975d52cac)" style="fill: none; stroke: #000000; stroke-linecap: round"/>
   </g>
   <g id="patch_21">
    <path d="M 227.821613 46.783454 
L 264.671627 87.57733 
" clip-path="url(#p0975d52cac)" style="fill: none; stroke: #000000; stroke-linecap: round"/>
   </g>
   <g id="patch_22">
    <path d="M 291.810395 78.488066 
L 238.046216 68.646081 
" clip-path="url(#p0975d52cac)" style="fill: none; stroke: #000000; stroke-linecap: round"/>
   </g>
   <g id="patch_23">
    <path d="M 150.066084 207.765993 
L 168.323985 158.187826 
" clip-path="url(#p0975d52cac)" style="fill: none; stroke: #000000; stroke-linecap: round"/>
   </g>
   <g id="patch_24">
    <path d="M 233.521289 238.160956 
L 247.631817 200.01119 
" clip-path="url(#p0975d52cac)" style="fill: none; stroke: #000000; stroke-linecap: round"/>
   </g>
   <g id="patch_25">
    <path d="M 214.340904 115.434086 
L 259.816088 130.597943 
" clip-path="url(#p0975d52cac)" style="fill: none; stroke: #000000; stroke-linecap: round"/>
   </g>
   <g id="patch_26">
    <path d="M 234.942832 139.193398 
L 186.999146 114.293044 
" clip-path="url(#p0975d52cac)" style="fill: none; stroke: #000000; stroke-linecap: round"/>
   </g>
   <g id="patch_27">
    <path d="M 227.283682 48.20511 
L 234.088011 64.448465 
" clip-path="url(#p0975d52cac)" style="fill: none; stroke: #000000; stroke-linecap: round"/>
   </g>
   <g id="patch_28">
    <path d="M 291.844115 79.866289 
L 269.134044 88.975065 
" clip-path="url(#p0975d52cac)" style="fill: none; stroke: #000000; stroke-linecap: round"/>
   </g>
   <g id="matplotlib.axis_1">
    <g id="xtick_1">
     <g id="line2d_1">
      <defs>
       <path id="m7e443d98f1" d="M 0 0 
L 0 3.5 
" style="stroke: #000000; stroke-width: 0.8"/>
      </defs>
      <g>
       <use xlink:href="#m7e443d98f1" x="143.847595" y="252" style="stroke: #000000; stroke-width: 0.8"/>
      </g>
     </g>
     <g id="text_1">
      <!-- −2 -->
      <g transform="translate(136.476501 266.598437) scale(0.1 -0.1)">
       <defs>
        <path id="DejaVuSans-2212" d="M 678 2272 
L 4684 2272 
L 4684 1741 
L 678 1741 
L 678 2272 
z
" transform="scale(0.015625)"/>
        <path id="DejaVuSans-32" d="M 1228 531 
L 3431 531 
L 3431 0 
L 469 0 
L 469 531 
Q 828 903 1448 1529 
Q 2069 2156 2228 2338 
Q 2531 2678 2651 2914 
Q 2772 3150 2772 3378 
Q 2772 3750 2511 3984 
Q 2250 4219 1831 4219 
Q 1534 4219 1204 4116 
Q 875 4013 500 3803 
L 500 4441 
Q 881 4594 1212 4672 
Q 1544 4750 1819 4750 
Q 2544 4750 2975 4387 
Q 3406 4025 3406 3419 
Q 3406 3131 3298 2873 
Q 3191 2616 2906 2266 
Q 2828 2175 2409 1742 
Q 1991 1309 1228 531 
z
" transform="scale(0.015625)"/>
       </defs>
       <use xlink:href="#DejaVuSans-2212"/>
       <use xlink:href="#DejaVuSans-32" x="83.789062"/>
      </g>
     </g>
    </g>
    <g id="xtick_2">
     <g id="line2d_2">
      <g>
       <use xlink:href="#m7e443d98f1" x="176.722584" y="252" style="stroke: #000000; stroke-width: 0.8"/>
      </g>
     </g>
     <g id="text_2">
      <!-- −1 -->
      <g transform="translate(169.35149 266.598437) scale(0.1 -0.1)">
       <defs>
        <path id="DejaVuSans-31" d="M 794 531 
L 1825 531 
L 1825 4091 
L 703 3866 
L 703 4441 
L 1819 4666 
L 2450 4666 
L 2450 531 
L 3481 531 
L 3481 0 
L 794 0 
L 794 531 
z
" transform="scale(0.015625)"/>
       </defs>
       <use xlink:href="#DejaVuSans-2212"/>
       <use xlink:href="#DejaVuSans-31" x="83.789062"/>
      </g>
     </g>
    </g>
    <g id="xtick_3">
     <g id="line2d_3">
      <g>
       <use xlink:href="#m7e443d98f1" x="209.597574" y="252" style="stroke: #000000; stroke-width: 0.8"/>
      </g>
     </g>
     <g id="text_3">
      <!-- 0 -->
      <g transform="translate(206.416324 266.598437) scale(0.1 -0.1)">
       <defs>
        <path id="DejaVuSans-30" d="M 2034 4250 
Q 1547 4250 1301 3770 
Q 1056 3291 1056 2328 
Q 1056 1369 1301 889 
Q 1547 409 2034 409 
Q 2525 409 2770 889 
Q 3016 1369 3016 2328 
Q 3016 3291 2770 3770 
Q 2525 4250 2034 4250 
z
M 2034 4750 
Q 2819 4750 3233 4129 
Q 3647 3509 3647 2328 
Q 3647 1150 3233 529 
Q 2819 -91 2034 -91 
Q 1250 -91 836 529 
Q 422 1150 422 2328 
Q 422 3509 836 4129 
Q 1250 4750 2034 4750 
z
" transform="scale(0.015625)"/>
       </defs>
       <use xlink:href="#DejaVuSans-30"/>
      </g>
     </g>
    </g>
    <g id="xtick_4">
     <g id="line2d_4">
      <g>
       <use xlink:href="#m7e443d98f1" x="242.472563" y="252" style="stroke: #000000; stroke-width: 0.8"/>
      </g>
     </g>
     <g id="text_4">
      <!-- 1 -->
      <g transform="translate(239.291313 266.598437) scale(0.1 -0.1)">
       <use xlink:href="#DejaVuSans-31"/>
      </g>
     </g>
    </g>
    <g id="xtick_5">
     <g id="line2d_5">
      <g>
       <use xlink:href="#m7e443d98f1" x="275.347553" y="252" style="stroke: #000000; stroke-width: 0.8"/>
      </g>
     </g>
     <g id="text_5">
      <!-- 2 -->
      <g transform="translate(272.166303 266.598437) scale(0.1 -0.1)">
       <use xlink:href="#DejaVuSans-32"/>
      </g>
     </g>
    </g>
   </g>
   <g id="matplotlib.axis_2">
    <g id="ytick_1">
     <g id="line2d_6">
      <defs>
       <path id="md63f47dc6e" d="M 0 0 
L -3.5 0 
" style="stroke: #000000; stroke-width: 0.8"/>
      </defs>
      <g>
       <use xlink:href="#md63f47dc6e" x="141.327786" y="240.004609" style="stroke: #000000; stroke-width: 0.8"/>
      </g>
     </g>
     <g id="text_6">
      <!-- −3 -->
      <g transform="translate(119.585598 243.803827) scale(0.1 -0.1)">
       <defs>
        <path id="DejaVuSans-33" d="M 2597 2516 
Q 3050 2419 3304 2112 
Q 3559 1806 3559 1356 
Q 3559 666 3084 287 
Q 2609 -91 1734 -91 
Q 1441 -91 1130 -33 
Q 819 25 488 141 
L 488 750 
Q 750 597 1062 519 
Q 1375 441 1716 441 
Q 2309 441 2620 675 
Q 2931 909 2931 1356 
Q 2931 1769 2642 2001 
Q 2353 2234 1838 2234 
L 1294 2234 
L 1294 2753 
L 1863 2753 
Q 2328 2753 2575 2939 
Q 2822 3125 2822 3475 
Q 2822 3834 2567 4026 
Q 2313 4219 1838 4219 
Q 1578 4219 1281 4162 
Q 984 4106 628 3988 
L 628 4550 
Q 988 4650 1302 4700 
Q 1616 4750 1894 4750 
Q 2613 4750 3031 4423 
Q 3450 4097 3450 3541 
Q 3450 3153 3228 2886 
Q 3006 2619 2597 2516 
z
" transform="scale(0.015625)"/>
       </defs>
       <use xlink:href="#DejaVuSans-2212"/>
       <use xlink:href="#DejaVuSans-33" x="83.789062"/>
      </g>
     </g>
    </g>
    <g id="ytick_2">
     <g id="line2d_7">
      <g>
       <use xlink:href="#md63f47dc6e" x="141.327786" y="207.129619" style="stroke: #000000; stroke-width: 0.8"/>
      </g>
     </g>
     <g id="text_7">
      <!-- −2 -->
      <g transform="translate(119.585598 210.928838) scale(0.1 -0.1)">
       <use xlink:href="#DejaVuSans-2212"/>
       <use xlink:href="#DejaVuSans-32" x="83.789062"/>
      </g>
     </g>
    </g>
    <g id="ytick_3">
     <g id="line2d_8">
      <g>
       <use xlink:href="#md63f47dc6e" x="141.327786" y="174.25463" style="stroke: #000000; stroke-width: 0.8"/>
      </g>
     </g>
     <g id="text_8">
      <!-- −1 -->
      <g transform="translate(119.585598 178.053848) scale(0.1 -0.1)">
       <use xlink:href="#DejaVuSans-2212"/>
       <use xlink:href="#DejaVuSans-31" x="83.789062"/>
      </g>
     </g>
    </g>
    <g id="ytick_4">
     <g id="line2d_9">
      <g>
       <use xlink:href="#md63f47dc6e" x="141.327786" y="141.37964" style="stroke: #000000; stroke-width: 0.8"/>
      </g>
     </g>
     <g id="text_9">
      <!-- 0 -->
      <g transform="translate(127.965286 145.178859) scale(0.1 -0.1)">
       <use xlink:href="#DejaVuSans-30"/>
      </g>
     </g>
    </g>
    <g id="ytick_5">
     <g id="line2d_10">
      <g>
       <use xlink:href="#md63f47dc6e" x="141.327786" y="108.50465" style="stroke: #000000; stroke-width: 0.8"/>
      </g>
     </g>
     <g id="text_10">
      <!-- 1 -->
      <g transform="translate(127.965286 112.303869) scale(0.1 -0.1)">
       <use xlink:href="#DejaVuSans-31"/>
      </g>
     </g>
    </g>
    <g id="ytick_6">
     <g id="line2d_11">
      <g>
       <use xlink:href="#md63f47dc6e" x="141.327786" y="75.629661" style="stroke: #000000; stroke-width: 0.8"/>
      </g>
     </g>
     <g id="text_11">
      <!-- 2 -->
      <g transform="translate(127.965286 79.42888) scale(0.1 -0.1)">
       <use xlink:href="#DejaVuSans-32"/>
      </g>
     </g>
    </g>
    <g id="ytick_7">
     <g id="line2d_12">
      <g>
       <use xlink:href="#md63f47dc6e" x="141.327786" y="42.754671" style="stroke: #000000; stroke-width: 0.8"/>
      </g>
     </g>
     <g id="text_12">
      <!-- 3 -->
      <g transform="translate(127.965286 46.55389) scale(0.1 -0.1)">
       <use xlink:href="#DejaVuSans-33"/>
      </g>
     </g>
    </g>
   </g>
   <g id="PathCollection_1">
    <path d="M 186.566607 213.654135 
C 187.229615 213.654135 187.865557 213.390719 188.334374 212.921902 
C 188.803191 212.453085 189.066607 211.817143 189.066607 211.154135 
C 189.066607 210.491128 188.803191 209.855186 188.334374 209.386368 
C 187.865557 208.917551 187.229615 208.654135 186.566607 208.654135 
C 185.903599 208.654135 185.267657 208.917551 184.79884 209.386368 
C 184.330023 209.855186 184.066607 210.491128 184.066607 211.154135 
C 184.066607 211.817143 184.330023 212.453085 184.79884 212.921902 
C 185.267657 213.390719 185.903599 213.654135 186.566607 213.654135 
z
" clip-path="url(#p0975d52cac)" style="fill: #4682b4; stroke: #4682b4"/>
    <path d="M 196.121704 241.071234 
C 196.784711 241.071234 197.420653 240.807818 197.889471 240.339001 
C 198.358288 239.870184 198.621704 239.234242 198.621704 238.571234 
C 198.621704 237.908226 198.358288 237.272285 197.889471 236.803467 
C 197.420653 236.33465 196.784711 236.071234 196.121704 236.071234 
C 195.458696 236.071234 194.822754 236.33465 194.353937 236.803467 
C 193.885119 237.272285 193.621704 237.908226 193.621704 238.571234 
C 193.621704 239.234242 193.885119 239.870184 194.353937 240.339001 
C 194.822754 240.807818 195.458696 241.071234 196.121704 241.071234 
z
" clip-path="url(#p0975d52cac)" style="fill: #4682b4; stroke: #4682b4"/>
    <path d="M 148.607078 214.227832 
C 149.270086 214.227832 149.906028 213.964416 150.374845 213.495599 
C 150.843662 213.026782 151.107078 212.39084 151.107078 211.727832 
C 151.107078 211.064824 150.843662 210.428882 150.374845 209.960065 
C 149.906028 209.491248 149.270086 209.227832 148.607078 209.227832 
C 147.94407 209.227832 147.308128 209.491248 146.839311 209.960065 
C 146.370494 210.428882 146.107078 211.064824 146.107078 211.727832 
C 146.107078 212.39084 146.370494 213.026782 146.839311 213.495599 
C 147.308128 213.964416 147.94407 214.227832 148.607078 214.227832 
z
" clip-path="url(#p0975d52cac)" style="fill: #4682b4; stroke: #4682b4"/>
    <path d="M 232.058295 244.616364 
C 232.721303 244.616364 233.357245 244.352948 233.826062 243.884131 
C 234.294879 243.415313 234.558295 242.779371 234.558295 242.116364 
C 234.558295 241.453356 234.294879 240.817414 233.826062 240.348597 
C 233.357245 239.879779 232.721303 239.616364 232.058295 239.616364 
C 231.395287 239.616364 230.759345 239.879779 230.290528 240.348597 
C 229.821711 240.817414 229.558295 241.453356 229.558295 242.116364 
C 229.558295 242.779371 229.821711 243.415313 230.290528 243.884131 
C 230.759345 244.352948 231.395287 244.616364 232.058295 244.616364 
z
" clip-path="url(#p0975d52cac)" style="fill: #4682b4; stroke: #4682b4"/>
    <path d="M 211.979114 117.146539 
C 212.642122 117.146539 213.278064 116.883123 213.746881 116.414306 
C 214.215699 115.945489 214.479114 115.309547 214.479114 114.646539 
C 214.479114 113.983531 214.215699 113.347589 213.746881 112.878772 
C 213.278064 112.409955 212.642122 112.146539 211.979114 112.146539 
C 211.316107 112.146539 210.680165 112.409955 210.211347 112.878772 
C 209.74253 113.347589 209.479114 113.983531 209.479114 114.646539 
C 209.479114 115.309547 209.74253 115.945489 210.211347 116.414306 
C 210.680165 116.883123 211.316107 117.146539 211.979114 117.146539 
z
" clip-path="url(#p0975d52cac)" style="fill: #4682b4; stroke: #4682b4"/>
    <path d="M 237.263923 142.898895 
C 237.92693 142.898895 238.562872 142.63548 239.03169 142.166662 
C 239.500507 141.697845 239.763923 141.061903 239.763923 140.398895 
C 239.763923 139.735888 239.500507 139.099946 239.03169 138.631128 
C 238.562872 138.162311 237.92693 137.898895 237.263923 137.898895 
C 236.600915 137.898895 235.964973 138.162311 235.496156 138.631128 
C 235.027338 139.099946 234.763923 139.735888 234.763923 140.398895 
C 234.763923 141.061903 235.027338 141.697845 235.496156 142.166662 
C 235.964973 142.63548 236.600915 142.898895 237.263923 142.898895 
z
" clip-path="url(#p0975d52cac)" style="fill: #4682b4; stroke: #4682b4"/>
    <path d="M 186.74177 84.528873 
C 187.404777 84.528873 188.040719 84.265457 188.509537 83.79664 
C 188.978354 83.327823 189.24177 82.691881 189.24177 82.028873 
C 189.24177 81.365865 188.978354 80.729923 188.509537 80.261106 
C 188.040719 79.792289 187.404777 79.528873 186.74177 79.528873 
C 186.078762 79.528873 185.44282 79.792289 184.974003 80.261106 
C 184.505185 80.729923 184.24177 81.365865 184.24177 82.028873 
C 184.24177 82.691881 184.505185 83.327823 184.974003 83.79664 
C 185.44282 84.265457 186.078762 84.528873 186.74177 84.528873 
z
" clip-path="url(#p0975d52cac)" style="fill: #4682b4; stroke: #4682b4"/>
    <path d="M 290.662542 137.606862 
C 291.32555 137.606862 291.961492 137.343446 292.430309 136.874628 
C 292.899126 136.405811 293.162542 135.769869 293.162542 135.106862 
C 293.162542 134.443854 292.899126 133.807912 292.430309 133.339095 
C 291.961492 132.870277 291.32555 132.606862 290.662542 132.606862 
C 289.999534 132.606862 289.363592 132.870277 288.894775 133.339095 
C 288.425958 133.807912 288.162542 134.443854 288.162542 135.106862 
C 288.162542 135.769869 288.425958 136.405811 288.894775 136.874628 
C 289.363592 137.343446 289.999534 137.606862 290.662542 137.606862 
z
" clip-path="url(#p0975d52cac)" style="fill: #4682b4; stroke: #4682b4"/>
    <path d="M 225.708004 46.943636 
C 226.371011 46.943636 227.006953 46.680221 227.475771 46.211403 
C 227.944588 45.742586 228.208004 45.106644 228.208004 44.443636 
C 228.208004 43.780629 227.944588 43.144687 227.475771 42.675869 
C 227.006953 42.207052 226.371011 41.943636 225.708004 41.943636 
C 225.044996 41.943636 224.409054 42.207052 223.940237 42.675869 
C 223.471419 43.144687 223.208004 43.780629 223.208004 44.443636 
C 223.208004 45.106644 223.471419 45.742586 223.940237 46.211403 
C 224.409054 46.680221 225.044996 46.943636 225.708004 46.943636 
z
" clip-path="url(#p0975d52cac)" style="fill: #4682b4; stroke: #4682b4"/>
    <path d="M 294.192922 81.424207 
C 294.85593 81.424207 295.491872 81.160791 295.960689 80.691974 
C 296.429506 80.223157 296.692922 79.587215 296.692922 78.924207 
C 296.692922 78.261199 296.429506 77.625257 295.960689 77.15644 
C 295.491872 76.687623 294.85593 76.424207 294.192922 76.424207 
C 293.529914 76.424207 292.893972 76.687623 292.425155 77.15644 
C 291.956338 77.625257 291.692922 78.261199 291.692922 78.924207 
C 291.692922 79.587215 291.956338 80.223157 292.425155 80.691974 
C 292.893972 81.160791 293.529914 81.424207 294.192922 81.424207 
z
" clip-path="url(#p0975d52cac)" style="fill: #4682b4; stroke: #4682b4"/>
    <path d="M 169.782991 156.725986 
C 170.445999 156.725986 171.081941 156.46257 171.550758 155.993753 
C 172.019575 155.524936 172.282991 154.888994 172.282991 154.225986 
C 172.282991 153.562978 172.019575 152.927037 171.550758 152.458219 
C 171.081941 151.989402 170.445999 151.725986 169.782991 151.725986 
C 169.119983 151.725986 168.484042 151.989402 168.015224 152.458219 
C 167.546407 152.927037 167.282991 153.562978 167.282991 154.225986 
C 167.282991 154.888994 167.546407 155.524936 168.015224 155.993753 
C 168.484042 156.46257 169.119983 156.725986 169.782991 156.725986 
z
" clip-path="url(#p0975d52cac)" style="fill: #4682b4; stroke: #4682b4"/>
    <path d="M 249.094811 198.555783 
C 249.757818 198.555783 250.39376 198.292367 250.862578 197.82355 
C 251.331395 197.354733 251.594811 196.718791 251.594811 196.055783 
C 251.594811 195.392775 251.331395 194.756833 250.862578 194.288016 
C 250.39376 193.819199 249.757818 193.555783 249.094811 193.555783 
C 248.431803 193.555783 247.795861 193.819199 247.327044 194.288016 
C 246.858227 194.756833 246.594811 195.392775 246.594811 196.055783 
C 246.594811 196.718791 246.858227 197.354733 247.327044 197.82355 
C 247.795861 198.292367 248.431803 198.555783 249.094811 198.555783 
z
" clip-path="url(#p0975d52cac)" style="fill: #4682b4; stroke: #4682b4"/>
    <path d="M 262.177877 133.88549 
C 262.840885 133.88549 263.476827 133.622074 263.945644 133.153257 
C 264.414461 132.684439 264.677877 132.048497 264.677877 131.38549 
C 264.677877 130.722482 264.414461 130.08654 263.945644 129.617723 
C 263.476827 129.148905 262.840885 128.88549 262.177877 128.88549 
C 261.514869 128.88549 260.878927 129.148905 260.41011 129.617723 
C 259.941293 130.08654 259.677877 130.722482 259.677877 131.38549 
C 259.677877 132.048497 259.941293 132.684439 260.41011 133.153257 
C 260.878927 133.622074 261.514869 133.88549 262.177877 133.88549 
z
" clip-path="url(#p0975d52cac)" style="fill: #4682b4; stroke: #4682b4"/>
    <path d="M 184.678055 115.587547 
C 185.341063 115.587547 185.977005 115.324131 186.445822 114.855314 
C 186.914639 114.386496 187.178055 113.750554 187.178055 113.087547 
C 187.178055 112.424539 186.914639 111.788597 186.445822 111.31978 
C 185.977005 110.850962 185.341063 110.587547 184.678055 110.587547 
C 184.015047 110.587547 183.379105 110.850962 182.910288 111.31978 
C 182.441471 111.788597 182.178055 112.424539 182.178055 113.087547 
C 182.178055 113.750554 182.441471 114.386496 182.910288 114.855314 
C 183.379105 115.324131 184.015047 115.587547 184.678055 115.587547 
z
" clip-path="url(#p0975d52cac)" style="fill: #4682b4; stroke: #4682b4"/>
    <path d="M 235.663689 70.709939 
C 236.326697 70.709939 236.962639 70.446523 237.431456 69.977706 
C 237.900273 69.508889 238.163689 68.872947 238.163689 68.209939 
C 238.163689 67.546931 237.900273 66.910989 237.431456 66.442172 
C 236.962639 65.973355 236.326697 65.709939 235.663689 65.709939 
C 235.000681 65.709939 234.364739 65.973355 233.895922 66.442172 
C 233.427105 66.910989 233.163689 67.546931 233.163689 68.209939 
C 233.163689 68.872947 233.427105 69.508889 233.895922 69.977706 
C 234.364739 70.446523 235.000681 70.709939 235.663689 70.709939 
z
" clip-path="url(#p0975d52cac)" style="fill: #4682b4; stroke: #4682b4"/>
    <path d="M 266.785237 92.417147 
C 267.448244 92.417147 268.084186 92.153732 268.553004 91.684914 
C 269.021821 91.216097 269.285237 90.580155 269.285237 89.917147 
C 269.285237 89.25414 269.021821 88.618198 268.553004 88.14938 
C 268.084186 87.680563 267.448244 87.417147 266.785237 87.417147 
C 266.122229 87.417147 265.486287 87.680563 265.01747 88.14938 
C 264.548653 88.618198 264.285237 89.25414 264.285237 89.917147 
C 264.285237 90.580155 264.548653 91.216097 265.01747 91.684914 
C 265.486287 92.153732 266.122229 92.417147 266.785237 92.417147 
z
" clip-path="url(#p0975d52cac)" style="fill: #4682b4; stroke: #4682b4"/>
   </g>
   <g id="patch_29">
    <path d="M 141.327786 252 
L 141.327786 34.56 
" style="fill: none; stroke: #000000; stroke-width: 0.8; stroke-linejoin: miter; stroke-linecap: square"/>
   </g>
   <g id="patch_30">
    <path d="M 301.472214 252 
L 301.472214 34.56 
" style="fill: none; stroke: #000000; stroke-width: 0.8; stroke-linejoin: miter; stroke-linecap: square"/>
   </g>
   <g id="patch_31">
    <path d="M 141.327786 252 
L 301.472214 252 
" style="fill: none; stroke: #000000; stroke-width: 0.8; stroke-linejoin: miter; stroke-linecap: square"/>
   </g>
   <g id="patch_32">
    <path d="M 141.327786 34.56 
L 301.472214 34.56 
" style="fill: none; stroke: #000000; stroke-width: 0.8; stroke-linejoin: miter; stroke-linecap: square"/>
   </g>
   <g id="text_13">
    <!-- 0 -->
    <g transform="translate(186.566607 211.154135) scale(0.1 -0.1)">
     <use xlink:href="#DejaVuSans-30"/>
    </g>
   </g>
   <g id="text_14">
    <!-- 1 -->
    <g transform="translate(196.121704 238.571234) scale(0.1 -0.1)">
     <use xlink:href="#DejaVuSans-31"/>
    </g>
   </g>
   <g id="text_15">
    <!-- 2 -->
    <g transform="translate(148.607078 211.727832) scale(0.1 -0.1)">
     <use xlink:href="#DejaVuSans-32"/>
    </g>
   </g>
   <g id="text_16">
    <!-- 3 -->
    <g transform="translate(232.058295 242.116364) scale(0.1 -0.1)">
     <use xlink:href="#DejaVuSans-33"/>
    </g>
   </g>
   <g id="text_17">
    <!-- 4 -->
    <g transform="translate(211.979114 114.646539) scale(0.1 -0.1)">
     <defs>
      <path id="DejaVuSans-34" d="M 2419 4116 
L 825 1625 
L 2419 1625 
L 2419 4116 
z
M 2253 4666 
L 3047 4666 
L 3047 1625 
L 3713 1625 
L 3713 1100 
L 3047 1100 
L 3047 0 
L 2419 0 
L 2419 1100 
L 313 1100 
L 313 1709 
L 2253 4666 
z
" transform="scale(0.015625)"/>
     </defs>
     <use xlink:href="#DejaVuSans-34"/>
    </g>
   </g>
   <g id="text_18">
    <!-- 5 -->
    <g transform="translate(237.263923 140.398895) scale(0.1 -0.1)">
     <defs>
      <path id="DejaVuSans-35" d="M 691 4666 
L 3169 4666 
L 3169 4134 
L 1269 4134 
L 1269 2991 
Q 1406 3038 1543 3061 
Q 1681 3084 1819 3084 
Q 2600 3084 3056 2656 
Q 3513 2228 3513 1497 
Q 3513 744 3044 326 
Q 2575 -91 1722 -91 
Q 1428 -91 1123 -41 
Q 819 9 494 109 
L 494 744 
Q 775 591 1075 516 
Q 1375 441 1709 441 
Q 2250 441 2565 725 
Q 2881 1009 2881 1497 
Q 2881 1984 2565 2268 
Q 2250 2553 1709 2553 
Q 1456 2553 1204 2497 
Q 953 2441 691 2322 
L 691 4666 
z
" transform="scale(0.015625)"/>
     </defs>
     <use xlink:href="#DejaVuSans-35"/>
    </g>
   </g>
   <g id="text_19">
    <!-- 6 -->
    <g transform="translate(186.74177 82.028873) scale(0.1 -0.1)">
     <defs>
      <path id="DejaVuSans-36" d="M 2113 2584 
Q 1688 2584 1439 2293 
Q 1191 2003 1191 1497 
Q 1191 994 1439 701 
Q 1688 409 2113 409 
Q 2538 409 2786 701 
Q 3034 994 3034 1497 
Q 3034 2003 2786 2293 
Q 2538 2584 2113 2584 
z
M 3366 4563 
L 3366 3988 
Q 3128 4100 2886 4159 
Q 2644 4219 2406 4219 
Q 1781 4219 1451 3797 
Q 1122 3375 1075 2522 
Q 1259 2794 1537 2939 
Q 1816 3084 2150 3084 
Q 2853 3084 3261 2657 
Q 3669 2231 3669 1497 
Q 3669 778 3244 343 
Q 2819 -91 2113 -91 
Q 1303 -91 875 529 
Q 447 1150 447 2328 
Q 447 3434 972 4092 
Q 1497 4750 2381 4750 
Q 2619 4750 2861 4703 
Q 3103 4656 3366 4563 
z
" transform="scale(0.015625)"/>
     </defs>
     <use xlink:href="#DejaVuSans-36"/>
    </g>
   </g>
   <g id="text_20">
    <!-- 7 -->
    <g transform="translate(290.662542 135.106862) scale(0.1 -0.1)">
     <defs>
      <path id="DejaVuSans-37" d="M 525 4666 
L 3525 4666 
L 3525 4397 
L 1831 0 
L 1172 0 
L 2766 4134 
L 525 4134 
L 525 4666 
z
" transform="scale(0.015625)"/>
     </defs>
     <use xlink:href="#DejaVuSans-37"/>
    </g>
   </g>
   <g id="text_21">
    <!-- 8 -->
    <g transform="translate(225.708004 44.443636) scale(0.1 -0.1)">
     <defs>
      <path id="DejaVuSans-38" d="M 2034 2216 
Q 1584 2216 1326 1975 
Q 1069 1734 1069 1313 
Q 1069 891 1326 650 
Q 1584 409 2034 409 
Q 2484 409 2743 651 
Q 3003 894 3003 1313 
Q 3003 1734 2745 1975 
Q 2488 2216 2034 2216 
z
M 1403 2484 
Q 997 2584 770 2862 
Q 544 3141 544 3541 
Q 544 4100 942 4425 
Q 1341 4750 2034 4750 
Q 2731 4750 3128 4425 
Q 3525 4100 3525 3541 
Q 3525 3141 3298 2862 
Q 3072 2584 2669 2484 
Q 3125 2378 3379 2068 
Q 3634 1759 3634 1313 
Q 3634 634 3220 271 
Q 2806 -91 2034 -91 
Q 1263 -91 848 271 
Q 434 634 434 1313 
Q 434 1759 690 2068 
Q 947 2378 1403 2484 
z
M 1172 3481 
Q 1172 3119 1398 2916 
Q 1625 2713 2034 2713 
Q 2441 2713 2670 2916 
Q 2900 3119 2900 3481 
Q 2900 3844 2670 4047 
Q 2441 4250 2034 4250 
Q 1625 4250 1398 4047 
Q 1172 3844 1172 3481 
z
" transform="scale(0.015625)"/>
     </defs>
     <use xlink:href="#DejaVuSans-38"/>
    </g>
   </g>
   <g id="text_22">
    <!-- 9 -->
    <g transform="translate(294.192922 78.924207) scale(0.1 -0.1)">
     <defs>
      <path id="DejaVuSans-39" d="M 703 97 
L 703 672 
Q 941 559 1184 500 
Q 1428 441 1663 441 
Q 2288 441 2617 861 
Q 2947 1281 2994 2138 
Q 2813 1869 2534 1725 
Q 2256 1581 1919 1581 
Q 1219 1581 811 2004 
Q 403 2428 403 3163 
Q 403 3881 828 4315 
Q 1253 4750 1959 4750 
Q 2769 4750 3195 4129 
Q 3622 3509 3622 2328 
Q 3622 1225 3098 567 
Q 2575 -91 1691 -91 
Q 1453 -91 1209 -44 
Q 966 3 703 97 
z
M 1959 2075 
Q 2384 2075 2632 2365 
Q 2881 2656 2881 3163 
Q 2881 3666 2632 3958 
Q 2384 4250 1959 4250 
Q 1534 4250 1286 3958 
Q 1038 3666 1038 3163 
Q 1038 2656 1286 2365 
Q 1534 2075 1959 2075 
z
" transform="scale(0.015625)"/>
     </defs>
     <use xlink:href="#DejaVuSans-39"/>
    </g>
   </g>
   <g id="text_23">
    <!-- 10 -->
    <g transform="translate(169.782991 154.225986) scale(0.1 -0.1)">
     <use xlink:href="#DejaVuSans-31"/>
     <use xlink:href="#DejaVuSans-30" x="63.623047"/>
    </g>
   </g>
   <g id="text_24">
    <!-- 11 -->
    <g transform="translate(249.094811 196.055783) scale(0.1 -0.1)">
     <use xlink:href="#DejaVuSans-31"/>
     <use xlink:href="#DejaVuSans-31" x="63.623047"/>
    </g>
   </g>
   <g id="text_25">
    <!-- 12 -->
    <g transform="translate(262.177877 131.38549) scale(0.1 -0.1)">
     <use xlink:href="#DejaVuSans-31"/>
     <use xlink:href="#DejaVuSans-32" x="63.623047"/>
    </g>
   </g>
   <g id="text_26">
    <!-- 13 -->
    <g transform="translate(184.678055 113.087547) scale(0.1 -0.1)">
     <use xlink:href="#DejaVuSans-31"/>
     <use xlink:href="#DejaVuSans-33" x="63.623047"/>
    </g>
   </g>
   <g id="text_27">
    <!-- 14 -->
    <g transform="translate(235.663689 68.209939) scale(0.1 -0.1)">
     <use xlink:href="#DejaVuSans-31"/>
     <use xlink:href="#DejaVuSans-34" x="63.623047"/>
    </g>
   </g>
   <g id="text_28">
    <!-- 15 -->
    <g transform="translate(266.785237 89.917147) scale(0.1 -0.1)">
     <use xlink:href="#DejaVuSans-31"/>
     <use xlink:href="#DejaVuSans-35" x="63.623047"/>
    </g>
   </g>
   <g id="text_29">
    <!-- Fruchterman Reingold -->
    <g transform="translate(155.360625 28.56) scale(0.12 -0.12)">
     <defs>
      <path id="DejaVuSans-46" d="M 628 4666 
L 3309 4666 
L 3309 4134 
L 1259 4134 
L 1259 2759 
L 3109 2759 
L 3109 2228 
L 1259 2228 
L 1259 0 
L 628 0 
L 628 4666 
z
" transform="scale(0.015625)"/>
      <path id="DejaVuSans-72" d="M 2631 2963 
Q 2534 3019 2420 3045 
Q 2306 3072 2169 3072 
Q 1681 3072 1420 2755 
Q 1159 2438 1159 1844 
L 1159 0 
L 581 0 
L 581 3500 
L 1159 3500 
L 1159 2956 
Q 1341 3275 1631 3429 
Q 1922 3584 2338 3584 
Q 2397 3584 2469 3576 
Q 2541 3569 2628 3553 
L 2631 2963 
z
" transform="scale(0.015625)"/>
      <path id="DejaVuSans-75" d="M 544 1381 
L 544 3500 
L 1119 3500 
L 1119 1403 
Q 1119 906 1312 657 
Q 1506 409 1894 409 
Q 2359 409 2629 706 
Q 2900 1003 2900 1516 
L 2900 3500 
L 3475 3500 
L 3475 0 
L 2900 0 
L 2900 538 
Q 2691 219 2414 64 
Q 2138 -91 1772 -91 
Q 1169 -91 856 284 
Q 544 659 544 1381 
z
M 1991 3584 
L 1991 3584 
z
" transform="scale(0.015625)"/>
      <path id="DejaVuSans-63" d="M 3122 3366 
L 3122 2828 
Q 2878 2963 2633 3030 
Q 2388 3097 2138 3097 
Q 1578 3097 1268 2742 
Q 959 2388 959 1747 
Q 959 1106 1268 751 
Q 1578 397 2138 397 
Q 2388 397 2633 464 
Q 2878 531 3122 666 
L 3122 134 
Q 2881 22 2623 -34 
Q 2366 -91 2075 -91 
Q 1284 -91 818 406 
Q 353 903 353 1747 
Q 353 2603 823 3093 
Q 1294 3584 2113 3584 
Q 2378 3584 2631 3529 
Q 2884 3475 3122 3366 
z
" transform="scale(0.015625)"/>
      <path id="DejaVuSans-68" d="M 3513 2113 
L 3513 0 
L 2938 0 
L 2938 2094 
Q 2938 2591 2744 2837 
Q 2550 3084 2163 3084 
Q 1697 3084 1428 2787 
Q 1159 2491 1159 1978 
L 1159 0 
L 581 0 
L 581 4863 
L 1159 4863 
L 1159 2956 
Q 1366 3272 1645 3428 
Q 1925 3584 2291 3584 
Q 2894 3584 3203 3211 
Q 3513 2838 3513 2113 
z
" transform="scale(0.015625)"/>
      <path id="DejaVuSans-74" d="M 1172 4494 
L 1172 3500 
L 2356 3500 
L 2356 3053 
L 1172 3053 
L 1172 1153 
Q 1172 725 1289 603 
Q 1406 481 1766 481 
L 2356 481 
L 2356 0 
L 1766 0 
Q 1100 0 847 248 
Q 594 497 594 1153 
L 594 3053 
L 172 3053 
L 172 3500 
L 594 3500 
L 594 4494 
L 1172 4494 
z
" transform="scale(0.015625)"/>
      <path id="DejaVuSans-65" d="M 3597 1894 
L 3597 1613 
L 953 1613 
Q 991 1019 1311 708 
Q 1631 397 2203 397 
Q 2534 397 2845 478 
Q 3156 559 3463 722 
L 3463 178 
Q 3153 47 2828 -22 
Q 2503 -91 2169 -91 
Q 1331 -91 842 396 
Q 353 884 353 1716 
Q 353 2575 817 3079 
Q 1281 3584 2069 3584 
Q 2775 3584 3186 3129 
Q 3597 2675 3597 1894 
z
M 3022 2063 
Q 3016 2534 2758 2815 
Q 2500 3097 2075 3097 
Q 1594 3097 1305 2825 
Q 1016 2553 972 2059 
L 3022 2063 
z
" transform="scale(0.015625)"/>
      <path id="DejaVuSans-6d" d="M 3328 2828 
Q 3544 3216 3844 3400 
Q 4144 3584 4550 3584 
Q 5097 3584 5394 3201 
Q 5691 2819 5691 2113 
L 5691 0 
L 5113 0 
L 5113 2094 
Q 5113 2597 4934 2840 
Q 4756 3084 4391 3084 
Q 3944 3084 3684 2787 
Q 3425 2491 3425 1978 
L 3425 0 
L 2847 0 
L 2847 2094 
Q 2847 2600 2669 2842 
Q 2491 3084 2119 3084 
Q 1678 3084 1418 2786 
Q 1159 2488 1159 1978 
L 1159 0 
L 581 0 
L 581 3500 
L 1159 3500 
L 1159 2956 
Q 1356 3278 1631 3431 
Q 1906 3584 2284 3584 
Q 2666 3584 2933 3390 
Q 3200 3197 3328 2828 
z
" transform="scale(0.015625)"/>
      <path id="DejaVuSans-61" d="M 2194 1759 
Q 1497 1759 1228 1600 
Q 959 1441 959 1056 
Q 959 750 1161 570 
Q 1363 391 1709 391 
Q 2188 391 2477 730 
Q 2766 1069 2766 1631 
L 2766 1759 
L 2194 1759 
z
M 3341 1997 
L 3341 0 
L 2766 0 
L 2766 531 
Q 2569 213 2275 61 
Q 1981 -91 1556 -91 
Q 1019 -91 701 211 
Q 384 513 384 1019 
Q 384 1609 779 1909 
Q 1175 2209 1959 2209 
L 2766 2209 
L 2766 2266 
Q 2766 2663 2505 2880 
Q 2244 3097 1772 3097 
Q 1472 3097 1187 3025 
Q 903 2953 641 2809 
L 641 3341 
Q 956 3463 1253 3523 
Q 1550 3584 1831 3584 
Q 2591 3584 2966 3190 
Q 3341 2797 3341 1997 
z
" transform="scale(0.015625)"/>
      <path id="DejaVuSans-6e" d="M 3513 2113 
L 3513 0 
L 2938 0 
L 2938 2094 
Q 2938 2591 2744 2837 
Q 2550 3084 2163 3084 
Q 1697 3084 1428 2787 
Q 1159 2491 1159 1978 
L 1159 0 
L 581 0 
L 581 3500 
L 1159 3500 
L 1159 2956 
Q 1366 3272 1645 3428 
Q 1925 3584 2291 3584 
Q 2894 3584 3203 3211 
Q 3513 2838 3513 2113 
z
" transform="scale(0.015625)"/>
      <path id="DejaVuSans-20" transform="scale(0.015625)"/>
      <path id="DejaVuSans-52" d="M 2841 2188 
Q 3044 2119 3236 1894 
Q 3428 1669 3622 1275 
L 4263 0 
L 3584 0 
L 2988 1197 
Q 2756 1666 2539 1819 
Q 2322 1972 1947 1972 
L 1259 1972 
L 1259 0 
L 628 0 
L 628 4666 
L 2053 4666 
Q 2853 4666 3247 4331 
Q 3641 3997 3641 3322 
Q 3641 2881 3436 2590 
Q 3231 2300 2841 2188 
z
M 1259 4147 
L 1259 2491 
L 2053 2491 
Q 2509 2491 2742 2702 
Q 2975 2913 2975 3322 
Q 2975 3731 2742 3939 
Q 2509 4147 2053 4147 
L 1259 4147 
z
" transform="scale(0.015625)"/>
      <path id="DejaVuSans-69" d="M 603 3500 
L 1178 3500 
L 1178 0 
L 603 0 
L 603 3500 
z
M 603 4863 
L 1178 4863 
L 1178 4134 
L 603 4134 
L 603 4863 
z
" transform="scale(0.015625)"/>
      <path id="DejaVuSans-67" d="M 2906 1791 
Q 2906 2416 2648 2759 
Q 2391 3103 1925 3103 
Q 1463 3103 1205 2759 
Q 947 2416 947 1791 
Q 947 1169 1205 825 
Q 1463 481 1925 481 
Q 2391 481 2648 825 
Q 2906 1169 2906 1791 
z
M 3481 434 
Q 3481 -459 3084 -895 
Q 2688 -1331 1869 -1331 
Q 1566 -1331 1297 -1286 
Q 1028 -1241 775 -1147 
L 775 -588 
Q 1028 -725 1275 -790 
Q 1522 -856 1778 -856 
Q 2344 -856 2625 -561 
Q 2906 -266 2906 331 
L 2906 616 
Q 2728 306 2450 153 
Q 2172 0 1784 0 
Q 1141 0 747 490 
Q 353 981 353 1791 
Q 353 2603 747 3093 
Q 1141 3584 1784 3584 
Q 2172 3584 2450 3431 
Q 2728 3278 2906 2969 
L 2906 3500 
L 3481 3500 
L 3481 434 
z
" transform="scale(0.015625)"/>
      <path id="DejaVuSans-6f" d="M 1959 3097 
Q 1497 3097 1228 2736 
Q 959 2375 959 1747 
Q 959 1119 1226 758 
Q 1494 397 1959 397 
Q 2419 397 2687 759 
Q 2956 1122 2956 1747 
Q 2956 2369 2687 2733 
Q 2419 3097 1959 3097 
z
M 1959 3584 
Q 2709 3584 3137 3096 
Q 3566 2609 3566 1747 
Q 3566 888 3137 398 
Q 2709 -91 1959 -91 
Q 1206 -91 779 398 
Q 353 888 353 1747 
Q 353 2609 779 3096 
Q 1206 3584 1959 3584 
z
" transform="scale(0.015625)"/>
      <path id="DejaVuSans-6c" d="M 603 4863 
L 1178 4863 
L 1178 0 
L 603 0 
L 603 4863 
z
" transform="scale(0.015625)"/>
      <path id="DejaVuSans-64" d="M 2906 2969 
L 2906 4863 
L 3481 4863 
L 3481 0 
L 2906 0 
L 2906 525 
Q 2725 213 2448 61 
Q 2172 -91 1784 -91 
Q 1150 -91 751 415 
Q 353 922 353 1747 
Q 353 2572 751 3078 
Q 1150 3584 1784 3584 
Q 2172 3584 2448 3432 
Q 2725 3281 2906 2969 
z
M 947 1747 
Q 947 1113 1208 752 
Q 1469 391 1925 391 
Q 2381 391 2643 752 
Q 2906 1113 2906 1747 
Q 2906 2381 2643 2742 
Q 2381 3103 1925 3103 
Q 1469 3103 1208 2742 
Q 947 2381 947 1747 
z
" transform="scale(0.015625)"/>
     </defs>
     <use xlink:href="#DejaVuSans-46"/>
     <use xlink:href="#DejaVuSans-72" x="50.269531"/>
     <use xlink:href="#DejaVuSans-75" x="91.382812"/>
     <use xlink:href="#DejaVuSans-63" x="154.761719"/>
     <use xlink:href="#DejaVuSans-68" x="209.742188"/>
     <use xlink:href="#DejaVuSans-74" x="273.121094"/>
     <use xlink:href="#DejaVuSans-65" x="312.330078"/>
     <use xlink:href="#DejaVuSans-72" x="373.853516"/>
     <use xlink:href="#DejaVuSans-6d" x="413.216797"/>
     <use xlink:href="#DejaVuSans-61" x="510.628906"/>
     <use xlink:href="#DejaVuSans-6e" x="571.908203"/>
     <use xlink:href="#DejaVuSans-20" x="635.287109"/>
     <use xlink:href="#DejaVuSans-52" x="667.074219"/>
     <use xlink:href="#DejaVuSans-65" x="732.056641"/>
     <use xlink:href="#DejaVuSans-69" x="793.580078"/>
     <use xlink:href="#DejaVuSans-6e" x="821.363281"/>
     <use xlink:href="#DejaVuSans-67" x="884.742188"/>
     <use xlink:href="#DejaVuSans-6f" x="948.21875"/>
     <use xlink:href="#DejaVuSans-6c" x="1009.400391"/>
     <use xlink:href="#DejaVuSans-64" x="1037.183594"/>
    </g>
   </g>
  </g>
 </g>
 <defs>
  <clipPath id="p0975d52cac">
   <rect x="141.327786" y="34.56" width="160.144429" height="217.44"/>
  </clipPath>
 </defs>
</svg>
