<?xml version="1.0" encoding="utf-8" standalone="no"?>
<!DOCTYPE svg PUBLIC "-//W3C//DTD SVG 1.1//EN"
  "http://www.w3.org/Graphics/SVG/1.1/DTD/svg11.dtd">
<svg xmlns:xlink="http://www.w3.org/1999/xlink" width="432pt" height="288pt" viewBox="0 0 432 288" xmlns="http://www.w3.org/2000/svg" version="1.1">
 <metadata>
  <rdf:RDF xmlns:dc="http://purl.org/dc/elements/1.1/" xmlns:cc="http://creativecommons.org/ns#" xmlns:rdf="http://www.w3.org/1999/02/22-rdf-syntax-ns#">
   <cc:Work>
    <dc:type rdf:resource="http://purl.org/dc/dcmitype/StillImage"/>
    <dc:date>2023-03-28T22:05:15.542673</dc:date>
    <dc:format>image/svg+xml</dc:format>
    <dc:creator>
     <cc:Agent>
      <dc:title>Matplotlib v3.7.1, https://matplotlib.org/</dc:title>
     </cc:Agent>
    </dc:creator>
   </cc:Work>
  </rdf:RDF>
 </metadata>
 <defs>
  <style type="text/css">*{stroke-linejoin: round; stroke-linecap: butt}</style>
 </defs>
 <g id="figure_1">
  <g id="patch_1">
   <path d="M 0 288 
L 432 288 
L 432 0 
L 0 0 
z
" style="fill: #ffffff"/>
  </g>
  <g id="axes_1">
   <g id="patch_2">
    <path d="M 116.286949 252 
L 326.513051 252 
L 326.513051 34.56 
L 116.286949 34.56 
z
" style="fill: #ffffff"/>
   </g>
   <g id="patch_3">
    <path d="M 313.913792 111.437032 
L 259.479582 89.486363 
" clip-path="url(#p991c12285b)" style="fill: none; stroke: #000000; stroke-linecap: round"/>
   </g>
   <g id="patch_4">
    <path d="M 145.486366 116.611154 
L 174.130068 84.068194 
" clip-path="url(#p991c12285b)" style="fill: none; stroke: #000000; stroke-linecap: round"/>
   </g>
   <g id="patch_5">
    <path d="M 266.269986 142.529062 
L 291.624839 160.248015 
" clip-path="url(#p991c12285b)" style="fill: none; stroke: #000000; stroke-linecap: round"/>
   </g>
   <g id="patch_6">
    <path d="M 262.684963 145.390374 
L 256.169319 190.082351 
" clip-path="url(#p991c12285b)" style="fill: none; stroke: #000000; stroke-linecap: round"/>
   </g>
   <g id="patch_7">
    <path d="M 210.52494 58.452093 
L 253.528776 86.371558 
" clip-path="url(#p991c12285b)" style="fill: none; stroke: #000000; stroke-linecap: round"/>
   </g>
   <g id="patch_8">
    <path d="M 264.065173 135.635161 
L 267.572514 110.069826 
" clip-path="url(#p991c12285b)" style="fill: none; stroke: #000000; stroke-linecap: round"/>
   </g>
   <g id="patch_9">
    <path d="M 262.743718 135.628702 
L 257.087363 93.150284 
" clip-path="url(#p991c12285b)" style="fill: none; stroke: #000000; stroke-linecap: round"/>
   </g>
   <g id="patch_10">
    <path d="M 301.773041 71.188458 
L 270.891063 102.499832 
" clip-path="url(#p991c12285b)" style="fill: none; stroke: #000000; stroke-linecap: round"/>
   </g>
   <g id="patch_11">
    <path d="M 237.044959 144.770251 
L 265.787152 108.30073 
" clip-path="url(#p991c12285b)" style="fill: none; stroke: #000000; stroke-linecap: round"/>
   </g>
   <g id="patch_12">
    <path d="M 236.171729 143.567342 
L 254.853776 92.577638 
" clip-path="url(#p991c12285b)" style="fill: none; stroke: #000000; stroke-linecap: round"/>
   </g>
   <g id="patch_13">
    <path d="M 231.50759 148.840251 
L 179.976587 164.797323 
" clip-path="url(#p991c12285b)" style="fill: none; stroke: #000000; stroke-linecap: round"/>
   </g>
   <g id="patch_14">
    <path d="M 237.694007 148.630641 
L 291.395242 161.512431 
" clip-path="url(#p991c12285b)" style="fill: none; stroke: #000000; stroke-linecap: round"/>
   </g>
   <g id="patch_15">
    <path d="M 236.400463 151.970232 
L 253.648243 190.868487 
" clip-path="url(#p991c12285b)" style="fill: none; stroke: #000000; stroke-linecap: round"/>
   </g>
   <g id="patch_16">
    <path d="M 128.926893 180.291231 
L 173.810515 166.686509 
" clip-path="url(#p991c12285b)" style="fill: none; stroke: #000000; stroke-linecap: round"/>
   </g>
   <g id="patch_17">
    <path d="M 224.936625 47.59229 
L 253.997189 85.110403 
" clip-path="url(#p991c12285b)" style="fill: none; stroke: #000000; stroke-linecap: round"/>
   </g>
   <g id="patch_18">
    <path d="M 232.605265 144.011045 
L 219.419515 118.260831 
" clip-path="url(#p991c12285b)" style="fill: none; stroke: #000000; stroke-linecap: round"/>
   </g>
   <g id="patch_19">
    <path d="M 219.693358 46.691522 
L 179.490326 78.916523 
" clip-path="url(#p991c12285b)" style="fill: none; stroke: #000000; stroke-linecap: round"/>
   </g>
   <g id="patch_20">
    <path d="M 260.438268 138.838633 
L 220.392088 116.067248 
" clip-path="url(#p991c12285b)" style="fill: none; stroke: #000000; stroke-linecap: round"/>
   </g>
   <g id="patch_21">
    <path d="M 214.640655 112.107553 
L 179.480601 83.442808 
" clip-path="url(#p991c12285b)" style="fill: none; stroke: #000000; stroke-linecap: round"/>
   </g>
   <g id="patch_22">
    <path d="M 220.554804 113.821035 
L 265.123187 105.749975 
" clip-path="url(#p991c12285b)" style="fill: none; stroke: #000000; stroke-linecap: round"/>
   </g>
   <g id="patch_23">
    <path d="M 276.904584 51.114786 
L 258.506946 84.501008 
" clip-path="url(#p991c12285b)" style="fill: none; stroke: #000000; stroke-linecap: round"/>
   </g>
   <g id="patch_24">
    <path d="M 164.094327 213.432608 
L 175.660501 170.349089 
" clip-path="url(#p991c12285b)" style="fill: none; stroke: #000000; stroke-linecap: round"/>
   </g>
   <g id="patch_25">
    <path d="M 301.381793 69.754671 
L 259.475705 87.007618 
" clip-path="url(#p991c12285b)" style="fill: none; stroke: #000000; stroke-linecap: round"/>
   </g>
   <g id="patch_26">
    <path d="M 204.808838 58.798434 
L 179.494748 78.930569 
" clip-path="url(#p991c12285b)" style="fill: none; stroke: #000000; stroke-linecap: round"/>
   </g>
   <g id="patch_27">
    <path d="M 315.120875 116.719745 
L 296.336243 158.201742 
" clip-path="url(#p991c12285b)" style="fill: none; stroke: #000000; stroke-linecap: round"/>
   </g>
   <g id="patch_28">
    <path d="M 276.769017 238.183462 
L 257.397908 198.885698 
" clip-path="url(#p991c12285b)" style="fill: none; stroke: #000000; stroke-linecap: round"/>
   </g>
   <g id="patch_29">
    <path d="M 278.085546 52.151666 
L 269.13259 100.39013 
" clip-path="url(#p991c12285b)" style="fill: none; stroke: #000000; stroke-linecap: round"/>
   </g>
   <g id="patch_30">
    <path d="M 145.317009 122.763768 
L 174.508226 162.502821 
" clip-path="url(#p991c12285b)" style="fill: none; stroke: #000000; stroke-linecap: round"/>
   </g>
   <g id="matplotlib.axis_1">
    <g id="xtick_1">
     <g id="line2d_1">
      <defs>
       <path id="m84c1b22ec0" d="M 0 0 
L 0 3.5 
" style="stroke: #000000; stroke-width: 0.8"/>
      </defs>
      <g>
       <use xlink:href="#m84c1b22ec0" x="144.989601" y="252" style="stroke: #000000; stroke-width: 0.8"/>
      </g>
     </g>
     <g id="text_1">
      <!-- −2 -->
      <g transform="translate(137.618507 266.598437) scale(0.1 -0.1)">
       <defs>
        <path id="DejaVuSans-2212" d="M 678 2272 
L 4684 2272 
L 4684 1741 
L 678 1741 
L 678 2272 
z
" transform="scale(0.015625)"/>
        <path id="DejaVuSans-32" d="M 1228 531 
L 3431 531 
L 3431 0 
L 469 0 
L 469 531 
Q 828 903 1448 1529 
Q 2069 2156 2228 2338 
Q 2531 2678 2651 2914 
Q 2772 3150 2772 3378 
Q 2772 3750 2511 3984 
Q 2250 4219 1831 4219 
Q 1534 4219 1204 4116 
Q 875 4013 500 3803 
L 500 4441 
Q 881 4594 1212 4672 
Q 1544 4750 1819 4750 
Q 2544 4750 2975 4387 
Q 3406 4025 3406 3419 
Q 3406 3131 3298 2873 
Q 3191 2616 2906 2266 
Q 2828 2175 2409 1742 
Q 1991 1309 1228 531 
z
" transform="scale(0.015625)"/>
       </defs>
       <use xlink:href="#DejaVuSans-2212"/>
       <use xlink:href="#DejaVuSans-32" x="83.789062"/>
      </g>
     </g>
    </g>
    <g id="xtick_2">
     <g id="line2d_2">
      <g>
       <use xlink:href="#m84c1b22ec0" x="189.28798" y="252" style="stroke: #000000; stroke-width: 0.8"/>
      </g>
     </g>
     <g id="text_2">
      <!-- −1 -->
      <g transform="translate(181.916886 266.598437) scale(0.1 -0.1)">
       <defs>
        <path id="DejaVuSans-31" d="M 794 531 
L 1825 531 
L 1825 4091 
L 703 3866 
L 703 4441 
L 1819 4666 
L 2450 4666 
L 2450 531 
L 3481 531 
L 3481 0 
L 794 0 
L 794 531 
z
" transform="scale(0.015625)"/>
       </defs>
       <use xlink:href="#DejaVuSans-2212"/>
       <use xlink:href="#DejaVuSans-31" x="83.789062"/>
      </g>
     </g>
    </g>
    <g id="xtick_3">
     <g id="line2d_3">
      <g>
       <use xlink:href="#m84c1b22ec0" x="233.586358" y="252" style="stroke: #000000; stroke-width: 0.8"/>
      </g>
     </g>
     <g id="text_3">
      <!-- 0 -->
      <g transform="translate(230.405108 266.598437) scale(0.1 -0.1)">
       <defs>
        <path id="DejaVuSans-30" d="M 2034 4250 
Q 1547 4250 1301 3770 
Q 1056 3291 1056 2328 
Q 1056 1369 1301 889 
Q 1547 409 2034 409 
Q 2525 409 2770 889 
Q 3016 1369 3016 2328 
Q 3016 3291 2770 3770 
Q 2525 4250 2034 4250 
z
M 2034 4750 
Q 2819 4750 3233 4129 
Q 3647 3509 3647 2328 
Q 3647 1150 3233 529 
Q 2819 -91 2034 -91 
Q 1250 -91 836 529 
Q 422 1150 422 2328 
Q 422 3509 836 4129 
Q 1250 4750 2034 4750 
z
" transform="scale(0.015625)"/>
       </defs>
       <use xlink:href="#DejaVuSans-30"/>
      </g>
     </g>
    </g>
    <g id="xtick_4">
     <g id="line2d_4">
      <g>
       <use xlink:href="#m84c1b22ec0" x="277.884737" y="252" style="stroke: #000000; stroke-width: 0.8"/>
      </g>
     </g>
     <g id="text_4">
      <!-- 1 -->
      <g transform="translate(274.703487 266.598437) scale(0.1 -0.1)">
       <use xlink:href="#DejaVuSans-31"/>
      </g>
     </g>
    </g>
    <g id="xtick_5">
     <g id="line2d_5">
      <g>
       <use xlink:href="#m84c1b22ec0" x="322.183115" y="252" style="stroke: #000000; stroke-width: 0.8"/>
      </g>
     </g>
     <g id="text_5">
      <!-- 2 -->
      <g transform="translate(319.001865 266.598437) scale(0.1 -0.1)">
       <use xlink:href="#DejaVuSans-32"/>
      </g>
     </g>
    </g>
   </g>
   <g id="matplotlib.axis_2">
    <g id="ytick_1">
     <g id="line2d_6">
      <defs>
       <path id="m38d1f4c01b" d="M 0 0 
L -3.5 0 
" style="stroke: #000000; stroke-width: 0.8"/>
      </defs>
      <g>
       <use xlink:href="#m38d1f4c01b" x="116.286949" y="250.795552" style="stroke: #000000; stroke-width: 0.8"/>
      </g>
     </g>
     <g id="text_6">
      <!-- −3 -->
      <g transform="translate(94.544762 254.59477) scale(0.1 -0.1)">
       <defs>
        <path id="DejaVuSans-33" d="M 2597 2516 
Q 3050 2419 3304 2112 
Q 3559 1806 3559 1356 
Q 3559 666 3084 287 
Q 2609 -91 1734 -91 
Q 1441 -91 1130 -33 
Q 819 25 488 141 
L 488 750 
Q 750 597 1062 519 
Q 1375 441 1716 441 
Q 2309 441 2620 675 
Q 2931 909 2931 1356 
Q 2931 1769 2642 2001 
Q 2353 2234 1838 2234 
L 1294 2234 
L 1294 2753 
L 1863 2753 
Q 2328 2753 2575 2939 
Q 2822 3125 2822 3475 
Q 2822 3834 2567 4026 
Q 2313 4219 1838 4219 
Q 1578 4219 1281 4162 
Q 984 4106 628 3988 
L 628 4550 
Q 988 4650 1302 4700 
Q 1616 4750 1894 4750 
Q 2613 4750 3031 4423 
Q 3450 4097 3450 3541 
Q 3450 3153 3228 2886 
Q 3006 2619 2597 2516 
z
" transform="scale(0.015625)"/>
       </defs>
       <use xlink:href="#DejaVuSans-2212"/>
       <use xlink:href="#DejaVuSans-33" x="83.789062"/>
      </g>
     </g>
    </g>
    <g id="ytick_2">
     <g id="line2d_7">
      <g>
       <use xlink:href="#m38d1f4c01b" x="116.286949" y="206.497173" style="stroke: #000000; stroke-width: 0.8"/>
      </g>
     </g>
     <g id="text_7">
      <!-- −2 -->
      <g transform="translate(94.544762 210.296392) scale(0.1 -0.1)">
       <use xlink:href="#DejaVuSans-2212"/>
       <use xlink:href="#DejaVuSans-32" x="83.789062"/>
      </g>
     </g>
    </g>
    <g id="ytick_3">
     <g id="line2d_8">
      <g>
       <use xlink:href="#m38d1f4c01b" x="116.286949" y="162.198795" style="stroke: #000000; stroke-width: 0.8"/>
      </g>
     </g>
     <g id="text_8">
      <!-- −1 -->
      <g transform="translate(94.544762 165.998013) scale(0.1 -0.1)">
       <use xlink:href="#DejaVuSans-2212"/>
       <use xlink:href="#DejaVuSans-31" x="83.789062"/>
      </g>
     </g>
    </g>
    <g id="ytick_4">
     <g id="line2d_9">
      <g>
       <use xlink:href="#m38d1f4c01b" x="116.286949" y="117.900416" style="stroke: #000000; stroke-width: 0.8"/>
      </g>
     </g>
     <g id="text_9">
      <!-- 0 -->
      <g transform="translate(102.924449 121.699635) scale(0.1 -0.1)">
       <use xlink:href="#DejaVuSans-30"/>
      </g>
     </g>
    </g>
    <g id="ytick_5">
     <g id="line2d_10">
      <g>
       <use xlink:href="#m38d1f4c01b" x="116.286949" y="73.602037" style="stroke: #000000; stroke-width: 0.8"/>
      </g>
     </g>
     <g id="text_10">
      <!-- 1 -->
      <g transform="translate(102.924449 77.401256) scale(0.1 -0.1)">
       <use xlink:href="#DejaVuSans-31"/>
      </g>
     </g>
    </g>
   </g>
   <g id="PathCollection_1">
    <path d="M 316.957319 115.164338 
C 317.620326 115.164338 318.256268 114.900922 318.725086 114.432105 
C 319.193903 113.963287 319.457319 113.327346 319.457319 112.664338 
C 319.457319 112.00133 319.193903 111.365388 318.725086 110.896571 
C 318.256268 110.427754 317.620326 110.164338 316.957319 110.164338 
C 316.294311 110.164338 315.658369 110.427754 315.189552 110.896571 
C 314.720734 111.365388 314.457319 112.00133 314.457319 112.664338 
C 314.457319 113.327346 314.720734 113.963287 315.189552 114.432105 
C 315.658369 114.900922 316.294311 115.164338 316.957319 115.164338 
z
" clip-path="url(#p991c12285b)" style="fill: #4682b4; stroke: #4682b4"/>
    <path d="M 278.707668 244.616364 
C 279.370676 244.616364 280.006618 244.352948 280.475435 243.884131 
C 280.944252 243.415313 281.207668 242.779371 281.207668 242.116364 
C 281.207668 241.453356 280.944252 240.817414 280.475435 240.348597 
C 280.006618 239.879779 279.370676 239.616364 278.707668 239.616364 
C 278.04466 239.616364 277.408718 239.879779 276.939901 240.348597 
C 276.471084 240.817414 276.207668 241.453356 276.207668 242.116364 
C 276.207668 242.779371 276.471084 243.415313 276.939901 243.884131 
C 277.408718 244.352948 278.04466 244.616364 278.707668 244.616364 
z
" clip-path="url(#p991c12285b)" style="fill: #4682b4; stroke: #4682b4"/>
    <path d="M 142.930508 122.014939 
C 143.593516 122.014939 144.229458 121.751523 144.698275 121.282706 
C 145.167092 120.813889 145.430508 120.177947 145.430508 119.514939 
C 145.430508 118.851931 145.167092 118.215989 144.698275 117.747172 
C 144.229458 117.278355 143.593516 117.014939 142.930508 117.014939 
C 142.267501 117.014939 141.631559 117.278355 141.162741 117.747172 
C 140.693924 118.215989 140.430508 118.851931 140.430508 119.514939 
C 140.430508 120.177947 140.693924 120.813889 141.162741 121.282706 
C 141.631559 121.751523 142.267501 122.014939 142.930508 122.014939 
z
" clip-path="url(#p991c12285b)" style="fill: #4682b4; stroke: #4682b4"/>
    <path d="M 207.617661 59.064595 
C 208.280668 59.064595 208.91661 58.801179 209.385428 58.332361 
C 209.854245 57.863544 210.117661 57.227602 210.117661 56.564595 
C 210.117661 55.901587 209.854245 55.265645 209.385428 54.796828 
C 208.91661 54.32801 208.280668 54.064595 207.617661 54.064595 
C 206.954653 54.064595 206.318711 54.32801 205.849894 54.796828 
C 205.381076 55.265645 205.117661 55.901587 205.117661 56.564595 
C 205.117661 57.227602 205.381076 57.863544 205.849894 58.332361 
C 206.318711 58.801179 206.954653 59.064595 207.617661 59.064595 
z
" clip-path="url(#p991c12285b)" style="fill: #4682b4; stroke: #4682b4"/>
    <path d="M 263.395026 143.019929 
C 264.058033 143.019929 264.693975 142.756513 265.162793 142.287696 
C 265.63161 141.818879 265.895026 141.182937 265.895026 140.519929 
C 265.895026 139.856921 265.63161 139.220979 265.162793 138.752162 
C 264.693975 138.283345 264.058033 138.019929 263.395026 138.019929 
C 262.732018 138.019929 262.096076 138.283345 261.627259 138.752162 
C 261.158441 139.220979 260.895026 139.856921 260.895026 140.519929 
C 260.895026 141.182937 261.158441 141.818879 261.627259 142.287696 
C 262.096076 142.756513 262.732018 143.019929 263.395026 143.019929 
z
" clip-path="url(#p991c12285b)" style="fill: #4682b4; stroke: #4682b4"/>
    <path d="M 304.421442 71.003233 
C 305.08445 71.003233 305.720392 70.739817 306.189209 70.270999 
C 306.658027 69.802182 306.921442 69.16624 306.921442 68.503233 
C 306.921442 67.840225 306.658027 67.204283 306.189209 66.735466 
C 305.720392 66.266648 305.08445 66.003233 304.421442 66.003233 
C 303.758435 66.003233 303.122493 66.266648 302.653676 66.735466 
C 302.184858 67.204283 301.921442 67.840225 301.921442 68.503233 
C 301.921442 69.16624 302.184858 69.802182 302.653676 70.270999 
C 303.122493 70.739817 303.758435 71.003233 304.421442 71.003233 
z
" clip-path="url(#p991c12285b)" style="fill: #4682b4; stroke: #4682b4"/>
    <path d="M 234.58945 150.385923 
C 235.252457 150.385923 235.888399 150.122508 236.357217 149.65369 
C 236.826034 149.184873 237.08945 148.548931 237.08945 147.885923 
C 237.08945 147.222916 236.826034 146.586974 236.357217 146.118156 
C 235.888399 145.649339 235.252457 145.385923 234.58945 145.385923 
C 233.926442 145.385923 233.2905 145.649339 232.821683 146.118156 
C 232.352865 146.586974 232.08945 147.222916 232.08945 147.885923 
C 232.08945 148.548931 232.352865 149.184873 232.821683 149.65369 
C 233.2905 150.122508 233.926442 150.385923 234.58945 150.385923 
z
" clip-path="url(#p991c12285b)" style="fill: #4682b4; stroke: #4682b4"/>
    <path d="M 125.842681 183.72609 
C 126.505689 183.72609 127.141631 183.462674 127.610448 182.993857 
C 128.079266 182.525039 128.342681 181.889097 128.342681 181.22609 
C 128.342681 180.563082 128.079266 179.92714 127.610448 179.458323 
C 127.141631 178.989505 126.505689 178.72609 125.842681 178.72609 
C 125.179674 178.72609 124.543732 178.989505 124.074914 179.458323 
C 123.606097 179.92714 123.342681 180.563082 123.342681 181.22609 
C 123.342681 181.889097 123.606097 182.525039 124.074914 182.993857 
C 124.543732 183.462674 125.179674 183.72609 125.842681 183.72609 
z
" clip-path="url(#p991c12285b)" style="fill: #4682b4; stroke: #4682b4"/>
    <path d="M 222.497759 46.943636 
C 223.160766 46.943636 223.796708 46.680221 224.265526 46.211403 
C 224.734343 45.742586 224.997759 45.106644 224.997759 44.443636 
C 224.997759 43.780629 224.734343 43.144687 224.265526 42.675869 
C 223.796708 42.207052 223.160766 41.943636 222.497759 41.943636 
C 221.834751 41.943636 221.198809 42.207052 220.729992 42.675869 
C 220.261174 43.144687 219.997759 43.780629 219.997759 44.443636 
C 219.997759 45.106644 220.261174 45.742586 220.729992 46.211403 
C 221.198809 46.680221 221.834751 46.943636 222.497759 46.943636 
z
" clip-path="url(#p991c12285b)" style="fill: #4682b4; stroke: #4682b4"/>
    <path d="M 217.43533 116.885952 
C 218.098338 116.885952 218.73428 116.622537 219.203097 116.153719 
C 219.671914 115.684902 219.93533 115.04896 219.93533 114.385952 
C 219.93533 113.722945 219.671914 113.087003 219.203097 112.618185 
C 218.73428 112.149368 218.098338 111.885952 217.43533 111.885952 
C 216.772322 111.885952 216.136381 112.149368 215.667563 112.618185 
C 215.198746 113.087003 214.93533 113.722945 214.93533 114.385952 
C 214.93533 115.04896 215.198746 115.684902 215.667563 116.153719 
C 216.136381 116.622537 216.772322 116.885952 217.43533 116.885952 
z
" clip-path="url(#p991c12285b)" style="fill: #4682b4; stroke: #4682b4"/>
    <path d="M 278.975475 49.856738 
C 279.638482 49.856738 280.274424 49.593322 280.743242 49.124505 
C 281.212059 48.655688 281.475475 48.019746 281.475475 47.356738 
C 281.475475 46.69373 281.212059 46.057788 280.743242 45.588971 
C 280.274424 45.120154 279.638482 44.856738 278.975475 44.856738 
C 278.312467 44.856738 277.676525 45.120154 277.207708 45.588971 
C 276.73889 46.057788 276.475475 46.69373 276.475475 47.356738 
C 276.475475 48.019746 276.73889 48.655688 277.207708 49.124505 
C 277.676525 49.593322 278.312467 49.856738 278.975475 49.856738 
z
" clip-path="url(#p991c12285b)" style="fill: #4682b4; stroke: #4682b4"/>
    <path d="M 162.860101 220.530048 
C 163.523109 220.530048 164.159051 220.266632 164.627868 219.797815 
C 165.096685 219.328997 165.360101 218.693055 165.360101 218.030048 
C 165.360101 217.36704 165.096685 216.731098 164.627868 216.262281 
C 164.159051 215.793463 163.523109 215.530048 162.860101 215.530048 
C 162.197093 215.530048 161.561151 215.793463 161.092334 216.262281 
C 160.623517 216.731098 160.360101 217.36704 160.360101 218.030048 
C 160.360101 218.693055 160.623517 219.328997 161.092334 219.797815 
C 161.561151 220.266632 162.197093 220.530048 162.860101 220.530048 
z
" clip-path="url(#p991c12285b)" style="fill: #4682b4; stroke: #4682b4"/>
    <path d="M 256.436056 90.759057 
C 257.099063 90.759057 257.735005 90.495641 258.203822 90.026824 
C 258.67264 89.558006 258.936056 88.922064 258.936056 88.259057 
C 258.936056 87.596049 258.67264 86.960107 258.203822 86.49129 
C 257.735005 86.022472 257.099063 85.759057 256.436056 85.759057 
C 255.773048 85.759057 255.137106 86.022472 254.668289 86.49129 
C 254.199471 86.960107 253.936056 87.596049 253.936056 88.259057 
C 253.936056 88.922064 254.199471 89.558006 254.668289 90.026824 
C 255.137106 90.495641 255.773048 90.759057 256.436056 90.759057 
z
" clip-path="url(#p991c12285b)" style="fill: #4682b4; stroke: #4682b4"/>
    <path d="M 176.685925 83.664408 
C 177.348933 83.664408 177.984875 83.400992 178.453692 82.932175 
C 178.92251 82.463358 179.185925 81.827416 179.185925 81.164408 
C 179.185925 80.5014 178.92251 79.865459 178.453692 79.396641 
C 177.984875 78.927824 177.348933 78.664408 176.685925 78.664408 
C 176.022918 78.664408 175.386976 78.927824 174.918159 79.396641 
C 174.449341 79.865459 174.185925 80.5014 174.185925 81.164408 
C 174.185925 81.827416 174.449341 82.463358 174.918159 82.932175 
C 175.386976 83.400992 176.022918 83.664408 176.685925 83.664408 
z
" clip-path="url(#p991c12285b)" style="fill: #4682b4; stroke: #4682b4"/>
    <path d="M 294.4998 164.757149 
C 295.162807 164.757149 295.798749 164.493733 296.267566 164.024916 
C 296.736384 163.556099 296.9998 162.920157 296.9998 162.257149 
C 296.9998 161.594141 296.736384 160.958199 296.267566 160.489382 
C 295.798749 160.020565 295.162807 159.757149 294.4998 159.757149 
C 293.836792 159.757149 293.20085 160.020565 292.732033 160.489382 
C 292.263215 160.958199 291.9998 161.594141 291.9998 162.257149 
C 291.9998 162.920157 292.263215 163.556099 292.732033 164.024916 
C 293.20085 164.493733 293.836792 164.757149 294.4998 164.757149 
z
" clip-path="url(#p991c12285b)" style="fill: #4682b4; stroke: #4682b4"/>
    <path d="M 255.459257 197.452796 
C 256.122264 197.452796 256.758206 197.18938 257.227024 196.720563 
C 257.695841 196.251746 257.959257 195.615804 257.959257 194.952796 
C 257.959257 194.289788 257.695841 193.653847 257.227024 193.185029 
C 256.758206 192.716212 256.122264 192.452796 255.459257 192.452796 
C 254.796249 192.452796 254.160307 192.716212 253.69149 193.185029 
C 253.222672 193.653847 252.959257 194.289788 252.959257 194.952796 
C 252.959257 195.615804 253.222672 196.251746 253.69149 196.720563 
C 254.160307 197.18938 254.796249 197.452796 255.459257 197.452796 
z
" clip-path="url(#p991c12285b)" style="fill: #4682b4; stroke: #4682b4"/>
    <path d="M 268.242662 107.685058 
C 268.905669 107.685058 269.541611 107.421642 270.010429 106.952825 
C 270.479246 106.484007 270.742662 105.848065 270.742662 105.185058 
C 270.742662 104.52205 270.479246 103.886108 270.010429 103.417291 
C 269.541611 102.948473 268.905669 102.685058 268.242662 102.685058 
C 267.579654 102.685058 266.943712 102.948473 266.474895 103.417291 
C 266.006077 103.886108 265.742662 104.52205 265.742662 105.185058 
C 265.742662 105.848065 266.006077 106.484007 266.474895 106.952825 
C 266.943712 107.421642 267.579654 107.685058 268.242662 107.685058 
z
" clip-path="url(#p991c12285b)" style="fill: #4682b4; stroke: #4682b4"/>
    <path d="M 176.894727 168.25165 
C 177.557735 168.25165 178.193677 167.988234 178.662494 167.519417 
C 179.131311 167.0506 179.394727 166.414658 179.394727 165.75165 
C 179.394727 165.088642 179.131311 164.4527 178.662494 163.983883 
C 178.193677 163.515066 177.557735 163.25165 176.894727 163.25165 
C 176.231719 163.25165 175.595777 163.515066 175.12696 163.983883 
C 174.658143 164.4527 174.394727 165.088642 174.394727 165.75165 
C 174.394727 166.414658 174.658143 167.0506 175.12696 167.519417 
C 175.595777 167.988234 176.231719 168.25165 176.894727 168.25165 
z
" clip-path="url(#p991c12285b)" style="fill: #4682b4; stroke: #4682b4"/>
   </g>
   <g id="patch_31">
    <path d="M 116.286949 252 
L 116.286949 34.56 
" style="fill: none; stroke: #000000; stroke-width: 0.8; stroke-linejoin: miter; stroke-linecap: square"/>
   </g>
   <g id="patch_32">
    <path d="M 326.513051 252 
L 326.513051 34.56 
" style="fill: none; stroke: #000000; stroke-width: 0.8; stroke-linejoin: miter; stroke-linecap: square"/>
   </g>
   <g id="patch_33">
    <path d="M 116.286949 252 
L 326.513051 252 
" style="fill: none; stroke: #000000; stroke-width: 0.8; stroke-linejoin: miter; stroke-linecap: square"/>
   </g>
   <g id="patch_34">
    <path d="M 116.286949 34.56 
L 326.513051 34.56 
" style="fill: none; stroke: #000000; stroke-width: 0.8; stroke-linejoin: miter; stroke-linecap: square"/>
   </g>
   <g id="text_11">
    <!-- 0 -->
    <g transform="translate(316.957319 112.664338) scale(0.1 -0.1)">
     <use xlink:href="#DejaVuSans-30"/>
    </g>
   </g>
   <g id="text_12">
    <!-- 1 -->
    <g transform="translate(278.707668 242.116364) scale(0.1 -0.1)">
     <use xlink:href="#DejaVuSans-31"/>
    </g>
   </g>
   <g id="text_13">
    <!-- 2 -->
    <g transform="translate(142.930508 119.514939) scale(0.1 -0.1)">
     <use xlink:href="#DejaVuSans-32"/>
    </g>
   </g>
   <g id="text_14">
    <!-- 3 -->
    <g transform="translate(207.617661 56.564595) scale(0.1 -0.1)">
     <use xlink:href="#DejaVuSans-33"/>
    </g>
   </g>
   <g id="text_15">
    <!-- 4 -->
    <g transform="translate(263.395026 140.519929) scale(0.1 -0.1)">
     <defs>
      <path id="DejaVuSans-34" d="M 2419 4116 
L 825 1625 
L 2419 1625 
L 2419 4116 
z
M 2253 4666 
L 3047 4666 
L 3047 1625 
L 3713 1625 
L 3713 1100 
L 3047 1100 
L 3047 0 
L 2419 0 
L 2419 1100 
L 313 1100 
L 313 1709 
L 2253 4666 
z
" transform="scale(0.015625)"/>
     </defs>
     <use xlink:href="#DejaVuSans-34"/>
    </g>
   </g>
   <g id="text_16">
    <!-- 5 -->
    <g transform="translate(304.421442 68.503233) scale(0.1 -0.1)">
     <defs>
      <path id="DejaVuSans-35" d="M 691 4666 
L 3169 4666 
L 3169 4134 
L 1269 4134 
L 1269 2991 
Q 1406 3038 1543 3061 
Q 1681 3084 1819 3084 
Q 2600 3084 3056 2656 
Q 3513 2228 3513 1497 
Q 3513 744 3044 326 
Q 2575 -91 1722 -91 
Q 1428 -91 1123 -41 
Q 819 9 494 109 
L 494 744 
Q 775 591 1075 516 
Q 1375 441 1709 441 
Q 2250 441 2565 725 
Q 2881 1009 2881 1497 
Q 2881 1984 2565 2268 
Q 2250 2553 1709 2553 
Q 1456 2553 1204 2497 
Q 953 2441 691 2322 
L 691 4666 
z
" transform="scale(0.015625)"/>
     </defs>
     <use xlink:href="#DejaVuSans-35"/>
    </g>
   </g>
   <g id="text_17">
    <!-- 6 -->
    <g transform="translate(234.58945 147.885923) scale(0.1 -0.1)">
     <defs>
      <path id="DejaVuSans-36" d="M 2113 2584 
Q 1688 2584 1439 2293 
Q 1191 2003 1191 1497 
Q 1191 994 1439 701 
Q 1688 409 2113 409 
Q 2538 409 2786 701 
Q 3034 994 3034 1497 
Q 3034 2003 2786 2293 
Q 2538 2584 2113 2584 
z
M 3366 4563 
L 3366 3988 
Q 3128 4100 2886 4159 
Q 2644 4219 2406 4219 
Q 1781 4219 1451 3797 
Q 1122 3375 1075 2522 
Q 1259 2794 1537 2939 
Q 1816 3084 2150 3084 
Q 2853 3084 3261 2657 
Q 3669 2231 3669 1497 
Q 3669 778 3244 343 
Q 2819 -91 2113 -91 
Q 1303 -91 875 529 
Q 447 1150 447 2328 
Q 447 3434 972 4092 
Q 1497 4750 2381 4750 
Q 2619 4750 2861 4703 
Q 3103 4656 3366 4563 
z
" transform="scale(0.015625)"/>
     </defs>
     <use xlink:href="#DejaVuSans-36"/>
    </g>
   </g>
   <g id="text_18">
    <!-- 7 -->
    <g transform="translate(125.842681 181.22609) scale(0.1 -0.1)">
     <defs>
      <path id="DejaVuSans-37" d="M 525 4666 
L 3525 4666 
L 3525 4397 
L 1831 0 
L 1172 0 
L 2766 4134 
L 525 4134 
L 525 4666 
z
" transform="scale(0.015625)"/>
     </defs>
     <use xlink:href="#DejaVuSans-37"/>
    </g>
   </g>
   <g id="text_19">
    <!-- 8 -->
    <g transform="translate(222.497759 44.443636) scale(0.1 -0.1)">
     <defs>
      <path id="DejaVuSans-38" d="M 2034 2216 
Q 1584 2216 1326 1975 
Q 1069 1734 1069 1313 
Q 1069 891 1326 650 
Q 1584 409 2034 409 
Q 2484 409 2743 651 
Q 3003 894 3003 1313 
Q 3003 1734 2745 1975 
Q 2488 2216 2034 2216 
z
M 1403 2484 
Q 997 2584 770 2862 
Q 544 3141 544 3541 
Q 544 4100 942 4425 
Q 1341 4750 2034 4750 
Q 2731 4750 3128 4425 
Q 3525 4100 3525 3541 
Q 3525 3141 3298 2862 
Q 3072 2584 2669 2484 
Q 3125 2378 3379 2068 
Q 3634 1759 3634 1313 
Q 3634 634 3220 271 
Q 2806 -91 2034 -91 
Q 1263 -91 848 271 
Q 434 634 434 1313 
Q 434 1759 690 2068 
Q 947 2378 1403 2484 
z
M 1172 3481 
Q 1172 3119 1398 2916 
Q 1625 2713 2034 2713 
Q 2441 2713 2670 2916 
Q 2900 3119 2900 3481 
Q 2900 3844 2670 4047 
Q 2441 4250 2034 4250 
Q 1625 4250 1398 4047 
Q 1172 3844 1172 3481 
z
" transform="scale(0.015625)"/>
     </defs>
     <use xlink:href="#DejaVuSans-38"/>
    </g>
   </g>
   <g id="text_20">
    <!-- 9 -->
    <g transform="translate(217.43533 114.385952) scale(0.1 -0.1)">
     <defs>
      <path id="DejaVuSans-39" d="M 703 97 
L 703 672 
Q 941 559 1184 500 
Q 1428 441 1663 441 
Q 2288 441 2617 861 
Q 2947 1281 2994 2138 
Q 2813 1869 2534 1725 
Q 2256 1581 1919 1581 
Q 1219 1581 811 2004 
Q 403 2428 403 3163 
Q 403 3881 828 4315 
Q 1253 4750 1959 4750 
Q 2769 4750 3195 4129 
Q 3622 3509 3622 2328 
Q 3622 1225 3098 567 
Q 2575 -91 1691 -91 
Q 1453 -91 1209 -44 
Q 966 3 703 97 
z
M 1959 2075 
Q 2384 2075 2632 2365 
Q 2881 2656 2881 3163 
Q 2881 3666 2632 3958 
Q 2384 4250 1959 4250 
Q 1534 4250 1286 3958 
Q 1038 3666 1038 3163 
Q 1038 2656 1286 2365 
Q 1534 2075 1959 2075 
z
" transform="scale(0.015625)"/>
     </defs>
     <use xlink:href="#DejaVuSans-39"/>
    </g>
   </g>
   <g id="text_21">
    <!-- 10 -->
    <g transform="translate(278.975475 47.356738) scale(0.1 -0.1)">
     <use xlink:href="#DejaVuSans-31"/>
     <use xlink:href="#DejaVuSans-30" x="63.623047"/>
    </g>
   </g>
   <g id="text_22">
    <!-- 11 -->
    <g transform="translate(162.860101 218.030048) scale(0.1 -0.1)">
     <use xlink:href="#DejaVuSans-31"/>
     <use xlink:href="#DejaVuSans-31" x="63.623047"/>
    </g>
   </g>
   <g id="text_23">
    <!-- 12 -->
    <g transform="translate(256.436056 88.259057) scale(0.1 -0.1)">
     <use xlink:href="#DejaVuSans-31"/>
     <use xlink:href="#DejaVuSans-32" x="63.623047"/>
    </g>
   </g>
   <g id="text_24">
    <!-- 13 -->
    <g transform="translate(176.685925 81.164408) scale(0.1 -0.1)">
     <use xlink:href="#DejaVuSans-31"/>
     <use xlink:href="#DejaVuSans-33" x="63.623047"/>
    </g>
   </g>
   <g id="text_25">
    <!-- 14 -->
    <g transform="translate(294.4998 162.257149) scale(0.1 -0.1)">
     <use xlink:href="#DejaVuSans-31"/>
     <use xlink:href="#DejaVuSans-34" x="63.623047"/>
    </g>
   </g>
   <g id="text_26">
    <!-- 15 -->
    <g transform="translate(255.459257 194.952796) scale(0.1 -0.1)">
     <use xlink:href="#DejaVuSans-31"/>
     <use xlink:href="#DejaVuSans-35" x="63.623047"/>
    </g>
   </g>
   <g id="text_27">
    <!-- 16 -->
    <g transform="translate(268.242662 105.185058) scale(0.1 -0.1)">
     <use xlink:href="#DejaVuSans-31"/>
     <use xlink:href="#DejaVuSans-36" x="63.623047"/>
    </g>
   </g>
   <g id="text_28">
    <!-- 17 -->
    <g transform="translate(176.894727 165.75165) scale(0.1 -0.1)">
     <use xlink:href="#DejaVuSans-31"/>
     <use xlink:href="#DejaVuSans-37" x="63.623047"/>
    </g>
   </g>
   <g id="text_29">
    <!-- Kamada Kawai -->
    <g transform="translate(177.222188 28.56) scale(0.12 -0.12)">
     <defs>
      <path id="DejaVuSans-4b" d="M 628 4666 
L 1259 4666 
L 1259 2694 
L 3353 4666 
L 4166 4666 
L 1850 2491 
L 4331 0 
L 3500 0 
L 1259 2247 
L 1259 0 
L 628 0 
L 628 4666 
z
" transform="scale(0.015625)"/>
      <path id="DejaVuSans-61" d="M 2194 1759 
Q 1497 1759 1228 1600 
Q 959 1441 959 1056 
Q 959 750 1161 570 
Q 1363 391 1709 391 
Q 2188 391 2477 730 
Q 2766 1069 2766 1631 
L 2766 1759 
L 2194 1759 
z
M 3341 1997 
L 3341 0 
L 2766 0 
L 2766 531 
Q 2569 213 2275 61 
Q 1981 -91 1556 -91 
Q 1019 -91 701 211 
Q 384 513 384 1019 
Q 384 1609 779 1909 
Q 1175 2209 1959 2209 
L 2766 2209 
L 2766 2266 
Q 2766 2663 2505 2880 
Q 2244 3097 1772 3097 
Q 1472 3097 1187 3025 
Q 903 2953 641 2809 
L 641 3341 
Q 956 3463 1253 3523 
Q 1550 3584 1831 3584 
Q 2591 3584 2966 3190 
Q 3341 2797 3341 1997 
z
" transform="scale(0.015625)"/>
      <path id="DejaVuSans-6d" d="M 3328 2828 
Q 3544 3216 3844 3400 
Q 4144 3584 4550 3584 
Q 5097 3584 5394 3201 
Q 5691 2819 5691 2113 
L 5691 0 
L 5113 0 
L 5113 2094 
Q 5113 2597 4934 2840 
Q 4756 3084 4391 3084 
Q 3944 3084 3684 2787 
Q 3425 2491 3425 1978 
L 3425 0 
L 2847 0 
L 2847 2094 
Q 2847 2600 2669 2842 
Q 2491 3084 2119 3084 
Q 1678 3084 1418 2786 
Q 1159 2488 1159 1978 
L 1159 0 
L 581 0 
L 581 3500 
L 1159 3500 
L 1159 2956 
Q 1356 3278 1631 3431 
Q 1906 3584 2284 3584 
Q 2666 3584 2933 3390 
Q 3200 3197 3328 2828 
z
" transform="scale(0.015625)"/>
      <path id="DejaVuSans-64" d="M 2906 2969 
L 2906 4863 
L 3481 4863 
L 3481 0 
L 2906 0 
L 2906 525 
Q 2725 213 2448 61 
Q 2172 -91 1784 -91 
Q 1150 -91 751 415 
Q 353 922 353 1747 
Q 353 2572 751 3078 
Q 1150 3584 1784 3584 
Q 2172 3584 2448 3432 
Q 2725 3281 2906 2969 
z
M 947 1747 
Q 947 1113 1208 752 
Q 1469 391 1925 391 
Q 2381 391 2643 752 
Q 2906 1113 2906 1747 
Q 2906 2381 2643 2742 
Q 2381 3103 1925 3103 
Q 1469 3103 1208 2742 
Q 947 2381 947 1747 
z
" transform="scale(0.015625)"/>
      <path id="DejaVuSans-20" transform="scale(0.015625)"/>
      <path id="DejaVuSans-77" d="M 269 3500 
L 844 3500 
L 1563 769 
L 2278 3500 
L 2956 3500 
L 3675 769 
L 4391 3500 
L 4966 3500 
L 4050 0 
L 3372 0 
L 2619 2869 
L 1863 0 
L 1184 0 
L 269 3500 
z
" transform="scale(0.015625)"/>
      <path id="DejaVuSans-69" d="M 603 3500 
L 1178 3500 
L 1178 0 
L 603 0 
L 603 3500 
z
M 603 4863 
L 1178 4863 
L 1178 4134 
L 603 4134 
L 603 4863 
z
" transform="scale(0.015625)"/>
     </defs>
     <use xlink:href="#DejaVuSans-4b"/>
     <use xlink:href="#DejaVuSans-61" x="63.826172"/>
     <use xlink:href="#DejaVuSans-6d" x="125.105469"/>
     <use xlink:href="#DejaVuSans-61" x="222.517578"/>
     <use xlink:href="#DejaVuSans-64" x="283.796875"/>
     <use xlink:href="#DejaVuSans-61" x="347.273438"/>
     <use xlink:href="#DejaVuSans-20" x="408.552734"/>
     <use xlink:href="#DejaVuSans-4b" x="440.339844"/>
     <use xlink:href="#DejaVuSans-61" x="504.166016"/>
     <use xlink:href="#DejaVuSans-77" x="565.445312"/>
     <use xlink:href="#DejaVuSans-61" x="647.232422"/>
     <use xlink:href="#DejaVuSans-69" x="708.511719"/>
    </g>
   </g>
  </g>
 </g>
 <defs>
  <clipPath id="p991c12285b">
   <rect x="116.286949" y="34.56" width="210.226101" height="217.44"/>
  </clipPath>
 </defs>
</svg>
