<?xml version="1.0" encoding="utf-8" standalone="no"?>
<!DOCTYPE svg PUBLIC "-//W3C//DTD SVG 1.1//EN"
  "http://www.w3.org/Graphics/SVG/1.1/DTD/svg11.dtd">
<svg xmlns:xlink="http://www.w3.org/1999/xlink" width="432pt" height="288pt" viewBox="0 0 432 288" xmlns="http://www.w3.org/2000/svg" version="1.1">
 <metadata>
  <rdf:RDF xmlns:dc="http://purl.org/dc/elements/1.1/" xmlns:cc="http://creativecommons.org/ns#" xmlns:rdf="http://www.w3.org/1999/02/22-rdf-syntax-ns#">
   <cc:Work>
    <dc:type rdf:resource="http://purl.org/dc/dcmitype/StillImage"/>
    <dc:date>2023-03-28T21:45:59.637252</dc:date>
    <dc:format>image/svg+xml</dc:format>
    <dc:creator>
     <cc:Agent>
      <dc:title>Matplotlib v3.7.1, https://matplotlib.org/</dc:title>
     </cc:Agent>
    </dc:creator>
   </cc:Work>
  </rdf:RDF>
 </metadata>
 <defs>
  <style type="text/css">*{stroke-linejoin: round; stroke-linecap: butt}</style>
 </defs>
 <g id="figure_1">
  <g id="patch_1">
   <path d="M 0 288 
L 432 288 
L 432 0 
L 0 0 
z
" style="fill: #ffffff"/>
  </g>
  <g id="axes_1">
   <g id="patch_2">
    <path d="M 111.092481 252 
L 331.707519 252 
L 331.707519 34.56 
L 111.092481 34.56 
z
" style="fill: #ffffff"/>
   </g>
   <g id="patch_3">
    <path d="M 201.231452 146.507449 
L 228.10633 196.79674 
" clip-path="url(#p536d4cabf5)" style="fill: none; stroke: #000000; stroke-linecap: round"/>
   </g>
   <g id="patch_4">
    <path d="M 202.396807 143.52602 
L 250.204125 156.832398 
" clip-path="url(#p536d4cabf5)" style="fill: none; stroke: #000000; stroke-linecap: round"/>
   </g>
   <g id="patch_5">
    <path d="M 202.192001 140.681334 
L 253.62835 107.766436 
" clip-path="url(#p536d4cabf5)" style="fill: none; stroke: #000000; stroke-linecap: round"/>
   </g>
   <g id="patch_6">
    <path d="M 196.628461 145.831153 
L 160.690874 191.428936 
" clip-path="url(#p536d4cabf5)" style="fill: none; stroke: #000000; stroke-linecap: round"/>
   </g>
   <g id="patch_7">
    <path d="M 197.251958 138.543655 
L 173.491104 87.6275 
" clip-path="url(#p536d4cabf5)" style="fill: none; stroke: #000000; stroke-linecap: round"/>
   </g>
   <g id="patch_8">
    <path d="M 195.917832 141.70261 
L 141.325621 126.169019 
" clip-path="url(#p536d4cabf5)" style="fill: none; stroke: #000000; stroke-linecap: round"/>
   </g>
   <g id="patch_9">
    <path d="M 232.27389 196.817705 
L 251.352561 161.596839 
" clip-path="url(#p536d4cabf5)" style="fill: none; stroke: #000000; stroke-linecap: round"/>
   </g>
   <g id="patch_10">
    <path d="M 253.753528 152.756385 
L 256.355491 110.801738 
" clip-path="url(#p536d4cabf5)" style="fill: none; stroke: #000000; stroke-linecap: round"/>
   </g>
   <g id="patch_11">
    <path d="M 155.646145 197.862346 
L 123.637494 238.890075 
" clip-path="url(#p536d4cabf5)" style="fill: none; stroke: #000000; stroke-linecap: round"/>
   </g>
   <g id="patch_12">
    <path d="M 318.388148 110.028037 
L 259.955634 106.047931 
" clip-path="url(#p536d4cabf5)" style="fill: none; stroke: #000000; stroke-linecap: round"/>
   </g>
   <g id="patch_13">
    <path d="M 267.41993 49.247696 
L 257.577522 101.019678 
" clip-path="url(#p536d4cabf5)" style="fill: none; stroke: #000000; stroke-linecap: round"/>
   </g>
   <g id="matplotlib.axis_1">
    <g id="xtick_1">
     <g id="line2d_1">
      <defs>
       <path id="m5de9152564" d="M 0 0 
L 0 3.5 
" style="stroke: #000000; stroke-width: 0.8"/>
      </defs>
      <g>
       <use xlink:href="#m5de9152564" x="146.334911" y="252" style="stroke: #000000; stroke-width: 0.8"/>
      </g>
     </g>
     <g id="text_1">
      <!-- −1.0 -->
      <g transform="translate(134.193505 266.598437) scale(0.1 -0.1)">
       <defs>
        <path id="DejaVuSans-2212" d="M 678 2272 
L 4684 2272 
L 4684 1741 
L 678 1741 
L 678 2272 
z
" transform="scale(0.015625)"/>
        <path id="DejaVuSans-31" d="M 794 531 
L 1825 531 
L 1825 4091 
L 703 3866 
L 703 4441 
L 1819 4666 
L 2450 4666 
L 2450 531 
L 3481 531 
L 3481 0 
L 794 0 
L 794 531 
z
" transform="scale(0.015625)"/>
        <path id="DejaVuSans-2e" d="M 684 794 
L 1344 794 
L 1344 0 
L 684 0 
L 684 794 
z
" transform="scale(0.015625)"/>
        <path id="DejaVuSans-30" d="M 2034 4250 
Q 1547 4250 1301 3770 
Q 1056 3291 1056 2328 
Q 1056 1369 1301 889 
Q 1547 409 2034 409 
Q 2525 409 2770 889 
Q 3016 1369 3016 2328 
Q 3016 3291 2770 3770 
Q 2525 4250 2034 4250 
z
M 2034 4750 
Q 2819 4750 3233 4129 
Q 3647 3509 3647 2328 
Q 3647 1150 3233 529 
Q 2819 -91 2034 -91 
Q 1250 -91 836 529 
Q 422 1150 422 2328 
Q 422 3509 836 4129 
Q 1250 4750 2034 4750 
z
" transform="scale(0.015625)"/>
       </defs>
       <use xlink:href="#DejaVuSans-2212"/>
       <use xlink:href="#DejaVuSans-31" x="83.789062"/>
       <use xlink:href="#DejaVuSans-2e" x="147.412109"/>
       <use xlink:href="#DejaVuSans-30" x="179.199219"/>
      </g>
     </g>
    </g>
    <g id="xtick_2">
     <g id="line2d_2">
      <g>
       <use xlink:href="#m5de9152564" x="182.082777" y="252" style="stroke: #000000; stroke-width: 0.8"/>
      </g>
     </g>
     <g id="text_2">
      <!-- −0.5 -->
      <g transform="translate(169.941371 266.598437) scale(0.1 -0.1)">
       <defs>
        <path id="DejaVuSans-35" d="M 691 4666 
L 3169 4666 
L 3169 4134 
L 1269 4134 
L 1269 2991 
Q 1406 3038 1543 3061 
Q 1681 3084 1819 3084 
Q 2600 3084 3056 2656 
Q 3513 2228 3513 1497 
Q 3513 744 3044 326 
Q 2575 -91 1722 -91 
Q 1428 -91 1123 -41 
Q 819 9 494 109 
L 494 744 
Q 775 591 1075 516 
Q 1375 441 1709 441 
Q 2250 441 2565 725 
Q 2881 1009 2881 1497 
Q 2881 1984 2565 2268 
Q 2250 2553 1709 2553 
Q 1456 2553 1204 2497 
Q 953 2441 691 2322 
L 691 4666 
z
" transform="scale(0.015625)"/>
       </defs>
       <use xlink:href="#DejaVuSans-2212"/>
       <use xlink:href="#DejaVuSans-30" x="83.789062"/>
       <use xlink:href="#DejaVuSans-2e" x="147.412109"/>
       <use xlink:href="#DejaVuSans-35" x="179.199219"/>
      </g>
     </g>
    </g>
    <g id="xtick_3">
     <g id="line2d_3">
      <g>
       <use xlink:href="#m5de9152564" x="217.830643" y="252" style="stroke: #000000; stroke-width: 0.8"/>
      </g>
     </g>
     <g id="text_3">
      <!-- 0.0 -->
      <g transform="translate(209.879081 266.598437) scale(0.1 -0.1)">
       <use xlink:href="#DejaVuSans-30"/>
       <use xlink:href="#DejaVuSans-2e" x="63.623047"/>
       <use xlink:href="#DejaVuSans-30" x="95.410156"/>
      </g>
     </g>
    </g>
    <g id="xtick_4">
     <g id="line2d_4">
      <g>
       <use xlink:href="#m5de9152564" x="253.578509" y="252" style="stroke: #000000; stroke-width: 0.8"/>
      </g>
     </g>
     <g id="text_4">
      <!-- 0.5 -->
      <g transform="translate(245.626947 266.598437) scale(0.1 -0.1)">
       <use xlink:href="#DejaVuSans-30"/>
       <use xlink:href="#DejaVuSans-2e" x="63.623047"/>
       <use xlink:href="#DejaVuSans-35" x="95.410156"/>
      </g>
     </g>
    </g>
    <g id="xtick_5">
     <g id="line2d_5">
      <g>
       <use xlink:href="#m5de9152564" x="289.326375" y="252" style="stroke: #000000; stroke-width: 0.8"/>
      </g>
     </g>
     <g id="text_5">
      <!-- 1.0 -->
      <g transform="translate(281.374813 266.598437) scale(0.1 -0.1)">
       <use xlink:href="#DejaVuSans-31"/>
       <use xlink:href="#DejaVuSans-2e" x="63.623047"/>
       <use xlink:href="#DejaVuSans-30" x="95.410156"/>
      </g>
     </g>
    </g>
    <g id="xtick_6">
     <g id="line2d_6">
      <g>
       <use xlink:href="#m5de9152564" x="325.074241" y="252" style="stroke: #000000; stroke-width: 0.8"/>
      </g>
     </g>
     <g id="text_6">
      <!-- 1.5 -->
      <g transform="translate(317.122679 266.598437) scale(0.1 -0.1)">
       <use xlink:href="#DejaVuSans-31"/>
       <use xlink:href="#DejaVuSans-2e" x="63.623047"/>
       <use xlink:href="#DejaVuSans-35" x="95.410156"/>
      </g>
     </g>
    </g>
   </g>
   <g id="matplotlib.axis_2">
    <g id="ytick_1">
     <g id="line2d_7">
      <defs>
       <path id="mb16391b86c" d="M 0 0 
L -3.5 0 
" style="stroke: #000000; stroke-width: 0.8"/>
      </defs>
      <g>
       <use xlink:href="#mb16391b86c" x="111.092481" y="235.73656" style="stroke: #000000; stroke-width: 0.8"/>
      </g>
     </g>
     <g id="text_7">
      <!-- −1.5 -->
      <g transform="translate(79.809668 239.535778) scale(0.1 -0.1)">
       <use xlink:href="#DejaVuSans-2212"/>
       <use xlink:href="#DejaVuSans-31" x="83.789062"/>
       <use xlink:href="#DejaVuSans-2e" x="147.412109"/>
       <use xlink:href="#DejaVuSans-35" x="179.199219"/>
      </g>
     </g>
    </g>
    <g id="ytick_2">
     <g id="line2d_8">
      <g>
       <use xlink:href="#mb16391b86c" x="111.092481" y="199.988694" style="stroke: #000000; stroke-width: 0.8"/>
      </g>
     </g>
     <g id="text_8">
      <!-- −1.0 -->
      <g transform="translate(79.809668 203.787912) scale(0.1 -0.1)">
       <use xlink:href="#DejaVuSans-2212"/>
       <use xlink:href="#DejaVuSans-31" x="83.789062"/>
       <use xlink:href="#DejaVuSans-2e" x="147.412109"/>
       <use xlink:href="#DejaVuSans-30" x="179.199219"/>
      </g>
     </g>
    </g>
    <g id="ytick_3">
     <g id="line2d_9">
      <g>
       <use xlink:href="#mb16391b86c" x="111.092481" y="164.240828" style="stroke: #000000; stroke-width: 0.8"/>
      </g>
     </g>
     <g id="text_9">
      <!-- −0.5 -->
      <g transform="translate(79.809668 168.040046) scale(0.1 -0.1)">
       <use xlink:href="#DejaVuSans-2212"/>
       <use xlink:href="#DejaVuSans-30" x="83.789062"/>
       <use xlink:href="#DejaVuSans-2e" x="147.412109"/>
       <use xlink:href="#DejaVuSans-35" x="179.199219"/>
      </g>
     </g>
    </g>
    <g id="ytick_4">
     <g id="line2d_10">
      <g>
       <use xlink:href="#mb16391b86c" x="111.092481" y="128.492962" style="stroke: #000000; stroke-width: 0.8"/>
      </g>
     </g>
     <g id="text_10">
      <!-- 0.0 -->
      <g transform="translate(88.189356 132.29218) scale(0.1 -0.1)">
       <use xlink:href="#DejaVuSans-30"/>
       <use xlink:href="#DejaVuSans-2e" x="63.623047"/>
       <use xlink:href="#DejaVuSans-30" x="95.410156"/>
      </g>
     </g>
    </g>
    <g id="ytick_5">
     <g id="line2d_11">
      <g>
       <use xlink:href="#mb16391b86c" x="111.092481" y="92.745096" style="stroke: #000000; stroke-width: 0.8"/>
      </g>
     </g>
     <g id="text_11">
      <!-- 0.5 -->
      <g transform="translate(88.189356 96.544314) scale(0.1 -0.1)">
       <use xlink:href="#DejaVuSans-30"/>
       <use xlink:href="#DejaVuSans-2e" x="63.623047"/>
       <use xlink:href="#DejaVuSans-35" x="95.410156"/>
      </g>
     </g>
    </g>
    <g id="ytick_6">
     <g id="line2d_12">
      <g>
       <use xlink:href="#mb16391b86c" x="111.092481" y="56.997229" style="stroke: #000000; stroke-width: 0.8"/>
      </g>
     </g>
     <g id="text_12">
      <!-- 1.0 -->
      <g transform="translate(88.189356 60.796448) scale(0.1 -0.1)">
       <use xlink:href="#DejaVuSans-31"/>
       <use xlink:href="#DejaVuSans-2e" x="63.623047"/>
       <use xlink:href="#DejaVuSans-30" x="95.410156"/>
      </g>
     </g>
    </g>
   </g>
   <g id="PathCollection_1">
    <path d="M 199.156132 145.124032 
C 199.81914 145.124032 200.455082 144.860616 200.923899 144.391799 
C 201.392716 143.922981 201.656132 143.28704 201.656132 142.624032 
C 201.656132 141.961024 201.392716 141.325082 200.923899 140.856265 
C 200.455082 140.387448 199.81914 140.124032 199.156132 140.124032 
C 198.493124 140.124032 197.857183 140.387448 197.388365 140.856265 
C 196.919548 141.325082 196.656132 141.961024 196.656132 142.624032 
C 196.656132 143.28704 196.919548 143.922981 197.388365 144.391799 
C 197.857183 144.860616 198.493124 145.124032 199.156132 145.124032 
z
" clip-path="url(#p536d4cabf5)" style="fill: #4682b4; stroke: #4682b4"/>
    <path d="M 230.18165 203.180158 
C 230.844658 203.180158 231.4806 202.916742 231.949417 202.447925 
C 232.418235 201.979107 232.68165 201.343165 232.68165 200.680158 
C 232.68165 200.01715 232.418235 199.381208 231.949417 198.912391 
C 231.4806 198.443573 230.844658 198.180158 230.18165 198.180158 
C 229.518643 198.180158 228.882701 198.443573 228.413883 198.912391 
C 227.945066 199.381208 227.68165 200.01715 227.68165 200.680158 
C 227.68165 201.343165 227.945066 201.979107 228.413883 202.447925 
C 228.882701 202.916742 229.518643 203.180158 230.18165 203.180158 
z
" clip-path="url(#p536d4cabf5)" style="fill: #4682b4; stroke: #4682b4"/>
    <path d="M 253.4448 160.234386 
C 254.107808 160.234386 254.74375 159.97097 255.212567 159.502153 
C 255.681384 159.033336 255.9448 158.397394 255.9448 157.734386 
C 255.9448 157.071378 255.681384 156.435436 255.212567 155.966619 
C 254.74375 155.497802 254.107808 155.234386 253.4448 155.234386 
C 252.781792 155.234386 252.14585 155.497802 251.677033 155.966619 
C 251.208216 156.435436 250.9448 157.071378 250.9448 157.734386 
C 250.9448 158.397394 251.208216 159.033336 251.677033 159.502153 
C 252.14585 159.97097 252.781792 160.234386 253.4448 160.234386 
z
" clip-path="url(#p536d4cabf5)" style="fill: #4682b4; stroke: #4682b4"/>
    <path d="M 268.333234 46.943636 
C 268.996241 46.943636 269.632183 46.680221 270.101 46.211403 
C 270.569818 45.742586 270.833234 45.106644 270.833234 44.443636 
C 270.833234 43.780629 270.569818 43.144687 270.101 42.675869 
C 269.632183 42.207052 268.996241 41.943636 268.333234 41.943636 
C 267.670226 41.943636 267.034284 42.207052 266.565467 42.675869 
C 266.096649 43.144687 265.833234 43.780629 265.833234 44.443636 
C 265.833234 45.106644 266.096649 45.742586 266.565467 46.211403 
C 267.034284 46.680221 267.670226 46.943636 268.333234 46.943636 
z
" clip-path="url(#p536d4cabf5)" style="fill: #4682b4; stroke: #4682b4"/>
    <path d="M 158.163202 197.136057 
C 158.82621 197.136057 159.462152 196.872642 159.930969 196.403824 
C 160.399787 195.935007 160.663202 195.299065 160.663202 194.636057 
C 160.663202 193.97305 160.399787 193.337108 159.930969 192.86829 
C 159.462152 192.399473 158.82621 192.136057 158.163202 192.136057 
C 157.500195 192.136057 156.864253 192.399473 156.395436 192.86829 
C 155.926618 193.337108 155.663202 193.97305 155.663202 194.636057 
C 155.663202 195.299065 155.926618 195.935007 156.395436 196.403824 
C 156.864253 196.872642 157.500195 197.136057 158.163202 197.136057 
z
" clip-path="url(#p536d4cabf5)" style="fill: #4682b4; stroke: #4682b4"/>
    <path d="M 171.58693 86.047124 
C 172.249938 86.047124 172.88588 85.783708 173.354697 85.314891 
C 173.823515 84.846074 174.08693 84.210132 174.08693 83.547124 
C 174.08693 82.884116 173.823515 82.248174 173.354697 81.779357 
C 172.88588 81.31054 172.249938 81.047124 171.58693 81.047124 
C 170.923923 81.047124 170.287981 81.31054 169.819163 81.779357 
C 169.350346 82.248174 169.08693 82.884116 169.08693 83.547124 
C 169.08693 84.210132 169.350346 84.846074 169.819163 85.314891 
C 170.287981 85.783708 170.923923 86.047124 171.58693 86.047124 
z
" clip-path="url(#p536d4cabf5)" style="fill: #4682b4; stroke: #4682b4"/>
    <path d="M 138.087321 127.747597 
C 138.750329 127.747597 139.386271 127.484182 139.855088 127.015364 
C 140.323905 126.546547 140.587321 125.910605 140.587321 125.247597 
C 140.587321 124.58459 140.323905 123.948648 139.855088 123.47983 
C 139.386271 123.011013 138.750329 122.747597 138.087321 122.747597 
C 137.424313 122.747597 136.788371 123.011013 136.319554 123.47983 
C 135.850737 123.948648 135.587321 124.58459 135.587321 125.247597 
C 135.587321 125.910605 135.850737 126.546547 136.319554 127.015364 
C 136.788371 127.484182 137.424313 127.747597 138.087321 127.747597 
z
" clip-path="url(#p536d4cabf5)" style="fill: #4682b4; stroke: #4682b4"/>
    <path d="M 121.120437 244.616364 
C 121.783445 244.616364 122.419387 244.352948 122.888204 243.884131 
C 123.357021 243.415313 123.620437 242.779371 123.620437 242.116364 
C 123.620437 241.453356 123.357021 240.817414 122.888204 240.348597 
C 122.419387 239.879779 121.783445 239.616364 121.120437 239.616364 
C 120.457429 239.616364 119.821487 239.879779 119.35267 240.348597 
C 118.883853 240.817414 118.620437 241.453356 118.620437 242.116364 
C 118.620437 242.779371 118.883853 243.415313 119.35267 243.884131 
C 119.821487 244.352948 120.457429 244.616364 121.120437 244.616364 
z
" clip-path="url(#p536d4cabf5)" style="fill: #4682b4; stroke: #4682b4"/>
    <path d="M 321.679563 112.752231 
C 322.342571 112.752231 322.978513 112.488815 323.44733 112.019998 
C 323.916147 111.55118 324.179563 110.915238 324.179563 110.252231 
C 324.179563 109.589223 323.916147 108.953281 323.44733 108.484464 
C 322.978513 108.015646 322.342571 107.752231 321.679563 107.752231 
C 321.016555 107.752231 320.380613 108.015646 319.911796 108.484464 
C 319.442979 108.953281 319.179563 109.589223 319.179563 110.252231 
C 319.179563 110.915238 319.442979 111.55118 319.911796 112.019998 
C 320.380613 112.488815 321.016555 112.752231 321.679563 112.752231 
z
" clip-path="url(#p536d4cabf5)" style="fill: #4682b4; stroke: #4682b4"/>
    <path d="M 256.664219 108.323738 
C 257.327226 108.323738 257.963168 108.060322 258.431986 107.591505 
C 258.900803 107.122687 259.164219 106.486745 259.164219 105.823738 
C 259.164219 105.16073 258.900803 104.524788 258.431986 104.055971 
C 257.963168 103.587153 257.327226 103.323738 256.664219 103.323738 
C 256.001211 103.323738 255.365269 103.587153 254.896452 104.055971 
C 254.427634 104.524788 254.164219 105.16073 254.164219 105.823738 
C 254.164219 106.486745 254.427634 107.122687 254.896452 107.591505 
C 255.365269 108.060322 256.001211 108.323738 256.664219 108.323738 
z
" clip-path="url(#p536d4cabf5)" style="fill: #4682b4; stroke: #4682b4"/>
   </g>
   <g id="patch_14">
    <path d="M 111.092481 252 
L 111.092481 34.56 
" style="fill: none; stroke: #000000; stroke-width: 0.8; stroke-linejoin: miter; stroke-linecap: square"/>
   </g>
   <g id="patch_15">
    <path d="M 331.707519 252 
L 331.707519 34.56 
" style="fill: none; stroke: #000000; stroke-width: 0.8; stroke-linejoin: miter; stroke-linecap: square"/>
   </g>
   <g id="patch_16">
    <path d="M 111.092481 252 
L 331.707519 252 
" style="fill: none; stroke: #000000; stroke-width: 0.8; stroke-linejoin: miter; stroke-linecap: square"/>
   </g>
   <g id="patch_17">
    <path d="M 111.092481 34.56 
L 331.707519 34.56 
" style="fill: none; stroke: #000000; stroke-width: 0.8; stroke-linejoin: miter; stroke-linecap: square"/>
   </g>
   <g id="text_13">
    <!-- 0 -->
    <g transform="translate(199.156132 142.624032) scale(0.1 -0.1)">
     <use xlink:href="#DejaVuSans-30"/>
    </g>
   </g>
   <g id="text_14">
    <!-- 1 -->
    <g transform="translate(230.18165 200.680158) scale(0.1 -0.1)">
     <use xlink:href="#DejaVuSans-31"/>
    </g>
   </g>
   <g id="text_15">
    <!-- 2 -->
    <g transform="translate(253.4448 157.734386) scale(0.1 -0.1)">
     <defs>
      <path id="DejaVuSans-32" d="M 1228 531 
L 3431 531 
L 3431 0 
L 469 0 
L 469 531 
Q 828 903 1448 1529 
Q 2069 2156 2228 2338 
Q 2531 2678 2651 2914 
Q 2772 3150 2772 3378 
Q 2772 3750 2511 3984 
Q 2250 4219 1831 4219 
Q 1534 4219 1204 4116 
Q 875 4013 500 3803 
L 500 4441 
Q 881 4594 1212 4672 
Q 1544 4750 1819 4750 
Q 2544 4750 2975 4387 
Q 3406 4025 3406 3419 
Q 3406 3131 3298 2873 
Q 3191 2616 2906 2266 
Q 2828 2175 2409 1742 
Q 1991 1309 1228 531 
z
" transform="scale(0.015625)"/>
     </defs>
     <use xlink:href="#DejaVuSans-32"/>
    </g>
   </g>
   <g id="text_16">
    <!-- 3 -->
    <g transform="translate(268.333234 44.443636) scale(0.1 -0.1)">
     <defs>
      <path id="DejaVuSans-33" d="M 2597 2516 
Q 3050 2419 3304 2112 
Q 3559 1806 3559 1356 
Q 3559 666 3084 287 
Q 2609 -91 1734 -91 
Q 1441 -91 1130 -33 
Q 819 25 488 141 
L 488 750 
Q 750 597 1062 519 
Q 1375 441 1716 441 
Q 2309 441 2620 675 
Q 2931 909 2931 1356 
Q 2931 1769 2642 2001 
Q 2353 2234 1838 2234 
L 1294 2234 
L 1294 2753 
L 1863 2753 
Q 2328 2753 2575 2939 
Q 2822 3125 2822 3475 
Q 2822 3834 2567 4026 
Q 2313 4219 1838 4219 
Q 1578 4219 1281 4162 
Q 984 4106 628 3988 
L 628 4550 
Q 988 4650 1302 4700 
Q 1616 4750 1894 4750 
Q 2613 4750 3031 4423 
Q 3450 4097 3450 3541 
Q 3450 3153 3228 2886 
Q 3006 2619 2597 2516 
z
" transform="scale(0.015625)"/>
     </defs>
     <use xlink:href="#DejaVuSans-33"/>
    </g>
   </g>
   <g id="text_17">
    <!-- 4 -->
    <g transform="translate(158.163202 194.636057) scale(0.1 -0.1)">
     <defs>
      <path id="DejaVuSans-34" d="M 2419 4116 
L 825 1625 
L 2419 1625 
L 2419 4116 
z
M 2253 4666 
L 3047 4666 
L 3047 1625 
L 3713 1625 
L 3713 1100 
L 3047 1100 
L 3047 0 
L 2419 0 
L 2419 1100 
L 313 1100 
L 313 1709 
L 2253 4666 
z
" transform="scale(0.015625)"/>
     </defs>
     <use xlink:href="#DejaVuSans-34"/>
    </g>
   </g>
   <g id="text_18">
    <!-- 5 -->
    <g transform="translate(171.58693 83.547124) scale(0.1 -0.1)">
     <use xlink:href="#DejaVuSans-35"/>
    </g>
   </g>
   <g id="text_19">
    <!-- 6 -->
    <g transform="translate(138.087321 125.247597) scale(0.1 -0.1)">
     <defs>
      <path id="DejaVuSans-36" d="M 2113 2584 
Q 1688 2584 1439 2293 
Q 1191 2003 1191 1497 
Q 1191 994 1439 701 
Q 1688 409 2113 409 
Q 2538 409 2786 701 
Q 3034 994 3034 1497 
Q 3034 2003 2786 2293 
Q 2538 2584 2113 2584 
z
M 3366 4563 
L 3366 3988 
Q 3128 4100 2886 4159 
Q 2644 4219 2406 4219 
Q 1781 4219 1451 3797 
Q 1122 3375 1075 2522 
Q 1259 2794 1537 2939 
Q 1816 3084 2150 3084 
Q 2853 3084 3261 2657 
Q 3669 2231 3669 1497 
Q 3669 778 3244 343 
Q 2819 -91 2113 -91 
Q 1303 -91 875 529 
Q 447 1150 447 2328 
Q 447 3434 972 4092 
Q 1497 4750 2381 4750 
Q 2619 4750 2861 4703 
Q 3103 4656 3366 4563 
z
" transform="scale(0.015625)"/>
     </defs>
     <use xlink:href="#DejaVuSans-36"/>
    </g>
   </g>
   <g id="text_20">
    <!-- 7 -->
    <g transform="translate(121.120437 242.116364) scale(0.1 -0.1)">
     <defs>
      <path id="DejaVuSans-37" d="M 525 4666 
L 3525 4666 
L 3525 4397 
L 1831 0 
L 1172 0 
L 2766 4134 
L 525 4134 
L 525 4666 
z
" transform="scale(0.015625)"/>
     </defs>
     <use xlink:href="#DejaVuSans-37"/>
    </g>
   </g>
   <g id="text_21">
    <!-- 8 -->
    <g transform="translate(321.679563 110.252231) scale(0.1 -0.1)">
     <defs>
      <path id="DejaVuSans-38" d="M 2034 2216 
Q 1584 2216 1326 1975 
Q 1069 1734 1069 1313 
Q 1069 891 1326 650 
Q 1584 409 2034 409 
Q 2484 409 2743 651 
Q 3003 894 3003 1313 
Q 3003 1734 2745 1975 
Q 2488 2216 2034 2216 
z
M 1403 2484 
Q 997 2584 770 2862 
Q 544 3141 544 3541 
Q 544 4100 942 4425 
Q 1341 4750 2034 4750 
Q 2731 4750 3128 4425 
Q 3525 4100 3525 3541 
Q 3525 3141 3298 2862 
Q 3072 2584 2669 2484 
Q 3125 2378 3379 2068 
Q 3634 1759 3634 1313 
Q 3634 634 3220 271 
Q 2806 -91 2034 -91 
Q 1263 -91 848 271 
Q 434 634 434 1313 
Q 434 1759 690 2068 
Q 947 2378 1403 2484 
z
M 1172 3481 
Q 1172 3119 1398 2916 
Q 1625 2713 2034 2713 
Q 2441 2713 2670 2916 
Q 2900 3119 2900 3481 
Q 2900 3844 2670 4047 
Q 2441 4250 2034 4250 
Q 1625 4250 1398 4047 
Q 1172 3844 1172 3481 
z
" transform="scale(0.015625)"/>
     </defs>
     <use xlink:href="#DejaVuSans-38"/>
    </g>
   </g>
   <g id="text_22">
    <!-- 9 -->
    <g transform="translate(256.664219 105.823738) scale(0.1 -0.1)">
     <defs>
      <path id="DejaVuSans-39" d="M 703 97 
L 703 672 
Q 941 559 1184 500 
Q 1428 441 1663 441 
Q 2288 441 2617 861 
Q 2947 1281 2994 2138 
Q 2813 1869 2534 1725 
Q 2256 1581 1919 1581 
Q 1219 1581 811 2004 
Q 403 2428 403 3163 
Q 403 3881 828 4315 
Q 1253 4750 1959 4750 
Q 2769 4750 3195 4129 
Q 3622 3509 3622 2328 
Q 3622 1225 3098 567 
Q 2575 -91 1691 -91 
Q 1453 -91 1209 -44 
Q 966 3 703 97 
z
M 1959 2075 
Q 2384 2075 2632 2365 
Q 2881 2656 2881 3163 
Q 2881 3666 2632 3958 
Q 2384 4250 1959 4250 
Q 1534 4250 1286 3958 
Q 1038 3666 1038 3163 
Q 1038 2656 1286 2365 
Q 1534 2075 1959 2075 
z
" transform="scale(0.015625)"/>
     </defs>
     <use xlink:href="#DejaVuSans-39"/>
    </g>
   </g>
   <g id="text_23">
    <!-- Kamada Kawai -->
    <g transform="translate(177.222188 28.56) scale(0.12 -0.12)">
     <defs>
      <path id="DejaVuSans-4b" d="M 628 4666 
L 1259 4666 
L 1259 2694 
L 3353 4666 
L 4166 4666 
L 1850 2491 
L 4331 0 
L 3500 0 
L 1259 2247 
L 1259 0 
L 628 0 
L 628 4666 
z
" transform="scale(0.015625)"/>
      <path id="DejaVuSans-61" d="M 2194 1759 
Q 1497 1759 1228 1600 
Q 959 1441 959 1056 
Q 959 750 1161 570 
Q 1363 391 1709 391 
Q 2188 391 2477 730 
Q 2766 1069 2766 1631 
L 2766 1759 
L 2194 1759 
z
M 3341 1997 
L 3341 0 
L 2766 0 
L 2766 531 
Q 2569 213 2275 61 
Q 1981 -91 1556 -91 
Q 1019 -91 701 211 
Q 384 513 384 1019 
Q 384 1609 779 1909 
Q 1175 2209 1959 2209 
L 2766 2209 
L 2766 2266 
Q 2766 2663 2505 2880 
Q 2244 3097 1772 3097 
Q 1472 3097 1187 3025 
Q 903 2953 641 2809 
L 641 3341 
Q 956 3463 1253 3523 
Q 1550 3584 1831 3584 
Q 2591 3584 2966 3190 
Q 3341 2797 3341 1997 
z
" transform="scale(0.015625)"/>
      <path id="DejaVuSans-6d" d="M 3328 2828 
Q 3544 3216 3844 3400 
Q 4144 3584 4550 3584 
Q 5097 3584 5394 3201 
Q 5691 2819 5691 2113 
L 5691 0 
L 5113 0 
L 5113 2094 
Q 5113 2597 4934 2840 
Q 4756 3084 4391 3084 
Q 3944 3084 3684 2787 
Q 3425 2491 3425 1978 
L 3425 0 
L 2847 0 
L 2847 2094 
Q 2847 2600 2669 2842 
Q 2491 3084 2119 3084 
Q 1678 3084 1418 2786 
Q 1159 2488 1159 1978 
L 1159 0 
L 581 0 
L 581 3500 
L 1159 3500 
L 1159 2956 
Q 1356 3278 1631 3431 
Q 1906 3584 2284 3584 
Q 2666 3584 2933 3390 
Q 3200 3197 3328 2828 
z
" transform="scale(0.015625)"/>
      <path id="DejaVuSans-64" d="M 2906 2969 
L 2906 4863 
L 3481 4863 
L 3481 0 
L 2906 0 
L 2906 525 
Q 2725 213 2448 61 
Q 2172 -91 1784 -91 
Q 1150 -91 751 415 
Q 353 922 353 1747 
Q 353 2572 751 3078 
Q 1150 3584 1784 3584 
Q 2172 3584 2448 3432 
Q 2725 3281 2906 2969 
z
M 947 1747 
Q 947 1113 1208 752 
Q 1469 391 1925 391 
Q 2381 391 2643 752 
Q 2906 1113 2906 1747 
Q 2906 2381 2643 2742 
Q 2381 3103 1925 3103 
Q 1469 3103 1208 2742 
Q 947 2381 947 1747 
z
" transform="scale(0.015625)"/>
      <path id="DejaVuSans-20" transform="scale(0.015625)"/>
      <path id="DejaVuSans-77" d="M 269 3500 
L 844 3500 
L 1563 769 
L 2278 3500 
L 2956 3500 
L 3675 769 
L 4391 3500 
L 4966 3500 
L 4050 0 
L 3372 0 
L 2619 2869 
L 1863 0 
L 1184 0 
L 269 3500 
z
" transform="scale(0.015625)"/>
      <path id="DejaVuSans-69" d="M 603 3500 
L 1178 3500 
L 1178 0 
L 603 0 
L 603 3500 
z
M 603 4863 
L 1178 4863 
L 1178 4134 
L 603 4134 
L 603 4863 
z
" transform="scale(0.015625)"/>
     </defs>
     <use xlink:href="#DejaVuSans-4b"/>
     <use xlink:href="#DejaVuSans-61" x="63.826172"/>
     <use xlink:href="#DejaVuSans-6d" x="125.105469"/>
     <use xlink:href="#DejaVuSans-61" x="222.517578"/>
     <use xlink:href="#DejaVuSans-64" x="283.796875"/>
     <use xlink:href="#DejaVuSans-61" x="347.273438"/>
     <use xlink:href="#DejaVuSans-20" x="408.552734"/>
     <use xlink:href="#DejaVuSans-4b" x="440.339844"/>
     <use xlink:href="#DejaVuSans-61" x="504.166016"/>
     <use xlink:href="#DejaVuSans-77" x="565.445312"/>
     <use xlink:href="#DejaVuSans-61" x="647.232422"/>
     <use xlink:href="#DejaVuSans-69" x="708.511719"/>
    </g>
   </g>
  </g>
 </g>
 <defs>
  <clipPath id="p536d4cabf5">
   <rect x="111.092481" y="34.56" width="220.615039" height="217.44"/>
  </clipPath>
 </defs>
</svg>
