<?xml version="1.0" encoding="utf-8" standalone="no"?>
<!DOCTYPE svg PUBLIC "-//W3C//DTD SVG 1.1//EN"
  "http://www.w3.org/Graphics/SVG/1.1/DTD/svg11.dtd">
<svg xmlns:xlink="http://www.w3.org/1999/xlink" width="432pt" height="288pt" viewBox="0 0 432 288" xmlns="http://www.w3.org/2000/svg" version="1.1">
 <metadata>
  <rdf:RDF xmlns:dc="http://purl.org/dc/elements/1.1/" xmlns:cc="http://creativecommons.org/ns#" xmlns:rdf="http://www.w3.org/1999/02/22-rdf-syntax-ns#">
   <cc:Work>
    <dc:type rdf:resource="http://purl.org/dc/dcmitype/StillImage"/>
    <dc:date>2023-03-28T22:05:15.619441</dc:date>
    <dc:format>image/svg+xml</dc:format>
    <dc:creator>
     <cc:Agent>
      <dc:title>Matplotlib v3.7.1, https://matplotlib.org/</dc:title>
     </cc:Agent>
    </dc:creator>
   </cc:Work>
  </rdf:RDF>
 </metadata>
 <defs>
  <style type="text/css">*{stroke-linejoin: round; stroke-linecap: butt}</style>
 </defs>
 <g id="figure_1">
  <g id="patch_1">
   <path d="M 0 288 
L 432 288 
L 432 0 
L 0 0 
z
" style="fill: #ffffff"/>
  </g>
  <g id="axes_1">
   <g id="patch_2">
    <path d="M 122.66361 252 
L 320.13639 252 
L 320.13639 34.56 
L 122.66361 34.56 
z
" style="fill: #ffffff"/>
   </g>
   <g id="patch_3">
    <path d="M 220.327279 58.464452 
L 258.795411 81.745174 
" clip-path="url(#p4b10b5aaf1)" style="fill: none; stroke: #000000; stroke-linecap: round"/>
   </g>
   <g id="patch_4">
    <path d="M 289.440313 178.82331 
L 298.040847 141.864092 
" clip-path="url(#p4b10b5aaf1)" style="fill: none; stroke: #000000; stroke-linecap: round"/>
   </g>
   <g id="patch_5">
    <path d="M 218.058226 100.466809 
L 202.174979 90.055096 
" clip-path="url(#p4b10b5aaf1)" style="fill: none; stroke: #000000; stroke-linecap: round"/>
   </g>
   <g id="patch_6">
    <path d="M 218.00626 103.826094 
L 181.567595 124.058772 
" clip-path="url(#p4b10b5aaf1)" style="fill: none; stroke: #000000; stroke-linecap: round"/>
   </g>
   <g id="patch_7">
    <path d="M 297.512185 106.441102 
L 264.331752 85.192827 
" clip-path="url(#p4b10b5aaf1)" style="fill: none; stroke: #000000; stroke-linecap: round"/>
   </g>
   <g id="patch_8">
    <path d="M 223.469921 100.114489 
L 241.712027 85.338353 
" clip-path="url(#p4b10b5aaf1)" style="fill: none; stroke: #000000; stroke-linecap: round"/>
   </g>
   <g id="patch_9">
    <path d="M 223.654154 100.954654 
L 258.727627 84.74135 
" clip-path="url(#p4b10b5aaf1)" style="fill: none; stroke: #000000; stroke-linecap: round"/>
   </g>
   <g id="patch_10">
    <path d="M 273.129712 54.725013 
L 246.920028 80.662402 
" clip-path="url(#p4b10b5aaf1)" style="fill: none; stroke: #000000; stroke-linecap: round"/>
   </g>
   <g id="patch_11">
    <path d="M 229.422765 123.05603 
L 242.790926 87.402512 
" clip-path="url(#p4b10b5aaf1)" style="fill: none; stroke: #000000; stroke-linecap: round"/>
   </g>
   <g id="patch_12">
    <path d="M 230.181012 124.233306 
L 259.232512 86.468397 
" clip-path="url(#p4b10b5aaf1)" style="fill: none; stroke: #000000; stroke-linecap: round"/>
   </g>
   <g id="patch_13">
    <path d="M 229.034224 131.847812 
L 244.767611 192.117035 
" clip-path="url(#p4b10b5aaf1)" style="fill: none; stroke: #000000; stroke-linecap: round"/>
   </g>
   <g id="patch_14">
    <path d="M 225.548986 124.128526 
L 201.715962 91.399079 
" clip-path="url(#p4b10b5aaf1)" style="fill: none; stroke: #000000; stroke-linecap: round"/>
   </g>
   <g id="patch_15">
    <path d="M 224.892117 127.175844 
L 181.713482 125.714722 
" clip-path="url(#p4b10b5aaf1)" style="fill: none; stroke: #000000; stroke-linecap: round"/>
   </g>
   <g id="patch_16">
    <path d="M 227.287968 234.740345 
L 244.074979 200.532829 
" clip-path="url(#p4b10b5aaf1)" style="fill: none; stroke: #000000; stroke-linecap: round"/>
   </g>
   <g id="patch_17">
    <path d="M 308.236455 93.838691 
L 264.496779 84.078529 
" clip-path="url(#p4b10b5aaf1)" style="fill: none; stroke: #000000; stroke-linecap: round"/>
   </g>
   <g id="patch_18">
    <path d="M 230.754303 126.502603 
L 253.198453 120.547997 
" clip-path="url(#p4b10b5aaf1)" style="fill: none; stroke: #000000; stroke-linecap: round"/>
   </g>
   <g id="patch_19">
    <path d="M 309.889163 99.002796 
L 300.394366 132.701329 
" clip-path="url(#p4b10b5aaf1)" style="fill: none; stroke: #000000; stroke-linecap: round"/>
   </g>
   <g id="patch_20">
    <path d="M 223.639446 103.673442 
L 253.281566 118.371459 
" clip-path="url(#p4b10b5aaf1)" style="fill: none; stroke: #000000; stroke-linecap: round"/>
   </g>
   <g id="patch_21">
    <path d="M 258.980357 120.937856 
L 296.254928 136.050113 
" clip-path="url(#p4b10b5aaf1)" style="fill: none; stroke: #000000; stroke-linecap: round"/>
   </g>
   <g id="patch_22">
    <path d="M 254.703011 115.382649 
L 245.782146 87.575255 
" clip-path="url(#p4b10b5aaf1)" style="fill: none; stroke: #000000; stroke-linecap: round"/>
   </g>
   <g id="patch_23">
    <path d="M 253.342098 49.075973 
L 260.462905 78.793748 
" clip-path="url(#p4b10b5aaf1)" style="fill: none; stroke: #000000; stroke-linecap: round"/>
   </g>
   <g id="patch_24">
    <path d="M 258.299251 237.663135 
L 247.302146 201.142457 
" clip-path="url(#p4b10b5aaf1)" style="fill: none; stroke: #000000; stroke-linecap: round"/>
   </g>
   <g id="patch_25">
    <path d="M 273.883522 56.174034 
L 263.366051 79.456542 
" clip-path="url(#p4b10b5aaf1)" style="fill: none; stroke: #000000; stroke-linecap: round"/>
   </g>
   <g id="patch_26">
    <path d="M 300.073626 113.196628 
L 299.320606 132.224206 
" clip-path="url(#p4b10b5aaf1)" style="fill: none; stroke: #000000; stroke-linecap: round"/>
   </g>
   <g id="patch_27">
    <path d="M 215.48936 60.360775 
L 201.484754 84.674753 
" clip-path="url(#p4b10b5aaf1)" style="fill: none; stroke: #000000; stroke-linecap: round"/>
   </g>
   <g id="patch_28">
    <path d="M 134.576082 132.584635 
L 175.828517 126.078096 
" clip-path="url(#p4b10b5aaf1)" style="fill: none; stroke: #000000; stroke-linecap: round"/>
   </g>
   <g id="patch_29">
    <path d="M 251.272921 49.171775 
L 245.332248 78.454784 
" clip-path="url(#p4b10b5aaf1)" style="fill: none; stroke: #000000; stroke-linecap: round"/>
   </g>
   <g id="patch_30">
    <path d="M 285.457479 184.378483 
L 248.861696 195.785159 
" clip-path="url(#p4b10b5aaf1)" style="fill: none; stroke: #000000; stroke-linecap: round"/>
   </g>
   <g id="matplotlib.axis_1">
    <g id="xtick_1">
     <g id="line2d_1">
      <defs>
       <path id="maba40f4fad" d="M 0 0 
L 0 3.5 
" style="stroke: #000000; stroke-width: 0.8"/>
      </defs>
      <g>
       <use xlink:href="#maba40f4fad" x="148.428761" y="252" style="stroke: #000000; stroke-width: 0.8"/>
      </g>
     </g>
     <g id="text_1">
      <!-- −4 -->
      <g transform="translate(141.057667 266.598437) scale(0.1 -0.1)">
       <defs>
        <path id="DejaVuSans-2212" d="M 678 2272 
L 4684 2272 
L 4684 1741 
L 678 1741 
L 678 2272 
z
" transform="scale(0.015625)"/>
        <path id="DejaVuSans-34" d="M 2419 4116 
L 825 1625 
L 2419 1625 
L 2419 4116 
z
M 2253 4666 
L 3047 4666 
L 3047 1625 
L 3713 1625 
L 3713 1100 
L 3047 1100 
L 3047 0 
L 2419 0 
L 2419 1100 
L 313 1100 
L 313 1709 
L 2253 4666 
z
" transform="scale(0.015625)"/>
       </defs>
       <use xlink:href="#DejaVuSans-2212"/>
       <use xlink:href="#DejaVuSans-34" x="83.789062"/>
      </g>
     </g>
    </g>
    <g id="xtick_2">
     <g id="line2d_2">
      <g>
       <use xlink:href="#maba40f4fad" x="200.186236" y="252" style="stroke: #000000; stroke-width: 0.8"/>
      </g>
     </g>
     <g id="text_2">
      <!-- −2 -->
      <g transform="translate(192.815142 266.598437) scale(0.1 -0.1)">
       <defs>
        <path id="DejaVuSans-32" d="M 1228 531 
L 3431 531 
L 3431 0 
L 469 0 
L 469 531 
Q 828 903 1448 1529 
Q 2069 2156 2228 2338 
Q 2531 2678 2651 2914 
Q 2772 3150 2772 3378 
Q 2772 3750 2511 3984 
Q 2250 4219 1831 4219 
Q 1534 4219 1204 4116 
Q 875 4013 500 3803 
L 500 4441 
Q 881 4594 1212 4672 
Q 1544 4750 1819 4750 
Q 2544 4750 2975 4387 
Q 3406 4025 3406 3419 
Q 3406 3131 3298 2873 
Q 3191 2616 2906 2266 
Q 2828 2175 2409 1742 
Q 1991 1309 1228 531 
z
" transform="scale(0.015625)"/>
       </defs>
       <use xlink:href="#DejaVuSans-2212"/>
       <use xlink:href="#DejaVuSans-32" x="83.789062"/>
      </g>
     </g>
    </g>
    <g id="xtick_3">
     <g id="line2d_3">
      <g>
       <use xlink:href="#maba40f4fad" x="251.94371" y="252" style="stroke: #000000; stroke-width: 0.8"/>
      </g>
     </g>
     <g id="text_3">
      <!-- 0 -->
      <g transform="translate(248.76246 266.598437) scale(0.1 -0.1)">
       <defs>
        <path id="DejaVuSans-30" d="M 2034 4250 
Q 1547 4250 1301 3770 
Q 1056 3291 1056 2328 
Q 1056 1369 1301 889 
Q 1547 409 2034 409 
Q 2525 409 2770 889 
Q 3016 1369 3016 2328 
Q 3016 3291 2770 3770 
Q 2525 4250 2034 4250 
z
M 2034 4750 
Q 2819 4750 3233 4129 
Q 3647 3509 3647 2328 
Q 3647 1150 3233 529 
Q 2819 -91 2034 -91 
Q 1250 -91 836 529 
Q 422 1150 422 2328 
Q 422 3509 836 4129 
Q 1250 4750 2034 4750 
z
" transform="scale(0.015625)"/>
       </defs>
       <use xlink:href="#DejaVuSans-30"/>
      </g>
     </g>
    </g>
    <g id="xtick_4">
     <g id="line2d_4">
      <g>
       <use xlink:href="#maba40f4fad" x="303.701185" y="252" style="stroke: #000000; stroke-width: 0.8"/>
      </g>
     </g>
     <g id="text_4">
      <!-- 2 -->
      <g transform="translate(300.519935 266.598437) scale(0.1 -0.1)">
       <use xlink:href="#DejaVuSans-32"/>
      </g>
     </g>
    </g>
   </g>
   <g id="matplotlib.axis_2">
    <g id="ytick_1">
     <g id="line2d_5">
      <defs>
       <path id="m0a5248a464" d="M 0 0 
L -3.5 0 
" style="stroke: #000000; stroke-width: 0.8"/>
      </defs>
      <g>
       <use xlink:href="#m0a5248a464" x="122.66361" y="226.559464" style="stroke: #000000; stroke-width: 0.8"/>
      </g>
     </g>
     <g id="text_5">
      <!-- −4 -->
      <g transform="translate(100.921422 230.358683) scale(0.1 -0.1)">
       <use xlink:href="#DejaVuSans-2212"/>
       <use xlink:href="#DejaVuSans-34" x="83.789062"/>
      </g>
     </g>
    </g>
    <g id="ytick_2">
     <g id="line2d_6">
      <g>
       <use xlink:href="#m0a5248a464" x="122.66361" y="200.680727" style="stroke: #000000; stroke-width: 0.8"/>
      </g>
     </g>
     <g id="text_6">
      <!-- −3 -->
      <g transform="translate(100.921422 204.479945) scale(0.1 -0.1)">
       <defs>
        <path id="DejaVuSans-33" d="M 2597 2516 
Q 3050 2419 3304 2112 
Q 3559 1806 3559 1356 
Q 3559 666 3084 287 
Q 2609 -91 1734 -91 
Q 1441 -91 1130 -33 
Q 819 25 488 141 
L 488 750 
Q 750 597 1062 519 
Q 1375 441 1716 441 
Q 2309 441 2620 675 
Q 2931 909 2931 1356 
Q 2931 1769 2642 2001 
Q 2353 2234 1838 2234 
L 1294 2234 
L 1294 2753 
L 1863 2753 
Q 2328 2753 2575 2939 
Q 2822 3125 2822 3475 
Q 2822 3834 2567 4026 
Q 2313 4219 1838 4219 
Q 1578 4219 1281 4162 
Q 984 4106 628 3988 
L 628 4550 
Q 988 4650 1302 4700 
Q 1616 4750 1894 4750 
Q 2613 4750 3031 4423 
Q 3450 4097 3450 3541 
Q 3450 3153 3228 2886 
Q 3006 2619 2597 2516 
z
" transform="scale(0.015625)"/>
       </defs>
       <use xlink:href="#DejaVuSans-2212"/>
       <use xlink:href="#DejaVuSans-33" x="83.789062"/>
      </g>
     </g>
    </g>
    <g id="ytick_3">
     <g id="line2d_7">
      <g>
       <use xlink:href="#m0a5248a464" x="122.66361" y="174.801989" style="stroke: #000000; stroke-width: 0.8"/>
      </g>
     </g>
     <g id="text_7">
      <!-- −2 -->
      <g transform="translate(100.921422 178.601208) scale(0.1 -0.1)">
       <use xlink:href="#DejaVuSans-2212"/>
       <use xlink:href="#DejaVuSans-32" x="83.789062"/>
      </g>
     </g>
    </g>
    <g id="ytick_4">
     <g id="line2d_8">
      <g>
       <use xlink:href="#m0a5248a464" x="122.66361" y="148.923252" style="stroke: #000000; stroke-width: 0.8"/>
      </g>
     </g>
     <g id="text_8">
      <!-- −1 -->
      <g transform="translate(100.921422 152.722471) scale(0.1 -0.1)">
       <defs>
        <path id="DejaVuSans-31" d="M 794 531 
L 1825 531 
L 1825 4091 
L 703 3866 
L 703 4441 
L 1819 4666 
L 2450 4666 
L 2450 531 
L 3481 531 
L 3481 0 
L 794 0 
L 794 531 
z
" transform="scale(0.015625)"/>
       </defs>
       <use xlink:href="#DejaVuSans-2212"/>
       <use xlink:href="#DejaVuSans-31" x="83.789062"/>
      </g>
     </g>
    </g>
    <g id="ytick_5">
     <g id="line2d_9">
      <g>
       <use xlink:href="#m0a5248a464" x="122.66361" y="123.044515" style="stroke: #000000; stroke-width: 0.8"/>
      </g>
     </g>
     <g id="text_9">
      <!-- 0 -->
      <g transform="translate(109.30111 126.843733) scale(0.1 -0.1)">
       <use xlink:href="#DejaVuSans-30"/>
      </g>
     </g>
    </g>
    <g id="ytick_6">
     <g id="line2d_10">
      <g>
       <use xlink:href="#m0a5248a464" x="122.66361" y="97.165777" style="stroke: #000000; stroke-width: 0.8"/>
      </g>
     </g>
     <g id="text_10">
      <!-- 1 -->
      <g transform="translate(109.30111 100.964996) scale(0.1 -0.1)">
       <use xlink:href="#DejaVuSans-31"/>
      </g>
     </g>
    </g>
    <g id="ytick_7">
     <g id="line2d_11">
      <g>
       <use xlink:href="#m0a5248a464" x="122.66361" y="71.28704" style="stroke: #000000; stroke-width: 0.8"/>
      </g>
     </g>
     <g id="text_11">
      <!-- 2 -->
      <g transform="translate(109.30111 75.086259) scale(0.1 -0.1)">
       <use xlink:href="#DejaVuSans-32"/>
      </g>
     </g>
    </g>
    <g id="ytick_8">
     <g id="line2d_12">
      <g>
       <use xlink:href="#m0a5248a464" x="122.66361" y="45.408303" style="stroke: #000000; stroke-width: 0.8"/>
      </g>
     </g>
     <g id="text_12">
      <!-- 3 -->
      <g transform="translate(109.30111 49.207521) scale(0.1 -0.1)">
       <use xlink:href="#DejaVuSans-33"/>
      </g>
     </g>
    </g>
   </g>
   <g id="PathCollection_1">
    <path d="M 217.549811 59.283541 
C 218.212818 59.283541 218.84876 59.020126 219.317578 58.551308 
C 219.786395 58.082491 220.049811 57.446549 220.049811 56.783541 
C 220.049811 56.120534 219.786395 55.484592 219.317578 55.015775 
C 218.84876 54.546957 218.212818 54.283541 217.549811 54.283541 
C 216.886803 54.283541 216.250861 54.546957 215.782044 55.015775 
C 215.313226 55.484592 215.049811 56.120534 215.049811 56.783541 
C 215.049811 57.446549 215.313226 58.082491 215.782044 58.551308 
C 216.250861 59.020126 216.886803 59.283541 217.549811 59.283541 
z
" clip-path="url(#p4b10b5aaf1)" style="fill: #4682b4; stroke: #4682b4"/>
    <path d="M 131.639645 135.547784 
C 132.302653 135.547784 132.938595 135.284369 133.407412 134.815551 
C 133.87623 134.346734 134.139645 133.710792 134.139645 133.047784 
C 134.139645 132.384777 133.87623 131.748835 133.407412 131.280017 
C 132.938595 130.8112 132.302653 130.547784 131.639645 130.547784 
C 130.976638 130.547784 130.340696 130.8112 129.871878 131.280017 
C 129.403061 131.748835 129.139645 132.384777 129.139645 133.047784 
C 129.139645 133.710792 129.403061 134.346734 129.871878 134.815551 
C 130.340696 135.284369 130.976638 135.547784 131.639645 135.547784 
z
" clip-path="url(#p4b10b5aaf1)" style="fill: #4682b4; stroke: #4682b4"/>
    <path d="M 288.357986 185.974414 
C 289.020993 185.974414 289.656935 185.710998 290.125753 185.242181 
C 290.59457 184.773363 290.857986 184.137421 290.857986 183.474414 
C 290.857986 182.811406 290.59457 182.175464 290.125753 181.706647 
C 289.656935 181.237829 289.020993 180.974414 288.357986 180.974414 
C 287.694978 180.974414 287.059036 181.237829 286.590219 181.706647 
C 286.121401 182.175464 285.857986 182.811406 285.857986 183.474414 
C 285.857986 184.137421 286.121401 184.773363 286.590219 185.242181 
C 287.059036 185.710998 287.694978 185.974414 288.357986 185.974414 
z
" clip-path="url(#p4b10b5aaf1)" style="fill: #4682b4; stroke: #4682b4"/>
    <path d="M 300.271058 110.707845 
C 300.934066 110.707845 301.570008 110.444429 302.038825 109.975612 
C 302.507643 109.506795 302.771058 108.870853 302.771058 108.207845 
C 302.771058 107.544837 302.507643 106.908896 302.038825 106.440078 
C 301.570008 105.971261 300.934066 105.707845 300.271058 105.707845 
C 299.608051 105.707845 298.972109 105.971261 298.503291 106.440078 
C 298.034474 106.908896 297.771058 107.544837 297.771058 108.207845 
C 297.771058 108.870853 298.034474 109.506795 298.503291 109.975612 
C 298.972109 110.444429 299.608051 110.707845 300.271058 110.707845 
z
" clip-path="url(#p4b10b5aaf1)" style="fill: #4682b4; stroke: #4682b4"/>
    <path d="M 220.808902 104.769919 
C 221.47191 104.769919 222.107852 104.506503 222.576669 104.037686 
C 223.045486 103.568869 223.308902 102.932927 223.308902 102.269919 
C 223.308902 101.606911 223.045486 100.970969 222.576669 100.502152 
C 222.107852 100.033335 221.47191 99.769919 220.808902 99.769919 
C 220.145894 99.769919 219.509952 100.033335 219.041135 100.502152 
C 218.572318 100.970969 218.308902 101.606911 218.308902 102.269919 
C 218.308902 102.932927 218.572318 103.568869 219.041135 104.037686 
C 219.509952 104.506503 220.145894 104.769919 220.808902 104.769919 
z
" clip-path="url(#p4b10b5aaf1)" style="fill: #4682b4; stroke: #4682b4"/>
    <path d="M 275.676694 54.704491 
C 276.339702 54.704491 276.975644 54.441076 277.444461 53.972258 
C 277.913279 53.503441 278.176694 52.867499 278.176694 52.204491 
C 278.176694 51.541484 277.913279 50.905542 277.444461 50.436724 
C 276.975644 49.967907 276.339702 49.704491 275.676694 49.704491 
C 275.013687 49.704491 274.377745 49.967907 273.908927 50.436724 
C 273.44011 50.905542 273.176694 51.541484 273.176694 52.204491 
C 273.176694 52.867499 273.44011 53.503441 273.908927 53.972258 
C 274.377745 54.441076 275.013687 54.704491 275.676694 54.704491 
z
" clip-path="url(#p4b10b5aaf1)" style="fill: #4682b4; stroke: #4682b4"/>
    <path d="M 227.840645 129.775619 
C 228.503653 129.775619 229.139595 129.512203 229.608412 129.043386 
C 230.077229 128.574569 230.340645 127.938627 230.340645 127.275619 
C 230.340645 126.612611 230.077229 125.976669 229.608412 125.507852 
C 229.139595 125.039035 228.503653 124.775619 227.840645 124.775619 
C 227.177637 124.775619 226.541696 125.039035 226.072878 125.507852 
C 225.604061 125.976669 225.340645 126.612611 225.340645 127.275619 
C 225.340645 127.938627 225.604061 128.574569 226.072878 129.043386 
C 226.541696 129.512203 227.177637 129.775619 227.840645 129.775619 
z
" clip-path="url(#p4b10b5aaf1)" style="fill: #4682b4; stroke: #4682b4"/>
    <path d="M 225.401758 241.083946 
C 226.064766 241.083946 226.700707 240.82053 227.169525 240.351713 
C 227.638342 239.882896 227.901758 239.246954 227.901758 238.583946 
C 227.901758 237.920938 227.638342 237.284996 227.169525 236.816179 
C 226.700707 236.347362 226.064766 236.083946 225.401758 236.083946 
C 224.73875 236.083946 224.102808 236.347362 223.633991 236.816179 
C 223.165174 237.284996 222.901758 237.920938 222.901758 238.583946 
C 222.901758 239.246954 223.165174 239.882896 223.633991 240.351713 
C 224.102808 240.82053 224.73875 241.083946 225.401758 241.083946 
z
" clip-path="url(#p4b10b5aaf1)" style="fill: #4682b4; stroke: #4682b4"/>
    <path d="M 311.160355 96.991136 
C 311.823362 96.991136 312.459304 96.72772 312.928122 96.258903 
C 313.396939 95.790086 313.660355 95.154144 313.660355 94.491136 
C 313.660355 93.828128 313.396939 93.192186 312.928122 92.723369 
C 312.459304 92.254552 311.823362 91.991136 311.160355 91.991136 
C 310.497347 91.991136 309.861405 92.254552 309.392588 92.723369 
C 308.92377 93.192186 308.660355 93.828128 308.660355 94.491136 
C 308.660355 95.154144 308.92377 95.790086 309.392588 96.258903 
C 309.861405 96.72772 310.497347 96.991136 311.160355 96.991136 
z
" clip-path="url(#p4b10b5aaf1)" style="fill: #4682b4; stroke: #4682b4"/>
    <path d="M 256.112111 122.274981 
C 256.775118 122.274981 257.41106 122.011565 257.879878 121.542748 
C 258.348695 121.073931 258.612111 120.437989 258.612111 119.774981 
C 258.612111 119.111973 258.348695 118.476031 257.879878 118.007214 
C 257.41106 117.538397 256.775118 117.274981 256.112111 117.274981 
C 255.449103 117.274981 254.813161 117.538397 254.344344 118.007214 
C 253.875526 118.476031 253.612111 119.111973 253.612111 119.774981 
C 253.612111 120.437989 253.875526 121.073931 254.344344 121.542748 
C 254.813161 122.011565 255.449103 122.274981 256.112111 122.274981 
z
" clip-path="url(#p4b10b5aaf1)" style="fill: #4682b4; stroke: #4682b4"/>
    <path d="M 252.232124 46.943636 
C 252.895131 46.943636 253.531073 46.680221 253.999891 46.211403 
C 254.468708 45.742586 254.732124 45.106644 254.732124 44.443636 
C 254.732124 43.780629 254.468708 43.144687 253.999891 42.675869 
C 253.531073 42.207052 252.895131 41.943636 252.232124 41.943636 
C 251.569116 41.943636 250.933174 42.207052 250.464357 42.675869 
C 249.995539 43.144687 249.732124 43.780629 249.732124 44.443636 
C 249.732124 45.106644 249.995539 45.742586 250.464357 46.211403 
C 250.933174 46.680221 251.569116 46.943636 252.232124 46.943636 
z
" clip-path="url(#p4b10b5aaf1)" style="fill: #4682b4; stroke: #4682b4"/>
    <path d="M 259.640207 244.616364 
C 260.303215 244.616364 260.939157 244.352948 261.407974 243.884131 
C 261.876791 243.415313 262.140207 242.779371 262.140207 242.116364 
C 262.140207 241.453356 261.876791 240.817414 261.407974 240.348597 
C 260.939157 239.879779 260.303215 239.616364 259.640207 239.616364 
C 258.9772 239.616364 258.341258 239.879779 257.87244 240.348597 
C 257.403623 240.817414 257.140207 241.453356 257.140207 242.116364 
C 257.140207 242.779371 257.403623 243.415313 257.87244 243.884131 
C 258.341258 244.352948 258.9772 244.616364 259.640207 244.616364 
z
" clip-path="url(#p4b10b5aaf1)" style="fill: #4682b4; stroke: #4682b4"/>
    <path d="M 261.572879 85.926084 
C 262.235887 85.926084 262.871829 85.662669 263.340646 85.193851 
C 263.809463 84.725034 264.072879 84.089092 264.072879 83.426084 
C 264.072879 82.763077 263.809463 82.127135 263.340646 81.658317 
C 262.871829 81.1895 262.235887 80.926084 261.572879 80.926084 
C 260.909871 80.926084 260.273929 81.1895 259.805112 81.658317 
C 259.336295 82.127135 259.072879 82.763077 259.072879 83.426084 
C 259.072879 84.089092 259.336295 84.725034 259.805112 85.193851 
C 260.273929 85.662669 260.909871 85.926084 261.572879 85.926084 
z
" clip-path="url(#p4b10b5aaf1)" style="fill: #4682b4; stroke: #4682b4"/>
    <path d="M 299.123174 139.712989 
C 299.786182 139.712989 300.422124 139.449573 300.890941 138.980756 
C 301.359759 138.511938 301.623174 137.875996 301.623174 137.212989 
C 301.623174 136.549981 301.359759 135.914039 300.890941 135.445222 
C 300.422124 134.976404 299.786182 134.712989 299.123174 134.712989 
C 298.460167 134.712989 297.824225 134.976404 297.355407 135.445222 
C 296.88659 135.914039 296.623174 136.549981 296.623174 137.212989 
C 296.623174 137.875996 296.88659 138.511938 297.355407 138.980756 
C 297.824225 139.449573 298.460167 139.712989 299.123174 139.712989 
z
" clip-path="url(#p4b10b5aaf1)" style="fill: #4682b4; stroke: #4682b4"/>
    <path d="M 199.424303 90.751986 
C 200.087311 90.751986 200.723253 90.488571 201.19207 90.019753 
C 201.660887 89.550936 201.924303 88.914994 201.924303 88.251986 
C 201.924303 87.588979 201.660887 86.953037 201.19207 86.484219 
C 200.723253 86.015402 200.087311 85.751986 199.424303 85.751986 
C 198.761295 85.751986 198.125353 86.015402 197.656536 86.484219 
C 197.187719 86.953037 196.924303 87.588979 196.924303 88.251986 
C 196.924303 88.914994 197.187719 89.550936 197.656536 90.019753 
C 198.125353 90.488571 198.761295 90.751986 199.424303 90.751986 
z
" clip-path="url(#p4b10b5aaf1)" style="fill: #4682b4; stroke: #4682b4"/>
    <path d="M 178.764954 128.114947 
C 179.427961 128.114947 180.063903 127.851531 180.532721 127.382714 
C 181.001538 126.913897 181.264954 126.277955 181.264954 125.614947 
C 181.264954 124.951939 181.001538 124.315997 180.532721 123.84718 
C 180.063903 123.378363 179.427961 123.114947 178.764954 123.114947 
C 178.101946 123.114947 177.466004 123.378363 176.997187 123.84718 
C 176.528369 124.315997 176.264954 124.951939 176.264954 125.614947 
C 176.264954 126.277955 176.528369 126.913897 176.997187 127.382714 
C 177.466004 127.851531 178.101946 128.114947 178.764954 128.114947 
z
" clip-path="url(#p4b10b5aaf1)" style="fill: #4682b4; stroke: #4682b4"/>
    <path d="M 244.373046 85.682923 
C 245.036053 85.682923 245.671995 85.419508 246.140813 84.95069 
C 246.60963 84.481873 246.873046 83.845931 246.873046 83.182923 
C 246.873046 82.519916 246.60963 81.883974 246.140813 81.415156 
C 245.671995 80.946339 245.036053 80.682923 244.373046 80.682923 
C 243.710038 80.682923 243.074096 80.946339 242.605279 81.415156 
C 242.136461 81.883974 241.873046 82.519916 241.873046 83.182923 
C 241.873046 83.845931 242.136461 84.481873 242.605279 84.95069 
C 243.074096 85.419508 243.710038 85.682923 244.373046 85.682923 
z
" clip-path="url(#p4b10b5aaf1)" style="fill: #4682b4; stroke: #4682b4"/>
    <path d="M 245.96119 199.189228 
C 246.624198 199.189228 247.26014 198.925812 247.728957 198.456995 
C 248.197774 197.988178 248.46119 197.352236 248.46119 196.689228 
C 248.46119 196.02622 248.197774 195.390278 247.728957 194.921461 
C 247.26014 194.452644 246.624198 194.189228 245.96119 194.189228 
C 245.298182 194.189228 244.66224 194.452644 244.193423 194.921461 
C 243.724606 195.390278 243.46119 196.02622 243.46119 196.689228 
C 243.46119 197.352236 243.724606 197.988178 244.193423 198.456995 
C 244.66224 198.925812 245.298182 199.189228 245.96119 199.189228 
z
" clip-path="url(#p4b10b5aaf1)" style="fill: #4682b4; stroke: #4682b4"/>
   </g>
   <g id="patch_31">
    <path d="M 122.66361 252 
L 122.66361 34.56 
" style="fill: none; stroke: #000000; stroke-width: 0.8; stroke-linejoin: miter; stroke-linecap: square"/>
   </g>
   <g id="patch_32">
    <path d="M 320.13639 252 
L 320.13639 34.56 
" style="fill: none; stroke: #000000; stroke-width: 0.8; stroke-linejoin: miter; stroke-linecap: square"/>
   </g>
   <g id="patch_33">
    <path d="M 122.66361 252 
L 320.13639 252 
" style="fill: none; stroke: #000000; stroke-width: 0.8; stroke-linejoin: miter; stroke-linecap: square"/>
   </g>
   <g id="patch_34">
    <path d="M 122.66361 34.56 
L 320.13639 34.56 
" style="fill: none; stroke: #000000; stroke-width: 0.8; stroke-linejoin: miter; stroke-linecap: square"/>
   </g>
   <g id="text_13">
    <!-- 0 -->
    <g transform="translate(217.549811 56.783541) scale(0.1 -0.1)">
     <use xlink:href="#DejaVuSans-30"/>
    </g>
   </g>
   <g id="text_14">
    <!-- 1 -->
    <g transform="translate(131.639645 133.047784) scale(0.1 -0.1)">
     <use xlink:href="#DejaVuSans-31"/>
    </g>
   </g>
   <g id="text_15">
    <!-- 2 -->
    <g transform="translate(288.357986 183.474414) scale(0.1 -0.1)">
     <use xlink:href="#DejaVuSans-32"/>
    </g>
   </g>
   <g id="text_16">
    <!-- 3 -->
    <g transform="translate(300.271058 108.207845) scale(0.1 -0.1)">
     <use xlink:href="#DejaVuSans-33"/>
    </g>
   </g>
   <g id="text_17">
    <!-- 4 -->
    <g transform="translate(220.808902 102.269919) scale(0.1 -0.1)">
     <use xlink:href="#DejaVuSans-34"/>
    </g>
   </g>
   <g id="text_18">
    <!-- 5 -->
    <g transform="translate(275.676694 52.204491) scale(0.1 -0.1)">
     <defs>
      <path id="DejaVuSans-35" d="M 691 4666 
L 3169 4666 
L 3169 4134 
L 1269 4134 
L 1269 2991 
Q 1406 3038 1543 3061 
Q 1681 3084 1819 3084 
Q 2600 3084 3056 2656 
Q 3513 2228 3513 1497 
Q 3513 744 3044 326 
Q 2575 -91 1722 -91 
Q 1428 -91 1123 -41 
Q 819 9 494 109 
L 494 744 
Q 775 591 1075 516 
Q 1375 441 1709 441 
Q 2250 441 2565 725 
Q 2881 1009 2881 1497 
Q 2881 1984 2565 2268 
Q 2250 2553 1709 2553 
Q 1456 2553 1204 2497 
Q 953 2441 691 2322 
L 691 4666 
z
" transform="scale(0.015625)"/>
     </defs>
     <use xlink:href="#DejaVuSans-35"/>
    </g>
   </g>
   <g id="text_19">
    <!-- 6 -->
    <g transform="translate(227.840645 127.275619) scale(0.1 -0.1)">
     <defs>
      <path id="DejaVuSans-36" d="M 2113 2584 
Q 1688 2584 1439 2293 
Q 1191 2003 1191 1497 
Q 1191 994 1439 701 
Q 1688 409 2113 409 
Q 2538 409 2786 701 
Q 3034 994 3034 1497 
Q 3034 2003 2786 2293 
Q 2538 2584 2113 2584 
z
M 3366 4563 
L 3366 3988 
Q 3128 4100 2886 4159 
Q 2644 4219 2406 4219 
Q 1781 4219 1451 3797 
Q 1122 3375 1075 2522 
Q 1259 2794 1537 2939 
Q 1816 3084 2150 3084 
Q 2853 3084 3261 2657 
Q 3669 2231 3669 1497 
Q 3669 778 3244 343 
Q 2819 -91 2113 -91 
Q 1303 -91 875 529 
Q 447 1150 447 2328 
Q 447 3434 972 4092 
Q 1497 4750 2381 4750 
Q 2619 4750 2861 4703 
Q 3103 4656 3366 4563 
z
" transform="scale(0.015625)"/>
     </defs>
     <use xlink:href="#DejaVuSans-36"/>
    </g>
   </g>
   <g id="text_20">
    <!-- 7 -->
    <g transform="translate(225.401758 238.583946) scale(0.1 -0.1)">
     <defs>
      <path id="DejaVuSans-37" d="M 525 4666 
L 3525 4666 
L 3525 4397 
L 1831 0 
L 1172 0 
L 2766 4134 
L 525 4134 
L 525 4666 
z
" transform="scale(0.015625)"/>
     </defs>
     <use xlink:href="#DejaVuSans-37"/>
    </g>
   </g>
   <g id="text_21">
    <!-- 8 -->
    <g transform="translate(311.160355 94.491136) scale(0.1 -0.1)">
     <defs>
      <path id="DejaVuSans-38" d="M 2034 2216 
Q 1584 2216 1326 1975 
Q 1069 1734 1069 1313 
Q 1069 891 1326 650 
Q 1584 409 2034 409 
Q 2484 409 2743 651 
Q 3003 894 3003 1313 
Q 3003 1734 2745 1975 
Q 2488 2216 2034 2216 
z
M 1403 2484 
Q 997 2584 770 2862 
Q 544 3141 544 3541 
Q 544 4100 942 4425 
Q 1341 4750 2034 4750 
Q 2731 4750 3128 4425 
Q 3525 4100 3525 3541 
Q 3525 3141 3298 2862 
Q 3072 2584 2669 2484 
Q 3125 2378 3379 2068 
Q 3634 1759 3634 1313 
Q 3634 634 3220 271 
Q 2806 -91 2034 -91 
Q 1263 -91 848 271 
Q 434 634 434 1313 
Q 434 1759 690 2068 
Q 947 2378 1403 2484 
z
M 1172 3481 
Q 1172 3119 1398 2916 
Q 1625 2713 2034 2713 
Q 2441 2713 2670 2916 
Q 2900 3119 2900 3481 
Q 2900 3844 2670 4047 
Q 2441 4250 2034 4250 
Q 1625 4250 1398 4047 
Q 1172 3844 1172 3481 
z
" transform="scale(0.015625)"/>
     </defs>
     <use xlink:href="#DejaVuSans-38"/>
    </g>
   </g>
   <g id="text_22">
    <!-- 9 -->
    <g transform="translate(256.112111 119.774981) scale(0.1 -0.1)">
     <defs>
      <path id="DejaVuSans-39" d="M 703 97 
L 703 672 
Q 941 559 1184 500 
Q 1428 441 1663 441 
Q 2288 441 2617 861 
Q 2947 1281 2994 2138 
Q 2813 1869 2534 1725 
Q 2256 1581 1919 1581 
Q 1219 1581 811 2004 
Q 403 2428 403 3163 
Q 403 3881 828 4315 
Q 1253 4750 1959 4750 
Q 2769 4750 3195 4129 
Q 3622 3509 3622 2328 
Q 3622 1225 3098 567 
Q 2575 -91 1691 -91 
Q 1453 -91 1209 -44 
Q 966 3 703 97 
z
M 1959 2075 
Q 2384 2075 2632 2365 
Q 2881 2656 2881 3163 
Q 2881 3666 2632 3958 
Q 2384 4250 1959 4250 
Q 1534 4250 1286 3958 
Q 1038 3666 1038 3163 
Q 1038 2656 1286 2365 
Q 1534 2075 1959 2075 
z
" transform="scale(0.015625)"/>
     </defs>
     <use xlink:href="#DejaVuSans-39"/>
    </g>
   </g>
   <g id="text_23">
    <!-- 10 -->
    <g transform="translate(252.232124 44.443636) scale(0.1 -0.1)">
     <use xlink:href="#DejaVuSans-31"/>
     <use xlink:href="#DejaVuSans-30" x="63.623047"/>
    </g>
   </g>
   <g id="text_24">
    <!-- 11 -->
    <g transform="translate(259.640207 242.116364) scale(0.1 -0.1)">
     <use xlink:href="#DejaVuSans-31"/>
     <use xlink:href="#DejaVuSans-31" x="63.623047"/>
    </g>
   </g>
   <g id="text_25">
    <!-- 12 -->
    <g transform="translate(261.572879 83.426084) scale(0.1 -0.1)">
     <use xlink:href="#DejaVuSans-31"/>
     <use xlink:href="#DejaVuSans-32" x="63.623047"/>
    </g>
   </g>
   <g id="text_26">
    <!-- 13 -->
    <g transform="translate(299.123174 137.212989) scale(0.1 -0.1)">
     <use xlink:href="#DejaVuSans-31"/>
     <use xlink:href="#DejaVuSans-33" x="63.623047"/>
    </g>
   </g>
   <g id="text_27">
    <!-- 14 -->
    <g transform="translate(199.424303 88.251986) scale(0.1 -0.1)">
     <use xlink:href="#DejaVuSans-31"/>
     <use xlink:href="#DejaVuSans-34" x="63.623047"/>
    </g>
   </g>
   <g id="text_28">
    <!-- 15 -->
    <g transform="translate(178.764954 125.614947) scale(0.1 -0.1)">
     <use xlink:href="#DejaVuSans-31"/>
     <use xlink:href="#DejaVuSans-35" x="63.623047"/>
    </g>
   </g>
   <g id="text_29">
    <!-- 16 -->
    <g transform="translate(244.373046 83.182923) scale(0.1 -0.1)">
     <use xlink:href="#DejaVuSans-31"/>
     <use xlink:href="#DejaVuSans-36" x="63.623047"/>
    </g>
   </g>
   <g id="text_30">
    <!-- 17 -->
    <g transform="translate(245.96119 196.689228) scale(0.1 -0.1)">
     <use xlink:href="#DejaVuSans-31"/>
     <use xlink:href="#DejaVuSans-37" x="63.623047"/>
    </g>
   </g>
   <g id="text_31">
    <!-- Fruchterman Reingold -->
    <g transform="translate(155.360625 28.56) scale(0.12 -0.12)">
     <defs>
      <path id="DejaVuSans-46" d="M 628 4666 
L 3309 4666 
L 3309 4134 
L 1259 4134 
L 1259 2759 
L 3109 2759 
L 3109 2228 
L 1259 2228 
L 1259 0 
L 628 0 
L 628 4666 
z
" transform="scale(0.015625)"/>
      <path id="DejaVuSans-72" d="M 2631 2963 
Q 2534 3019 2420 3045 
Q 2306 3072 2169 3072 
Q 1681 3072 1420 2755 
Q 1159 2438 1159 1844 
L 1159 0 
L 581 0 
L 581 3500 
L 1159 3500 
L 1159 2956 
Q 1341 3275 1631 3429 
Q 1922 3584 2338 3584 
Q 2397 3584 2469 3576 
Q 2541 3569 2628 3553 
L 2631 2963 
z
" transform="scale(0.015625)"/>
      <path id="DejaVuSans-75" d="M 544 1381 
L 544 3500 
L 1119 3500 
L 1119 1403 
Q 1119 906 1312 657 
Q 1506 409 1894 409 
Q 2359 409 2629 706 
Q 2900 1003 2900 1516 
L 2900 3500 
L 3475 3500 
L 3475 0 
L 2900 0 
L 2900 538 
Q 2691 219 2414 64 
Q 2138 -91 1772 -91 
Q 1169 -91 856 284 
Q 544 659 544 1381 
z
M 1991 3584 
L 1991 3584 
z
" transform="scale(0.015625)"/>
      <path id="DejaVuSans-63" d="M 3122 3366 
L 3122 2828 
Q 2878 2963 2633 3030 
Q 2388 3097 2138 3097 
Q 1578 3097 1268 2742 
Q 959 2388 959 1747 
Q 959 1106 1268 751 
Q 1578 397 2138 397 
Q 2388 397 2633 464 
Q 2878 531 3122 666 
L 3122 134 
Q 2881 22 2623 -34 
Q 2366 -91 2075 -91 
Q 1284 -91 818 406 
Q 353 903 353 1747 
Q 353 2603 823 3093 
Q 1294 3584 2113 3584 
Q 2378 3584 2631 3529 
Q 2884 3475 3122 3366 
z
" transform="scale(0.015625)"/>
      <path id="DejaVuSans-68" d="M 3513 2113 
L 3513 0 
L 2938 0 
L 2938 2094 
Q 2938 2591 2744 2837 
Q 2550 3084 2163 3084 
Q 1697 3084 1428 2787 
Q 1159 2491 1159 1978 
L 1159 0 
L 581 0 
L 581 4863 
L 1159 4863 
L 1159 2956 
Q 1366 3272 1645 3428 
Q 1925 3584 2291 3584 
Q 2894 3584 3203 3211 
Q 3513 2838 3513 2113 
z
" transform="scale(0.015625)"/>
      <path id="DejaVuSans-74" d="M 1172 4494 
L 1172 3500 
L 2356 3500 
L 2356 3053 
L 1172 3053 
L 1172 1153 
Q 1172 725 1289 603 
Q 1406 481 1766 481 
L 2356 481 
L 2356 0 
L 1766 0 
Q 1100 0 847 248 
Q 594 497 594 1153 
L 594 3053 
L 172 3053 
L 172 3500 
L 594 3500 
L 594 4494 
L 1172 4494 
z
" transform="scale(0.015625)"/>
      <path id="DejaVuSans-65" d="M 3597 1894 
L 3597 1613 
L 953 1613 
Q 991 1019 1311 708 
Q 1631 397 2203 397 
Q 2534 397 2845 478 
Q 3156 559 3463 722 
L 3463 178 
Q 3153 47 2828 -22 
Q 2503 -91 2169 -91 
Q 1331 -91 842 396 
Q 353 884 353 1716 
Q 353 2575 817 3079 
Q 1281 3584 2069 3584 
Q 2775 3584 3186 3129 
Q 3597 2675 3597 1894 
z
M 3022 2063 
Q 3016 2534 2758 2815 
Q 2500 3097 2075 3097 
Q 1594 3097 1305 2825 
Q 1016 2553 972 2059 
L 3022 2063 
z
" transform="scale(0.015625)"/>
      <path id="DejaVuSans-6d" d="M 3328 2828 
Q 3544 3216 3844 3400 
Q 4144 3584 4550 3584 
Q 5097 3584 5394 3201 
Q 5691 2819 5691 2113 
L 5691 0 
L 5113 0 
L 5113 2094 
Q 5113 2597 4934 2840 
Q 4756 3084 4391 3084 
Q 3944 3084 3684 2787 
Q 3425 2491 3425 1978 
L 3425 0 
L 2847 0 
L 2847 2094 
Q 2847 2600 2669 2842 
Q 2491 3084 2119 3084 
Q 1678 3084 1418 2786 
Q 1159 2488 1159 1978 
L 1159 0 
L 581 0 
L 581 3500 
L 1159 3500 
L 1159 2956 
Q 1356 3278 1631 3431 
Q 1906 3584 2284 3584 
Q 2666 3584 2933 3390 
Q 3200 3197 3328 2828 
z
" transform="scale(0.015625)"/>
      <path id="DejaVuSans-61" d="M 2194 1759 
Q 1497 1759 1228 1600 
Q 959 1441 959 1056 
Q 959 750 1161 570 
Q 1363 391 1709 391 
Q 2188 391 2477 730 
Q 2766 1069 2766 1631 
L 2766 1759 
L 2194 1759 
z
M 3341 1997 
L 3341 0 
L 2766 0 
L 2766 531 
Q 2569 213 2275 61 
Q 1981 -91 1556 -91 
Q 1019 -91 701 211 
Q 384 513 384 1019 
Q 384 1609 779 1909 
Q 1175 2209 1959 2209 
L 2766 2209 
L 2766 2266 
Q 2766 2663 2505 2880 
Q 2244 3097 1772 3097 
Q 1472 3097 1187 3025 
Q 903 2953 641 2809 
L 641 3341 
Q 956 3463 1253 3523 
Q 1550 3584 1831 3584 
Q 2591 3584 2966 3190 
Q 3341 2797 3341 1997 
z
" transform="scale(0.015625)"/>
      <path id="DejaVuSans-6e" d="M 3513 2113 
L 3513 0 
L 2938 0 
L 2938 2094 
Q 2938 2591 2744 2837 
Q 2550 3084 2163 3084 
Q 1697 3084 1428 2787 
Q 1159 2491 1159 1978 
L 1159 0 
L 581 0 
L 581 3500 
L 1159 3500 
L 1159 2956 
Q 1366 3272 1645 3428 
Q 1925 3584 2291 3584 
Q 2894 3584 3203 3211 
Q 3513 2838 3513 2113 
z
" transform="scale(0.015625)"/>
      <path id="DejaVuSans-20" transform="scale(0.015625)"/>
      <path id="DejaVuSans-52" d="M 2841 2188 
Q 3044 2119 3236 1894 
Q 3428 1669 3622 1275 
L 4263 0 
L 3584 0 
L 2988 1197 
Q 2756 1666 2539 1819 
Q 2322 1972 1947 1972 
L 1259 1972 
L 1259 0 
L 628 0 
L 628 4666 
L 2053 4666 
Q 2853 4666 3247 4331 
Q 3641 3997 3641 3322 
Q 3641 2881 3436 2590 
Q 3231 2300 2841 2188 
z
M 1259 4147 
L 1259 2491 
L 2053 2491 
Q 2509 2491 2742 2702 
Q 2975 2913 2975 3322 
Q 2975 3731 2742 3939 
Q 2509 4147 2053 4147 
L 1259 4147 
z
" transform="scale(0.015625)"/>
      <path id="DejaVuSans-69" d="M 603 3500 
L 1178 3500 
L 1178 0 
L 603 0 
L 603 3500 
z
M 603 4863 
L 1178 4863 
L 1178 4134 
L 603 4134 
L 603 4863 
z
" transform="scale(0.015625)"/>
      <path id="DejaVuSans-67" d="M 2906 1791 
Q 2906 2416 2648 2759 
Q 2391 3103 1925 3103 
Q 1463 3103 1205 2759 
Q 947 2416 947 1791 
Q 947 1169 1205 825 
Q 1463 481 1925 481 
Q 2391 481 2648 825 
Q 2906 1169 2906 1791 
z
M 3481 434 
Q 3481 -459 3084 -895 
Q 2688 -1331 1869 -1331 
Q 1566 -1331 1297 -1286 
Q 1028 -1241 775 -1147 
L 775 -588 
Q 1028 -725 1275 -790 
Q 1522 -856 1778 -856 
Q 2344 -856 2625 -561 
Q 2906 -266 2906 331 
L 2906 616 
Q 2728 306 2450 153 
Q 2172 0 1784 0 
Q 1141 0 747 490 
Q 353 981 353 1791 
Q 353 2603 747 3093 
Q 1141 3584 1784 3584 
Q 2172 3584 2450 3431 
Q 2728 3278 2906 2969 
L 2906 3500 
L 3481 3500 
L 3481 434 
z
" transform="scale(0.015625)"/>
      <path id="DejaVuSans-6f" d="M 1959 3097 
Q 1497 3097 1228 2736 
Q 959 2375 959 1747 
Q 959 1119 1226 758 
Q 1494 397 1959 397 
Q 2419 397 2687 759 
Q 2956 1122 2956 1747 
Q 2956 2369 2687 2733 
Q 2419 3097 1959 3097 
z
M 1959 3584 
Q 2709 3584 3137 3096 
Q 3566 2609 3566 1747 
Q 3566 888 3137 398 
Q 2709 -91 1959 -91 
Q 1206 -91 779 398 
Q 353 888 353 1747 
Q 353 2609 779 3096 
Q 1206 3584 1959 3584 
z
" transform="scale(0.015625)"/>
      <path id="DejaVuSans-6c" d="M 603 4863 
L 1178 4863 
L 1178 0 
L 603 0 
L 603 4863 
z
" transform="scale(0.015625)"/>
      <path id="DejaVuSans-64" d="M 2906 2969 
L 2906 4863 
L 3481 4863 
L 3481 0 
L 2906 0 
L 2906 525 
Q 2725 213 2448 61 
Q 2172 -91 1784 -91 
Q 1150 -91 751 415 
Q 353 922 353 1747 
Q 353 2572 751 3078 
Q 1150 3584 1784 3584 
Q 2172 3584 2448 3432 
Q 2725 3281 2906 2969 
z
M 947 1747 
Q 947 1113 1208 752 
Q 1469 391 1925 391 
Q 2381 391 2643 752 
Q 2906 1113 2906 1747 
Q 2906 2381 2643 2742 
Q 2381 3103 1925 3103 
Q 1469 3103 1208 2742 
Q 947 2381 947 1747 
z
" transform="scale(0.015625)"/>
     </defs>
     <use xlink:href="#DejaVuSans-46"/>
     <use xlink:href="#DejaVuSans-72" x="50.269531"/>
     <use xlink:href="#DejaVuSans-75" x="91.382812"/>
     <use xlink:href="#DejaVuSans-63" x="154.761719"/>
     <use xlink:href="#DejaVuSans-68" x="209.742188"/>
     <use xlink:href="#DejaVuSans-74" x="273.121094"/>
     <use xlink:href="#DejaVuSans-65" x="312.330078"/>
     <use xlink:href="#DejaVuSans-72" x="373.853516"/>
     <use xlink:href="#DejaVuSans-6d" x="413.216797"/>
     <use xlink:href="#DejaVuSans-61" x="510.628906"/>
     <use xlink:href="#DejaVuSans-6e" x="571.908203"/>
     <use xlink:href="#DejaVuSans-20" x="635.287109"/>
     <use xlink:href="#DejaVuSans-52" x="667.074219"/>
     <use xlink:href="#DejaVuSans-65" x="732.056641"/>
     <use xlink:href="#DejaVuSans-69" x="793.580078"/>
     <use xlink:href="#DejaVuSans-6e" x="821.363281"/>
     <use xlink:href="#DejaVuSans-67" x="884.742188"/>
     <use xlink:href="#DejaVuSans-6f" x="948.21875"/>
     <use xlink:href="#DejaVuSans-6c" x="1009.400391"/>
     <use xlink:href="#DejaVuSans-64" x="1037.183594"/>
    </g>
   </g>
  </g>
 </g>
 <defs>
  <clipPath id="p4b10b5aaf1">
   <rect x="122.66361" y="34.56" width="197.47278" height="217.44"/>
  </clipPath>
 </defs>
</svg>
