  0
SECTION
  2
HEADER
  9
$ACADVER
  1
AC1027
  9
$ACADMAINTVER
 70
105
  9
$DWGCODEPAGE
  3
ANSI_1252
  9
$LASTSAVEDBY
  1
ezdxf
  9
$REQUIREDVERSIONS
160
0
  9
$INSBASE
 10
0.0
 20
0.0
 30
0.0
  9
$EXTMIN
 10
1e+20
 20
1e+20
 30
1e+20
  9
$EXTMAX
 10
-1e+20
 20
-1e+20
 30
-1e+20
  9
$LIMMIN
 10
0.0
 20
0.0
  9
$LIMMAX
 10
420.0
 20
297.0
  9
$ORTHOMODE
 70
0
  9
$REGENMODE
 70
1
  9
$FILLMODE
 70
1
  9
$QTEXTMODE
 70
0
  9
$MIRRTEXT
 70
1
  9
$LTSCALE
 40
1.0
  9
$ATTMODE
 70
1
  9
$TEXTSIZE
 40
2.5
  9
$TRACEWID
 40
1.0
  9
$TEXTSTYLE
  7
Standard
  9
$CLAYER
  8
0
  9
$CELTYPE
  6
ByLayer
  9
$CECOLOR
 62
256
  9
$CELTSCALE
 40
1.0
  9
$DISPSILH
 70
0
  9
$DIMSCALE
 40
1.0
  9
$DIMASZ
 40
2.5
  9
$DIMEXO
 40
0.625
  9
$DIMDLI
 40
3.75
  9
$DIMRND
 40
0.0
  9
$DIMDLE
 40
0.0
  9
$DIMEXE
 40
1.25
  9
$DIMTP
 40
0.0
  9
$DIMTM
 40
0.0
  9
$DIMTXT
 40
2.5
  9
$DIMCEN
 40
2.5
  9
$DIMTSZ
 40
0.0
  9
$DIMTOL
 70
0
  9
$DIMLIM
 70
0
  9
$DIMTIH
 70
0
  9
$DIMTOH
 70
0
  9
$DIMSE1
 70
0
  9
$DIMSE2
 70
0
  9
$DIMTAD
 70
1
  9
$DIMZIN
 70
8
  9
$DIMBLK
  1

  9
$DIMASO
 70
1
  9
$DIMSHO
 70
1
  9
$DIMPOST
  1

  9
$DIMAPOST
  1

  9
$DIMALT
 70
0
  9
$DIMALTD
 70
3
  9
$DIMALTF
 40
0.03937007874
  9
$DIMLFAC
 40
1.0
  9
$DIMTOFL
 70
1
  9
$DIMTVP
 40
0.0
  9
$DIMTIX
 70
0
  9
$DIMSOXD
 70
0
  9
$DIMSAH
 70
0
  9
$DIMBLK1
  1

  9
$DIMBLK2
  1

  9
$DIMSTYLE
  2
ISO-25
  9
$DIMCLRD
 70
0
  9
$DIMCLRE
 70
0
  9
$DIMCLRT
 70
0
  9
$DIMTFAC
 40
1.0
  9
$DIMGAP
 40
0.625
  9
$DIMJUST
 70
0
  9
$DIMSD1
 70
0
  9
$DIMSD2
 70
0
  9
$DIMTOLJ
 70
0
  9
$DIMTZIN
 70
8
  9
$DIMALTZ
 70
0
  9
$DIMALTTZ
 70
0
  9
$DIMUPT
 70
0
  9
$DIMDEC
 70
2
  9
$DIMTDEC
 70
2
  9
$DIMALTU
 70
2
  9
$DIMALTTD
 70
3
  9
$DIMTXSTY
  7
Standard
  9
$DIMAUNIT
 70
0
  9
$DIMADEC
 70
0
  9
$DIMALTRND
 40
0.0
  9
$DIMAZIN
 70
0
  9
$DIMDSEP
 70
44
  9
$DIMATFIT
 70
3
  9
$DIMFRAC
 70
0
  9
$DIMLDRBLK
  1

  9
$DIMLUNIT
 70
2
  9
$DIMLWD
 70
-2
  9
$DIMLWE
 70
-2
  9
$DIMTMOVE
 70
0
  9
$DIMFXL
 40
1.0
  9
$DIMFXLON
 70
0
  9
$DIMJOGANG
 40
0.785398163397
  9
$DIMTFILL
 70
0
  9
$DIMTFILLCLR
 70
0
  9
$DIMARCSYM
 70
0
  9
$DIMLTYPE
  6

  9
$DIMLTEX1
  6

  9
$DIMLTEX2
  6

  9
$DIMTXTDIRECTION
 70
0
  9
$LUNITS
 70
2
  9
$LUPREC
 70
4
  9
$SKETCHINC
 40
1.0
  9
$FILLETRAD
 40
10.0
  9
$AUNITS
 70
0
  9
$AUPREC
 70
2
  9
$MENU
  1
.
  9
$ELEVATION
 40
0.0
  9
$PELEVATION
 40
0.0
  9
$THICKNESS
 40
0.0
  9
$LIMCHECK
 70
0
  9
$CHAMFERA
 40
0.0
  9
$CHAMFERB
 40
0.0
  9
$CHAMFERC
 40
0.0
  9
$CHAMFERD
 40
0.0
  9
$SKPOLY
 70
0
  9
$TDCREATE
 40
2460032.643275463
  9
$TDUCREATE
 40
2458532.153996898
  9
$TDUPDATE
 40
2460032.643275463
  9
$TDUUPDATE
 40
2458532.1544311
  9
$TDINDWG
 40
0.0
  9
$TDUSRTIMER
 40
0.0
  9
$USRTIMER
 70
1
  9
$ANGBASE
 50
0.0
  9
$ANGDIR
 70
0
  9
$PDMODE
 70
0
  9
$PDSIZE
 40
0.0
  9
$PLINEWID
 40
0.0
  9
$SPLFRAME
 70
0
  9
$SPLINETYPE
 70
6
  9
$SPLINESEGS
 70
8
  9
$HANDSEED
  5
218
  9
$SURFTAB1
 70
6
  9
$SURFTAB2
 70
6
  9
$SURFTYPE
 70
6
  9
$SURFU
 70
6
  9
$SURFV
 70
6
  9
$UCSBASE
  2

  9
$UCSNAME
  2

  9
$UCSORG
 10
0.0
 20
0.0
 30
0.0
  9
$UCSXDIR
 10
1.0
 20
0.0
 30
0.0
  9
$UCSYDIR
 10
0.0
 20
1.0
 30
0.0
  9
$UCSORTHOREF
  2

  9
$UCSORTHOVIEW
 70
0
  9
$UCSORGTOP
 10
0.0
 20
0.0
 30
0.0
  9
$UCSORGBOTTOM
 10
0.0
 20
0.0
 30
0.0
  9
$UCSORGLEFT
 10
0.0
 20
0.0
 30
0.0
  9
$UCSORGRIGHT
 10
0.0
 20
0.0
 30
0.0
  9
$UCSORGFRONT
 10
0.0
 20
0.0
 30
0.0
  9
$UCSORGBACK
 10
0.0
 20
0.0
 30
0.0
  9
$PUCSBASE
  2

  9
$PUCSNAME
  2

  9
$PUCSORG
 10
0.0
 20
0.0
 30
0.0
  9
$PUCSXDIR
 10
1.0
 20
0.0
 30
0.0
  9
$PUCSYDIR
 10
0.0
 20
1.0
 30
0.0
  9
$PUCSORTHOREF
  2

  9
$PUCSORTHOVIEW
 70
0
  9
$PUCSORGTOP
 10
0.0
 20
0.0
 30
0.0
  9
$PUCSORGBOTTOM
 10
0.0
 20
0.0
 30
0.0
  9
$PUCSORGLEFT
 10
0.0
 20
0.0
 30
0.0
  9
$PUCSORGRIGHT
 10
0.0
 20
0.0
 30
0.0
  9
$PUCSORGFRONT
 10
0.0
 20
0.0
 30
0.0
  9
$PUCSORGBACK
 10
0.0
 20
0.0
 30
0.0
  9
$USERI1
 70
0
  9
$USERI2
 70
0
  9
$USERI3
 70
0
  9
$USERI4
 70
0
  9
$USERI5
 70
0
  9
$USERR1
 40
0.0
  9
$USERR2
 40
0.0
  9
$USERR3
 40
0.0
  9
$USERR4
 40
0.0
  9
$USERR5
 40
0.0
  9
$WORLDVIEW
 70
1
  9
$SHADEDGE
 70
3
  9
$SHADEDIF
 70
70
  9
$TILEMODE
 70
1
  9
$MAXACTVP
 70
64
  9
$PINSBASE
 10
0.0
 20
0.0
 30
0.0
  9
$PLIMCHECK
 70
0
  9
$PEXTMIN
 10
1e+20
 20
1e+20
 30
1e+20
  9
$PEXTMAX
 10
-1e+20
 20
-1e+20
 30
-1e+20
  9
$PLIMMIN
 10
0.0
 20
0.0
  9
$PLIMMAX
 10
420.0
 20
297.0
  9
$UNITMODE
 70
0
  9
$VISRETAIN
 70
1
  9
$PLINEGEN
 70
0
  9
$PSLTSCALE
 70
1
  9
$TREEDEPTH
 70
3020
  9
$CMLSTYLE
  2
Standard
  9
$CMLJUST
 70
0
  9
$CMLSCALE
 40
20.0
  9
$PROXYGRAPHICS
 70
1
  9
$MEASUREMENT
 70
1
  9
$CELWEIGHT
370
-1
  9
$ENDCAPS
280
0
  9
$JOINSTYLE
280
0
  9
$LWDISPLAY
290
0
  9
$INSUNITS
 70
6
  9
$HYPERLINKBASE
  1

  9
$STYLESHEET
  1

  9
$XEDIT
290
1
  9
$CEPSNTYPE
380
0
  9
$PSTYLEMODE
290
1
  9
$FINGERPRINTGUID
  2
{68A94047-DDC0-4CFB-BFFD-FE88BF0E42E9}
  9
$VERSIONGUID
  2
{27B0C506-2FA8-4B50-B51C-E9C6FA5DC247}
  9
$EXTNAMES
290
1
  9
$PSVPSCALE
 40
0.0
  9
$OLESTARTUP
290
0
  9
$SORTENTS
280
127
  9
$INDEXCTL
280
0
  9
$HIDETEXT
280
1
  9
$XCLIPFRAME
280
0
  9
$HALOGAP
280
0
  9
$OBSCOLOR
 70
257
  9
$OBSLTYPE
280
0
  9
$INTERSECTIONDISPLAY
280
0
  9
$INTERSECTIONCOLOR
 70
257
  9
$DIMASSOC
280
2
  9
$PROJECTNAME
  1

  9
$CAMERADISPLAY
290
0
  9
$LENSLENGTH
 40
50.0
  9
$CAMERAHEIGHT
 40
0.0
  9
$STEPSPERSEC
 40
24.0
  9
$STEPSIZE
 40
100.0
  9
$3DDWFPREC
 40
2.0
  9
$PSOLWIDTH
 40
0.005
  9
$PSOLHEIGHT
 40
0.08
  9
$LOFTANG1
 40
1.570796326795
  9
$LOFTANG2
 40
1.570796326795
  9
$LOFTMAG1
 40
0.0
  9
$LOFTMAG2
 40
0.0
  9
$LOFTPARAM
 70
7
  9
$LOFTNORMALS
280
1
  9
$LATITUDE
 40
37.795
  9
$LONGITUDE
 40
-122.394
  9
$NORTHDIRECTION
 40
0.0
  9
$TIMEZONE
 70
-8000
  9
$LIGHTGLYPHDISPLAY
280
1
  9
$TILEMODELIGHTSYNCH
280
1
  9
$CMATERIAL
347
20
  9
$SOLIDHIST
280
0
  9
$SHOWHIST
280
1
  9
$DWFFRAME
280
2
  9
$DGNFRAME
280
2
  9
$REALWORLDSCALE
290
1
  9
$INTERFERECOLOR
 62
256
  9
$CSHADOW
280
0
  9
$SHADOWPLANELOCATION
 40
0.0
  0
ENDSEC
  0
SECTION
  2
CLASSES
  0
CLASS
  1
ACDBDICTIONARYWDFLT
  2
AcDbDictionaryWithDefault
  3
ObjectDBX Classes
 90
0
 91
0
280
0
281
0
  0
CLASS
  1
SUN
  2
AcDbSun
  3
SCENEOE
 90
1153
 91
0
280
0
281
0
  0
CLASS
  1
VISUALSTYLE
  2
AcDbVisualStyle
  3
ObjectDBX Classes
 90
4095
 91
0
280
0
281
0
  0
CLASS
  1
MATERIAL
  2
AcDbMaterial
  3
ObjectDBX Classes
 90
1153
 91
0
280
0
281
0
  0
CLASS
  1
SCALE
  2
AcDbScale
  3
ObjectDBX Classes
 90
1153
 91
0
280
0
281
0
  0
CLASS
  1
TABLESTYLE
  2
AcDbTableStyle
  3
ObjectDBX Classes
 90
4095
 91
0
280
0
281
0
  0
CLASS
  1
MLEADERSTYLE
  2
AcDbMLeaderStyle
  3
ACDB_MLEADERSTYLE_CLASS
 90
4095
 91
0
280
0
281
0
  0
CLASS
  1
DICTIONARYVAR
  2
AcDbDictionaryVar
  3
ObjectDBX Classes
 90
0
 91
0
280
0
281
0
  0
CLASS
  1
CELLSTYLEMAP
  2
AcDbCellStyleMap
  3
ObjectDBX Classes
 90
1152
 91
0
280
0
281
0
  0
CLASS
  1
MENTALRAYRENDERSETTINGS
  2
AcDbMentalRayRenderSettings
  3
SCENEOE
 90
1024
 91
0
280
0
281
0
  0
CLASS
  1
ACDBDETAILVIEWSTYLE
  2
AcDbDetailViewStyle
  3
ObjectDBX Classes
 90
1025
 91
0
280
0
281
0
  0
CLASS
  1
ACDBSECTIONVIEWSTYLE
  2
AcDbSectionViewStyle
  3
ObjectDBX Classes
 90
1025
 91
0
280
0
281
0
  0
CLASS
  1
RASTERVARIABLES
  2
AcDbRasterVariables
  3
ISM
 90
0
 91
0
280
0
281
0
  0
CLASS
  1
LAYOUT
  2
AcDbLayout
  3
ObjectDBX Classes
 90
0
 91
0
280
0
281
0
  0
CLASS
  1
ACDBPLACEHOLDER
  2
AcDbPlaceHolder
  3
ObjectDBX Classes
 90
0
 91
0
280
0
281
0
  0
ENDSEC
  0
SECTION
  2
TABLES
  0
TABLE
  2
VPORT
  5
8
330
0
100
AcDbSymbolTable
 70
1
  0
VPORT
  5
23
330
8
100
AcDbSymbolTableRecord
100
AcDbViewportTableRecord
  2
*Active
 70
0
 10
0.0
 20
0.0
 11
1.0
 21
1.0
 12
0.0
 22
0.0
 13
0.0
 23
0.0
 14
0.5
 24
0.5
 15
0.5
 25
0.5
 16
0.0
 26
0.0
 36
1.0
 17
0.0
 27
0.0
 37
0.0
 40
1000.0
 41
1.34
 42
50.0
 43
0.0
 44
0.0
 50
0.0
 51
0.0
 71
0
 72
1000
 73
1
 74
3
 75
0
 76
0
 77
0
 78
0
281
0
 65
0
146
0.0
  0
ENDTAB
  0
TABLE
  2
LTYPE
  5
2
330
0
100
AcDbSymbolTable
 70
3
  0
LTYPE
  5
24
330
2
100
AcDbSymbolTableRecord
100
AcDbLinetypeTableRecord
  2
ByBlock
 70
0
  3

 72
65
 73
0
 40
0.0
  0
LTYPE
  5
25
330
2
100
AcDbSymbolTableRecord
100
AcDbLinetypeTableRecord
  2
ByLayer
 70
0
  3

 72
65
 73
0
 40
0.0
  0
LTYPE
  5
26
330
2
100
AcDbSymbolTableRecord
100
AcDbLinetypeTableRecord
  2
Continuous
 70
0
  3

 72
65
 73
0
 40
0.0
  0
ENDTAB
  0
TABLE
  2
LAYER
  5
1
330
0
100
AcDbSymbolTable
 70
2
  0
LAYER
  5
27
330
1
100
AcDbSymbolTableRecord
100
AcDbLayerTableRecord
  2
0
 70
0
 62
7
  6
Continuous
370
-3
390
13
347
21
  0
LAYER
  5
28
330
1
100
AcDbSymbolTableRecord
100
AcDbLayerTableRecord
  2
Defpoints
 70
0
 62
7
  6
Continuous
290
0
370
-3
390
13
347
21
  0
ENDTAB
  0
TABLE
  2
STYLE
  5
5
330
0
100
AcDbSymbolTable
 70
1
  0
STYLE
  5
29
330
5
100
AcDbSymbolTableRecord
100
AcDbTextStyleTableRecord
  2
Standard
 70
0
 40
0.0
 41
1.0
 50
0.0
 71
0
 42
2.5
  3
txt
  4

  0
ENDTAB
  0
TABLE
  2
VIEW
  5
7
330
0
100
AcDbSymbolTable
 70
0
  0
ENDTAB
  0
TABLE
  2
UCS
  5
6
330
0
100
AcDbSymbolTable
 70
0
  0
ENDTAB
  0
TABLE
  2
APPID
  5
3
330
0
100
AcDbSymbolTable
 70
3
  0
APPID
  5
2A
330
3
100
AcDbSymbolTableRecord
100
AcDbRegAppTableRecord
  2
ACAD
 70
0
  0
APPID
  5
215
330
3
100
AcDbSymbolTableRecord
100
AcDbRegAppTableRecord
  2
HATCHBACKGROUNDCOLOR
 70
0
  0
APPID
  5
216
330
3
100
AcDbSymbolTableRecord
100
AcDbRegAppTableRecord
  2
EZDXF
 70
0
  0
ENDTAB
  0
TABLE
  2
DIMSTYLE
  5
4
330
0
100
AcDbSymbolTable
 70
1
100
AcDbDimStyleTable
  0
DIMSTYLE
105
2B
330
4
100
AcDbSymbolTableRecord
100
AcDbDimStyleTableRecord
  2
Standard
 70
0
 40
1.0
 41
2.5
 42
0.625
 43
3.75
 44
1.25
 45
0.0
 46
0.0
 47
0.0
 48
0.0
 49
2.5
140
2.5
141
2.5
142
0.0
143
0.03937007874
144
1.0
145
0.0
146
1.0
147
0.625
148
0.0
 69
0
 70
0
 71
0
 72
0
 73
0
 74
0
 75
0
 76
0
 77
1
 78
8
 79
3
170
0
171
3
172
1
173
0
174
0
175
0
176
0
177
0
178
0
179
2
271
2
272
2
273
2
274
3
275
0
276
0
277
2
278
44
279
0
280
0
281
0
282
0
283
0
284
8
285
0
286
0
288
0
289
3
290
0
371
-2
372
-2
  0
ENDTAB
  0
TABLE
  2
BLOCK_RECORD
  5
9
330
0
100
AcDbSymbolTable
 70
2
  0
BLOCK_RECORD
  5
17
330
9
100
AcDbSymbolTableRecord
100
AcDbBlockTableRecord
  2
*Model_Space
340
1A
 70
0
280
1
281
0
  0
BLOCK_RECORD
  5
1B
330
9
100
AcDbSymbolTableRecord
100
AcDbBlockTableRecord
  2
*Paper_Space
340
1E
 70
0
280
1
281
0
  0
ENDTAB
  0
ENDSEC
  0
SECTION
  2
BLOCKS
  0
BLOCK
  5
18
330
17
100
AcDbEntity
  8
0
100
AcDbBlockBegin
  2
*Model_Space
 70
0
 10
0.0
 20
0.0
 30
0.0
  3
*Model_Space
  1

  0
ENDBLK
  5
19
330
17
100
AcDbEntity
  8
0
100
AcDbBlockEnd
  0
BLOCK
  5
1C
330
1B
100
AcDbEntity
  8
0
100
AcDbBlockBegin
  2
*Paper_Space
 70
0
 10
0.0
 20
0.0
 30
0.0
  3
*Paper_Space
  1

  0
ENDBLK
  5
1D
330
1B
100
AcDbEntity
  8
0
100
AcDbBlockEnd
  0
ENDSEC
  0
SECTION
  2
ENTITIES
  0
LINE
  5
2F
330
17
100
AcDbEntity
  8
0
100
AcDbLine
 10
107.7374796767
 20
68.54738908294901
 30
0.0
 11
107.7374796767
 21
70.81086462014142
 31
0.0
  0
LINE
  5
30
330
17
100
AcDbEntity
  8
0
100
AcDbLine
 10
107.7374796767
 20
68.54738908294901
 30
0.0
 11
-36.27671033542083
 21
-23.609468939544996
 31
0.0
  0
ARC
  5
31
330
17
100
AcDbEntity
  8
0
100
AcDbCircle
 10
-54.21384207889899
 20
-41.02381086845818
 30
0.0
 40
25.0
100
AcDbArc
 50
44.15275196337888
 51
103.47991712671033
  0
LINE
  5
32
330
17
100
AcDbEntity
  8
0
100
AcDbLine
 10
-119.36035264462492
 20
110.39950479801522
 30
0.0
 11
-60.041455127449424
 21
-16.71251871529688
 31
0.0
  0
ARC
  5
33
330
17
100
AcDbEntity
  8
0
100
AcDbCircle
 10
-134.24979837136712
 20
130.48194503695012
 30
0.0
 40
25.0
100
AcDbArc
 50
-53.44616480765749
 51
13.479917126710312
  0
LINE
  5
34
330
17
100
AcDbEntity
  8
0
100
AcDbLine
 10
-109.93850621820584
 20
136.30955808550056
 30
0.0
 11
-91.35712536239095
 21
144.9808623118726
 31
0.0
  0
LINE
  5
35
330
17
100
AcDbEntity
  8
0
100
AcDbLine
 10
-91.35712536239095
 20
144.9808623118726
 30
0.0
 11
-95.58597727661726
 21
154.0426949900644
 31
0.0
  0
LINE
  5
36
330
17
100
AcDbEntity
  8
0
100
AcDbLine
 10
-95.58597727661726
 20
154.0426949900644
 30
0.0
 11
-114.16735813243218
 21
145.37139076369232
 31
0.0
  0
ARC
  5
37
330
17
100
AcDbEntity
  8
0
100
AcDbCircle
 10
-134.24979837136712
 20
130.48194503695012
 30
0.0
 40
25.0
100
AcDbArc
 50
36.55383519234247
 51
103.47991712671025
  0
LINE
  5
38
330
17
100
AcDbEntity
  8
0
100
AcDbLine
 10
-140.07741141991752
 20
154.7932371901114
 30
0.0
 11
-148.7487156462896
 21
173.37461804592633
 31
0.0
  0
LINE
  5
39
330
17
100
AcDbEntity
  8
0
100
AcDbLine
 10
-148.74871564628958
 20
173.3746180459263
 30
0.0
 11
-157.81054832448137
 21
169.1457661317
 31
0.0
  0
LINE
  5
3A
330
17
100
AcDbEntity
  8
0
100
AcDbLine
 10
-149.13924409810932
 20
150.56438527588512
 30
0.0
 11
-157.81054832448137
 21
169.14576613170004
 31
0.0
  0
ARC
  5
3B
330
17
100
AcDbEntity
  8
0
100
AcDbCircle
 10
-134.24979837136712
 20
130.48194503695012
 30
0.0
 40
25.0
100
AcDbArc
 50
126.55383519234233
 51
193.4799171267103
  0
LINE
  5
3C
330
17
100
AcDbEntity
  8
0
100
AcDbLine
 10
-158.5610905245284
 20
124.6543319883997
 30
0.0
 11
-177.14247138034332
 21
115.98302776202765
 31
0.0
  0
LINE
  5
3D
330
17
100
AcDbEntity
  8
0
100
AcDbLine
 10
-177.14247138034332
 20
115.98302776202766
 30
0.0
 11
-172.913619466117
 21
106.92119508383587
 31
0.0
  0
LINE
  5
3E
330
17
100
AcDbEntity
  8
0
100
AcDbLine
 10
-172.913619466117
 20
106.92119508383587
 30
0.0
 11
-154.33223861030206
 21
115.59249931020794
 31
0.0
  0
ARC
  5
3F
330
17
100
AcDbEntity
  8
0
100
AcDbCircle
 10
-134.24979837136712
 20
130.48194503695012
 30
0.0
 40
25.0
100
AcDbArc
 50
216.5538351923424
 51
283.47991712671046
  0
LINE
  5
40
330
17
100
AcDbEntity
  8
0
100
AcDbLine
 10
-69.10328780564123
 20
-20.94137062952315
 30
0.0
 11
-128.42218532281663
 21
106.17065288378888
 31
0.0
  0
ARC
  5
41
330
17
100
AcDbEntity
  8
0
100
AcDbCircle
 10
-54.21384207889899
 20
-41.02381086845818
 30
0.0
 40
25.0
100
AcDbArc
 50
126.5538351923418
 51
152.57994185131992
  0
LINE
  5
42
330
17
100
AcDbEntity
  8
0
100
AcDbLine
 10
-206.5741678664466
 20
7.527050883365207
 30
0.0
 11
-76.40519767030895
 21
-29.51104677743234
 31
0.0
  0
ARC
  5
43
330
17
100
AcDbEntity
  8
0
100
AcDbCircle
 10
-231.50227861887166
 20
9.421594183171033
 30
0.0
 40
25.0
100
AcDbArc
 50
-4.346140083051683
 51
62.57994185131786
  0
LINE
  5
44
330
17
100
AcDbEntity
  8
0
100
AcDbLine
 10
-219.9895145278459
 20
31.61294977458057
 30
0.0
 11
-214.37776999869303
 21
51.33521016315333
 31
0.0
  0
LINE
  5
45
330
17
100
AcDbEntity
  8
0
100
AcDbLine
 10
-214.37776999869303
 20
51.33521016315333
 30
0.0
 11
-223.995990789913
 21
54.07196532416858
 31
0.0
  0
LINE
  5
46
330
17
100
AcDbEntity
  8
0
100
AcDbLine
 10
-223.995990789913
 20
54.07196532416858
 30
0.0
 11
-229.6077353190658
 21
34.34970493559612
 31
0.0
  0
ARC
  5
47
330
17
100
AcDbEntity
  8
0
100
AcDbCircle
 10
-231.50227861887166
 20
9.421594183171033
 30
0.0
 40
25.0
100
AcDbArc
 50
85.65385991694805
 51
152.57994185131784
  0
LINE
  5
48
330
17
100
AcDbEntity
  8
0
100
AcDbLine
 10
-253.6936342102812
 20
20.934358274196796
 30
0.0
 11
-273.415894598854
 21
26.546102803349676
 31
0.0
  0
LINE
  5
49
330
17
100
AcDbEntity
  8
0
100
AcDbLine
 10
-273.415894598854
 20
26.546102803349676
 30
0.0
 11
-276.15264975986923
 21
16.927882012129693
 31
0.0
  0
LINE
  5
4A
330
17
100
AcDbEntity
  8
0
100
AcDbLine
 10
-256.43038937129677
 20
11.31613748297692
 30
0.0
 11
-276.15264975986923
 21
16.927882012129693
 31
0.0
  0
ARC
  5
4B
330
17
100
AcDbEntity
  8
0
100
AcDbCircle
 10
-231.50227861887166
 20
9.421594183171033
 30
0.0
 40
25.0
100
AcDbArc
 50
175.65385991694805
 51
242.57994185131787
  0
LINE
  5
4C
330
17
100
AcDbEntity
  8
0
100
AcDbLine
 10
-243.01504270989741
 20
-12.769761408238509
 30
0.0
 11
-248.62678723905032
 21
-32.49202179681126
 31
0.0
  0
LINE
  5
4D
330
17
100
AcDbEntity
  8
0
100
AcDbLine
 10
-248.62678723905032
 20
-32.492021796811265
 30
0.0
 11
-239.00856644783033
 21
-35.22877695782652
 31
0.0
  0
LINE
  5
4E
330
17
100
AcDbEntity
  8
0
100
AcDbLine
 10
-239.00856644783033
 20
-35.22877695782652
 30
0.0
 11
-233.39682191867755
 21
-15.506516569254046
 31
0.0
  0
ARC
  5
4F
330
17
100
AcDbEntity
  8
0
100
AcDbCircle
 10
-231.50227861887166
 20
9.421594183171033
 30
0.0
 40
25.0
100
AcDbArc
 50
265.653859916948
 51
332.5799418513181
  0
LINE
  5
50
330
17
100
AcDbEntity
  8
0
100
AcDbLine
 10
-79.14195283132386
 20
-39.12926756865237
 30
0.0
 11
-209.3109230274621
 21
-2.091169907854656
 31
0.0
  0
ARC
  5
51
330
17
100
AcDbEntity
  8
0
100
AcDbCircle
 10
-54.21384207889899
 20
-41.02381086845818
 30
0.0
 40
25.0
100
AcDbArc
 50
175.65385991694933
 51
220.2198659789601
  0
LINE
  5
52
330
17
100
AcDbEntity
  8
0
100
AcDbLine
 10
-161.98473058995728
 20
-169.6864912283956
 30
0.0
 11
-73.3031467110591
 21
-57.16687280418111
 31
0.0
  0
ARC
  5
53
330
17
100
AcDbEntity
  8
0
100
AcDbCircle
 10
-173.22012851095786
 20
-192.01955715219506
 30
0.0
 40
25.0
100
AcDbArc
 50
63.29378404459172
 51
130.36128971074424
  0
LINE
  5
54
330
17
100
AcDbEntity
  8
0
100
AcDbLine
 10
-189.41025953956688
 20
-172.97015670817936
 30
0.0
 11
-205.54605615244847
 21
-160.31727959809632
 31
0.0
  0
LINE
  5
55
330
17
100
AcDbEntity
  8
0
100
AcDbLine
 10
-205.54605615244847
 20
-160.31727959809632
 30
0.0
 11
-211.71665542916548
 21
-168.18644121584057
 31
0.0
  0
LINE
  5
56
330
17
100
AcDbEntity
  8
0
100
AcDbLine
 10
-211.7166554291655
 20
-168.18644121584057
 30
0.0
 11
-195.58085881628418
 21
-180.83931832592341
 31
0.0
  0
ARC
  5
57
330
17
100
AcDbEntity
  8
0
100
AcDbCircle
 10
-173.22012851095786
 20
-192.01955715219506
 30
0.0
 40
25.0
100
AcDbArc
 50
153.4352077763748
 51
220.50271344253116
  0
LINE
  5
58
330
17
100
AcDbEntity
  8
0
100
AcDbLine
 10
-269.63370933333863
 20
-307.47104226469145
 30
0.0
 11
-192.22950870740516
 21
-208.25665863450803
 31
0.0
  0
ARC
  5
59
330
17
100
AcDbEntity
  8
0
100
AcDbCircle
 10
-280.7587209487172
 20
-329.8593007176772
 30
0.0
 40
25.0
100
AcDbArc
 50
63.576631508161114
 51
130.50271344252965
  0
LINE
  5
5A
330
17
100
AcDbEntity
  8
0
100
AcDbLine
 10
-296.99582243103
 20
-310.84992052123005
 30
0.0
 11
-313.162801078189
 21
-298.23691005911417
 31
0.0
  0
LINE
  5
5B
330
17
100
AcDbEntity
  8
0
100
AcDbLine
 10
-313.162801078189
 20
-298.23691005911417
 30
0.0
 11
-319.31395804886205
 21
-306.12127864018265
 31
0.0
  0
LINE
  5
5C
330
17
100
AcDbEntity
  8
0
100
AcDbLine
 10
-319.31395804886205
 20
-306.12127864018265
 30
0.0
 11
-303.146979401703
 21
-318.73428910229853
 31
0.0
  0
ARC
  5
5D
330
17
100
AcDbEntity
  8
0
100
AcDbCircle
 10
-280.7587209487172
 20
-329.8593007176772
 30
0.0
 40
25.0
100
AcDbArc
 50
153.57663150816063
 51
220.50271344253076
  0
LINE
  5
5E
330
17
100
AcDbEntity
  8
0
100
AcDbLine
 10
-299.7681011451645
 20
-346.0964021999901
 30
0.0
 11
-312.3811116072802
 21
-362.263380847149
 31
0.0
  0
LINE
  5
5F
330
17
100
AcDbEntity
  8
0
100
AcDbLine
 10
-312.3811116072802
 20
-362.26338084714894
 30
0.0
 11
-304.49674302621173
 21
-368.414537817822
 31
0.0
  0
LINE
  5
60
330
17
100
AcDbEntity
  8
0
100
AcDbLine
 10
-291.88373256409585
 20
-352.247559170663
 30
0.0
 11
-304.4967430262117
 21
-368.414537817822
 31
0.0
  0
ARC
  5
61
330
17
100
AcDbEntity
  8
0
100
AcDbCircle
 10
-280.7587209487172
 20
-329.8593007176772
 30
0.0
 40
25.0
100
AcDbArc
 50
243.57663150816052
 51
310.50271344253076
  0
LINE
  5
62
330
17
100
AcDbEntity
  8
0
100
AcDbLine
 10
-264.5216194664043
 20
-348.86868091412447
 30
0.0
 11
-248.35464081924542
 21
-361.4816913762402
 31
0.0
  0
LINE
  5
63
330
17
100
AcDbEntity
  8
0
100
AcDbLine
 10
-248.35464081924545
 20
-361.4816913762402
 30
0.0
 11
-242.2034838485724
 21
-353.5973227951717
 31
0.0
  0
LINE
  5
64
330
17
100
AcDbEntity
  8
0
100
AcDbLine
 10
-242.20348384857238
 20
-353.59732279517164
 30
0.0
 11
-258.37046249573143
 21
-340.98431233305575
 31
0.0
  0
ARC
  5
65
330
17
100
AcDbEntity
  8
0
100
AcDbCircle
 10
-280.7587209487172
 20
-329.8593007176772
 30
0.0
 40
25.0
100
AcDbArc
 50
-26.423368491838897
 51
40.50271344253058
  0
LINE
  5
66
330
17
100
AcDbEntity
  8
0
100
AcDbLine
 10
-184.34514012633633
 20
-214.4078156051809
 30
0.0
 11
-261.74934075227
 21
-313.6221992353644
 31
0.0
  0
ARC
  5
67
330
17
100
AcDbEntity
  8
0
100
AcDbCircle
 10
-173.22012851095786
 20
-192.01955715219506
 30
0.0
 40
25.0
100
AcDbArc
 50
243.57663150816094
 51
310.36128971074316
  0
LINE
  5
68
330
17
100
AcDbEntity
  8
0
100
AcDbLine
 10
-157.02999748234902
 20
-211.06895759621068
 30
0.0
 11
-140.89420086946728
 21
-223.72183470629386
 31
0.0
  0
LINE
  5
69
330
17
100
AcDbEntity
  8
0
100
AcDbLine
 10
-140.89420086946728
 20
-223.72183470629386
 30
0.0
 11
-134.72360159275024
 21
-215.8526730885496
 31
0.0
  0
LINE
  5
6A
330
17
100
AcDbEntity
  8
0
100
AcDbLine
 10
-134.72360159275024
 20
-215.8526730885496
 30
0.0
 11
-150.85939820563158
 21
-203.19979597846674
 31
0.0
  0
ARC
  5
6B
330
17
100
AcDbEntity
  8
0
100
AcDbCircle
 10
-173.22012851095786
 20
-192.01955715219506
 30
0.0
 40
25.0
100
AcDbArc
 50
-26.564792223625382
 51
40.219865978961515
  0
LINE
  5
6C
330
17
100
AcDbEntity
  8
0
100
AcDbLine
 10
-154.1308238787976
 20
-175.87649521647194
 30
0.0
 11
-65.44923999989936
 21
-63.356876792257395
 31
0.0
  0
ARC
  5
6D
330
17
100
AcDbEntity
  8
0
100
AcDbCircle
 10
-54.21384207889899
 20
-41.02381086845818
 30
0.0
 40
25.0
100
AcDbArc
 50
243.2937840445937
 51
286.5833372506714
  0
LINE
  5
6E
330
17
100
AcDbEntity
  8
0
100
AcDbLine
 10
-47.07860067610816
 20
-64.98395131303593
 30
0.0
 11
19.90128098735456
 21
-190.31924507380145
 31
0.0
  0
ARC
  5
6F
330
17
100
AcDbEntity
  8
0
100
AcDbCircle
 10
35.85612199866438
 20
-209.56614218226645
 30
0.0
 40
25.0
100
AcDbArc
 50
129.65725531630198
 51
207.72863439119863
  0
LINE
  5
70
330
17
100
AcDbEntity
  8
0
100
AcDbLine
 10
13.727091906529456
 20
-221.19825407913933
 30
0.0
 11
-2.1483772288767398
 21
-234.17626283340968
 31
0.0
  0
LINE
  5
71
330
17
100
AcDbEntity
  8
0
100
AcDbLine
 10
-2.1483772288767327
 20
-234.17626283340968
 30
0.0
 11
4.180783383021566
 21
-241.9184670382079
 31
0.0
  0
LINE
  5
72
330
17
100
AcDbEntity
  8
0
100
AcDbLine
 10
4.180783383021566
 20
-241.9184670382079
 30
0.0
 11
20.056252518427478
 21
-228.94045828393777
 31
0.0
  0
ARC
  5
73
330
17
100
AcDbEntity
  8
0
100
AcDbCircle
 10
35.85612199866438
 20
-209.56614218226645
 30
0.0
 40
25.0
100
AcDbArc
 50
230.80255245683134
 51
308.8739315317309
  0
LINE
  5
74
330
17
100
AcDbEntity
  8
0
100
AcDbLine
 10
51.546344676880395
 20
-229.0293616566497
 30
0.0
 11
67.34828184828471
 21
-242.09680261217412
 31
0.0
  0
LINE
  5
75
330
17
100
AcDbEntity
  8
0
100
AcDbLine
 10
67.34828184828471
 20
-242.09680261217412
 30
0.0
 11
73.72105706827371
 21
-234.3904587322597
 31
0.0
  0
LINE
  5
76
330
17
100
AcDbEntity
  8
0
100
AcDbLine
 10
73.72105706827371
 20
-234.3904587322597
 30
0.0
 11
57.91911989686915
 21
-221.3230177767351
 31
0.0
  0
ARC
  5
77
330
17
100
AcDbEntity
  8
0
100
AcDbCircle
 10
35.85612199866438
 20
-209.56614218226645
 30
0.0
 40
25.0
100
AcDbArc
 50
-28.0521504026404
 51
50.019228672255934
  0
LINE
  5
78
330
17
100
AcDbEntity
  8
0
100
AcDbLine
 10
51.91938415336561
 20
-190.40963913632055
 30
0.0
 11
96.12079260200602
 21
-108.81004403824222
 31
0.0
  0
ARC
  5
79
330
17
100
AcDbEntity
  8
0
100
AcDbCircle
 10
103.39120854934899
 20
-84.8905738945992
 30
0.0
 40
25.0
100
AcDbArc
 50
253.09314673788703
 51
332.46670947224464
  0
LINE
  5
7A
330
17
100
AcDbEntity
  8
0
100
AcDbLine
 10
125.55976839899294
 20
-96.44717175870883
 30
0.0
 11
145.27089991411015
 21
-102.09788196972677
 31
0.0
  0
LINE
  5
7B
330
17
100
AcDbEntity
  8
0
100
AcDbLine
 10
145.27089991411015
 20
-102.09788196972677
 30
0.0
 11
148.02665799487568
 21
-92.48508854636145
 31
0.0
  0
LINE
  5
7C
330
17
100
AcDbEntity
  8
0
100
AcDbLine
 10
148.02665799487568
 20
-92.48508854636145
 30
0.0
 11
128.31552647975855
 21
-86.83437833534353
 31
0.0
  0
ARC
  5
7D
330
17
100
AcDbEntity
  8
0
100
AcDbCircle
 10
103.39120854934899
 20
-84.8905738945992
 30
0.0
 40
25.0
100
AcDbArc
 50
-4.459372462122094
 51
74.914190272235
  0
LINE
  5
7E
330
17
100
AcDbEntity
  8
0
100
AcDbLine
 10
117.41650944004782
 20
60.480568899588036
 30
0.0
 11
109.89784317365586
 21
-60.75214590382542
 31
0.0
  0
LINE
  5
7F
330
17
100
AcDbEntity
  8
0
100
AcDbLine
 10
117.41650944004782
 20
60.480568899588036
 30
0.0
 11
276.70501269633223
 21
49.630699213205446
 31
0.0
  0
ARC
  5
80
330
17
100
AcDbEntity
  8
0
100
AcDbCircle
 10
301.4830694583354
 20
52.95453782224757
 30
0.0
 40
25.0
100
AcDbArc
 50
187.64029987825268
 51
254.56638181262028
  0
LINE
  5
81
330
17
100
AcDbEntity
  8
0
100
AcDbLine
 10
294.8300256371141
 20
28.856052228482746
 30
0.0
 11
288.67955980846926
 21
-61.43982454166347
 31
0.0
  0
LINE
  5
82
330
17
100
AcDbEntity
  8
0
100
AcDbLine
 10
288.67955980846926
 20
-61.439824541663455
 30
0.0
 11
298.6564422387327
 21
-62.119395709901234
 31
0.0
  0
LINE
  5
83
330
17
100
AcDbEntity
  8
0
100
AcDbLine
 10
298.6564422387327
 20
-62.11939570990123
 30
0.0
 11
304.80690806737755
 21
28.176481060244484
 31
0.0
  0
ARC
  5
84
330
17
100
AcDbEntity
  8
0
100
AcDbCircle
 10
301.4830694583354
 20
52.95453782224757
 30
0.0
 40
25.0
100
AcDbArc
 50
277.6402998782527
 51
344.56638181262025
  0
LINE
  5
85
330
17
100
AcDbEntity
  8
0
100
AcDbLine
 10
325.5815550521002
 20
46.30149400102625
 30
0.0
 11
346.03925481040216
 21
44.908026350045844
 31
0.0
  0
LINE
  5
86
330
17
100
AcDbEntity
  8
0
100
AcDbLine
 10
346.03925481040216
 20
44.908026350045844
 30
0.0
 11
346.7188259786399
 21
54.88490878030932
 31
0.0
  0
LINE
  5
87
330
17
100
AcDbEntity
  8
0
100
AcDbLine
 10
326.2611262203385
 20
56.27837643128967
 30
0.0
 11
346.7188259786399
 21
54.88490878030932
 31
0.0
  0
ARC
  5
88
330
17
100
AcDbEntity
  8
0
100
AcDbCircle
 10
301.4830694583354
 20
52.95453782224757
 30
0.0
 40
25.0
100
AcDbArc
 50
7.640299878252622
 51
74.56638181262028
  0
LINE
  5
89
330
17
100
AcDbEntity
  8
0
100
AcDbLine
 10
308.13611327955675
 20
77.0530234160124
 30
0.0
 11
309.5295809305371
 21
97.51072317431431
 31
0.0
  0
LINE
  5
8A
330
17
100
AcDbEntity
  8
0
100
AcDbLine
 10
309.5295809305371
 20
97.51072317431431
 30
0.0
 11
299.55269850027366
 21
98.19029434255208
 31
0.0
  0
LINE
  5
8B
330
17
100
AcDbEntity
  8
0
100
AcDbLine
 10
299.55269850027366
 20
98.19029434255208
 30
0.0
 11
298.1592308492933
 21
77.73259458425066
 31
0.0
  0
ARC
  5
8C
330
17
100
AcDbEntity
  8
0
100
AcDbCircle
 10
301.4830694583354
 20
52.95453782224757
 30
0.0
 40
25.0
100
AcDbArc
 50
97.64029987825269
 51
164.56638181262042
  0
LINE
  5
8D
330
17
100
AcDbEntity
  8
0
100
AcDbLine
 10
118.70254552336968
 20
70.41614222615908
 30
0.0
 11
277.3845838645706
 21
59.607581643468855
 31
0.0
  0
LINE
  5
8E
330
17
100
AcDbEntity
  8
0
100
AcDbLine
 10
146.95093267076527
 20
219.0052801005328
 30
0.0
 11
118.70254552336968
 21
70.41614222615908
 31
0.0
  0
ARC
  5
8F
330
17
100
AcDbEntity
  8
0
100
AcDbCircle
 10
146.6137149070091
 20
244.0030056806691
 30
0.0
 40
25.0
100
AcDbArc
 50
270.7728696234793
 51
337.69895155784747
  0
LINE
  5
90
330
17
100
AcDbEntity
  8
0
100
AcDbLine
 10
169.7437842732794
 20
234.5161784390923
 30
0.0
 11
189.88808932407431
 21
230.6865302156051
 31
0.0
  0
LINE
  5
91
330
17
100
AcDbEntity
  8
0
100
AcDbLine
 10
189.88808932407431
 20
230.6865302156051
 30
0.0
 11
191.75574553794044
 21
240.51057522093805
 31
0.0
  0
LINE
  5
92
330
17
100
AcDbEntity
  8
0
100
AcDbLine
 10
191.7557455379404
 20
240.51057522093805
 30
0.0
 11
171.6114404871454
 21
244.34022344442528
 31
0.0
  0
ARC
  5
93
330
17
100
AcDbEntity
  8
0
100
AcDbCircle
 10
146.6137149070091
 20
244.0030056806691
 30
0.0
 40
25.0
100
AcDbArc
 50
0.7728696234793854
 51
67.69895155784752
  0
LINE
  5
94
330
17
100
AcDbEntity
  8
0
100
AcDbLine
 10
156.1005421485859
 20
267.13307504693944
 30
0.0
 11
159.9301903720731
 21
287.27738009773435
 31
0.0
  0
LINE
  5
95
330
17
100
AcDbEntity
  8
0
100
AcDbLine
 10
159.9301903720731
 20
287.2773800977343
 30
0.0
 11
150.10614536674015
 21
289.1450363116004
 31
0.0
  0
LINE
  5
96
330
17
100
AcDbEntity
  8
0
100
AcDbLine
 10
146.27649714325293
 20
269.0007312608054
 30
0.0
 11
150.10614536674015
 21
289.14503631160045
 31
0.0
  0
ARC
  5
97
330
17
100
AcDbEntity
  8
0
100
AcDbCircle
 10
146.6137149070091
 20
244.0030056806691
 30
0.0
 40
25.0
100
AcDbArc
 50
90.77286962347938
 51
157.6989515578475
  0
LINE
  5
98
330
17
100
AcDbEntity
  8
0
100
AcDbLine
 10
123.48364554073876
 20
253.4898329222459
 30
0.0
 11
103.33934048994387
 21
257.3194811457331
 31
0.0
  0
LINE
  5
99
330
17
100
AcDbEntity
  8
0
100
AcDbLine
 10
103.33934048994388
 20
257.3194811457331
 30
0.0
 11
101.47168427607775
 21
247.49543614040016
 31
0.0
  0
LINE
  5
9A
330
17
100
AcDbEntity
  8
0
100
AcDbLine
 10
101.47168427607775
 20
247.49543614040016
 30
0.0
 11
121.61598932687282
 21
243.6657879169129
 31
0.0
  0
ARC
  5
9B
330
17
100
AcDbEntity
  8
0
100
AcDbCircle
 10
146.6137149070091
 20
244.0030056806691
 30
0.0
 40
25.0
100
AcDbArc
 50
180.77286962347938
 51
247.6989515578474
  0
LINE
  5
9C
330
17
100
AcDbEntity
  8
0
100
AcDbLine
 10
108.598480017334
 20
70.81086462014142
 30
0.0
 11
137.1268876654323
 21
220.8729363143988
 31
0.0
  0
LINE
  5
9D
330
17
100
AcDbEntity
  8
0
100
AcDbLine
 10
107.7374796767
 20
70.81086462014142
 30
0.0
 11
108.598480017334
 21
70.81086462014142
 31
0.0
  0
LINE
  5
9E
330
17
100
AcDbEntity
  8
0
100
AcDbLine
 10
107.13748075784528
 20
56.29124055220973
 30
0.0
 11
99.91701932046156
 21
-60.13315057952326
 31
0.0
  0
ARC
  5
9F
330
17
100
AcDbEntity
  8
0
100
AcDbCircle
 10
103.39120854934899
 20
-84.8905738945992
 30
0.0
 40
25.0
100
AcDbArc
 50
97.98810833786793
 51
152.90937529866108
  0
LINE
  5
A0
330
17
100
AcDbEntity
  8
0
100
AcDbLine
 10
81.13402521362596
 20
-73.50559300045614
 30
0.0
 11
-29.27525038251592
 21
-42.774994525614034
 31
0.0
  0
ARC
  5
A1
330
17
100
AcDbEntity
  8
0
100
AcDbCircle
 10
-54.21384207889899
 20
-41.02381086845818
 30
0.0
 40
25.0
100
AcDbArc
 50
-4.016706635706527
 51
21.078833897748353
  0
LINE
  5
A2
330
17
100
AcDbEntity
  8
0
100
AcDbLine
 10
107.13748075784528
 20
56.29124055220973
 30
0.0
 11
-30.886680565748037
 21
-32.032507529153925
 31
0.0
  0
LINE
  5
A3
330
17
100
AcDbEntity
  8
0
100
AcDbLine
 10
78.45261685296583
 20
-83.13939023744332
 30
0.0
 11
-31.956658743175566
 21
-52.408791762601325
 31
0.0
  0
ARC
  5
A4
330
17
100
AcDbEntity
  8
0
100
AcDbCircle
 10
103.39120854934899
 20
-84.8905738945992
 30
0.0
 40
25.0
100
AcDbArc
 50
175.98329336429325
 51
230.01922867225645
  0
LINE
  5
A5
330
17
100
AcDbEntity
  8
0
100
AcDbLine
 10
43.12653794600736
 20
-185.64667203862336
 30
0.0
 11
87.32794639464771
 21
-104.04707694054517
 31
0.0
  0
ARC
  5
A6
330
17
100
AcDbEntity
  8
0
100
AcDbCircle
 10
35.85612199866438
 20
-209.56614218226645
 30
0.0
 40
25.0
100
AcDbArc
 50
73.09314673788649
 51
106.58333725067142
  0
LINE
  5
A7
330
17
100
AcDbEntity
  8
0
100
AcDbLine
 10
-38.25900106758916
 20
-60.27070797692319
 30
0.0
 11
28.72088059587354
 21
-185.6060017376887
 31
0.0
  0
ARC
  5
A8
330
17
100
AcDbEntity
  8
0
100
AcDbCircle
 10
-54.21384207889899
 20
-41.02381086845818
 30
0.0
 40
25.0
100
AcDbArc
 50
309.65725531630176
 51
332.9093752986637
  0
LINE
  5
A9
330
17
100
AcDbEntity
  8
0
100
AcDbLine
 10
107.7374796767
 20
68.54738908294901
 30
5.0
 11
107.7374796767
 21
70.81086462014142
 31
5.0
  0
LINE
  5
AA
330
17
100
AcDbEntity
  8
0
100
AcDbLine
 10
107.7374796767
 20
70.81086462014142
 30
0.0
 11
107.7374796767
 21
70.81086462014142
 31
5.0
  0
LINE
  5
AB
330
17
100
AcDbEntity
  8
0
100
AcDbLine
 10
107.73747967670002
 20
68.547389082949
 30
0.0
 11
107.73747967670002
 21
68.547389082949
 31
5.0
  0
LINE
  5
AC
330
17
100
AcDbEntity
  8
0
100
AcDbLine
 10
108.59848001733398
 20
70.81086462014142
 30
0.0
 11
108.59848001733398
 21
70.81086462014142
 31
5.0
  0
LINE
  5
AD
330
17
100
AcDbEntity
  8
0
100
AcDbLine
 10
107.7374796767
 20
70.81086462014142
 30
5.0
 11
108.598480017334
 21
70.81086462014142
 31
5.0
  0
LINE
  5
AE
330
17
100
AcDbEntity
  8
0
100
AcDbLine
 10
-291.88373256409585
 20
-352.247559170663
 30
5.0
 11
-304.4967430262117
 21
-368.414537817822
 31
5.0
  0
LINE
  5
AF
330
17
100
AcDbEntity
  8
0
100
AcDbLine
 10
-304.4967430262117
 20
-368.414537817822
 30
0.0
 11
-304.4967430262117
 21
-368.414537817822
 31
5.0
  0
LINE
  5
B0
330
17
100
AcDbEntity
  8
0
100
AcDbLine
 10
-291.88373256409585
 20
-352.24755917066295
 30
5.0
 11
-291.88373256409585
 21
-352.24755917066295
 31
0.0
  0
LINE
  5
B1
330
17
100
AcDbEntity
  8
0
100
AcDbLine
 10
-312.3811116072802
 20
-362.26338084714894
 30
0.0
 11
-312.3811116072802
 21
-362.26338084714894
 31
5.0
  0
LINE
  5
B2
330
17
100
AcDbEntity
  8
0
100
AcDbLine
 10
-312.3811116072802
 20
-362.26338084714894
 30
5.0
 11
-304.49674302621173
 21
-368.414537817822
 31
5.0
  0
LINE
  5
B3
330
17
100
AcDbEntity
  8
0
100
AcDbLine
 10
-299.7681011451645
 20
-346.0964021999901
 30
5.0
 11
-312.3811116072802
 21
-362.263380847149
 31
5.0
  0
LINE
  5
B4
330
17
100
AcDbEntity
  8
0
100
AcDbLine
 10
-299.7681011451644
 20
-346.09640219998994
 30
5.0
 11
-299.7681011451644
 21
-346.09640219998994
 31
0.0
  0
ARC
  5
B5
330
17
100
AcDbEntity
  8
0
100
AcDbCircle
 10
-280.7587209487172
 20
-329.8593007176772
 30
5.0
 40
25.0
100
AcDbArc
 50
153.57663150816063
 51
220.50271344253076
  0
LINE
  5
B6
330
17
100
AcDbEntity
  8
0
100
AcDbLine
 10
-303.146979401703
 20
-318.73428910229853
 30
5.0
 11
-303.146979401703
 21
-318.73428910229853
 31
0.0
  0
LINE
  5
B7
330
17
100
AcDbEntity
  8
0
100
AcDbLine
 10
-319.31395804886205
 20
-306.12127864018265
 30
5.0
 11
-303.146979401703
 21
-318.73428910229853
 31
5.0
  0
LINE
  5
B8
330
17
100
AcDbEntity
  8
0
100
AcDbLine
 10
-319.31395804886205
 20
-306.12127864018265
 30
0.0
 11
-319.31395804886205
 21
-306.12127864018265
 31
5.0
  0
LINE
  5
B9
330
17
100
AcDbEntity
  8
0
100
AcDbLine
 10
-313.162801078189
 20
-298.23691005911417
 30
0.0
 11
-313.162801078189
 21
-298.23691005911417
 31
5.0
  0
LINE
  5
BA
330
17
100
AcDbEntity
  8
0
100
AcDbLine
 10
-313.162801078189
 20
-298.23691005911417
 30
5.0
 11
-319.31395804886205
 21
-306.12127864018265
 31
5.0
  0
LINE
  5
BB
330
17
100
AcDbEntity
  8
0
100
AcDbLine
 10
-296.99582243103
 20
-310.84992052123005
 30
5.0
 11
-313.162801078189
 21
-298.23691005911417
 31
5.0
  0
LINE
  5
BC
330
17
100
AcDbEntity
  8
0
100
AcDbLine
 10
-296.99582243103
 20
-310.84992052123
 30
5.0
 11
-296.99582243103
 21
-310.84992052123
 31
0.0
  0
ARC
  5
BD
330
17
100
AcDbEntity
  8
0
100
AcDbCircle
 10
-280.7587209487172
 20
-329.8593007176772
 30
5.0
 40
25.0
100
AcDbArc
 50
63.576631508161114
 51
130.50271344252965
  0
LINE
  5
BE
330
17
100
AcDbEntity
  8
0
100
AcDbLine
 10
-269.6337093333385
 20
-307.4710422646914
 30
5.0
 11
-269.6337093333385
 21
-307.4710422646914
 31
0.0
  0
LINE
  5
BF
330
17
100
AcDbEntity
  8
0
100
AcDbLine
 10
-210.9936761401939
 20
-232.30800586273534
 30
5.0
 11
-269.63370933333863
 21
-307.47104226469145
 31
5.0
  0
LINE
  5
C0
330
17
100
AcDbEntity
  8
0
100
AcDbLine
 10
-210.9936761401939
 20
-232.30800586273534
 30
2.5
 11
-210.9936761401939
 21
-232.30800586273534
 31
5.0
  0
LINE
  5
C1
330
17
100
AcDbEntity
  8
0
100
AcDbLine
 10
-204.84251916952087
 20
-224.42363728166683
 30
2.5
 11
-210.9936761401939
 21
-232.30800586273534
 31
2.5
  0
LINE
  5
C2
330
17
100
AcDbEntity
  8
0
100
AcDbLine
 10
-204.84251916952087
 20
-224.42363728166686
 30
2.5
 11
-204.84251916952087
 21
-224.42363728166686
 31
5.0
  0
LINE
  5
C3
330
17
100
AcDbEntity
  8
0
100
AcDbLine
 10
-192.22950870740516
 20
-208.25665863450803
 30
5.0
 11
-204.84251916952084
 21
-224.42363728166683
 31
5.0
  0
LINE
  5
C4
330
17
100
AcDbEntity
  8
0
100
AcDbLine
 10
-192.229508707405
 20
-208.2566586345078
 30
5.0
 11
-192.229508707405
 21
-208.2566586345078
 31
0.0
  0
ARC
  5
C5
330
17
100
AcDbEntity
  8
0
100
AcDbCircle
 10
-173.22012851095786
 20
-192.01955715219506
 30
5.0
 40
25.0
100
AcDbArc
 50
153.4352077763748
 51
220.50271344253116
  0
LINE
  5
C6
330
17
100
AcDbEntity
  8
0
100
AcDbLine
 10
-195.58085881628404
 20
-180.83931832592359
 30
5.0
 11
-195.58085881628404
 21
-180.83931832592359
 31
0.0
  0
LINE
  5
C7
330
17
100
AcDbEntity
  8
0
100
AcDbLine
 10
-211.7166554291655
 20
-168.18644121584057
 30
5.0
 11
-195.58085881628418
 21
-180.83931832592341
 31
5.0
  0
LINE
  5
C8
330
17
100
AcDbEntity
  8
0
100
AcDbLine
 10
-211.7166554291655
 20
-168.18644121584057
 30
0.0
 11
-211.7166554291655
 21
-168.18644121584057
 31
5.0
  0
LINE
  5
C9
330
17
100
AcDbEntity
  8
0
100
AcDbLine
 10
-205.54605615244847
 20
-160.31727959809632
 30
0.0
 11
-205.54605615244847
 21
-160.31727959809632
 31
5.0
  0
LINE
  5
CA
330
17
100
AcDbEntity
  8
0
100
AcDbLine
 10
-205.54605615244847
 20
-160.31727959809632
 30
5.0
 11
-211.71665542916548
 21
-168.18644121584057
 31
5.0
  0
LINE
  5
CB
330
17
100
AcDbEntity
  8
0
100
AcDbLine
 10
-189.41025953956688
 20
-172.97015670817936
 30
5.0
 11
-205.54605615244847
 21
-160.31727959809632
 31
5.0
  0
LINE
  5
CC
330
17
100
AcDbEntity
  8
0
100
AcDbLine
 10
-189.410259539567
 20
-172.9701567081793
 30
5.0
 11
-189.410259539567
 21
-172.9701567081793
 31
0.0
  0
ARC
  5
CD
330
17
100
AcDbEntity
  8
0
100
AcDbCircle
 10
-173.22012851095786
 20
-192.01955715219506
 30
5.0
 40
25.0
100
AcDbArc
 50
63.29378404459187
 51
130.3612897107442
  0
LINE
  5
CE
330
17
100
AcDbEntity
  8
0
100
AcDbLine
 10
-161.98473058995725
 20
-169.68649122839557
 30
5.0
 11
-161.98473058995725
 21
-169.68649122839557
 31
0.0
  0
LINE
  5
CF
330
17
100
AcDbEntity
  8
0
100
AcDbLine
 10
-92.1858173688996
 20
-81.12529578579735
 30
5.0
 11
-161.98473058995728
 21
-169.6864912283956
 31
5.0
  0
LINE
  5
D0
330
17
100
AcDbEntity
  8
0
100
AcDbLine
 10
-92.1858173688996
 20
-81.12529578579735
 30
2.5
 11
-92.1858173688996
 21
-81.12529578579735
 31
5.0
  0
LINE
  5
D1
330
17
100
AcDbEntity
  8
0
100
AcDbLine
 10
-85.9958133808231
 20
-73.27138907463782
 30
2.5
 11
-92.1858173688996
 21
-81.12529578579736
 31
2.5
  0
LINE
  5
D2
330
17
100
AcDbEntity
  8
0
100
AcDbLine
 10
-85.99581338082311
 20
-73.27138907463782
 30
2.5
 11
-85.99581338082311
 21
-73.27138907463782
 31
5.0
  0
LINE
  5
D3
330
17
100
AcDbEntity
  8
0
100
AcDbLine
 10
-73.30314671105913
 20
-57.166872804181125
 30
5.0
 11
-85.99581338082311
 21
-73.27138907463782
 31
5.0
  0
LINE
  5
D4
330
17
100
AcDbEntity
  8
0
100
AcDbLine
 10
-73.30314671105916
 20
-57.16687280418117
 30
5.0
 11
-73.30314671105916
 21
-57.16687280418117
 31
0.0
  0
ARC
  5
D5
330
17
100
AcDbEntity
  8
0
100
AcDbCircle
 10
-54.21384207889899
 20
-41.02381086845818
 30
5.0
 40
25.0
100
AcDbArc
 50
175.6538599169494
 51
220.2198659789601
  0
LINE
  5
D6
330
17
100
AcDbEntity
  8
0
100
AcDbLine
 10
-79.14195283132389
 20
-39.12926756865258
 30
5.0
 11
-79.14195283132389
 21
-39.12926756865258
 31
0.0
  0
LINE
  5
D7
330
17
100
AcDbEntity
  8
0
100
AcDbLine
 10
-98.86421321989656
 20
-33.51752303949957
 30
5.0
 11
-79.14195283132388
 21
-39.12926756865241
 31
5.0
  0
LINE
  5
D8
330
17
100
AcDbEntity
  8
0
100
AcDbLine
 10
-98.86421321989656
 20
-33.51752303949957
 30
2.5
 11
-98.86421321989656
 21
-33.51752303949957
 31
5.0
  0
LINE
  5
D9
330
17
100
AcDbEntity
  8
0
100
AcDbLine
 10
-108.48243401111657
 20
-30.78076787848447
 30
2.5
 11
-98.86421321989658
 21
-33.51752303949972
 31
2.5
  0
LINE
  5
DA
330
17
100
AcDbEntity
  8
0
100
AcDbLine
 10
-108.48243401111657
 20
-30.78076787848447
 30
2.5
 11
-108.48243401111657
 21
-30.78076787848447
 31
5.0
  0
LINE
  5
DB
330
17
100
AcDbEntity
  8
0
100
AcDbLine
 10
-108.48243401111657
 20
-30.78076787848447
 30
5.0
 11
-209.3109230274621
 21
-2.091169907854738
 31
5.0
  0
LINE
  5
DC
330
17
100
AcDbEntity
  8
0
100
AcDbLine
 10
-209.31092302746202
 20
-2.0911699078547556
 30
5.0
 11
-209.31092302746202
 21
-2.0911699078547556
 31
0.0
  0
ARC
  5
DD
330
17
100
AcDbEntity
  8
0
100
AcDbCircle
 10
-231.50227861887166
 20
9.421594183171033
 30
5.0
 40
25.0
100
AcDbArc
 50
265.653859916948
 51
332.57994185131787
  0
LINE
  5
DE
330
17
100
AcDbEntity
  8
0
100
AcDbLine
 10
-233.39682191867746
 20
-15.506516569253847
 30
5.0
 11
-233.39682191867746
 21
-15.506516569253847
 31
0.0
  0
LINE
  5
DF
330
17
100
AcDbEntity
  8
0
100
AcDbLine
 10
-239.00856644783033
 20
-35.22877695782652
 30
5.0
 11
-233.39682191867755
 21
-15.506516569254046
 31
5.0
  0
LINE
  5
E0
330
17
100
AcDbEntity
  8
0
100
AcDbLine
 10
-239.00856644783033
 20
-35.22877695782652
 30
0.0
 11
-239.00856644783033
 21
-35.22877695782652
 31
5.0
  0
LINE
  5
E1
330
17
100
AcDbEntity
  8
0
100
AcDbLine
 10
-248.62678723905032
 20
-32.492021796811265
 30
0.0
 11
-248.62678723905032
 21
-32.492021796811265
 31
5.0
  0
LINE
  5
E2
330
17
100
AcDbEntity
  8
0
100
AcDbLine
 10
-248.62678723905032
 20
-32.492021796811265
 30
5.0
 11
-239.00856644783033
 21
-35.22877695782652
 31
5.0
  0
LINE
  5
E3
330
17
100
AcDbEntity
  8
0
100
AcDbLine
 10
-243.01504270989741
 20
-12.769761408238509
 30
5.0
 11
-248.62678723905032
 21
-32.49202179681126
 31
5.0
  0
LINE
  5
E4
330
17
100
AcDbEntity
  8
0
100
AcDbLine
 10
-243.01504270989747
 20
-12.76976140823858
 30
5.0
 11
-243.01504270989747
 21
-12.76976140823858
 31
0.0
  0
ARC
  5
E5
330
17
100
AcDbEntity
  8
0
100
AcDbCircle
 10
-231.50227861887166
 20
9.421594183171033
 30
5.0
 40
25.0
100
AcDbArc
 50
175.6538599169481
 51
242.57994185131787
  0
LINE
  5
E6
330
17
100
AcDbEntity
  8
0
100
AcDbLine
 10
-256.43038937129654
 20
11.316137482976824
 30
5.0
 11
-256.43038937129654
 21
11.316137482976824
 31
0.0
  0
LINE
  5
E7
330
17
100
AcDbEntity
  8
0
100
AcDbLine
 10
-256.43038937129666
 20
11.316137482976863
 30
5.0
 11
-276.15264975986923
 21
16.92788201212968
 31
5.0
  0
LINE
  5
E8
330
17
100
AcDbEntity
  8
0
100
AcDbLine
 10
-276.15264975986923
 20
16.92788201212969
 30
0.0
 11
-276.15264975986923
 21
16.92788201212969
 31
5.0
  0
LINE
  5
E9
330
17
100
AcDbEntity
  8
0
100
AcDbLine
 10
-273.415894598854
 20
26.546102803349676
 30
0.0
 11
-273.415894598854
 21
26.546102803349676
 31
5.0
  0
LINE
  5
EA
330
17
100
AcDbEntity
  8
0
100
AcDbLine
 10
-273.415894598854
 20
26.546102803349676
 30
5.0
 11
-276.15264975986923
 21
16.927882012129693
 31
5.0
  0
LINE
  5
EB
330
17
100
AcDbEntity
  8
0
100
AcDbLine
 10
-253.6936342102812
 20
20.934358274196796
 30
5.0
 11
-273.415894598854
 21
26.546102803349676
 31
5.0
  0
LINE
  5
EC
330
17
100
AcDbEntity
  8
0
100
AcDbLine
 10
-253.6936342102813
 20
20.934358274196818
 30
5.0
 11
-253.6936342102813
 21
20.934358274196818
 31
0.0
  0
ARC
  5
ED
330
17
100
AcDbEntity
  8
0
100
AcDbCircle
 10
-231.50227861887166
 20
9.421594183171033
 30
5.0
 40
25.0
100
AcDbArc
 50
85.65385991694805
 51
152.57994185131784
  0
LINE
  5
EE
330
17
100
AcDbEntity
  8
0
100
AcDbLine
 10
-229.60773531906585
 20
34.34970493559591
 30
5.0
 11
-229.60773531906585
 21
34.34970493559591
 31
0.0
  0
LINE
  5
EF
330
17
100
AcDbEntity
  8
0
100
AcDbLine
 10
-223.995990789913
 20
54.07196532416858
 30
5.0
 11
-229.6077353190658
 21
34.34970493559612
 31
5.0
  0
LINE
  5
F0
330
17
100
AcDbEntity
  8
0
100
AcDbLine
 10
-223.995990789913
 20
54.07196532416858
 30
0.0
 11
-223.995990789913
 21
54.07196532416858
 31
5.0
  0
LINE
  5
F1
330
17
100
AcDbEntity
  8
0
100
AcDbLine
 10
-214.37776999869303
 20
51.33521016315333
 30
0.0
 11
-214.37776999869303
 21
51.33521016315333
 31
5.0
  0
LINE
  5
F2
330
17
100
AcDbEntity
  8
0
100
AcDbLine
 10
-214.37776999869303
 20
51.33521016315333
 30
5.0
 11
-223.995990789913
 21
54.07196532416858
 31
5.0
  0
LINE
  5
F3
330
17
100
AcDbEntity
  8
0
100
AcDbLine
 10
-219.9895145278459
 20
31.612949774580564
 30
5.0
 11
-214.37776999869303
 21
51.33521016315333
 31
5.0
  0
LINE
  5
F4
330
17
100
AcDbEntity
  8
0
100
AcDbLine
 10
-219.98951452784587
 20
31.612949774580656
 30
5.0
 11
-219.98951452784587
 21
31.612949774580656
 31
0.0
  0
LINE
  5
F5
330
17
100
AcDbEntity
  8
0
100
AcDbLine
 10
-206.57416786644677
 20
7.52705088336522
 30
5.0
 11
-206.57416786644677
 21
7.52705088336522
 31
0.0
  0
ARC
  5
F6
330
17
100
AcDbEntity
  8
0
100
AcDbCircle
 10
-231.50227861887166
 20
9.421594183171033
 30
5.0
 40
25.0
100
AcDbArc
 50
-4.346140083051779
 51
62.57994185131784
  0
LINE
  5
F7
330
17
100
AcDbEntity
  8
0
100
AcDbLine
 10
-76.40519767030872
 20
-29.511046777432583
 30
5.0
 11
-76.40519767030872
 21
-29.511046777432583
 31
0.0
  0
LINE
  5
F8
330
17
100
AcDbEntity
  8
0
100
AcDbLine
 10
-105.74567885010131
 20
-21.162547087264485
 30
5.0
 11
-206.5741678664466
 21
7.5270508833651775
 31
5.0
  0
LINE
  5
F9
330
17
100
AcDbEntity
  8
0
100
AcDbLine
 10
-105.74567885010131
 20
-21.162547087264485
 30
2.5
 11
-105.74567885010131
 21
-21.162547087264485
 31
5.0
  0
LINE
  5
FA
330
17
100
AcDbEntity
  8
0
100
AcDbLine
 10
-96.12745805888133
 20
-23.89930224827974
 30
2.5
 11
-105.74567885010131
 21
-21.162547087264485
 31
2.5
  0
LINE
  5
FB
330
17
100
AcDbEntity
  8
0
100
AcDbLine
 10
-96.12745805888132
 20
-23.899302248279582
 30
2.5
 11
-96.12745805888132
 21
-23.899302248279582
 31
5.0
  0
LINE
  5
FC
330
17
100
AcDbEntity
  8
0
100
AcDbLine
 10
-76.40519767030884
 20
-29.511046777432362
 30
5.0
 11
-96.12745805888132
 21
-23.899302248279586
 31
5.0
  0
ARC
  5
FD
330
17
100
AcDbEntity
  8
0
100
AcDbCircle
 10
-54.21384207889899
 20
-41.02381086845818
 30
5.0
 40
25.0
100
AcDbArc
 50
126.55383519234177
 51
152.57994185131975
  0
LINE
  5
FE
330
17
100
AcDbEntity
  8
0
100
AcDbLine
 10
-69.1032878056413
 20
-20.941370629523195
 30
5.0
 11
-69.1032878056413
 21
-20.941370629523195
 31
0.0
  0
LINE
  5
FF
330
17
100
AcDbEntity
  8
0
100
AcDbLine
 10
-77.77459203201329
 20
-2.359989773708314
 30
5.0
 11
-69.10328780564124
 21
-20.94137062952314
 31
5.0
  0
LINE
  5
100
330
17
100
AcDbEntity
  8
0
100
AcDbLine
 10
-77.77459203201329
 20
-2.359989773708314
 30
2.5
 11
-77.77459203201329
 21
-2.359989773708314
 31
5.0
  0
LINE
  5
101
330
17
100
AcDbEntity
  8
0
100
AcDbLine
 10
-82.00344394623966
 20
6.701842904483442
 30
2.5
 11
-77.77459203201335
 21
-2.3599897737083424
 31
2.5
  0
LINE
  5
102
330
17
100
AcDbEntity
  8
0
100
AcDbLine
 10
-82.00344394623966
 20
6.701842904483442
 30
2.5
 11
-82.00344394623966
 21
6.701842904483442
 31
5.0
  0
LINE
  5
103
330
17
100
AcDbEntity
  8
0
100
AcDbLine
 10
-82.00344394623966
 20
6.701842904483442
 30
5.0
 11
-128.4221853228167
 21
106.17065288378888
 31
5.0
  0
LINE
  5
104
330
17
100
AcDbEntity
  8
0
100
AcDbLine
 10
-128.42218532281666
 20
106.17065288378878
 30
5.0
 11
-128.42218532281666
 21
106.17065288378878
 31
0.0
  0
ARC
  5
105
330
17
100
AcDbEntity
  8
0
100
AcDbCircle
 10
-134.24979837136712
 20
130.48194503695012
 30
5.0
 40
25.0
100
AcDbArc
 50
216.5538351923424
 51
283.47991712671035
  0
LINE
  5
106
330
17
100
AcDbEntity
  8
0
100
AcDbLine
 10
-154.33223861030217
 20
115.5924993102079
 30
5.0
 11
-154.33223861030217
 21
115.5924993102079
 31
0.0
  0
LINE
  5
107
330
17
100
AcDbEntity
  8
0
100
AcDbLine
 10
-172.913619466117
 20
106.92119508383587
 30
5.0
 11
-154.33223861030206
 21
115.59249931020794
 31
5.0
  0
LINE
  5
108
330
17
100
AcDbEntity
  8
0
100
AcDbLine
 10
-172.913619466117
 20
106.92119508383587
 30
0.0
 11
-172.913619466117
 21
106.92119508383587
 31
5.0
  0
LINE
  5
109
330
17
100
AcDbEntity
  8
0
100
AcDbLine
 10
-177.14247138034332
 20
115.98302776202766
 30
0.0
 11
-177.14247138034332
 21
115.98302776202766
 31
5.0
  0
LINE
  5
10A
330
17
100
AcDbEntity
  8
0
100
AcDbLine
 10
-177.14247138034332
 20
115.98302776202766
 30
5.0
 11
-172.913619466117
 21
106.92119508383587
 31
5.0
  0
LINE
  5
10B
330
17
100
AcDbEntity
  8
0
100
AcDbLine
 10
-158.5610905245284
 20
124.6543319883997
 30
5.0
 11
-177.14247138034332
 21
115.98302776202765
 31
5.0
  0
LINE
  5
10C
330
17
100
AcDbEntity
  8
0
100
AcDbLine
 10
-158.56109052452848
 20
124.65433198839968
 30
5.0
 11
-158.56109052452848
 21
124.65433198839968
 31
0.0
  0
ARC
  5
10D
330
17
100
AcDbEntity
  8
0
100
AcDbCircle
 10
-134.24979837136712
 20
130.48194503695012
 30
5.0
 40
25.0
100
AcDbArc
 50
126.55383519234238
 51
193.4799171267103
  0
LINE
  5
10E
330
17
100
AcDbEntity
  8
0
100
AcDbLine
 10
-149.13924409810934
 20
150.56438527588517
 30
5.0
 11
-149.13924409810934
 21
150.56438527588517
 31
0.0
  0
LINE
  5
10F
330
17
100
AcDbEntity
  8
0
100
AcDbLine
 10
-149.13924409810932
 20
150.5643852758851
 30
5.0
 11
-157.81054832448137
 21
169.14576613170001
 31
5.0
  0
LINE
  5
110
330
17
100
AcDbEntity
  8
0
100
AcDbLine
 10
-157.81054832448137
 20
169.14576613170001
 30
0.0
 11
-157.81054832448137
 21
169.14576613170001
 31
5.0
  0
LINE
  5
111
330
17
100
AcDbEntity
  8
0
100
AcDbLine
 10
-148.74871564628958
 20
173.3746180459263
 30
0.0
 11
-148.74871564628958
 21
173.3746180459263
 31
5.0
  0
LINE
  5
112
330
17
100
AcDbEntity
  8
0
100
AcDbLine
 10
-148.74871564628958
 20
173.3746180459263
 30
5.0
 11
-157.81054832448137
 21
169.1457661317
 31
5.0
  0
LINE
  5
113
330
17
100
AcDbEntity
  8
0
100
AcDbLine
 10
-140.07741141991752
 20
154.7932371901114
 30
5.0
 11
-148.7487156462896
 21
173.37461804592633
 31
5.0
  0
LINE
  5
114
330
17
100
AcDbEntity
  8
0
100
AcDbLine
 10
-140.07741141991758
 20
154.79323719011148
 30
5.0
 11
-140.07741141991758
 21
154.79323719011148
 31
0.0
  0
ARC
  5
115
330
17
100
AcDbEntity
  8
0
100
AcDbCircle
 10
-134.24979837136712
 20
130.48194503695012
 30
5.0
 40
25.0
100
AcDbArc
 50
36.55383519234247
 51
103.47991712671025
  0
LINE
  5
116
330
17
100
AcDbEntity
  8
0
100
AcDbLine
 10
-114.16735813243208
 20
145.37139076369235
 30
5.0
 11
-114.16735813243208
 21
145.37139076369235
 31
0.0
  0
LINE
  5
117
330
17
100
AcDbEntity
  8
0
100
AcDbLine
 10
-95.58597727661726
 20
154.0426949900644
 30
5.0
 11
-114.16735813243218
 21
145.37139076369232
 31
5.0
  0
LINE
  5
118
330
17
100
AcDbEntity
  8
0
100
AcDbLine
 10
-95.58597727661726
 20
154.0426949900644
 30
0.0
 11
-95.58597727661726
 21
154.0426949900644
 31
5.0
  0
LINE
  5
119
330
17
100
AcDbEntity
  8
0
100
AcDbLine
 10
-91.35712536239095
 20
144.9808623118726
 30
0.0
 11
-91.35712536239095
 21
144.9808623118726
 31
5.0
  0
LINE
  5
11A
330
17
100
AcDbEntity
  8
0
100
AcDbLine
 10
-91.35712536239095
 20
144.9808623118726
 30
5.0
 11
-95.58597727661726
 21
154.0426949900644
 31
5.0
  0
LINE
  5
11B
330
17
100
AcDbEntity
  8
0
100
AcDbLine
 10
-109.93850621820584
 20
136.30955808550056
 30
5.0
 11
-91.35712536239095
 21
144.9808623118726
 31
5.0
  0
LINE
  5
11C
330
17
100
AcDbEntity
  8
0
100
AcDbLine
 10
-109.93850621820577
 20
136.30955808550058
 30
5.0
 11
-109.93850621820577
 21
136.30955808550058
 31
0.0
  0
LINE
  5
11D
330
17
100
AcDbEntity
  8
0
100
AcDbLine
 10
-119.36035264462488
 20
110.39950479801509
 30
5.0
 11
-119.36035264462488
 21
110.39950479801509
 31
0.0
  0
ARC
  5
11E
330
17
100
AcDbEntity
  8
0
100
AcDbCircle
 10
-134.24979837136712
 20
130.48194503695012
 30
5.0
 40
25.0
100
AcDbArc
 50
-53.44616480765751
 51
13.47991712671029
  0
LINE
  5
11F
330
17
100
AcDbEntity
  8
0
100
AcDbLine
 10
-60.04145512744954
 20
-16.712518715296852
 30
5.0
 11
-60.04145512744954
 21
-16.712518715296852
 31
0.0
  0
LINE
  5
120
330
17
100
AcDbEntity
  8
0
100
AcDbLine
 10
-72.94161126804788
 20
10.930694818709753
 30
5.0
 11
-119.36035264462492
 21
110.39950479801519
 31
5.0
  0
LINE
  5
121
330
17
100
AcDbEntity
  8
0
100
AcDbLine
 10
-72.94161126804788
 20
10.930694818709753
 30
2.5
 11
-72.94161126804788
 21
10.930694818709753
 31
5.0
  0
LINE
  5
122
330
17
100
AcDbEntity
  8
0
100
AcDbLine
 10
-68.71275935382157
 20
1.8688621405179617
 30
2.5
 11
-72.94161126804788
 21
10.930694818709746
 31
2.5
  0
LINE
  5
123
330
17
100
AcDbEntity
  8
0
100
AcDbLine
 10
-68.71275935382151
 20
1.8688621405179973
 30
2.5
 11
-68.71275935382151
 21
1.8688621405179973
 31
5.0
  0
LINE
  5
124
330
17
100
AcDbEntity
  8
0
100
AcDbLine
 10
-60.04145512744943
 20
-16.71251871529691
 30
5.0
 11
-68.71275935382151
 21
1.8688621405179973
 31
5.0
  0
ARC
  5
125
330
17
100
AcDbEntity
  8
0
100
AcDbCircle
 10
-54.21384207889899
 20
-41.02381086845818
 30
5.0
 40
25.0
100
AcDbArc
 50
44.15275196337877
 51
103.47991712671035
  0
LINE
  5
126
330
17
100
AcDbEntity
  8
0
100
AcDbLine
 10
-36.276710335420766
 20
-23.60946893954494
 30
5.0
 11
-36.276710335420766
 21
-23.60946893954494
 31
0.0
  0
LINE
  5
127
330
17
100
AcDbEntity
  8
0
100
AcDbLine
 10
-19.005183310494104
 20
-12.55715761012755
 30
5.0
 11
-36.27671033542088
 21
-23.60946893954503
 31
5.0
  0
LINE
  5
128
330
17
100
AcDbEntity
  8
0
100
AcDbLine
 10
-19.005183310494104
 20
-12.55715761012755
 30
2.5
 11
-19.005183310494104
 21
-12.55715761012755
 31
5.0
  0
LINE
  5
129
330
17
100
AcDbEntity
  8
0
100
AcDbLine
 10
-10.582144720884997
 20
-7.167127840455095
 30
2.5
 11
-19.005183310494136
 21
-12.557157610127552
 31
2.5
  0
LINE
  5
12A
330
17
100
AcDbEntity
  8
0
100
AcDbLine
 10
-10.582144720884997
 20
-7.167127840455095
 30
2.5
 11
-10.582144720884997
 21
-7.167127840455095
 31
5.0
  0
LINE
  5
12B
330
17
100
AcDbEntity
  8
0
100
AcDbLine
 10
107.7374796767
 20
68.54738908294901
 30
5.0
 11
-10.582144720884997
 21
-7.167127840455095
 31
5.0
  0
LINE
  5
12C
330
17
100
AcDbEntity
  8
0
100
AcDbLine
 10
108.598480017334
 20
70.81086462014142
 30
5.0
 11
137.1268876654323
 21
220.8729363143988
 31
5.0
  0
LINE
  5
12D
330
17
100
AcDbEntity
  8
0
100
AcDbLine
 10
137.1268876654323
 20
220.87293631439877
 30
5.0
 11
137.1268876654323
 21
220.87293631439877
 31
0.0
  0
ARC
  5
12E
330
17
100
AcDbEntity
  8
0
100
AcDbCircle
 10
146.6137149070091
 20
244.0030056806691
 30
5.0
 40
25.0
100
AcDbArc
 50
180.77286962347938
 51
247.6989515578474
  0
LINE
  5
12F
330
17
100
AcDbEntity
  8
0
100
AcDbLine
 10
121.61598932687265
 20
243.6657879169129
 30
5.0
 11
121.61598932687265
 21
243.6657879169129
 31
0.0
  0
LINE
  5
130
330
17
100
AcDbEntity
  8
0
100
AcDbLine
 10
101.47168427607775
 20
247.49543614040016
 30
5.0
 11
121.61598932687282
 21
243.6657879169129
 31
5.0
  0
LINE
  5
131
330
17
100
AcDbEntity
  8
0
100
AcDbLine
 10
101.47168427607775
 20
247.49543614040016
 30
0.0
 11
101.47168427607775
 21
247.49543614040016
 31
5.0
  0
LINE
  5
132
330
17
100
AcDbEntity
  8
0
100
AcDbLine
 10
103.33934048994388
 20
257.3194811457331
 30
0.0
 11
103.33934048994388
 21
257.3194811457331
 31
5.0
  0
LINE
  5
133
330
17
100
AcDbEntity
  8
0
100
AcDbLine
 10
103.33934048994388
 20
257.3194811457331
 30
5.0
 11
101.47168427607775
 21
247.49543614040016
 31
5.0
  0
LINE
  5
134
330
17
100
AcDbEntity
  8
0
100
AcDbLine
 10
123.48364554073876
 20
253.4898329222459
 30
5.0
 11
103.33934048994387
 21
257.3194811457331
 31
5.0
  0
LINE
  5
135
330
17
100
AcDbEntity
  8
0
100
AcDbLine
 10
123.48364554073876
 20
253.48983292224585
 30
5.0
 11
123.48364554073876
 21
253.48983292224585
 31
0.0
  0
ARC
  5
136
330
17
100
AcDbEntity
  8
0
100
AcDbCircle
 10
146.6137149070091
 20
244.0030056806691
 30
5.0
 40
25.0
100
AcDbArc
 50
90.77286962347938
 51
157.6989515578475
  0
LINE
  5
137
330
17
100
AcDbEntity
  8
0
100
AcDbLine
 10
146.27649714325295
 20
269.00073126080554
 30
5.0
 11
146.27649714325295
 21
269.00073126080554
 31
0.0
  0
LINE
  5
138
330
17
100
AcDbEntity
  8
0
100
AcDbLine
 10
146.27649714325293
 20
269.0007312608054
 30
5.0
 11
150.10614536674015
 21
289.14503631160045
 31
5.0
  0
LINE
  5
139
330
17
100
AcDbEntity
  8
0
100
AcDbLine
 10
150.10614536674015
 20
289.14503631160045
 30
0.0
 11
150.10614536674015
 21
289.14503631160045
 31
5.0
  0
LINE
  5
13A
330
17
100
AcDbEntity
  8
0
100
AcDbLine
 10
159.9301903720731
 20
287.2773800977343
 30
0.0
 11
159.9301903720731
 21
287.2773800977343
 31
5.0
  0
LINE
  5
13B
330
17
100
AcDbEntity
  8
0
100
AcDbLine
 10
159.9301903720731
 20
287.2773800977343
 30
5.0
 11
150.10614536674015
 21
289.1450363116004
 31
5.0
  0
LINE
  5
13C
330
17
100
AcDbEntity
  8
0
100
AcDbLine
 10
156.1005421485859
 20
267.13307504693944
 30
5.0
 11
159.9301903720731
 21
287.27738009773435
 31
5.0
  0
LINE
  5
13D
330
17
100
AcDbEntity
  8
0
100
AcDbLine
 10
156.1005421485859
 20
267.13307504693944
 30
5.0
 11
156.1005421485859
 21
267.13307504693944
 31
0.0
  0
ARC
  5
13E
330
17
100
AcDbEntity
  8
0
100
AcDbCircle
 10
146.6137149070091
 20
244.0030056806691
 30
5.0
 40
25.0
100
AcDbArc
 50
0.7728696234793854
 51
67.69895155784752
  0
LINE
  5
13F
330
17
100
AcDbEntity
  8
0
100
AcDbLine
 10
171.61144048714553
 20
244.34022344442525
 30
5.0
 11
171.61144048714553
 21
244.34022344442525
 31
0.0
  0
LINE
  5
140
330
17
100
AcDbEntity
  8
0
100
AcDbLine
 10
191.7557455379404
 20
240.51057522093805
 30
5.0
 11
171.6114404871454
 21
244.34022344442528
 31
5.0
  0
LINE
  5
141
330
17
100
AcDbEntity
  8
0
100
AcDbLine
 10
191.7557455379404
 20
240.51057522093805
 30
0.0
 11
191.7557455379404
 21
240.51057522093805
 31
5.0
  0
LINE
  5
142
330
17
100
AcDbEntity
  8
0
100
AcDbLine
 10
189.88808932407431
 20
230.6865302156051
 30
0.0
 11
189.88808932407431
 21
230.6865302156051
 31
5.0
  0
LINE
  5
143
330
17
100
AcDbEntity
  8
0
100
AcDbLine
 10
189.88808932407431
 20
230.6865302156051
 30
5.0
 11
191.75574553794044
 21
240.51057522093805
 31
5.0
  0
LINE
  5
144
330
17
100
AcDbEntity
  8
0
100
AcDbLine
 10
169.7437842732794
 20
234.5161784390923
 30
5.0
 11
189.88808932407431
 21
230.6865302156051
 31
5.0
  0
LINE
  5
145
330
17
100
AcDbEntity
  8
0
100
AcDbLine
 10
169.74378427327943
 20
234.5161784390923
 30
5.0
 11
169.74378427327943
 21
234.5161784390923
 31
0.0
  0
ARC
  5
146
330
17
100
AcDbEntity
  8
0
100
AcDbCircle
 10
146.6137149070091
 20
244.0030056806691
 30
5.0
 40
25.0
100
AcDbArc
 50
270.7728696234793
 51
337.69895155784747
  0
LINE
  5
147
330
17
100
AcDbEntity
  8
0
100
AcDbLine
 10
146.95093267076527
 20
219.00528010053267
 30
5.0
 11
146.95093267076527
 21
219.00528010053267
 31
0.0
  0
LINE
  5
148
330
17
100
AcDbEntity
  8
0
100
AcDbLine
 10
118.70254552336968
 20
70.41614222615908
 30
5.0
 11
118.70254552336968
 21
70.41614222615908
 31
0.0
  0
LINE
  5
149
330
17
100
AcDbEntity
  8
0
100
AcDbLine
 10
118.70254552336968
 20
70.41614222615908
 30
5.0
 11
146.95093267076527
 21
219.00528010053273
 31
5.0
  0
LINE
  5
14A
330
17
100
AcDbEntity
  8
0
100
AcDbLine
 10
256.9268841062687
 20
61.001049294449274
 30
5.0
 11
277.3845838645706
 21
59.607581643468876
 31
5.0
  0
LINE
  5
14B
330
17
100
AcDbEntity
  8
0
100
AcDbLine
 10
277.38458386457023
 20
59.6075816434688
 30
5.0
 11
277.38458386457023
 21
59.6075816434688
 31
0.0
  0
LINE
  5
14C
330
17
100
AcDbEntity
  8
0
100
AcDbLine
 10
246.95000167600517
 20
61.68062046268693
 30
5.0
 11
118.70254552336968
 21
70.41614222615908
 31
5.0
  0
LINE
  5
14D
330
17
100
AcDbEntity
  8
0
100
AcDbLine
 10
246.95000167600517
 20
61.68062046268693
 30
2.5
 11
246.95000167600517
 21
61.68062046268693
 31
5.0
  0
LINE
  5
14E
330
17
100
AcDbEntity
  8
0
100
AcDbLine
 10
256.9268841062687
 20
61.00104929444916
 30
2.5
 11
246.95000167600523
 21
61.68062046268694
 31
2.5
  0
LINE
  5
14F
330
17
100
AcDbEntity
  8
0
100
AcDbLine
 10
256.9268841062687
 20
61.001049294449274
 30
2.5
 11
256.9268841062687
 21
61.001049294449274
 31
5.0
  0
ARC
  5
150
330
17
100
AcDbEntity
  8
0
100
AcDbCircle
 10
301.4830694583354
 20
52.95453782224757
 30
5.0
 40
25.0
100
AcDbArc
 50
97.64029987825269
 51
164.5663818126204
  0
LINE
  5
151
330
17
100
AcDbEntity
  8
0
100
AcDbLine
 10
298.1592308492933
 20
77.73259458425053
 30
5.0
 11
298.1592308492933
 21
77.73259458425053
 31
0.0
  0
LINE
  5
152
330
17
100
AcDbEntity
  8
0
100
AcDbLine
 10
299.55269850027366
 20
98.19029434255208
 30
5.0
 11
298.1592308492933
 21
77.73259458425066
 31
5.0
  0
LINE
  5
153
330
17
100
AcDbEntity
  8
0
100
AcDbLine
 10
299.55269850027366
 20
98.19029434255208
 30
0.0
 11
299.55269850027366
 21
98.19029434255208
 31
5.0
  0
LINE
  5
154
330
17
100
AcDbEntity
  8
0
100
AcDbLine
 10
309.5295809305371
 20
97.51072317431431
 30
0.0
 11
309.5295809305371
 21
97.51072317431431
 31
5.0
  0
LINE
  5
155
330
17
100
AcDbEntity
  8
0
100
AcDbLine
 10
309.5295809305371
 20
97.51072317431431
 30
5.0
 11
299.55269850027366
 21
98.19029434255208
 31
5.0
  0
LINE
  5
156
330
17
100
AcDbEntity
  8
0
100
AcDbLine
 10
308.13611327955675
 20
77.0530234160124
 30
5.0
 11
309.5295809305371
 21
97.51072317431431
 31
5.0
  0
LINE
  5
157
330
17
100
AcDbEntity
  8
0
100
AcDbLine
 10
308.13611327955675
 20
77.05302341601276
 30
5.0
 11
308.13611327955675
 21
77.05302341601276
 31
0.0
  0
ARC
  5
158
330
17
100
AcDbEntity
  8
0
100
AcDbCircle
 10
301.4830694583354
 20
52.95453782224757
 30
5.0
 40
25.0
100
AcDbArc
 50
7.64029987825264
 51
74.56638181262028
  0
LINE
  5
159
330
17
100
AcDbEntity
  8
0
100
AcDbLine
 10
326.2611262203384
 20
56.278376431289566
 30
5.0
 11
326.2611262203384
 21
56.278376431289566
 31
0.0
  0
LINE
  5
15A
330
17
100
AcDbEntity
  8
0
100
AcDbLine
 10
326.2611262203385
 20
56.27837643128968
 30
5.0
 11
346.7188259786399
 21
54.88490878030932
 31
5.0
  0
LINE
  5
15B
330
17
100
AcDbEntity
  8
0
100
AcDbLine
 10
346.7188259786399
 20
54.88490878030932
 30
0.0
 11
346.7188259786399
 21
54.88490878030932
 31
5.0
  0
LINE
  5
15C
330
17
100
AcDbEntity
  8
0
100
AcDbLine
 10
346.03925481040216
 20
44.908026350045844
 30
0.0
 11
346.03925481040216
 21
44.908026350045844
 31
5.0
  0
LINE
  5
15D
330
17
100
AcDbEntity
  8
0
100
AcDbLine
 10
346.03925481040216
 20
44.908026350045844
 30
5.0
 11
346.7188259786399
 21
54.88490878030932
 31
5.0
  0
LINE
  5
15E
330
17
100
AcDbEntity
  8
0
100
AcDbLine
 10
325.5815550521002
 20
46.30149400102625
 30
5.0
 11
346.03925481040216
 21
44.908026350045844
 31
5.0
  0
LINE
  5
15F
330
17
100
AcDbEntity
  8
0
100
AcDbLine
 10
325.5815550521006
 20
46.30149400102622
 30
5.0
 11
325.5815550521006
 21
46.30149400102622
 31
0.0
  0
ARC
  5
160
330
17
100
AcDbEntity
  8
0
100
AcDbCircle
 10
301.4830694583354
 20
52.95453782224757
 30
5.0
 40
25.0
100
AcDbArc
 50
277.6402998782527
 51
344.56638181262025
  0
LINE
  5
161
330
17
100
AcDbEntity
  8
0
100
AcDbLine
 10
304.80690806737755
 20
28.17648106024461
 30
5.0
 11
304.80690806737755
 21
28.17648106024461
 31
0.0
  0
LINE
  5
162
330
17
100
AcDbEntity
  8
0
100
AcDbLine
 10
298.6564422387327
 20
-62.11939570990123
 30
5.0
 11
304.80690806737755
 21
28.176481060244484
 31
5.0
  0
LINE
  5
163
330
17
100
AcDbEntity
  8
0
100
AcDbLine
 10
298.6564422387327
 20
-62.11939570990123
 30
0.0
 11
298.6564422387327
 21
-62.11939570990123
 31
5.0
  0
LINE
  5
164
330
17
100
AcDbEntity
  8
0
100
AcDbLine
 10
288.67955980846926
 20
-61.439824541663455
 30
0.0
 11
288.67955980846926
 21
-61.439824541663455
 31
5.0
  0
LINE
  5
165
330
17
100
AcDbEntity
  8
0
100
AcDbLine
 10
288.67955980846926
 20
-61.439824541663455
 30
5.0
 11
298.6564422387327
 21
-62.119395709901234
 31
5.0
  0
LINE
  5
166
330
17
100
AcDbEntity
  8
0
100
AcDbLine
 10
294.8300256371141
 20
28.856052228482746
 30
5.0
 11
288.67955980846926
 21
-61.43982454166347
 31
5.0
  0
LINE
  5
167
330
17
100
AcDbEntity
  8
0
100
AcDbLine
 10
294.8300256371141
 20
28.85605222848238
 30
5.0
 11
294.8300256371141
 21
28.85605222848238
 31
0.0
  0
ARC
  5
168
330
17
100
AcDbEntity
  8
0
100
AcDbCircle
 10
301.4830694583354
 20
52.95453782224757
 30
5.0
 40
25.0
100
AcDbArc
 50
187.6402998782527
 51
254.56638181262028
  0
LINE
  5
169
330
17
100
AcDbEntity
  8
0
100
AcDbLine
 10
276.70501269633246
 20
49.630699213205304
 30
5.0
 11
276.70501269633246
 21
49.630699213205304
 31
0.0
  0
LINE
  5
16A
330
17
100
AcDbEntity
  8
0
100
AcDbLine
 10
256.2473129380309
 20
51.0241668641858
 30
5.0
 11
276.70501269633235
 21
49.630699213205446
 31
5.0
  0
LINE
  5
16B
330
17
100
AcDbEntity
  8
0
100
AcDbLine
 10
256.2473129380309
 20
51.0241668641858
 30
2.5
 11
256.2473129380309
 21
51.0241668641858
 31
5.0
  0
LINE
  5
16C
330
17
100
AcDbEntity
  8
0
100
AcDbLine
 10
246.2704305077674
 20
51.70373803242346
 30
2.5
 11
256.24731293803086
 21
51.02416686418568
 31
2.5
  0
LINE
  5
16D
330
17
100
AcDbEntity
  8
0
100
AcDbLine
 10
246.2704305077674
 20
51.70373803242346
 30
2.5
 11
246.2704305077674
 21
51.70373803242346
 31
5.0
  0
LINE
  5
16E
330
17
100
AcDbEntity
  8
0
100
AcDbLine
 10
117.41650944004782
 20
60.480568899588036
 30
5.0
 11
246.27043050776746
 21
51.70373803242346
 31
5.0
  0
LINE
  5
16F
330
17
100
AcDbEntity
  8
0
100
AcDbLine
 10
117.41650944004782
 20
60.48056889958805
 30
5.0
 11
117.41650944004782
 21
60.48056889958805
 31
0.0
  0
LINE
  5
170
330
17
100
AcDbEntity
  8
0
100
AcDbLine
 10
111.7860947596099
 20
-30.305540364182008
 30
5.0
 11
117.41650944004782
 21
60.480568899588036
 31
5.0
  0
LINE
  5
171
330
17
100
AcDbEntity
  8
0
100
AcDbLine
 10
111.7860947596099
 20
-30.305540364182008
 30
2.5
 11
111.7860947596099
 21
-30.305540364182008
 31
5.0
  0
LINE
  5
172
330
17
100
AcDbEntity
  8
0
100
AcDbLine
 10
111.16709943530739
 20
-40.286364217376274
 30
2.5
 11
111.7860947596099
 21
-30.305540364182008
 31
2.5
  0
LINE
  5
173
330
17
100
AcDbEntity
  8
0
100
AcDbLine
 10
111.16709943530739
 20
-40.28636421737625
 30
2.5
 11
111.16709943530739
 21
-40.28636421737625
 31
5.0
  0
LINE
  5
174
330
17
100
AcDbEntity
  8
0
100
AcDbLine
 10
109.89784317365586
 20
-60.75214590382542
 30
5.0
 11
111.16709943530739
 21
-40.28636421737626
 31
5.0
  0
LINE
  5
175
330
17
100
AcDbEntity
  8
0
100
AcDbLine
 10
109.89784317365586
 20
-60.75214590382542
 30
5.0
 11
109.89784317365586
 21
-60.75214590382542
 31
0.0
  0
LINE
  5
176
330
17
100
AcDbEntity
  8
0
100
AcDbLine
 10
128.3155264797587
 20
-86.83437833534359
 30
5.0
 11
128.3155264797587
 21
-86.83437833534359
 31
0.0
  0
ARC
  5
177
330
17
100
AcDbEntity
  8
0
100
AcDbCircle
 10
103.39120854934899
 20
-84.8905738945992
 30
5.0
 40
25.0
100
AcDbArc
 50
-4.459372462122104
 51
74.91419027223499
  0
LINE
  5
178
330
17
100
AcDbEntity
  8
0
100
AcDbLine
 10
148.02665799487568
 20
-92.48508854636145
 30
5.0
 11
128.31552647975855
 21
-86.83437833534353
 31
5.0
  0
LINE
  5
179
330
17
100
AcDbEntity
  8
0
100
AcDbLine
 10
148.02665799487568
 20
-92.48508854636145
 30
0.0
 11
148.02665799487568
 21
-92.48508854636145
 31
5.0
  0
LINE
  5
17A
330
17
100
AcDbEntity
  8
0
100
AcDbLine
 10
145.27089991411015
 20
-102.09788196972677
 30
0.0
 11
145.27089991411015
 21
-102.09788196972677
 31
5.0
  0
LINE
  5
17B
330
17
100
AcDbEntity
  8
0
100
AcDbLine
 10
145.27089991411015
 20
-102.09788196972677
 30
5.0
 11
148.02665799487568
 21
-92.48508854636145
 31
5.0
  0
LINE
  5
17C
330
17
100
AcDbEntity
  8
0
100
AcDbLine
 10
125.55976839899294
 20
-96.44717175870883
 30
5.0
 11
145.27089991411015
 21
-102.09788196972677
 31
5.0
  0
LINE
  5
17D
330
17
100
AcDbEntity
  8
0
100
AcDbLine
 10
125.55976839899316
 20
-96.44717175870889
 30
5.0
 11
125.55976839899316
 21
-96.44717175870889
 31
0.0
  0
ARC
  5
17E
330
17
100
AcDbEntity
  8
0
100
AcDbCircle
 10
103.39120854934899
 20
-84.8905738945992
 30
5.0
 40
25.0
100
AcDbArc
 50
253.0931467378871
 51
332.46670947224464
  0
LINE
  5
17F
330
17
100
AcDbEntity
  8
0
100
AcDbLine
 10
96.12079260200616
 20
-108.81004403824208
 30
5.0
 11
96.12079260200616
 21
-108.81004403824208
 31
0.0
  0
LINE
  5
180
330
17
100
AcDbEntity
  8
0
100
AcDbLine
 10
86.35427971339256
 20
-126.83986537656057
 30
5.0
 11
96.12079260200605
 21
-108.81004403824218
 31
5.0
  0
LINE
  5
181
330
17
100
AcDbEntity
  8
0
100
AcDbLine
 10
86.35427971339256
 20
-126.83986537656057
 30
2.5
 11
86.35427971339256
 21
-126.83986537656057
 31
5.0
  0
LINE
  5
182
330
17
100
AcDbEntity
  8
0
100
AcDbLine
 10
81.59131261569576
 20
-135.63271158391905
 30
2.5
 11
86.35427971339257
 21
-126.83986537656061
 31
2.5
  0
LINE
  5
183
330
17
100
AcDbEntity
  8
0
100
AcDbLine
 10
81.59131261569576
 20
-135.63271158391905
 30
2.5
 11
81.59131261569576
 21
-135.63271158391905
 31
5.0
  0
LINE
  5
184
330
17
100
AcDbEntity
  8
0
100
AcDbLine
 10
51.91938415336563
 20
-190.40963913632052
 30
5.0
 11
81.59131261569576
 21
-135.63271158391902
 31
5.0
  0
LINE
  5
185
330
17
100
AcDbEntity
  8
0
100
AcDbLine
 10
51.9193841533657
 20
-190.40963913632038
 30
5.0
 11
51.9193841533657
 21
-190.40963913632038
 31
0.0
  0
LINE
  5
186
330
17
100
AcDbEntity
  8
0
100
AcDbLine
 10
57.919119896869134
 20
-221.3230177767351
 30
5.0
 11
57.919119896869134
 21
-221.3230177767351
 31
0.0
  0
ARC
  5
187
330
17
100
AcDbEntity
  8
0
100
AcDbCircle
 10
35.85612199866438
 20
-209.56614218226645
 30
5.0
 40
25.0
100
AcDbArc
 50
-28.052150402640393
 51
50.019228672255934
  0
LINE
  5
188
330
17
100
AcDbEntity
  8
0
100
AcDbLine
 10
73.72105706827371
 20
-234.3904587322597
 30
5.0
 11
57.91911989686915
 21
-221.3230177767351
 31
5.0
  0
LINE
  5
189
330
17
100
AcDbEntity
  8
0
100
AcDbLine
 10
73.72105706827371
 20
-234.3904587322597
 30
0.0
 11
73.72105706827371
 21
-234.3904587322597
 31
5.0
  0
LINE
  5
18A
330
17
100
AcDbEntity
  8
0
100
AcDbLine
 10
67.34828184828471
 20
-242.09680261217412
 30
0.0
 11
67.34828184828471
 21
-242.09680261217412
 31
5.0
  0
LINE
  5
18B
330
17
100
AcDbEntity
  8
0
100
AcDbLine
 10
67.34828184828471
 20
-242.09680261217412
 30
5.0
 11
73.72105706827371
 21
-234.3904587322597
 31
5.0
  0
LINE
  5
18C
330
17
100
AcDbEntity
  8
0
100
AcDbLine
 10
51.546344676880395
 20
-229.0293616566497
 30
5.0
 11
67.34828184828471
 21
-242.09680261217412
 31
5.0
  0
LINE
  5
18D
330
17
100
AcDbEntity
  8
0
100
AcDbLine
 10
51.54634467688014
 20
-229.0293616566495
 30
5.0
 11
51.54634467688014
 21
-229.0293616566495
 31
0.0
  0
ARC
  5
18E
330
17
100
AcDbEntity
  8
0
100
AcDbCircle
 10
35.85612199866438
 20
-209.56614218226645
 30
5.0
 40
25.0
100
AcDbArc
 50
230.80255245683134
 51
308.8739315317309
  0
LINE
  5
18F
330
17
100
AcDbEntity
  8
0
100
AcDbLine
 10
20.056252518427527
 20
-228.94045828393777
 30
5.0
 11
20.056252518427527
 21
-228.94045828393777
 31
0.0
  0
LINE
  5
190
330
17
100
AcDbEntity
  8
0
100
AcDbLine
 10
4.180783383021566
 20
-241.9184670382079
 30
5.0
 11
20.056252518427478
 21
-228.94045828393777
 31
5.0
  0
LINE
  5
191
330
17
100
AcDbEntity
  8
0
100
AcDbLine
 10
4.180783383021566
 20
-241.9184670382079
 30
0.0
 11
4.180783383021566
 21
-241.9184670382079
 31
5.0
  0
LINE
  5
192
330
17
100
AcDbEntity
  8
0
100
AcDbLine
 10
-2.1483772288767327
 20
-234.17626283340968
 30
0.0
 11
-2.1483772288767327
 21
-234.17626283340968
 31
5.0
  0
LINE
  5
193
330
17
100
AcDbEntity
  8
0
100
AcDbLine
 10
-2.1483772288767327
 20
-234.17626283340968
 30
5.0
 11
4.180783383021566
 21
-241.9184670382079
 31
5.0
  0
LINE
  5
194
330
17
100
AcDbEntity
  8
0
100
AcDbLine
 10
13.727091906529456
 20
-221.19825407913933
 30
5.0
 11
-2.1483772288767398
 21
-234.17626283340968
 31
5.0
  0
LINE
  5
195
330
17
100
AcDbEntity
  8
0
100
AcDbLine
 10
13.727091906529228
 20
-221.19825407913956
 30
5.0
 11
13.727091906529228
 21
-221.19825407913956
 31
0.0
  0
ARC
  5
196
330
17
100
AcDbEntity
  8
0
100
AcDbCircle
 10
35.85612199866438
 20
-209.56614218226645
 30
5.0
 40
25.0
100
AcDbArc
 50
129.65725531630198
 51
207.72863439119863
  0
LINE
  5
197
330
17
100
AcDbEntity
  8
0
100
AcDbLine
 10
19.901280987354703
 20
-190.31924507380162
 30
5.0
 11
19.901280987354703
 21
-190.31924507380162
 31
0.0
  0
LINE
  5
198
330
17
100
AcDbEntity
  8
0
100
AcDbLine
 10
10.23672718189583
 20
-172.2345656119884
 30
5.0
 11
19.90128098735456
 21
-190.31924507380145
 31
5.0
  0
LINE
  5
199
330
17
100
AcDbEntity
  8
0
100
AcDbLine
 10
10.23672718189583
 20
-172.2345656119884
 30
2.5
 11
10.23672718189583
 21
-172.2345656119884
 31
5.0
  0
LINE
  5
19A
330
17
100
AcDbEntity
  8
0
100
AcDbLine
 10
5.5234838457827
 20
-163.41496600346957
 30
2.5
 11
10.236727181895848
 21
-172.2345656119884
 31
2.5
  0
LINE
  5
19B
330
17
100
AcDbEntity
  8
0
100
AcDbLine
 10
5.5234838457827
 20
-163.41496600346957
 30
2.5
 11
5.5234838457827
 21
-163.41496600346957
 31
5.0
  0
LINE
  5
19C
330
17
100
AcDbEntity
  8
0
100
AcDbLine
 10
-47.07860067610815
 20
-64.98395131303593
 30
5.0
 11
5.523483845782714
 21
-163.4149660034696
 31
5.0
  0
LINE
  5
19D
330
17
100
AcDbEntity
  8
0
100
AcDbLine
 10
-47.07860067610807
 20
-64.9839513130361
 30
5.0
 11
-47.07860067610807
 21
-64.9839513130361
 31
0.0
  0
ARC
  5
19E
330
17
100
AcDbEntity
  8
0
100
AcDbCircle
 10
-54.21384207889899
 20
-41.02381086845818
 30
5.0
 40
25.0
100
AcDbArc
 50
243.2937840445889
 51
286.5833372506714
  0
LINE
  5
19F
330
17
100
AcDbEntity
  8
0
100
AcDbLine
 10
-65.44923999989963
 20
-63.35687679225768
 30
5.0
 11
-65.44923999989963
 21
-63.35687679225768
 31
0.0
  0
LINE
  5
1A0
330
17
100
AcDbEntity
  8
0
100
AcDbLine
 10
-78.14190666966357
 20
-79.46139306271435
 30
5.0
 11
-65.44923999989987
 21
-63.35687679225799
 31
5.0
  0
LINE
  5
1A1
330
17
100
AcDbEntity
  8
0
100
AcDbLine
 10
-78.14190666966357
 20
-79.46139306271435
 30
2.5
 11
-78.14190666966357
 21
-79.46139306271435
 31
5.0
  0
LINE
  5
1A2
330
17
100
AcDbEntity
  8
0
100
AcDbLine
 10
-84.33191065774007
 20
-87.31529977387386
 30
2.5
 11
-78.14190666966356
 21
-79.46139306271432
 31
2.5
  0
LINE
  5
1A3
330
17
100
AcDbEntity
  8
0
100
AcDbLine
 10
-84.33191065774007
 20
-87.31529977387386
 30
2.5
 11
-84.33191065774007
 21
-87.31529977387386
 31
5.0
  0
LINE
  5
1A4
330
17
100
AcDbEntity
  8
0
100
AcDbLine
 10
-154.13082387879757
 20
-175.8764952164719
 30
5.0
 11
-84.33191065774007
 21
-87.31529977387386
 31
5.0
  0
LINE
  5
1A5
330
17
100
AcDbEntity
  8
0
100
AcDbLine
 10
-154.13082387879768
 20
-175.87649521647205
 30
5.0
 11
-154.13082387879768
 21
-175.87649521647205
 31
0.0
  0
LINE
  5
1A6
330
17
100
AcDbEntity
  8
0
100
AcDbLine
 10
-150.85939820563172
 20
-203.19979597846657
 30
5.0
 11
-150.85939820563172
 21
-203.19979597846657
 31
0.0
  0
ARC
  5
1A7
330
17
100
AcDbEntity
  8
0
100
AcDbCircle
 10
-173.22012851095786
 20
-192.01955715219506
 30
5.0
 40
25.0
100
AcDbArc
 50
-26.564792223625375
 51
40.21986597896162
  0
LINE
  5
1A8
330
17
100
AcDbEntity
  8
0
100
AcDbLine
 10
-134.72360159275024
 20
-215.8526730885496
 30
5.0
 11
-150.85939820563158
 21
-203.19979597846674
 31
5.0
  0
LINE
  5
1A9
330
17
100
AcDbEntity
  8
0
100
AcDbLine
 10
-134.72360159275024
 20
-215.8526730885496
 30
0.0
 11
-134.72360159275024
 21
-215.8526730885496
 31
5.0
  0
LINE
  5
1AA
330
17
100
AcDbEntity
  8
0
100
AcDbLine
 10
-140.89420086946728
 20
-223.72183470629386
 30
0.0
 11
-140.89420086946728
 21
-223.72183470629386
 31
5.0
  0
LINE
  5
1AB
330
17
100
AcDbEntity
  8
0
100
AcDbLine
 10
-140.89420086946728
 20
-223.72183470629386
 30
5.0
 11
-134.72360159275024
 21
-215.8526730885496
 31
5.0
  0
LINE
  5
1AC
330
17
100
AcDbEntity
  8
0
100
AcDbLine
 10
-157.02999748234902
 20
-211.06895759621068
 30
5.0
 11
-140.89420086946728
 21
-223.72183470629386
 31
5.0
  0
LINE
  5
1AD
330
17
100
AcDbEntity
  8
0
100
AcDbLine
 10
-157.02999748234873
 20
-211.06895759621085
 30
5.0
 11
-157.02999748234873
 21
-211.06895759621085
 31
0.0
  0
ARC
  5
1AE
330
17
100
AcDbEntity
  8
0
100
AcDbCircle
 10
-173.22012851095786
 20
-192.01955715219506
 30
5.0
 40
25.0
100
AcDbArc
 50
243.57663150816109
 51
310.36128971074316
  0
LINE
  5
1AF
330
17
100
AcDbEntity
  8
0
100
AcDbLine
 10
-184.3451401263365
 20
-214.40781560518084
 30
5.0
 11
-184.3451401263365
 21
-214.40781560518084
 31
0.0
  0
LINE
  5
1B0
330
17
100
AcDbEntity
  8
0
100
AcDbLine
 10
-196.95815058845236
 20
-230.5747942523399
 30
5.0
 11
-184.34514012633645
 21
-214.4078156051808
 31
5.0
  0
LINE
  5
1B1
330
17
100
AcDbEntity
  8
0
100
AcDbLine
 10
-196.95815058845236
 20
-230.5747942523399
 30
2.5
 11
-196.95815058845236
 21
-230.5747942523399
 31
5.0
  0
LINE
  5
1B2
330
17
100
AcDbEntity
  8
0
100
AcDbLine
 10
-203.1093075591254
 20
-238.45916283340836
 30
2.5
 11
-196.95815058845236
 21
-230.57479425233984
 31
2.5
  0
LINE
  5
1B3
330
17
100
AcDbEntity
  8
0
100
AcDbLine
 10
-203.1093075591254
 20
-238.45916283340836
 30
2.5
 11
-203.1093075591254
 21
-238.45916283340836
 31
5.0
  0
LINE
  5
1B4
330
17
100
AcDbEntity
  8
0
100
AcDbLine
 10
-203.1093075591254
 20
-238.45916283340836
 30
5.0
 11
-261.7493407522701
 21
-313.62219923536446
 31
5.0
  0
LINE
  5
1B5
330
17
100
AcDbEntity
  8
0
100
AcDbLine
 10
-261.74934075227003
 20
-313.6221992353644
 30
5.0
 11
-261.74934075227003
 21
-313.6221992353644
 31
0.0
  0
LINE
  5
1B6
330
17
100
AcDbEntity
  8
0
100
AcDbLine
 10
-258.37046249573143
 20
-340.9843123330558
 30
5.0
 11
-258.37046249573143
 21
-340.9843123330558
 31
0.0
  0
ARC
  5
1B7
330
17
100
AcDbEntity
  8
0
100
AcDbCircle
 10
-280.7587209487172
 20
-329.8593007176772
 30
5.0
 40
25.0
100
AcDbArc
 50
-26.42336849183934
 51
40.502713442529654
  0
LINE
  5
1B8
330
17
100
AcDbEntity
  8
0
100
AcDbLine
 10
-242.20348384857238
 20
-353.59732279517164
 30
5.0
 11
-258.37046249573143
 21
-340.98431233305575
 31
5.0
  0
LINE
  5
1B9
330
17
100
AcDbEntity
  8
0
100
AcDbLine
 10
-242.20348384857238
 20
-353.59732279517164
 30
0.0
 11
-242.20348384857238
 21
-353.59732279517164
 31
5.0
  0
LINE
  5
1BA
330
17
100
AcDbEntity
  8
0
100
AcDbLine
 10
-248.35464081924545
 20
-361.4816913762402
 30
0.0
 11
-248.35464081924545
 21
-361.4816913762402
 31
5.0
  0
LINE
  5
1BB
330
17
100
AcDbEntity
  8
0
100
AcDbLine
 10
-248.35464081924545
 20
-361.4816913762402
 30
5.0
 11
-242.2034838485724
 21
-353.5973227951717
 31
5.0
  0
LINE
  5
1BC
330
17
100
AcDbEntity
  8
0
100
AcDbLine
 10
-264.5216194664043
 20
-348.86868091412447
 30
5.0
 11
-248.35464081924542
 21
-361.4816913762402
 31
5.0
  0
LINE
  5
1BD
330
17
100
AcDbEntity
  8
0
100
AcDbLine
 10
-264.52161946640445
 20
-348.86868091412435
 30
5.0
 11
-264.52161946640445
 21
-348.86868091412435
 31
0.0
  0
ARC
  5
1BE
330
17
100
AcDbEntity
  8
0
100
AcDbCircle
 10
-280.7587209487172
 20
-329.8593007176772
 30
5.0
 40
25.0
100
AcDbArc
 50
243.57663150816052
 51
310.50271344253076
  0
LINE
  5
1BF
330
17
100
AcDbEntity
  8
0
100
AcDbLine
 10
-31.956658743175787
 20
-52.40879176260137
 30
5.0
 11
-31.956658743175787
 21
-52.40879176260137
 31
0.0
  0
LINE
  5
1C0
330
17
100
AcDbEntity
  8
0
100
AcDbLine
 10
78.45261685296585
 20
-83.13939023744334
 30
5.0
 11
78.45261685296585
 21
-83.13939023744334
 31
0.0
  0
LINE
  5
1C1
330
17
100
AcDbEntity
  8
0
100
AcDbLine
 10
-2.568661455799102
 20
-60.58845547058134
 30
5.0
 11
78.45261685296587
 21
-83.13939023744335
 31
5.0
  0
LINE
  5
1C2
330
17
100
AcDbEntity
  8
0
100
AcDbLine
 10
-2.568661455799102
 20
-60.58845547058134
 30
2.5
 11
-2.568661455799102
 21
-60.58845547058134
 31
5.0
  0
LINE
  5
1C3
330
17
100
AcDbEntity
  8
0
100
AcDbLine
 10
-12.202458692786351
 20
-57.907047109921436
 30
2.5
 11
-2.5686614557990985
 21
-60.58845547058134
 31
2.5
  0
LINE
  5
1C4
330
17
100
AcDbEntity
  8
0
100
AcDbLine
 10
-12.202458692786323
 20
-57.90704710992138
 30
2.5
 11
-12.202458692786323
 21
-57.90704710992138
 31
5.0
  0
LINE
  5
1C5
330
17
100
AcDbEntity
  8
0
100
AcDbLine
 10
-31.95665874317555
 20
-52.40879176260135
 30
5.0
 11
-12.202458692786323
 21
-57.90704710992138
 31
5.0
  0
LINE
  5
1C6
330
17
100
AcDbEntity
  8
0
100
AcDbLine
 10
87.3279463946477
 20
-104.04707694054528
 30
5.0
 11
87.3279463946477
 21
-104.04707694054528
 31
0.0
  0
ARC
  5
1C7
330
17
100
AcDbEntity
  8
0
100
AcDbCircle
 10
103.39120854934899
 20
-84.8905738945992
 30
5.0
 40
25.0
100
AcDbArc
 50
175.9832933642933
 51
230.01922867225645
  0
ARC
  5
1C8
330
17
100
AcDbEntity
  8
0
100
AcDbCircle
 10
-54.21384207889899
 20
-41.02381086845818
 30
5.0
 40
25.0
100
AcDbArc
 50
309.6572553163018
 51
332.90937529866363
  0
LINE
  5
1C9
330
17
100
AcDbEntity
  8
0
100
AcDbLine
 10
-38.25900106758926
 20
-60.270707976922935
 30
5.0
 11
-38.25900106758926
 21
-60.270707976922935
 31
0.0
  0
LINE
  5
1CA
330
17
100
AcDbEntity
  8
0
100
AcDbLine
 10
43.12653794600725
 20
-185.64667203862356
 30
5.0
 11
43.12653794600725
 21
-185.64667203862356
 31
0.0
  0
LINE
  5
1CB
330
17
100
AcDbEntity
  8
0
100
AcDbLine
 10
72.79846640833733
 20
-130.8697444862222
 30
5.0
 11
43.126537946007375
 21
-185.64667203862336
 31
5.0
  0
LINE
  5
1CC
330
17
100
AcDbEntity
  8
0
100
AcDbLine
 10
72.79846640833733
 20
-130.8697444862222
 30
2.5
 11
72.79846640833733
 21
-130.8697444862222
 31
5.0
  0
LINE
  5
1CD
330
17
100
AcDbEntity
  8
0
100
AcDbLine
 10
77.56143350603413
 20
-122.07689827886378
 30
2.5
 11
72.79846640833732
 21
-130.8697444862222
 31
2.5
  0
LINE
  5
1CE
330
17
100
AcDbEntity
  8
0
100
AcDbLine
 10
77.56143350603412
 20
-122.07689827886375
 30
2.5
 11
77.56143350603412
 21
-122.07689827886375
 31
5.0
  0
LINE
  5
1CF
330
17
100
AcDbEntity
  8
0
100
AcDbLine
 10
87.32794639464771
 20
-104.04707694054518
 30
5.0
 11
77.56143350603412
 21
-122.07689827886375
 31
5.0
  0
LINE
  5
1D0
330
17
100
AcDbEntity
  8
0
100
AcDbLine
 10
14.343083454301507
 20
-158.70172266735642
 30
5.0
 11
-38.25900106758916
 21
-60.27070797692315
 31
5.0
  0
LINE
  5
1D1
330
17
100
AcDbEntity
  8
0
100
AcDbLine
 10
14.343083454301507
 20
-158.70172266735642
 30
2.5
 11
14.343083454301507
 21
-158.70172266735642
 31
5.0
  0
LINE
  5
1D2
330
17
100
AcDbEntity
  8
0
100
AcDbLine
 10
19.05632679041466
 20
-167.5213222758752
 30
2.5
 11
14.34308345430151
 21
-158.7017226673564
 31
2.5
  0
LINE
  5
1D3
330
17
100
AcDbEntity
  8
0
100
AcDbLine
 10
19.05632679041463
 20
-167.52132227587526
 30
2.5
 11
19.05632679041463
 21
-167.52132227587526
 31
5.0
  0
LINE
  5
1D4
330
17
100
AcDbEntity
  8
0
100
AcDbLine
 10
28.720880595873542
 20
-185.6060017376887
 30
5.0
 11
19.056326790414627
 21
-167.52132227587526
 31
5.0
  0
LINE
  5
1D5
330
17
100
AcDbEntity
  8
0
100
AcDbLine
 10
28.720880595873528
 20
-185.6060017376885
 30
5.0
 11
28.720880595873528
 21
-185.6060017376885
 31
0.0
  0
ARC
  5
1D6
330
17
100
AcDbEntity
  8
0
100
AcDbCircle
 10
35.85612199866438
 20
-209.56614218226645
 30
5.0
 40
25.0
100
AcDbArc
 50
73.09314673788646
 51
106.58333725067142
  0
LINE
  5
1D7
330
17
100
AcDbEntity
  8
0
100
AcDbLine
 10
81.13402521362575
 20
-73.50559300045607
 30
5.0
 11
81.13402521362575
 21
-73.50559300045607
 31
0.0
  0
ARC
  5
1D8
330
17
100
AcDbEntity
  8
0
100
AcDbCircle
 10
103.39120854934899
 20
-84.8905738945992
 30
5.0
 40
25.0
100
AcDbArc
 50
97.98810833786793
 51
152.90937529866108
  0
LINE
  5
1D9
330
17
100
AcDbEntity
  8
0
100
AcDbLine
 10
99.91701932046159
 20
-60.133150579522905
 30
5.0
 11
99.91701932046159
 21
-60.133150579522905
 31
0.0
  0
LINE
  5
1DA
330
17
100
AcDbEntity
  8
0
100
AcDbLine
 10
101.18627558211313
 20
-39.66736889307375
 30
5.0
 11
99.91701932046156
 21
-60.133150579523246
 31
5.0
  0
LINE
  5
1DB
330
17
100
AcDbEntity
  8
0
100
AcDbLine
 10
101.18627558211313
 20
-39.66736889307375
 30
2.5
 11
101.18627558211313
 21
-39.66736889307375
 31
5.0
  0
LINE
  5
1DC
330
17
100
AcDbEntity
  8
0
100
AcDbLine
 10
101.80527090641563
 20
-29.68654503987949
 30
2.5
 11
101.18627558211313
 21
-39.66736889307376
 31
2.5
  0
LINE
  5
1DD
330
17
100
AcDbEntity
  8
0
100
AcDbLine
 10
101.80527090641563
 20
-29.68654503987949
 30
2.5
 11
101.80527090641563
 21
-29.68654503987949
 31
5.0
  0
LINE
  5
1DE
330
17
100
AcDbEntity
  8
0
100
AcDbLine
 10
107.13748075784528
 20
56.291240552209736
 30
5.0
 11
101.80527090641563
 21
-29.68654503987949
 31
5.0
  0
LINE
  5
1DF
330
17
100
AcDbEntity
  8
0
100
AcDbLine
 10
107.13748075784531
 20
56.29124055220974
 30
5.0
 11
107.13748075784531
 21
56.29124055220974
 31
0.0
  0
LINE
  5
1E0
330
17
100
AcDbEntity
  8
0
100
AcDbLine
 10
-29.27525038251585
 20
-42.77499452561411
 30
5.0
 11
-29.27525038251585
 21
-42.77499452561411
 31
0.0
  0
LINE
  5
1E1
330
17
100
AcDbEntity
  8
0
100
AcDbLine
 10
-9.521050332126421
 20
-48.27324987293413
 30
5.0
 11
-29.27525038251587
 21
-42.77499452561405
 31
5.0
  0
LINE
  5
1E2
330
17
100
AcDbEntity
  8
0
100
AcDbLine
 10
-9.521050332126421
 20
-48.27324987293413
 30
2.5
 11
-9.521050332126421
 21
-48.27324987293413
 31
5.0
  0
LINE
  5
1E3
330
17
100
AcDbEntity
  8
0
100
AcDbLine
 10
0.11274690486079919
 20
-50.95465823359408
 30
2.5
 11
-9.521050332126453
 21
-48.27324987293418
 31
2.5
  0
LINE
  5
1E4
330
17
100
AcDbEntity
  8
0
100
AcDbLine
 10
0.11274690486079919
 20
-50.95465823359408
 30
2.5
 11
0.11274690486079919
 21
-50.95465823359408
 31
5.0
  0
LINE
  5
1E5
330
17
100
AcDbEntity
  8
0
100
AcDbLine
 10
81.13402521362596
 20
-73.50559300045614
 30
5.0
 11
0.11274690486079919
 21
-50.95465823359409
 31
5.0
  0
LINE
  5
1E6
330
17
100
AcDbEntity
  8
0
100
AcDbLine
 10
-30.8866805657483
 20
-32.03250752915407
 30
5.0
 11
-30.8866805657483
 21
-32.03250752915407
 31
0.0
  0
LINE
  5
1E7
330
17
100
AcDbEntity
  8
0
100
AcDbLine
 10
-5.192114951212545
 20
-15.590166430064244
 30
5.0
 11
107.13748075784531
 21
56.29124055220973
 31
5.0
  0
LINE
  5
1E8
330
17
100
AcDbEntity
  8
0
100
AcDbLine
 10
-5.192114951212545
 20
-15.590166430064244
 30
2.5
 11
-5.192114951212545
 21
-15.590166430064244
 31
5.0
  0
LINE
  5
1E9
330
17
100
AcDbEntity
  8
0
100
AcDbLine
 10
-13.615153540821694
 20
-20.980196199736696
 30
2.5
 11
-5.192114951212556
 21
-15.590166430064238
 31
2.5
  0
LINE
  5
1EA
330
17
100
AcDbEntity
  8
0
100
AcDbLine
 10
-13.615153540821652
 20
-20.980196199736685
 30
2.5
 11
-13.615153540821652
 21
-20.980196199736685
 31
5.0
  0
LINE
  5
1EB
330
17
100
AcDbEntity
  8
0
100
AcDbLine
 10
-30.886680565748094
 20
-32.03250752915395
 30
5.0
 11
-13.615153540821645
 21
-20.98019619973668
 31
5.0
  0
ARC
  5
1EC
330
17
100
AcDbEntity
  8
0
100
AcDbCircle
 10
-54.21384207889899
 20
-41.02381086845818
 30
5.0
 40
25.0
100
AcDbArc
 50
-4.016706635706521
 51
21.078833897748357
  0
LINE
  5
1ED
330
17
100
AcDbEntity
  8
0
100
AcDbLine
 10
-10.582144720884997
 20
-7.167127840455095
 30
5.0
 11
-5.19211495121254
 21
-15.590166430064233
 31
5.0
  0
LINE
  5
1EE
330
17
100
AcDbEntity
  8
0
100
AcDbLine
 10
101.80527090641563
 20
-29.68654503987949
 30
5.0
 11
111.7860947596099
 21
-30.305540364181994
 31
5.0
  0
LINE
  5
1EF
330
17
100
AcDbEntity
  8
0
100
AcDbLine
 10
246.2704305077674
 20
51.70373803242346
 30
5.0
 11
246.95000167600517
 21
61.68062046268693
 31
5.0
  0
LINE
  5
1F0
330
17
100
AcDbEntity
  8
0
100
AcDbLine
 10
-203.1093075591254
 20
-238.45916283340836
 30
5.0
 11
-210.9936761401939
 21
-232.3080058627353
 31
5.0
  0
LINE
  5
1F1
330
17
100
AcDbEntity
  8
0
100
AcDbLine
 10
-210.9936761401939
 20
-232.30800586273534
 30
2.5
 11
-203.1093075591254
 21
-238.45916283340839
 31
2.5
  0
LINE
  5
1F2
330
17
100
AcDbEntity
  8
0
100
AcDbLine
 10
-196.95815058845236
 20
-230.57479425233987
 30
2.5
 11
-204.84251916952087
 21
-224.42363728166683
 31
2.5
  0
LINE
  5
1F3
330
17
100
AcDbEntity
  8
0
100
AcDbLine
 10
-204.84251916952087
 20
-224.42363728166686
 30
5.0
 11
-196.95815058845236
 21
-230.5747942523399
 31
5.0
  0
LINE
  5
1F4
330
17
100
AcDbEntity
  8
0
100
AcDbLine
 10
-84.33191065774007
 20
-87.31529977387386
 30
5.0
 11
-92.1858173688996
 21
-81.12529578579735
 31
5.0
  0
LINE
  5
1F5
330
17
100
AcDbEntity
  8
0
100
AcDbLine
 10
-92.1858173688996
 20
-81.12529578579735
 30
2.5
 11
-84.33191065774007
 21
-87.31529977387386
 31
2.5
  0
LINE
  5
1F6
330
17
100
AcDbEntity
  8
0
100
AcDbLine
 10
-78.14190666966356
 20
-79.46139306271434
 30
2.5
 11
-85.9958133808231
 21
-73.27138907463782
 31
2.5
  0
LINE
  5
1F7
330
17
100
AcDbEntity
  8
0
100
AcDbLine
 10
-85.99581338082311
 20
-73.27138907463782
 30
5.0
 11
-78.14190666966357
 21
-79.46139306271435
 31
5.0
  0
LINE
  5
1F8
330
17
100
AcDbEntity
  8
0
100
AcDbLine
 10
-68.71275935382151
 20
1.8688621405179973
 30
5.0
 11
-77.77459203201329
 21
-2.3599897737083158
 31
5.0
  0
LINE
  5
1F9
330
17
100
AcDbEntity
  8
0
100
AcDbLine
 10
-96.12745805888132
 20
-23.899302248279582
 30
5.0
 11
-98.86421321989656
 21
-33.517523039499565
 31
5.0
  0
LINE
  5
1FA
330
17
100
AcDbEntity
  8
0
100
AcDbLine
 10
5.5234838457827
 20
-163.41496600346957
 30
5.0
 11
14.343083454301503
 21
-158.70172266735642
 31
5.0
  0
LINE
  5
1FB
330
17
100
AcDbEntity
  8
0
100
AcDbLine
 10
-12.202458692786323
 20
-57.90704710992138
 30
5.0
 11
-9.521050332126418
 21
-48.27324987293413
 31
5.0
  0
LINE
  5
1FC
330
17
100
AcDbEntity
  8
0
100
AcDbLine
 10
-13.615153540821652
 20
-20.980196199736685
 30
5.0
 11
-19.00518331049411
 21
-12.557157610127547
 31
5.0
  0
LINE
  5
1FD
330
17
100
AcDbEntity
  8
0
100
AcDbLine
 10
-98.86421321989658
 20
-33.51752303949972
 30
2.5
 11
-96.12745805888133
 21
-23.89930224827974
 31
2.5
  0
LINE
  5
1FE
330
17
100
AcDbEntity
  8
0
100
AcDbLine
 10
-105.74567885010131
 20
-21.162547087264485
 30
2.5
 11
-108.48243401111657
 21
-30.78076787848447
 31
2.5
  0
LINE
  5
1FF
330
17
100
AcDbEntity
  8
0
100
AcDbLine
 10
-108.48243401111657
 20
-30.78076787848447
 30
5.0
 11
-105.74567885010131
 21
-21.162547087264485
 31
5.0
  0
LINE
  5
200
330
17
100
AcDbEntity
  8
0
100
AcDbLine
 10
-77.77459203201335
 20
-2.3599897737083495
 30
2.5
 11
-68.71275935382155
 21
1.8688621405179608
 31
2.5
  0
LINE
  5
201
330
17
100
AcDbEntity
  8
0
100
AcDbLine
 10
-72.94161126804788
 20
10.930694818709753
 30
2.5
 11
-82.00344394623966
 21
6.701842904483443
 31
2.5
  0
LINE
  5
202
330
17
100
AcDbEntity
  8
0
100
AcDbLine
 10
-82.00344394623966
 20
6.701842904483442
 30
5.0
 11
-72.94161126804786
 21
10.930694818709753
 31
5.0
  0
LINE
  5
203
330
17
100
AcDbEntity
  8
0
100
AcDbLine
 10
-19.00518331049416
 20
-12.557157610127547
 30
2.5
 11
-13.615153540821703
 21
-20.980196199736685
 31
2.5
  0
LINE
  5
204
330
17
100
AcDbEntity
  8
0
100
AcDbLine
 10
-5.192114951212545
 20
-15.590166430064244
 30
2.5
 11
-10.582144720885003
 21
-7.167127840455105
 31
2.5
  0
LINE
  5
205
330
17
100
AcDbEntity
  8
0
100
AcDbLine
 10
256.9268841062687
 20
61.001049294449274
 30
5.0
 11
256.2473129380309
 21
51.0241668641858
 31
5.0
  0
LINE
  5
206
330
17
100
AcDbEntity
  8
0
100
AcDbLine
 10
246.95000167600517
 20
61.68062046268693
 30
2.5
 11
246.2704305077674
 21
51.70373803242346
 31
2.5
  0
LINE
  5
207
330
17
100
AcDbEntity
  8
0
100
AcDbLine
 10
256.2473129380309
 20
51.02416686418569
 30
2.5
 11
256.9268841062687
 21
61.00104929444916
 31
2.5
  0
LINE
  5
208
330
17
100
AcDbEntity
  8
0
100
AcDbLine
 10
111.7860947596099
 20
-30.305540364182008
 30
2.5
 11
101.80527090641563
 21
-29.686545039879505
 31
2.5
  0
LINE
  5
209
330
17
100
AcDbEntity
  8
0
100
AcDbLine
 10
101.18627558211313
 20
-39.66736889307376
 30
2.5
 11
111.16709943530739
 21
-40.28636421737626
 31
2.5
  0
LINE
  5
20A
330
17
100
AcDbEntity
  8
0
100
AcDbLine
 10
111.16709943530739
 20
-40.28636421737625
 30
5.0
 11
101.18627558211313
 21
-39.66736889307375
 31
5.0
  0
LINE
  5
20B
330
17
100
AcDbEntity
  8
0
100
AcDbLine
 10
0.11274690486079919
 20
-50.95465823359408
 30
5.0
 11
-2.568661455799101
 21
-60.58845547058134
 31
5.0
  0
LINE
  5
20C
330
17
100
AcDbEntity
  8
0
100
AcDbLine
 10
77.56143350603412
 20
-122.07689827886375
 30
5.0
 11
86.35427971339256
 21
-126.83986537656057
 31
5.0
  0
LINE
  5
20D
330
17
100
AcDbEntity
  8
0
100
AcDbLine
 10
86.35427971339257
 20
-126.8398653765606
 30
2.5
 11
77.56143350603413
 21
-122.07689827886378
 31
2.5
  0
LINE
  5
20E
330
17
100
AcDbEntity
  8
0
100
AcDbLine
 10
72.79846640833733
 20
-130.8697444862222
 30
2.5
 11
81.59131261569577
 21
-135.63271158391902
 31
2.5
  0
LINE
  5
20F
330
17
100
AcDbEntity
  8
0
100
AcDbLine
 10
81.59131261569576
 20
-135.63271158391905
 30
5.0
 11
72.79846640833732
 21
-130.86974448622223
 31
5.0
  0
LINE
  5
210
330
17
100
AcDbEntity
  8
0
100
AcDbLine
 10
19.05632679041463
 20
-167.52132227587526
 30
5.0
 11
10.236727181895827
 21
-172.23456561198842
 31
5.0
  0
LINE
  5
211
330
17
100
AcDbEntity
  8
0
100
AcDbLine
 10
10.236727181895844
 20
-172.23456561198836
 30
2.5
 11
19.056326790414648
 21
-167.5213222758752
 31
2.5
  0
LINE
  5
212
330
17
100
AcDbEntity
  8
0
100
AcDbLine
 10
14.343083454301507
 20
-158.70172266735642
 30
2.5
 11
5.523483845782703
 21
-163.41496600346957
 31
2.5
  0
LINE
  5
213
330
17
100
AcDbEntity
  8
0
100
AcDbLine
 10
-2.568661455799102
 20
-60.58845547058134
 30
2.5
 11
0.1127469048607983
 21
-50.95465823359409
 31
2.5
  0
LINE
  5
214
330
17
100
AcDbEntity
  8
0
100
AcDbLine
 10
-9.52105033212645
 20
-48.27324987293418
 30
2.5
 11
-12.202458692786351
 21
-57.907047109921436
 31
2.5
  0
ENDSEC
  0
SECTION
  2
OBJECTS
  0
DICTIONARY
  5
A
330
0
100
AcDbDictionary
280
0
281
1
  3
ACAD_COLOR
350
B
  3
ACAD_GROUP
350
C
  3
ACAD_LAYOUT
350
D
  3
ACAD_MATERIAL
350
E
  3
ACAD_MLEADERSTYLE
350
F
  3
ACAD_MLINESTYLE
350
10
  3
ACAD_PLOTSETTINGS
350
11
  3
ACAD_PLOTSTYLENAME
350
12
  3
ACAD_SCALELIST
350
14
  3
ACAD_TABLESTYLE
350
15
  3
ACAD_VISUALSTYLE
350
16
  3
EZDXF_META
350
2D
  0
DICTIONARY
  5
B
330
A
100
AcDbDictionary
280
0
281
1
  0
DICTIONARY
  5
C
330
A
100
AcDbDictionary
280
0
281
1
  0
DICTIONARY
  5
D
330
A
100
AcDbDictionary
280
0
281
1
  3
Model
350
1A
  3
Layout1
350
1E
  0
DICTIONARY
  5
E
330
A
100
AcDbDictionary
280
0
281
1
  3
ByBlock
350
1F
  3
ByLayer
350
20
  3
Global
350
21
  0
DICTIONARY
  5
F
330
A
100
AcDbDictionary
280
0
281
1
  3
Standard
350
2C
  0
DICTIONARY
  5
10
330
A
100
AcDbDictionary
280
0
281
1
  3
Standard
350
22
  0
DICTIONARY
  5
11
330
A
100
AcDbDictionary
280
0
281
1
  0
ACDBDICTIONARYWDFLT
  5
12
330
A
100
AcDbDictionary
280
0
281
1
  3
Normal
350
13
100
AcDbDictionaryWithDefault
340
13
  0
ACDBPLACEHOLDER
  5
13
330
12
  0
DICTIONARY
  5
14
330
A
100
AcDbDictionary
280
0
281
1
  0
DICTIONARY
  5
15
330
A
100
AcDbDictionary
280
0
281
1
  0
DICTIONARY
  5
16
330
A
100
AcDbDictionary
280
0
281
1
  0
LAYOUT
  5
1A
330
D
100
AcDbPlotSettings
  1

  2
Adobe PDF
  4
A3
  6

 40
7.5
 41
20.0
 42
7.5
 43
20.0
 44
420.0
 45
297.0
 46
0.0
 47
0.0
 48
0.0
 49
0.0
140
0.0
141
0.0
142
1.0
143
1.0
 70
1024
 72
1
 73
0
 74
5
  7

 75
16
 76
0
 77
2
 78
300
147
1.0
148
0.0
149
0.0
100
AcDbLayout
  1
Model
 70
1
 71
0
 10
0.0
 20
0.0
 11
420.0
 21
297.0
 12
0.0
 22
0.0
 32
0.0
 14
1e+20
 24
1e+20
 34
1e+20
 15
-1e+20
 25
-1e+20
 35
-1e+20
146
0.0
 13
0.0
 23
0.0
 33
0.0
 16
1.0
 26
0.0
 36
0.0
 17
0.0
 27
1.0
 37
0.0
 76
1
330
17
  0
LAYOUT
  5
1E
330
D
100
AcDbPlotSettings
  1

  2
Adobe PDF
  4
A3
  6

 40
7.5
 41
20.0
 42
7.5
 43
20.0
 44
420.0
 45
297.0
 46
0.0
 47
0.0
 48
0.0
 49
0.0
140
0.0
141
0.0
142
1.0
143
1.0
 70
0
 72
1
 73
0
 74
5
  7

 75
16
 76
0
 77
2
 78
300
147
1.0
148
0.0
149
0.0
100
AcDbLayout
  1
Layout1
 70
1
 71
1
 10
0.0
 20
0.0
 11
420.0
 21
297.0
 12
0.0
 22
0.0
 32
0.0
 14
1e+20
 24
1e+20
 34
1e+20
 15
-1e+20
 25
-1e+20
 35
-1e+20
146
0.0
 13
0.0
 23
0.0
 33
0.0
 16
1.0
 26
0.0
 36
0.0
 17
0.0
 27
1.0
 37
0.0
 76
1
330
1B
  0
MATERIAL
  5
1F
102
{ACAD_REACTORS
330
E
102
}
330
E
100
AcDbMaterial
  1
ByBlock
  2

 70
0
 40
1.0
 71
1
 41
1.0
 91
-1023410177
 42
1.0
 72
1
  3

 73
1
 74
1
 75
1
 44
0.5
 73
0
 45
1.0
 46
1.0
 77
1
  4

 78
1
 79
1
170
1
 48
1.0
171
1
  6

172
1
173
1
174
1
140
1.0
141
1.0
175
1
  7

176
1
177
1
178
1
143
1.0
179
1
  8

270
1
271
1
272
1
145
1.0
146
1.0
273
1
  9

274
1
275
1
276
1
 42
1.0
 72
1
  3

 73
1
 74
1
 75
1
 94
63
  0
MATERIAL
  5
20
102
{ACAD_REACTORS
330
E
102
}
330
E
100
AcDbMaterial
  1
ByLayer
  2

 70
0
 40
1.0
 71
1
 41
1.0
 91
-1023410177
 42
1.0
 72
1
  3

 73
1
 74
1
 75
1
 44
0.5
 73
0
 45
1.0
 46
1.0
 77
1
  4

 78
1
 79
1
170
1
 48
1.0
171
1
  6

172
1
173
1
174
1
140
1.0
141
1.0
175
1
  7

176
1
177
1
178
1
143
1.0
179
1
  8

270
1
271
1
272
1
145
1.0
146
1.0
273
1
  9

274
1
275
1
276
1
 42
1.0
 72
1
  3

 73
1
 74
1
 75
1
 94
63
  0
MATERIAL
  5
21
102
{ACAD_REACTORS
330
E
102
}
330
E
100
AcDbMaterial
  1
Global
  2

 70
0
 40
1.0
 71
1
 41
1.0
 91
-1023410177
 42
1.0
 72
1
  3

 73
1
 74
1
 75
1
 44
0.5
 73
0
 45
1.0
 46
1.0
 77
1
  4

 78
1
 79
1
170
1
 48
1.0
171
1
  6

172
1
173
1
174
1
140
1.0
141
1.0
175
1
  7

176
1
177
1
178
1
143
1.0
179
1
  8

270
1
271
1
272
1
145
1.0
146
1.0
273
1
  9

274
1
275
1
276
1
 42
1.0
 72
1
  3

 73
1
 74
1
 75
1
 94
63
  0
MLINESTYLE
  5
22
102
{ACAD_REACTORS
330
10
102
}
330
10
100
AcDbMlineStyle
  2
Standard
 70
0
  3

 62
256
 51
90.0
 52
90.0
 71
2
 49
0.5
 62
256
  6
BYLAYER
 49
-0.5
 62
256
  6
BYLAYER
  0
MLEADERSTYLE
  5
2C
102
{ACAD_REACTORS
330
F
102
}
330
F
100
AcDbMLeaderStyle
179
2
170
2
171
1
172
0
 90
2
 40
0.0
 41
0.0
173
1
 91
-1056964608
 92
-2
290
1
 42
2.0
291
1
 43
8.0
  3
Standard
 44
4.0
300

342
29
174
1
175
1
176
0
178
1
 93
-1056964608
 45
4.0
292
0
297
0
 46
4.0
 94
-1056964608
 47
1.0
 49
1.0
140
1.0
294
1
141
0.0
177
0
142
1.0
295
0
296
0
143
3.75
271
0
272
9
273
9
  0
DICTIONARY
  5
2D
330
A
100
AcDbDictionary
281
1
  3
CREATED_BY_EZDXF
350
2E
  3
WRITTEN_BY_EZDXF
350
217
  0
DICTIONARYVAR
  5
2E
330
2D
100
DictionaryVariables
280
0
  1
1.0.2 @ 2023-03-28T19:26:19.595123+00:00
  0
DICTIONARYVAR
  5
217
330
2D
100
DictionaryVariables
280
0
  1
1.0.2 @ 2023-03-28T19:26:19.618142+00:00
  0
ENDSEC
  0
EOF
