  0
SECTION
  2
HEADER
  9
$ACADVER
  1
AC1027
  9
$ACADMAINTVER
 70
105
  9
$DWGCODEPAGE
  3
ANSI_1252
  9
$LASTSAVEDBY
  1
ezdxf
  9
$REQUIREDVERSIONS
160
0
  9
$INSBASE
 10
0.0
 20
0.0
 30
0.0
  9
$EXTMIN
 10
1e+20
 20
1e+20
 30
1e+20
  9
$EXTMAX
 10
-1e+20
 20
-1e+20
 30
-1e+20
  9
$LIMMIN
 10
0.0
 20
0.0
  9
$LIMMAX
 10
420.0
 20
297.0
  9
$ORTHOMODE
 70
0
  9
$REGENMODE
 70
1
  9
$FILLMODE
 70
1
  9
$QTEXTMODE
 70
0
  9
$MIRRTEXT
 70
1
  9
$LTSCALE
 40
1.0
  9
$ATTMODE
 70
1
  9
$TEXTSIZE
 40
2.5
  9
$TRACEWID
 40
1.0
  9
$TEXTSTYLE
  7
Standard
  9
$CLAYER
  8
0
  9
$CELTYPE
  6
ByLayer
  9
$CECOLOR
 62
256
  9
$CELTSCALE
 40
1.0
  9
$DISPSILH
 70
0
  9
$DIMSCALE
 40
1.0
  9
$DIMASZ
 40
2.5
  9
$DIMEXO
 40
0.625
  9
$DIMDLI
 40
3.75
  9
$DIMRND
 40
0.0
  9
$DIMDLE
 40
0.0
  9
$DIMEXE
 40
1.25
  9
$DIMTP
 40
0.0
  9
$DIMTM
 40
0.0
  9
$DIMTXT
 40
2.5
  9
$DIMCEN
 40
2.5
  9
$DIMTSZ
 40
0.0
  9
$DIMTOL
 70
0
  9
$DIMLIM
 70
0
  9
$DIMTIH
 70
0
  9
$DIMTOH
 70
0
  9
$DIMSE1
 70
0
  9
$DIMSE2
 70
0
  9
$DIMTAD
 70
1
  9
$DIMZIN
 70
8
  9
$DIMBLK
  1

  9
$DIMASO
 70
1
  9
$DIMSHO
 70
1
  9
$DIMPOST
  1

  9
$DIMAPOST
  1

  9
$DIMALT
 70
0
  9
$DIMALTD
 70
3
  9
$DIMALTF
 40
0.03937007874
  9
$DIMLFAC
 40
1.0
  9
$DIMTOFL
 70
1
  9
$DIMTVP
 40
0.0
  9
$DIMTIX
 70
0
  9
$DIMSOXD
 70
0
  9
$DIMSAH
 70
0
  9
$DIMBLK1
  1

  9
$DIMBLK2
  1

  9
$DIMSTYLE
  2
ISO-25
  9
$DIMCLRD
 70
0
  9
$DIMCLRE
 70
0
  9
$DIMCLRT
 70
0
  9
$DIMTFAC
 40
1.0
  9
$DIMGAP
 40
0.625
  9
$DIMJUST
 70
0
  9
$DIMSD1
 70
0
  9
$DIMSD2
 70
0
  9
$DIMTOLJ
 70
0
  9
$DIMTZIN
 70
8
  9
$DIMALTZ
 70
0
  9
$DIMALTTZ
 70
0
  9
$DIMUPT
 70
0
  9
$DIMDEC
 70
2
  9
$DIMTDEC
 70
2
  9
$DIMALTU
 70
2
  9
$DIMALTTD
 70
3
  9
$DIMTXSTY
  7
Standard
  9
$DIMAUNIT
 70
0
  9
$DIMADEC
 70
0
  9
$DIMALTRND
 40
0.0
  9
$DIMAZIN
 70
0
  9
$DIMDSEP
 70
44
  9
$DIMATFIT
 70
3
  9
$DIMFRAC
 70
0
  9
$DIMLDRBLK
  1

  9
$DIMLUNIT
 70
2
  9
$DIMLWD
 70
-2
  9
$DIMLWE
 70
-2
  9
$DIMTMOVE
 70
0
  9
$DIMFXL
 40
1.0
  9
$DIMFXLON
 70
0
  9
$DIMJOGANG
 40
0.785398163397
  9
$DIMTFILL
 70
0
  9
$DIMTFILLCLR
 70
0
  9
$DIMARCSYM
 70
0
  9
$DIMLTYPE
  6

  9
$DIMLTEX1
  6

  9
$DIMLTEX2
  6

  9
$DIMTXTDIRECTION
 70
0
  9
$LUNITS
 70
2
  9
$LUPREC
 70
4
  9
$SKETCHINC
 40
1.0
  9
$FILLETRAD
 40
10.0
  9
$AUNITS
 70
0
  9
$AUPREC
 70
2
  9
$MENU
  1
.
  9
$ELEVATION
 40
0.0
  9
$PELEVATION
 40
0.0
  9
$THICKNESS
 40
0.0
  9
$LIMCHECK
 70
0
  9
$CHAMFERA
 40
0.0
  9
$CHAMFERB
 40
0.0
  9
$CHAMFERC
 40
0.0
  9
$CHAMFERD
 40
0.0
  9
$SKPOLY
 70
0
  9
$TDCREATE
 40
2460032.6434375
  9
$TDUCREATE
 40
2458532.153996898
  9
$TDUPDATE
 40
2460032.6434375
  9
$TDUUPDATE
 40
2458532.1544311
  9
$TDINDWG
 40
0.0
  9
$TDUSRTIMER
 40
0.0
  9
$USRTIMER
 70
1
  9
$ANGBASE
 50
0.0
  9
$ANGDIR
 70
0
  9
$PDMODE
 70
0
  9
$PDSIZE
 40
0.0
  9
$PLINEWID
 40
0.0
  9
$SPLFRAME
 70
0
  9
$SPLINETYPE
 70
6
  9
$SPLINESEGS
 70
8
  9
$HANDSEED
  5
212
  9
$SURFTAB1
 70
6
  9
$SURFTAB2
 70
6
  9
$SURFTYPE
 70
6
  9
$SURFU
 70
6
  9
$SURFV
 70
6
  9
$UCSBASE
  2

  9
$UCSNAME
  2

  9
$UCSORG
 10
0.0
 20
0.0
 30
0.0
  9
$UCSXDIR
 10
1.0
 20
0.0
 30
0.0
  9
$UCSYDIR
 10
0.0
 20
1.0
 30
0.0
  9
$UCSORTHOREF
  2

  9
$UCSORTHOVIEW
 70
0
  9
$UCSORGTOP
 10
0.0
 20
0.0
 30
0.0
  9
$UCSORGBOTTOM
 10
0.0
 20
0.0
 30
0.0
  9
$UCSORGLEFT
 10
0.0
 20
0.0
 30
0.0
  9
$UCSORGRIGHT
 10
0.0
 20
0.0
 30
0.0
  9
$UCSORGFRONT
 10
0.0
 20
0.0
 30
0.0
  9
$UCSORGBACK
 10
0.0
 20
0.0
 30
0.0
  9
$PUCSBASE
  2

  9
$PUCSNAME
  2

  9
$PUCSORG
 10
0.0
 20
0.0
 30
0.0
  9
$PUCSXDIR
 10
1.0
 20
0.0
 30
0.0
  9
$PUCSYDIR
 10
0.0
 20
1.0
 30
0.0
  9
$PUCSORTHOREF
  2

  9
$PUCSORTHOVIEW
 70
0
  9
$PUCSORGTOP
 10
0.0
 20
0.0
 30
0.0
  9
$PUCSORGBOTTOM
 10
0.0
 20
0.0
 30
0.0
  9
$PUCSORGLEFT
 10
0.0
 20
0.0
 30
0.0
  9
$PUCSORGRIGHT
 10
0.0
 20
0.0
 30
0.0
  9
$PUCSORGFRONT
 10
0.0
 20
0.0
 30
0.0
  9
$PUCSORGBACK
 10
0.0
 20
0.0
 30
0.0
  9
$USERI1
 70
0
  9
$USERI2
 70
0
  9
$USERI3
 70
0
  9
$USERI4
 70
0
  9
$USERI5
 70
0
  9
$USERR1
 40
0.0
  9
$USERR2
 40
0.0
  9
$USERR3
 40
0.0
  9
$USERR4
 40
0.0
  9
$USERR5
 40
0.0
  9
$WORLDVIEW
 70
1
  9
$SHADEDGE
 70
3
  9
$SHADEDIF
 70
70
  9
$TILEMODE
 70
1
  9
$MAXACTVP
 70
64
  9
$PINSBASE
 10
0.0
 20
0.0
 30
0.0
  9
$PLIMCHECK
 70
0
  9
$PEXTMIN
 10
1e+20
 20
1e+20
 30
1e+20
  9
$PEXTMAX
 10
-1e+20
 20
-1e+20
 30
-1e+20
  9
$PLIMMIN
 10
0.0
 20
0.0
  9
$PLIMMAX
 10
420.0
 20
297.0
  9
$UNITMODE
 70
0
  9
$VISRETAIN
 70
1
  9
$PLINEGEN
 70
0
  9
$PSLTSCALE
 70
1
  9
$TREEDEPTH
 70
3020
  9
$CMLSTYLE
  2
Standard
  9
$CMLJUST
 70
0
  9
$CMLSCALE
 40
20.0
  9
$PROXYGRAPHICS
 70
1
  9
$MEASUREMENT
 70
1
  9
$CELWEIGHT
370
-1
  9
$ENDCAPS
280
0
  9
$JOINSTYLE
280
0
  9
$LWDISPLAY
290
0
  9
$INSUNITS
 70
6
  9
$HYPERLINKBASE
  1

  9
$STYLESHEET
  1

  9
$XEDIT
290
1
  9
$CEPSNTYPE
380
0
  9
$PSTYLEMODE
290
1
  9
$FINGERPRINTGUID
  2
{971ED762-12E5-49DB-A825-294162BF931C}
  9
$VERSIONGUID
  2
{EE764816-03A4-4D35-99DF-850BD2F6834A}
  9
$EXTNAMES
290
1
  9
$PSVPSCALE
 40
0.0
  9
$OLESTARTUP
290
0
  9
$SORTENTS
280
127
  9
$INDEXCTL
280
0
  9
$HIDETEXT
280
1
  9
$XCLIPFRAME
280
0
  9
$HALOGAP
280
0
  9
$OBSCOLOR
 70
257
  9
$OBSLTYPE
280
0
  9
$INTERSECTIONDISPLAY
280
0
  9
$INTERSECTIONCOLOR
 70
257
  9
$DIMASSOC
280
2
  9
$PROJECTNAME
  1

  9
$CAMERADISPLAY
290
0
  9
$LENSLENGTH
 40
50.0
  9
$CAMERAHEIGHT
 40
0.0
  9
$STEPSPERSEC
 40
24.0
  9
$STEPSIZE
 40
100.0
  9
$3DDWFPREC
 40
2.0
  9
$PSOLWIDTH
 40
0.005
  9
$PSOLHEIGHT
 40
0.08
  9
$LOFTANG1
 40
1.570796326795
  9
$LOFTANG2
 40
1.570796326795
  9
$LOFTMAG1
 40
0.0
  9
$LOFTMAG2
 40
0.0
  9
$LOFTPARAM
 70
7
  9
$LOFTNORMALS
280
1
  9
$LATITUDE
 40
37.795
  9
$LONGITUDE
 40
-122.394
  9
$NORTHDIRECTION
 40
0.0
  9
$TIMEZONE
 70
-8000
  9
$LIGHTGLYPHDISPLAY
280
1
  9
$TILEMODELIGHTSYNCH
280
1
  9
$CMATERIAL
347
20
  9
$SOLIDHIST
280
0
  9
$SHOWHIST
280
1
  9
$DWFFRAME
280
2
  9
$DGNFRAME
280
2
  9
$REALWORLDSCALE
290
1
  9
$INTERFERECOLOR
 62
256
  9
$CSHADOW
280
0
  9
$SHADOWPLANELOCATION
 40
0.0
  0
ENDSEC
  0
SECTION
  2
CLASSES
  0
CLASS
  1
ACDBDICTIONARYWDFLT
  2
AcDbDictionaryWithDefault
  3
ObjectDBX Classes
 90
0
 91
0
280
0
281
0
  0
CLASS
  1
SUN
  2
AcDbSun
  3
SCENEOE
 90
1153
 91
0
280
0
281
0
  0
CLASS
  1
VISUALSTYLE
  2
AcDbVisualStyle
  3
ObjectDBX Classes
 90
4095
 91
0
280
0
281
0
  0
CLASS
  1
MATERIAL
  2
AcDbMaterial
  3
ObjectDBX Classes
 90
1153
 91
0
280
0
281
0
  0
CLASS
  1
SCALE
  2
AcDbScale
  3
ObjectDBX Classes
 90
1153
 91
0
280
0
281
0
  0
CLASS
  1
TABLESTYLE
  2
AcDbTableStyle
  3
ObjectDBX Classes
 90
4095
 91
0
280
0
281
0
  0
CLASS
  1
MLEADERSTYLE
  2
AcDbMLeaderStyle
  3
ACDB_MLEADERSTYLE_CLASS
 90
4095
 91
0
280
0
281
0
  0
CLASS
  1
DICTIONARYVAR
  2
AcDbDictionaryVar
  3
ObjectDBX Classes
 90
0
 91
0
280
0
281
0
  0
CLASS
  1
CELLSTYLEMAP
  2
AcDbCellStyleMap
  3
ObjectDBX Classes
 90
1152
 91
0
280
0
281
0
  0
CLASS
  1
MENTALRAYRENDERSETTINGS
  2
AcDbMentalRayRenderSettings
  3
SCENEOE
 90
1024
 91
0
280
0
281
0
  0
CLASS
  1
ACDBDETAILVIEWSTYLE
  2
AcDbDetailViewStyle
  3
ObjectDBX Classes
 90
1025
 91
0
280
0
281
0
  0
CLASS
  1
ACDBSECTIONVIEWSTYLE
  2
AcDbSectionViewStyle
  3
ObjectDBX Classes
 90
1025
 91
0
280
0
281
0
  0
CLASS
  1
RASTERVARIABLES
  2
AcDbRasterVariables
  3
ISM
 90
0
 91
0
280
0
281
0
  0
CLASS
  1
LAYOUT
  2
AcDbLayout
  3
ObjectDBX Classes
 90
0
 91
0
280
0
281
0
  0
CLASS
  1
ACDBPLACEHOLDER
  2
AcDbPlaceHolder
  3
ObjectDBX Classes
 90
0
 91
0
280
0
281
0
  0
ENDSEC
  0
SECTION
  2
TABLES
  0
TABLE
  2
VPORT
  5
8
330
0
100
AcDbSymbolTable
 70
1
  0
VPORT
  5
23
330
8
100
AcDbSymbolTableRecord
100
AcDbViewportTableRecord
  2
*Active
 70
0
 10
0.0
 20
0.0
 11
1.0
 21
1.0
 12
0.0
 22
0.0
 13
0.0
 23
0.0
 14
0.5
 24
0.5
 15
0.5
 25
0.5
 16
0.0
 26
0.0
 36
1.0
 17
0.0
 27
0.0
 37
0.0
 40
1000.0
 41
1.34
 42
50.0
 43
0.0
 44
0.0
 50
0.0
 51
0.0
 71
0
 72
1000
 73
1
 74
3
 75
0
 76
0
 77
0
 78
0
281
0
 65
0
146
0.0
  0
ENDTAB
  0
TABLE
  2
LTYPE
  5
2
330
0
100
AcDbSymbolTable
 70
3
  0
LTYPE
  5
24
330
2
100
AcDbSymbolTableRecord
100
AcDbLinetypeTableRecord
  2
ByBlock
 70
0
  3

 72
65
 73
0
 40
0.0
  0
LTYPE
  5
25
330
2
100
AcDbSymbolTableRecord
100
AcDbLinetypeTableRecord
  2
ByLayer
 70
0
  3

 72
65
 73
0
 40
0.0
  0
LTYPE
  5
26
330
2
100
AcDbSymbolTableRecord
100
AcDbLinetypeTableRecord
  2
Continuous
 70
0
  3

 72
65
 73
0
 40
0.0
  0
ENDTAB
  0
TABLE
  2
LAYER
  5
1
330
0
100
AcDbSymbolTable
 70
2
  0
LAYER
  5
27
330
1
100
AcDbSymbolTableRecord
100
AcDbLayerTableRecord
  2
0
 70
0
 62
7
  6
Continuous
370
-3
390
13
347
21
  0
LAYER
  5
28
330
1
100
AcDbSymbolTableRecord
100
AcDbLayerTableRecord
  2
Defpoints
 70
0
 62
7
  6
Continuous
290
0
370
-3
390
13
347
21
  0
ENDTAB
  0
TABLE
  2
STYLE
  5
5
330
0
100
AcDbSymbolTable
 70
1
  0
STYLE
  5
29
330
5
100
AcDbSymbolTableRecord
100
AcDbTextStyleTableRecord
  2
Standard
 70
0
 40
0.0
 41
1.0
 50
0.0
 71
0
 42
2.5
  3
txt
  4

  0
ENDTAB
  0
TABLE
  2
VIEW
  5
7
330
0
100
AcDbSymbolTable
 70
0
  0
ENDTAB
  0
TABLE
  2
UCS
  5
6
330
0
100
AcDbSymbolTable
 70
0
  0
ENDTAB
  0
TABLE
  2
APPID
  5
3
330
0
100
AcDbSymbolTable
 70
3
  0
APPID
  5
2A
330
3
100
AcDbSymbolTableRecord
100
AcDbRegAppTableRecord
  2
ACAD
 70
0
  0
APPID
  5
20F
330
3
100
AcDbSymbolTableRecord
100
AcDbRegAppTableRecord
  2
HATCHBACKGROUNDCOLOR
 70
0
  0
APPID
  5
210
330
3
100
AcDbSymbolTableRecord
100
AcDbRegAppTableRecord
  2
EZDXF
 70
0
  0
ENDTAB
  0
TABLE
  2
DIMSTYLE
  5
4
330
0
100
AcDbSymbolTable
 70
1
100
AcDbDimStyleTable
  0
DIMSTYLE
105
2B
330
4
100
AcDbSymbolTableRecord
100
AcDbDimStyleTableRecord
  2
Standard
 70
0
 40
1.0
 41
2.5
 42
0.625
 43
3.75
 44
1.25
 45
0.0
 46
0.0
 47
0.0
 48
0.0
 49
2.5
140
2.5
141
2.5
142
0.0
143
0.03937007874
144
1.0
145
0.0
146
1.0
147
0.625
148
0.0
 69
0
 70
0
 71
0
 72
0
 73
0
 74
0
 75
0
 76
0
 77
1
 78
8
 79
3
170
0
171
3
172
1
173
0
174
0
175
0
176
0
177
0
178
0
179
2
271
2
272
2
273
2
274
3
275
0
276
0
277
2
278
44
279
0
280
0
281
0
282
0
283
0
284
8
285
0
286
0
288
0
289
3
290
0
371
-2
372
-2
  0
ENDTAB
  0
TABLE
  2
BLOCK_RECORD
  5
9
330
0
100
AcDbSymbolTable
 70
2
  0
BLOCK_RECORD
  5
17
330
9
100
AcDbSymbolTableRecord
100
AcDbBlockTableRecord
  2
*Model_Space
340
1A
 70
0
280
1
281
0
  0
BLOCK_RECORD
  5
1B
330
9
100
AcDbSymbolTableRecord
100
AcDbBlockTableRecord
  2
*Paper_Space
340
1E
 70
0
280
1
281
0
  0
ENDTAB
  0
ENDSEC
  0
SECTION
  2
BLOCKS
  0
BLOCK
  5
18
330
17
100
AcDbEntity
  8
0
100
AcDbBlockBegin
  2
*Model_Space
 70
0
 10
0.0
 20
0.0
 30
0.0
  3
*Model_Space
  1

  0
ENDBLK
  5
19
330
17
100
AcDbEntity
  8
0
100
AcDbBlockEnd
  0
BLOCK
  5
1C
330
1B
100
AcDbEntity
  8
0
100
AcDbBlockBegin
  2
*Paper_Space
 70
0
 10
0.0
 20
0.0
 30
0.0
  3
*Paper_Space
  1

  0
ENDBLK
  5
1D
330
1B
100
AcDbEntity
  8
0
100
AcDbBlockEnd
  0
ENDSEC
  0
SECTION
  2
ENTITIES
  0
ARC
  5
2F
330
17
100
AcDbEntity
  8
0
100
AcDbCircle
 10
404.66927412234133
 20
102.21457682560887
 30
0.0
 40
25.0
100
AcDbArc
 50
-52.577405420163565
 51
14.348676514206971
  0
LINE
  5
30
330
17
100
AcDbEntity
  8
0
100
AcDbLine
 10
419.8615008659358
 20
82.36020082002227
 30
5.0
 11
419.8615008659358
 21
82.36020082002227
 31
0.0
  0
ARC
  5
31
330
17
100
AcDbEntity
  8
0
100
AcDbCircle
 10
404.66927412234133
 20
102.21457682560887
 30
5.0
 40
25.0
100
AcDbArc
 50
-52.57740542016356
 51
14.348676514206971
  0
LINE
  5
32
330
17
100
AcDbEntity
  8
0
100
AcDbLine
 10
428.88941262003635
 20
108.41013096970867
 30
5.0
 11
428.88941262003635
 21
108.41013096970867
 31
0.0
  0
LINE
  5
33
330
17
100
AcDbEntity
  8
0
100
AcDbLine
 10
428.8894126200366
 20
108.41013096970879
 30
0.0
 11
447.33718206612184
 21
117.36217174034951
 31
0.0
  0
LINE
  5
34
330
17
100
AcDbEntity
  8
0
100
AcDbLine
 10
447.3371820661218
 20
117.36217174034952
 30
0.0
 11
442.97141957401334
 21
126.35884433984424
 31
0.0
  0
LINE
  5
35
330
17
100
AcDbEntity
  8
0
100
AcDbLine
 10
424.5236501279279
 20
117.4068035692034
 30
0.0
 11
442.97141957401334
 21
126.35884433984424
 31
0.0
  0
ARC
  5
36
330
17
100
AcDbEntity
  8
0
100
AcDbCircle
 10
404.66927412234133
 20
102.21457682560887
 30
0.0
 40
25.0
100
AcDbArc
 50
37.422594579836414
 51
104.34867651420704
  0
LINE
  5
37
330
17
100
AcDbEntity
  8
0
100
AcDbLine
 10
398.4737199782414
 20
126.43471532330412
 30
0.0
 11
389.52167920760064
 21
144.88248476938932
 31
0.0
  0
LINE
  5
38
330
17
100
AcDbEntity
  8
0
100
AcDbLine
 10
389.52167920760064
 20
144.88248476938932
 30
0.0
 11
380.5250066081059
 21
140.51672227728088
 31
0.0
  0
LINE
  5
39
330
17
100
AcDbEntity
  8
0
100
AcDbLine
 10
380.5250066081059
 20
140.51672227728085
 30
0.0
 11
389.47704737874676
 21
122.06895283119538
 31
0.0
  0
ARC
  5
3A
330
17
100
AcDbEntity
  8
0
100
AcDbCircle
 10
404.66927412234133
 20
102.21457682560887
 30
0.0
 40
25.0
100
AcDbArc
 50
127.42259457983646
 51
194.34867651420709
  0
LINE
  5
3B
330
17
100
AcDbEntity
  8
0
100
AcDbLine
 10
251.91641031849622
 20
33.64670169901768
 30
0.0
 11
380.44913562464615
 21
96.01902268150894
 31
0.0
  0
LINE
  5
3C
330
17
100
AcDbEntity
  8
0
100
AcDbLine
 10
251.91641031849622
 20
33.6467016990177
 30
0.0
 11
54.51233454071402
 21
69.57493873591449
 31
0.0
  0
ARC
  5
3D
330
17
100
AcDbEntity
  8
0
100
AcDbCircle
 10
29.51801878000025
 20
69.04185370168227
 30
0.0
 40
25.0
100
AcDbArc
 50
1.2218335073156803
 51
67.55347638627417
  0
LINE
  5
3E
330
17
100
AcDbEntity
  8
0
100
AcDbLine
 10
61.563484206653946
 20
208.88334787751262
 30
0.0
 11
39.06354310494473
 21
92.14776128744691
 31
0.0
  0
ARC
  5
3F
330
17
100
AcDbEntity
  8
0
100
AcDbCircle
 10
61.28973720495856
 20
233.88184908416608
 30
0.0
 40
25.0
100
AcDbArc
 50
270.62739445190635
 51
337.553476386274
  0
LINE
  5
40
330
17
100
AcDbEntity
  8
0
100
AcDbLine
 10
84.39564479072311
 20
224.3363247592216
 30
0.0
 11
104.53016136439305
 21
220.45554212684553
 31
0.0
  0
LINE
  5
41
330
17
100
AcDbEntity
  8
0
100
AcDbLine
 10
104.53016136439305
 20
220.45554212684553
 30
0.0
 11
106.42275498528208
 21
230.2748134534853
 31
0.0
  0
LINE
  5
42
330
17
100
AcDbEntity
  8
0
100
AcDbLine
 10
106.42275498528208
 20
230.2748134534853
 30
0.0
 11
86.28823841161201
 21
234.15559608586142
 31
0.0
  0
ARC
  5
43
330
17
100
AcDbEntity
  8
0
100
AcDbCircle
 10
61.28973720495856
 20
233.88184908416608
 30
0.0
 40
25.0
100
AcDbArc
 50
0.6273944519062383
 51
67.55347638627401
  0
LINE
  5
44
330
17
100
AcDbEntity
  8
0
100
AcDbLine
 10
70.83526152990302
 20
256.9877566699306
 30
0.0
 11
74.71604416227912
 21
277.12227324360055
 31
0.0
  0
LINE
  5
45
330
17
100
AcDbEntity
  8
0
100
AcDbLine
 10
74.7160441622791
 20
277.12227324360055
 30
0.0
 11
64.89677283563933
 21
279.0148668644896
 31
0.0
  0
LINE
  5
46
330
17
100
AcDbEntity
  8
0
100
AcDbLine
 10
61.015990203263115
 20
258.8803502908196
 30
0.0
 11
64.89677283563933
 21
279.0148668644896
 31
0.0
  0
ARC
  5
47
330
17
100
AcDbEntity
  8
0
100
AcDbCircle
 10
61.28973720495856
 20
233.88184908416608
 30
0.0
 40
25.0
100
AcDbArc
 50
90.6273944519065
 51
157.5534763862739
  0
LINE
  5
48
330
17
100
AcDbEntity
  8
0
100
AcDbLine
 10
38.18382961919403
 20
243.42737340911057
 30
0.0
 11
18.049313045524087
 21
247.30815604148668
 31
0.0
  0
LINE
  5
49
330
17
100
AcDbEntity
  8
0
100
AcDbLine
 10
18.049313045524087
 20
247.30815604148665
 30
0.0
 11
16.156719424635043
 21
237.48888471484688
 31
0.0
  0
LINE
  5
4A
330
17
100
AcDbEntity
  8
0
100
AcDbLine
 10
16.156719424635043
 20
237.48888471484688
 30
0.0
 11
36.2912359983051
 21
233.60810208247074
 31
0.0
  0
ARC
  5
4B
330
17
100
AcDbEntity
  8
0
100
AcDbCircle
 10
61.28973720495856
 20
233.88184908416608
 30
0.0
 40
25.0
100
AcDbArc
 50
180.62739445190624
 51
247.55347638627316
  0
LINE
  5
4C
330
17
100
AcDbEntity
  8
0
100
AcDbLine
 10
29.24427177830384
 20
94.04035490833569
 30
0.0
 11
51.744212880013805
 21
210.77594149840172
 31
0.0
  0
ARC
  5
4D
330
17
100
AcDbEntity
  8
0
100
AcDbCircle
 10
29.51801878000025
 20
69.04185370168227
 30
0.0
 40
25.0
100
AcDbArc
 50
90.62739445190779
 51
120.69782187674787
  0
LINE
  5
4E
330
17
100
AcDbEntity
  8
0
100
AcDbLine
 10
-61.75802274051213
 20
177.02117729855019
 30
0.0
 11
16.755263032612078
 21
90.53864568868586
 31
0.0
  0
ARC
  5
4F
330
17
100
AcDbEntity
  8
0
100
AcDbCircle
 10
-81.9247454640948
 20
191.79626763973363
 30
0.0
 40
25.0
100
AcDbArc
 50
-36.22826005761963
 51
30.69782187674783
  0
LINE
  5
50
330
17
100
AcDbEntity
  8
0
100
AcDbLine
 10
-60.42795347709125
 20
204.55902338712178
 30
0.0
 11
-45.24604324830984
 21
218.34194155782754
 31
0.0
  0
LINE
  5
51
330
17
100
AcDbEntity
  8
0
100
AcDbLine
 10
-45.24604324830984
 20
218.34194155782754
 30
0.0
 11
-51.967744894130085
 21
225.74590853402194
 31
0.0
  0
LINE
  5
52
330
17
100
AcDbEntity
  8
0
100
AcDbLine
 10
-51.967744894130085
 20
225.74590853402196
 30
0.0
 11
-67.14965512291137
 21
211.96299036331632
 31
0.0
  0
ARC
  5
53
330
17
100
AcDbEntity
  8
0
100
AcDbCircle
 10
-81.9247454640948
 20
191.79626763973363
 30
0.0
 40
25.0
100
AcDbArc
 50
53.77173994238041
 51
120.69782187674771
  0
LINE
  5
54
330
17
100
AcDbEntity
  8
0
100
AcDbLine
 10
-94.68750121148292
 20
213.2930596267372
 30
0.0
 11
-108.47041938218867
 21
228.47496985551862
 31
0.0
  0
LINE
  5
55
330
17
100
AcDbEntity
  8
0
100
AcDbLine
 10
-108.47041938218867
 20
228.47496985551862
 30
0.0
 11
-115.87438635838308
 21
221.75326820969838
 31
0.0
  0
LINE
  5
56
330
17
100
AcDbEntity
  8
0
100
AcDbLine
 10
-102.09146818767742
 20
206.5713579809171
 30
0.0
 11
-115.87438635838308
 21
221.75326820969838
 31
0.0
  0
ARC
  5
57
330
17
100
AcDbEntity
  8
0
100
AcDbCircle
 10
-81.9247454640948
 20
191.79626763973363
 30
0.0
 40
25.0
100
AcDbArc
 50
143.77173994238018
 51
210.6978218767478
  0
LINE
  5
58
330
17
100
AcDbEntity
  8
0
100
AcDbLine
 10
-103.42153745109837
 20
179.03351189234547
 30
0.0
 11
-118.60344767987979
 21
165.25059372163975
 31
0.0
  0
LINE
  5
59
330
17
100
AcDbEntity
  8
0
100
AcDbLine
 10
-118.60344767987979
 20
165.25059372163975
 30
0.0
 11
-111.88174603405955
 21
157.84662674544532
 31
0.0
  0
LINE
  5
5A
330
17
100
AcDbEntity
  8
0
100
AcDbLine
 10
-111.88174603405955
 20
157.84662674544535
 30
0.0
 11
-96.69983580527824
 21
171.629544916151
 31
0.0
  0
ARC
  5
5B
330
17
100
AcDbEntity
  8
0
100
AcDbCircle
 10
-81.9247454640948
 20
191.79626763973363
 30
0.0
 40
25.0
100
AcDbArc
 50
233.7717399423803
 51
300.6978218767481
  0
LINE
  5
5C
330
17
100
AcDbEntity
  8
0
100
AcDbLine
 10
9.35129605641769
 20
83.81694404286603
 30
0.0
 11
-69.16198971670654
 21
170.2994756527301
 31
0.0
  0
ARC
  5
5D
330
17
100
AcDbEntity
  8
0
100
AcDbCircle
 10
29.51801878000025
 20
69.04185370168227
 30
0.0
 40
25.0
100
AcDbArc
 50
143.77173994237936
 51
180.78084759887835
  0
LINE
  5
5E
330
17
100
AcDbEntity
  8
0
100
AcDbLine
 10
-159.62673855233575
 20
32.85786094506417
 30
0.0
 11
4.5203403970508305
 21
68.70115520944137
 31
0.0
  0
ARC
  5
5F
330
17
100
AcDbEntity
  8
0
100
AcDbCircle
 10
-182.49107667070936
 20
22.747369245414014
 30
0.0
 40
25.0
100
AcDbArc
 50
23.854765664509557
 51
90.21575665241988
  0
LINE
  5
60
330
17
100
AcDbEntity
  8
0
100
AcDbLine
 10
-182.58521804741406
 20
47.74719199280915
 30
0.0
 11
-186.7618645659076
 21
67.8224218882477
 31
0.0
  0
LINE
  5
61
330
17
100
AcDbEntity
  8
0
100
AcDbLine
 10
-186.7618645659076
 20
67.8224218882477
 30
0.0
 11
-196.55222275835405
 21
65.7855403345985
 31
0.0
  0
LINE
  5
62
330
17
100
AcDbEntity
  8
0
100
AcDbLine
 10
-196.55222275835405
 20
65.7855403345985
 30
0.0
 11
-192.37557623986058
 21
45.71031043916015
 31
0.0
  0
ARC
  5
63
330
17
100
AcDbEntity
  8
0
100
AcDbCircle
 10
-182.49107667070936
 20
22.747369245414014
 30
0.0
 40
25.0
100
AcDbArc
 50
113.28967471805363
 51
179.65066570596716
  0
LINE
  5
64
330
17
100
AcDbEntity
  8
0
100
AcDbLine
 10
-320.56733944353573
 20
0.5353789759913345
 30
0.0
 11
-207.490611999412
 21
22.899794141566748
 31
0.0
  0
ARC
  5
65
330
17
100
AcDbEntity
  8
0
100
AcDbCircle
 10
-343.62665006108955
 20
-9.122166977468451
 30
0.0
 40
25.0
100
AcDbArc
 50
22.72458377159383
 51
89.65066570596665
  0
LINE
  5
66
330
17
100
AcDbEntity
  8
0
100
AcDbLine
 10
-343.4742251649368
 20
15.877368351234141
 30
0.0
 11
-347.4526758364529
 21
35.99281420136232
 31
0.0
  0
LINE
  5
67
330
17
100
AcDbEntity
  8
0
100
AcDbLine
 10
-347.4526758364529
 20
35.99281420136232
 30
0.0
 11
-357.2626466860654
 21
34.05258949021352
 31
0.0
  0
LINE
  5
68
330
17
100
AcDbEntity
  8
0
100
AcDbLine
 10
-357.2626466860654
 20
34.05258949021352
 30
0.0
 11
-353.2841960145493
 21
13.93714364008531
 31
0.0
  0
ARC
  5
69
330
17
100
AcDbEntity
  8
0
100
AcDbCircle
 10
-343.62665006108955
 20
-9.122166977468451
 30
0.0
 40
25.0
100
AcDbArc
 50
112.7245837715938
 51
179.65066570596653
  0
LINE
  5
6A
330
17
100
AcDbEntity
  8
0
100
AcDbLine
 10
-368.62618538979217
 20
-8.969742081315696
 30
0.0
 11
-388.74163123992037
 21
-12.948192752831801
 31
0.0
  0
LINE
  5
6B
330
17
100
AcDbEntity
  8
0
100
AcDbLine
 10
-388.7416312399203
 20
-12.948192752831801
 30
0.0
 11
-386.8014065287715
 21
-22.758163602444327
 31
0.0
  0
LINE
  5
6C
330
17
100
AcDbEntity
  8
0
100
AcDbLine
 10
-366.68596067864326
 20
-18.779712930928227
 30
0.0
 11
-386.8014065287715
 21
-22.758163602444327
 31
0.0
  0
ARC
  5
6D
330
17
100
AcDbEntity
  8
0
100
AcDbCircle
 10
-343.62665006108955
 20
-9.122166977468451
 30
0.0
 40
25.0
100
AcDbArc
 50
202.72458377159387
 51
269.6506657059665
  0
LINE
  5
6E
330
17
100
AcDbEntity
  8
0
100
AcDbLine
 10
-343.7790749572423
 20
-34.12170230617103
 30
0.0
 11
-339.8006242857262
 21
-54.23714815629923
 31
0.0
  0
LINE
  5
6F
330
17
100
AcDbEntity
  8
0
100
AcDbLine
 10
-339.8006242857262
 20
-54.23714815629923
 30
0.0
 11
-329.9906534361137
 21
-52.29692344515042
 31
0.0
  0
LINE
  5
70
330
17
100
AcDbEntity
  8
0
100
AcDbLine
 10
-329.99065343611363
 20
-52.296923445150426
 30
0.0
 11
-333.96910410762973
 21
-32.1814775950222
 31
0.0
  0
ARC
  5
71
330
17
100
AcDbEntity
  8
0
100
AcDbCircle
 10
-343.62665006108955
 20
-9.122166977468451
 30
0.0
 40
25.0
100
AcDbArc
 50
292.72458377159404
 51
359.65066570596645
  0
LINE
  5
72
330
17
100
AcDbEntity
  8
0
100
AcDbLine
 10
-205.5503872882627
 20
13.089823291954174
 30
0.0
 11
-318.627114732387
 21
-9.27459187362125
 31
0.0
  0
ARC
  5
73
330
17
100
AcDbEntity
  8
0
100
AcDbCircle
 10
-182.49107667070936
 20
22.747369245414014
 30
0.0
 40
25.0
100
AcDbArc
 50
202.72458377159603
 51
270.21575665242284
  0
LINE
  5
74
330
17
100
AcDbEntity
  8
0
100
AcDbLine
 10
-182.39693529400455
 20
-2.2524535019816163
 30
0.0
 11
-178.22028877551114
 21
-22.32768339741968
 31
0.0
  0
LINE
  5
75
330
17
100
AcDbEntity
  8
0
100
AcDbLine
 10
-178.22028877551114
 20
-22.32768339741967
 30
0.0
 11
-168.42993058306467
 21
-20.290801843770453
 31
0.0
  0
LINE
  5
76
330
17
100
AcDbEntity
  8
0
100
AcDbLine
 10
-168.42993058306467
 20
-20.29080184377046
 30
0.0
 11
-172.60657710155817
 21
-0.21557194833199134
 31
0.0
  0
ARC
  5
77
330
17
100
AcDbEntity
  8
0
100
AcDbCircle
 10
-182.49107667070936
 20
22.747369245414014
 30
0.0
 40
25.0
100
AcDbArc
 50
-66.71032528194552
 51
0.7808475988802719
  0
LINE
  5
78
330
17
100
AcDbEntity
  8
0
100
AcDbLine
 10
-157.49339828775962
 20
23.088067737655
 30
0.0
 11
6.653680661626765
 21
58.931362002032145
 31
0.0
  0
ARC
  5
79
330
17
100
AcDbEntity
  8
0
100
AcDbCircle
 10
29.51801878000025
 20
69.04185370168227
 30
0.0
 40
25.0
100
AcDbArc
 50
203.85476566451027
 51
259.79862817711995
  0
LINE
  5
7A
330
17
100
AcDbEntity
  8
0
100
AcDbLine
 10
25.090311162674134
 20
44.437069507231776
 30
0.0
 11
27.3544817765892
 21
-52.67671056071411
 31
0.0
  0
ARC
  5
7B
330
17
100
AcDbEntity
  8
0
100
AcDbCircle
 10
32.92405740988112
 20
-77.04841192243761
 30
0.0
 40
25.0
100
AcDbArc
 50
102.8725462427506
 51
178.91246479418493
  0
LINE
  5
7C
330
17
100
AcDbEntity
  8
0
100
AcDbLine
 10
7.928560787435742
 20
-76.57391366393404
 30
0.0
 11
-12.236472605269192
 21
-80.29287316441712
 31
0.0
  0
LINE
  5
7D
330
17
100
AcDbEntity
  8
0
100
AcDbLine
 10
-12.236472605269192
 20
-80.2928731644171
 30
0.0
 11
-10.422797454221246
 21
-90.12702703988963
 31
0.0
  0
LINE
  5
7E
330
17
100
AcDbEntity
  8
0
100
AcDbLine
 10
-10.422797454221246
 20
-90.12702703988963
 30
0.0
 11
9.742235938483901
 21
-86.4080675394065
 31
0.0
  0
ARC
  5
7F
330
17
100
AcDbEntity
  8
0
100
AcDbCircle
 10
32.92405740988112
 20
-77.04841192243761
 30
0.0
 40
25.0
100
AcDbArc
 50
201.98638285981687
 51
278.0263014112508
  0
LINE
  5
80
330
17
100
AcDbEntity
  8
0
100
AcDbLine
 10
36.41474903734441
 20
-101.80351386046159
 30
0.0
 11
43.28082991278604
 21
-121.12490524170101
 31
0.0
  0
LINE
  5
81
330
17
100
AcDbEntity
  8
0
100
AcDbLine
 10
43.28082991278604
 20
-121.12490524170103
 30
0.0
 11
52.70355350718765
 21
-117.77643095278864
 31
0.0
  0
LINE
  5
82
330
17
100
AcDbEntity
  8
0
100
AcDbLine
 10
52.70355350718764
 20
-117.77643095278864
 30
0.0
 11
45.8374726317461
 21
-98.45503957154949
 31
0.0
  0
ARC
  5
83
330
17
100
AcDbEntity
  8
0
100
AcDbCircle
 10
32.92405740988112
 20
-77.04841192243761
 30
0.0
 40
25.0
100
AcDbArc
 50
-58.899780523120185
 51
17.14013802831556
  0
LINE
  5
84
330
17
100
AcDbEntity
  8
0
100
AcDbLine
 10
56.813727236235515
 20
-69.68066629790874
 30
0.0
 11
113.16870113824538
 21
-38.85649194628873
 31
0.0
  0
ARC
  5
85
330
17
100
AcDbEntity
  8
0
100
AcDbCircle
 10
132.2596426049365
 20
-22.715365780020843
 30
0.0
 40
25.0
100
AcDbArc
 50
220.21405609394716
 51
284.3129794035865
  0
LINE
  5
86
330
17
100
AcDbEntity
  8
0
100
AcDbLine
 10
138.4401056234679
 20
-46.939359605906986
 30
0.0
 11
147.38065110460786
 21
-65.39270288008915
 31
0.0
  0
LINE
  5
87
330
17
100
AcDbEntity
  8
0
100
AcDbLine
 10
147.38065110460786
 20
-65.39270288008915
 30
0.0
 11
156.3800419680455
 21
-61.032546450891324
 31
0.0
  0
LINE
  5
88
330
17
100
AcDbEntity
  8
0
100
AcDbLine
 10
156.3800419680455
 20
-61.03254645089133
 30
0.0
 11
147.43949648690543
 21
-42.57920317670896
 31
0.0
  0
ARC
  5
89
330
17
100
AcDbEntity
  8
0
100
AcDbCircle
 10
132.2596426049365
 20
-22.715365780020843
 30
0.0
 40
25.0
100
AcDbArc
 50
-52.61310253078208
 51
11.485820778854952
  0
LINE
  5
8A
330
17
100
AcDbEntity
  8
0
100
AcDbLine
 10
252.07477289905842
 20
22.76664946230811
 30
0.0
 11
156.75899293024543
 21
-17.737230221623598
 31
0.0
  0
LINE
  5
8B
330
17
100
AcDbEntity
  8
0
100
AcDbLine
 10
370.42305552311313
 20
-57.63652137091707
 30
0.0
 11
252.07477289905842
 21
22.76664946230811
 31
0.0
  0
ARC
  5
8C
330
17
100
AcDbEntity
  8
0
100
AcDbCircle
 10
393.49418706760747
 20
-67.26579389051294
 30
0.0
 40
25.0
100
AcDbArc
 50
157.34564959942634
 51
224.27173153379633
  0
LINE
  5
8D
330
17
100
AcDbEntity
  8
0
100
AcDbLine
 10
375.59325633795686
 20
-84.71734622869347
 30
0.0
 11
364.07025153416816
 21
-101.6784662326024
 31
0.0
  0
LINE
  5
8E
330
17
100
AcDbEntity
  8
0
100
AcDbLine
 10
364.07025153416816
 20
-101.6784662326024
 30
0.0
 11
372.3419097442229
 21
-107.29804543891616
 31
0.0
  0
LINE
  5
8F
330
17
100
AcDbEntity
  8
0
100
AcDbLine
 10
372.3419097442229
 20
-107.29804543891616
 30
0.0
 11
383.8649145480116
 21
-90.33692543500725
 31
0.0
  0
ARC
  5
90
330
17
100
AcDbEntity
  8
0
100
AcDbCircle
 10
393.49418706760747
 20
-67.26579389051294
 30
0.0
 40
25.0
100
AcDbArc
 50
247.34564959942617
 51
314.2717315337963
  0
LINE
  5
91
330
17
100
AcDbEntity
  8
0
100
AcDbLine
 10
410.945739405788
 20
-85.16672462016356
 30
0.0
 11
427.9068594096969
 21
-96.68972942395223
 31
0.0
  0
LINE
  5
92
330
17
100
AcDbEntity
  8
0
100
AcDbLine
 10
427.90685940969695
 20
-96.68972942395223
 30
0.0
 11
433.5264386160107
 21
-88.41807121389749
 31
0.0
  0
LINE
  5
93
330
17
100
AcDbEntity
  8
0
100
AcDbLine
 10
416.56531861210175
 20
-76.8950664101088
 30
0.0
 11
433.5264386160107
 21
-88.41807121389746
 31
0.0
  0
ARC
  5
94
330
17
100
AcDbEntity
  8
0
100
AcDbCircle
 10
393.49418706760747
 20
-67.26579389051294
 30
0.0
 40
25.0
100
AcDbArc
 50
-22.654350400573684
 51
44.27173153379635
  0
LINE
  5
95
330
17
100
AcDbEntity
  8
0
100
AcDbLine
 10
411.3951177972581
 20
-49.814241552332405
 30
0.0
 11
422.9181226010468
 21
-32.85312154842349
 31
0.0
  0
LINE
  5
96
330
17
100
AcDbEntity
  8
0
100
AcDbLine
 10
422.9181226010468
 20
-32.85312154842348
 30
0.0
 11
414.64646439099204
 21
-27.233542342109722
 31
0.0
  0
LINE
  5
97
330
17
100
AcDbEntity
  8
0
100
AcDbLine
 10
414.64646439099204
 20
-27.233542342109722
 30
0.0
 11
403.12345958720334
 21
-44.19466234601866
 31
0.0
  0
ARC
  5
98
330
17
100
AcDbEntity
  8
0
100
AcDbCircle
 10
393.49418706760747
 20
-67.26579389051294
 30
0.0
 40
25.0
100
AcDbArc
 50
67.34564959942647
 51
134.2717315337964
  0
LINE
  5
99
330
17
100
AcDbEntity
  8
0
100
AcDbLine
 10
262.5911358398164
 20
27.711542548237126
 30
0.0
 11
376.04263472942694
 21
-49.36486316086236
 31
0.0
  0
LINE
  5
9A
330
17
100
AcDbEntity
  8
0
100
AcDbLine
 10
262.5911358398164
 20
27.711542548237126
 30
0.0
 11
384.81489811675476
 21
87.02235008201433
 31
0.0
  0
ARC
  5
9B
330
17
100
AcDbEntity
  8
0
100
AcDbCircle
 10
404.66927412234133
 20
102.21457682560887
 30
0.0
 40
25.0
100
AcDbArc
 50
217.42259457983647
 51
284.348676514207
  0
LINE
  5
9C
330
17
100
AcDbEntity
  8
0
100
AcDbLine
 10
410.8648282664413
 20
77.9944383279136
 30
0.0
 11
450.37720648184114
 21
-3.4300393146346124
 31
0.0
  0
LINE
  5
9D
330
17
100
AcDbEntity
  8
0
100
AcDbLine
 10
450.3772064818411
 20
-3.4300393146346124
 30
0.0
 11
459.3738790813358
 21
0.9357231774738333
 31
0.0
  0
LINE
  5
9E
330
17
100
AcDbEntity
  8
0
100
AcDbLine
 10
459.3738790813358
 20
0.9357231774738324
 30
0.0
 11
419.86150086593585
 21
82.36020082002234
 31
0.0
  0
LINE
  5
9F
330
17
100
AcDbEntity
  8
0
100
AcDbLine
 10
110.65950748822348
 20
-10.128302463275872
 30
0.0
 11
44.457041889595374
 21
48.99626594449808
 31
0.0
  0
ARC
  5
A0
330
17
100
AcDbEntity
  8
0
100
AcDbCircle
 10
132.2596426049365
 20
-22.715365780020843
 30
0.0
 40
25.0
100
AcDbArc
 50
149.76932878477152
 51
197.1401380283156
  0
LINE
  5
A1
330
17
100
AcDbEntity
  8
0
100
AcDbLine
 10
52.014998876572534
 20
-60.90728575616961
 30
0.0
 11
108.36997277858211
 21
-30.08311140454972
 31
0.0
  0
ARC
  5
A2
330
17
100
AcDbEntity
  8
0
100
AcDbCircle
 10
32.92405740988112
 20
-77.04841192243761
 30
0.0
 40
25.0
100
AcDbArc
 50
40.21405609394526
 51
79.79862817711822
  0
LINE
  5
A3
330
17
100
AcDbEntity
  8
0
100
AcDbLine
 10
35.087594413292166
 20
44.67015233995855
 30
0.0
 11
37.35176502720724
 21
-52.44362772798741
 31
0.0
  0
ARC
  5
A4
330
17
100
AcDbEntity
  8
0
100
AcDbCircle
 10
29.51801878000025
 20
69.04185370168227
 30
0.0
 40
25.0
100
AcDbArc
 50
282.8725462427492
 51
306.6954107191401
  0
LINE
  5
A5
330
17
100
AcDbEntity
  8
0
100
AcDbLine
 10
235.30481599722
 20
26.505793308198314
 30
0.0
 11
52.72171509159841
 21
59.73656071977537
 31
0.0
  0
LINE
  5
A6
330
17
100
AcDbEntity
  8
0
100
AcDbLine
 10
235.30481599722
 20
26.505793308198314
 30
0.0
 11
152.8480221860641
 21
-8.533735894024097
 31
0.0
  0
ARC
  5
A7
330
17
100
AcDbEntity
  8
0
100
AcDbCircle
 10
132.2596426049365
 20
-22.715365780020843
 30
0.0
 40
25.0
100
AcDbArc
 50
34.55973884448787
 51
126.6954107191429
  0
LINE
  5
A8
330
17
100
AcDbEntity
  8
0
100
AcDbLine
 10
117.32061949534102
 20
-2.6697780228363257
 30
0.0
 11
51.11815389671327
 21
56.45479038493731
 31
0.0
  0
ARC
  5
A9
330
17
100
AcDbEntity
  8
0
100
AcDbCircle
 10
29.51801878000025
 20
69.04185370168227
 30
0.0
 40
25.0
100
AcDbArc
 50
329.7693287847714
 51
338.1479154416834
  0
LINE
  5
AA
330
17
100
AcDbEntity
  8
0
100
AcDbLine
 10
459.3738790813358
 20
0.9357231774738324
 30
5.0
 11
419.86150086593585
 21
82.36020082002234
 31
5.0
  0
LINE
  5
AB
330
17
100
AcDbEntity
  8
0
100
AcDbLine
 10
459.3738790813358
 20
0.9357231774738324
 30
0.0
 11
459.3738790813358
 21
0.9357231774738324
 31
5.0
  0
LINE
  5
AC
330
17
100
AcDbEntity
  8
0
100
AcDbLine
 10
428.8894126200366
 20
108.41013096970879
 30
5.0
 11
447.33718206612184
 21
117.36217174034951
 31
5.0
  0
LINE
  5
AD
330
17
100
AcDbEntity
  8
0
100
AcDbLine
 10
447.3371820661218
 20
117.36217174034952
 30
5.0
 11
442.97141957401334
 21
126.35884433984424
 31
5.0
  0
LINE
  5
AE
330
17
100
AcDbEntity
  8
0
100
AcDbLine
 10
424.52365012792785
 20
117.40680356920335
 30
5.0
 11
442.97141957401334
 21
126.35884433984424
 31
5.0
  0
ARC
  5
AF
330
17
100
AcDbEntity
  8
0
100
AcDbCircle
 10
404.66927412234133
 20
102.21457682560887
 30
5.0
 40
25.0
100
AcDbArc
 50
37.42259457983648
 51
104.34867651420704
  0
LINE
  5
B0
330
17
100
AcDbEntity
  8
0
100
AcDbLine
 10
398.4737199782414
 20
126.43471532330412
 30
5.0
 11
389.52167920760064
 21
144.88248476938932
 31
5.0
  0
LINE
  5
B1
330
17
100
AcDbEntity
  8
0
100
AcDbLine
 10
389.52167920760064
 20
144.88248476938932
 30
5.0
 11
380.5250066081059
 21
140.51672227728088
 31
5.0
  0
LINE
  5
B2
330
17
100
AcDbEntity
  8
0
100
AcDbLine
 10
380.5250066081059
 20
140.51672227728085
 30
5.0
 11
389.47704737874676
 21
122.06895283119538
 31
5.0
  0
ARC
  5
B3
330
17
100
AcDbEntity
  8
0
100
AcDbCircle
 10
404.66927412234133
 20
102.21457682560887
 30
5.0
 40
25.0
100
AcDbArc
 50
127.42259457983646
 51
194.34867651420706
  0
LINE
  5
B4
330
17
100
AcDbEntity
  8
0
100
AcDbLine
 10
362.0013661785609
 20
87.06698191086818
 30
5.0
 11
380.4491356246461
 21
96.0190226815089
 31
5.0
  0
LINE
  5
B5
330
17
100
AcDbEntity
  8
0
100
AcDbLine
 10
362.0013661785609
 20
87.06698191086818
 30
5.0
 11
366.36712867066933
 21
78.07030931137346
 31
5.0
  0
LINE
  5
B6
330
17
100
AcDbEntity
  8
0
100
AcDbLine
 10
366.36712867066933
 20
78.07030931137348
 30
5.0
 11
384.8148981167548
 21
87.02235008201437
 31
5.0
  0
ARC
  5
B7
330
17
100
AcDbEntity
  8
0
100
AcDbCircle
 10
404.66927412234133
 20
102.21457682560887
 30
5.0
 40
25.0
100
AcDbArc
 50
217.4225945798365
 51
284.348676514207
  0
LINE
  5
B8
330
17
100
AcDbEntity
  8
0
100
AcDbLine
 10
410.8648282664413
 20
77.9944383279136
 30
5.0
 11
450.37720648184114
 21
-3.4300393146346124
 31
5.0
  0
LINE
  5
B9
330
17
100
AcDbEntity
  8
0
100
AcDbLine
 10
450.3772064818411
 20
-3.4300393146346124
 30
5.0
 11
459.3738790813358
 21
0.9357231774738333
 31
5.0
  0
LINE
  5
BA
330
17
100
AcDbEntity
  8
0
100
AcDbLine
 10
447.3371820661218
 20
117.36217174034952
 30
0.0
 11
447.3371820661218
 21
117.36217174034952
 31
5.0
  0
LINE
  5
BB
330
17
100
AcDbEntity
  8
0
100
AcDbLine
 10
450.3772064818411
 20
-3.4300393146346124
 30
0.0
 11
450.3772064818411
 21
-3.4300393146346124
 31
5.0
  0
LINE
  5
BC
330
17
100
AcDbEntity
  8
0
100
AcDbLine
 10
442.97141957401334
 20
126.35884433984424
 30
0.0
 11
442.97141957401334
 21
126.35884433984424
 31
5.0
  0
LINE
  5
BD
330
17
100
AcDbEntity
  8
0
100
AcDbLine
 10
410.8648282664412
 20
77.99443832791387
 30
5.0
 11
410.8648282664412
 21
77.99443832791387
 31
0.0
  0
LINE
  5
BE
330
17
100
AcDbEntity
  8
0
100
AcDbLine
 10
424.5236501279279
 20
117.4068035692034
 30
5.0
 11
424.5236501279279
 21
117.4068035692034
 31
0.0
  0
LINE
  5
BF
330
17
100
AcDbEntity
  8
0
100
AcDbLine
 10
384.8148981167548
 20
87.0223500820143
 30
5.0
 11
384.8148981167548
 21
87.0223500820143
 31
0.0
  0
LINE
  5
C0
330
17
100
AcDbEntity
  8
0
100
AcDbLine
 10
398.4737199782415
 20
126.43471532330386
 30
5.0
 11
398.4737199782415
 21
126.43471532330386
 31
0.0
  0
LINE
  5
C1
330
17
100
AcDbEntity
  8
0
100
AcDbLine
 10
366.36712867066933
 20
78.07030931137348
 30
2.5
 11
366.36712867066933
 21
78.07030931137348
 31
5.0
  0
LINE
  5
C2
330
17
100
AcDbEntity
  8
0
100
AcDbLine
 10
357.37045607117466
 20
73.70454681926499
 30
2.5
 11
366.3671286706694
 21
78.07030931137345
 31
2.5
  0
LINE
  5
C3
330
17
100
AcDbEntity
  8
0
100
AcDbLine
 10
357.37045607117466
 20
73.70454681926499
 30
2.5
 11
357.37045607117466
 21
73.70454681926499
 31
5.0
  0
LINE
  5
C4
330
17
100
AcDbEntity
  8
0
100
AcDbLine
 10
262.5911358398164
 20
27.711542548237123
 30
5.0
 11
357.37045607117466
 21
73.70454681926499
 31
5.0
  0
LINE
  5
C5
330
17
100
AcDbEntity
  8
0
100
AcDbLine
 10
262.5911358398164
 20
27.711542548237134
 30
0.0
 11
262.5911358398164
 21
27.711542548237134
 31
5.0
  0
LINE
  5
C6
330
17
100
AcDbEntity
  8
0
100
AcDbLine
 10
389.52167920760064
 20
144.88248476938932
 30
0.0
 11
389.52167920760064
 21
144.88248476938932
 31
5.0
  0
LINE
  5
C7
330
17
100
AcDbEntity
  8
0
100
AcDbLine
 10
262.5911358398164
 20
27.711542548237126
 30
5.0
 11
376.04263472942694
 21
-49.36486316086236
 31
5.0
  0
LINE
  5
C8
330
17
100
AcDbEntity
  8
0
100
AcDbLine
 10
376.042634729427
 20
-49.3648631608624
 30
5.0
 11
376.042634729427
 21
-49.3648631608624
 31
0.0
  0
LINE
  5
C9
330
17
100
AcDbEntity
  8
0
100
AcDbLine
 10
380.5250066081059
 20
140.51672227728085
 30
0.0
 11
380.5250066081059
 21
140.51672227728085
 31
5.0
  0
ARC
  5
CA
330
17
100
AcDbEntity
  8
0
100
AcDbCircle
 10
393.49418706760747
 20
-67.26579389051294
 30
5.0
 40
25.0
100
AcDbArc
 50
67.34564959942647
 51
134.2717315337964
  0
LINE
  5
CB
330
17
100
AcDbEntity
  8
0
100
AcDbLine
 10
403.1234595872033
 20
-44.1946623460187
 30
5.0
 11
403.1234595872033
 21
-44.1946623460187
 31
0.0
  0
LINE
  5
CC
330
17
100
AcDbEntity
  8
0
100
AcDbLine
 10
389.4770473787468
 20
122.06895283119542
 30
5.0
 11
389.4770473787468
 21
122.06895283119542
 31
0.0
  0
LINE
  5
CD
330
17
100
AcDbEntity
  8
0
100
AcDbLine
 10
414.64646439099204
 20
-27.233542342109722
 30
5.0
 11
403.12345958720334
 21
-44.19466234601866
 31
5.0
  0
LINE
  5
CE
330
17
100
AcDbEntity
  8
0
100
AcDbLine
 10
414.64646439099204
 20
-27.233542342109722
 30
0.0
 11
414.64646439099204
 21
-27.233542342109722
 31
5.0
  0
LINE
  5
CF
330
17
100
AcDbEntity
  8
0
100
AcDbLine
 10
380.4491356246464
 20
96.01902268150904
 30
5.0
 11
380.4491356246464
 21
96.01902268150904
 31
0.0
  0
LINE
  5
D0
330
17
100
AcDbEntity
  8
0
100
AcDbLine
 10
422.9181226010468
 20
-32.85312154842348
 30
0.0
 11
422.9181226010468
 21
-32.85312154842348
 31
5.0
  0
LINE
  5
D1
330
17
100
AcDbEntity
  8
0
100
AcDbLine
 10
422.9181226010468
 20
-32.85312154842348
 30
5.0
 11
414.64646439099204
 21
-27.233542342109722
 31
5.0
  0
LINE
  5
D2
330
17
100
AcDbEntity
  8
0
100
AcDbLine
 10
251.91641031849628
 20
33.64670169901767
 30
0.0
 11
251.91641031849628
 21
33.64670169901767
 31
5.0
  0
LINE
  5
D3
330
17
100
AcDbEntity
  8
0
100
AcDbLine
 10
353.00469357906616
 20
82.7012194187597
 30
5.0
 11
251.9164103184964
 21
33.64670169901774
 31
5.0
  0
LINE
  5
D4
330
17
100
AcDbEntity
  8
0
100
AcDbLine
 10
353.00469357906616
 20
82.7012194187597
 30
2.5
 11
353.00469357906616
 21
82.7012194187597
 31
5.0
  0
LINE
  5
D5
330
17
100
AcDbEntity
  8
0
100
AcDbLine
 10
362.0013661785609
 20
87.06698191086817
 30
2.5
 11
353.00469357906616
 21
82.7012194187597
 31
2.5
  0
LINE
  5
D6
330
17
100
AcDbEntity
  8
0
100
AcDbLine
 10
362.0013661785609
 20
87.06698191086818
 30
2.5
 11
362.0013661785609
 21
87.06698191086818
 31
5.0
  0
LINE
  5
D7
330
17
100
AcDbEntity
  8
0
100
AcDbLine
 10
411.3951177972581
 20
-49.814241552332405
 30
5.0
 11
422.9181226010468
 21
-32.85312154842349
 31
5.0
  0
LINE
  5
D8
330
17
100
AcDbEntity
  8
0
100
AcDbLine
 10
411.395117797258
 20
-49.814241552332476
 30
5.0
 11
411.395117797258
 21
-49.814241552332476
 31
0.0
  0
LINE
  5
D9
330
17
100
AcDbEntity
  8
0
100
AcDbLine
 10
54.51233454071428
 20
69.5749387359144
 30
5.0
 11
54.51233454071428
 21
69.5749387359144
 31
0.0
  0
LINE
  5
DA
330
17
100
AcDbEntity
  8
0
100
AcDbLine
 10
74.68602957718387
 20
65.90325518873041
 30
5.0
 11
54.51233454071405
 21
69.57493873591446
 31
5.0
  0
LINE
  5
DB
330
17
100
AcDbEntity
  8
0
100
AcDbLine
 10
74.68602957718387
 20
65.90325518873041
 30
2.5
 11
74.68602957718387
 21
65.90325518873041
 31
5.0
  0
LINE
  5
DC
330
17
100
AcDbEntity
  8
0
100
AcDbLine
 10
84.52440759332285
 20
64.11263573961456
 30
2.5
 11
74.6860295771838
 21
65.90325518873043
 31
2.5
  0
LINE
  5
DD
330
17
100
AcDbEntity
  8
0
100
AcDbLine
 10
84.52440759332285
 20
64.11263573961456
 30
2.5
 11
84.52440759332285
 21
64.11263573961456
 31
5.0
  0
LINE
  5
DE
330
17
100
AcDbEntity
  8
0
100
AcDbLine
 10
251.9164103184964
 20
33.64670169901767
 30
5.0
 11
84.52440759332285
 21
64.11263573961456
 31
5.0
  0
LINE
  5
DF
330
17
100
AcDbEntity
  8
0
100
AcDbLine
 10
416.56531861210175
 20
-76.89506641010874
 30
5.0
 11
416.56531861210175
 21
-76.89506641010874
 31
0.0
  0
ARC
  5
E0
330
17
100
AcDbEntity
  8
0
100
AcDbCircle
 10
393.49418706760747
 20
-67.26579389051294
 30
5.0
 40
25.0
100
AcDbArc
 50
-22.654350400573662
 51
44.271731533796356
  0
LINE
  5
E1
330
17
100
AcDbEntity
  8
0
100
AcDbLine
 10
39.06354310494464
 20
92.14776128744688
 30
5.0
 11
39.06354310494464
 21
92.14776128744688
 31
0.0
  0
ARC
  5
E2
330
17
100
AcDbEntity
  8
0
100
AcDbCircle
 10
29.51801878000025
 20
69.04185370168227
 30
5.0
 40
25.0
100
AcDbArc
 50
1.2218335073156803
 51
67.55347638627342
  0
LINE
  5
E3
330
17
100
AcDbEntity
  8
0
100
AcDbLine
 10
416.56531861210175
 20
-76.8950664101088
 30
5.0
 11
433.5264386160107
 21
-88.41807121389746
 31
5.0
  0
LINE
  5
E4
330
17
100
AcDbEntity
  8
0
100
AcDbLine
 10
433.5264386160107
 20
-88.41807121389748
 30
0.0
 11
433.5264386160107
 21
-88.41807121389748
 31
5.0
  0
LINE
  5
E5
330
17
100
AcDbEntity
  8
0
100
AcDbLine
 10
61.56348420665388
 20
208.88334787751245
 30
5.0
 11
61.56348420665388
 21
208.88334787751245
 31
0.0
  0
LINE
  5
E6
330
17
100
AcDbEntity
  8
0
100
AcDbLine
 10
44.836919358209755
 20
122.10154918775656
 30
5.0
 11
61.56348420665392
 21
208.88334787751262
 31
5.0
  0
LINE
  5
E7
330
17
100
AcDbEntity
  8
0
100
AcDbLine
 10
44.836919358209755
 20
122.10154918775656
 30
2.5
 11
44.836919358209755
 21
122.10154918775656
 31
5.0
  0
LINE
  5
E8
330
17
100
AcDbEntity
  8
0
100
AcDbLine
 10
42.944325737320725
 20
112.28227786111678
 30
2.5
 11
44.836919358209755
 21
122.10154918775656
 31
2.5
  0
LINE
  5
E9
330
17
100
AcDbEntity
  8
0
100
AcDbLine
 10
42.94432573732078
 20
112.28227786111677
 30
2.5
 11
42.94432573732078
 21
112.28227786111677
 31
5.0
  0
LINE
  5
EA
330
17
100
AcDbEntity
  8
0
100
AcDbLine
 10
39.06354310494467
 20
92.14776128744671
 30
5.0
 11
42.94432573732078
 21
112.28227786111677
 31
5.0
  0
LINE
  5
EB
330
17
100
AcDbEntity
  8
0
100
AcDbLine
 10
427.90685940969695
 20
-96.68972942395223
 30
0.0
 11
427.90685940969695
 21
-96.68972942395223
 31
5.0
  0
LINE
  5
EC
330
17
100
AcDbEntity
  8
0
100
AcDbLine
 10
427.90685940969695
 20
-96.68972942395223
 30
5.0
 11
433.5264386160107
 21
-88.41807121389749
 31
5.0
  0
LINE
  5
ED
330
17
100
AcDbEntity
  8
0
100
AcDbLine
 10
84.39564479072315
 20
224.3363247592216
 30
5.0
 11
84.39564479072315
 21
224.3363247592216
 31
0.0
  0
ARC
  5
EE
330
17
100
AcDbEntity
  8
0
100
AcDbCircle
 10
61.28973720495856
 20
233.88184908416608
 30
5.0
 40
25.0
100
AcDbArc
 50
270.6273944519063
 51
337.553476386274
  0
LINE
  5
EF
330
17
100
AcDbEntity
  8
0
100
AcDbLine
 10
410.945739405788
 20
-85.16672462016356
 30
5.0
 11
427.9068594096969
 21
-96.68972942395223
 31
5.0
  0
LINE
  5
F0
330
17
100
AcDbEntity
  8
0
100
AcDbLine
 10
410.94573940578795
 20
-85.16672462016349
 30
5.0
 11
410.94573940578795
 21
-85.16672462016349
 31
0.0
  0
LINE
  5
F1
330
17
100
AcDbEntity
  8
0
100
AcDbLine
 10
104.53016136439305
 20
220.45554212684553
 30
0.0
 11
104.53016136439305
 21
220.45554212684553
 31
5.0
  0
LINE
  5
F2
330
17
100
AcDbEntity
  8
0
100
AcDbLine
 10
84.39564479072311
 20
224.3363247592216
 30
5.0
 11
104.53016136439305
 21
220.45554212684553
 31
5.0
  0
ARC
  5
F3
330
17
100
AcDbEntity
  8
0
100
AcDbCircle
 10
393.49418706760747
 20
-67.26579389051294
 30
5.0
 40
25.0
100
AcDbArc
 50
247.34564959942617
 51
314.2717315337963
  0
LINE
  5
F4
330
17
100
AcDbEntity
  8
0
100
AcDbLine
 10
383.86491454801165
 20
-90.33692543500717
 30
5.0
 11
383.86491454801165
 21
-90.33692543500717
 31
0.0
  0
LINE
  5
F5
330
17
100
AcDbEntity
  8
0
100
AcDbLine
 10
106.42275498528208
 20
230.2748134534853
 30
0.0
 11
106.42275498528208
 21
230.2748134534853
 31
5.0
  0
LINE
  5
F6
330
17
100
AcDbEntity
  8
0
100
AcDbLine
 10
104.53016136439305
 20
220.45554212684553
 30
5.0
 11
106.42275498528208
 21
230.2748134534853
 31
5.0
  0
LINE
  5
F7
330
17
100
AcDbEntity
  8
0
100
AcDbLine
 10
372.3419097442229
 20
-107.29804543891616
 30
5.0
 11
383.8649145480116
 21
-90.33692543500725
 31
5.0
  0
LINE
  5
F8
330
17
100
AcDbEntity
  8
0
100
AcDbLine
 10
372.3419097442229
 20
-107.29804543891616
 30
0.0
 11
372.3419097442229
 21
-107.29804543891616
 31
5.0
  0
LINE
  5
F9
330
17
100
AcDbEntity
  8
0
100
AcDbLine
 10
86.28823841161218
 20
234.15559608586142
 30
5.0
 11
86.28823841161218
 21
234.15559608586142
 31
0.0
  0
LINE
  5
FA
330
17
100
AcDbEntity
  8
0
100
AcDbLine
 10
106.42275498528208
 20
230.2748134534853
 30
5.0
 11
86.28823841161201
 21
234.15559608586142
 31
5.0
  0
LINE
  5
FB
330
17
100
AcDbEntity
  8
0
100
AcDbLine
 10
364.07025153416816
 20
-101.6784662326024
 30
0.0
 11
364.07025153416816
 21
-101.6784662326024
 31
5.0
  0
LINE
  5
FC
330
17
100
AcDbEntity
  8
0
100
AcDbLine
 10
364.07025153416816
 20
-101.6784662326024
 30
5.0
 11
372.3419097442229
 21
-107.29804543891616
 31
5.0
  0
LINE
  5
FD
330
17
100
AcDbEntity
  8
0
100
AcDbLine
 10
70.83526152990302
 20
256.98775666993066
 30
5.0
 11
70.83526152990302
 21
256.98775666993066
 31
0.0
  0
ARC
  5
FE
330
17
100
AcDbEntity
  8
0
100
AcDbCircle
 10
61.28973720495856
 20
233.88184908416608
 30
5.0
 40
25.0
100
AcDbArc
 50
0.6273944519062383
 51
67.55347638627401
  0
LINE
  5
FF
330
17
100
AcDbEntity
  8
0
100
AcDbLine
 10
375.59325633795686
 20
-84.71734622869347
 30
5.0
 11
364.07025153416816
 21
-101.6784662326024
 31
5.0
  0
LINE
  5
100
330
17
100
AcDbEntity
  8
0
100
AcDbLine
 10
375.5932563379569
 20
-84.7173462286934
 30
5.0
 11
375.5932563379569
 21
-84.7173462286934
 31
0.0
  0
LINE
  5
101
330
17
100
AcDbEntity
  8
0
100
AcDbLine
 10
74.7160441622791
 20
277.12227324360055
 30
0.0
 11
74.7160441622791
 21
277.12227324360055
 31
5.0
  0
LINE
  5
102
330
17
100
AcDbEntity
  8
0
100
AcDbLine
 10
70.83526152990302
 20
256.9877566699306
 30
5.0
 11
74.71604416227912
 21
277.12227324360055
 31
5.0
  0
ARC
  5
103
330
17
100
AcDbEntity
  8
0
100
AcDbCircle
 10
393.49418706760747
 20
-67.26579389051294
 30
5.0
 40
25.0
100
AcDbArc
 50
157.34564959942637
 51
224.27173153379633
  0
LINE
  5
104
330
17
100
AcDbEntity
  8
0
100
AcDbLine
 10
370.4230555231132
 20
-57.636521370917166
 30
5.0
 11
370.4230555231132
 21
-57.636521370917166
 31
0.0
  0
LINE
  5
105
330
17
100
AcDbEntity
  8
0
100
AcDbLine
 10
64.89677283563933
 20
279.0148668644896
 30
0.0
 11
64.89677283563933
 21
279.0148668644896
 31
5.0
  0
LINE
  5
106
330
17
100
AcDbEntity
  8
0
100
AcDbLine
 10
74.7160441622791
 20
277.12227324360055
 30
5.0
 11
64.89677283563933
 21
279.0148668644896
 31
5.0
  0
LINE
  5
107
330
17
100
AcDbEntity
  8
0
100
AcDbLine
 10
252.07477289905844
 20
22.76664946230811
 30
5.0
 11
252.07477289905844
 21
22.76664946230811
 31
0.0
  0
LINE
  5
108
330
17
100
AcDbEntity
  8
0
100
AcDbLine
 10
252.07477289905842
 20
22.76664946230811
 30
5.0
 11
370.42305552311313
 21
-57.63652137091708
 31
5.0
  0
LINE
  5
109
330
17
100
AcDbEntity
  8
0
100
AcDbLine
 10
61.0159902032632
 20
258.8803502908195
 30
5.0
 11
64.89677283563933
 21
279.0148668644896
 31
5.0
  0
LINE
  5
10A
330
17
100
AcDbEntity
  8
0
100
AcDbLine
 10
61.01599020326323
 20
258.8803502908197
 30
5.0
 11
61.01599020326323
 21
258.8803502908197
 31
0.0
  0
LINE
  5
10B
330
17
100
AcDbEntity
  8
0
100
AcDbLine
 10
184.83434677882502
 20
-5.806773850823834
 30
5.0
 11
252.07477289905842
 21
22.766649462308113
 31
5.0
  0
LINE
  5
10C
330
17
100
AcDbEntity
  8
0
100
AcDbLine
 10
184.83434677882502
 20
-5.806773850823834
 30
2.5
 11
184.83434677882502
 21
-5.806773850823834
 31
5.0
  0
LINE
  5
10D
330
17
100
AcDbEntity
  8
0
100
AcDbLine
 10
175.6308524512254
 20
-9.717744595005076
 30
2.5
 11
184.83434677882502
 21
-5.806773850823839
 31
2.5
  0
LINE
  5
10E
330
17
100
AcDbEntity
  8
0
100
AcDbLine
 10
175.63085245122542
 20
-9.717744595005081
 30
2.5
 11
175.63085245122542
 21
-9.717744595005081
 31
5.0
  0
LINE
  5
10F
330
17
100
AcDbEntity
  8
0
100
AcDbLine
 10
156.75899293024543
 20
-17.737230221623665
 30
5.0
 11
175.6308524512254
 21
-9.71774459500508
 31
5.0
  0
LINE
  5
110
330
17
100
AcDbEntity
  8
0
100
AcDbLine
 10
156.75899293024554
 20
-17.737230221623605
 30
5.0
 11
156.75899293024554
 21
-17.737230221623605
 31
0.0
  0
LINE
  5
111
330
17
100
AcDbEntity
  8
0
100
AcDbLine
 10
38.183829619193986
 20
243.42737340911057
 30
5.0
 11
38.183829619193986
 21
243.42737340911057
 31
0.0
  0
ARC
  5
112
330
17
100
AcDbEntity
  8
0
100
AcDbCircle
 10
61.28973720495856
 20
233.88184908416608
 30
5.0
 40
25.0
100
AcDbArc
 50
90.62739445190626
 51
157.5534763862739
  0
LINE
  5
113
330
17
100
AcDbEntity
  8
0
100
AcDbLine
 10
147.43949648690548
 20
-42.5792031767091
 30
5.0
 11
147.43949648690548
 21
-42.5792031767091
 31
0.0
  0
ARC
  5
114
330
17
100
AcDbEntity
  8
0
100
AcDbCircle
 10
132.2596426049365
 20
-22.715365780020843
 30
5.0
 40
25.0
100
AcDbArc
 50
-52.6131025307821
 51
11.485820778854844
  0
LINE
  5
115
330
17
100
AcDbEntity
  8
0
100
AcDbLine
 10
18.049313045524087
 20
247.30815604148665
 30
0.0
 11
18.049313045524087
 21
247.30815604148665
 31
5.0
  0
LINE
  5
116
330
17
100
AcDbEntity
  8
0
100
AcDbLine
 10
38.18382961919403
 20
243.42737340911057
 30
5.0
 11
18.049313045524087
 21
247.30815604148668
 31
5.0
  0
LINE
  5
117
330
17
100
AcDbEntity
  8
0
100
AcDbLine
 10
156.3800419680455
 20
-61.03254645089133
 30
5.0
 11
147.43949648690543
 21
-42.57920317670896
 31
5.0
  0
LINE
  5
118
330
17
100
AcDbEntity
  8
0
100
AcDbLine
 10
156.3800419680455
 20
-61.03254645089133
 30
0.0
 11
156.3800419680455
 21
-61.03254645089133
 31
5.0
  0
LINE
  5
119
330
17
100
AcDbEntity
  8
0
100
AcDbLine
 10
16.156719424635043
 20
237.48888471484688
 30
0.0
 11
16.156719424635043
 21
237.48888471484688
 31
5.0
  0
LINE
  5
11A
330
17
100
AcDbEntity
  8
0
100
AcDbLine
 10
18.049313045524087
 20
247.30815604148665
 30
5.0
 11
16.156719424635043
 21
237.48888471484688
 31
5.0
  0
LINE
  5
11B
330
17
100
AcDbEntity
  8
0
100
AcDbLine
 10
147.38065110460786
 20
-65.39270288008915
 30
0.0
 11
147.38065110460786
 21
-65.39270288008915
 31
5.0
  0
LINE
  5
11C
330
17
100
AcDbEntity
  8
0
100
AcDbLine
 10
147.38065110460786
 20
-65.39270288008915
 30
5.0
 11
156.3800419680455
 21
-61.032546450891324
 31
5.0
  0
LINE
  5
11D
330
17
100
AcDbEntity
  8
0
100
AcDbLine
 10
36.291235998304934
 20
233.60810208247077
 30
5.0
 11
36.291235998304934
 21
233.60810208247077
 31
0.0
  0
LINE
  5
11E
330
17
100
AcDbEntity
  8
0
100
AcDbLine
 10
16.156719424635043
 20
237.48888471484688
 30
5.0
 11
36.2912359983051
 21
233.60810208247074
 31
5.0
  0
LINE
  5
11F
330
17
100
AcDbEntity
  8
0
100
AcDbLine
 10
138.4401056234679
 20
-46.939359605906986
 30
5.0
 11
147.38065110460786
 21
-65.39270288008915
 31
5.0
  0
LINE
  5
120
330
17
100
AcDbEntity
  8
0
100
AcDbLine
 10
138.44010562346784
 20
-46.93935960590691
 30
5.0
 11
138.44010562346784
 21
-46.93935960590691
 31
0.0
  0
LINE
  5
121
330
17
100
AcDbEntity
  8
0
100
AcDbLine
 10
51.7442128800141
 20
210.7759414984015
 30
5.0
 11
51.7442128800141
 21
210.7759414984015
 31
0.0
  0
ARC
  5
122
330
17
100
AcDbEntity
  8
0
100
AcDbCircle
 10
61.28973720495856
 20
233.88184908416608
 30
5.0
 40
25.0
100
AcDbArc
 50
180.62739445190624
 51
247.553476386274
  0
ARC
  5
123
330
17
100
AcDbEntity
  8
0
100
AcDbCircle
 10
132.2596426049365
 20
-22.715365780020843
 30
5.0
 40
25.0
100
AcDbArc
 50
220.214056093947
 51
284.3129794035865
  0
LINE
  5
124
330
17
100
AcDbEntity
  8
0
100
AcDbLine
 10
113.16870113824541
 20
-38.856491946288635
 30
5.0
 11
113.16870113824541
 21
-38.856491946288635
 31
0.0
  0
LINE
  5
125
330
17
100
AcDbEntity
  8
0
100
AcDbLine
 10
33.125054410680995
 20
114.1748714820058
 30
5.0
 11
29.244271778304835
 21
94.04035490833549
 31
5.0
  0
LINE
  5
126
330
17
100
AcDbEntity
  8
0
100
AcDbLine
 10
33.125054410680995
 20
114.1748714820058
 30
2.5
 11
33.125054410680995
 21
114.1748714820058
 31
5.0
  0
LINE
  5
127
330
17
100
AcDbEntity
  8
0
100
AcDbLine
 10
35.017648031569976
 20
123.9941428086456
 30
2.5
 11
33.125054410680946
 21
114.17487148200583
 31
2.5
  0
LINE
  5
128
330
17
100
AcDbEntity
  8
0
100
AcDbLine
 10
35.017648031569976
 20
123.9941428086456
 30
2.5
 11
35.017648031569976
 21
123.9941428086456
 31
5.0
  0
LINE
  5
129
330
17
100
AcDbEntity
  8
0
100
AcDbLine
 10
35.017648031569976
 20
123.9941428086456
 30
5.0
 11
51.74421288001412
 21
210.77594149840152
 31
5.0
  0
LINE
  5
12A
330
17
100
AcDbEntity
  8
0
100
AcDbLine
 10
29.244271778304856
 20
94.0403549083359
 30
5.0
 11
29.244271778304856
 21
94.0403549083359
 31
0.0
  0
LINE
  5
12B
330
17
100
AcDbEntity
  8
0
100
AcDbLine
 10
95.17879434694345
 20
-48.69633366937582
 30
5.0
 11
113.16870113824532
 21
-38.85649194628869
 31
5.0
  0
LINE
  5
12C
330
17
100
AcDbEntity
  8
0
100
AcDbLine
 10
95.17879434694345
 20
-48.69633366937582
 30
2.5
 11
95.17879434694345
 21
-48.69633366937582
 31
5.0
  0
LINE
  5
12D
330
17
100
AcDbEntity
  8
0
100
AcDbLine
 10
86.4054138052046
 20
-53.495062029039275
 30
2.5
 11
95.17879434694345
 21
-48.69633366937582
 31
2.5
  0
LINE
  5
12E
330
17
100
AcDbEntity
  8
0
100
AcDbLine
 10
86.4054138052046
 20
-53.495062029039275
 30
2.5
 11
86.4054138052046
 21
-53.495062029039275
 31
5.0
  0
LINE
  5
12F
330
17
100
AcDbEntity
  8
0
100
AcDbLine
 10
56.81372723623552
 20
-69.68066629790872
 30
5.0
 11
86.4054138052046
 21
-53.495062029039275
 31
5.0
  0
LINE
  5
130
330
17
100
AcDbEntity
  8
0
100
AcDbLine
 10
56.81372723623566
 20
-69.68066629790864
 30
5.0
 11
56.81372723623566
 21
-69.68066629790864
 31
0.0
  0
LINE
  5
131
330
17
100
AcDbEntity
  8
0
100
AcDbLine
 10
16.755263032612042
 20
90.53864568868603
 30
5.0
 11
16.755263032612042
 21
90.53864568868603
 31
0.0
  0
ARC
  5
132
330
17
100
AcDbEntity
  8
0
100
AcDbCircle
 10
29.51801878000025
 20
69.04185370168227
 30
5.0
 40
25.0
100
AcDbArc
 50
90.62739445190779
 51
120.69782187674782
  0
LINE
  5
133
330
17
100
AcDbEntity
  8
0
100
AcDbLine
 10
45.837472631745996
 20
-98.4550395715492
 30
5.0
 11
45.837472631745996
 21
-98.4550395715492
 31
0.0
  0
ARC
  5
134
330
17
100
AcDbEntity
  8
0
100
AcDbCircle
 10
32.92405740988112
 20
-77.04841192243761
 30
5.0
 40
25.0
100
AcDbArc
 50
-58.89978052312017
 51
17.14013802831562
  0
LINE
  5
135
330
17
100
AcDbEntity
  8
0
100
AcDbLine
 10
-61.75802274051209
 20
177.02117729855016
 30
5.0
 11
-61.75802274051209
 21
177.02117729855016
 31
0.0
  0
LINE
  5
136
330
17
100
AcDbEntity
  8
0
100
AcDbLine
 10
-3.7493567839138393
 20
113.12452289366172
 30
5.0
 11
-61.75802274051212
 21
177.02117729855019
 31
5.0
  0
LINE
  5
137
330
17
100
AcDbEntity
  8
0
100
AcDbLine
 10
-3.7493567839138393
 20
113.12452289366172
 30
2.5
 11
-3.7493567839138393
 21
113.12452289366172
 31
5.0
  0
LINE
  5
138
330
17
100
AcDbEntity
  8
0
100
AcDbLine
 10
2.9723448619064072
 20
105.72055591746731
 30
2.5
 11
-3.749356783913841
 21
113.12452289366172
 31
2.5
  0
LINE
  5
139
330
17
100
AcDbEntity
  8
0
100
AcDbLine
 10
2.9723448619063575
 20
105.72055591746725
 30
2.5
 11
2.9723448619063575
 21
105.72055591746725
 31
5.0
  0
LINE
  5
13A
330
17
100
AcDbEntity
  8
0
100
AcDbLine
 10
16.755263032612106
 20
90.53864568868585
 30
5.0
 11
2.972344861906361
 21
105.72055591746725
 31
5.0
  0
LINE
  5
13B
330
17
100
AcDbEntity
  8
0
100
AcDbLine
 10
52.70355350718764
 20
-117.77643095278864
 30
5.0
 11
45.8374726317461
 21
-98.45503957154949
 31
5.0
  0
LINE
  5
13C
330
17
100
AcDbEntity
  8
0
100
AcDbLine
 10
52.70355350718764
 20
-117.77643095278864
 30
0.0
 11
52.70355350718764
 21
-117.77643095278864
 31
5.0
  0
ARC
  5
13D
330
17
100
AcDbEntity
  8
0
100
AcDbCircle
 10
-81.9247454640948
 20
191.79626763973363
 30
5.0
 40
25.0
100
AcDbArc
 50
-36.22826005761971
 51
30.69782187674781
  0
LINE
  5
13E
330
17
100
AcDbEntity
  8
0
100
AcDbLine
 10
-60.427953477091094
 20
204.55902338712193
 30
5.0
 11
-60.427953477091094
 21
204.55902338712193
 31
0.0
  0
LINE
  5
13F
330
17
100
AcDbEntity
  8
0
100
AcDbLine
 10
43.28082991278604
 20
-121.12490524170103
 30
0.0
 11
43.28082991278604
 21
-121.12490524170103
 31
5.0
  0
LINE
  5
140
330
17
100
AcDbEntity
  8
0
100
AcDbLine
 10
43.28082991278604
 20
-121.12490524170103
 30
5.0
 11
52.70355350718765
 21
-117.77643095278864
 31
5.0
  0
LINE
  5
141
330
17
100
AcDbEntity
  8
0
100
AcDbLine
 10
-45.24604324830984
 20
218.34194155782754
 30
0.0
 11
-45.24604324830984
 21
218.34194155782754
 31
5.0
  0
LINE
  5
142
330
17
100
AcDbEntity
  8
0
100
AcDbLine
 10
-60.42795347709125
 20
204.55902338712178
 30
5.0
 11
-45.24604324830984
 21
218.34194155782754
 31
5.0
  0
LINE
  5
143
330
17
100
AcDbEntity
  8
0
100
AcDbLine
 10
36.41474903734441
 20
-101.80351386046159
 30
5.0
 11
43.28082991278604
 21
-121.12490524170101
 31
5.0
  0
LINE
  5
144
330
17
100
AcDbEntity
  8
0
100
AcDbLine
 10
36.41474903734439
 20
-101.80351386046156
 30
5.0
 11
36.41474903734439
 21
-101.80351386046156
 31
0.0
  0
LINE
  5
145
330
17
100
AcDbEntity
  8
0
100
AcDbLine
 10
-51.967744894130085
 20
225.74590853402196
 30
0.0
 11
-51.967744894130085
 21
225.74590853402196
 31
5.0
  0
LINE
  5
146
330
17
100
AcDbEntity
  8
0
100
AcDbLine
 10
-45.24604324830984
 20
218.34194155782754
 30
5.0
 11
-51.967744894130085
 21
225.74590853402194
 31
5.0
  0
ARC
  5
147
330
17
100
AcDbEntity
  8
0
100
AcDbCircle
 10
32.92405740988112
 20
-77.04841192243761
 30
5.0
 40
25.0
100
AcDbArc
 50
201.98638285981687
 51
278.0263014112508
  0
LINE
  5
148
330
17
100
AcDbEntity
  8
0
100
AcDbLine
 10
9.742235938483716
 20
-86.40806753940655
 30
5.0
 11
9.742235938483716
 21
-86.40806753940655
 31
0.0
  0
LINE
  5
149
330
17
100
AcDbEntity
  8
0
100
AcDbLine
 10
-67.14965512291134
 20
211.96299036331632
 30
5.0
 11
-67.14965512291134
 21
211.96299036331632
 31
0.0
  0
LINE
  5
14A
330
17
100
AcDbEntity
  8
0
100
AcDbLine
 10
-51.967744894130085
 20
225.74590853402196
 30
5.0
 11
-67.14965512291137
 21
211.96299036331632
 31
5.0
  0
LINE
  5
14B
330
17
100
AcDbEntity
  8
0
100
AcDbLine
 10
-10.422797454221246
 20
-90.12702703988963
 30
5.0
 11
9.742235938483901
 21
-86.4080675394065
 31
5.0
  0
LINE
  5
14C
330
17
100
AcDbEntity
  8
0
100
AcDbLine
 10
-10.422797454221246
 20
-90.12702703988963
 30
0.0
 11
-10.422797454221246
 21
-90.12702703988963
 31
5.0
  0
LINE
  5
14D
330
17
100
AcDbEntity
  8
0
100
AcDbLine
 10
-94.68750121148305
 20
213.29305962673737
 30
5.0
 11
-94.68750121148305
 21
213.29305962673737
 31
0.0
  0
ARC
  5
14E
330
17
100
AcDbEntity
  8
0
100
AcDbCircle
 10
-81.9247454640948
 20
191.79626763973363
 30
5.0
 40
25.0
100
AcDbArc
 50
53.77173994238041
 51
120.69782187674771
  0
LINE
  5
14F
330
17
100
AcDbEntity
  8
0
100
AcDbLine
 10
-12.236472605269192
 20
-80.2928731644171
 30
0.0
 11
-12.236472605269192
 21
-80.2928731644171
 31
5.0
  0
LINE
  5
150
330
17
100
AcDbEntity
  8
0
100
AcDbLine
 10
-12.236472605269192
 20
-80.2928731644171
 30
5.0
 11
-10.422797454221246
 21
-90.12702703988963
 31
5.0
  0
LINE
  5
151
330
17
100
AcDbEntity
  8
0
100
AcDbLine
 10
-108.47041938218867
 20
228.47496985551862
 30
0.0
 11
-108.47041938218867
 21
228.47496985551862
 31
5.0
  0
LINE
  5
152
330
17
100
AcDbEntity
  8
0
100
AcDbLine
 10
-94.68750121148292
 20
213.2930596267372
 30
5.0
 11
-108.47041938218867
 21
228.47496985551862
 31
5.0
  0
LINE
  5
153
330
17
100
AcDbEntity
  8
0
100
AcDbLine
 10
7.928560787435742
 20
-76.57391366393404
 30
5.0
 11
-12.236472605269192
 21
-80.29287316441712
 31
5.0
  0
LINE
  5
154
330
17
100
AcDbEntity
  8
0
100
AcDbLine
 10
7.928560787435767
 20
-76.57391366393405
 30
5.0
 11
7.928560787435767
 21
-76.57391366393405
 31
0.0
  0
LINE
  5
155
330
17
100
AcDbEntity
  8
0
100
AcDbLine
 10
-115.87438635838308
 20
221.75326820969838
 30
0.0
 11
-115.87438635838308
 21
221.75326820969838
 31
5.0
  0
LINE
  5
156
330
17
100
AcDbEntity
  8
0
100
AcDbLine
 10
-108.47041938218867
 20
228.47496985551862
 30
5.0
 11
-115.87438635838308
 21
221.75326820969838
 31
5.0
  0
ARC
  5
157
330
17
100
AcDbEntity
  8
0
100
AcDbCircle
 10
32.92405740988112
 20
-77.04841192243761
 30
5.0
 40
25.0
100
AcDbArc
 50
102.87254624275059
 51
178.91246479418493
  0
LINE
  5
158
330
17
100
AcDbEntity
  8
0
100
AcDbLine
 10
27.354481776589147
 20
-52.676710560714
 30
5.0
 11
27.354481776589147
 21
-52.676710560714
 31
0.0
  0
LINE
  5
159
330
17
100
AcDbEntity
  8
0
100
AcDbLine
 10
-102.09146818767745
 20
206.5713579809171
 30
5.0
 11
-115.87438635838308
 21
221.75326820969838
 31
5.0
  0
LINE
  5
15A
330
17
100
AcDbEntity
  8
0
100
AcDbLine
 10
-102.0914681876775
 20
206.5713579809171
 30
5.0
 11
-102.0914681876775
 21
206.5713579809171
 31
0.0
  0
LINE
  5
15B
330
17
100
AcDbEntity
  8
0
100
AcDbLine
 10
26.876543037301946
 20
-32.17717871101976
 30
5.0
 11
27.354481776589203
 21
-52.67671056071412
 31
5.0
  0
LINE
  5
15C
330
17
100
AcDbEntity
  8
0
100
AcDbLine
 10
26.876543037301946
 20
-32.17717871101976
 30
2.5
 11
26.876543037301946
 21
-32.17717871101976
 31
5.0
  0
LINE
  5
15D
330
17
100
AcDbEntity
  8
0
100
AcDbLine
 10
26.643460204575202
 20
-22.179895460401696
 30
2.5
 11
26.8765430373019
 21
-32.17717871101974
 31
2.5
  0
LINE
  5
15E
330
17
100
AcDbEntity
  8
0
100
AcDbLine
 10
26.643460204575202
 20
-22.179895460401696
 30
2.5
 11
26.643460204575202
 21
-22.179895460401696
 31
5.0
  0
LINE
  5
15F
330
17
100
AcDbEntity
  8
0
100
AcDbLine
 10
25.090311162674123
 20
44.43706950723177
 30
5.0
 11
26.6434602045752
 21
-22.17989546040171
 31
5.0
  0
LINE
  5
160
330
17
100
AcDbEntity
  8
0
100
AcDbLine
 10
25.090311162674123
 20
44.43706950723195
 30
5.0
 11
25.090311162674123
 21
44.43706950723195
 31
0.0
  0
LINE
  5
161
330
17
100
AcDbEntity
  8
0
100
AcDbLine
 10
-103.42153745109852
 20
179.03351189234533
 30
5.0
 11
-103.42153745109852
 21
179.03351189234533
 31
0.0
  0
ARC
  5
162
330
17
100
AcDbEntity
  8
0
100
AcDbCircle
 10
-81.9247454640948
 20
191.79626763973363
 30
5.0
 40
25.0
100
AcDbArc
 50
143.7717399423803
 51
210.6978218767478
  0
ARC
  5
163
330
17
100
AcDbEntity
  8
0
100
AcDbCircle
 10
29.51801878000025
 20
69.04185370168227
 30
5.0
 40
25.0
100
AcDbArc
 50
203.85476566451027
 51
259.7986281771199
  0
LINE
  5
164
330
17
100
AcDbEntity
  8
0
100
AcDbLine
 10
6.653680661626783
 20
58.931362002032145
 30
5.0
 11
6.653680661626783
 21
58.931362002032145
 31
0.0
  0
LINE
  5
165
330
17
100
AcDbEntity
  8
0
100
AcDbLine
 10
-118.60344767987979
 20
165.25059372163975
 30
0.0
 11
-118.60344767987979
 21
165.25059372163975
 31
5.0
  0
LINE
  5
166
330
17
100
AcDbEntity
  8
0
100
AcDbLine
 10
-103.42153745109837
 20
179.03351189234547
 30
5.0
 11
-118.60344767987979
 21
165.25059372163975
 31
5.0
  0
LINE
  5
167
330
17
100
AcDbEntity
  8
0
100
AcDbLine
 10
-13.379380521052962
 20
54.55692590738519
 30
5.0
 11
6.653680661626765
 21
58.93136200203215
 31
5.0
  0
LINE
  5
168
330
17
100
AcDbEntity
  8
0
100
AcDbLine
 10
-13.379380521052962
 20
54.55692590738519
 30
2.5
 11
-13.379380521052962
 21
54.55692590738519
 31
5.0
  0
LINE
  5
169
330
17
100
AcDbEntity
  8
0
100
AcDbLine
 10
-23.149173728462102
 20
52.42358564280907
 30
2.5
 11
-13.379380521052934
 21
54.556925907385185
 31
2.5
  0
LINE
  5
16A
330
17
100
AcDbEntity
  8
0
100
AcDbLine
 10
-23.149173728462102
 20
52.42358564280907
 30
2.5
 11
-23.149173728462102
 21
52.42358564280907
 31
5.0
  0
LINE
  5
16B
330
17
100
AcDbEntity
  8
0
100
AcDbLine
 10
-157.49339828775962
 20
23.088067737655
 30
5.0
 11
-23.149173728462102
 21
52.42358564280907
 31
5.0
  0
LINE
  5
16C
330
17
100
AcDbEntity
  8
0
100
AcDbLine
 10
-157.49339828775976
 20
23.088067737654967
 30
5.0
 11
-157.49339828775976
 21
23.088067737654967
 31
0.0
  0
LINE
  5
16D
330
17
100
AcDbEntity
  8
0
100
AcDbLine
 10
-111.88174603405955
 20
157.84662674544535
 30
0.0
 11
-111.88174603405955
 21
157.84662674544535
 31
5.0
  0
LINE
  5
16E
330
17
100
AcDbEntity
  8
0
100
AcDbLine
 10
-118.60344767987979
 20
165.25059372163975
 30
5.0
 11
-111.88174603405955
 21
157.84662674544532
 31
5.0
  0
LINE
  5
16F
330
17
100
AcDbEntity
  8
0
100
AcDbLine
 10
-172.6065771015581
 20
-0.21557194833224713
 30
5.0
 11
-172.6065771015581
 21
-0.21557194833224713
 31
0.0
  0
ARC
  5
170
330
17
100
AcDbEntity
  8
0
100
AcDbCircle
 10
-182.49107667070936
 20
22.747369245414014
 30
5.0
 40
25.0
100
AcDbArc
 50
-66.71032528194556
 51
0.7808475988802854
  0
LINE
  5
171
330
17
100
AcDbEntity
  8
0
100
AcDbLine
 10
-96.69983580527827
 20
171.62954491615093
 30
5.0
 11
-96.69983580527827
 21
171.62954491615093
 31
0.0
  0
LINE
  5
172
330
17
100
AcDbEntity
  8
0
100
AcDbLine
 10
-111.88174603405955
 20
157.84662674544535
 30
5.0
 11
-96.69983580527824
 21
171.629544916151
 31
5.0
  0
LINE
  5
173
330
17
100
AcDbEntity
  8
0
100
AcDbLine
 10
-168.42993058306467
 20
-20.29080184377046
 30
5.0
 11
-172.60657710155817
 21
-0.21557194833199134
 31
5.0
  0
LINE
  5
174
330
17
100
AcDbEntity
  8
0
100
AcDbLine
 10
-168.42993058306467
 20
-20.29080184377046
 30
0.0
 11
-168.42993058306467
 21
-20.29080184377046
 31
5.0
  0
LINE
  5
175
330
17
100
AcDbEntity
  8
0
100
AcDbLine
 10
-69.16198971670649
 20
170.2994756527299
 30
5.0
 11
-69.16198971670649
 21
170.2994756527299
 31
0.0
  0
ARC
  5
176
330
17
100
AcDbEntity
  8
0
100
AcDbCircle
 10
-81.9247454640948
 20
191.79626763973363
 30
5.0
 40
25.0
100
AcDbArc
 50
233.7717399423803
 51
300.6978218767479
  0
LINE
  5
177
330
17
100
AcDbEntity
  8
0
100
AcDbLine
 10
-178.22028877551114
 20
-22.32768339741967
 30
0.0
 11
-178.22028877551114
 21
-22.32768339741967
 31
5.0
  0
LINE
  5
178
330
17
100
AcDbEntity
  8
0
100
AcDbLine
 10
-178.22028877551114
 20
-22.32768339741967
 30
5.0
 11
-168.42993058306467
 21
-20.290801843770453
 31
5.0
  0
LINE
  5
179
330
17
100
AcDbEntity
  8
0
100
AcDbLine
 10
-4.431622114288057
 20
98.998854271647
 30
5.0
 11
9.351296056417448
 21
83.81694404286586
 31
5.0
  0
LINE
  5
17A
330
17
100
AcDbEntity
  8
0
100
AcDbLine
 10
-4.431622114288057
 20
98.998854271647
 30
2.5
 11
-4.431622114288057
 21
98.998854271647
 31
5.0
  0
LINE
  5
17B
330
17
100
AcDbEntity
  8
0
100
AcDbLine
 10
-11.153323760108236
 20
106.40282124784147
 30
2.5
 11
-4.431622114287988
 21
98.99885427164706
 31
2.5
  0
LINE
  5
17C
330
17
100
AcDbEntity
  8
0
100
AcDbLine
 10
-11.153323760108236
 20
106.40282124784147
 30
2.5
 11
-11.153323760108236
 21
106.40282124784147
 31
5.0
  0
LINE
  5
17D
330
17
100
AcDbEntity
  8
0
100
AcDbLine
 10
-11.153323760108236
 20
106.40282124784147
 30
5.0
 11
-69.16198971670661
 21
170.2994756527301
 31
5.0
  0
LINE
  5
17E
330
17
100
AcDbEntity
  8
0
100
AcDbLine
 10
9.351296056417617
 20
83.81694404286584
 30
5.0
 11
9.351296056417617
 21
83.81694404286584
 31
0.0
  0
LINE
  5
17F
330
17
100
AcDbEntity
  8
0
100
AcDbLine
 10
-182.39693529400455
 20
-2.2524535019816163
 30
5.0
 11
-178.22028877551114
 21
-22.32768339741968
 31
5.0
  0
LINE
  5
180
330
17
100
AcDbEntity
  8
0
100
AcDbLine
 10
-182.39693529400458
 20
-2.2524535019814635
 30
5.0
 11
-182.39693529400458
 21
-2.2524535019814635
 31
0.0
  0
LINE
  5
181
330
17
100
AcDbEntity
  8
0
100
AcDbLine
 10
4.520340397050671
 20
68.70115520944131
 30
5.0
 11
4.520340397050671
 21
68.70115520944131
 31
0.0
  0
ARC
  5
182
330
17
100
AcDbEntity
  8
0
100
AcDbCircle
 10
29.51801878000025
 20
69.04185370168227
 30
5.0
 40
25.0
100
AcDbArc
 50
143.77173994237918
 51
180.78084759887835
  0
ARC
  5
183
330
17
100
AcDbEntity
  8
0
100
AcDbCircle
 10
-182.49107667070936
 20
22.747369245414014
 30
5.0
 40
25.0
100
AcDbArc
 50
202.724583771596
 51
270.21575665242284
  0
LINE
  5
184
330
17
100
AcDbEntity
  8
0
100
AcDbLine
 10
-205.5503872882628
 20
13.089823291954264
 30
5.0
 11
-205.5503872882628
 21
13.089823291954264
 31
0.0
  0
LINE
  5
185
330
17
100
AcDbEntity
  8
0
100
AcDbLine
 10
-15.512720785629057
 20
64.32671911479434
 30
2.5
 11
-25.282513993038226
 21
62.19337885021823
 31
2.5
  0
LINE
  5
186
330
17
100
AcDbEntity
  8
0
100
AcDbLine
 10
-15.512720785629067
 20
64.32671911479436
 30
2.5
 11
-15.512720785629067
 21
64.32671911479436
 31
5.0
  0
LINE
  5
187
330
17
100
AcDbEntity
  8
0
100
AcDbLine
 10
4.520340397050827
 20
68.70115520944137
 30
5.0
 11
-15.512720785629071
 21
64.32671911479437
 31
5.0
  0
LINE
  5
188
330
17
100
AcDbEntity
  8
0
100
AcDbLine
 10
-159.6267385523359
 20
32.85786094506412
 30
5.0
 11
-159.6267385523359
 21
32.85786094506412
 31
0.0
  0
LINE
  5
189
330
17
100
AcDbEntity
  8
0
100
AcDbLine
 10
-25.282513993038236
 20
62.19337885021824
 30
5.0
 11
-159.62673855233575
 21
32.85786094506417
 31
5.0
  0
LINE
  5
18A
330
17
100
AcDbEntity
  8
0
100
AcDbLine
 10
-25.282513993038236
 20
62.19337885021824
 30
2.5
 11
-25.282513993038236
 21
62.19337885021824
 31
5.0
  0
LINE
  5
18B
330
17
100
AcDbEntity
  8
0
100
AcDbLine
 10
-225.66583313839135
 20
9.111372620438136
 30
5.0
 11
-205.55038728826275
 21
13.08982329195432
 31
5.0
  0
LINE
  5
18C
330
17
100
AcDbEntity
  8
0
100
AcDbLine
 10
-225.66583313839135
 20
9.111372620438136
 30
2.5
 11
-225.66583313839135
 21
9.111372620438136
 31
5.0
  0
LINE
  5
18D
330
17
100
AcDbEntity
  8
0
100
AcDbLine
 10
-235.47580398800386
 20
7.1711479092892905
 30
2.5
 11
-225.66583313839132
 21
9.111372620438093
 31
2.5
  0
LINE
  5
18E
330
17
100
AcDbEntity
  8
0
100
AcDbLine
 10
-235.47580398800386
 20
7.1711479092892905
 30
2.5
 11
-235.47580398800386
 21
7.1711479092892905
 31
5.0
  0
LINE
  5
18F
330
17
100
AcDbEntity
  8
0
100
AcDbLine
 10
-235.47580398800386
 20
7.1711479092892905
 30
5.0
 11
-318.62711473238693
 21
-9.274591873621203
 31
5.0
  0
LINE
  5
190
330
17
100
AcDbEntity
  8
0
100
AcDbLine
 10
-318.62711473238727
 20
-9.274591873621276
 30
5.0
 11
-318.62711473238727
 21
-9.274591873621276
 31
0.0
  0
LINE
  5
191
330
17
100
AcDbEntity
  8
0
100
AcDbLine
 10
-182.58521804741414
 20
47.74719199280949
 30
5.0
 11
-182.58521804741414
 21
47.74719199280949
 31
0.0
  0
ARC
  5
192
330
17
100
AcDbEntity
  8
0
100
AcDbCircle
 10
-182.49107667070936
 20
22.747369245414014
 30
5.0
 40
25.0
100
AcDbArc
 50
23.854765664509557
 51
90.21575665241988
  0
ARC
  5
193
330
17
100
AcDbEntity
  8
0
100
AcDbCircle
 10
-343.62665006108955
 20
-9.122166977468451
 30
5.0
 40
25.0
100
AcDbArc
 50
292.72458377159404
 51
359.6506657059665
  0
LINE
  5
194
330
17
100
AcDbEntity
  8
0
100
AcDbLine
 10
-333.9691041076298
 20
-32.18147759502191
 30
5.0
 11
-333.9691041076298
 21
-32.18147759502191
 31
0.0
  0
LINE
  5
195
330
17
100
AcDbEntity
  8
0
100
AcDbLine
 10
-186.7618645659076
 20
67.8224218882477
 30
0.0
 11
-186.7618645659076
 21
67.8224218882477
 31
5.0
  0
LINE
  5
196
330
17
100
AcDbEntity
  8
0
100
AcDbLine
 10
-182.58521804741406
 20
47.74719199280915
 30
5.0
 11
-186.7618645659076
 21
67.8224218882477
 31
5.0
  0
LINE
  5
197
330
17
100
AcDbEntity
  8
0
100
AcDbLine
 10
-329.99065343611363
 20
-52.296923445150426
 30
5.0
 11
-333.96910410762973
 21
-32.1814775950222
 31
5.0
  0
LINE
  5
198
330
17
100
AcDbEntity
  8
0
100
AcDbLine
 10
-329.99065343611363
 20
-52.296923445150426
 30
0.0
 11
-329.99065343611363
 21
-52.296923445150426
 31
5.0
  0
LINE
  5
199
330
17
100
AcDbEntity
  8
0
100
AcDbLine
 10
-196.55222275835405
 20
65.7855403345985
 30
0.0
 11
-196.55222275835405
 21
65.7855403345985
 31
5.0
  0
LINE
  5
19A
330
17
100
AcDbEntity
  8
0
100
AcDbLine
 10
-186.7618645659076
 20
67.8224218882477
 30
5.0
 11
-196.55222275835405
 21
65.7855403345985
 31
5.0
  0
LINE
  5
19B
330
17
100
AcDbEntity
  8
0
100
AcDbLine
 10
-339.8006242857262
 20
-54.23714815629923
 30
0.0
 11
-339.8006242857262
 21
-54.23714815629923
 31
5.0
  0
LINE
  5
19C
330
17
100
AcDbEntity
  8
0
100
AcDbLine
 10
-339.8006242857262
 20
-54.23714815629923
 30
5.0
 11
-329.9906534361137
 21
-52.29692344515042
 31
5.0
  0
LINE
  5
19D
330
17
100
AcDbEntity
  8
0
100
AcDbLine
 10
-192.37557623986064
 20
45.710310439160274
 30
5.0
 11
-192.37557623986064
 21
45.710310439160274
 31
0.0
  0
LINE
  5
19E
330
17
100
AcDbEntity
  8
0
100
AcDbLine
 10
-196.55222275835405
 20
65.7855403345985
 30
5.0
 11
-192.37557623986058
 21
45.71031043916015
 31
5.0
  0
LINE
  5
19F
330
17
100
AcDbEntity
  8
0
100
AcDbLine
 10
-343.7790749572423
 20
-34.12170230617103
 30
5.0
 11
-339.8006242857262
 21
-54.23714815629923
 31
5.0
  0
LINE
  5
1A0
330
17
100
AcDbEntity
  8
0
100
AcDbLine
 10
-343.77907495724236
 20
-34.12170230617072
 30
5.0
 11
-343.77907495724236
 21
-34.12170230617072
 31
0.0
  0
LINE
  5
1A1
330
17
100
AcDbEntity
  8
0
100
AcDbLine
 10
-207.49061199941164
 20
22.899794141566794
 30
5.0
 11
-207.49061199941164
 21
22.899794141566794
 31
0.0
  0
ARC
  5
1A2
330
17
100
AcDbEntity
  8
0
100
AcDbCircle
 10
-182.49107667070936
 20
22.747369245414014
 30
5.0
 40
25.0
100
AcDbArc
 50
113.28967471805363
 51
179.65066570596716
  0
ARC
  5
1A3
330
17
100
AcDbEntity
  8
0
100
AcDbCircle
 10
-343.62665006108955
 20
-9.122166977468451
 30
5.0
 40
25.0
100
AcDbArc
 50
202.72458377159384
 51
269.6506657059665
  0
LINE
  5
1A4
330
17
100
AcDbEntity
  8
0
100
AcDbLine
 10
-366.68596067864297
 20
-18.77971293092817
 30
5.0
 11
-366.68596067864297
 21
-18.77971293092817
 31
0.0
  0
LINE
  5
1A5
330
17
100
AcDbEntity
  8
0
100
AcDbLine
 10
-237.41602869915266
 20
16.981118758901815
 30
5.0
 11
-320.56733944353573
 21
0.5353789759913177
 31
5.0
  0
LINE
  5
1A6
330
17
100
AcDbEntity
  8
0
100
AcDbLine
 10
-237.41602869915266
 20
16.981118758901815
 30
2.5
 11
-237.41602869915266
 21
16.981118758901815
 31
5.0
  0
LINE
  5
1A7
330
17
100
AcDbEntity
  8
0
100
AcDbLine
 10
-227.60605784954015
 20
18.921343470050623
 30
2.5
 11
-237.4160286991527
 21
16.98111875890182
 31
2.5
  0
LINE
  5
1A8
330
17
100
AcDbEntity
  8
0
100
AcDbLine
 10
-227.60605784954015
 20
18.92134347005066
 30
2.5
 11
-227.60605784954015
 21
18.92134347005066
 31
5.0
  0
LINE
  5
1A9
330
17
100
AcDbEntity
  8
0
100
AcDbLine
 10
-207.49061199941204
 20
22.899794141566748
 30
5.0
 11
-227.60605784954015
 21
18.92134347005066
 31
5.0
  0
LINE
  5
1AA
330
17
100
AcDbEntity
  8
0
100
AcDbLine
 10
-320.5673394435361
 20
0.5353789759912599
 30
5.0
 11
-320.5673394435361
 21
0.5353789759912599
 31
0.0
  0
LINE
  5
1AB
330
17
100
AcDbEntity
  8
0
100
AcDbLine
 10
-366.68596067864326
 20
-18.779712930928213
 30
5.0
 11
-386.8014065287715
 21
-22.758163602444327
 31
5.0
  0
LINE
  5
1AC
330
17
100
AcDbEntity
  8
0
100
AcDbLine
 10
-386.8014065287715
 20
-22.758163602444327
 30
0.0
 11
-386.8014065287715
 21
-22.758163602444327
 31
5.0
  0
LINE
  5
1AD
330
17
100
AcDbEntity
  8
0
100
AcDbLine
 10
-343.4742251649366
 20
15.877368351233818
 30
5.0
 11
-343.4742251649366
 21
15.877368351233818
 31
0.0
  0
ARC
  5
1AE
330
17
100
AcDbEntity
  8
0
100
AcDbCircle
 10
-343.62665006108955
 20
-9.122166977468451
 30
5.0
 40
25.0
100
AcDbArc
 50
22.724583771593803
 51
89.65066570596665
  0
LINE
  5
1AF
330
17
100
AcDbEntity
  8
0
100
AcDbLine
 10
-388.7416312399203
 20
-12.948192752831801
 30
0.0
 11
-388.7416312399203
 21
-12.948192752831801
 31
5.0
  0
LINE
  5
1B0
330
17
100
AcDbEntity
  8
0
100
AcDbLine
 10
-388.7416312399203
 20
-12.948192752831801
 30
5.0
 11
-386.8014065287715
 21
-22.758163602444327
 31
5.0
  0
LINE
  5
1B1
330
17
100
AcDbEntity
  8
0
100
AcDbLine
 10
-347.4526758364529
 20
35.99281420136232
 30
0.0
 11
-347.4526758364529
 21
35.99281420136232
 31
5.0
  0
LINE
  5
1B2
330
17
100
AcDbEntity
  8
0
100
AcDbLine
 10
-343.4742251649368
 20
15.877368351234141
 30
5.0
 11
-347.4526758364529
 21
35.99281420136232
 31
5.0
  0
LINE
  5
1B3
330
17
100
AcDbEntity
  8
0
100
AcDbLine
 10
-368.62618538979217
 20
-8.969742081315696
 30
5.0
 11
-388.74163123992037
 21
-12.948192752831801
 31
5.0
  0
LINE
  5
1B4
330
17
100
AcDbEntity
  8
0
100
AcDbLine
 10
-368.62618538979183
 20
-8.969742081315626
 30
5.0
 11
-368.62618538979183
 21
-8.969742081315626
 31
0.0
  0
LINE
  5
1B5
330
17
100
AcDbEntity
  8
0
100
AcDbLine
 10
-357.2626466860654
 20
34.05258949021352
 30
0.0
 11
-357.2626466860654
 21
34.05258949021352
 31
5.0
  0
LINE
  5
1B6
330
17
100
AcDbEntity
  8
0
100
AcDbLine
 10
-347.4526758364529
 20
35.99281420136232
 30
5.0
 11
-357.2626466860654
 21
34.05258949021352
 31
5.0
  0
ARC
  5
1B7
330
17
100
AcDbEntity
  8
0
100
AcDbCircle
 10
-343.62665006108955
 20
-9.122166977468451
 30
5.0
 40
25.0
100
AcDbArc
 50
112.7245837715938
 51
179.65066570596653
  0
LINE
  5
1B8
330
17
100
AcDbEntity
  8
0
100
AcDbLine
 10
-353.28419601454925
 20
13.937143640085013
 30
5.0
 11
-353.28419601454925
 21
13.937143640085013
 31
0.0
  0
LINE
  5
1B9
330
17
100
AcDbEntity
  8
0
100
AcDbLine
 10
-357.2626466860654
 20
34.05258949021352
 30
5.0
 11
-353.2841960145493
 21
13.93714364008531
 31
5.0
  0
LINE
  5
1BA
330
17
100
AcDbEntity
  8
0
100
AcDbLine
 10
44.457041889595466
 20
48.99626594449791
 30
5.0
 11
44.457041889595466
 21
48.99626594449791
 31
0.0
  0
LINE
  5
1BB
330
17
100
AcDbEntity
  8
0
100
AcDbLine
 10
110.65950748822357
 20
-10.128302463275965
 30
5.0
 11
110.65950748822357
 21
-10.128302463275965
 31
0.0
  0
LINE
  5
1BC
330
17
100
AcDbEntity
  8
0
100
AcDbLine
 10
67.20934719885841
 20
28.676475442315297
 30
5.0
 11
110.65950748822345
 21
-10.12830246327589
 31
5.0
  0
LINE
  5
1BD
330
17
100
AcDbEntity
  8
0
100
AcDbLine
 10
67.20934719885841
 20
28.676475442315297
 30
2.5
 11
67.20934719885841
 21
28.676475442315297
 31
5.0
  0
LINE
  5
1BE
330
17
100
AcDbEntity
  8
0
100
AcDbLine
 10
59.75082275841895
 20
35.337587449432974
 30
2.5
 11
67.20934719885841
 21
28.6764754423153
 31
2.5
  0
LINE
  5
1BF
330
17
100
AcDbEntity
  8
0
100
AcDbLine
 10
59.75082275841896
 20
35.337587449432995
 30
2.5
 11
59.75082275841896
 21
35.337587449432995
 31
5.0
  0
LINE
  5
1C0
330
17
100
AcDbEntity
  8
0
100
AcDbLine
 10
44.45704188959535
 20
48.99626594449806
 30
5.0
 11
59.75082275841897
 21
35.337587449433
 31
5.0
  0
LINE
  5
1C1
330
17
100
AcDbEntity
  8
0
100
AcDbLine
 10
108.36997277858195
 20
-30.083111404549797
 30
5.0
 11
108.36997277858195
 21
-30.083111404549797
 31
0.0
  0
ARC
  5
1C2
330
17
100
AcDbEntity
  8
0
100
AcDbCircle
 10
132.2596426049365
 20
-22.715365780020843
 30
5.0
 40
25.0
100
AcDbArc
 50
149.76932878477157
 51
197.1401380283156
  0
ARC
  5
1C3
330
17
100
AcDbEntity
  8
0
100
AcDbCircle
 10
29.51801878000025
 20
69.04185370168227
 30
5.0
 40
25.0
100
AcDbArc
 50
282.8725462427492
 51
306.69541071914
  0
LINE
  5
1C4
330
17
100
AcDbEntity
  8
0
100
AcDbLine
 10
35.08759441329216
 20
44.67015233995865
 30
5.0
 11
35.08759441329216
 21
44.67015233995865
 31
0.0
  0
LINE
  5
1C5
330
17
100
AcDbEntity
  8
0
100
AcDbLine
 10
52.0149988765722
 20
-60.9072857561698
 30
5.0
 11
52.0149988765722
 21
-60.9072857561698
 31
0.0
  0
LINE
  5
1C6
330
17
100
AcDbEntity
  8
0
100
AcDbLine
 10
81.60668544554116
 20
-44.72168148730043
 30
5.0
 11
52.01499887657255
 21
-60.907285756169614
 31
5.0
  0
LINE
  5
1C7
330
17
100
AcDbEntity
  8
0
100
AcDbLine
 10
81.60668544554116
 20
-44.72168148730043
 30
2.5
 11
81.60668544554116
 21
-44.72168148730043
 31
5.0
  0
LINE
  5
1C8
330
17
100
AcDbEntity
  8
0
100
AcDbLine
 10
90.38006598727999
 20
-39.92295312763697
 30
2.5
 11
81.60668544554116
 21
-44.72168148730043
 31
2.5
  0
LINE
  5
1C9
330
17
100
AcDbEntity
  8
0
100
AcDbLine
 10
90.38006598727999
 20
-39.92295312763698
 30
2.5
 11
90.38006598727999
 21
-39.92295312763698
 31
5.0
  0
LINE
  5
1CA
330
17
100
AcDbEntity
  8
0
100
AcDbLine
 10
108.3699727785821
 20
-30.083111404549726
 30
5.0
 11
90.38006598727998
 21
-39.92295312763699
 31
5.0
  0
LINE
  5
1CB
330
17
100
AcDbEntity
  8
0
100
AcDbLine
 10
36.640743455193245
 20
-21.946812627675
 30
5.0
 11
35.087594413292166
 21
44.67015233995856
 31
5.0
  0
LINE
  5
1CC
330
17
100
AcDbEntity
  8
0
100
AcDbLine
 10
36.640743455193245
 20
-21.946812627675
 30
2.5
 11
36.640743455193245
 21
-21.946812627675
 31
5.0
  0
LINE
  5
1CD
330
17
100
AcDbEntity
  8
0
100
AcDbLine
 10
36.87382628791994
 20
-31.94409587829304
 30
2.5
 11
36.640743455193245
 21
-21.946812627674994
 31
2.5
  0
LINE
  5
1CE
330
17
100
AcDbEntity
  8
0
100
AcDbLine
 10
36.87382628791999
 20
-31.944095878293062
 30
2.5
 11
36.87382628791999
 21
-31.944095878293062
 31
5.0
  0
LINE
  5
1CF
330
17
100
AcDbEntity
  8
0
100
AcDbLine
 10
37.35176502720724
 20
-52.443627727987405
 30
5.0
 11
36.87382628791999
 21
-31.944095878293062
 31
5.0
  0
LINE
  5
1D0
330
17
100
AcDbEntity
  8
0
100
AcDbLine
 10
37.35176502720718
 20
-52.44362772798728
 30
5.0
 11
37.35176502720718
 21
-52.44362772798728
 31
0.0
  0
ARC
  5
1D1
330
17
100
AcDbEntity
  8
0
100
AcDbCircle
 10
32.92405740988112
 20
-77.04841192243761
 30
5.0
 40
25.0
100
AcDbArc
 50
40.214056093945224
 51
79.79862817711822
  0
LINE
  5
1D2
330
17
100
AcDbEntity
  8
0
100
AcDbLine
 10
52.72171509159841
 20
59.736560719775355
 30
5.0
 11
52.72171509159841
 21
59.736560719775355
 31
0.0
  0
LINE
  5
1D3
330
17
100
AcDbEntity
  8
0
100
AcDbLine
 10
235.3048159972201
 20
26.505793308198292
 30
5.0
 11
235.3048159972201
 21
26.505793308198292
 31
0.0
  0
LINE
  5
1D4
330
17
100
AcDbEntity
  8
0
100
AcDbLine
 10
82.73378814420698
 20
54.274257723475515
 30
5.0
 11
235.30481599722012
 21
26.505793308198285
 31
5.0
  0
LINE
  5
1D5
330
17
100
AcDbEntity
  8
0
100
AcDbLine
 10
82.73378814420698
 20
54.274257723475515
 30
2.5
 11
82.73378814420698
 21
54.274257723475515
 31
5.0
  0
LINE
  5
1D6
330
17
100
AcDbEntity
  8
0
100
AcDbLine
 10
72.89541012806794
 20
56.06487717259138
 30
2.5
 11
82.73378814420698
 21
54.27425772347552
 31
2.5
  0
LINE
  5
1D7
330
17
100
AcDbEntity
  8
0
100
AcDbLine
 10
72.89541012806801
 20
56.06487717259138
 30
2.5
 11
72.89541012806801
 21
56.06487717259138
 31
5.0
  0
LINE
  5
1D8
330
17
100
AcDbEntity
  8
0
100
AcDbLine
 10
52.721715091598426
 20
59.73656071977538
 30
5.0
 11
72.89541012806802
 21
56.06487717259137
 31
5.0
  0
LINE
  5
1D9
330
17
100
AcDbEntity
  8
0
100
AcDbLine
 10
152.8480221860643
 20
-8.533735894023986
 30
5.0
 11
152.8480221860643
 21
-8.533735894023986
 31
0.0
  0
LINE
  5
1DA
330
17
100
AcDbEntity
  8
0
100
AcDbLine
 10
171.71988170704418
 20
-0.5142502674054548
 30
5.0
 11
152.8480221860641
 21
-8.533735894024087
 31
5.0
  0
LINE
  5
1DB
330
17
100
AcDbEntity
  8
0
100
AcDbLine
 10
171.71988170704418
 20
-0.5142502674054548
 30
2.5
 11
171.71988170704418
 21
-0.5142502674054548
 31
5.0
  0
LINE
  5
1DC
330
17
100
AcDbEntity
  8
0
100
AcDbLine
 10
180.9233760346438
 20
3.396720476775787
 30
2.5
 11
171.71988170704418
 21
-0.5142502674054503
 31
2.5
  0
LINE
  5
1DD
330
17
100
AcDbEntity
  8
0
100
AcDbLine
 10
180.9233760346438
 20
3.396720476775787
 30
2.5
 11
180.9233760346438
 21
3.396720476775787
 31
5.0
  0
LINE
  5
1DE
330
17
100
AcDbEntity
  8
0
100
AcDbLine
 10
235.30481599722006
 20
26.50579330819835
 30
5.0
 11
180.9233760346438
 21
3.3967204767757835
 31
5.0
  0
ARC
  5
1DF
330
17
100
AcDbEntity
  8
0
100
AcDbCircle
 10
29.51801878000025
 20
69.04185370168227
 30
5.0
 40
25.0
100
AcDbArc
 50
329.76932878477146
 51
338.1479154416834
  0
LINE
  5
1E0
330
17
100
AcDbEntity
  8
0
100
AcDbLine
 10
51.11815389671316
 20
56.45479038493734
 30
5.0
 11
51.11815389671316
 21
56.45479038493734
 31
0.0
  0
LINE
  5
1E1
330
17
100
AcDbEntity
  8
0
100
AcDbLine
 10
117.32061949534122
 20
-2.6697780228365033
 30
5.0
 11
117.32061949534122
 21
-2.6697780228365033
 31
0.0
  0
ARC
  5
1E2
330
17
100
AcDbEntity
  8
0
100
AcDbCircle
 10
132.2596426049365
 20
-22.715365780020843
 30
5.0
 40
25.0
100
AcDbArc
 50
34.55973884448792
 51
126.69541071914293
  0
LINE
  5
1E3
330
17
100
AcDbEntity
  8
0
100
AcDbLine
 10
66.41193476553664
 20
42.79611188987245
 30
5.0
 11
51.11815389671328
 21
56.45479038493728
 31
5.0
  0
LINE
  5
1E4
330
17
100
AcDbEntity
  8
0
100
AcDbLine
 10
66.41193476553664
 20
42.79611188987245
 30
2.5
 11
66.41193476553664
 21
42.79611188987245
 31
5.0
  0
LINE
  5
1E5
330
17
100
AcDbEntity
  8
0
100
AcDbLine
 10
73.87045920597609
 20
36.134999882754755
 30
2.5
 11
66.41193476553663
 21
42.79611188987243
 31
2.5
  0
LINE
  5
1E6
330
17
100
AcDbEntity
  8
0
100
AcDbLine
 10
73.87045920597609
 20
36.134999882754755
 30
2.5
 11
73.87045920597609
 21
36.134999882754755
 31
5.0
  0
LINE
  5
1E7
330
17
100
AcDbEntity
  8
0
100
AcDbLine
 10
117.32061949534102
 20
-2.6697780228363293
 30
5.0
 11
73.87045920597608
 21
36.134999882754755
 31
5.0
  0
LINE
  5
1E8
330
17
100
AcDbEntity
  8
0
100
AcDbLine
 10
366.36712867066933
 20
78.07030931137345
 30
2.5
 11
362.0013661785609
 21
87.06698191086817
 31
2.5
  0
LINE
  5
1E9
330
17
100
AcDbEntity
  8
0
100
AcDbLine
 10
353.00469357906616
 20
82.7012194187597
 30
2.5
 11
357.3704560711746
 21
73.70454681926499
 31
2.5
  0
LINE
  5
1EA
330
17
100
AcDbEntity
  8
0
100
AcDbLine
 10
357.37045607117466
 20
73.70454681926499
 30
5.0
 11
353.0046935790662
 21
82.7012194187597
 31
5.0
  0
LINE
  5
1EB
330
17
100
AcDbEntity
  8
0
100
AcDbLine
 10
84.52440759332285
 20
64.11263573961456
 30
5.0
 11
82.73378814420698
 21
54.274257723475515
 31
5.0
  0
LINE
  5
1EC
330
17
100
AcDbEntity
  8
0
100
AcDbLine
 10
180.9233760346438
 20
3.396720476775787
 30
5.0
 11
184.83434677882505
 21
-5.806773850823838
 31
5.0
  0
LINE
  5
1ED
330
17
100
AcDbEntity
  8
0
100
AcDbLine
 10
26.643460204575202
 20
-22.179895460401696
 30
5.0
 11
36.640743455193245
 21
-21.946812627674998
 31
5.0
  0
LINE
  5
1EE
330
17
100
AcDbEntity
  8
0
100
AcDbLine
 10
59.75082275841896
 20
35.337587449432995
 30
5.0
 11
66.41193476553664
 21
42.79611188987245
 31
5.0
  0
LINE
  5
1EF
330
17
100
AcDbEntity
  8
0
100
AcDbLine
 10
72.89541012806801
 20
56.06487717259138
 30
5.0
 11
74.68602957718387
 21
65.90325518873043
 31
5.0
  0
LINE
  5
1F0
330
17
100
AcDbEntity
  8
0
100
AcDbLine
 10
42.94432573732078
 20
112.28227786111677
 30
5.0
 11
33.125054410681
 21
114.1748714820058
 31
5.0
  0
LINE
  5
1F1
330
17
100
AcDbEntity
  8
0
100
AcDbLine
 10
2.9723448619063575
 20
105.72055591746725
 30
5.0
 11
-4.431622114288055
 21
98.998854271647
 31
5.0
  0
LINE
  5
1F2
330
17
100
AcDbEntity
  8
0
100
AcDbLine
 10
-15.512720785629067
 20
64.32671911479436
 30
5.0
 11
-13.379380521052958
 21
54.55692590738519
 31
5.0
  0
LINE
  5
1F3
330
17
100
AcDbEntity
  8
0
100
AcDbLine
 10
74.6860295771838
 20
65.90325518873043
 30
2.5
 11
72.89541012806794
 21
56.06487717259138
 31
2.5
  0
LINE
  5
1F4
330
17
100
AcDbEntity
  8
0
100
AcDbLine
 10
82.73378814420698
 20
54.274257723475515
 30
2.5
 11
84.52440759332285
 21
64.11263573961456
 31
2.5
  0
LINE
  5
1F5
330
17
100
AcDbEntity
  8
0
100
AcDbLine
 10
35.017648031569976
 20
123.9941428086456
 30
5.0
 11
44.836919358209755
 21
122.10154918775658
 31
5.0
  0
LINE
  5
1F6
330
17
100
AcDbEntity
  8
0
100
AcDbLine
 10
44.836919358209755
 20
122.10154918775656
 30
2.5
 11
35.017648031569976
 21
123.99414280864559
 31
2.5
  0
LINE
  5
1F7
330
17
100
AcDbEntity
  8
0
100
AcDbLine
 10
33.125054410680946
 20
114.17487148200583
 30
2.5
 11
42.944325737320725
 21
112.2822778611168
 31
2.5
  0
LINE
  5
1F8
330
17
100
AcDbEntity
  8
0
100
AcDbLine
 10
184.83434677882502
 20
-5.806773850823834
 30
2.5
 11
180.92337603464378
 21
3.3967204767757906
 31
2.5
  0
LINE
  5
1F9
330
17
100
AcDbEntity
  8
0
100
AcDbLine
 10
171.71988170704418
 20
-0.5142502674054477
 30
2.5
 11
175.63085245122542
 21
-9.717744595005072
 31
2.5
  0
LINE
  5
1FA
330
17
100
AcDbEntity
  8
0
100
AcDbLine
 10
175.63085245122542
 20
-9.717744595005081
 30
5.0
 11
171.71988170704418
 21
-0.5142502674054565
 31
5.0
  0
LINE
  5
1FB
330
17
100
AcDbEntity
  8
0
100
AcDbLine
 10
73.87045920597609
 20
36.134999882754755
 30
5.0
 11
67.20934719885841
 21
28.676475442315294
 31
5.0
  0
LINE
  5
1FC
330
17
100
AcDbEntity
  8
0
100
AcDbLine
 10
90.38006598727999
 20
-39.92295312763698
 30
5.0
 11
95.17879434694345
 21
-48.69633366937582
 31
5.0
  0
LINE
  5
1FD
330
17
100
AcDbEntity
  8
0
100
AcDbLine
 10
95.17879434694345
 20
-48.69633366937582
 30
2.5
 11
90.38006598727999
 21
-39.92295312763698
 31
2.5
  0
LINE
  5
1FE
330
17
100
AcDbEntity
  8
0
100
AcDbLine
 10
81.60668544554116
 20
-44.72168148730043
 30
2.5
 11
86.40541380520462
 21
-53.49506202903927
 31
2.5
  0
LINE
  5
1FF
330
17
100
AcDbEntity
  8
0
100
AcDbLine
 10
86.4054138052046
 20
-53.495062029039275
 30
5.0
 11
81.60668544554115
 21
-44.72168148730044
 31
5.0
  0
LINE
  5
200
330
17
100
AcDbEntity
  8
0
100
AcDbLine
 10
36.87382628791999
 20
-31.944095878293062
 30
5.0
 11
26.876543037301943
 21
-32.177178711019764
 31
5.0
  0
LINE
  5
201
330
17
100
AcDbEntity
  8
0
100
AcDbLine
 10
-11.153323760108236
 20
106.40282124784147
 30
5.0
 11
-3.7493567839138278
 21
113.12452289366172
 31
5.0
  0
LINE
  5
202
330
17
100
AcDbEntity
  8
0
100
AcDbLine
 10
-3.7493567839138393
 20
113.12452289366172
 30
2.5
 11
-11.153323760108247
 21
106.40282124784147
 31
2.5
  0
LINE
  5
203
330
17
100
AcDbEntity
  8
0
100
AcDbLine
 10
-4.43162211428799
 20
98.99885427164706
 30
2.5
 11
2.972344861906419
 21
105.72055591746731
 31
2.5
  0
LINE
  5
204
330
17
100
AcDbEntity
  8
0
100
AcDbLine
 10
26.876543037301897
 20
-32.177178711019735
 30
2.5
 11
36.87382628791994
 21
-31.944095878293037
 31
2.5
  0
LINE
  5
205
330
17
100
AcDbEntity
  8
0
100
AcDbLine
 10
36.640743455193245
 20
-21.946812627675
 30
2.5
 11
26.6434602045752
 21
-22.1798954604017
 31
2.5
  0
LINE
  5
206
330
17
100
AcDbEntity
  8
0
100
AcDbLine
 10
-13.379380521052923
 20
54.556925907385185
 30
2.5
 11
-15.512720785629035
 21
64.32671911479436
 31
2.5
  0
LINE
  5
207
330
17
100
AcDbEntity
  8
0
100
AcDbLine
 10
-25.282513993038236
 20
62.19337885021824
 30
2.5
 11
-23.149173728462124
 21
52.42358564280907
 31
2.5
  0
LINE
  5
208
330
17
100
AcDbEntity
  8
0
100
AcDbLine
 10
-23.149173728462102
 20
52.42358564280907
 30
5.0
 11
-25.282513993038215
 21
62.19337885021824
 31
5.0
  0
LINE
  5
209
330
17
100
AcDbEntity
  8
0
100
AcDbLine
 10
-227.60605784954015
 20
18.92134347005066
 30
5.0
 11
-225.66583313839135
 21
9.111372620438134
 31
5.0
  0
LINE
  5
20A
330
17
100
AcDbEntity
  8
0
100
AcDbLine
 10
-225.66583313839135
 20
9.111372620438095
 30
2.5
 11
-227.60605784954015
 21
18.921343470050623
 31
2.5
  0
LINE
  5
20B
330
17
100
AcDbEntity
  8
0
100
AcDbLine
 10
-237.41602869915266
 20
16.981118758901815
 30
2.5
 11
-235.47580398800386
 21
7.171147909289287
 31
2.5
  0
LINE
  5
20C
330
17
100
AcDbEntity
  8
0
100
AcDbLine
 10
-235.47580398800386
 20
7.1711479092892905
 30
5.0
 11
-237.41602869915266
 21
16.981118758901818
 31
5.0
  0
LINE
  5
20D
330
17
100
AcDbEntity
  8
0
100
AcDbLine
 10
67.20934719885841
 20
28.676475442315297
 30
2.5
 11
73.87045920597609
 21
36.134999882754755
 31
2.5
  0
LINE
  5
20E
330
17
100
AcDbEntity
  8
0
100
AcDbLine
 10
66.41193476553663
 20
42.796111889872435
 30
2.5
 11
59.750822758418956
 21
35.337587449432974
 31
2.5
  0
ENDSEC
  0
SECTION
  2
OBJECTS
  0
DICTIONARY
  5
A
330
0
100
AcDbDictionary
280
0
281
1
  3
ACAD_COLOR
350
B
  3
ACAD_GROUP
350
C
  3
ACAD_LAYOUT
350
D
  3
ACAD_MATERIAL
350
E
  3
ACAD_MLEADERSTYLE
350
F
  3
ACAD_MLINESTYLE
350
10
  3
ACAD_PLOTSETTINGS
350
11
  3
ACAD_PLOTSTYLENAME
350
12
  3
ACAD_SCALELIST
350
14
  3
ACAD_TABLESTYLE
350
15
  3
ACAD_VISUALSTYLE
350
16
  3
EZDXF_META
350
2D
  0
DICTIONARY
  5
B
330
A
100
AcDbDictionary
280
0
281
1
  0
DICTIONARY
  5
C
330
A
100
AcDbDictionary
280
0
281
1
  0
DICTIONARY
  5
D
330
A
100
AcDbDictionary
280
0
281
1
  3
Model
350
1A
  3
Layout1
350
1E
  0
DICTIONARY
  5
E
330
A
100
AcDbDictionary
280
0
281
1
  3
ByBlock
350
1F
  3
ByLayer
350
20
  3
Global
350
21
  0
DICTIONARY
  5
F
330
A
100
AcDbDictionary
280
0
281
1
  3
Standard
350
2C
  0
DICTIONARY
  5
10
330
A
100
AcDbDictionary
280
0
281
1
  3
Standard
350
22
  0
DICTIONARY
  5
11
330
A
100
AcDbDictionary
280
0
281
1
  0
ACDBDICTIONARYWDFLT
  5
12
330
A
100
AcDbDictionary
280
0
281
1
  3
Normal
350
13
100
AcDbDictionaryWithDefault
340
13
  0
ACDBPLACEHOLDER
  5
13
330
12
  0
DICTIONARY
  5
14
330
A
100
AcDbDictionary
280
0
281
1
  0
DICTIONARY
  5
15
330
A
100
AcDbDictionary
280
0
281
1
  0
DICTIONARY
  5
16
330
A
100
AcDbDictionary
280
0
281
1
  0
LAYOUT
  5
1A
330
D
100
AcDbPlotSettings
  1

  2
Adobe PDF
  4
A3
  6

 40
7.5
 41
20.0
 42
7.5
 43
20.0
 44
420.0
 45
297.0
 46
0.0
 47
0.0
 48
0.0
 49
0.0
140
0.0
141
0.0
142
1.0
143
1.0
 70
1024
 72
1
 73
0
 74
5
  7

 75
16
 76
0
 77
2
 78
300
147
1.0
148
0.0
149
0.0
100
AcDbLayout
  1
Model
 70
1
 71
0
 10
0.0
 20
0.0
 11
420.0
 21
297.0
 12
0.0
 22
0.0
 32
0.0
 14
1e+20
 24
1e+20
 34
1e+20
 15
-1e+20
 25
-1e+20
 35
-1e+20
146
0.0
 13
0.0
 23
0.0
 33
0.0
 16
1.0
 26
0.0
 36
0.0
 17
0.0
 27
1.0
 37
0.0
 76
1
330
17
  0
LAYOUT
  5
1E
330
D
100
AcDbPlotSettings
  1

  2
Adobe PDF
  4
A3
  6

 40
7.5
 41
20.0
 42
7.5
 43
20.0
 44
420.0
 45
297.0
 46
0.0
 47
0.0
 48
0.0
 49
0.0
140
0.0
141
0.0
142
1.0
143
1.0
 70
0
 72
1
 73
0
 74
5
  7

 75
16
 76
0
 77
2
 78
300
147
1.0
148
0.0
149
0.0
100
AcDbLayout
  1
Layout1
 70
1
 71
1
 10
0.0
 20
0.0
 11
420.0
 21
297.0
 12
0.0
 22
0.0
 32
0.0
 14
1e+20
 24
1e+20
 34
1e+20
 15
-1e+20
 25
-1e+20
 35
-1e+20
146
0.0
 13
0.0
 23
0.0
 33
0.0
 16
1.0
 26
0.0
 36
0.0
 17
0.0
 27
1.0
 37
0.0
 76
1
330
1B
  0
MATERIAL
  5
1F
102
{ACAD_REACTORS
330
E
102
}
330
E
100
AcDbMaterial
  1
ByBlock
  2

 70
0
 40
1.0
 71
1
 41
1.0
 91
-1023410177
 42
1.0
 72
1
  3

 73
1
 74
1
 75
1
 44
0.5
 73
0
 45
1.0
 46
1.0
 77
1
  4

 78
1
 79
1
170
1
 48
1.0
171
1
  6

172
1
173
1
174
1
140
1.0
141
1.0
175
1
  7

176
1
177
1
178
1
143
1.0
179
1
  8

270
1
271
1
272
1
145
1.0
146
1.0
273
1
  9

274
1
275
1
276
1
 42
1.0
 72
1
  3

 73
1
 74
1
 75
1
 94
63
  0
MATERIAL
  5
20
102
{ACAD_REACTORS
330
E
102
}
330
E
100
AcDbMaterial
  1
ByLayer
  2

 70
0
 40
1.0
 71
1
 41
1.0
 91
-1023410177
 42
1.0
 72
1
  3

 73
1
 74
1
 75
1
 44
0.5
 73
0
 45
1.0
 46
1.0
 77
1
  4

 78
1
 79
1
170
1
 48
1.0
171
1
  6

172
1
173
1
174
1
140
1.0
141
1.0
175
1
  7

176
1
177
1
178
1
143
1.0
179
1
  8

270
1
271
1
272
1
145
1.0
146
1.0
273
1
  9

274
1
275
1
276
1
 42
1.0
 72
1
  3

 73
1
 74
1
 75
1
 94
63
  0
MATERIAL
  5
21
102
{ACAD_REACTORS
330
E
102
}
330
E
100
AcDbMaterial
  1
Global
  2

 70
0
 40
1.0
 71
1
 41
1.0
 91
-1023410177
 42
1.0
 72
1
  3

 73
1
 74
1
 75
1
 44
0.5
 73
0
 45
1.0
 46
1.0
 77
1
  4

 78
1
 79
1
170
1
 48
1.0
171
1
  6

172
1
173
1
174
1
140
1.0
141
1.0
175
1
  7

176
1
177
1
178
1
143
1.0
179
1
  8

270
1
271
1
272
1
145
1.0
146
1.0
273
1
  9

274
1
275
1
276
1
 42
1.0
 72
1
  3

 73
1
 74
1
 75
1
 94
63
  0
MLINESTYLE
  5
22
102
{ACAD_REACTORS
330
10
102
}
330
10
100
AcDbMlineStyle
  2
Standard
 70
0
  3

 62
256
 51
90.0
 52
90.0
 71
2
 49
0.5
 62
256
  6
BYLAYER
 49
-0.5
 62
256
  6
BYLAYER
  0
MLEADERSTYLE
  5
2C
102
{ACAD_REACTORS
330
F
102
}
330
F
100
AcDbMLeaderStyle
179
2
170
2
171
1
172
0
 90
2
 40
0.0
 41
0.0
173
1
 91
-1056964608
 92
-2
290
1
 42
2.0
291
1
 43
8.0
  3
Standard
 44
4.0
300

342
29
174
1
175
1
176
0
178
1
 93
-1056964608
 45
4.0
292
0
297
0
 46
4.0
 94
-1056964608
 47
1.0
 49
1.0
140
1.0
294
1
141
0.0
177
0
142
1.0
295
0
296
0
143
3.75
271
0
272
9
273
9
  0
DICTIONARY
  5
2D
330
A
100
AcDbDictionary
281
1
  3
CREATED_BY_EZDXF
350
2E
  3
WRITTEN_BY_EZDXF
350
211
  0
DICTIONARYVAR
  5
2E
330
2D
100
DictionaryVariables
280
0
  1
1.0.2 @ 2023-03-28T19:26:33.588150+00:00
  0
DICTIONARYVAR
  5
211
330
2D
100
DictionaryVariables
280
0
  1
1.0.2 @ 2023-03-28T19:26:33.618748+00:00
  0
ENDSEC
  0
EOF
