  0
SECTION
  2
HEADER
  9
$ACADVER
  1
AC1027
  9
$ACADMAINTVER
 70
105
  9
$DWGCODEPAGE
  3
ANSI_1252
  9
$LASTSAVEDBY
  1
ezdxf
  9
$REQUIREDVERSIONS
160
0
  9
$INSBASE
 10
0.0
 20
0.0
 30
0.0
  9
$EXTMIN
 10
1e+20
 20
1e+20
 30
1e+20
  9
$EXTMAX
 10
-1e+20
 20
-1e+20
 30
-1e+20
  9
$LIMMIN
 10
0.0
 20
0.0
  9
$LIMMAX
 10
420.0
 20
297.0
  9
$ORTHOMODE
 70
0
  9
$REGENMODE
 70
1
  9
$FILLMODE
 70
1
  9
$QTEXTMODE
 70
0
  9
$MIRRTEXT
 70
1
  9
$LTSCALE
 40
1.0
  9
$ATTMODE
 70
1
  9
$TEXTSIZE
 40
2.5
  9
$TRACEWID
 40
1.0
  9
$TEXTSTYLE
  7
Standard
  9
$CLAYER
  8
0
  9
$CELTYPE
  6
ByLayer
  9
$CECOLOR
 62
256
  9
$CELTSCALE
 40
1.0
  9
$DISPSILH
 70
0
  9
$DIMSCALE
 40
1.0
  9
$DIMASZ
 40
2.5
  9
$DIMEXO
 40
0.625
  9
$DIMDLI
 40
3.75
  9
$DIMRND
 40
0.0
  9
$DIMDLE
 40
0.0
  9
$DIMEXE
 40
1.25
  9
$DIMTP
 40
0.0
  9
$DIMTM
 40
0.0
  9
$DIMTXT
 40
2.5
  9
$DIMCEN
 40
2.5
  9
$DIMTSZ
 40
0.0
  9
$DIMTOL
 70
0
  9
$DIMLIM
 70
0
  9
$DIMTIH
 70
0
  9
$DIMTOH
 70
0
  9
$DIMSE1
 70
0
  9
$DIMSE2
 70
0
  9
$DIMTAD
 70
1
  9
$DIMZIN
 70
8
  9
$DIMBLK
  1

  9
$DIMASO
 70
1
  9
$DIMSHO
 70
1
  9
$DIMPOST
  1

  9
$DIMAPOST
  1

  9
$DIMALT
 70
0
  9
$DIMALTD
 70
3
  9
$DIMALTF
 40
0.03937007874
  9
$DIMLFAC
 40
1.0
  9
$DIMTOFL
 70
1
  9
$DIMTVP
 40
0.0
  9
$DIMTIX
 70
0
  9
$DIMSOXD
 70
0
  9
$DIMSAH
 70
0
  9
$DIMBLK1
  1

  9
$DIMBLK2
  1

  9
$DIMSTYLE
  2
ISO-25
  9
$DIMCLRD
 70
0
  9
$DIMCLRE
 70
0
  9
$DIMCLRT
 70
0
  9
$DIMTFAC
 40
1.0
  9
$DIMGAP
 40
0.625
  9
$DIMJUST
 70
0
  9
$DIMSD1
 70
0
  9
$DIMSD2
 70
0
  9
$DIMTOLJ
 70
0
  9
$DIMTZIN
 70
8
  9
$DIMALTZ
 70
0
  9
$DIMALTTZ
 70
0
  9
$DIMUPT
 70
0
  9
$DIMDEC
 70
2
  9
$DIMTDEC
 70
2
  9
$DIMALTU
 70
2
  9
$DIMALTTD
 70
3
  9
$DIMTXSTY
  7
Standard
  9
$DIMAUNIT
 70
0
  9
$DIMADEC
 70
0
  9
$DIMALTRND
 40
0.0
  9
$DIMAZIN
 70
0
  9
$DIMDSEP
 70
44
  9
$DIMATFIT
 70
3
  9
$DIMFRAC
 70
0
  9
$DIMLDRBLK
  1

  9
$DIMLUNIT
 70
2
  9
$DIMLWD
 70
-2
  9
$DIMLWE
 70
-2
  9
$DIMTMOVE
 70
0
  9
$DIMFXL
 40
1.0
  9
$DIMFXLON
 70
0
  9
$DIMJOGANG
 40
0.785398163397
  9
$DIMTFILL
 70
0
  9
$DIMTFILLCLR
 70
0
  9
$DIMARCSYM
 70
0
  9
$DIMLTYPE
  6

  9
$DIMLTEX1
  6

  9
$DIMLTEX2
  6

  9
$DIMTXTDIRECTION
 70
0
  9
$LUNITS
 70
2
  9
$LUPREC
 70
4
  9
$SKETCHINC
 40
1.0
  9
$FILLETRAD
 40
10.0
  9
$AUNITS
 70
0
  9
$AUPREC
 70
2
  9
$MENU
  1
.
  9
$ELEVATION
 40
0.0
  9
$PELEVATION
 40
0.0
  9
$THICKNESS
 40
0.0
  9
$LIMCHECK
 70
0
  9
$CHAMFERA
 40
0.0
  9
$CHAMFERB
 40
0.0
  9
$CHAMFERC
 40
0.0
  9
$CHAMFERD
 40
0.0
  9
$SKPOLY
 70
0
  9
$TDCREATE
 40
2460032.6439930554
  9
$TDUCREATE
 40
2458532.153996898
  9
$TDUPDATE
 40
2460032.6439930554
  9
$TDUUPDATE
 40
2458532.1544311
  9
$TDINDWG
 40
0.0
  9
$TDUSRTIMER
 40
0.0
  9
$USRTIMER
 70
1
  9
$ANGBASE
 50
0.0
  9
$ANGDIR
 70
0
  9
$PDMODE
 70
0
  9
$PDSIZE
 40
0.0
  9
$PLINEWID
 40
0.0
  9
$SPLFRAME
 70
0
  9
$SPLINETYPE
 70
6
  9
$SPLINESEGS
 70
8
  9
$HANDSEED
  5
2DB
  9
$SURFTAB1
 70
6
  9
$SURFTAB2
 70
6
  9
$SURFTYPE
 70
6
  9
$SURFU
 70
6
  9
$SURFV
 70
6
  9
$UCSBASE
  2

  9
$UCSNAME
  2

  9
$UCSORG
 10
0.0
 20
0.0
 30
0.0
  9
$UCSXDIR
 10
1.0
 20
0.0
 30
0.0
  9
$UCSYDIR
 10
0.0
 20
1.0
 30
0.0
  9
$UCSORTHOREF
  2

  9
$UCSORTHOVIEW
 70
0
  9
$UCSORGTOP
 10
0.0
 20
0.0
 30
0.0
  9
$UCSORGBOTTOM
 10
0.0
 20
0.0
 30
0.0
  9
$UCSORGLEFT
 10
0.0
 20
0.0
 30
0.0
  9
$UCSORGRIGHT
 10
0.0
 20
0.0
 30
0.0
  9
$UCSORGFRONT
 10
0.0
 20
0.0
 30
0.0
  9
$UCSORGBACK
 10
0.0
 20
0.0
 30
0.0
  9
$PUCSBASE
  2

  9
$PUCSNAME
  2

  9
$PUCSORG
 10
0.0
 20
0.0
 30
0.0
  9
$PUCSXDIR
 10
1.0
 20
0.0
 30
0.0
  9
$PUCSYDIR
 10
0.0
 20
1.0
 30
0.0
  9
$PUCSORTHOREF
  2

  9
$PUCSORTHOVIEW
 70
0
  9
$PUCSORGTOP
 10
0.0
 20
0.0
 30
0.0
  9
$PUCSORGBOTTOM
 10
0.0
 20
0.0
 30
0.0
  9
$PUCSORGLEFT
 10
0.0
 20
0.0
 30
0.0
  9
$PUCSORGRIGHT
 10
0.0
 20
0.0
 30
0.0
  9
$PUCSORGFRONT
 10
0.0
 20
0.0
 30
0.0
  9
$PUCSORGBACK
 10
0.0
 20
0.0
 30
0.0
  9
$USERI1
 70
0
  9
$USERI2
 70
0
  9
$USERI3
 70
0
  9
$USERI4
 70
0
  9
$USERI5
 70
0
  9
$USERR1
 40
0.0
  9
$USERR2
 40
0.0
  9
$USERR3
 40
0.0
  9
$USERR4
 40
0.0
  9
$USERR5
 40
0.0
  9
$WORLDVIEW
 70
1
  9
$SHADEDGE
 70
3
  9
$SHADEDIF
 70
70
  9
$TILEMODE
 70
1
  9
$MAXACTVP
 70
64
  9
$PINSBASE
 10
0.0
 20
0.0
 30
0.0
  9
$PLIMCHECK
 70
0
  9
$PEXTMIN
 10
1e+20
 20
1e+20
 30
1e+20
  9
$PEXTMAX
 10
-1e+20
 20
-1e+20
 30
-1e+20
  9
$PLIMMIN
 10
0.0
 20
0.0
  9
$PLIMMAX
 10
420.0
 20
297.0
  9
$UNITMODE
 70
0
  9
$VISRETAIN
 70
1
  9
$PLINEGEN
 70
0
  9
$PSLTSCALE
 70
1
  9
$TREEDEPTH
 70
3020
  9
$CMLSTYLE
  2
Standard
  9
$CMLJUST
 70
0
  9
$CMLSCALE
 40
20.0
  9
$PROXYGRAPHICS
 70
1
  9
$MEASUREMENT
 70
1
  9
$CELWEIGHT
370
-1
  9
$ENDCAPS
280
0
  9
$JOINSTYLE
280
0
  9
$LWDISPLAY
290
0
  9
$INSUNITS
 70
6
  9
$HYPERLINKBASE
  1

  9
$STYLESHEET
  1

  9
$XEDIT
290
1
  9
$CEPSNTYPE
380
0
  9
$PSTYLEMODE
290
1
  9
$FINGERPRINTGUID
  2
{E60C7395-ECD9-4A0E-B1F5-22775F0ECCF3}
  9
$VERSIONGUID
  2
{4BD13D6F-091B-42B4-8548-169E52D22682}
  9
$EXTNAMES
290
1
  9
$PSVPSCALE
 40
0.0
  9
$OLESTARTUP
290
0
  9
$SORTENTS
280
127
  9
$INDEXCTL
280
0
  9
$HIDETEXT
280
1
  9
$XCLIPFRAME
280
0
  9
$HALOGAP
280
0
  9
$OBSCOLOR
 70
257
  9
$OBSLTYPE
280
0
  9
$INTERSECTIONDISPLAY
280
0
  9
$INTERSECTIONCOLOR
 70
257
  9
$DIMASSOC
280
2
  9
$PROJECTNAME
  1

  9
$CAMERADISPLAY
290
0
  9
$LENSLENGTH
 40
50.0
  9
$CAMERAHEIGHT
 40
0.0
  9
$STEPSPERSEC
 40
24.0
  9
$STEPSIZE
 40
100.0
  9
$3DDWFPREC
 40
2.0
  9
$PSOLWIDTH
 40
0.005
  9
$PSOLHEIGHT
 40
0.08
  9
$LOFTANG1
 40
1.570796326795
  9
$LOFTANG2
 40
1.570796326795
  9
$LOFTMAG1
 40
0.0
  9
$LOFTMAG2
 40
0.0
  9
$LOFTPARAM
 70
7
  9
$LOFTNORMALS
280
1
  9
$LATITUDE
 40
37.795
  9
$LONGITUDE
 40
-122.394
  9
$NORTHDIRECTION
 40
0.0
  9
$TIMEZONE
 70
-8000
  9
$LIGHTGLYPHDISPLAY
280
1
  9
$TILEMODELIGHTSYNCH
280
1
  9
$CMATERIAL
347
20
  9
$SOLIDHIST
280
0
  9
$SHOWHIST
280
1
  9
$DWFFRAME
280
2
  9
$DGNFRAME
280
2
  9
$REALWORLDSCALE
290
1
  9
$INTERFERECOLOR
 62
256
  9
$CSHADOW
280
0
  9
$SHADOWPLANELOCATION
 40
0.0
  0
ENDSEC
  0
SECTION
  2
CLASSES
  0
CLASS
  1
ACDBDICTIONARYWDFLT
  2
AcDbDictionaryWithDefault
  3
ObjectDBX Classes
 90
0
 91
0
280
0
281
0
  0
CLASS
  1
SUN
  2
AcDbSun
  3
SCENEOE
 90
1153
 91
0
280
0
281
0
  0
CLASS
  1
VISUALSTYLE
  2
AcDbVisualStyle
  3
ObjectDBX Classes
 90
4095
 91
0
280
0
281
0
  0
CLASS
  1
MATERIAL
  2
AcDbMaterial
  3
ObjectDBX Classes
 90
1153
 91
0
280
0
281
0
  0
CLASS
  1
SCALE
  2
AcDbScale
  3
ObjectDBX Classes
 90
1153
 91
0
280
0
281
0
  0
CLASS
  1
TABLESTYLE
  2
AcDbTableStyle
  3
ObjectDBX Classes
 90
4095
 91
0
280
0
281
0
  0
CLASS
  1
MLEADERSTYLE
  2
AcDbMLeaderStyle
  3
ACDB_MLEADERSTYLE_CLASS
 90
4095
 91
0
280
0
281
0
  0
CLASS
  1
DICTIONARYVAR
  2
AcDbDictionaryVar
  3
ObjectDBX Classes
 90
0
 91
0
280
0
281
0
  0
CLASS
  1
CELLSTYLEMAP
  2
AcDbCellStyleMap
  3
ObjectDBX Classes
 90
1152
 91
0
280
0
281
0
  0
CLASS
  1
MENTALRAYRENDERSETTINGS
  2
AcDbMentalRayRenderSettings
  3
SCENEOE
 90
1024
 91
0
280
0
281
0
  0
CLASS
  1
ACDBDETAILVIEWSTYLE
  2
AcDbDetailViewStyle
  3
ObjectDBX Classes
 90
1025
 91
0
280
0
281
0
  0
CLASS
  1
ACDBSECTIONVIEWSTYLE
  2
AcDbSectionViewStyle
  3
ObjectDBX Classes
 90
1025
 91
0
280
0
281
0
  0
CLASS
  1
RASTERVARIABLES
  2
AcDbRasterVariables
  3
ISM
 90
0
 91
0
280
0
281
0
  0
CLASS
  1
LAYOUT
  2
AcDbLayout
  3
ObjectDBX Classes
 90
0
 91
0
280
0
281
0
  0
CLASS
  1
ACDBPLACEHOLDER
  2
AcDbPlaceHolder
  3
ObjectDBX Classes
 90
0
 91
0
280
0
281
0
  0
ENDSEC
  0
SECTION
  2
TABLES
  0
TABLE
  2
VPORT
  5
8
330
0
100
AcDbSymbolTable
 70
1
  0
VPORT
  5
23
330
8
100
AcDbSymbolTableRecord
100
AcDbViewportTableRecord
  2
*Active
 70
0
 10
0.0
 20
0.0
 11
1.0
 21
1.0
 12
0.0
 22
0.0
 13
0.0
 23
0.0
 14
0.5
 24
0.5
 15
0.5
 25
0.5
 16
0.0
 26
0.0
 36
1.0
 17
0.0
 27
0.0
 37
0.0
 40
1000.0
 41
1.34
 42
50.0
 43
0.0
 44
0.0
 50
0.0
 51
0.0
 71
0
 72
1000
 73
1
 74
3
 75
0
 76
0
 77
0
 78
0
281
0
 65
0
146
0.0
  0
ENDTAB
  0
TABLE
  2
LTYPE
  5
2
330
0
100
AcDbSymbolTable
 70
3
  0
LTYPE
  5
24
330
2
100
AcDbSymbolTableRecord
100
AcDbLinetypeTableRecord
  2
ByBlock
 70
0
  3

 72
65
 73
0
 40
0.0
  0
LTYPE
  5
25
330
2
100
AcDbSymbolTableRecord
100
AcDbLinetypeTableRecord
  2
ByLayer
 70
0
  3

 72
65
 73
0
 40
0.0
  0
LTYPE
  5
26
330
2
100
AcDbSymbolTableRecord
100
AcDbLinetypeTableRecord
  2
Continuous
 70
0
  3

 72
65
 73
0
 40
0.0
  0
ENDTAB
  0
TABLE
  2
LAYER
  5
1
330
0
100
AcDbSymbolTable
 70
2
  0
LAYER
  5
27
330
1
100
AcDbSymbolTableRecord
100
AcDbLayerTableRecord
  2
0
 70
0
 62
7
  6
Continuous
370
-3
390
13
347
21
  0
LAYER
  5
28
330
1
100
AcDbSymbolTableRecord
100
AcDbLayerTableRecord
  2
Defpoints
 70
0
 62
7
  6
Continuous
290
0
370
-3
390
13
347
21
  0
ENDTAB
  0
TABLE
  2
STYLE
  5
5
330
0
100
AcDbSymbolTable
 70
1
  0
STYLE
  5
29
330
5
100
AcDbSymbolTableRecord
100
AcDbTextStyleTableRecord
  2
Standard
 70
0
 40
0.0
 41
1.0
 50
0.0
 71
0
 42
2.5
  3
txt
  4

  0
ENDTAB
  0
TABLE
  2
VIEW
  5
7
330
0
100
AcDbSymbolTable
 70
0
  0
ENDTAB
  0
TABLE
  2
UCS
  5
6
330
0
100
AcDbSymbolTable
 70
0
  0
ENDTAB
  0
TABLE
  2
APPID
  5
3
330
0
100
AcDbSymbolTable
 70
3
  0
APPID
  5
2A
330
3
100
AcDbSymbolTableRecord
100
AcDbRegAppTableRecord
  2
ACAD
 70
0
  0
APPID
  5
2D8
330
3
100
AcDbSymbolTableRecord
100
AcDbRegAppTableRecord
  2
HATCHBACKGROUNDCOLOR
 70
0
  0
APPID
  5
2D9
330
3
100
AcDbSymbolTableRecord
100
AcDbRegAppTableRecord
  2
EZDXF
 70
0
  0
ENDTAB
  0
TABLE
  2
DIMSTYLE
  5
4
330
0
100
AcDbSymbolTable
 70
1
100
AcDbDimStyleTable
  0
DIMSTYLE
105
2B
330
4
100
AcDbSymbolTableRecord
100
AcDbDimStyleTableRecord
  2
Standard
 70
0
 40
1.0
 41
2.5
 42
0.625
 43
3.75
 44
1.25
 45
0.0
 46
0.0
 47
0.0
 48
0.0
 49
2.5
140
2.5
141
2.5
142
0.0
143
0.03937007874
144
1.0
145
0.0
146
1.0
147
0.625
148
0.0
 69
0
 70
0
 71
0
 72
0
 73
0
 74
0
 75
0
 76
0
 77
1
 78
8
 79
3
170
0
171
3
172
1
173
0
174
0
175
0
176
0
177
0
178
0
179
2
271
2
272
2
273
2
274
3
275
0
276
0
277
2
278
44
279
0
280
0
281
0
282
0
283
0
284
8
285
0
286
0
288
0
289
3
290
0
371
-2
372
-2
  0
ENDTAB
  0
TABLE
  2
BLOCK_RECORD
  5
9
330
0
100
AcDbSymbolTable
 70
2
  0
BLOCK_RECORD
  5
17
330
9
100
AcDbSymbolTableRecord
100
AcDbBlockTableRecord
  2
*Model_Space
340
1A
 70
0
280
1
281
0
  0
BLOCK_RECORD
  5
1B
330
9
100
AcDbSymbolTableRecord
100
AcDbBlockTableRecord
  2
*Paper_Space
340
1E
 70
0
280
1
281
0
  0
ENDTAB
  0
ENDSEC
  0
SECTION
  2
BLOCKS
  0
BLOCK
  5
18
330
17
100
AcDbEntity
  8
0
100
AcDbBlockBegin
  2
*Model_Space
 70
0
 10
0.0
 20
0.0
 30
0.0
  3
*Model_Space
  1

  0
ENDBLK
  5
19
330
17
100
AcDbEntity
  8
0
100
AcDbBlockEnd
  0
BLOCK
  5
1C
330
1B
100
AcDbEntity
  8
0
100
AcDbBlockBegin
  2
*Paper_Space
 70
0
 10
0.0
 20
0.0
 30
0.0
  3
*Paper_Space
  1

  0
ENDBLK
  5
1D
330
1B
100
AcDbEntity
  8
0
100
AcDbBlockEnd
  0
ENDSEC
  0
SECTION
  2
ENTITIES
  0
LINE
  5
2F
330
17
100
AcDbEntity
  8
0
100
AcDbLine
 10
-89.78620299127995
 20
101.26105431596639
 30
5.0
 11
-89.46499999476745
 21
101.26105431596639
 31
5.0
  0
LINE
  5
30
330
17
100
AcDbEntity
  8
0
100
AcDbLine
 10
-89.78620299127995
 20
91.26105431596639
 30
5.0
 11
-89.78620299127995
 21
101.26105431596639
 31
5.0
  0
LINE
  5
31
330
17
100
AcDbEntity
  8
0
100
AcDbLine
 10
-89.78620299127995
 20
91.26105431596639
 30
5.0
 11
-86.00719184353008
 21
91.26105431596639
 31
5.0
  0
LINE
  5
32
330
17
100
AcDbEntity
  8
0
100
AcDbLine
 10
-86.00719184353008
 20
91.26105431596639
 30
5.0
 11
-23.36246130543583
 21
58.725467199202484
 31
5.0
  0
LINE
  5
33
330
17
100
AcDbEntity
  8
0
100
AcDbLine
 10
-23.362461305435833
 20
58.725467199202484
 30
5.0
 11
-21.29757640709072
 21
56.52406866637322
 31
5.0
  0
LINE
  5
34
330
17
100
AcDbEntity
  8
0
100
AcDbLine
 10
-21.297576407090723
 20
56.52406866637322
 30
5.0
 11
-20.522908270547855
 21
57.25069790343403
 31
5.0
  0
LINE
  5
35
330
17
100
AcDbEntity
  8
0
100
AcDbLine
 10
-20.52290827054786
 20
57.25069790343403
 30
5.0
 11
70.08955233529505
 21
10.189603050244557
 31
5.0
  0
ARC
  5
36
330
17
100
AcDbEntity
  8
0
100
AcDbCircle
 10
94.13202053210743
 20
3.3368865811887045
 30
5.0
 40
25.0
100
AcDbArc
 50
164.09109690439368
 51
270.4636826338354
  0
LINE
  5
37
330
17
100
AcDbEntity
  8
0
100
AcDbLine
 10
94.3343380398053
 20
-21.66229475792855
 30
5.0
 11
98.59781320816792
 21
-41.71926389546037
 31
5.0
  0
LINE
  5
38
330
17
100
AcDbEntity
  8
0
100
AcDbLine
 10
98.59781320816793
 20
-41.719263895460365
 30
5.0
 11
108.37926593045528
 21
-39.64003744274833
 31
5.0
  0
LINE
  5
39
330
17
100
AcDbEntity
  8
0
100
AcDbLine
 10
108.37926593045528
 20
-39.64003744274833
 30
5.0
 11
104.11579076209271
 21
-19.58306830521682
 31
5.0
  0
ARC
  5
3A
330
17
100
AcDbEntity
  8
0
100
AcDbCircle
 10
94.13202053210743
 20
3.3368865811887045
 30
5.0
 40
25.0
100
AcDbArc
 50
-66.4623993005329
 51
8.35222317554053
  0
LINE
  5
3B
330
17
100
AcDbEntity
  8
0
100
AcDbLine
 10
118.8668655878991
 20
6.968338090707336
 30
5.0
 11
138.1488875113455
 21
13.944215242640787
 31
5.0
  0
LINE
  5
3C
330
17
100
AcDbEntity
  8
0
100
AcDbLine
 10
138.1488875113455
 20
13.944215242640787
 30
5.0
 11
134.74686739104533
 21
23.347739002438114
 31
5.0
  0
LINE
  5
3D
330
17
100
AcDbEntity
  8
0
100
AcDbLine
 10
134.74686739104533
 20
23.347739002438114
 30
5.0
 11
115.46484546759882
 21
16.371861850504622
 31
5.0
  0
ARC
  5
3E
330
17
100
AcDbEntity
  8
0
100
AcDbCircle
 10
94.13202053210743
 20
3.3368865811887045
 30
5.0
 40
25.0
100
AcDbArc
 50
31.426141241170583
 51
48.144293508904475
  0
LINE
  5
3F
330
17
100
AcDbEntity
  8
0
100
AcDbLine
 10
110.81344435341211
 20
21.95757666759516
 30
5.0
 11
121.1646273160887
 21
39.65820498323256
 31
5.0
  0
LINE
  5
40
330
17
100
AcDbEntity
  8
0
100
AcDbLine
 10
121.1646273160887
 20
39.658204983232565
 30
5.0
 11
112.53232311115269
 21
44.70630602356884
 31
5.0
  0
LINE
  5
41
330
17
100
AcDbEntity
  8
0
100
AcDbLine
 10
112.53232311115269
 20
44.70630602356884
 30
5.0
 11
102.18114014847635
 21
27.005677707931856
 31
5.0
  0
ARC
  5
42
330
17
100
AcDbEntity
  8
0
100
AcDbCircle
 10
94.13202053210743
 20
3.3368865811887045
 30
5.0
 40
25.0
100
AcDbArc
 50
71.21821157453587
 51
141.0171788387627
  0
LINE
  5
43
330
17
100
AcDbEntity
  8
0
100
AcDbLine
 10
74.69865518322477
 20
19.064070411005204
 30
5.0
 11
-12.79089651237409
 21
64.50323036186195
 31
5.0
  0
LINE
  5
44
330
17
100
AcDbEntity
  8
0
100
AcDbLine
 10
-12.790896512374092
 20
64.50323036186195
 30
5.0
 11
-6.341981564071725
 21
70.5522337062711
 31
5.0
  0
ARC
  5
45
330
17
100
AcDbEntity
  8
0
100
AcDbCircle
 10
8.102956490249063
 20
90.95673724364792
 30
5.0
 40
25.0
100
AcDbArc
 50
234.70421928028296
 51
330.02189820337867
  0
LINE
  5
46
330
17
100
AcDbEntity
  8
0
100
AcDbLine
 10
163.67018084579234
 20
33.811656235196686
 30
5.0
 11
29.758367450315973
 21
78.46501293710685
 31
5.0
  0
LINE
  5
47
330
17
100
AcDbEntity
  8
0
100
AcDbLine
 10
163.67018084579234
 20
33.81165623519668
 30
5.0
 11
144.15039115084264
 21
26.749759122738276
 31
5.0
  0
LINE
  5
48
330
17
100
AcDbEntity
  8
0
100
AcDbLine
 10
144.15039115084264
 20
26.749759122738276
 30
5.0
 11
147.5524112711428
 21
17.34623536294095
 31
5.0
  0
LINE
  5
49
330
17
100
AcDbEntity
  8
0
100
AcDbLine
 10
147.5524112711428
 20
17.346235362940952
 30
5.0
 11
179.45707238978503
 21
28.88874876850272
 31
5.0
  0
LINE
  5
4A
330
17
100
AcDbEntity
  8
0
100
AcDbLine
 10
179.45707238978503
 20
28.88874876850272
 30
5.0
 11
220.63127877739876
 21
23.509554989236157
 31
5.0
  0
LINE
  5
4B
330
17
100
AcDbEntity
  8
0
100
AcDbLine
 10
220.63127877739876
 20
23.509554989236157
 30
5.0
 11
221.92671771465618
 21
33.42529187359515
 31
5.0
  0
LINE
  5
4C
330
17
100
AcDbEntity
  8
0
100
AcDbLine
 10
221.92671771465618
 20
33.42529187359515
 30
5.0
 11
183.8992910657662
 21
38.39337540981506
 31
5.0
  0
LINE
  5
4D
330
17
100
AcDbEntity
  8
0
100
AcDbLine
 10
183.8992910657662
 20
38.39337540981506
 30
5.0
 11
183.8992910657662
 21
39.00410955682884
 31
5.0
  0
LINE
  5
4E
330
17
100
AcDbEntity
  8
0
100
AcDbLine
 10
179.71095674777766
 20
39.00410955682884
 30
5.0
 11
183.8992910657662
 21
39.00410955682884
 31
5.0
  0
LINE
  5
4F
330
17
100
AcDbEntity
  8
0
100
AcDbLine
 10
130.39815609487556
 20
55.44763325866376
 30
5.0
 11
179.71095674777766
 21
39.00410955682886
 31
5.0
  0
LINE
  5
50
330
17
100
AcDbEntity
  8
0
100
AcDbLine
 10
130.39815609487556
 20
55.44763325866375
 30
5.0
 11
194.35389112161852
 21
164.8125916835745
 31
5.0
  0
LINE
  5
51
330
17
100
AcDbEntity
  8
0
100
AcDbLine
 10
194.3538911216185
 20
164.81259168357448
 30
5.0
 11
245.70012916423488
 21
67.63572002093201
 31
5.0
  0
LINE
  5
52
330
17
100
AcDbEntity
  8
0
100
AcDbLine
 10
245.7001291642349
 20
67.63572002093203
 30
5.0
 11
254.54178064185
 21
72.30746478583374
 31
5.0
  0
LINE
  5
53
330
17
100
AcDbEntity
  8
0
100
AcDbLine
 10
254.54178064184998
 20
72.30746478583374
 30
5.0
 11
201.5902625015362
 21
172.52245772051685
 31
5.0
  0
LINE
  5
54
330
17
100
AcDbEntity
  8
0
100
AcDbLine
 10
201.5902625015362
 20
172.52245772051685
 30
5.0
 11
266.9542443814628
 21
198.73927753762823
 31
5.0
  0
ARC
  5
55
330
17
100
AcDbEntity
  8
0
100
AcDbCircle
 10
287.82732106883265
 20
212.4984442857705
 30
5.0
 40
25.0
100
AcDbArc
 50
213.39217169425254
 51
254.86744225960967
  0
LINE
  5
56
330
17
100
AcDbEntity
  8
0
100
AcDbLine
 10
281.300993906388
 20
188.3653331359676
 30
5.0
 11
280.0150398998649
 21
167.90059385621512
 31
5.0
  0
LINE
  5
57
330
17
100
AcDbEntity
  8
0
100
AcDbLine
 10
280.015039899865
 20
167.90059385621512
 30
5.0
 11
289.9953553885227
 21
167.2734553174065
 31
5.0
  0
LINE
  5
58
330
17
100
AcDbEntity
  8
0
100
AcDbLine
 10
289.9953553885227
 20
167.27345531740647
 30
5.0
 11
291.28130939504575
 21
187.73819459715912
 31
5.0
  0
ARC
  5
59
330
17
100
AcDbEntity
  8
0
100
AcDbCircle
 10
287.82732106883265
 20
212.4984442857705
 30
5.0
 40
25.0
100
AcDbArc
 50
-82.05863967475898
 51
26.478432968863757
  0
LINE
  5
5A
330
17
100
AcDbEntity
  8
0
100
AcDbLine
 10
310.2048774203463
 20
223.6449671397737
 30
5.0
 11
326.35972678848015
 21
236.27350915332607
 31
5.0
  0
LINE
  5
5B
330
17
100
AcDbEntity
  8
0
100
AcDbLine
 10
326.35972678848015
 20
236.27350915332607
 30
5.0
 11
320.2009953365863
 21
244.15196248525953
 31
5.0
  0
LINE
  5
5C
330
17
100
AcDbEntity
  8
0
100
AcDbLine
 10
320.2009953365863
 20
244.15196248525953
 30
5.0
 11
304.0461459684524
 21
231.5234204717071
 31
5.0
  0
ARC
  5
5D
330
17
100
AcDbEntity
  8
0
100
AcDbCircle
 10
287.82732106883265
 20
212.4984442857705
 30
5.0
 40
25.0
100
AcDbArc
 50
49.55235103449919
 51
158.08942367812023
  0
LINE
  5
5E
330
17
100
AcDbEntity
  8
0
100
AcDbLine
 10
264.6331363771974
 20
221.82742046165902
 30
5.0
 11
244.46320017817436
 21
225.5196968898932
 31
5.0
  0
LINE
  5
5F
330
17
100
AcDbEntity
  8
0
100
AcDbLine
 10
244.46320017817433
 20
225.5196968898932
 30
5.0
 11
242.66253792094395
 21
215.6831519967213
 31
5.0
  0
LINE
  5
60
330
17
100
AcDbEntity
  8
0
100
AcDbLine
 10
242.66253792094395
 20
215.6831519967213
 30
5.0
 11
262.83247411996655
 21
211.9908755684872
 31
5.0
  0
ARC
  5
61
330
17
100
AcDbEntity
  8
0
100
AcDbCircle
 10
287.82732106883265
 20
212.4984442857705
 30
5.0
 40
25.0
100
AcDbArc
 50
181.16334174375228
 51
190.31825362862278
  0
LINE
  5
62
330
17
100
AcDbEntity
  8
0
100
AcDbLine
 10
195.9491926620193
 20
181.03426412174795
 30
5.0
 11
263.23162046544155
 21
208.02055283684587
 31
5.0
  0
LINE
  5
63
330
17
100
AcDbEntity
  8
0
100
AcDbLine
 10
195.9491926620193
 20
181.03426412174795
 30
5.0
 11
149.19406783678411
 21
232.79334141276766
 31
5.0
  0
LINE
  5
64
330
17
100
AcDbEntity
  8
0
100
AcDbLine
 10
149.19406783678411
 20
232.79334141276766
 30
5.0
 11
232.82599302777203
 21
217.4838142539517
 31
5.0
  0
LINE
  5
65
330
17
100
AcDbEntity
  8
0
100
AcDbLine
 10
232.82599302777203
 20
217.4838142539517
 30
5.0
 11
234.6266552850024
 21
227.32035914712358
 31
5.0
  0
LINE
  5
66
330
17
100
AcDbEntity
  8
0
100
AcDbLine
 10
234.6266552850024
 20
227.32035914712358
 30
5.0
 11
138.19131640145133
 21
244.97365884500547
 31
5.0
  0
LINE
  5
67
330
17
100
AcDbEntity
  8
0
100
AcDbLine
 10
138.19131640145133
 20
244.97365884500547
 30
5.0
 11
95.39239361409398
 21
292.35312282469704
 31
5.0
  0
LINE
  5
68
330
17
100
AcDbEntity
  8
0
100
AcDbLine
 10
95.39239361409398
 20
292.35312282469704
 30
5.0
 11
87.9717230944238
 21
285.64986622521513
 31
5.0
  0
LINE
  5
69
330
17
100
AcDbEntity
  8
0
100
AcDbLine
 10
87.9717230944238
 20
285.64986622521513
 30
5.0
 11
122.04557338298673
 21
247.9292728724951
 31
5.0
  0
LINE
  5
6A
330
17
100
AcDbEntity
  8
0
100
AcDbLine
 10
122.04557338298673
 20
247.9292728724951
 30
5.0
 11
93.68738411918861
 21
253.1204778784483
 31
5.0
  0
LINE
  5
6B
330
17
100
AcDbEntity
  8
0
100
AcDbLine
 10
93.6873841191886
 20
253.1204778784483
 30
5.0
 11
93.6873841191886
 21
253.9526842924803
 31
5.0
  0
LINE
  5
6C
330
17
100
AcDbEntity
  8
0
100
AcDbLine
 10
92.01385786255075
 20
253.9526842924803
 30
5.0
 11
93.6873841191886
 21
253.9526842924803
 31
5.0
  0
LINE
  5
6D
330
17
100
AcDbEntity
  8
0
100
AcDbLine
 10
92.01385786255075
 20
253.9526842924803
 30
5.0
 11
70.74939027573095
 21
304.71541377377514
 31
5.0
  0
LINE
  5
6E
330
17
100
AcDbEntity
  8
0
100
AcDbLine
 10
70.74939027573095
 20
304.71541377377514
 30
5.0
 11
81.2684664949418
 21
293.0705367448852
 31
5.0
  0
LINE
  5
6F
330
17
100
AcDbEntity
  8
0
100
AcDbLine
 10
81.2684664949418
 20
293.07053674488526
 30
5.0
 11
88.68913701461199
 21
299.77379334436716
 31
5.0
  0
LINE
  5
70
330
17
100
AcDbEntity
  8
0
100
AcDbLine
 10
88.68913701461199
 20
299.77379334436716
 30
5.0
 11
74.94404060061791
 21
314.9899543603774
 31
5.0
  0
ARC
  5
71
330
17
100
AcDbEntity
  8
0
100
AcDbCircle
 10
54.814147057108265
 20
329.81518238314203
 30
5.0
 40
25.0
100
AcDbArc
 50
-36.37083659793069
 51
76.49238791908368
  0
LINE
  5
72
330
17
100
AcDbEntity
  8
0
100
AcDbLine
 10
60.6535107284037
 20
354.12365481384734
 30
5.0
 11
61.35863205984301
 21
374.61663008351195
 31
5.0
  0
LINE
  5
73
330
17
100
AcDbEntity
  8
0
100
AcDbLine
 10
61.35863205984301
 20
374.61663008351195
 30
5.0
 11
51.364546345060965
 21
374.9605061158106
 31
5.0
  0
LINE
  5
74
330
17
100
AcDbEntity
  8
0
100
AcDbLine
 10
51.364546345060965
 20
374.9605061158105
 30
5.0
 11
50.65942501362165
 21
354.46753084614585
 31
5.0
  0
ARC
  5
75
330
17
100
AcDbEntity
  8
0
100
AcDbCircle
 10
54.814147057108265
 20
329.81518238314203
 30
5.0
 40
25.0
100
AcDbArc
 50
99.56630598471403
 51
212.42953050172918
  0
LINE
  5
76
330
17
100
AcDbEntity
  8
0
100
AcDbLine
 10
33.71285591119367
 20
316.40863502838465
 30
5.0
 11
18.95439116104776
 21
302.1732232073717
 31
5.0
  0
LINE
  5
77
330
17
100
AcDbEntity
  8
0
100
AcDbLine
 10
18.95439116104776
 20
302.1732232073717
 30
5.0
 11
25.89676648977931
 21
294.9757636003284
 31
5.0
  0
LINE
  5
78
330
17
100
AcDbEntity
  8
0
100
AcDbLine
 10
25.896766489779314
 20
294.97576360032843
 30
5.0
 11
40.65523123992505
 21
309.21117542134124
 31
5.0
  0
ARC
  5
79
330
17
100
AcDbEntity
  8
0
100
AcDbCircle
 10
54.814147057108265
 20
329.81518238314203
 30
5.0
 40
25.0
100
AcDbArc
 50
235.50344856735728
 51
281.1918126873252
  0
LINE
  5
7A
330
17
100
AcDbEntity
  8
0
100
AcDbLine
 10
81.89381907554555
 20
252.22935602406875
 30
5.0
 11
59.666501434561724
 21
305.2906098691184
 31
5.0
  0
LINE
  5
7B
330
17
100
AcDbEntity
  8
0
100
AcDbLine
 10
81.89381907554555
 20
252.22935602406878
 30
5.0
 11
-26.19483107136392
 21
221.69764481399181
 31
5.0
  0
LINE
  5
7C
330
17
100
AcDbEntity
  8
0
100
AcDbLine
 10
-26.19483107136395
 20
221.6976448139918
 30
5.0
 11
-23.476504457958885
 21
212.0741994630349
 31
5.0
  0
LINE
  5
7D
330
17
100
AcDbEntity
  8
0
100
AcDbLine
 10
-23.476504457958896
 20
212.07419946303492
 30
5.0
 11
79.03378748876082
 21
241.03019646664274
 31
5.0
  0
LINE
  5
7E
330
17
100
AcDbEntity
  8
0
100
AcDbLine
 10
79.03378748876088
 20
241.0301964666427
 30
5.0
 11
28.6383861475708
 21
142.2236479052939
 31
5.0
  0
LINE
  5
7F
330
17
100
AcDbEntity
  8
0
100
AcDbLine
 10
28.6383861475708
 20
142.2236479052939
 30
5.0
 11
37.54659250200987
 21
137.68009648083182
 31
5.0
  0
LINE
  5
80
330
17
100
AcDbEntity
  8
0
100
AcDbLine
 10
37.54659250200987
 20
137.68009648083182
 30
5.0
 11
91.44969420406072
 21
243.36393457297703
 31
5.0
  0
LINE
  5
81
330
17
100
AcDbEntity
  8
0
100
AcDbLine
 10
91.4496942040607
 20
243.363934572977
 30
5.0
 11
133.0483248183195
 21
235.7489554402573
 31
5.0
  0
LINE
  5
82
330
17
100
AcDbEntity
  8
0
100
AcDbLine
 10
133.0483248183195
 20
235.7489554402573
 30
5.0
 11
188.4115292589202
 21
174.46052153208916
 31
5.0
  0
LINE
  5
83
330
17
100
AcDbEntity
  8
0
100
AcDbLine
 10
188.4115292589202
 20
174.46052153208916
 30
5.0
 11
120.70411076377555
 21
58.68014615710173
 31
5.0
  0
LINE
  5
84
330
17
100
AcDbEntity
  8
0
100
AcDbLine
 10
120.70411076377556
 20
58.68014615710173
 30
5.0
 11
32.92167066287813
 21
87.95150400522016
 31
5.0
  0
ARC
  5
85
330
17
100
AcDbEntity
  8
0
100
AcDbCircle
 10
8.102956490249063
 20
90.95673724364792
 30
5.0
 40
25.0
100
AcDbArc
 50
-6.904183730993566
 51
51.43959033369734
  0
LINE
  5
86
330
17
100
AcDbEntity
  8
0
100
AcDbLine
 10
23.686442277496422
 20
110.50552162321154
 30
5.0
 11
33.003041077547884
 21
128.77189012639275
 31
5.0
  0
LINE
  5
87
330
17
100
AcDbEntity
  8
0
100
AcDbLine
 10
33.003041077547884
 20
128.77189012639275
 30
5.0
 11
24.094834723108807
 21
133.3154415508548
 31
5.0
  0
LINE
  5
88
330
17
100
AcDbEntity
  8
0
100
AcDbLine
 10
24.094834723108804
 20
133.3154415508548
 30
5.0
 11
14.778235923057117
 21
115.04907304767316
 31
5.0
  0
ARC
  5
89
330
17
100
AcDbEntity
  8
0
100
AcDbCircle
 10
8.102956490249063
 20
90.95673724364792
 30
5.0
 40
25.0
100
AcDbArc
 50
74.51350839932864
 51
165.19478782519425
  0
LINE
  5
8A
330
17
100
AcDbEntity
  8
0
100
AcDbLine
 10
-16.06704717981748
 20
97.3450799543181
 30
5.0
 11
-36.53879940940017
 21
98.51409327576215
 31
5.0
  0
LINE
  5
8B
330
17
100
AcDbEntity
  8
0
100
AcDbLine
 10
-36.53879940940017
 20
98.51409327576215
 30
5.0
 11
-37.10890790670209
 21
88.530357687251
 31
5.0
  0
LINE
  5
8C
330
17
100
AcDbEntity
  8
0
100
AcDbLine
 10
-37.108907906702086
 20
88.53035768725098
 30
5.0
 11
-16.63715567711927
 21
87.36134436580691
 31
5.0
  0
ARC
  5
8D
330
17
100
AcDbEntity
  8
0
100
AcDbCircle
 10
8.102956490249063
 20
90.95673724364792
 30
5.0
 40
25.0
100
AcDbArc
 50
188.26870589082534
 51
211.63030121464922
  0
LINE
  5
8E
330
17
100
AcDbEntity
  8
0
100
AcDbLine
 10
-13.183286059148136
 20
77.84583040513286
 30
5.0
 11
-22.1988044093983
 21
69.38938446198995
 31
5.0
  0
LINE
  5
8F
330
17
100
AcDbEntity
  8
0
100
AcDbLine
 10
-61.764055548654106
 20
89.93825847231241
 30
5.0
 11
-22.198804409398285
 21
69.38938446198995
 31
5.0
  0
LINE
  5
90
330
17
100
AcDbEntity
  8
0
100
AcDbLine
 10
-61.764055548654106
 20
89.9382584723124
 30
5.0
 11
-47.09264349521323
 21
89.10046618455291
 31
5.0
  0
LINE
  5
91
330
17
100
AcDbEntity
  8
0
100
AcDbLine
 10
-47.092643495213224
 20
89.10046618455293
 30
5.0
 11
-46.5225349979113
 21
99.08420177306408
 31
5.0
  0
LINE
  5
92
330
17
100
AcDbEntity
  8
0
100
AcDbLine
 10
-46.52253499791131
 20
99.08420177306408
 30
5.0
 11
-79.46260723108617
 21
100.96520261842727
 31
5.0
  0
LINE
  5
93
330
17
100
AcDbEntity
  8
0
100
AcDbLine
 10
-79.46260723108617
 20
100.96520261842727
 30
5.0
 11
-76.42209011440438
 21
146.72464106271036
 31
5.0
  0
LINE
  5
94
330
17
100
AcDbEntity
  8
0
100
AcDbLine
 10
-76.42209011440437
 20
146.72464106271036
 30
5.0
 11
-85.93135673410669
 21
147.35649077300565
 31
5.0
  0
LINE
  5
95
330
17
100
AcDbEntity
  8
0
100
AcDbLine
 10
-85.93135673410669
 20
147.35649077300565
 30
5.0
 11
-95.20907526446845
 21
149.53578528553976
 31
5.0
  0
LINE
  5
96
330
17
100
AcDbEntity
  8
0
100
AcDbLine
 10
-95.20907526446845
 20
149.53578528553976
 30
5.0
 11
-139.42679680571933
 21
-38.708425010115036
 31
5.0
  0
LINE
  5
97
330
17
100
AcDbEntity
  8
0
100
AcDbLine
 10
-140.4651866281579
 20
-38.70842501011499
 30
5.0
 11
-139.42679680571933
 21
-38.70842501011499
 31
5.0
  0
LINE
  5
98
330
17
100
AcDbEntity
  8
0
100
AcDbLine
 10
-140.4651866281579
 20
-42.81702480888264
 30
5.0
 11
-140.4651866281579
 21
-38.70842501011499
 31
5.0
  0
LINE
  5
99
330
17
100
AcDbEntity
  8
0
100
AcDbLine
 10
-140.4651866281579
 20
-42.81702480888264
 30
5.0
 11
-203.7412365312465
 21
-214.6391150094871
 31
5.0
  0
ARC
  5
9A
330
17
100
AcDbEntity
  8
0
100
AcDbCircle
 10
-207.51414085975156
 20
-239.35277910301926
 30
5.0
 40
25.0
100
AcDbArc
 50
81.31997614611133
 51
145.16362247414375
  0
LINE
  5
9B
330
17
100
AcDbEntity
  8
0
100
AcDbLine
 10
-228.03380819152125
 20
-225.0719089406833
 30
5.0
 11
-246.86672776424558
 21
-216.961398977528
 31
5.0
  0
LINE
  5
9C
330
17
100
AcDbEntity
  8
0
100
AcDbLine
 10
-246.86672776424558
 20
-216.96139897752798
 30
5.0
 11
-250.82208957460966
 21
-226.14590293523378
 31
5.0
  0
LINE
  5
9D
330
17
100
AcDbEntity
  8
0
100
AcDbLine
 10
-250.82208957460966
 20
-226.14590293523378
 30
5.0
 11
-231.9891700018855
 21
-234.25641289838902
 31
5.0
  0
ARC
  5
9E
330
17
100
AcDbEntity
  8
0
100
AcDbCircle
 10
-207.51414085975156
 20
-239.35277910301926
 30
5.0
 40
25.0
100
AcDbArc
 50
168.2375405397751
 51
232.0811868678099
  0
LINE
  5
9F
330
17
100
AcDbEntity
  8
0
100
AcDbLine
 10
-222.87774744991677
 20
-259.07483763002494
 30
5.0
 11
-231.98922012254494
 21
-277.4443857254759
 31
5.0
  0
LINE
  5
A0
330
17
100
AcDbEntity
  8
0
100
AcDbLine
 10
-231.98922012254494
 20
-277.4443857254759
 30
5.0
 11
-223.03069478437658
 21
-281.88790052407796
 31
5.0
  0
LINE
  5
A1
330
17
100
AcDbEntity
  8
0
100
AcDbLine
 10
-223.03069478437655
 20
-281.88790052407796
 30
5.0
 11
-213.9192221117483
 21
-263.5183524286269
 31
5.0
  0
ARC
  5
A2
330
17
100
AcDbEntity
  8
0
100
AcDbCircle
 10
-207.51414085975156
 20
-239.35277910301926
 30
5.0
 40
25.0
100
AcDbArc
 50
255.1551049334404
 51
318.99875126147515
  0
LINE
  5
A3
330
17
100
AcDbEntity
  8
0
100
AcDbLine
 10
-188.64675882224589
 20
-255.75466603869882
 30
5.0
 11
-170.79373626899584
 21
-265.8407364929579
 31
5.0
  0
LINE
  5
A4
330
17
100
AcDbEntity
  8
0
100
AcDbLine
 10
-170.79373626899581
 20
-265.8407364929579
 30
5.0
 11
-165.87492622219844
 21
-257.1341121342569
 31
5.0
  0
LINE
  5
A5
330
17
100
AcDbEntity
  8
0
100
AcDbLine
 10
-165.87492622219847
 20
-257.13411213425695
 30
5.0
 11
-183.72794877544888
 21
-247.04804167999768
 31
5.0
  0
ARC
  5
A6
330
17
100
AcDbEntity
  8
0
100
AcDbCircle
 10
-207.51414085975156
 20
-239.35277910301926
 30
5.0
 40
25.0
100
AcDbArc
 50
-17.927330672893305
 51
58.246058080477525
  0
LINE
  5
A7
330
17
100
AcDbEntity
  8
0
100
AcDbLine
 10
-135.99120348458655
 20
-59.60537262161695
 30
5.0
 11
-194.35733020493558
 21
-218.09487860947792
 31
5.0
  0
LINE
  5
A8
330
17
100
AcDbEntity
  8
0
100
AcDbLine
 10
-135.99120348458655
 20
-59.60537262161695
 30
5.0
 11
-98.7098011330699
 21
-186.05972164064616
 31
5.0
  0
LINE
  5
A9
330
17
100
AcDbEntity
  8
0
100
AcDbLine
 10
-98.7098011330699
 20
-186.05972164064616
 30
5.0
 11
-89.1179744893631
 21
-183.23184935974723
 31
5.0
  0
LINE
  5
AA
330
17
100
AcDbEntity
  8
0
100
AcDbLine
 10
-89.1179744893631
 20
-183.23184935974723
 30
5.0
 11
-129.79840392273667
 21
-45.24838046261942
 31
5.0
  0
LINE
  5
AB
330
17
100
AcDbEntity
  8
0
100
AcDbLine
 10
-129.79840392273667
 20
-45.24838046261942
 30
5.0
 11
-28.591173105952436
 21
49.682764171296775
 31
5.0
  0
LINE
  5
AC
330
17
100
AcDbEntity
  8
0
100
AcDbLine
 10
-28.59117310595245
 20
49.68276417129677
 30
5.0
 11
-35.43247760102885
 21
56.976360870158544
 31
5.0
  0
LINE
  5
AD
330
17
100
AcDbEntity
  8
0
100
AcDbLine
 10
-35.43247760102885
 20
56.97636087015856
 30
5.0
 11
-126.81233849838333
 21
-28.73683097853366
 31
5.0
  0
LINE
  5
AE
330
17
100
AcDbEntity
  8
0
100
AcDbLine
 10
-126.81233849838333
 20
-28.73683097853366
 30
5.0
 11
-86.77821022055261
 21
141.6969362951745
 31
5.0
  0
LINE
  5
AF
330
17
100
AcDbEntity
  8
0
100
AcDbLine
 10
-86.77821022055275
 20
141.69693629517448
 30
5.0
 11
-89.46499999476745
 21
101.26105431596639
 31
5.0
  0
LINE
  5
B0
330
17
100
AcDbEntity
  8
0
100
AcDbLine
 10
-89.78620299127995
 20
101.26105431596639
 30
0.0
 11
-89.46499999476745
 21
101.26105431596639
 31
0.0
  0
LINE
  5
B1
330
17
100
AcDbEntity
  8
0
100
AcDbLine
 10
-89.46499999476745
 20
101.26105431596639
 30
0.0
 11
-89.46499999476745
 21
101.26105431596639
 31
5.0
  0
LINE
  5
B2
330
17
100
AcDbEntity
  8
0
100
AcDbLine
 10
-89.78620299127995
 20
101.26105431596639
 30
0.0
 11
-89.78620299127995
 21
101.26105431596639
 31
5.0
  0
LINE
  5
B3
330
17
100
AcDbEntity
  8
0
100
AcDbLine
 10
-89.78620299127995
 20
91.26105431596639
 30
0.0
 11
-89.78620299127995
 21
91.26105431596639
 31
5.0
  0
LINE
  5
B4
330
17
100
AcDbEntity
  8
0
100
AcDbLine
 10
-89.78620299127995
 20
91.26105431596639
 30
0.0
 11
-89.78620299127995
 21
101.26105431596639
 31
0.0
  0
LINE
  5
B5
330
17
100
AcDbEntity
  8
0
100
AcDbLine
 10
-86.77821022055277
 20
141.69693629517428
 30
0.0
 11
-89.46499999476745
 21
101.26105431596639
 31
0.0
  0
LINE
  5
B6
330
17
100
AcDbEntity
  8
0
100
AcDbLine
 10
-86.77821022055282
 20
141.69693629517351
 30
5.0
 11
-86.77821022055282
 21
141.69693629517351
 31
0.0
  0
LINE
  5
B7
330
17
100
AcDbEntity
  8
0
100
AcDbLine
 10
-89.78620299127995
 20
91.26105431596639
 30
0.0
 11
-86.00719184353
 21
91.26105431596639
 31
0.0
  0
LINE
  5
B8
330
17
100
AcDbEntity
  8
0
100
AcDbLine
 10
-86.00719184352992
 20
91.26105431596639
 30
0.0
 11
-86.00719184352992
 21
91.26105431596639
 31
5.0
  0
LINE
  5
B9
330
17
100
AcDbEntity
  8
0
100
AcDbLine
 10
-126.81233849838331
 20
-28.736830978533632
 30
0.0
 11
-86.77821022055271
 21
141.69693629517428
 31
0.0
  0
LINE
  5
BA
330
17
100
AcDbEntity
  8
0
100
AcDbLine
 10
-126.81233849838335
 20
-28.736830978533657
 30
5.0
 11
-126.81233849838335
 21
-28.736830978533657
 31
0.0
  0
LINE
  5
BB
330
17
100
AcDbEntity
  8
0
100
AcDbLine
 10
-29.930816167572036
 20
62.13685200356202
 30
0.0
 11
-86.00719184353
 21
91.26105431596635
 31
0.0
  0
LINE
  5
BC
330
17
100
AcDbEntity
  8
0
100
AcDbLine
 10
-29.93081616757201
 20
62.13685200356201
 30
0.0
 11
-29.93081616757201
 21
62.13685200356201
 31
2.5
  0
LINE
  5
BD
330
17
100
AcDbEntity
  8
0
100
AcDbLine
 10
-23.362461305435822
 20
58.72546719920247
 30
2.5
 11
-29.93081616757201
 21
62.136852003562005
 31
2.5
  0
LINE
  5
BE
330
17
100
AcDbEntity
  8
0
100
AcDbLine
 10
-23.36246130543579
 20
58.725467199202456
 30
2.5
 11
-23.36246130543579
 21
58.725467199202456
 31
5.0
  0
LINE
  5
BF
330
17
100
AcDbEntity
  8
0
100
AcDbLine
 10
-35.43247760102885
 20
56.97636087015856
 30
2.5
 11
-35.43247760102885
 21
56.97636087015856
 31
5.0
  0
LINE
  5
C0
330
17
100
AcDbEntity
  8
0
100
AcDbLine
 10
-29.93081616757201
 20
62.136852003562005
 30
2.5
 11
-35.432477601028864
 21
56.97636087015856
 31
2.5
  0
LINE
  5
C1
330
17
100
AcDbEntity
  8
0
100
AcDbLine
 10
-126.81233849838331
 20
-28.73683097853363
 30
0.0
 11
-29.930816167572033
 21
62.13685200356202
 31
0.0
  0
LINE
  5
C2
330
17
100
AcDbEntity
  8
0
100
AcDbLine
 10
-21.297576407090723
 20
56.52406866637322
 30
2.5
 11
-21.297576407090723
 21
56.52406866637322
 31
5.0
  0
LINE
  5
C3
330
17
100
AcDbEntity
  8
0
100
AcDbLine
 10
-21.297576407090688
 20
56.52406866637317
 30
2.5
 11
-23.362461305435854
 21
58.72546719920249
 31
2.5
  0
LINE
  5
C4
330
17
100
AcDbEntity
  8
0
100
AcDbLine
 10
-35.43247760102885
 20
56.97636087015856
 30
2.5
 11
-28.591173105952446
 21
49.68276417129678
 31
2.5
  0
LINE
  5
C5
330
17
100
AcDbEntity
  8
0
100
AcDbLine
 10
-28.59117310595245
 20
49.68276417129677
 30
2.5
 11
-28.59117310595245
 21
49.68276417129677
 31
5.0
  0
LINE
  5
C6
330
17
100
AcDbEntity
  8
0
100
AcDbLine
 10
-129.79840392273667
 20
-45.24838046261942
 30
0.0
 11
-20.522908270547887
 21
57.25069790343399
 31
0.0
  0
LINE
  5
C7
330
17
100
AcDbEntity
  8
0
100
AcDbLine
 10
-20.522908270547788
 20
57.250697903433995
 30
5.0
 11
-20.522908270547788
 21
57.250697903433995
 31
0.0
  0
LINE
  5
C8
330
17
100
AcDbEntity
  8
0
100
AcDbLine
 10
-28.59117310595245
 20
49.68276417129677
 30
2.5
 11
-21.297576407090673
 21
56.52406866637317
 31
2.5
  0
LINE
  5
C9
330
17
100
AcDbEntity
  8
0
100
AcDbLine
 10
-129.79840392273667
 20
-45.24838046261937
 30
5.0
 11
-129.79840392273667
 21
-45.24838046261937
 31
0.0
  0
LINE
  5
CA
330
17
100
AcDbEntity
  8
0
100
AcDbLine
 10
-20.52290827054786
 20
57.25069790343403
 30
0.0
 11
70.08955233529505
 21
10.189603050244557
 31
0.0
  0
LINE
  5
CB
330
17
100
AcDbEntity
  8
0
100
AcDbLine
 10
70.08955233529512
 20
10.189603050244527
 30
5.0
 11
70.08955233529512
 21
10.189603050244527
 31
0.0
  0
LINE
  5
CC
330
17
100
AcDbEntity
  8
0
100
AcDbLine
 10
-129.79840392273667
 20
-45.24838046261942
 30
0.0
 11
-80.49152109038172
 21
-212.49181492182055
 31
0.0
  0
LINE
  5
CD
330
17
100
AcDbEntity
  8
0
100
AcDbLine
 10
-89.1179744893631
 20
-183.23184935974723
 30
2.5
 11
-89.1179744893631
 21
-183.23184935974723
 31
5.0
  0
LINE
  5
CE
330
17
100
AcDbEntity
  8
0
100
AcDbLine
 10
-86.29010220846419
 20
-192.823676003454
 30
2.5
 11
-89.11797448936312
 21
-183.23184935974723
 31
2.5
  0
LINE
  5
CF
330
17
100
AcDbEntity
  8
0
100
AcDbLine
 10
-86.29010220846416
 20
-192.823676003454
 30
2.5
 11
-86.29010220846416
 21
-192.823676003454
 31
5.0
  0
LINE
  5
D0
330
17
100
AcDbEntity
  8
0
100
AcDbLine
 10
-80.49152109038172
 20
-212.49181492182063
 30
5.0
 11
-86.29010220846416
 21
-192.823676003454
 31
5.0
  0
LINE
  5
D1
330
17
100
AcDbEntity
  8
0
100
AcDbLine
 10
-80.49152109038178
 20
-212.4918149218204
 30
5.0
 11
-80.49152109038178
 21
-212.4918149218204
 31
0.0
  0
LINE
  5
D2
330
17
100
AcDbEntity
  8
0
100
AcDbLine
 10
94.33433803980542
 20
-21.662294757928763
 30
5.0
 11
94.33433803980542
 21
-21.662294757928763
 31
0.0
  0
ARC
  5
D3
330
17
100
AcDbEntity
  8
0
100
AcDbCircle
 10
94.13202053210743
 20
3.3368865811887045
 30
0.0
 40
25.0
100
AcDbArc
 50
164.09109690439368
 51
270.4636826338354
  0
LINE
  5
D4
330
17
100
AcDbEntity
  8
0
100
AcDbLine
 10
-89.1179744893631
 20
-183.23184935974723
 30
2.5
 11
-98.7098011330699
 21
-186.05972164064616
 31
2.5
  0
LINE
  5
D5
330
17
100
AcDbEntity
  8
0
100
AcDbLine
 10
-98.7098011330699
 20
-186.05972164064616
 30
2.5
 11
-98.7098011330699
 21
-186.05972164064616
 31
5.0
  0
LINE
  5
D6
330
17
100
AcDbEntity
  8
0
100
AcDbLine
 10
128.8545156737498
 20
-184.05801892302097
 30
0.0
 11
128.8545156737498
 21
-184.05801892302097
 31
5.0
  0
LINE
  5
D7
330
17
100
AcDbEntity
  8
0
100
AcDbLine
 10
100.67703966088004
 20
-51.500716617747685
 30
5.0
 11
128.8545156737498
 21
-184.05801892302097
 31
5.0
  0
LINE
  5
D8
330
17
100
AcDbEntity
  8
0
100
AcDbLine
 10
100.67703966088004
 20
-51.500716617747685
 30
2.5
 11
100.67703966088004
 21
-51.500716617747685
 31
5.0
  0
LINE
  5
D9
330
17
100
AcDbEntity
  8
0
100
AcDbLine
 10
98.59781320816799
 20
-41.71926389546033
 30
2.5
 11
100.67703966088004
 21
-51.50071661774767
 31
2.5
  0
LINE
  5
DA
330
17
100
AcDbEntity
  8
0
100
AcDbLine
 10
98.59781320816793
 20
-41.719263895460365
 30
2.5
 11
98.59781320816793
 21
-41.719263895460365
 31
5.0
  0
LINE
  5
DB
330
17
100
AcDbEntity
  8
0
100
AcDbLine
 10
128.8545156737498
 20
-184.05801892302094
 30
0.0
 11
94.33433803980532
 21
-21.66229475792852
 31
0.0
  0
LINE
  5
DC
330
17
100
AcDbEntity
  8
0
100
AcDbLine
 10
-135.99120348458655
 20
-59.60537262161695
 30
0.0
 11
-90.08334773408862
 21
-215.3196872027192
 31
0.0
  0
LINE
  5
DD
330
17
100
AcDbEntity
  8
0
100
AcDbLine
 10
-90.08334773408859
 20
-215.31968720271934
 30
5.0
 11
-90.08334773408859
 21
-215.31968720271934
 31
0.0
  0
LINE
  5
DE
330
17
100
AcDbEntity
  8
0
100
AcDbLine
 10
-95.88192885217094
 20
-195.65154828435294
 30
5.0
 11
-90.0833477340886
 21
-215.3196872027192
 31
5.0
  0
LINE
  5
DF
330
17
100
AcDbEntity
  8
0
100
AcDbLine
 10
-95.88192885217094
 20
-195.65154828435294
 30
2.5
 11
-95.88192885217094
 21
-195.65154828435294
 31
5.0
  0
LINE
  5
E0
330
17
100
AcDbEntity
  8
0
100
AcDbLine
 10
-98.7098011330699
 20
-186.05972164064616
 30
2.5
 11
-95.88192885217097
 21
-195.65154828435294
 31
2.5
  0
LINE
  5
E1
330
17
100
AcDbEntity
  8
0
100
AcDbLine
 10
-135.99120348458658
 20
-59.60537262161695
 30
0.0
 11
-135.99120348458658
 21
-59.60537262161695
 31
5.0
  0
LINE
  5
E2
330
17
100
AcDbEntity
  8
0
100
AcDbLine
 10
108.37926593045535
 20
-39.64003744274831
 30
2.5
 11
98.597813208168
 21
-41.71926389546035
 31
2.5
  0
LINE
  5
E3
330
17
100
AcDbEntity
  8
0
100
AcDbLine
 10
108.37926593045528
 20
-39.64003744274833
 30
2.5
 11
108.37926593045528
 21
-39.64003744274833
 31
5.0
  0
LINE
  5
E4
330
17
100
AcDbEntity
  8
0
100
AcDbLine
 10
-194.3573302049356
 20
-218.09487860947792
 30
0.0
 11
-135.99120348458655
 21
-59.605372621616965
 31
0.0
  0
LINE
  5
E5
330
17
100
AcDbEntity
  8
0
100
AcDbLine
 10
-194.3573302049355
 20
-218.0948786094776
 30
5.0
 11
-194.3573302049355
 21
-218.0948786094776
 31
0.0
  0
LINE
  5
E6
330
17
100
AcDbEntity
  8
0
100
AcDbLine
 10
136.84442471294648
 20
-173.55070623987154
 30
0.0
 11
104.11579076209273
 21
-19.583068305216756
 31
0.0
  0
LINE
  5
E7
330
17
100
AcDbEntity
  8
0
100
AcDbLine
 10
104.11579076209276
 20
-19.5830683052167
 30
5.0
 11
104.11579076209276
 21
-19.5830683052167
 31
0.0
  0
LINE
  5
E8
330
17
100
AcDbEntity
  8
0
100
AcDbLine
 10
110.45849238316738
 20
-49.421490165035664
 30
2.5
 11
108.37926593045535
 21
-39.64003744274832
 31
2.5
  0
LINE
  5
E9
330
17
100
AcDbEntity
  8
0
100
AcDbLine
 10
110.45849238316738
 20
-49.421490165035664
 30
2.5
 11
110.45849238316738
 21
-49.421490165035664
 31
5.0
  0
LINE
  5
EA
330
17
100
AcDbEntity
  8
0
100
AcDbLine
 10
136.8444247129465
 20
-173.55070623987157
 30
5.0
 11
110.45849238316737
 21
-49.421490165035635
 31
5.0
  0
LINE
  5
EB
330
17
100
AcDbEntity
  8
0
100
AcDbLine
 10
136.84442471294648
 20
-173.55070623987163
 30
0.0
 11
136.84442471294648
 21
-173.55070623987163
 31
5.0
  0
ARC
  5
EC
330
17
100
AcDbEntity
  8
0
100
AcDbCircle
 10
-207.51414085975156
 20
-239.35277910301926
 30
0.0
 40
25.0
100
AcDbArc
 50
-17.927330672893213
 51
58.246058080477624
  0
LINE
  5
ED
330
17
100
AcDbEntity
  8
0
100
AcDbLine
 10
-183.72794877544865
 20
-247.04804167999774
 30
5.0
 11
-183.72794877544865
 21
-247.04804167999774
 31
0.0
  0
ARC
  5
EE
330
17
100
AcDbEntity
  8
0
100
AcDbCircle
 10
94.13202053210743
 20
3.3368865811887045
 30
0.0
 40
25.0
100
AcDbArc
 50
-66.46239930053287
 51
8.352223175540551
  0
LINE
  5
EF
330
17
100
AcDbEntity
  8
0
100
AcDbLine
 10
118.86686558789897
 20
6.9683380907072845
 30
5.0
 11
118.86686558789897
 21
6.9683380907072845
 31
0.0
  0
LINE
  5
F0
330
17
100
AcDbEntity
  8
0
100
AcDbLine
 10
-64.71769961168593
 20
-314.2829176940943
 30
0.0
 11
-183.72794877544894
 21
-247.0480416799976
 31
0.0
  0
LINE
  5
F1
330
17
100
AcDbEntity
  8
0
100
AcDbLine
 10
-165.87492622219847
 20
-257.13411213425695
 30
2.5
 11
-165.87492622219847
 21
-257.13411213425695
 31
5.0
  0
LINE
  5
F2
330
17
100
AcDbEntity
  8
0
100
AcDbLine
 10
-157.1683018634975
 20
-262.05292218105427
 30
2.5
 11
-165.8749262221985
 21
-257.1341121342569
 31
2.5
  0
LINE
  5
F3
330
17
100
AcDbEntity
  8
0
100
AcDbLine
 10
-157.1683018634975
 20
-262.05292218105427
 30
2.5
 11
-157.1683018634975
 21
-262.05292218105427
 31
5.0
  0
LINE
  5
F4
330
17
100
AcDbEntity
  8
0
100
AcDbLine
 10
-64.71769961168593
 20
-314.28291769409435
 30
5.0
 11
-157.1683018634975
 21
-262.05292218105427
 31
5.0
  0
LINE
  5
F5
330
17
100
AcDbEntity
  8
0
100
AcDbLine
 10
-64.71769961168583
 20
-314.2829176940943
 30
5.0
 11
-64.71769961168583
 21
-314.2829176940943
 31
0.0
  0
LINE
  5
F6
330
17
100
AcDbEntity
  8
0
100
AcDbLine
 10
179.45707238978503
 20
28.88874876850272
 30
0.0
 11
118.8668655878991
 21
6.968338090707341
 31
0.0
  0
LINE
  5
F7
330
17
100
AcDbEntity
  8
0
100
AcDbLine
 10
179.45707238978503
 20
28.888748768502715
 30
5.0
 11
179.45707238978503
 21
28.888748768502715
 31
0.0
  0
LINE
  5
F8
330
17
100
AcDbEntity
  8
0
100
AcDbLine
 10
147.5524112711428
 20
17.346235362940952
 30
2.5
 11
147.5524112711428
 21
17.346235362940952
 31
5.0
  0
LINE
  5
F9
330
17
100
AcDbEntity
  8
0
100
AcDbLine
 10
138.1488875113455
 20
13.944215242640787
 30
2.5
 11
147.55241127114283
 21
17.346235362940952
 31
2.5
  0
LINE
  5
FA
330
17
100
AcDbEntity
  8
0
100
AcDbLine
 10
138.1488875113455
 20
13.944215242640787
 30
2.5
 11
138.1488875113455
 21
13.944215242640787
 31
5.0
  0
LINE
  5
FB
330
17
100
AcDbEntity
  8
0
100
AcDbLine
 10
-165.8749262221985
 20
-257.13411213425695
 30
2.5
 11
-170.79373626899587
 21
-265.84073649295794
 31
2.5
  0
LINE
  5
FC
330
17
100
AcDbEntity
  8
0
100
AcDbLine
 10
-170.79373626899581
 20
-265.8407364929579
 30
2.5
 11
-170.79373626899581
 21
-265.8407364929579
 31
5.0
  0
LINE
  5
FD
330
17
100
AcDbEntity
  8
0
100
AcDbLine
 10
134.74686739104533
 20
23.34773900243811
 30
2.5
 11
138.1488875113455
 21
13.944215242640784
 31
2.5
  0
LINE
  5
FE
330
17
100
AcDbEntity
  8
0
100
AcDbLine
 10
134.74686739104533
 20
23.347739002438114
 30
2.5
 11
134.74686739104533
 21
23.347739002438114
 31
5.0
  0
LINE
  5
FF
330
17
100
AcDbEntity
  8
0
100
AcDbLine
 10
-170.79373626899587
 20
-265.84073649295794
 30
2.5
 11
-162.08711191029488
 21
-270.7595465397553
 31
2.5
  0
LINE
  5
100
330
17
100
AcDbEntity
  8
0
100
AcDbLine
 10
-188.64675882224606
 20
-255.7546660386988
 30
5.0
 11
-188.64675882224606
 21
-255.7546660386988
 31
0.0
  0
LINE
  5
101
330
17
100
AcDbEntity
  8
0
100
AcDbLine
 10
-69.63650965848298
 20
-322.9895420527955
 30
0.0
 11
-188.6467588222459
 21
-255.75466603869882
 31
0.0
  0
LINE
  5
102
330
17
100
AcDbEntity
  8
0
100
AcDbLine
 10
-69.63650965848322
 20
-322.98954205279534
 30
5.0
 11
-69.63650965848322
 21
-322.98954205279534
 31
0.0
  0
LINE
  5
103
330
17
100
AcDbEntity
  8
0
100
AcDbLine
 10
-162.08711191029488
 20
-270.75954653975526
 30
5.0
 11
-69.63650965848299
 21
-322.9895420527955
 31
5.0
  0
LINE
  5
104
330
17
100
AcDbEntity
  8
0
100
AcDbLine
 10
-162.08711191029488
 20
-270.75954653975526
 30
2.5
 11
-162.08711191029488
 21
-270.75954653975526
 31
5.0
  0
LINE
  5
105
330
17
100
AcDbEntity
  8
0
100
AcDbLine
 10
163.67018084579234
 20
33.81165623519668
 30
0.0
 11
115.46484546759882
 21
16.371861850504622
 31
0.0
  0
LINE
  5
106
330
17
100
AcDbEntity
  8
0
100
AcDbLine
 10
115.4648454675988
 20
16.371861850504615
 30
5.0
 11
115.4648454675988
 21
16.371861850504615
 31
0.0
  0
LINE
  5
107
330
17
100
AcDbEntity
  8
0
100
AcDbLine
 10
144.15039115084264
 20
26.749759122738276
 30
2.5
 11
134.7468673910453
 21
23.34773900243811
 31
2.5
  0
LINE
  5
108
330
17
100
AcDbEntity
  8
0
100
AcDbLine
 10
144.15039115084264
 20
26.749759122738276
 30
2.5
 11
144.15039115084264
 21
26.749759122738276
 31
5.0
  0
LINE
  5
109
330
17
100
AcDbEntity
  8
0
100
AcDbLine
 10
163.67018084579237
 20
33.811656235196686
 30
0.0
 11
163.67018084579237
 21
33.811656235196686
 31
5.0
  0
LINE
  5
10A
330
17
100
AcDbEntity
  8
0
100
AcDbLine
 10
-213.91922211174833
 20
-263.5183524286269
 30
5.0
 11
-213.91922211174833
 21
-263.5183524286269
 31
0.0
  0
ARC
  5
10B
330
17
100
AcDbEntity
  8
0
100
AcDbCircle
 10
-207.51414085975156
 20
-239.35277910301926
 30
0.0
 40
25.0
100
AcDbArc
 50
255.15510493344047
 51
318.99875126147515
  0
ARC
  5
10C
330
17
100
AcDbEntity
  8
0
100
AcDbCircle
 10
94.13202053210743
 20
3.3368865811887045
 30
0.0
 40
25.0
100
AcDbArc
 50
31.426141241170583
 51
48.14429350890449
  0
LINE
  5
10D
330
17
100
AcDbEntity
  8
0
100
AcDbLine
 10
110.81344435341227
 20
21.957576667595383
 30
5.0
 11
110.81344435341227
 21
21.957576667595383
 31
0.0
  0
LINE
  5
10E
330
17
100
AcDbEntity
  8
0
100
AcDbLine
 10
-223.03069478437655
 20
-281.88790052407796
 30
0.0
 11
-213.91922211174833
 21
-263.51835242862694
 31
0.0
  0
LINE
  5
10F
330
17
100
AcDbEntity
  8
0
100
AcDbLine
 10
-223.03069478437655
 20
-281.88790052407796
 30
0.0
 11
-223.03069478437655
 21
-281.88790052407796
 31
5.0
  0
LINE
  5
110
330
17
100
AcDbEntity
  8
0
100
AcDbLine
 10
125.23960801111862
 20
46.62646348433354
 30
0.0
 11
110.8134443534121
 21
21.957576667595163
 31
0.0
  0
LINE
  5
111
330
17
100
AcDbEntity
  8
0
100
AcDbLine
 10
125.23960801111865
 20
46.62646348433352
 30
2.5
 11
125.23960801111865
 21
46.62646348433352
 31
0.0
  0
LINE
  5
112
330
17
100
AcDbEntity
  8
0
100
AcDbLine
 10
121.16462731608873
 20
39.658204983232565
 30
2.5
 11
125.23960801111865
 21
46.626463484333506
 31
2.5
  0
LINE
  5
113
330
17
100
AcDbEntity
  8
0
100
AcDbLine
 10
121.1646273160887
 20
39.658204983232565
 30
2.5
 11
121.1646273160887
 21
39.658204983232565
 31
5.0
  0
LINE
  5
114
330
17
100
AcDbEntity
  8
0
100
AcDbLine
 10
-231.98922012254494
 20
-277.4443857254759
 30
0.0
 11
-231.98922012254494
 21
-277.4443857254759
 31
5.0
  0
LINE
  5
115
330
17
100
AcDbEntity
  8
0
100
AcDbLine
 10
-231.98922012254494
 20
-277.4443857254759
 30
0.0
 11
-223.03069478437658
 21
-281.88790052407796
 31
0.0
  0
LINE
  5
116
330
17
100
AcDbEntity
  8
0
100
AcDbLine
 10
112.53232311115273
 20
44.70630602356886
 30
2.5
 11
121.16462731608874
 21
39.65820498323258
 31
2.5
  0
LINE
  5
117
330
17
100
AcDbEntity
  8
0
100
AcDbLine
 10
112.53232311115269
 20
44.70630602356884
 30
2.5
 11
112.53232311115269
 21
44.70630602356884
 31
5.0
  0
LINE
  5
118
330
17
100
AcDbEntity
  8
0
100
AcDbLine
 10
-222.87774744991677
 20
-259.07483763002494
 30
0.0
 11
-231.98922012254494
 21
-277.4443857254759
 31
0.0
  0
LINE
  5
119
330
17
100
AcDbEntity
  8
0
100
AcDbLine
 10
-222.87774744991674
 20
-259.07483763002483
 30
5.0
 11
-222.87774744991674
 21
-259.07483763002483
 31
0.0
  0
LINE
  5
11A
330
17
100
AcDbEntity
  8
0
100
AcDbLine
 10
115.5455626800186
 20
49.8589763827715
 30
0.0
 11
102.18114014847635
 21
27.005677707931852
 31
0.0
  0
LINE
  5
11B
330
17
100
AcDbEntity
  8
0
100
AcDbLine
 10
102.18114014847627
 20
27.005677707931667
 30
5.0
 11
102.18114014847627
 21
27.005677707931667
 31
0.0
  0
LINE
  5
11C
330
17
100
AcDbEntity
  8
0
100
AcDbLine
 10
115.54556268001865
 20
49.85897638277149
 30
2.5
 11
112.53232311115273
 21
44.70630602356884
 31
2.5
  0
LINE
  5
11D
330
17
100
AcDbEntity
  8
0
100
AcDbLine
 10
115.54556268001866
 20
49.85897638277149
 30
0.0
 11
115.54556268001866
 21
49.85897638277149
 31
2.5
  0
ARC
  5
11E
330
17
100
AcDbEntity
  8
0
100
AcDbCircle
 10
-207.51414085975156
 20
-239.35277910301926
 30
0.0
 40
25.0
100
AcDbArc
 50
168.2375405397751
 51
232.0811868678099
  0
LINE
  5
11F
330
17
100
AcDbEntity
  8
0
100
AcDbLine
 10
-231.98917000188544
 20
-234.25641289838902
 30
5.0
 11
-231.98917000188544
 21
-234.25641289838902
 31
0.0
  0
ARC
  5
120
330
17
100
AcDbEntity
  8
0
100
AcDbCircle
 10
94.13202053210743
 20
3.3368865811887045
 30
0.0
 40
25.0
100
AcDbArc
 50
71.21821157453587
 51
141.0171788387627
  0
LINE
  5
121
330
17
100
AcDbEntity
  8
0
100
AcDbLine
 10
74.69865518322467
 20
19.064070411005254
 30
5.0
 11
74.69865518322467
 21
19.064070411005254
 31
0.0
  0
LINE
  5
122
330
17
100
AcDbEntity
  8
0
100
AcDbLine
 10
-250.82208957460966
 20
-226.14590293523378
 30
0.0
 11
-231.9891700018855
 21
-234.25641289838902
 31
0.0
  0
LINE
  5
123
330
17
100
AcDbEntity
  8
0
100
AcDbLine
 10
-250.82208957460966
 20
-226.14590293523378
 30
0.0
 11
-250.82208957460966
 21
-226.14590293523378
 31
5.0
  0
LINE
  5
124
330
17
100
AcDbEntity
  8
0
100
AcDbLine
 10
74.69865518322477
 20
19.064070411005204
 30
0.0
 11
-12.790896512374132
 21
64.50323036186197
 31
0.0
  0
LINE
  5
125
330
17
100
AcDbEntity
  8
0
100
AcDbLine
 10
-12.79089651237406
 20
64.50323036186194
 30
0.0
 11
-12.79089651237406
 21
64.50323036186194
 31
5.0
  0
LINE
  5
126
330
17
100
AcDbEntity
  8
0
100
AcDbLine
 10
-246.86672776424558
 20
-216.96139897752798
 30
0.0
 11
-246.86672776424558
 21
-216.96139897752798
 31
5.0
  0
LINE
  5
127
330
17
100
AcDbEntity
  8
0
100
AcDbLine
 10
-246.86672776424558
 20
-216.96139897752798
 30
0.0
 11
-250.82208957460966
 21
-226.14590293523378
 31
0.0
  0
LINE
  5
128
330
17
100
AcDbEntity
  8
0
100
AcDbLine
 10
-12.790896512374132
 20
64.50323036186191
 30
0.0
 11
-6.341981564071759
 21
70.55223370627107
 31
0.0
  0
LINE
  5
129
330
17
100
AcDbEntity
  8
0
100
AcDbLine
 10
-6.3419815640718475
 20
70.5522337062709
 30
5.0
 11
-6.3419815640718475
 21
70.5522337062709
 31
0.0
  0
LINE
  5
12A
330
17
100
AcDbEntity
  8
0
100
AcDbLine
 10
-228.03380819152125
 20
-225.0719089406833
 30
0.0
 11
-246.86672776424558
 21
-216.961398977528
 31
0.0
  0
LINE
  5
12B
330
17
100
AcDbEntity
  8
0
100
AcDbLine
 10
-228.03380819152136
 20
-225.07190894068324
 30
5.0
 11
-228.03380819152136
 21
-225.07190894068324
 31
0.0
  0
LINE
  5
12C
330
17
100
AcDbEntity
  8
0
100
AcDbLine
 10
29.758367450315674
 20
78.46501293710693
 30
5.0
 11
29.758367450315674
 21
78.46501293710693
 31
0.0
  0
ARC
  5
12D
330
17
100
AcDbEntity
  8
0
100
AcDbCircle
 10
8.102956490249063
 20
90.95673724364792
 30
0.0
 40
25.0
100
AcDbArc
 50
234.70421928028287
 51
330.02189820337867
  0
ARC
  5
12E
330
17
100
AcDbEntity
  8
0
100
AcDbCircle
 10
-207.51414085975156
 20
-239.35277910301926
 30
0.0
 40
25.0
100
AcDbArc
 50
81.3199761461114
 51
145.16362247414375
  0
LINE
  5
12F
330
17
100
AcDbEntity
  8
0
100
AcDbLine
 10
-203.74123653124644
 20
-214.63911500948694
 30
5.0
 11
-203.74123653124644
 21
-214.63911500948694
 31
0.0
  0
LINE
  5
130
330
17
100
AcDbEntity
  8
0
100
AcDbLine
 10
115.54556268001865
 20
49.85897638277149
 30
2.5
 11
125.23960801111865
 21
46.626463484333506
 31
2.5
  0
LINE
  5
131
330
17
100
AcDbEntity
  8
0
100
AcDbLine
 10
163.67018084579234
 20
33.811656235196686
 30
0.0
 11
125.23960801111862
 21
46.62646348433353
 31
0.0
  0
LINE
  5
132
330
17
100
AcDbEntity
  8
0
100
AcDbLine
 10
29.75836745031599
 20
78.46501293710683
 30
0.0
 11
115.54556268001862
 21
49.8589763827715
 31
0.0
  0
LINE
  5
133
330
17
100
AcDbEntity
  8
0
100
AcDbLine
 10
-140.4651866281579
 20
-42.81702480888237
 30
0.0
 11
-140.4651866281579
 21
-42.81702480888237
 31
5.0
  0
LINE
  5
134
330
17
100
AcDbEntity
  8
0
100
AcDbLine
 10
-203.7412365312465
 20
-214.6391150094871
 30
0.0
 11
-140.46518662815805
 21
-42.81702480888245
 31
0.0
  0
LINE
  5
135
330
17
100
AcDbEntity
  8
0
100
AcDbLine
 10
-140.4651866281579
 20
-38.70842501011499
 30
0.0
 11
-140.4651866281579
 21
-38.70842501011499
 31
5.0
  0
LINE
  5
136
330
17
100
AcDbEntity
  8
0
100
AcDbLine
 10
-140.4651866281579
 20
-42.817024808882465
 30
0.0
 11
-140.4651866281579
 21
-38.70842501011499
 31
0.0
  0
LINE
  5
137
330
17
100
AcDbEntity
  8
0
100
AcDbLine
 10
147.5524112711428
 20
17.346235362940952
 30
2.5
 11
144.15039115084264
 21
26.74975912273828
 31
2.5
  0
LINE
  5
138
330
17
100
AcDbEntity
  8
0
100
AcDbLine
 10
-140.4651866281579
 20
-38.70842501011499
 30
0.0
 11
-139.42679680571933
 21
-38.70842501011499
 31
0.0
  0
LINE
  5
139
330
17
100
AcDbEntity
  8
0
100
AcDbLine
 10
-139.42679680571933
 20
-38.708425010115
 30
0.0
 11
-139.42679680571933
 21
-38.708425010115
 31
5.0
  0
LINE
  5
13A
330
17
100
AcDbEntity
  8
0
100
AcDbLine
 10
-95.20907526446845
 20
149.53578528553976
 30
2.5
 11
-95.20907526446845
 21
149.53578528553976
 31
5.0
  0
LINE
  5
13B
330
17
100
AcDbEntity
  8
0
100
AcDbLine
 10
-92.92235889912844
 20
159.27082140588806
 30
2.5
 11
-95.20907526446845
 21
149.53578528553976
 31
2.5
  0
LINE
  5
13C
330
17
100
AcDbEntity
  8
0
100
AcDbLine
 10
-92.92235889912851
 20
159.2708214058881
 30
2.5
 11
-92.92235889912851
 21
159.2708214058881
 31
5.0
  0
LINE
  5
13D
330
17
100
AcDbEntity
  8
0
100
AcDbLine
 10
-88.23342353665326
 20
179.23261282503842
 30
5.0
 11
-92.92235889912851
 21
159.2708214058881
 31
5.0
  0
LINE
  5
13E
330
17
100
AcDbEntity
  8
0
100
AcDbLine
 10
-88.23342353665315
 20
179.23261282503856
 30
5.0
 11
-88.23342353665315
 21
179.23261282503856
 31
0.0
  0
LINE
  5
13F
330
17
100
AcDbEntity
  8
0
100
AcDbLine
 10
-139.42679680571933
 20
-38.70842501011499
 30
0.0
 11
-88.23342353665325
 21
179.23261282503844
 31
0.0
  0
LINE
  5
140
330
17
100
AcDbEntity
  8
0
100
AcDbLine
 10
179.45707238978503
 20
28.88874876850272
 30
0.0
 11
250.8793358509991
 21
19.557805223534324
 31
0.0
  0
LINE
  5
141
330
17
100
AcDbEntity
  8
0
100
AcDbLine
 10
250.879335850999
 20
19.557805223534338
 30
5.0
 11
250.879335850999
 21
19.557805223534338
 31
0.0
  0
LINE
  5
142
330
17
100
AcDbEntity
  8
0
100
AcDbLine
 10
230.54701566175777
 20
22.214116051978746
 30
5.0
 11
250.87933585099913
 21
19.55780522353434
 31
5.0
  0
LINE
  5
143
330
17
100
AcDbEntity
  8
0
100
AcDbLine
 10
230.54701566175777
 20
22.214116051978746
 30
2.5
 11
230.54701566175777
 21
22.214116051978746
 31
5.0
  0
LINE
  5
144
330
17
100
AcDbEntity
  8
0
100
AcDbLine
 10
220.63127877739876
 20
23.509554989236157
 30
2.5
 11
230.54701566175777
 21
22.214116051978742
 31
2.5
  0
LINE
  5
145
330
17
100
AcDbEntity
  8
0
100
AcDbLine
 10
220.63127877739876
 20
23.509554989236157
 30
2.5
 11
220.63127877739876
 21
23.509554989236157
 31
5.0
  0
LINE
  5
146
330
17
100
AcDbEntity
  8
0
100
AcDbLine
 10
-95.20907526446845
 20
149.53578528553976
 30
2.5
 11
-85.93135673410679
 21
147.35649077300565
 31
2.5
  0
LINE
  5
147
330
17
100
AcDbEntity
  8
0
100
AcDbLine
 10
-85.93135673410677
 20
147.35649077300567
 30
2.5
 11
-85.93135673410677
 21
147.35649077300567
 31
5.0
  0
LINE
  5
148
330
17
100
AcDbEntity
  8
0
100
AcDbLine
 10
221.92671771465618
 20
33.42529187359515
 30
2.5
 11
220.63127877739876
 21
23.509554989236157
 31
2.5
  0
LINE
  5
149
330
17
100
AcDbEntity
  8
0
100
AcDbLine
 10
221.92671771465618
 20
33.42529187359515
 30
2.5
 11
221.92671771465618
 21
33.42529187359515
 31
5.0
  0
LINE
  5
14A
330
17
100
AcDbEntity
  8
0
100
AcDbLine
 10
-85.93135673410679
 20
147.35649077300565
 30
2.5
 11
-76.42209011440437
 21
146.72464106271036
 31
2.5
  0
LINE
  5
14B
330
17
100
AcDbEntity
  8
0
100
AcDbLine
 10
-76.42209011440437
 20
146.72464106271036
 30
2.5
 11
-76.42209011440437
 21
146.72464106271036
 31
5.0
  0
LINE
  5
14C
330
17
100
AcDbEntity
  8
0
100
AcDbLine
 10
231.84245459901518
 20
32.129852936337734
 30
2.5
 11
221.9267177146562
 21
33.42529187359515
 31
2.5
  0
LINE
  5
14D
330
17
100
AcDbEntity
  8
0
100
AcDbLine
 10
231.84245459901518
 20
32.12985293633774
 30
2.5
 11
231.84245459901518
 21
32.12985293633774
 31
5.0
  0
LINE
  5
14E
330
17
100
AcDbEntity
  8
0
100
AcDbLine
 10
252.17477478825637
 20
29.473542107893355
 30
5.0
 11
231.8424545990152
 21
32.129852936337734
 31
5.0
  0
LINE
  5
14F
330
17
100
AcDbEntity
  8
0
100
AcDbLine
 10
252.17477478825649
 20
29.473542107893337
 30
5.0
 11
252.17477478825649
 21
29.473542107893337
 31
0.0
  0
LINE
  5
150
330
17
100
AcDbEntity
  8
0
100
AcDbLine
 10
183.8992910657662
 20
38.39337540981506
 30
0.0
 11
252.17477478825634
 21
29.47354210789335
 31
0.0
  0
LINE
  5
151
330
17
100
AcDbEntity
  8
0
100
AcDbLine
 10
183.8992910657662
 20
38.39337540981506
 30
0.0
 11
183.8992910657662
 21
38.39337540981506
 31
5.0
  0
LINE
  5
152
330
17
100
AcDbEntity
  8
0
100
AcDbLine
 10
-79.46260723108617
 20
100.96520261842728
 30
0.0
 11
-74.39961747567156
 21
177.16262534820606
 31
0.0
  0
LINE
  5
153
330
17
100
AcDbEntity
  8
0
100
AcDbLine
 10
-74.39961747567156
 20
177.16262534820603
 30
5.0
 11
-74.39961747567156
 21
177.16262534820603
 31
0.0
  0
LINE
  5
154
330
17
100
AcDbEntity
  8
0
100
AcDbLine
 10
-75.75909524856245
 20
156.7026387480111
 30
5.0
 11
-74.39961747567153
 21
177.16262534820606
 31
5.0
  0
LINE
  5
155
330
17
100
AcDbEntity
  8
0
100
AcDbLine
 10
-75.75909524856245
 20
156.7026387480111
 30
2.5
 11
-75.75909524856245
 21
156.7026387480111
 31
5.0
  0
LINE
  5
156
330
17
100
AcDbEntity
  8
0
100
AcDbLine
 10
-76.42209011440437
 20
146.72464106271036
 30
2.5
 11
-75.75909524856246
 21
156.7026387480111
 31
2.5
  0
LINE
  5
157
330
17
100
AcDbEntity
  8
0
100
AcDbLine
 10
-79.46260723108617
 20
100.96520261842727
 30
5.0
 11
-79.46260723108617
 21
100.96520261842727
 31
0.0
  0
LINE
  5
158
330
17
100
AcDbEntity
  8
0
100
AcDbLine
 10
183.8992910657662
 20
39.00410955682884
 30
0.0
 11
183.8992910657662
 21
39.00410955682884
 31
5.0
  0
LINE
  5
159
330
17
100
AcDbEntity
  8
0
100
AcDbLine
 10
183.8992910657662
 20
38.39337540981506
 30
0.0
 11
183.8992910657662
 21
39.00410955682884
 31
0.0
  0
LINE
  5
15A
330
17
100
AcDbEntity
  8
0
100
AcDbLine
 10
-46.52253499791131
 20
99.08420177306408
 30
2.5
 11
-46.52253499791131
 21
99.08420177306408
 31
5.0
  0
LINE
  5
15B
330
17
100
AcDbEntity
  8
0
100
AcDbLine
 10
-36.538799409400156
 20
98.51409327576215
 30
2.5
 11
-46.52253499791131
 21
99.08420177306407
 31
2.5
  0
LINE
  5
15C
330
17
100
AcDbEntity
  8
0
100
AcDbLine
 10
-36.53879940940017
 20
98.51409327576215
 30
2.5
 11
-36.53879940940017
 21
98.51409327576215
 31
5.0
  0
LINE
  5
15D
330
17
100
AcDbEntity
  8
0
100
AcDbLine
 10
-16.067047179817422
 20
97.3450799543181
 30
5.0
 11
-16.067047179817422
 21
97.3450799543181
 31
0.0
  0
LINE
  5
15E
330
17
100
AcDbEntity
  8
0
100
AcDbLine
 10
-79.46260723108617
 20
100.96520261842728
 30
0.0
 11
-16.067047179817507
 21
97.3450799543181
 31
0.0
  0
LINE
  5
15F
330
17
100
AcDbEntity
  8
0
100
AcDbLine
 10
179.71095674777771
 20
39.00410955682884
 30
0.0
 11
183.8992910657662
 21
39.00410955682884
 31
0.0
  0
LINE
  5
160
330
17
100
AcDbEntity
  8
0
100
AcDbLine
 10
179.71095674777723
 20
39.00410955682883
 30
5.0
 11
179.71095674777723
 21
39.00410955682883
 31
0.0
  0
LINE
  5
161
330
17
100
AcDbEntity
  8
0
100
AcDbLine
 10
-46.52253499791131
 20
99.08420177306408
 30
2.5
 11
-47.09264349521323
 21
89.10046618455293
 31
2.5
  0
LINE
  5
162
330
17
100
AcDbEntity
  8
0
100
AcDbLine
 10
-47.092643495213224
 20
89.10046618455293
 30
2.5
 11
-47.092643495213224
 21
89.10046618455293
 31
5.0
  0
LINE
  5
163
330
17
100
AcDbEntity
  8
0
100
AcDbLine
 10
130.39815609487556
 20
55.447633258663764
 30
0.0
 11
130.39815609487556
 21
55.447633258663764
 31
5.0
  0
LINE
  5
164
330
17
100
AcDbEntity
  8
0
100
AcDbLine
 10
130.39815609487556
 20
55.44763325866377
 30
0.0
 11
179.71095674777771
 21
39.00410955682882
 31
0.0
  0
LINE
  5
165
330
17
100
AcDbEntity
  8
0
100
AcDbLine
 10
-61.764055548654106
 20
89.9382584723124
 30
0.0
 11
-16.637155677119267
 21
87.36134436580693
 31
0.0
  0
LINE
  5
166
330
17
100
AcDbEntity
  8
0
100
AcDbLine
 10
-16.637155677119345
 20
87.36134436580696
 30
5.0
 11
-16.637155677119345
 21
87.36134436580696
 31
0.0
  0
LINE
  5
167
330
17
100
AcDbEntity
  8
0
100
AcDbLine
 10
-37.108907906702086
 20
88.53035768725098
 30
2.5
 11
-37.108907906702086
 21
88.53035768725098
 31
5.0
  0
LINE
  5
168
330
17
100
AcDbEntity
  8
0
100
AcDbLine
 10
-47.092643495213224
 20
89.10046618455293
 30
2.5
 11
-37.10890790670207
 21
88.53035768725101
 31
2.5
  0
LINE
  5
169
330
17
100
AcDbEntity
  8
0
100
AcDbLine
 10
-61.76405554865411
 20
89.93825847231241
 30
0.0
 11
-61.76405554865411
 21
89.93825847231241
 31
5.0
  0
LINE
  5
16A
330
17
100
AcDbEntity
  8
0
100
AcDbLine
 10
194.3538911216185
 20
164.81259168357445
 30
0.0
 11
130.39815609487556
 21
55.447633258663785
 31
0.0
  0
LINE
  5
16B
330
17
100
AcDbEntity
  8
0
100
AcDbLine
 10
194.35389112161852
 20
164.81259168357448
 30
5.0
 11
194.35389112161852
 21
164.81259168357448
 31
0.0
  0
LINE
  5
16C
330
17
100
AcDbEntity
  8
0
100
AcDbLine
 10
-22.19880440939827
 20
69.38938446198995
 30
0.0
 11
-61.764055548654106
 21
89.93825847231241
 31
0.0
  0
LINE
  5
16D
330
17
100
AcDbEntity
  8
0
100
AcDbLine
 10
-22.198804409398278
 20
69.38938446198995
 30
5.0
 11
-22.198804409398278
 21
69.38938446198995
 31
0.0
  0
LINE
  5
16E
330
17
100
AcDbEntity
  8
0
100
AcDbLine
 10
194.3538911216185
 20
164.81259168357445
 30
0.0
 11
259.9513344886666
 21
40.66417149773085
 31
0.0
  0
LINE
  5
16F
330
17
100
AcDbEntity
  8
0
100
AcDbLine
 10
259.9513344886666
 20
40.66417149773089
 30
5.0
 11
259.9513344886666
 21
40.66417149773089
 31
0.0
  0
LINE
  5
170
330
17
100
AcDbEntity
  8
0
100
AcDbLine
 10
250.37187392913663
 20
58.79406854331697
 30
5.0
 11
259.95133448866665
 21
40.664171497730884
 31
5.0
  0
LINE
  5
171
330
17
100
AcDbEntity
  8
0
100
AcDbLine
 10
250.37187392913663
 20
58.79406854331697
 30
2.5
 11
250.37187392913663
 21
58.79406854331697
 31
5.0
  0
LINE
  5
172
330
17
100
AcDbEntity
  8
0
100
AcDbLine
 10
245.7001291642349
 20
67.63572002093203
 30
2.5
 11
250.37187392913663
 21
58.794068543316925
 31
2.5
  0
LINE
  5
173
330
17
100
AcDbEntity
  8
0
100
AcDbLine
 10
245.7001291642349
 20
67.63572002093203
 30
2.5
 11
245.7001291642349
 21
67.63572002093203
 31
5.0
  0
LINE
  5
174
330
17
100
AcDbEntity
  8
0
100
AcDbLine
 10
-13.183286059148283
 20
77.84583040513266
 30
5.0
 11
-13.183286059148283
 21
77.84583040513266
 31
0.0
  0
LINE
  5
175
330
17
100
AcDbEntity
  8
0
100
AcDbLine
 10
-22.198804409398264
 20
69.38938446198995
 30
0.0
 11
-13.183286059148116
 21
77.84583040513286
 31
0.0
  0
LINE
  5
176
330
17
100
AcDbEntity
  8
0
100
AcDbLine
 10
254.54178064184998
 20
72.30746478583374
 30
2.5
 11
245.70012916423488
 21
67.63572002093203
 31
2.5
  0
LINE
  5
177
330
17
100
AcDbEntity
  8
0
100
AcDbLine
 10
254.54178064184998
 20
72.30746478583374
 30
2.5
 11
254.54178064184998
 21
72.30746478583374
 31
5.0
  0
ARC
  5
178
330
17
100
AcDbEntity
  8
0
100
AcDbCircle
 10
8.102956490249063
 20
90.95673724364792
 30
0.0
 40
25.0
100
AcDbArc
 50
188.26870589082532
 51
211.63030121464925
  0
LINE
  5
179
330
17
100
AcDbEntity
  8
0
100
AcDbLine
 10
268.79298596628166
 20
45.33591626263263
 30
5.0
 11
268.79298596628166
 21
45.33591626263263
 31
0.0
  0
LINE
  5
17A
330
17
100
AcDbEntity
  8
0
100
AcDbLine
 10
201.59026250153622
 20
172.52245772051685
 30
0.0
 11
268.7929859662818
 21
45.33591626263254
 31
0.0
  0
LINE
  5
17B
330
17
100
AcDbEntity
  8
0
100
AcDbLine
 10
201.5902625015362
 20
172.52245772051685
 30
5.0
 11
201.5902625015362
 21
172.52245772051685
 31
0.0
  0
LINE
  5
17C
330
17
100
AcDbEntity
  8
0
100
AcDbLine
 10
259.2135254067517
 20
63.46581330821864
 30
2.5
 11
254.54178064185
 21
72.30746478583374
 31
2.5
  0
LINE
  5
17D
330
17
100
AcDbEntity
  8
0
100
AcDbLine
 10
259.2135254067517
 20
63.465813308218685
 30
2.5
 11
259.2135254067517
 21
63.465813308218685
 31
5.0
  0
LINE
  5
17E
330
17
100
AcDbEntity
  8
0
100
AcDbLine
 10
268.7929859662817
 20
45.335916262632544
 30
5.0
 11
259.2135254067517
 21
63.465813308218685
 31
5.0
  0
LINE
  5
17F
330
17
100
AcDbEntity
  8
0
100
AcDbLine
 10
266.9542443814628
 20
198.73927753762823
 30
0.0
 11
201.59026250153622
 21
172.52245772051685
 31
0.0
  0
LINE
  5
180
330
17
100
AcDbEntity
  8
0
100
AcDbLine
 10
266.9542443814629
 20
198.73927753762828
 30
5.0
 11
266.9542443814629
 21
198.73927753762828
 31
0.0
  0
LINE
  5
181
330
17
100
AcDbEntity
  8
0
100
AcDbLine
 10
-37.10890790670207
 20
88.530357687251
 30
2.5
 11
-36.53879940940015
 21
98.51409327576215
 31
2.5
  0
LINE
  5
182
330
17
100
AcDbEntity
  8
0
100
AcDbLine
 10
281.300993906388
 20
188.36533313596766
 30
5.0
 11
281.300993906388
 21
188.36533313596766
 31
0.0
  0
ARC
  5
183
330
17
100
AcDbEntity
  8
0
100
AcDbCircle
 10
287.82732106883265
 20
212.4984442857705
 30
0.0
 40
25.0
100
AcDbArc
 50
213.39217169425254
 51
254.86744225960967
  0
LINE
  5
184
330
17
100
AcDbEntity
  8
0
100
AcDbLine
 10
279.3879013610563
 20
157.9202783675574
 30
2.5
 11
279.3879013610563
 21
157.9202783675574
 31
5.0
  0
LINE
  5
185
330
17
100
AcDbEntity
  8
0
100
AcDbLine
 10
280.0150398998649
 20
167.9005938562151
 30
2.5
 11
279.38790136105627
 21
157.9202783675574
 31
2.5
  0
LINE
  5
186
330
17
100
AcDbEntity
  8
0
100
AcDbLine
 10
280.015039899865
 20
167.90059385621512
 30
2.5
 11
280.015039899865
 21
167.90059385621512
 31
5.0
  0
LINE
  5
187
330
17
100
AcDbEntity
  8
0
100
AcDbLine
 10
272.3615627837889
 20
46.10275896511096
 30
0.0
 11
281.300993906388
 21
188.3653331359677
 31
0.0
  0
LINE
  5
188
330
17
100
AcDbEntity
  8
0
100
AcDbLine
 10
272.3615627837889
 20
46.102758965111306
 30
5.0
 11
272.3615627837889
 21
46.102758965111306
 31
0.0
  0
LINE
  5
189
330
17
100
AcDbEntity
  8
0
100
AcDbLine
 10
279.3879013610563
 20
157.9202783675574
 30
5.0
 11
272.3615627837888
 21
46.10275896511095
 31
5.0
  0
ARC
  5
18A
330
17
100
AcDbEntity
  8
0
100
AcDbCircle
 10
8.102956490249063
 20
90.95673724364792
 30
0.0
 40
25.0
100
AcDbArc
 50
74.51350839932861
 51
165.19478782519423
  0
LINE
  5
18B
330
17
100
AcDbEntity
  8
0
100
AcDbLine
 10
14.778235923057164
 20
115.04907304767342
 30
5.0
 11
14.778235923057164
 21
115.04907304767342
 31
0.0
  0
LINE
  5
18C
330
17
100
AcDbEntity
  8
0
100
AcDbLine
 10
289.9953553885226
 20
167.27345531740644
 30
2.5
 11
280.0150398998649
 21
167.90059385621507
 31
2.5
  0
LINE
  5
18D
330
17
100
AcDbEntity
  8
0
100
AcDbLine
 10
289.9953553885227
 20
167.27345531740647
 30
2.5
 11
289.9953553885227
 21
167.27345531740647
 31
5.0
  0
LINE
  5
18E
330
17
100
AcDbEntity
  8
0
100
AcDbLine
 10
79.03378748876091
 20
241.03019646664276
 30
0.0
 11
14.77823592305711
 21
115.04907304767315
 31
0.0
  0
LINE
  5
18F
330
17
100
AcDbEntity
  8
0
100
AcDbLine
 10
24.094834723108804
 20
133.3154415508548
 30
2.5
 11
24.094834723108804
 21
133.3154415508548
 31
5.0
  0
LINE
  5
190
330
17
100
AcDbEntity
  8
0
100
AcDbLine
 10
28.6383861475708
 20
142.2236479052939
 30
2.5
 11
24.09483472310873
 21
133.3154415508548
 31
2.5
  0
LINE
  5
191
330
17
100
AcDbEntity
  8
0
100
AcDbLine
 10
28.6383861475708
 20
142.2236479052939
 30
2.5
 11
28.6383861475708
 21
142.2236479052939
 31
5.0
  0
LINE
  5
192
330
17
100
AcDbEntity
  8
0
100
AcDbLine
 10
79.03378748876092
 20
241.03019646664274
 30
0.0
 11
79.03378748876092
 21
241.03019646664274
 31
5.0
  0
LINE
  5
193
330
17
100
AcDbEntity
  8
0
100
AcDbLine
 10
282.34187827244654
 20
45.47562042630256
 30
0.0
 11
291.28130939504575
 21
187.73819459715918
 31
0.0
  0
LINE
  5
194
330
17
100
AcDbEntity
  8
0
100
AcDbLine
 10
291.28130939504575
 20
187.73819459715904
 30
5.0
 11
291.28130939504575
 21
187.73819459715904
 31
0.0
  0
LINE
  5
195
330
17
100
AcDbEntity
  8
0
100
AcDbLine
 10
289.36821684971403
 20
157.29313982874874
 30
2.5
 11
289.9953553885227
 21
167.27345531740644
 31
2.5
  0
LINE
  5
196
330
17
100
AcDbEntity
  8
0
100
AcDbLine
 10
289.36821684971403
 20
157.29313982874874
 30
2.5
 11
289.36821684971403
 21
157.29313982874874
 31
5.0
  0
LINE
  5
197
330
17
100
AcDbEntity
  8
0
100
AcDbLine
 10
282.34187827244654
 20
45.47562042630257
 30
5.0
 11
289.368216849714
 21
157.29313982874876
 31
5.0
  0
LINE
  5
198
330
17
100
AcDbEntity
  8
0
100
AcDbLine
 10
282.34187827244665
 20
45.47562042630267
 30
5.0
 11
282.34187827244665
 21
45.47562042630267
 31
0.0
  0
LINE
  5
199
330
17
100
AcDbEntity
  8
0
100
AcDbLine
 10
24.094834723108733
 20
133.3154415508548
 30
2.5
 11
33.003041077547806
 21
128.77189012639275
 31
2.5
  0
LINE
  5
19A
330
17
100
AcDbEntity
  8
0
100
AcDbLine
 10
33.003041077547884
 20
128.77189012639275
 30
2.5
 11
33.003041077547884
 21
128.77189012639275
 31
5.0
  0
ARC
  5
19B
330
17
100
AcDbEntity
  8
0
100
AcDbCircle
 10
287.82732106883265
 20
212.4984442857705
 30
0.0
 40
25.0
100
AcDbArc
 50
-82.05863967475896
 51
26.478432968863775
  0
LINE
  5
19C
330
17
100
AcDbEntity
  8
0
100
AcDbLine
 10
310.2048774203465
 20
223.6449671397739
 30
5.0
 11
310.2048774203465
 21
223.6449671397739
 31
0.0
  0
LINE
  5
19D
330
17
100
AcDbEntity
  8
0
100
AcDbLine
 10
37.54659250200987
 20
137.68009648083182
 30
2.5
 11
37.54659250200987
 21
137.68009648083182
 31
5.0
  0
LINE
  5
19E
330
17
100
AcDbEntity
  8
0
100
AcDbLine
 10
33.003041077547806
 20
128.77189012639275
 30
2.5
 11
37.54659250200987
 21
137.68009648083182
 31
2.5
  0
LINE
  5
19F
330
17
100
AcDbEntity
  8
0
100
AcDbLine
 10
23.686442277496255
 20
110.5055216232114
 30
5.0
 11
23.686442277496255
 21
110.5055216232114
 31
0.0
  0
LINE
  5
1A0
330
17
100
AcDbEntity
  8
0
100
AcDbLine
 10
91.44969420406069
 20
243.363934572977
 30
0.0
 11
23.686442277496425
 21
110.50552162321154
 31
0.0
  0
LINE
  5
1A1
330
17
100
AcDbEntity
  8
0
100
AcDbLine
 10
91.4496942040607
 20
243.36393457297703
 30
5.0
 11
91.4496942040607
 21
243.36393457297703
 31
0.0
  0
LINE
  5
1A2
330
17
100
AcDbEntity
  8
0
100
AcDbLine
 10
310.20487742034624
 20
223.64496713977366
 30
0.0
 11
326.35972678848015
 21
236.27350915332607
 31
0.0
  0
LINE
  5
1A3
330
17
100
AcDbEntity
  8
0
100
AcDbLine
 10
326.35972678848015
 20
236.27350915332607
 30
0.0
 11
326.35972678848015
 21
236.27350915332607
 31
5.0
  0
ARC
  5
1A4
330
17
100
AcDbEntity
  8
0
100
AcDbCircle
 10
8.102956490249063
 20
90.95673724364792
 30
0.0
 40
25.0
100
AcDbArc
 50
-6.904183730993543
 51
51.43959033369736
  0
LINE
  5
1A5
330
17
100
AcDbEntity
  8
0
100
AcDbLine
 10
32.921670662877936
 20
87.95150400522022
 30
5.0
 11
32.921670662877936
 21
87.95150400522022
 31
0.0
  0
LINE
  5
1A6
330
17
100
AcDbEntity
  8
0
100
AcDbLine
 10
320.2009953365863
 20
244.15196248525953
 30
0.0
 11
320.2009953365863
 21
244.15196248525953
 31
5.0
  0
LINE
  5
1A7
330
17
100
AcDbEntity
  8
0
100
AcDbLine
 10
326.35972678848015
 20
236.27350915332607
 30
0.0
 11
320.2009953365863
 21
244.15196248525953
 31
0.0
  0
LINE
  5
1A8
330
17
100
AcDbEntity
  8
0
100
AcDbLine
 10
120.70411076377553
 20
58.680146157101746
 30
0.0
 11
32.92167066287813
 21
87.95150400522016
 31
0.0
  0
LINE
  5
1A9
330
17
100
AcDbEntity
  8
0
100
AcDbLine
 10
120.70411076377557
 20
58.68014615710173
 30
5.0
 11
120.70411076377557
 21
58.68014615710173
 31
0.0
  0
LINE
  5
1AA
330
17
100
AcDbEntity
  8
0
100
AcDbLine
 10
320.2009953365863
 20
244.15196248525953
 30
0.0
 11
304.0461459684524
 21
231.5234204717071
 31
0.0
  0
LINE
  5
1AB
330
17
100
AcDbEntity
  8
0
100
AcDbLine
 10
304.04614596845266
 20
231.52342047170737
 30
5.0
 11
304.04614596845266
 21
231.52342047170737
 31
0.0
  0
LINE
  5
1AC
330
17
100
AcDbEntity
  8
0
100
AcDbLine
 10
188.4115292589202
 20
174.46052153208916
 30
0.0
 11
120.70411076377553
 21
58.680146157101746
 31
0.0
  0
LINE
  5
1AD
330
17
100
AcDbEntity
  8
0
100
AcDbLine
 10
188.41152925892027
 20
174.46052153208913
 30
0.0
 11
188.41152925892027
 21
174.46052153208913
 31
5.0
  0
ARC
  5
1AE
330
17
100
AcDbEntity
  8
0
100
AcDbCircle
 10
287.82732106883265
 20
212.4984442857705
 30
0.0
 40
25.0
100
AcDbArc
 50
49.55235103449919
 51
158.08942367812023
  0
LINE
  5
1AF
330
17
100
AcDbEntity
  8
0
100
AcDbLine
 10
264.63313637719705
 20
221.82742046165907
 30
5.0
 11
264.63313637719705
 21
221.82742046165907
 31
0.0
  0
LINE
  5
1B0
330
17
100
AcDbEntity
  8
0
100
AcDbLine
 10
188.4115292589202
 20
174.46052153208916
 30
0.0
 11
133.04832481831937
 21
235.74895544025733
 31
0.0
  0
LINE
  5
1B1
330
17
100
AcDbEntity
  8
0
100
AcDbLine
 10
133.0483248183195
 20
235.7489554402573
 30
0.0
 11
133.0483248183195
 21
235.7489554402573
 31
5.0
  0
LINE
  5
1B2
330
17
100
AcDbEntity
  8
0
100
AcDbLine
 10
138.1913164014513
 20
244.9736588450055
 30
0.0
 11
138.1913164014513
 21
244.9736588450055
 31
5.0
  0
LINE
  5
1B3
330
17
100
AcDbEntity
  8
0
100
AcDbLine
 10
234.6266552850024
 20
227.32035914712358
 30
2.5
 11
234.6266552850024
 21
227.32035914712358
 31
5.0
  0
LINE
  5
1B4
330
17
100
AcDbEntity
  8
0
100
AcDbLine
 10
244.4632001781743
 20
225.51969688989317
 30
2.5
 11
234.6266552850024
 21
227.32035914712355
 31
2.5
  0
LINE
  5
1B5
330
17
100
AcDbEntity
  8
0
100
AcDbLine
 10
244.46320017817433
 20
225.5196968898932
 30
2.5
 11
244.46320017817433
 21
225.5196968898932
 31
5.0
  0
LINE
  5
1B6
330
17
100
AcDbEntity
  8
0
100
AcDbLine
 10
138.19131640145127
 20
244.97365884500547
 30
0.0
 11
264.6331363771974
 21
221.82742046165902
 31
0.0
  0
LINE
  5
1B7
330
17
100
AcDbEntity
  8
0
100
AcDbLine
 10
91.44969420406069
 20
243.363934572977
 30
0.0
 11
133.04832481831937
 21
235.7489554402573
 31
0.0
  0
LINE
  5
1B8
330
17
100
AcDbEntity
  8
0
100
AcDbLine
 10
242.66253792094392
 20
215.68315199672128
 30
2.5
 11
244.4632001781743
 21
225.51969688989317
 31
2.5
  0
LINE
  5
1B9
330
17
100
AcDbEntity
  8
0
100
AcDbLine
 10
242.66253792094395
 20
215.6831519967213
 30
2.5
 11
242.66253792094395
 21
215.6831519967213
 31
5.0
  0
LINE
  5
1BA
330
17
100
AcDbEntity
  8
0
100
AcDbLine
 10
149.19406783678403
 20
232.7933414127677
 30
0.0
 11
262.8324741199665
 21
211.9908755684872
 31
0.0
  0
LINE
  5
1BB
330
17
100
AcDbEntity
  8
0
100
AcDbLine
 10
262.8324741199666
 20
211.99087556848718
 30
5.0
 11
262.8324741199666
 21
211.99087556848718
 31
0.0
  0
LINE
  5
1BC
330
17
100
AcDbEntity
  8
0
100
AcDbLine
 10
232.82599302777203
 20
217.4838142539517
 30
2.5
 11
242.66253792094392
 21
215.6831519967213
 31
2.5
  0
LINE
  5
1BD
330
17
100
AcDbEntity
  8
0
100
AcDbLine
 10
232.82599302777203
 20
217.4838142539517
 30
2.5
 11
232.82599302777203
 21
217.4838142539517
 31
5.0
  0
LINE
  5
1BE
330
17
100
AcDbEntity
  8
0
100
AcDbLine
 10
149.19406783678414
 20
232.7933414127677
 30
5.0
 11
149.19406783678414
 21
232.7933414127677
 31
0.0
  0
LINE
  5
1BF
330
17
100
AcDbEntity
  8
0
100
AcDbLine
 10
37.54659250200987
 20
137.68009648083182
 30
2.5
 11
28.6383861475708
 21
142.2236479052939
 31
2.5
  0
ARC
  5
1C0
330
17
100
AcDbEntity
  8
0
100
AcDbCircle
 10
287.82732106883265
 20
212.4984442857705
 30
0.0
 40
25.0
100
AcDbArc
 50
181.16334174375228
 51
190.31825362862264
  0
LINE
  5
1C1
330
17
100
AcDbEntity
  8
0
100
AcDbLine
 10
263.23162046544167
 20
208.0205528368459
 30
5.0
 11
263.23162046544167
 21
208.0205528368459
 31
0.0
  0
LINE
  5
1C2
330
17
100
AcDbEntity
  8
0
100
AcDbLine
 10
263.2316204654416
 20
208.0205528368459
 30
0.0
 11
195.9491926620193
 21
181.03426412174795
 31
0.0
  0
LINE
  5
1C3
330
17
100
AcDbEntity
  8
0
100
AcDbLine
 10
195.94919266201933
 20
181.03426412174795
 30
0.0
 11
195.94919266201933
 21
181.03426412174795
 31
5.0
  0
LINE
  5
1C4
330
17
100
AcDbEntity
  8
0
100
AcDbLine
 10
-52.83292321081839
 20
203.7819162463773
 30
5.0
 11
-52.83292321081839
 21
203.7819162463773
 31
0.0
  0
LINE
  5
1C5
330
17
100
AcDbEntity
  8
0
100
AcDbLine
 10
79.03378748876091
 20
241.03019646664276
 30
0.0
 11
-52.83292321081865
 21
203.7819162463772
 31
0.0
  0
LINE
  5
1C6
330
17
100
AcDbEntity
  8
0
100
AcDbLine
 10
-23.476504457958896
 20
212.07419946303492
 30
2.5
 11
-23.476504457958896
 21
212.07419946303492
 31
5.0
  0
LINE
  5
1C7
330
17
100
AcDbEntity
  8
0
100
AcDbLine
 10
-33.09994980891578
 20
209.35587284962986
 30
2.5
 11
-23.476504457958896
 21
212.07419946303492
 31
2.5
  0
LINE
  5
1C8
330
17
100
AcDbEntity
  8
0
100
AcDbLine
 10
-33.09994980891576
 20
209.35587284962983
 30
2.5
 11
-33.09994980891576
 21
209.35587284962983
 31
5.0
  0
LINE
  5
1C9
330
17
100
AcDbEntity
  8
0
100
AcDbLine
 10
-52.83292321081865
 20
203.78191624637722
 30
5.0
 11
-33.09994980891576
 21
209.35587284962983
 31
5.0
  0
LINE
  5
1CA
330
17
100
AcDbEntity
  8
0
100
AcDbLine
 10
195.9491926620193
 20
181.03426412174795
 30
0.0
 11
149.19406783678403
 21
232.7933414127677
 31
0.0
  0
LINE
  5
1CB
330
17
100
AcDbEntity
  8
0
100
AcDbLine
 10
-23.476504457958896
 20
212.07419946303492
 30
2.5
 11
-26.19483107136396
 21
221.69764481399181
 31
2.5
  0
LINE
  5
1CC
330
17
100
AcDbEntity
  8
0
100
AcDbLine
 10
-26.19483107136395
 20
221.6976448139918
 30
2.5
 11
-26.19483107136395
 21
221.6976448139918
 31
5.0
  0
LINE
  5
1CD
330
17
100
AcDbEntity
  8
0
100
AcDbLine
 10
81.89381907554555
 20
252.22935602406878
 30
0.0
 11
-55.55124982422349
 21
213.40536159733418
 31
0.0
  0
LINE
  5
1CE
330
17
100
AcDbEntity
  8
0
100
AcDbLine
 10
-55.551249824223454
 20
213.40536159733418
 30
5.0
 11
-55.551249824223454
 21
213.40536159733418
 31
0.0
  0
LINE
  5
1CF
330
17
100
AcDbEntity
  8
0
100
AcDbLine
 10
-35.81827642232083
 20
218.97931820058673
 30
5.0
 11
-55.55124982422343
 21
213.40536159733418
 31
5.0
  0
LINE
  5
1D0
330
17
100
AcDbEntity
  8
0
100
AcDbLine
 10
-35.81827642232083
 20
218.97931820058673
 30
2.5
 11
-35.81827642232083
 21
218.97931820058673
 31
5.0
  0
LINE
  5
1D1
330
17
100
AcDbEntity
  8
0
100
AcDbLine
 10
-26.19483107136395
 20
221.6976448139918
 30
2.5
 11
-35.818276422320835
 21
218.97931820058673
 31
2.5
  0
LINE
  5
1D2
330
17
100
AcDbEntity
  8
0
100
AcDbLine
 10
81.89381907554554
 20
252.22935602406875
 30
0.0
 11
81.89381907554554
 21
252.22935602406875
 31
5.0
  0
LINE
  5
1D3
330
17
100
AcDbEntity
  8
0
100
AcDbLine
 10
234.6266552850024
 20
227.32035914712358
 30
2.5
 11
232.82599302777203
 21
217.4838142539517
 31
2.5
  0
LINE
  5
1D4
330
17
100
AcDbEntity
  8
0
100
AcDbLine
 10
59.666501434561724
 20
305.2906098691184
 30
0.0
 11
81.89381907554554
 21
252.2293560240688
 31
0.0
  0
LINE
  5
1D5
330
17
100
AcDbEntity
  8
0
100
AcDbLine
 10
59.666501434561745
 20
305.2906098691183
 30
5.0
 11
59.666501434561745
 21
305.2906098691183
 31
0.0
  0
LINE
  5
1D6
330
17
100
AcDbEntity
  8
0
100
AcDbLine
 10
40.65523123992535
 20
309.2111754213414
 30
5.0
 11
40.65523123992535
 21
309.2111754213414
 31
0.0
  0
ARC
  5
1D7
330
17
100
AcDbEntity
  8
0
100
AcDbCircle
 10
54.814147057108265
 20
329.81518238314203
 30
0.0
 40
25.0
100
AcDbArc
 50
235.50344856735722
 51
281.1918126873252
  0
LINE
  5
1D8
330
17
100
AcDbEntity
  8
0
100
AcDbLine
 10
138.19131640145127
 20
244.97365884500547
 30
0.0
 11
74.94404060061794
 21
314.9899543603774
 31
0.0
  0
LINE
  5
1D9
330
17
100
AcDbEntity
  8
0
100
AcDbLine
 10
74.94404060061802
 20
314.98995436037745
 30
5.0
 11
74.94404060061802
 21
314.98995436037745
 31
0.0
  0
LINE
  5
1DA
330
17
100
AcDbEntity
  8
0
100
AcDbLine
 10
88.68913701461199
 20
299.77379334436716
 30
2.5
 11
88.68913701461199
 21
299.77379334436716
 31
5.0
  0
LINE
  5
1DB
330
17
100
AcDbEntity
  8
0
100
AcDbLine
 10
95.39239361409398
 20
292.35312282469704
 30
2.5
 11
88.68913701461206
 21
299.7737933443672
 31
2.5
  0
LINE
  5
1DC
330
17
100
AcDbEntity
  8
0
100
AcDbLine
 10
95.39239361409398
 20
292.35312282469704
 30
2.5
 11
95.39239361409398
 21
292.35312282469704
 31
5.0
  0
LINE
  5
1DD
330
17
100
AcDbEntity
  8
0
100
AcDbLine
 10
-56.66332604900963
 20
215.34167311954292
 30
0.0
 11
40.65523123992506
 21
309.21117542134124
 31
0.0
  0
LINE
  5
1DE
330
17
100
AcDbEntity
  8
0
100
AcDbLine
 10
25.896766489779314
 20
294.97576360032843
 30
2.5
 11
25.896766489779314
 21
294.97576360032843
 31
5.0
  0
LINE
  5
1DF
330
17
100
AcDbEntity
  8
0
100
AcDbLine
 10
18.69930688273608
 20
288.03338827159683
 30
2.5
 11
25.896766489779353
 21
294.9757636003284
 31
2.5
  0
LINE
  5
1E0
330
17
100
AcDbEntity
  8
0
100
AcDbLine
 10
18.69930688273608
 20
288.03338827159683
 30
2.5
 11
18.69930688273608
 21
288.03338827159683
 31
5.0
  0
LINE
  5
1E1
330
17
100
AcDbEntity
  8
0
100
AcDbLine
 10
-56.66332604900961
 20
215.34167311954292
 30
5.0
 11
18.69930688273608
 21
288.0333882715968
 31
5.0
  0
LINE
  5
1E2
330
17
100
AcDbEntity
  8
0
100
AcDbLine
 10
-56.663326049009775
 20
215.34167311954275
 30
5.0
 11
-56.663326049009775
 21
215.34167311954275
 31
0.0
  0
LINE
  5
1E3
330
17
100
AcDbEntity
  8
0
100
AcDbLine
 10
87.9717230944238
 20
285.64986622521513
 30
2.5
 11
95.39239361409398
 21
292.35312282469704
 31
2.5
  0
LINE
  5
1E4
330
17
100
AcDbEntity
  8
0
100
AcDbLine
 10
87.9717230944238
 20
285.64986622521513
 30
2.5
 11
87.9717230944238
 21
285.64986622521513
 31
5.0
  0
LINE
  5
1E5
330
17
100
AcDbEntity
  8
0
100
AcDbLine
 10
25.896766489779353
 20
294.9757636003284
 30
2.5
 11
18.954391161047802
 21
302.1732232073717
 31
2.5
  0
LINE
  5
1E6
330
17
100
AcDbEntity
  8
0
100
AcDbLine
 10
18.95439116104776
 20
302.1732232073717
 30
2.5
 11
18.95439116104776
 21
302.1732232073717
 31
5.0
  0
LINE
  5
1E7
330
17
100
AcDbEntity
  8
0
100
AcDbLine
 10
70.74939027573085
 20
304.7154137737754
 30
0.0
 11
70.74939027573085
 21
304.7154137737754
 31
5.0
  0
LINE
  5
1E8
330
17
100
AcDbEntity
  8
0
100
AcDbLine
 10
122.0455733829866
 20
247.92927287249512
 30
0.0
 11
70.74939027573078
 21
304.71541377377537
 31
0.0
  0
LINE
  5
1E9
330
17
100
AcDbEntity
  8
0
100
AcDbLine
 10
122.04557338298662
 20
247.92927287249515
 30
5.0
 11
122.04557338298662
 21
247.92927287249515
 31
0.0
  0
LINE
  5
1EA
330
17
100
AcDbEntity
  8
0
100
AcDbLine
 10
81.26846649494188
 20
293.0705367448853
 30
2.5
 11
87.9717230944238
 21
285.64986622521513
 31
2.5
  0
LINE
  5
1EB
330
17
100
AcDbEntity
  8
0
100
AcDbLine
 10
81.2684664949418
 20
293.07053674488526
 30
2.5
 11
81.2684664949418
 21
293.07053674488526
 31
5.0
  0
LINE
  5
1EC
330
17
100
AcDbEntity
  8
0
100
AcDbLine
 10
11.756931554004538
 20
295.2308478786401
 30
5.0
 11
-63.605701377741454
 21
222.5391327265859
 31
5.0
  0
LINE
  5
1ED
330
17
100
AcDbEntity
  8
0
100
AcDbLine
 10
11.756931554004538
 20
295.2308478786401
 30
2.5
 11
11.756931554004538
 21
295.2308478786401
 31
5.0
  0
LINE
  5
1EE
330
17
100
AcDbEntity
  8
0
100
AcDbLine
 10
18.95439116104781
 20
302.1732232073716
 30
2.5
 11
11.756931554004538
 21
295.2308478786401
 31
2.5
  0
LINE
  5
1EF
330
17
100
AcDbEntity
  8
0
100
AcDbLine
 10
33.7128559111938
 20
316.40863502838465
 30
5.0
 11
33.7128559111938
 21
316.40863502838465
 31
0.0
  0
LINE
  5
1F0
330
17
100
AcDbEntity
  8
0
100
AcDbLine
 10
-63.605701377741475
 20
222.5391327265859
 30
0.0
 11
33.712855911193685
 21
316.40863502838465
 31
0.0
  0
LINE
  5
1F1
330
17
100
AcDbEntity
  8
0
100
AcDbLine
 10
-63.6057013777413
 20
222.53913272658605
 30
5.0
 11
-63.6057013777413
 21
222.53913272658605
 31
0.0
  0
LINE
  5
1F2
330
17
100
AcDbEntity
  8
0
100
AcDbLine
 10
122.04557338298663
 20
247.92927287249512
 30
0.0
 11
93.68738411918861
 21
253.1204778784483
 31
0.0
  0
LINE
  5
1F3
330
17
100
AcDbEntity
  8
0
100
AcDbLine
 10
93.68738411918861
 20
253.12047787844836
 30
0.0
 11
93.68738411918861
 21
253.12047787844836
 31
5.0
  0
ARC
  5
1F4
330
17
100
AcDbEntity
  8
0
100
AcDbCircle
 10
54.814147057108265
 20
329.81518238314203
 30
0.0
 40
25.0
100
AcDbArc
 50
99.56630598471403
 51
212.4295305017292
  0
LINE
  5
1F5
330
17
100
AcDbEntity
  8
0
100
AcDbLine
 10
50.65942501362166
 20
354.46753084614585
 30
5.0
 11
50.65942501362166
 21
354.46753084614585
 31
0.0
  0
LINE
  5
1F6
330
17
100
AcDbEntity
  8
0
100
AcDbLine
 10
93.6873841191886
 20
253.9526842924803
 30
0.0
 11
93.6873841191886
 21
253.9526842924803
 31
5.0
  0
LINE
  5
1F7
330
17
100
AcDbEntity
  8
0
100
AcDbLine
 10
93.6873841191886
 20
253.1204778784483
 30
0.0
 11
93.6873841191886
 21
253.9526842924803
 31
0.0
  0
LINE
  5
1F8
330
17
100
AcDbEntity
  8
0
100
AcDbLine
 10
51.364546345060965
 20
374.9605061158105
 30
0.0
 11
50.65942501362165
 21
354.46753084614585
 31
0.0
  0
LINE
  5
1F9
330
17
100
AcDbEntity
  8
0
100
AcDbLine
 10
51.364546345060965
 20
374.9605061158105
 30
0.0
 11
51.364546345060965
 21
374.9605061158105
 31
5.0
  0
LINE
  5
1FA
330
17
100
AcDbEntity
  8
0
100
AcDbLine
 10
92.01385786255075
 20
253.9526842924803
 30
0.0
 11
93.6873841191886
 21
253.9526842924803
 31
0.0
  0
LINE
  5
1FB
330
17
100
AcDbEntity
  8
0
100
AcDbLine
 10
92.01385786255074
 20
253.9526842924803
 30
5.0
 11
92.01385786255074
 21
253.9526842924803
 31
0.0
  0
LINE
  5
1FC
330
17
100
AcDbEntity
  8
0
100
AcDbLine
 10
61.35863205984301
 20
374.61663008351195
 30
0.0
 11
61.35863205984301
 21
374.61663008351195
 31
5.0
  0
LINE
  5
1FD
330
17
100
AcDbEntity
  8
0
100
AcDbLine
 10
61.35863205984301
 20
374.61663008351195
 30
0.0
 11
51.364546345060965
 21
374.9605061158106
 31
0.0
  0
LINE
  5
1FE
330
17
100
AcDbEntity
  8
0
100
AcDbLine
 10
70.74939027573082
 20
304.71541377377537
 30
0.0
 11
92.01385786255075
 21
253.9526842924803
 31
0.0
  0
LINE
  5
1FF
330
17
100
AcDbEntity
  8
0
100
AcDbLine
 10
60.6535107284037
 20
354.12365481384734
 30
0.0
 11
61.35863205984301
 21
374.61663008351195
 31
0.0
  0
LINE
  5
200
330
17
100
AcDbEntity
  8
0
100
AcDbLine
 10
60.6535107284037
 20
354.1236548138473
 30
5.0
 11
60.6535107284037
 21
354.1236548138473
 31
0.0
  0
ARC
  5
201
330
17
100
AcDbEntity
  8
0
100
AcDbCircle
 10
54.814147057108265
 20
329.81518238314203
 30
0.0
 40
25.0
100
AcDbArc
 50
-36.37083659793066
 51
76.49238791908368
  0
LINE
  5
202
330
17
100
AcDbEntity
  8
0
100
AcDbLine
 10
88.68913701461206
 20
299.7737933443673
 30
2.5
 11
81.26846649494188
 21
293.0705367448854
 31
2.5
  0
LINE
  5
203
330
17
100
AcDbEntity
  8
0
100
AcDbLine
 10
139.38544954426453
 20
-191.03017936720403
 30
0.0
 11
139.38544954426453
 21
-187.572887844493
 31
0.0
  0
LINE
  5
204
330
17
100
AcDbEntity
  8
0
100
AcDbLine
 10
139.38544954426453
 20
-187.572887844493
 30
0.0
 11
266.1448025618681
 21
-1.7112674752338535
 31
0.0
  0
ARC
  5
205
330
17
100
AcDbEntity
  8
0
100
AcDbCircle
 10
275.81555111000193
 20
21.342509276499854
 30
0.0
 40
25.0
100
AcDbArc
 50
-112.75739237218826
 51
74.86744225960868
  0
ARC
  5
206
330
17
100
AcDbEntity
  8
0
100
AcDbCircle
 10
-77.76461719492428
 20
201.93512576478548
 30
0.0
 40
25.0
100
AcDbArc
 50
55.50344856736055
 51
245.2441629155771
  0
ARC
  5
207
330
17
100
AcDbEntity
  8
0
100
AcDbCircle
 10
-45.850317574180316
 20
-330.68480462977385
 30
0.0
 40
25.0
100
AcDbArc
 50
162.07266932710692
 51
221.73685613399195
  0
LINE
  5
208
330
17
100
AcDbEntity
  8
0
100
AcDbLine
 10
-64.50557035349873
 20
-347.32756713302797
 30
0.0
 11
-76.76744750666239
 21
-363.76245685507575
 31
0.0
  0
LINE
  5
209
330
17
100
AcDbEntity
  8
0
100
AcDbLine
 10
-76.76744750666239
 20
-363.76245685507575
 30
0.0
 11
-68.75242311738924
 21
-369.7423719079303
 31
0.0
  0
LINE
  5
20A
330
17
100
AcDbEntity
  8
0
100
AcDbLine
 10
-68.75242311738924
 20
-369.7423719079303
 30
0.0
 11
-56.49054596422587
 21
-353.3074821858829
 31
0.0
  0
ARC
  5
20B
330
17
100
AcDbEntity
  8
0
100
AcDbCircle
 10
-45.850317574180316
 20
-330.68480462977385
 30
0.0
 40
25.0
100
AcDbArc
 50
244.8107741996228
 51
304.4749610065124
  0
LINE
  5
20C
330
17
100
AcDbEntity
  8
0
100
AcDbLine
 10
-31.699166846860827
 20
-351.2941455482187
 30
0.0
 11
-16.946067389561165
 21
-365.5351177024701
 31
0.0
  0
LINE
  5
20D
330
17
100
AcDbEntity
  8
0
100
AcDbLine
 10
-16.94606738956116
 20
-365.53511770247013
 30
0.0
 11
-10.000980378106352
 21
-358.3402746601709
 31
0.0
  0
LINE
  5
20E
330
17
100
AcDbEntity
  8
0
100
AcDbLine
 10
-10.000980378106355
 20
-358.34027466017085
 30
0.0
 11
-24.754079835406042
 21
-344.0993025059194
 31
0.0
  0
ARC
  5
20F
330
17
100
AcDbEntity
  8
0
100
AcDbCircle
 10
-45.850317574180316
 20
-330.68480462977385
 30
0.0
 40
25.0
100
AcDbArc
 50
-32.45112092785637
 51
27.213065879032417
  0
LINE
  5
210
330
17
100
AcDbEntity
  8
0
100
AcDbLine
 10
2.3698385096763976
 20
-298.395211478937
 30
0.0
 11
-23.617514765127652
 21
-319.25228612973245
 31
0.0
  0
LINE
  5
211
330
17
100
AcDbEntity
  8
0
100
AcDbLine
 10
2.369838509676427
 20
-298.395211478937
 30
0.0
 11
53.35739678670555
 21
-333.09800008660824
 31
0.0
  0
ARC
  5
212
330
17
100
AcDbEntity
  8
0
100
AcDbCircle
 10
76.42038623843698
 20
-342.7467573925685
 30
0.0
 40
25.0
100
AcDbArc
 50
157.29725175709646
 51
228.87056304913398
  0
LINE
  5
213
330
17
100
AcDbEntity
  8
0
100
AcDbLine
 10
59.97632827413271
 20
-361.5773961939104
 30
0.0
 11
49.85034041525991
 21
-379.4078084543462
 31
0.0
  0
LINE
  5
214
330
17
100
AcDbEntity
  8
0
100
AcDbLine
 10
49.85034041525991
 20
-379.4078084543462
 30
0.0
 11
58.545938107434935
 21
-384.3460855603661
 31
0.0
  0
LINE
  5
215
330
17
100
AcDbEntity
  8
0
100
AcDbLine
 10
58.545938107434935
 20
-384.3460855603661
 30
0.0
 11
68.67192596630765
 21
-366.5156732999304
 31
0.0
  0
ARC
  5
216
330
17
100
AcDbEntity
  8
0
100
AcDbCircle
 10
76.42038623843698
 20
-342.7467573925685
 30
0.0
 40
25.0
100
AcDbArc
 50
251.94448111476382
 51
323.5177924068033
  0
LINE
  5
217
330
17
100
AcDbEntity
  8
0
100
AcDbLine
 10
96.52142463323828
 20
-357.61108568047746
 30
0.0
 11
115.11363128840519
 21
-366.25915385705315
 31
0.0
  0
LINE
  5
218
330
17
100
AcDbEntity
  8
0
100
AcDbLine
 10
115.11363128840519
 20
-366.25915385705315
 30
0.0
 11
119.33115136475625
 21
-357.19204161524345
 31
0.0
  0
LINE
  5
219
330
17
100
AcDbEntity
  8
0
100
AcDbLine
 10
119.33115136475625
 20
-357.19204161524345
 30
0.0
 11
100.73894470958915
 21
-348.5439734386677
 31
0.0
  0
ARC
  5
21A
330
17
100
AcDbEntity
  8
0
100
AcDbCircle
 10
76.42038623843698
 20
-342.7467573925685
 30
0.0
 40
25.0
100
AcDbArc
 50
-13.408289527566149
 51
58.165021764470744
  0
LINE
  5
21B
330
17
100
AcDbEntity
  8
0
100
AcDbLine
 10
89.60724984665998
 20
-321.50748649693463
 30
0.0
 11
137.86714336299656
 21
-191.03017936720406
 31
0.0
  0
LINE
  5
21C
330
17
100
AcDbEntity
  8
0
100
AcDbLine
 10
137.86714336299656
 20
-191.03017936720403
 30
0.0
 11
139.38544954426453
 21
-191.03017936720403
 31
0.0
  0
ARC
  5
21D
330
17
100
AcDbEntity
  8
0
100
AcDbCircle
 10
-78.3605902662724
 20
-237.40083204058405
 30
0.0
 40
25.0
100
AcDbArc
 50
117.96358489194263
 51
204.55650025888983
  0
LINE
  5
21E
330
17
100
AcDbEntity
  8
0
100
AcDbLine
 10
-101.0993875926597
 20
-247.7905912365178
 30
0.0
 11
-117.66868212145776
 21
-259.8702315586911
 31
0.0
  0
LINE
  5
21F
330
17
100
AcDbEntity
  8
0
100
AcDbLine
 10
-117.66868212145776
 20
-259.8702315586911
 30
0.0
 11
-111.77764096247851
 21
-267.9508029532902
 31
0.0
  0
LINE
  5
220
330
17
100
AcDbEntity
  8
0
100
AcDbLine
 10
-111.77764096247851
 20
-267.9508029532902
 30
0.0
 11
-95.20834643368012
 21
-255.87116263111662
 31
0.0
  0
ARC
  5
221
330
17
100
AcDbEntity
  8
0
100
AcDbCircle
 10
-78.3605902662724
 20
-237.40083204058405
 30
0.0
 40
25.0
100
AcDbArc
 50
227.6304183245213
 51
314.22333369146486
  0
LINE
  5
222
330
17
100
AcDbEntity
  8
0
100
AcDbLine
 10
-60.924165098928114
 20
-255.3164977380567
 30
0.0
 11
-6.275273243838043
 21
-292.5112371171549
 31
0.0
  0
LINE
  5
223
330
17
100
AcDbEntity
  8
0
100
AcDbLine
 10
-29.876752877857097
 20
-311.45344402028087
 30
0.0
 11
-6.275273243838036
 21
-292.5112371171549
 31
0.0
  0
ARC
  5
224
330
17
100
AcDbEntity
  8
0
100
AcDbCircle
 10
-45.850317574180316
 20
-330.68480462977385
 30
0.0
 40
25.0
100
AcDbArc
 50
50.286983944664755
 51
138.99875126147487
  0
LINE
  5
225
330
17
100
AcDbEntity
  8
0
100
AcDbLine
 10
128.8545156737498
 20
-184.05801892302094
 30
0.0
 11
1.8803586310049525
 21
-285.9656446884358
 31
0.0
  0
LINE
  5
226
330
17
100
AcDbEntity
  8
0
100
AcDbLine
 10
-55.29760081454096
 20
-247.04958934654428
 30
0.0
 11
1.8803586310049099
 21
-285.96564468843576
 31
0.0
  0
ARC
  5
227
330
17
100
AcDbEntity
  8
0
100
AcDbCircle
 10
-78.3605902662724
 20
-237.40083204058405
 30
0.0
 40
25.0
100
AcDbArc
 50
-22.702748242903315
 51
24.556500258889713
  0
LINE
  5
228
330
17
100
AcDbEntity
  8
0
100
AcDbLine
 10
-55.621792939885125
 20
-227.01107284465033
 30
0.0
 11
-39.05249841108703
 21
-214.931432522477
 31
0.0
  0
LINE
  5
229
330
17
100
AcDbEntity
  8
0
100
AcDbLine
 10
-39.05249841108703
 20
-214.931432522477
 30
0.0
 11
-44.94353957006627
 21
-206.85086112787795
 31
0.0
  0
LINE
  5
22A
330
17
100
AcDbEntity
  8
0
100
AcDbLine
 10
-44.94353957006628
 20
-206.85086112787792
 30
0.0
 11
-61.51283409886456
 21
-218.9305014500514
 31
0.0
  0
ARC
  5
22B
330
17
100
AcDbEntity
  8
0
100
AcDbCircle
 10
-78.3605902662724
 20
-237.40083204058405
 30
0.0
 40
25.0
100
AcDbArc
 50
47.63041832452054
 51
94.88966682631123
  0
LINE
  5
22C
330
17
100
AcDbEntity
  8
0
100
AcDbLine
 10
80.2282405655143
 20
-318.0384542249338
 30
0.0
 11
123.43128353015388
 21
-201.23304304166996
 31
0.0
  0
ARC
  5
22D
330
17
100
AcDbEntity
  8
0
100
AcDbCircle
 10
76.42038623843698
 20
-342.7467573925685
 30
0.0
 40
25.0
100
AcDbArc
 50
81.23893983010323
 51
134.22333369146583
  0
LINE
  5
22E
330
17
100
AcDbEntity
  8
0
100
AcDbLine
 10
10.525470384519338
 20
-291.84961905021777
 30
0.0
 11
58.98396107109252
 21
-324.8310916950957
 31
0.0
  0
LINE
  5
22F
330
17
100
AcDbEntity
  8
0
100
AcDbLine
 10
10.525470384519377
 20
-291.84961905021777
 30
0.0
 11
123.43128353015386
 21
-201.23304304166996
 31
0.0
  0
ARC
  5
230
330
17
100
AcDbEntity
  8
0
100
AcDbCircle
 10
275.81555111000193
 20
21.342509276499854
 30
0.0
 40
25.0
100
AcDbArc
 50
184.09372254957466
 51
224.1686895621821
  0
LINE
  5
231
330
17
100
AcDbEntity
  8
0
100
AcDbLine
 10
136.8444247129465
 20
-173.55070623987154
 30
0.0
 11
257.88326409599335
 21
3.923178564695178
 31
0.0
  0
ARC
  5
232
330
17
100
AcDbEntity
  8
0
100
AcDbCircle
 10
-77.76461719492428
 20
201.93512576478548
 30
0.0
 40
25.0
100
AcDbArc
 50
-82.26451017890946
 51
4.2363909927180385
  0
ARC
  5
233
330
17
100
AcDbEntity
  8
0
100
AcDbCircle
 10
-77.76461719492428
 20
201.93512576478548
 30
0.0
 40
25.0
100
AcDbArc
 50
27.310309058350427
 51
32.429530501729595
  0
ARC
  5
234
330
17
100
AcDbEntity
  8
0
100
AcDbCircle
 10
275.81555111000193
 20
21.342509276499854
 30
0.0
 40
25.0
100
AcDbArc
 50
129.38800048278696
 51
161.01980448394403
  0
ARC
  5
235
330
17
100
AcDbEntity
  8
0
100
AcDbCircle
 10
275.81555111000193
 20
21.342509276499854
 30
0.0
 40
25.0
100
AcDbArc
 50
97.94136032524226
 51
106.31408241715489
  0
LINE
  5
236
330
17
100
AcDbEntity
  8
0
100
AcDbLine
 10
-95.88192885217097
 20
-195.65154828435294
 30
2.5
 11
-86.29010220846418
 21
-192.823676003454
 31
2.5
  0
LINE
  5
237
330
17
100
AcDbEntity
  8
0
100
AcDbLine
 10
-86.29010220846416
 20
-192.823676003454
 30
5.0
 11
-95.88192885217096
 21
-195.65154828435294
 31
5.0
  0
LINE
  5
238
330
17
100
AcDbEntity
  8
0
100
AcDbLine
 10
139.38544954426453
 20
-191.03017936720403
 30
5.0
 11
139.38544954426453
 21
-187.572887844493
 31
5.0
  0
LINE
  5
239
330
17
100
AcDbEntity
  8
0
100
AcDbLine
 10
139.38544954426453
 20
-187.572887844493
 30
5.0
 11
248.9568671233304
 21
-26.91317530577615
 31
5.0
  0
LINE
  5
23A
330
17
100
AcDbEntity
  8
0
100
AcDbLine
 10
248.95686712333043
 20
-26.91317530577615
 30
5.0
 11
240.69532865745558
 21
-21.278729265847257
 31
5.0
  0
LINE
  5
23B
330
17
100
AcDbEntity
  8
0
100
AcDbLine
 10
240.69532865745555
 20
-21.27872926584726
 30
5.0
 11
136.8444247129465
 21
-173.55070623987157
 31
5.0
  0
LINE
  5
23C
330
17
100
AcDbEntity
  8
0
100
AcDbLine
 10
110.45849238316738
 20
-49.421490165035664
 30
5.0
 11
100.67703966088004
 21
-51.500716617747706
 31
5.0
  0
LINE
  5
23D
330
17
100
AcDbEntity
  8
0
100
AcDbLine
 10
128.8545156737498
 20
-184.05801892302094
 30
5.0
 11
1.8803586310049525
 21
-285.9656446884358
 31
5.0
  0
LINE
  5
23E
330
17
100
AcDbEntity
  8
0
100
AcDbLine
 10
1.880358631004924
 20
-285.9656446884358
 30
5.0
 11
-55.29760081454093
 21
-247.04958934654434
 31
5.0
  0
ARC
  5
23F
330
17
100
AcDbEntity
  8
0
100
AcDbCircle
 10
-78.3605902662724
 20
-237.40083204058405
 30
5.0
 40
25.0
100
AcDbArc
 50
-22.702748242903454
 51
24.556500258889685
  0
LINE
  5
240
330
17
100
AcDbEntity
  8
0
100
AcDbLine
 10
-55.621792939885125
 20
-227.01107284465033
 30
5.0
 11
-39.05249841108703
 21
-214.931432522477
 31
5.0
  0
LINE
  5
241
330
17
100
AcDbEntity
  8
0
100
AcDbLine
 10
-39.05249841108703
 20
-214.931432522477
 30
5.0
 11
-44.94353957006627
 21
-206.85086112787795
 31
5.0
  0
LINE
  5
242
330
17
100
AcDbEntity
  8
0
100
AcDbLine
 10
-44.94353957006628
 20
-206.85086112787792
 30
5.0
 11
-61.51283409886456
 21
-218.9305014500514
 31
5.0
  0
ARC
  5
243
330
17
100
AcDbEntity
  8
0
100
AcDbCircle
 10
-78.3605902662724
 20
-237.40083204058405
 30
5.0
 40
25.0
100
AcDbArc
 50
47.63041832452054
 51
94.88966682631127
  0
ARC
  5
244
330
17
100
AcDbEntity
  8
0
100
AcDbCircle
 10
-78.3605902662724
 20
-237.40083204058405
 30
5.0
 40
25.0
100
AcDbArc
 50
117.96358489194263
 51
204.55650025888983
  0
LINE
  5
245
330
17
100
AcDbEntity
  8
0
100
AcDbLine
 10
-101.0993875926597
 20
-247.7905912365178
 30
5.0
 11
-117.66868212145776
 21
-259.8702315586911
 31
5.0
  0
LINE
  5
246
330
17
100
AcDbEntity
  8
0
100
AcDbLine
 10
-117.66868212145776
 20
-259.8702315586911
 30
5.0
 11
-111.77764096247851
 21
-267.9508029532902
 31
5.0
  0
LINE
  5
247
330
17
100
AcDbEntity
  8
0
100
AcDbLine
 10
-111.77764096247851
 20
-267.9508029532902
 30
5.0
 11
-95.20834643368012
 21
-255.87116263111662
 31
5.0
  0
ARC
  5
248
330
17
100
AcDbEntity
  8
0
100
AcDbCircle
 10
-78.3605902662724
 20
-237.40083204058405
 30
5.0
 40
25.0
100
AcDbArc
 50
227.6304183245213
 51
314.2233336914648
  0
LINE
  5
249
330
17
100
AcDbEntity
  8
0
100
AcDbLine
 10
-60.92416509892813
 20
-255.31649773805674
 30
5.0
 11
-5.590554945676232
 21
-292.9772652063569
 31
5.0
  0
LINE
  5
24A
330
17
100
AcDbEntity
  8
0
100
AcDbLine
 10
-5.590554945676217
 20
-292.9772652063569
 30
5.0
 11
0.17293308416977826
 21
-300.15841606449027
 31
5.0
  0
LINE
  5
24B
330
17
100
AcDbEntity
  8
0
100
AcDbLine
 10
0.17293308416978448
 20
-300.15841606449027
 30
5.0
 11
2.369838509676329
 21
-298.395211478937
 31
5.0
  0
LINE
  5
24C
330
17
100
AcDbEntity
  8
0
100
AcDbLine
 10
2.369838509676299
 20
-298.395211478937
 30
5.0
 11
28.139107942924895
 21
-315.9341080241955
 31
5.0
  0
LINE
  5
24D
330
17
100
AcDbEntity
  8
0
100
AcDbLine
 10
28.139107942924895
 20
-315.93410802419544
 30
5.0
 11
33.76567222731205
 21
-307.667199632683
 31
5.0
  0
LINE
  5
24E
330
17
100
AcDbEntity
  8
0
100
AcDbLine
 10
33.76567222731204
 20
-307.66719963268304
 30
5.0
 11
10.52547038451933
 21
-291.8496190502178
 31
5.0
  0
LINE
  5
24F
330
17
100
AcDbEntity
  8
0
100
AcDbLine
 10
10.525470384519325
 20
-291.8496190502178
 30
5.0
 11
123.43128353015386
 21
-201.23304304166996
 31
5.0
  0
LINE
  5
250
330
17
100
AcDbEntity
  8
0
100
AcDbLine
 10
123.43128353015388
 20
-201.23304304166996
 30
5.0
 11
80.22824056551433
 21
-318.0384542249338
 31
5.0
  0
ARC
  5
251
330
17
100
AcDbEntity
  8
0
100
AcDbCircle
 10
76.42038623843698
 20
-342.7467573925685
 30
5.0
 40
25.0
100
AcDbArc
 50
81.2389398301032
 51
134.22333369146534
  0
LINE
  5
252
330
17
100
AcDbEntity
  8
0
100
AcDbLine
 10
58.98396107109264
 20
-324.8310916950958
 30
5.0
 11
42.03258061882453
 21
-313.2937639170701
 31
5.0
  0
LINE
  5
253
330
17
100
AcDbEntity
  8
0
100
AcDbLine
 10
42.03258061882454
 20
-313.2937639170701
 30
5.0
 11
36.40601633443739
 21
-321.5606723085826
 31
5.0
  0
LINE
  5
254
330
17
100
AcDbEntity
  8
0
100
AcDbLine
 10
36.406016334437396
 20
-321.5606723085825
 30
5.0
 11
53.35739678670554
 21
-333.09800008660824
 31
5.0
  0
ARC
  5
255
330
17
100
AcDbEntity
  8
0
100
AcDbCircle
 10
76.42038623843698
 20
-342.7467573925685
 30
5.0
 40
25.0
100
AcDbArc
 50
157.29725175709663
 51
228.870563049134
  0
LINE
  5
256
330
17
100
AcDbEntity
  8
0
100
AcDbLine
 10
59.97632827413271
 20
-361.5773961939104
 30
5.0
 11
49.85034041525991
 21
-379.4078084543462
 31
5.0
  0
LINE
  5
257
330
17
100
AcDbEntity
  8
0
100
AcDbLine
 10
49.85034041525991
 20
-379.4078084543462
 30
5.0
 11
58.545938107434935
 21
-384.3460855603661
 31
5.0
  0
LINE
  5
258
330
17
100
AcDbEntity
  8
0
100
AcDbLine
 10
58.545938107434935
 20
-384.3460855603661
 30
5.0
 11
68.67192596630765
 21
-366.5156732999304
 31
5.0
  0
ARC
  5
259
330
17
100
AcDbEntity
  8
0
100
AcDbCircle
 10
76.42038623843698
 20
-342.7467573925685
 30
5.0
 40
25.0
100
AcDbArc
 50
251.94448111476382
 51
323.5177924068033
  0
LINE
  5
25A
330
17
100
AcDbEntity
  8
0
100
AcDbLine
 10
96.52142463323828
 20
-357.61108568047746
 30
5.0
 11
115.11363128840519
 21
-366.25915385705315
 31
5.0
  0
LINE
  5
25B
330
17
100
AcDbEntity
  8
0
100
AcDbLine
 10
115.11363128840519
 20
-366.25915385705315
 30
5.0
 11
119.33115136475625
 21
-357.19204161524345
 31
5.0
  0
LINE
  5
25C
330
17
100
AcDbEntity
  8
0
100
AcDbLine
 10
119.33115136475625
 20
-357.19204161524345
 30
5.0
 11
100.73894470958915
 21
-348.5439734386677
 31
5.0
  0
ARC
  5
25D
330
17
100
AcDbEntity
  8
0
100
AcDbCircle
 10
76.42038623843698
 20
-342.7467573925685
 30
5.0
 40
25.0
100
AcDbArc
 50
-13.408289527566154
 51
58.16502176447082
  0
LINE
  5
25E
330
17
100
AcDbEntity
  8
0
100
AcDbLine
 10
137.86714336299656
 20
-191.03017936720403
 30
5.0
 11
89.60724984666001
 21
-321.5074864969346
 31
5.0
  0
LINE
  5
25F
330
17
100
AcDbEntity
  8
0
100
AcDbLine
 10
137.86714336299656
 20
-191.03017936720403
 30
5.0
 11
139.38544954426453
 21
-191.03017936720403
 31
5.0
  0
LINE
  5
260
330
17
100
AcDbEntity
  8
0
100
AcDbLine
 10
-61.512834098864474
 20
-218.93050145005134
 30
5.0
 11
-61.512834098864474
 21
-218.93050145005134
 31
0.0
  0
LINE
  5
261
330
17
100
AcDbEntity
  8
0
100
AcDbLine
 10
1.8803586310049454
 20
-285.9656446884358
 30
0.0
 11
1.8803586310049454
 21
-285.9656446884358
 31
5.0
  0
LINE
  5
262
330
17
100
AcDbEntity
  8
0
100
AcDbLine
 10
100.67703966088004
 20
-51.500716617747685
 30
2.5
 11
110.45849238316738
 21
-49.42149016503564
 31
2.5
  0
LINE
  5
263
330
17
100
AcDbEntity
  8
0
100
AcDbLine
 10
-101.09938759265957
 20
-247.79059123651768
 30
5.0
 11
-101.09938759265957
 21
-247.79059123651768
 31
0.0
  0
LINE
  5
264
330
17
100
AcDbEntity
  8
0
100
AcDbLine
 10
240.69532865745555
 20
-21.27872926584726
 30
2.5
 11
240.69532865745555
 21
-21.27872926584726
 31
5.0
  0
LINE
  5
265
330
17
100
AcDbEntity
  8
0
100
AcDbLine
 10
246.32977469738444
 20
-13.017190799972411
 30
2.5
 11
240.69532865745555
 21
-21.278729265847254
 31
2.5
  0
LINE
  5
266
330
17
100
AcDbEntity
  8
0
100
AcDbLine
 10
246.3297746973845
 20
-13.01719079997249
 30
2.5
 11
246.3297746973845
 21
-13.01719079997249
 31
5.0
  0
LINE
  5
267
330
17
100
AcDbEntity
  8
0
100
AcDbLine
 10
257.88326409599335
 20
3.9231785646951387
 30
5.0
 11
246.3297746973845
 21
-13.017190799972497
 31
5.0
  0
LINE
  5
268
330
17
100
AcDbEntity
  8
0
100
AcDbLine
 10
257.88326409599335
 20
3.9231785646952844
 30
5.0
 11
257.88326409599335
 21
3.9231785646952844
 31
0.0
  0
LINE
  5
269
330
17
100
AcDbEntity
  8
0
100
AcDbLine
 10
-162.08711191029488
 20
-270.75954653975526
 30
2.5
 11
-157.1683018634975
 21
-262.05292218105427
 31
2.5
  0
LINE
  5
26A
330
17
100
AcDbEntity
  8
0
100
AcDbLine
 10
-157.1683018634975
 20
-262.05292218105427
 30
5.0
 11
-162.08711191029488
 21
-270.75954653975526
 31
5.0
  0
ARC
  5
26B
330
17
100
AcDbEntity
  8
0
100
AcDbCircle
 10
-45.850317574180316
 20
-330.68480462977385
 30
5.0
 40
25.0
100
AcDbArc
 50
-32.45112092785635
 51
27.2130658790324
  0
LINE
  5
26C
330
17
100
AcDbEntity
  8
0
100
AcDbLine
 10
-23.61751476512765
 20
-319.25228612973245
 30
5.0
 11
-7.62590902528212
 21
-306.4176541772193
 31
5.0
  0
LINE
  5
26D
330
17
100
AcDbEntity
  8
0
100
AcDbLine
 10
-7.62590902528212
 20
-306.4176541772193
 30
5.0
 11
-13.885147138011122
 21
-298.61881206776735
 31
5.0
  0
LINE
  5
26E
330
17
100
AcDbEntity
  8
0
100
AcDbLine
 10
-13.885147138011124
 20
-298.61881206776735
 30
5.0
 11
-29.876752877856728
 21
-311.4534440202806
 31
5.0
  0
ARC
  5
26F
330
17
100
AcDbEntity
  8
0
100
AcDbCircle
 10
-45.850317574180316
 20
-330.68480462977385
 30
5.0
 40
25.0
100
AcDbArc
 50
50.28698394466177
 51
138.99875126147487
  0
ARC
  5
270
330
17
100
AcDbEntity
  8
0
100
AcDbCircle
 10
-45.850317574180316
 20
-330.68480462977385
 30
5.0
 40
25.0
100
AcDbArc
 50
162.0726693271068
 51
221.73685613399195
  0
LINE
  5
271
330
17
100
AcDbEntity
  8
0
100
AcDbLine
 10
-64.50557035349873
 20
-347.32756713302797
 30
5.0
 11
-76.76744750666239
 21
-363.76245685507575
 31
5.0
  0
LINE
  5
272
330
17
100
AcDbEntity
  8
0
100
AcDbLine
 10
-76.76744750666239
 20
-363.76245685507575
 30
5.0
 11
-68.75242311738924
 21
-369.7423719079303
 31
5.0
  0
LINE
  5
273
330
17
100
AcDbEntity
  8
0
100
AcDbLine
 10
-68.75242311738924
 20
-369.7423719079303
 30
5.0
 11
-56.49054596422587
 21
-353.3074821858829
 31
5.0
  0
ARC
  5
274
330
17
100
AcDbEntity
  8
0
100
AcDbCircle
 10
-45.850317574180316
 20
-330.68480462977385
 30
5.0
 40
25.0
100
AcDbArc
 50
244.8107741996228
 51
304.4749610065124
  0
LINE
  5
275
330
17
100
AcDbEntity
  8
0
100
AcDbLine
 10
-31.699166846860827
 20
-351.2941455482187
 30
5.0
 11
-16.946067389561165
 21
-365.5351177024701
 31
5.0
  0
LINE
  5
276
330
17
100
AcDbEntity
  8
0
100
AcDbLine
 10
-16.94606738956116
 20
-365.53511770247013
 30
5.0
 11
-10.000980378106352
 21
-358.3402746601709
 31
5.0
  0
LINE
  5
277
330
17
100
AcDbEntity
  8
0
100
AcDbLine
 10
-10.000980378106355
 20
-358.34027466017085
 30
5.0
 11
-24.754079835406042
 21
-344.0993025059194
 31
5.0
  0
LINE
  5
278
330
17
100
AcDbEntity
  8
0
100
AcDbLine
 10
-29.876752877856788
 20
-311.45344402028064
 30
5.0
 11
-29.876752877856788
 21
-311.45344402028064
 31
0.0
  0
LINE
  5
279
330
17
100
AcDbEntity
  8
0
100
AcDbLine
 10
-64.50557035349885
 20
-347.32756713302814
 30
5.0
 11
-64.50557035349885
 21
-347.32756713302814
 31
0.0
  0
LINE
  5
27A
330
17
100
AcDbEntity
  8
0
100
AcDbLine
 10
-75.75909524856247
 20
156.7026387480111
 30
2.5
 11
-83.1382653890079
 21
157.1929527440242
 31
2.5
  0
LINE
  5
27B
330
17
100
AcDbEntity
  8
0
100
AcDbLine
 10
-83.18732277878011
 20
156.98410504054806
 30
2.5
 11
-83.13826538900788
 21
157.1929527440242
 31
2.5
  0
LINE
  5
27C
330
17
100
AcDbEntity
  8
0
100
AcDbLine
 10
-83.18732277878013
 20
156.98410504054806
 30
2.5
 11
-84.44649499970998
 21
157.27987895332927
 31
2.5
  0
LINE
  5
27D
330
17
100
AcDbEntity
  8
0
100
AcDbLine
 10
-84.44649499970994
 20
157.27987895332927
 30
2.5
 11
-85.73709293386321
 21
157.36563361385302
 31
2.5
  0
LINE
  5
27E
330
17
100
AcDbEntity
  8
0
100
AcDbLine
 10
-85.73709293386322
 20
157.36563361385302
 30
2.5
 11
-85.7228695705972
 21
157.57969362103768
 31
2.5
  0
LINE
  5
27F
330
17
100
AcDbEntity
  8
0
100
AcDbLine
 10
-85.72286957059718
 20
157.57969362103768
 30
2.5
 11
-92.92235889912843
 21
159.27082140588806
 31
2.5
  0
LINE
  5
280
330
17
100
AcDbEntity
  8
0
100
AcDbLine
 10
-85.7228695705972
 20
157.57969362103768
 30
5.0
 11
-85.7228695705972
 21
157.57969362103768
 31
2.5
  0
LINE
  5
281
330
17
100
AcDbEntity
  8
0
100
AcDbLine
 10
-92.92235889912851
 20
159.2708214058881
 30
5.0
 11
-85.72286957059718
 21
157.5796936210377
 31
5.0
  0
ARC
  5
282
330
17
100
AcDbEntity
  8
0
100
AcDbCircle
 10
-77.76461719492428
 20
201.93512576478548
 30
5.0
 40
25.0
100
AcDbArc
 50
-82.2645101789094
 51
4.236390992718015
  0
LINE
  5
283
330
17
100
AcDbEntity
  8
0
100
AcDbLine
 10
-33.09994980891576
 20
209.35587284962983
 30
5.0
 11
-35.81827642232083
 21
218.97931820058673
 31
5.0
  0
ARC
  5
284
330
17
100
AcDbEntity
  8
0
100
AcDbCircle
 10
-77.76461719492428
 20
201.93512576478548
 30
5.0
 40
25.0
100
AcDbArc
 50
27.31030905835041
 51
32.42953050172957
  0
LINE
  5
285
330
17
100
AcDbEntity
  8
0
100
AcDbLine
 10
18.69930688273608
 20
288.03338827159683
 30
5.0
 11
11.756931554004531
 21
295.23084787864013
 31
5.0
  0
ARC
  5
286
330
17
100
AcDbEntity
  8
0
100
AcDbCircle
 10
-77.76461719492428
 20
201.93512576478548
 30
5.0
 40
25.0
100
AcDbArc
 50
55.50344856736053
 51
245.24416291557705
  0
LINE
  5
287
330
17
100
AcDbEntity
  8
0
100
AcDbLine
 10
-85.72286957059718
 20
157.5796936210377
 30
5.0
 11
-85.73709293386321
 21
157.36563361385302
 31
5.0
  0
LINE
  5
288
330
17
100
AcDbEntity
  8
0
100
AcDbLine
 10
-85.73709293386321
 20
157.36563361385302
 30
5.0
 11
-84.44649499970984
 21
157.27987895332927
 31
5.0
  0
LINE
  5
289
330
17
100
AcDbEntity
  8
0
100
AcDbLine
 10
-84.44649499970984
 20
157.27987895332924
 30
5.0
 11
-83.18732277878021
 21
156.9841050405481
 31
5.0
  0
LINE
  5
28A
330
17
100
AcDbEntity
  8
0
100
AcDbLine
 10
-83.1873227787802
 20
156.98410504054812
 30
5.0
 11
-83.13826538900798
 21
157.1929527440242
 31
5.0
  0
LINE
  5
28B
330
17
100
AcDbEntity
  8
0
100
AcDbLine
 10
-83.13826538900798
 20
157.1929527440242
 30
5.0
 11
-75.75909524856245
 21
156.7026387480111
 31
5.0
  0
ARC
  5
28C
330
17
100
AcDbEntity
  8
0
100
AcDbCircle
 10
275.81555111000193
 20
21.342509276499854
 30
5.0
 40
25.0
100
AcDbArc
 50
184.09372254957464
 51
224.16868956218215
  0
ARC
  5
28D
330
17
100
AcDbEntity
  8
0
100
AcDbCircle
 10
275.81555111000193
 20
21.342509276499854
 30
5.0
 40
25.0
100
AcDbArc
 50
-112.75739237218829
 51
74.86744225960867
  0
LINE
  5
28E
330
17
100
AcDbEntity
  8
0
100
AcDbLine
 10
289.36821684971403
 20
157.29313982874874
 30
5.0
 11
279.3879013610563
 21
157.92027836755736
 31
5.0
  0
ARC
  5
28F
330
17
100
AcDbEntity
  8
0
100
AcDbCircle
 10
275.81555111000193
 20
21.342509276499854
 30
5.0
 40
25.0
100
AcDbArc
 50
97.9413603252424
 51
106.31408241715489
  0
LINE
  5
290
330
17
100
AcDbEntity
  8
0
100
AcDbLine
 10
259.2135254067517
 20
63.465813308218685
 30
5.0
 11
250.37187392913663
 21
58.79406854331696
 31
5.0
  0
ARC
  5
291
330
17
100
AcDbEntity
  8
0
100
AcDbCircle
 10
275.81555111000193
 20
21.342509276499854
 30
5.0
 40
25.0
100
AcDbArc
 50
129.38800048278696
 51
161.019804483944
  0
LINE
  5
292
330
17
100
AcDbEntity
  8
0
100
AcDbLine
 10
231.84245459901518
 20
32.12985293633774
 30
5.0
 11
230.54701566175777
 21
22.21411605197875
 31
5.0
  0
LINE
  5
293
330
17
100
AcDbEntity
  8
0
100
AcDbLine
 10
246.3297746973845
 20
-13.01719079997249
 30
5.0
 11
254.59131316325934
 21
-18.651636839901382
 31
5.0
  0
LINE
  5
294
330
17
100
AcDbEntity
  8
0
100
AcDbLine
 10
254.59131316325934
 20
-18.65163683990138
 30
5.0
 11
266.1448025618681
 21
-1.7112674752338322
 31
5.0
  0
LINE
  5
295
330
17
100
AcDbEntity
  8
0
100
AcDbLine
 10
230.54701566175777
 20
22.214116051978742
 30
2.5
 11
231.84245459901518
 21
32.129852936337734
 31
2.5
  0
LINE
  5
296
330
17
100
AcDbEntity
  8
0
100
AcDbLine
 10
-83.1382653890079
 20
157.1929527440242
 30
5.0
 11
-83.1382653890079
 21
157.1929527440242
 31
2.5
  0
LINE
  5
297
330
17
100
AcDbEntity
  8
0
100
AcDbLine
 10
250.3718739291366
 20
58.794068543316925
 30
2.5
 11
259.2135254067517
 21
63.46581330821864
 31
2.5
  0
LINE
  5
298
330
17
100
AcDbEntity
  8
0
100
AcDbLine
 10
279.3879013610563
 20
157.9202783675574
 30
2.5
 11
289.36821684971403
 21
157.29313982874876
 31
2.5
  0
LINE
  5
299
330
17
100
AcDbEntity
  8
0
100
AcDbLine
 10
266.1448025618681
 20
-1.7112674752336545
 30
5.0
 11
266.1448025618681
 21
-1.7112674752336545
 31
0.0
  0
LINE
  5
29A
330
17
100
AcDbEntity
  8
0
100
AcDbLine
 10
-35.818276422320835
 20
218.97931820058673
 30
2.5
 11
-33.09994980891577
 21
209.35587284962983
 31
2.5
  0
LINE
  5
29B
330
17
100
AcDbEntity
  8
0
100
AcDbLine
 10
11.756931554004538
 20
295.2308478786401
 30
2.5
 11
18.69930688273609
 21
288.0333882715968
 31
2.5
  0
LINE
  5
29C
330
17
100
AcDbEntity
  8
0
100
AcDbLine
 10
139.38544954426453
 20
-187.57288784449304
 30
5.0
 11
139.38544954426453
 21
-187.57288784449304
 31
0.0
  0
LINE
  5
29D
330
17
100
AcDbEntity
  8
0
100
AcDbLine
 10
139.38544954426453
 20
-191.03017936720403
 30
0.0
 11
139.38544954426453
 21
-191.03017936720403
 31
5.0
  0
LINE
  5
29E
330
17
100
AcDbEntity
  8
0
100
AcDbLine
 10
137.8671433629966
 20
-191.03017936720403
 30
5.0
 11
137.8671433629966
 21
-191.03017936720403
 31
0.0
  0
LINE
  5
29F
330
17
100
AcDbEntity
  8
0
100
AcDbLine
 10
254.59131316325934
 20
-18.65163683990138
 30
2.5
 11
254.59131316325934
 21
-18.65163683990138
 31
5.0
  0
LINE
  5
2A0
330
17
100
AcDbEntity
  8
0
100
AcDbLine
 10
248.95686712333043
 20
-26.91317530577615
 30
2.5
 11
254.59131316325931
 21
-18.651636839901307
 31
2.5
  0
LINE
  5
2A1
330
17
100
AcDbEntity
  8
0
100
AcDbLine
 10
248.95686712333043
 20
-26.91317530577615
 30
2.5
 11
248.95686712333043
 21
-26.91317530577615
 31
5.0
  0
LINE
  5
2A2
330
17
100
AcDbEntity
  8
0
100
AcDbLine
 10
89.60724984666003
 20
-321.5074864969346
 30
5.0
 11
89.60724984666003
 21
-321.5074864969346
 31
0.0
  0
LINE
  5
2A3
330
17
100
AcDbEntity
  8
0
100
AcDbLine
 10
100.7389447095892
 20
-348.5439734386677
 30
5.0
 11
100.7389447095892
 21
-348.5439734386677
 31
0.0
  0
LINE
  5
2A4
330
17
100
AcDbEntity
  8
0
100
AcDbLine
 10
119.33115136475625
 20
-357.19204161524345
 30
0.0
 11
119.33115136475625
 21
-357.19204161524345
 31
5.0
  0
LINE
  5
2A5
330
17
100
AcDbEntity
  8
0
100
AcDbLine
 10
115.11363128840519
 20
-366.25915385705315
 30
0.0
 11
115.11363128840519
 21
-366.25915385705315
 31
5.0
  0
LINE
  5
2A6
330
17
100
AcDbEntity
  8
0
100
AcDbLine
 10
96.52142463323818
 20
-357.61108568047734
 30
5.0
 11
96.52142463323818
 21
-357.61108568047734
 31
0.0
  0
LINE
  5
2A7
330
17
100
AcDbEntity
  8
0
100
AcDbLine
 10
68.67192596630774
 20
-366.51567329993026
 30
5.0
 11
68.67192596630774
 21
-366.51567329993026
 31
0.0
  0
LINE
  5
2A8
330
17
100
AcDbEntity
  8
0
100
AcDbLine
 10
58.545938107434935
 20
-384.3460855603661
 30
0.0
 11
58.545938107434935
 21
-384.3460855603661
 31
5.0
  0
LINE
  5
2A9
330
17
100
AcDbEntity
  8
0
100
AcDbLine
 10
49.85034041525991
 20
-379.4078084543462
 30
0.0
 11
49.85034041525991
 21
-379.4078084543462
 31
5.0
  0
LINE
  5
2AA
330
17
100
AcDbEntity
  8
0
100
AcDbLine
 10
59.97632827413271
 20
-361.5773961939104
 30
5.0
 11
59.97632827413271
 21
-361.5773961939104
 31
0.0
  0
LINE
  5
2AB
330
17
100
AcDbEntity
  8
0
100
AcDbLine
 10
53.357396786705436
 20
-333.0980000866083
 30
5.0
 11
53.357396786705436
 21
-333.0980000866083
 31
0.0
  0
LINE
  5
2AC
330
17
100
AcDbEntity
  8
0
100
AcDbLine
 10
36.406016334437396
 20
-321.5606723085825
 30
2.5
 11
36.406016334437396
 21
-321.5606723085825
 31
5.0
  0
LINE
  5
2AD
330
17
100
AcDbEntity
  8
0
100
AcDbLine
 10
28.139107942924895
 20
-315.93410802419544
 30
2.5
 11
36.40601633443734
 21
-321.5606723085826
 31
2.5
  0
LINE
  5
2AE
330
17
100
AcDbEntity
  8
0
100
AcDbLine
 10
28.139107942924895
 20
-315.93410802419544
 30
2.5
 11
28.139107942924895
 21
-315.93410802419544
 31
5.0
  0
LINE
  5
2AF
330
17
100
AcDbEntity
  8
0
100
AcDbLine
 10
2.369838509676362
 20
-298.395211478937
 30
0.0
 11
2.369838509676362
 21
-298.395211478937
 31
5.0
  0
LINE
  5
2B0
330
17
100
AcDbEntity
  8
0
100
AcDbLine
 10
0.17293308416978448
 20
-300.15841606449027
 30
2.5
 11
0.17293308416978448
 21
-300.15841606449027
 31
5.0
  0
LINE
  5
2B1
330
17
100
AcDbEntity
  8
0
100
AcDbLine
 10
-7.625909025282141
 20
-306.4176541772193
 30
2.5
 11
0.17293308416979247
 21
-300.15841606449027
 31
2.5
  0
LINE
  5
2B2
330
17
100
AcDbEntity
  8
0
100
AcDbLine
 10
-7.62590902528212
 20
-306.4176541772193
 30
2.5
 11
-7.62590902528212
 21
-306.4176541772193
 31
5.0
  0
LINE
  5
2B3
330
17
100
AcDbEntity
  8
0
100
AcDbLine
 10
-23.617514765127797
 20
-319.25228612973257
 30
5.0
 11
-23.617514765127797
 21
-319.25228612973257
 31
0.0
  0
LINE
  5
2B4
330
17
100
AcDbEntity
  8
0
100
AcDbLine
 10
-24.754079835406017
 20
-344.09930250591947
 30
5.0
 11
-24.754079835406017
 21
-344.09930250591947
 31
0.0
  0
LINE
  5
2B5
330
17
100
AcDbEntity
  8
0
100
AcDbLine
 10
-10.000980378106355
 20
-358.34027466017085
 30
0.0
 11
-10.000980378106355
 21
-358.34027466017085
 31
5.0
  0
LINE
  5
2B6
330
17
100
AcDbEntity
  8
0
100
AcDbLine
 10
-16.94606738956116
 20
-365.53511770247013
 30
0.0
 11
-16.94606738956116
 21
-365.53511770247013
 31
5.0
  0
LINE
  5
2B7
330
17
100
AcDbEntity
  8
0
100
AcDbLine
 10
-31.699166846860834
 20
-351.2941455482187
 30
5.0
 11
-31.699166846860834
 21
-351.2941455482187
 31
0.0
  0
LINE
  5
2B8
330
17
100
AcDbEntity
  8
0
100
AcDbLine
 10
-56.4905459642257
 20
-353.30748218588275
 30
5.0
 11
-56.4905459642257
 21
-353.30748218588275
 31
0.0
  0
LINE
  5
2B9
330
17
100
AcDbEntity
  8
0
100
AcDbLine
 10
-68.75242311738924
 20
-369.7423719079303
 30
0.0
 11
-68.75242311738924
 21
-369.7423719079303
 31
5.0
  0
LINE
  5
2BA
330
17
100
AcDbEntity
  8
0
100
AcDbLine
 10
-76.76744750666239
 20
-363.76245685507575
 30
0.0
 11
-76.76744750666239
 21
-363.76245685507575
 31
5.0
  0
LINE
  5
2BB
330
17
100
AcDbEntity
  8
0
100
AcDbLine
 10
-6.275273243838035
 20
-292.51123711715496
 30
2.5
 11
-6.275273243838035
 21
-292.51123711715496
 31
0.0
  0
LINE
  5
2BC
330
17
100
AcDbEntity
  8
0
100
AcDbLine
 10
-13.885147138011124
 20
-298.61881206776735
 30
2.5
 11
-13.885147138011124
 21
-298.61881206776735
 31
5.0
  0
LINE
  5
2BD
330
17
100
AcDbEntity
  8
0
100
AcDbLine
 10
-6.27527324383807
 20
-292.51123711715496
 30
2.5
 11
-13.885147138011156
 21
-298.61881206776735
 31
2.5
  0
LINE
  5
2BE
330
17
100
AcDbEntity
  8
0
100
AcDbLine
 10
-6.27527324383807
 20
-292.51123711715496
 30
2.5
 11
-5.590554945676216
 21
-292.9772652063569
 31
2.5
  0
LINE
  5
2BF
330
17
100
AcDbEntity
  8
0
100
AcDbLine
 10
-5.590554945676283
 20
-292.97726520635683
 30
5.0
 11
-5.590554945676283
 21
-292.97726520635683
 31
2.5
  0
LINE
  5
2C0
330
17
100
AcDbEntity
  8
0
100
AcDbLine
 10
-60.924165098928015
 20
-255.31649773805674
 30
5.0
 11
-60.924165098928015
 21
-255.31649773805674
 31
0.0
  0
LINE
  5
2C1
330
17
100
AcDbEntity
  8
0
100
AcDbLine
 10
-117.66868212145776
 20
-259.8702315586911
 30
0.0
 11
-117.66868212145776
 21
-259.8702315586911
 31
5.0
  0
LINE
  5
2C2
330
17
100
AcDbEntity
  8
0
100
AcDbLine
 10
-95.2083464336803
 20
-255.87116263111676
 30
5.0
 11
-95.2083464336803
 21
-255.87116263111676
 31
0.0
  0
LINE
  5
2C3
330
17
100
AcDbEntity
  8
0
100
AcDbLine
 10
-111.77764096247851
 20
-267.9508029532902
 30
0.0
 11
-111.77764096247851
 21
-267.9508029532902
 31
5.0
  0
LINE
  5
2C4
330
17
100
AcDbEntity
  8
0
100
AcDbLine
 10
-55.297600814540885
 20
-247.0495893465443
 30
5.0
 11
-55.297600814540885
 21
-247.0495893465443
 31
0.0
  0
LINE
  5
2C5
330
17
100
AcDbEntity
  8
0
100
AcDbLine
 10
-55.62179293988522
 20
-227.0110728446504
 30
5.0
 11
-55.62179293988522
 21
-227.0110728446504
 31
0.0
  0
LINE
  5
2C6
330
17
100
AcDbEntity
  8
0
100
AcDbLine
 10
-44.94353957006628
 20
-206.85086112787792
 30
0.0
 11
-44.94353957006628
 21
-206.85086112787792
 31
5.0
  0
LINE
  5
2C7
330
17
100
AcDbEntity
  8
0
100
AcDbLine
 10
-39.05249841108703
 20
-214.931432522477
 30
0.0
 11
-39.05249841108703
 21
-214.931432522477
 31
5.0
  0
LINE
  5
2C8
330
17
100
AcDbEntity
  8
0
100
AcDbLine
 10
123.43128353015388
 20
-201.23304304166993
 30
5.0
 11
123.43128353015388
 21
-201.23304304166993
 31
0.0
  0
LINE
  5
2C9
330
17
100
AcDbEntity
  8
0
100
AcDbLine
 10
80.22824056551441
 20
-318.0384542249336
 30
5.0
 11
80.22824056551441
 21
-318.0384542249336
 31
0.0
  0
LINE
  5
2CA
330
17
100
AcDbEntity
  8
0
100
AcDbLine
 10
58.98396107109254
 20
-324.8310916950959
 30
5.0
 11
58.98396107109254
 21
-324.8310916950959
 31
0.0
  0
LINE
  5
2CB
330
17
100
AcDbEntity
  8
0
100
AcDbLine
 10
10.525470384519327
 20
-291.8496190502178
 30
5.0
 11
10.525470384519327
 21
-291.8496190502178
 31
0.0
  0
LINE
  5
2CC
330
17
100
AcDbEntity
  8
0
100
AcDbLine
 10
33.76567222731204
 20
-307.66719963268304
 30
2.5
 11
33.76567222731204
 21
-307.66719963268304
 31
5.0
  0
LINE
  5
2CD
330
17
100
AcDbEntity
  8
0
100
AcDbLine
 10
42.03258061882448
 20
-313.2937639170702
 30
2.5
 11
33.76567222731204
 21
-307.66719963268304
 31
2.5
  0
LINE
  5
2CE
330
17
100
AcDbEntity
  8
0
100
AcDbLine
 10
42.03258061882454
 20
-313.2937639170701
 30
2.5
 11
42.03258061882454
 21
-313.2937639170701
 31
5.0
  0
LINE
  5
2CF
330
17
100
AcDbEntity
  8
0
100
AcDbLine
 10
240.69532865745555
 20
-21.27872926584726
 30
2.5
 11
248.9568671233304
 21
-26.913175305776154
 31
2.5
  0
LINE
  5
2D0
330
17
100
AcDbEntity
  8
0
100
AcDbLine
 10
0.17293308416978448
 20
-300.15841606449027
 30
2.5
 11
-5.5905549456762555
 21
-292.97726520635683
 31
2.5
  0
LINE
  5
2D1
330
17
100
AcDbEntity
  8
0
100
AcDbLine
 10
33.76567222731204
 20
-307.66719963268304
 30
2.5
 11
28.139107942924884
 21
-315.9341080241955
 31
2.5
  0
LINE
  5
2D2
330
17
100
AcDbEntity
  8
0
100
AcDbLine
 10
36.40601633443734
 20
-321.56067230858264
 30
2.5
 11
42.0325806188245
 21
-313.2937639170702
 31
2.5
  0
LINE
  5
2D3
330
17
100
AcDbEntity
  8
0
100
AcDbLine
 10
254.59131316325931
 20
-18.6516368399013
 30
2.5
 11
246.32977469738447
 21
-13.017190799972408
 31
2.5
  0
LINE
  5
2D4
330
17
100
AcDbEntity
  8
0
100
AcDbLine
 10
-13.885147138011149
 20
-298.61881206776735
 30
2.5
 11
-7.625909025282147
 21
-306.4176541772193
 31
2.5
  0
LINE
  5
2D5
330
17
100
AcDbEntity
  8
0
100
AcDbLine
 10
-83.1873227787802
 20
156.98410504054812
 30
2.5
 11
-83.1873227787802
 21
156.98410504054812
 31
5.0
  0
LINE
  5
2D6
330
17
100
AcDbEntity
  8
0
100
AcDbLine
 10
-84.44649499970981
 20
157.27987895332927
 30
2.5
 11
-84.44649499970981
 21
157.27987895332927
 31
5.0
  0
LINE
  5
2D7
330
17
100
AcDbEntity
  8
0
100
AcDbLine
 10
-85.73709293386321
 20
157.36563361385302
 30
2.5
 11
-85.73709293386321
 21
157.36563361385302
 31
5.0
  0
ENDSEC
  0
SECTION
  2
OBJECTS
  0
DICTIONARY
  5
A
330
0
100
AcDbDictionary
280
0
281
1
  3
ACAD_COLOR
350
B
  3
ACAD_GROUP
350
C
  3
ACAD_LAYOUT
350
D
  3
ACAD_MATERIAL
350
E
  3
ACAD_MLEADERSTYLE
350
F
  3
ACAD_MLINESTYLE
350
10
  3
ACAD_PLOTSETTINGS
350
11
  3
ACAD_PLOTSTYLENAME
350
12
  3
ACAD_SCALELIST
350
14
  3
ACAD_TABLESTYLE
350
15
  3
ACAD_VISUALSTYLE
350
16
  3
EZDXF_META
350
2D
  0
DICTIONARY
  5
B
330
A
100
AcDbDictionary
280
0
281
1
  0
DICTIONARY
  5
C
330
A
100
AcDbDictionary
280
0
281
1
  0
DICTIONARY
  5
D
330
A
100
AcDbDictionary
280
0
281
1
  3
Model
350
1A
  3
Layout1
350
1E
  0
DICTIONARY
  5
E
330
A
100
AcDbDictionary
280
0
281
1
  3
ByBlock
350
1F
  3
ByLayer
350
20
  3
Global
350
21
  0
DICTIONARY
  5
F
330
A
100
AcDbDictionary
280
0
281
1
  3
Standard
350
2C
  0
DICTIONARY
  5
10
330
A
100
AcDbDictionary
280
0
281
1
  3
Standard
350
22
  0
DICTIONARY
  5
11
330
A
100
AcDbDictionary
280
0
281
1
  0
ACDBDICTIONARYWDFLT
  5
12
330
A
100
AcDbDictionary
280
0
281
1
  3
Normal
350
13
100
AcDbDictionaryWithDefault
340
13
  0
ACDBPLACEHOLDER
  5
13
330
12
  0
DICTIONARY
  5
14
330
A
100
AcDbDictionary
280
0
281
1
  0
DICTIONARY
  5
15
330
A
100
AcDbDictionary
280
0
281
1
  0
DICTIONARY
  5
16
330
A
100
AcDbDictionary
280
0
281
1
  0
LAYOUT
  5
1A
330
D
100
AcDbPlotSettings
  1

  2
Adobe PDF
  4
A3
  6

 40
7.5
 41
20.0
 42
7.5
 43
20.0
 44
420.0
 45
297.0
 46
0.0
 47
0.0
 48
0.0
 49
0.0
140
0.0
141
0.0
142
1.0
143
1.0
 70
1024
 72
1
 73
0
 74
5
  7

 75
16
 76
0
 77
2
 78
300
147
1.0
148
0.0
149
0.0
100
AcDbLayout
  1
Model
 70
1
 71
0
 10
0.0
 20
0.0
 11
420.0
 21
297.0
 12
0.0
 22
0.0
 32
0.0
 14
1e+20
 24
1e+20
 34
1e+20
 15
-1e+20
 25
-1e+20
 35
-1e+20
146
0.0
 13
0.0
 23
0.0
 33
0.0
 16
1.0
 26
0.0
 36
0.0
 17
0.0
 27
1.0
 37
0.0
 76
1
330
17
  0
LAYOUT
  5
1E
330
D
100
AcDbPlotSettings
  1

  2
Adobe PDF
  4
A3
  6

 40
7.5
 41
20.0
 42
7.5
 43
20.0
 44
420.0
 45
297.0
 46
0.0
 47
0.0
 48
0.0
 49
0.0
140
0.0
141
0.0
142
1.0
143
1.0
 70
0
 72
1
 73
0
 74
5
  7

 75
16
 76
0
 77
2
 78
300
147
1.0
148
0.0
149
0.0
100
AcDbLayout
  1
Layout1
 70
1
 71
1
 10
0.0
 20
0.0
 11
420.0
 21
297.0
 12
0.0
 22
0.0
 32
0.0
 14
1e+20
 24
1e+20
 34
1e+20
 15
-1e+20
 25
-1e+20
 35
-1e+20
146
0.0
 13
0.0
 23
0.0
 33
0.0
 16
1.0
 26
0.0
 36
0.0
 17
0.0
 27
1.0
 37
0.0
 76
1
330
1B
  0
MATERIAL
  5
1F
102
{ACAD_REACTORS
330
E
102
}
330
E
100
AcDbMaterial
  1
ByBlock
  2

 70
0
 40
1.0
 71
1
 41
1.0
 91
-1023410177
 42
1.0
 72
1
  3

 73
1
 74
1
 75
1
 44
0.5
 73
0
 45
1.0
 46
1.0
 77
1
  4

 78
1
 79
1
170
1
 48
1.0
171
1
  6

172
1
173
1
174
1
140
1.0
141
1.0
175
1
  7

176
1
177
1
178
1
143
1.0
179
1
  8

270
1
271
1
272
1
145
1.0
146
1.0
273
1
  9

274
1
275
1
276
1
 42
1.0
 72
1
  3

 73
1
 74
1
 75
1
 94
63
  0
MATERIAL
  5
20
102
{ACAD_REACTORS
330
E
102
}
330
E
100
AcDbMaterial
  1
ByLayer
  2

 70
0
 40
1.0
 71
1
 41
1.0
 91
-1023410177
 42
1.0
 72
1
  3

 73
1
 74
1
 75
1
 44
0.5
 73
0
 45
1.0
 46
1.0
 77
1
  4

 78
1
 79
1
170
1
 48
1.0
171
1
  6

172
1
173
1
174
1
140
1.0
141
1.0
175
1
  7

176
1
177
1
178
1
143
1.0
179
1
  8

270
1
271
1
272
1
145
1.0
146
1.0
273
1
  9

274
1
275
1
276
1
 42
1.0
 72
1
  3

 73
1
 74
1
 75
1
 94
63
  0
MATERIAL
  5
21
102
{ACAD_REACTORS
330
E
102
}
330
E
100
AcDbMaterial
  1
Global
  2

 70
0
 40
1.0
 71
1
 41
1.0
 91
-1023410177
 42
1.0
 72
1
  3

 73
1
 74
1
 75
1
 44
0.5
 73
0
 45
1.0
 46
1.0
 77
1
  4

 78
1
 79
1
170
1
 48
1.0
171
1
  6

172
1
173
1
174
1
140
1.0
141
1.0
175
1
  7

176
1
177
1
178
1
143
1.0
179
1
  8

270
1
271
1
272
1
145
1.0
146
1.0
273
1
  9

274
1
275
1
276
1
 42
1.0
 72
1
  3

 73
1
 74
1
 75
1
 94
63
  0
MLINESTYLE
  5
22
102
{ACAD_REACTORS
330
10
102
}
330
10
100
AcDbMlineStyle
  2
Standard
 70
0
  3

 62
256
 51
90.0
 52
90.0
 71
2
 49
0.5
 62
256
  6
BYLAYER
 49
-0.5
 62
256
  6
BYLAYER
  0
MLEADERSTYLE
  5
2C
102
{ACAD_REACTORS
330
F
102
}
330
F
100
AcDbMLeaderStyle
179
2
170
2
171
1
172
0
 90
2
 40
0.0
 41
0.0
173
1
 91
-1056964608
 92
-2
290
1
 42
2.0
291
1
 43
8.0
  3
Standard
 44
4.0
300

342
29
174
1
175
1
176
0
178
1
 93
-1056964608
 45
4.0
292
0
297
0
 46
4.0
 94
-1056964608
 47
1.0
 49
1.0
140
1.0
294
1
141
0.0
177
0
142
1.0
295
0
296
0
143
3.75
271
0
272
9
273
9
  0
DICTIONARY
  5
2D
330
A
100
AcDbDictionary
281
1
  3
CREATED_BY_EZDXF
350
2E
  3
WRITTEN_BY_EZDXF
350
2DA
  0
DICTIONARYVAR
  5
2E
330
2D
100
DictionaryVariables
280
0
  1
1.0.2 @ 2023-03-28T19:27:21.244724+00:00
  0
DICTIONARYVAR
  5
2DA
330
2D
100
DictionaryVariables
280
0
  1
1.0.2 @ 2023-03-28T19:27:21.289387+00:00
  0
ENDSEC
  0
EOF
