  0
SECTION
  2
HEADER
  9
$ACADVER
  1
AC1027
  9
$ACADMAINTVER
 70
105
  9
$DWGCODEPAGE
  3
ANSI_1252
  9
$LASTSAVEDBY
  1
ezdxf
  9
$REQUIREDVERSIONS
160
0
  9
$INSBASE
 10
0.0
 20
0.0
 30
0.0
  9
$EXTMIN
 10
1e+20
 20
1e+20
 30
1e+20
  9
$EXTMAX
 10
-1e+20
 20
-1e+20
 30
-1e+20
  9
$LIMMIN
 10
0.0
 20
0.0
  9
$LIMMAX
 10
420.0
 20
297.0
  9
$ORTHOMODE
 70
0
  9
$REGENMODE
 70
1
  9
$FILLMODE
 70
1
  9
$QTEXTMODE
 70
0
  9
$MIRRTEXT
 70
1
  9
$LTSCALE
 40
1.0
  9
$ATTMODE
 70
1
  9
$TEXTSIZE
 40
2.5
  9
$TRACEWID
 40
1.0
  9
$TEXTSTYLE
  7
Standard
  9
$CLAYER
  8
0
  9
$CELTYPE
  6
ByLayer
  9
$CECOLOR
 62
256
  9
$CELTSCALE
 40
1.0
  9
$DISPSILH
 70
0
  9
$DIMSCALE
 40
1.0
  9
$DIMASZ
 40
2.5
  9
$DIMEXO
 40
0.625
  9
$DIMDLI
 40
3.75
  9
$DIMRND
 40
0.0
  9
$DIMDLE
 40
0.0
  9
$DIMEXE
 40
1.25
  9
$DIMTP
 40
0.0
  9
$DIMTM
 40
0.0
  9
$DIMTXT
 40
2.5
  9
$DIMCEN
 40
2.5
  9
$DIMTSZ
 40
0.0
  9
$DIMTOL
 70
0
  9
$DIMLIM
 70
0
  9
$DIMTIH
 70
0
  9
$DIMTOH
 70
0
  9
$DIMSE1
 70
0
  9
$DIMSE2
 70
0
  9
$DIMTAD
 70
1
  9
$DIMZIN
 70
8
  9
$DIMBLK
  1

  9
$DIMASO
 70
1
  9
$DIMSHO
 70
1
  9
$DIMPOST
  1

  9
$DIMAPOST
  1

  9
$DIMALT
 70
0
  9
$DIMALTD
 70
3
  9
$DIMALTF
 40
0.03937007874
  9
$DIMLFAC
 40
1.0
  9
$DIMTOFL
 70
1
  9
$DIMTVP
 40
0.0
  9
$DIMTIX
 70
0
  9
$DIMSOXD
 70
0
  9
$DIMSAH
 70
0
  9
$DIMBLK1
  1

  9
$DIMBLK2
  1

  9
$DIMSTYLE
  2
ISO-25
  9
$DIMCLRD
 70
0
  9
$DIMCLRE
 70
0
  9
$DIMCLRT
 70
0
  9
$DIMTFAC
 40
1.0
  9
$DIMGAP
 40
0.625
  9
$DIMJUST
 70
0
  9
$DIMSD1
 70
0
  9
$DIMSD2
 70
0
  9
$DIMTOLJ
 70
0
  9
$DIMTZIN
 70
8
  9
$DIMALTZ
 70
0
  9
$DIMALTTZ
 70
0
  9
$DIMUPT
 70
0
  9
$DIMDEC
 70
2
  9
$DIMTDEC
 70
2
  9
$DIMALTU
 70
2
  9
$DIMALTTD
 70
3
  9
$DIMTXSTY
  7
Standard
  9
$DIMAUNIT
 70
0
  9
$DIMADEC
 70
0
  9
$DIMALTRND
 40
0.0
  9
$DIMAZIN
 70
0
  9
$DIMDSEP
 70
44
  9
$DIMATFIT
 70
3
  9
$DIMFRAC
 70
0
  9
$DIMLDRBLK
  1

  9
$DIMLUNIT
 70
2
  9
$DIMLWD
 70
-2
  9
$DIMLWE
 70
-2
  9
$DIMTMOVE
 70
0
  9
$DIMFXL
 40
1.0
  9
$DIMFXLON
 70
0
  9
$DIMJOGANG
 40
0.785398163397
  9
$DIMTFILL
 70
0
  9
$DIMTFILLCLR
 70
0
  9
$DIMARCSYM
 70
0
  9
$DIMLTYPE
  6

  9
$DIMLTEX1
  6

  9
$DIMLTEX2
  6

  9
$DIMTXTDIRECTION
 70
0
  9
$LUNITS
 70
2
  9
$LUPREC
 70
4
  9
$SKETCHINC
 40
1.0
  9
$FILLETRAD
 40
10.0
  9
$AUNITS
 70
0
  9
$AUPREC
 70
2
  9
$MENU
  1
.
  9
$ELEVATION
 40
0.0
  9
$PELEVATION
 40
0.0
  9
$THICKNESS
 40
0.0
  9
$LIMCHECK
 70
0
  9
$CHAMFERA
 40
0.0
  9
$CHAMFERB
 40
0.0
  9
$CHAMFERC
 40
0.0
  9
$CHAMFERD
 40
0.0
  9
$SKPOLY
 70
0
  9
$TDCREATE
 40
2460032.643726852
  9
$TDUCREATE
 40
2458532.153996898
  9
$TDUPDATE
 40
2460032.643726852
  9
$TDUUPDATE
 40
2458532.1544311
  9
$TDINDWG
 40
0.0
  9
$TDUSRTIMER
 40
0.0
  9
$USRTIMER
 70
1
  9
$ANGBASE
 50
0.0
  9
$ANGDIR
 70
0
  9
$PDMODE
 70
0
  9
$PDSIZE
 40
0.0
  9
$PLINEWID
 40
0.0
  9
$SPLFRAME
 70
0
  9
$SPLINETYPE
 70
6
  9
$SPLINESEGS
 70
8
  9
$HANDSEED
  5
2F3
  9
$SURFTAB1
 70
6
  9
$SURFTAB2
 70
6
  9
$SURFTYPE
 70
6
  9
$SURFU
 70
6
  9
$SURFV
 70
6
  9
$UCSBASE
  2

  9
$UCSNAME
  2

  9
$UCSORG
 10
0.0
 20
0.0
 30
0.0
  9
$UCSXDIR
 10
1.0
 20
0.0
 30
0.0
  9
$UCSYDIR
 10
0.0
 20
1.0
 30
0.0
  9
$UCSORTHOREF
  2

  9
$UCSORTHOVIEW
 70
0
  9
$UCSORGTOP
 10
0.0
 20
0.0
 30
0.0
  9
$UCSORGBOTTOM
 10
0.0
 20
0.0
 30
0.0
  9
$UCSORGLEFT
 10
0.0
 20
0.0
 30
0.0
  9
$UCSORGRIGHT
 10
0.0
 20
0.0
 30
0.0
  9
$UCSORGFRONT
 10
0.0
 20
0.0
 30
0.0
  9
$UCSORGBACK
 10
0.0
 20
0.0
 30
0.0
  9
$PUCSBASE
  2

  9
$PUCSNAME
  2

  9
$PUCSORG
 10
0.0
 20
0.0
 30
0.0
  9
$PUCSXDIR
 10
1.0
 20
0.0
 30
0.0
  9
$PUCSYDIR
 10
0.0
 20
1.0
 30
0.0
  9
$PUCSORTHOREF
  2

  9
$PUCSORTHOVIEW
 70
0
  9
$PUCSORGTOP
 10
0.0
 20
0.0
 30
0.0
  9
$PUCSORGBOTTOM
 10
0.0
 20
0.0
 30
0.0
  9
$PUCSORGLEFT
 10
0.0
 20
0.0
 30
0.0
  9
$PUCSORGRIGHT
 10
0.0
 20
0.0
 30
0.0
  9
$PUCSORGFRONT
 10
0.0
 20
0.0
 30
0.0
  9
$PUCSORGBACK
 10
0.0
 20
0.0
 30
0.0
  9
$USERI1
 70
0
  9
$USERI2
 70
0
  9
$USERI3
 70
0
  9
$USERI4
 70
0
  9
$USERI5
 70
0
  9
$USERR1
 40
0.0
  9
$USERR2
 40
0.0
  9
$USERR3
 40
0.0
  9
$USERR4
 40
0.0
  9
$USERR5
 40
0.0
  9
$WORLDVIEW
 70
1
  9
$SHADEDGE
 70
3
  9
$SHADEDIF
 70
70
  9
$TILEMODE
 70
1
  9
$MAXACTVP
 70
64
  9
$PINSBASE
 10
0.0
 20
0.0
 30
0.0
  9
$PLIMCHECK
 70
0
  9
$PEXTMIN
 10
1e+20
 20
1e+20
 30
1e+20
  9
$PEXTMAX
 10
-1e+20
 20
-1e+20
 30
-1e+20
  9
$PLIMMIN
 10
0.0
 20
0.0
  9
$PLIMMAX
 10
420.0
 20
297.0
  9
$UNITMODE
 70
0
  9
$VISRETAIN
 70
1
  9
$PLINEGEN
 70
0
  9
$PSLTSCALE
 70
1
  9
$TREEDEPTH
 70
3020
  9
$CMLSTYLE
  2
Standard
  9
$CMLJUST
 70
0
  9
$CMLSCALE
 40
20.0
  9
$PROXYGRAPHICS
 70
1
  9
$MEASUREMENT
 70
1
  9
$CELWEIGHT
370
-1
  9
$ENDCAPS
280
0
  9
$JOINSTYLE
280
0
  9
$LWDISPLAY
290
0
  9
$INSUNITS
 70
6
  9
$HYPERLINKBASE
  1

  9
$STYLESHEET
  1

  9
$XEDIT
290
1
  9
$CEPSNTYPE
380
0
  9
$PSTYLEMODE
290
1
  9
$FINGERPRINTGUID
  2
{26B506DF-6433-4FEF-87D6-7B5E192188A2}
  9
$VERSIONGUID
  2
{91F67234-5697-40E6-9BD5-61C05B83BF74}
  9
$EXTNAMES
290
1
  9
$PSVPSCALE
 40
0.0
  9
$OLESTARTUP
290
0
  9
$SORTENTS
280
127
  9
$INDEXCTL
280
0
  9
$HIDETEXT
280
1
  9
$XCLIPFRAME
280
0
  9
$HALOGAP
280
0
  9
$OBSCOLOR
 70
257
  9
$OBSLTYPE
280
0
  9
$INTERSECTIONDISPLAY
280
0
  9
$INTERSECTIONCOLOR
 70
257
  9
$DIMASSOC
280
2
  9
$PROJECTNAME
  1

  9
$CAMERADISPLAY
290
0
  9
$LENSLENGTH
 40
50.0
  9
$CAMERAHEIGHT
 40
0.0
  9
$STEPSPERSEC
 40
24.0
  9
$STEPSIZE
 40
100.0
  9
$3DDWFPREC
 40
2.0
  9
$PSOLWIDTH
 40
0.005
  9
$PSOLHEIGHT
 40
0.08
  9
$LOFTANG1
 40
1.570796326795
  9
$LOFTANG2
 40
1.570796326795
  9
$LOFTMAG1
 40
0.0
  9
$LOFTMAG2
 40
0.0
  9
$LOFTPARAM
 70
7
  9
$LOFTNORMALS
280
1
  9
$LATITUDE
 40
37.795
  9
$LONGITUDE
 40
-122.394
  9
$NORTHDIRECTION
 40
0.0
  9
$TIMEZONE
 70
-8000
  9
$LIGHTGLYPHDISPLAY
280
1
  9
$TILEMODELIGHTSYNCH
280
1
  9
$CMATERIAL
347
20
  9
$SOLIDHIST
280
0
  9
$SHOWHIST
280
1
  9
$DWFFRAME
280
2
  9
$DGNFRAME
280
2
  9
$REALWORLDSCALE
290
1
  9
$INTERFERECOLOR
 62
256
  9
$CSHADOW
280
0
  9
$SHADOWPLANELOCATION
 40
0.0
  0
ENDSEC
  0
SECTION
  2
CLASSES
  0
CLASS
  1
ACDBDICTIONARYWDFLT
  2
AcDbDictionaryWithDefault
  3
ObjectDBX Classes
 90
0
 91
0
280
0
281
0
  0
CLASS
  1
SUN
  2
AcDbSun
  3
SCENEOE
 90
1153
 91
0
280
0
281
0
  0
CLASS
  1
VISUALSTYLE
  2
AcDbVisualStyle
  3
ObjectDBX Classes
 90
4095
 91
0
280
0
281
0
  0
CLASS
  1
MATERIAL
  2
AcDbMaterial
  3
ObjectDBX Classes
 90
1153
 91
0
280
0
281
0
  0
CLASS
  1
SCALE
  2
AcDbScale
  3
ObjectDBX Classes
 90
1153
 91
0
280
0
281
0
  0
CLASS
  1
TABLESTYLE
  2
AcDbTableStyle
  3
ObjectDBX Classes
 90
4095
 91
0
280
0
281
0
  0
CLASS
  1
MLEADERSTYLE
  2
AcDbMLeaderStyle
  3
ACDB_MLEADERSTYLE_CLASS
 90
4095
 91
0
280
0
281
0
  0
CLASS
  1
DICTIONARYVAR
  2
AcDbDictionaryVar
  3
ObjectDBX Classes
 90
0
 91
0
280
0
281
0
  0
CLASS
  1
CELLSTYLEMAP
  2
AcDbCellStyleMap
  3
ObjectDBX Classes
 90
1152
 91
0
280
0
281
0
  0
CLASS
  1
MENTALRAYRENDERSETTINGS
  2
AcDbMentalRayRenderSettings
  3
SCENEOE
 90
1024
 91
0
280
0
281
0
  0
CLASS
  1
ACDBDETAILVIEWSTYLE
  2
AcDbDetailViewStyle
  3
ObjectDBX Classes
 90
1025
 91
0
280
0
281
0
  0
CLASS
  1
ACDBSECTIONVIEWSTYLE
  2
AcDbSectionViewStyle
  3
ObjectDBX Classes
 90
1025
 91
0
280
0
281
0
  0
CLASS
  1
RASTERVARIABLES
  2
AcDbRasterVariables
  3
ISM
 90
0
 91
0
280
0
281
0
  0
CLASS
  1
LAYOUT
  2
AcDbLayout
  3
ObjectDBX Classes
 90
0
 91
0
280
0
281
0
  0
CLASS
  1
ACDBPLACEHOLDER
  2
AcDbPlaceHolder
  3
ObjectDBX Classes
 90
0
 91
0
280
0
281
0
  0
ENDSEC
  0
SECTION
  2
TABLES
  0
TABLE
  2
VPORT
  5
8
330
0
100
AcDbSymbolTable
 70
1
  0
VPORT
  5
23
330
8
100
AcDbSymbolTableRecord
100
AcDbViewportTableRecord
  2
*Active
 70
0
 10
0.0
 20
0.0
 11
1.0
 21
1.0
 12
0.0
 22
0.0
 13
0.0
 23
0.0
 14
0.5
 24
0.5
 15
0.5
 25
0.5
 16
0.0
 26
0.0
 36
1.0
 17
0.0
 27
0.0
 37
0.0
 40
1000.0
 41
1.34
 42
50.0
 43
0.0
 44
0.0
 50
0.0
 51
0.0
 71
0
 72
1000
 73
1
 74
3
 75
0
 76
0
 77
0
 78
0
281
0
 65
0
146
0.0
  0
ENDTAB
  0
TABLE
  2
LTYPE
  5
2
330
0
100
AcDbSymbolTable
 70
3
  0
LTYPE
  5
24
330
2
100
AcDbSymbolTableRecord
100
AcDbLinetypeTableRecord
  2
ByBlock
 70
0
  3

 72
65
 73
0
 40
0.0
  0
LTYPE
  5
25
330
2
100
AcDbSymbolTableRecord
100
AcDbLinetypeTableRecord
  2
ByLayer
 70
0
  3

 72
65
 73
0
 40
0.0
  0
LTYPE
  5
26
330
2
100
AcDbSymbolTableRecord
100
AcDbLinetypeTableRecord
  2
Continuous
 70
0
  3

 72
65
 73
0
 40
0.0
  0
ENDTAB
  0
TABLE
  2
LAYER
  5
1
330
0
100
AcDbSymbolTable
 70
2
  0
LAYER
  5
27
330
1
100
AcDbSymbolTableRecord
100
AcDbLayerTableRecord
  2
0
 70
0
 62
7
  6
Continuous
370
-3
390
13
347
21
  0
LAYER
  5
28
330
1
100
AcDbSymbolTableRecord
100
AcDbLayerTableRecord
  2
Defpoints
 70
0
 62
7
  6
Continuous
290
0
370
-3
390
13
347
21
  0
ENDTAB
  0
TABLE
  2
STYLE
  5
5
330
0
100
AcDbSymbolTable
 70
1
  0
STYLE
  5
29
330
5
100
AcDbSymbolTableRecord
100
AcDbTextStyleTableRecord
  2
Standard
 70
0
 40
0.0
 41
1.0
 50
0.0
 71
0
 42
2.5
  3
txt
  4

  0
ENDTAB
  0
TABLE
  2
VIEW
  5
7
330
0
100
AcDbSymbolTable
 70
0
  0
ENDTAB
  0
TABLE
  2
UCS
  5
6
330
0
100
AcDbSymbolTable
 70
0
  0
ENDTAB
  0
TABLE
  2
APPID
  5
3
330
0
100
AcDbSymbolTable
 70
3
  0
APPID
  5
2A
330
3
100
AcDbSymbolTableRecord
100
AcDbRegAppTableRecord
  2
ACAD
 70
0
  0
APPID
  5
2F0
330
3
100
AcDbSymbolTableRecord
100
AcDbRegAppTableRecord
  2
HATCHBACKGROUNDCOLOR
 70
0
  0
APPID
  5
2F1
330
3
100
AcDbSymbolTableRecord
100
AcDbRegAppTableRecord
  2
EZDXF
 70
0
  0
ENDTAB
  0
TABLE
  2
DIMSTYLE
  5
4
330
0
100
AcDbSymbolTable
 70
1
100
AcDbDimStyleTable
  0
DIMSTYLE
105
2B
330
4
100
AcDbSymbolTableRecord
100
AcDbDimStyleTableRecord
  2
Standard
 70
0
 40
1.0
 41
2.5
 42
0.625
 43
3.75
 44
1.25
 45
0.0
 46
0.0
 47
0.0
 48
0.0
 49
2.5
140
2.5
141
2.5
142
0.0
143
0.03937007874
144
1.0
145
0.0
146
1.0
147
0.625
148
0.0
 69
0
 70
0
 71
0
 72
0
 73
0
 74
0
 75
0
 76
0
 77
1
 78
8
 79
3
170
0
171
3
172
1
173
0
174
0
175
0
176
0
177
0
178
0
179
2
271
2
272
2
273
2
274
3
275
0
276
0
277
2
278
44
279
0
280
0
281
0
282
0
283
0
284
8
285
0
286
0
288
0
289
3
290
0
371
-2
372
-2
  0
ENDTAB
  0
TABLE
  2
BLOCK_RECORD
  5
9
330
0
100
AcDbSymbolTable
 70
2
  0
BLOCK_RECORD
  5
17
330
9
100
AcDbSymbolTableRecord
100
AcDbBlockTableRecord
  2
*Model_Space
340
1A
 70
0
280
1
281
0
  0
BLOCK_RECORD
  5
1B
330
9
100
AcDbSymbolTableRecord
100
AcDbBlockTableRecord
  2
*Paper_Space
340
1E
 70
0
280
1
281
0
  0
ENDTAB
  0
ENDSEC
  0
SECTION
  2
BLOCKS
  0
BLOCK
  5
18
330
17
100
AcDbEntity
  8
0
100
AcDbBlockBegin
  2
*Model_Space
 70
0
 10
0.0
 20
0.0
 30
0.0
  3
*Model_Space
  1

  0
ENDBLK
  5
19
330
17
100
AcDbEntity
  8
0
100
AcDbBlockEnd
  0
BLOCK
  5
1C
330
1B
100
AcDbEntity
  8
0
100
AcDbBlockBegin
  2
*Paper_Space
 70
0
 10
0.0
 20
0.0
 30
0.0
  3
*Paper_Space
  1

  0
ENDBLK
  5
1D
330
1B
100
AcDbEntity
  8
0
100
AcDbBlockEnd
  0
ENDSEC
  0
SECTION
  2
ENTITIES
  0
LINE
  5
2F
330
17
100
AcDbEntity
  8
0
100
AcDbLine
 10
-306.94488368735404
 20
33.019648130511236
 30
0.0
 11
-306.94488368735404
 21
37.725407842730434
 31
0.0
  0
LINE
  5
30
330
17
100
AcDbEntity
  8
0
100
AcDbLine
 10
-317.3051084721912
 20
-54.700718374408645
 30
0.0
 11
-306.94488368735387
 21
33.01964813051126
 31
0.0
  0
ARC
  5
31
330
17
100
AcDbEntity
  8
0
100
AcDbCircle
 10
-315.2126246767208
 20
-79.61299469685034
 30
0.0
 40
25.0
100
AcDbArc
 50
94.80123668384205
 51
182.44749902452213
  0
LINE
  5
32
330
17
100
AcDbEntity
  8
0
100
AcDbLine
 10
-340.189818958051
 20
-80.68059285753571
 30
0.0
 11
-360.08717723049494
 21
-85.63582900459616
 31
0.0
  0
LINE
  5
33
330
17
100
AcDbEntity
  8
0
100
AcDbLine
 10
-360.08717723049494
 20
-85.63582900459616
 30
0.0
 11
-357.6705903689465
 21
-95.3394421430406
 31
0.0
  0
LINE
  5
34
330
17
100
AcDbEntity
  8
0
100
AcDbLine
 10
-357.6705903689465
 20
-95.3394421430406
 30
0.0
 11
-337.7732320965022
 21
-90.38420599598008
 31
0.0
  0
ARC
  5
35
330
17
100
AcDbEntity
  8
0
100
AcDbCircle
 10
-315.2126246767208
 20
-79.61299469685034
 30
0.0
 40
25.0
100
AcDbArc
 50
205.52141709015183
 51
293.16767943083045
  0
LINE
  5
36
330
17
100
AcDbEntity
  8
0
100
AcDbLine
 10
-262.3249149791046
 20
-164.76134216359367
 30
0.0
 11
-305.3770406173299
 21
-102.59693009117854
 31
0.0
  0
ARC
  5
37
330
17
100
AcDbEntity
  8
0
100
AcDbCircle
 10
-246.94418661258922
 20
-184.47005076957475
 30
0.0
 40
25.0
100
AcDbArc
 50
127.96857150780838
 51
193.87390680241919
  0
LINE
  5
38
330
17
100
AcDbEntity
  8
0
100
AcDbLine
 10
-271.21483120495793
 20
-190.4646993056383
 30
0.0
 11
-289.73614571677024
 21
-199.26357083837854
 31
0.0
  0
LINE
  5
39
330
17
100
AcDbEntity
  8
0
100
AcDbLine
 10
-289.73614571677024
 20
-199.26357083837854
 30
0.0
 11
-285.4450813332723
 21
-208.29611015225234
 31
0.0
  0
LINE
  5
3A
330
17
100
AcDbEntity
  8
0
100
AcDbLine
 10
-285.4450813332723
 20
-208.29611015225234
 30
0.0
 11
-266.9237668214599
 21
-199.49723861951205
 31
0.0
  0
ARC
  5
3B
330
17
100
AcDbEntity
  8
0
100
AcDbCircle
 10
-246.94418661258922
 20
-184.47005076957475
 30
0.0
 40
25.0
100
AcDbArc
 50
216.94782486804982
 51
295.0744106492833
  0
LINE
  5
3C
330
17
100
AcDbEntity
  8
0
100
AcDbLine
 10
-236.34931319402943
 20
-207.11400486873092
 30
0.0
 11
-187.8363531586614
 21
-272.4096872932274
 31
0.0
  0
LINE
  5
3D
330
17
100
AcDbEntity
  8
0
100
AcDbLine
 10
-187.8363531586614
 20
-275.75554501850195
 30
0.0
 11
-187.8363531586614
 21
-272.4096872932274
 31
0.0
  0
LINE
  5
3E
330
17
100
AcDbEntity
  8
0
100
AcDbLine
 10
-187.8363531586614
 20
-275.75554501850195
 30
0.0
 11
-177.8363531586614
 21
-275.75554501850195
 31
0.0
  0
LINE
  5
3F
330
17
100
AcDbEntity
  8
0
100
AcDbLine
 10
-177.8363531586614
 20
-275.75554501850195
 30
0.0
 11
-177.8363531586614
 21
-275.0811702849989
 31
0.0
  0
LINE
  5
40
330
17
100
AcDbEntity
  8
0
100
AcDbLine
 10
-177.8363531586614
 20
-275.0811702849989
 30
0.0
 11
-57.63406762901788
 21
-257.6051281704567
 31
0.0
  0
ARC
  5
41
330
17
100
AcDbEntity
  8
0
100
AcDbCircle
 10
-34.11340135656087
 20
-249.13292313872435
 30
0.0
 40
25.0
100
AcDbArc
 50
-160.19084823888548
 51
13.448531263674544
  0
LINE
  5
42
330
17
100
AcDbEntity
  8
0
100
AcDbLine
 10
155.81541491349472
 20
-166.1424495925314
 30
0.0
 11
-9.798920562485478
 21
-243.3186283651051
 31
0.0
  0
LINE
  5
43
330
17
100
AcDbEntity
  8
0
100
AcDbLine
 10
155.81541491349472
 20
-166.1424495925314
 30
0.0
 11
159.70760580307612
 21
-166.1424495925314
 31
0.0
  0
LINE
  5
44
330
17
100
AcDbEntity
  8
0
100
AcDbLine
 10
159.70760580307612
 20
-166.1424495925314
 30
0.0
 11
159.70760580307612
 21
-163.95112520298036
 31
0.0
  0
LINE
  5
45
330
17
100
AcDbEntity
  8
0
100
AcDbLine
 10
159.70760580307612
 20
-163.95112520298036
 30
0.0
 11
276.9356804348812
 21
-92.53206957070608
 31
0.0
  0
ARC
  5
46
330
17
100
AcDbEntity
  8
0
100
AcDbCircle
 10
295.2528002985546
 20
-75.51786609537918
 30
0.0
 40
25.0
100
AcDbArc
 50
222.88805539738215
 51
287.365211632652
  0
LINE
  5
47
330
17
100
AcDbEntity
  8
0
100
AcDbLine
 10
302.71433403828013
 20
-99.37840913720744
 30
0.0
 11
312.62476896798574
 21
-117.32952361512241
 31
0.0
  0
LINE
  5
48
330
17
100
AcDbEntity
  8
0
100
AcDbLine
 10
312.62476896798574
 20
-117.32952361512241
 30
0.0
 11
321.37923113891884
 21
-112.49636811403403
 31
0.0
  0
LINE
  5
49
330
17
100
AcDbEntity
  8
0
100
AcDbLine
 10
321.3792311389189
 20
-112.49636811403403
 30
0.0
 11
311.4687962092132
 21
-94.54525363611899
 31
0.0
  0
ARC
  5
4A
330
17
100
AcDbEntity
  8
0
100
AcDbCircle
 10
295.2528002985546
 20
-75.51786609537918
 30
0.0
 40
25.0
100
AcDbArc
 50
-49.56087030171711
 51
14.916285933551276
  0
LINE
  5
4B
330
17
100
AcDbEntity
  8
0
100
AcDbLine
 10
319.41037409968675
 20
-69.08267938147209
 30
0.0
 11
337.76855499169096
 21
-59.94832522632809
 31
0.0
  0
LINE
  5
4C
330
17
100
AcDbEntity
  8
0
100
AcDbLine
 10
337.76855499169096
 20
-59.948325226328095
 30
0.0
 11
333.31388127182277
 21
-50.99534348561647
 31
0.0
  0
LINE
  5
4D
330
17
100
AcDbEntity
  8
0
100
AcDbLine
 10
333.31388127182277
 20
-50.99534348561647
 30
0.0
 11
314.95570037981867
 21
-60.129697640760426
 31
0.0
  0
ARC
  5
4E
330
17
100
AcDbEntity
  8
0
100
AcDbCircle
 10
295.2528002985546
 20
-75.51786609537918
 30
0.0
 40
25.0
100
AcDbArc
 50
37.99020399918307
 51
102.46736023445277
  0
LINE
  5
4F
330
17
100
AcDbEntity
  8
0
100
AcDbLine
 10
289.8557150245933
 20
-51.107387391642234
 30
0.0
 11
258.7754508737876
 21
18.68586854788653
 31
0.0
  0
ARC
  5
50
330
17
100
AcDbEntity
  8
0
100
AcDbCircle
 10
241.30375160102295
 20
36.567135967229476
 30
0.0
 40
25.0
100
AcDbArc
 50
314.33625156104785
 51
347.6818114815038
  0
LINE
  5
51
330
17
100
AcDbEntity
  8
0
100
AcDbLine
 10
265.7281990712502
 20
31.233622512282242
 30
0.0
 11
286.2313955805992
 21
30.95404355355565
 31
0.0
  0
LINE
  5
52
330
17
100
AcDbEntity
  8
0
100
AcDbLine
 10
286.23139558059927
 20
30.95404355355565
 30
0.0
 11
286.3677416231234
 21
40.953113998186396
 31
0.0
  0
LINE
  5
53
330
17
100
AcDbEntity
  8
0
100
AcDbLine
 10
286.3677416231233
 20
40.95311399818639
 30
0.0
 11
265.8645451137741
 21
41.232692956912985
 31
0.0
  0
ARC
  5
54
330
17
100
AcDbEntity
  8
0
100
AcDbCircle
 10
241.30375160102295
 20
36.567135967229476
 30
0.0
 40
25.0
100
AcDbArc
 50
10.755729547137944
 51
93.67238697348827
  0
LINE
  5
55
330
17
100
AcDbEntity
  8
0
100
AcDbLine
 10
239.7024674237361
 20
61.515801041408565
 30
0.0
 11
218.13530656657656
 21
109.94661135528108
 31
0.0
  0
ARC
  5
56
330
17
100
AcDbEntity
  8
0
100
AcDbCircle
 10
203.6030733623352
 20
130.28903495960006
 30
0.0
 40
25.0
100
AcDbArc
 50
-54.458721699918215
 51
35.81141738405943
  0
LINE
  5
57
330
17
100
AcDbEntity
  8
0
100
AcDbLine
 10
223.87675430780754
 20
144.91701708022057
 30
0.0
 11
237.76975934725988
 21
159.9982518595379
 31
0.0
  0
LINE
  5
58
330
17
100
AcDbEntity
  8
0
100
AcDbLine
 10
237.76975934725985
 20
159.99825185953793
 30
0.0
 11
230.41489012568996
 21
166.7736410537912
 31
0.0
  0
LINE
  5
59
330
17
100
AcDbEntity
  8
0
100
AcDbLine
 10
230.41489012568996
 20
166.77364105379118
 30
0.0
 11
216.52188508623763
 21
151.69240627447383
 31
0.0
  0
ARC
  5
5A
330
17
100
AcDbEntity
  8
0
100
AcDbCircle
 10
203.6030733623352
 20
130.28903495960006
 30
0.0
 40
25.0
100
AcDbArc
 50
58.885335449690146
 51
101.28615473774562
  0
LINE
  5
5B
330
17
100
AcDbEntity
  8
0
100
AcDbLine
 10
198.71034392507042
 20
154.80558444466698
 30
0.0
 11
170.51665612354523
 21
224.27025686401234
 31
0.0
  0
ARC
  5
5C
330
17
100
AcDbEntity
  8
0
100
AcDbCircle
 10
156.6717801439567
 20
245.08658240695578
 30
0.0
 40
25.0
100
AcDbArc
 50
-56.3722398805984
 51
8.374934473780852
  0
LINE
  5
5D
330
17
100
AcDbEntity
  8
0
100
AcDbLine
 10
181.4051837966628
 20
248.72783820026424
 30
0.0
 11
200.68443905882077
 21
255.71135794547118
 31
0.0
  0
LINE
  5
5E
330
17
100
AcDbEntity
  8
0
100
AcDbLine
 10
200.6844390588208
 20
255.71135794547118
 30
0.0
 11
197.27869177195487
 21
265.11353245023366
 31
0.0
  0
LINE
  5
5F
330
17
100
AcDbEntity
  8
0
100
AcDbLine
 10
197.27869177195487
 20
265.11353245023366
 30
0.0
 11
177.99943650979708
 21
258.1300127050268
 31
0.0
  0
ARC
  5
60
330
17
100
AcDbEntity
  8
0
100
AcDbCircle
 10
156.6717801439567
 20
245.08658240695578
 30
0.0
 40
25.0
100
AcDbArc
 50
31.448852539411444
 51
96.19602689379371
  0
LINE
  5
61
330
17
100
AcDbEntity
  8
0
100
AcDbLine
 10
153.9735197125597
 20
269.9405436736102
 30
0.0
 11
147.7280454258747
 21
289.4713726992685
 31
0.0
  0
LINE
  5
62
330
17
100
AcDbEntity
  8
0
100
AcDbLine
 10
147.7280454258747
 20
289.4713726992685
 30
0.0
 11
138.20318254995442
 21
286.4255579979258
 31
0.0
  0
LINE
  5
63
330
17
100
AcDbEntity
  8
0
100
AcDbLine
 10
138.20318254995442
 20
286.4255579979258
 30
0.0
 11
144.44865683663937
 21
266.8947289722676
 31
0.0
  0
ARC
  5
64
330
17
100
AcDbEntity
  8
0
100
AcDbCircle
 10
156.6717801439567
 20
245.08658240695578
 30
0.0
 40
25.0
100
AcDbArc
 50
119.2699449594237
 51
184.01711931380817
  0
LINE
  5
65
330
17
100
AcDbEntity
  8
0
100
AcDbLine
 10
-0.45757819599700633
 20
206.54107294741547
 30
0.0
 11
131.73320106128068
 21
243.33521912735458
 31
0.0
  0
LINE
  5
66
330
17
100
AcDbEntity
  8
0
100
AcDbLine
 10
-4.774704589265504
 20
206.54107294741547
 30
0.0
 11
-0.4575781959970051
 21
206.54107294741547
 31
0.0
  0
LINE
  5
67
330
17
100
AcDbEntity
  8
0
100
AcDbLine
 10
-4.774704589265504
 20
204.96131532479788
 30
0.0
 11
-4.774704589265504
 21
206.54107294741547
 31
0.0
  0
LINE
  5
68
330
17
100
AcDbEntity
  8
0
100
AcDbLine
 10
-4.774704589265499
 20
204.96131532479788
 30
0.0
 11
-181.4576901027258
 21
136.24610217628543
 31
0.0
  0
ARC
  5
69
330
17
100
AcDbEntity
  8
0
100
AcDbCircle
 10
-202.4744739718807
 20
122.70746133618542
 30
0.0
 40
25.0
100
AcDbArc
 50
32.78891893028748
 51
210.5958895038889
  0
LINE
  5
6A
330
17
100
AcDbEntity
  8
0
100
AcDbLine
 10
-303.870857577372
 20
37.72540784273042
 30
0.0
 11
-223.993937578901
 21
109.98296975238824
 31
0.0
  0
LINE
  5
6B
330
17
100
AcDbEntity
  8
0
100
AcDbLine
 10
-306.94488368735404
 20
37.725407842730434
 30
0.0
 11
-303.870857577372
 21
37.725407842730434
 31
0.0
  0
LINE
  5
6C
330
17
100
AcDbEntity
  8
0
100
AcDbLine
 10
161.25076590119818
 20
220.5095018351102
 30
0.0
 11
189.4925864179832
 21
150.92623821472307
 31
0.0
  0
ARC
  5
6D
330
17
100
AcDbEntity
  8
0
100
AcDbCircle
 10
203.6030733623352
 20
130.28903495960006
 30
0.0
 40
25.0
100
AcDbArc
 50
124.36198851706415
 51
149.15547453366588
  0
LINE
  5
6E
330
17
100
AcDbEntity
  8
0
100
AcDbLine
 10
182.13903033966736
 20
143.1067905010769
 30
0.0
 11
16.90781857316273
 21
200.99443533689313
 31
0.0
  0
LINE
  5
6F
330
17
100
AcDbEntity
  8
0
100
AcDbLine
 10
16.907818573162725
 20
200.99443533689313
 30
0.0
 11
134.4146788101782
 21
233.7014412037066
 31
0.0
  0
ARC
  5
70
330
17
100
AcDbEntity
  8
0
100
AcDbCircle
 10
156.6717801439567
 20
245.08658240695578
 30
0.0
 40
25.0
100
AcDbArc
 50
207.0910373794365
 51
280.5538420537701
  0
LINE
  5
71
330
17
100
AcDbEntity
  8
0
100
AcDbLine
 10
-181.1919358744222
 20
-264.34796964212524
 30
0.0
 11
-226.5235341966779
 21
-198.89215030149245
 31
0.0
  0
ARC
  5
72
330
17
100
AcDbEntity
  8
0
100
AcDbCircle
 10
-246.94418661258922
 20
-184.47005076957475
 30
0.0
 40
25.0
100
AcDbArc
 50
324.7683244025748
 51
331.5630568013139
  0
LINE
  5
73
330
17
100
AcDbEntity
  8
0
100
AcDbLine
 10
-113.06801362025723
 20
-230.37037953134228
 30
0.0
 11
-224.9606436915543
 21
-196.37483302877723
 31
0.0
  0
LINE
  5
74
330
17
100
AcDbEntity
  8
0
100
AcDbLine
 10
-181.1919358744222
 20
-264.34796964212524
 30
0.0
 11
-113.06801362025723
 21
-230.3703795313423
 31
0.0
  0
LINE
  5
75
330
17
100
AcDbEntity
  8
0
100
AcDbLine
 10
-99.14448584908604
 20
-234.60066650844703
 30
0.0
 11
-59.003963569350276
 21
-246.79627752347545
 31
0.0
  0
ARC
  5
76
330
17
100
AcDbEntity
  8
0
100
AcDbCircle
 10
-34.11340135656087
 20
-249.13292313872435
 30
0.0
 40
25.0
100
AcDbArc
 50
174.63697486694403
 51
176.73523369548454
  0
LINE
  5
77
330
17
100
AcDbEntity
  8
0
100
AcDbLine
 10
-152.72659820282232
 20
-261.3253616020837
 30
0.0
 11
-59.07282701905871
 21
-247.7091708434686
 31
0.0
  0
LINE
  5
78
330
17
100
AcDbEntity
  8
0
100
AcDbLine
 10
-152.72659820282232
 20
-261.3253616020837
 30
0.0
 11
-99.14448584908602
 21
-234.60066650844703
 31
0.0
  0
LINE
  5
79
330
17
100
AcDbEntity
  8
0
100
AcDbLine
 10
-36.120168334462804
 20
-224.21359557363155
 30
0.0
 11
-33.39573015486049
 21
-201.80771804993668
 31
0.0
  0
ARC
  5
7A
330
17
100
AcDbEntity
  8
0
100
AcDbCircle
 10
-34.11340135656087
 20
-249.13292313872435
 30
0.0
 40
25.0
100
AcDbArc
 50
94.60412454403566
 51
151.5630568013122
  0
LINE
  5
7B
330
17
100
AcDbEntity
  8
0
100
AcDbLine
 10
-56.09694427759548
 20
-237.22814087952193
 30
0.0
 11
-86.12235969891373
 21
-228.10573124839738
 31
0.0
  0
LINE
  5
7C
330
17
100
AcDbEntity
  8
0
100
AcDbLine
 10
-86.12235969891373
 20
-228.10573124839732
 30
0.0
 11
-33.39573015486047
 21
-201.80771804993668
 31
0.0
  0
LINE
  5
7D
330
17
100
AcDbEntity
  8
0
100
AcDbLine
 10
-15.336641377905567
 20
-136.135225439199
 30
0.0
 11
-14.831882533708333
 21
-159.8250613626585
 31
0.0
  0
ARC
  5
7E
330
17
100
AcDbEntity
  8
0
100
AcDbCircle
 10
-9.311223273269825
 20
-184.20788977386087
 30
0.0
 40
25.0
100
AcDbArc
 50
102.75757432993635
 51
111.18980145660706
  0
LINE
  5
7F
330
17
100
AcDbEntity
  8
0
100
AcDbLine
 10
-18.347688584071214
 20
-160.8981859000085
 30
0.0
 11
-15.336641377905572
 21
-136.135225439199
 31
0.0
  0
ARC
  5
80
330
17
100
AcDbEntity
  8
0
100
AcDbCircle
 10
-315.2126246767208
 20
-79.61299469685034
 30
0.0
 40
25.0
100
AcDbArc
 50
-43.75840250353947
 51
49.33536693064549
  0
LINE
  5
81
330
17
100
AcDbEntity
  8
0
100
AcDbLine
 10
-288.28923693184316
 20
-41.568205116959916
 30
0.0
 11
-298.92186701391836
 21
-60.64957689383154
 31
0.0
  0
LINE
  5
82
330
17
100
AcDbEntity
  8
0
100
AcDbLine
 10
-288.28923693184316
 20
-41.568205116959916
 30
0.0
 11
-261.0885586613179
 21
-148.98254903885044
 31
0.0
  0
LINE
  5
83
330
17
100
AcDbEntity
  8
0
100
AcDbLine
 10
-261.08855866131796
 20
-148.98254903885044
 30
0.0
 11
-297.1560611025293
 21
-96.90346929679093
 31
0.0
  0
LINE
  5
84
330
17
100
AcDbEntity
  8
0
100
AcDbLine
 10
-300.1519239728479
 20
5.277051203026314
 30
0.0
 11
-291.8661308380592
 21
-27.44320027725599
 31
0.0
  0
LINE
  5
85
330
17
100
AcDbEntity
  8
0
100
AcDbLine
 10
-291.8661308380592
 20
-27.443200277255983
 30
0.0
 11
-307.2842568056628
 21
-55.11264719862042
 31
0.0
  0
LINE
  5
86
330
17
100
AcDbEntity
  8
0
100
AcDbLine
 10
-307.28425680566284
 20
-55.112647198620394
 30
0.0
 11
-300.15192397284795
 21
5.277051203026311
 31
0.0
  0
LINE
  5
87
330
17
100
AcDbEntity
  8
0
100
AcDbLine
 10
-138.2592332716294
 20
-33.32875541506212
 30
0.0
 11
-138.2592332716294
 21
-29.419869961283304
 31
0.0
  0
LINE
  5
88
330
17
100
AcDbEntity
  8
0
100
AcDbLine
 10
-138.2592332716294
 20
-33.32875541506212
 30
0.0
 11
-135.67147804404215
 21
-33.32875541506212
 31
0.0
  0
LINE
  5
89
330
17
100
AcDbEntity
  8
0
100
AcDbLine
 10
-29.192324361818976
 20
-167.23875770926685
 30
0.0
 11
-135.67147804404215
 21
-33.32875541506212
 31
0.0
  0
LINE
  5
8A
330
17
100
AcDbEntity
  8
0
100
AcDbLine
 10
-29.192324361818972
 20
-167.23875770926685
 30
0.0
 11
-29.455367075877028
 21
-169.4020304452059
 31
0.0
  0
ARC
  5
8B
330
17
100
AcDbEntity
  8
0
100
AcDbCircle
 10
-9.311223273269825
 20
-184.20788977386087
 30
0.0
 40
25.0
100
AcDbArc
 50
143.68427306649556
 51
194.97129567815657
  0
LINE
  5
8C
330
17
100
AcDbEntity
  8
0
100
AcDbLine
 10
-100.04588747008498
 20
-223.8754442712926
 30
0.0
 11
-33.462607510940984
 21
-190.66626723297276
 31
0.0
  0
LINE
  5
8D
330
17
100
AcDbEntity
  8
0
100
AcDbLine
 10
-100.04588747008498
 20
-223.8754442712926
 30
0.0
 11
-222.05362439979973
 21
-186.80669638482368
 31
0.0
  0
ARC
  5
8E
330
17
100
AcDbEntity
  8
0
100
AcDbCircle
 10
-246.94418661258922
 20
-184.47005076957475
 30
0.0
 40
25.0
100
AcDbArc
 50
-5.363025133056679
 51
92.673402955554
  0
LINE
  5
8F
330
17
100
AcDbEntity
  8
0
100
AcDbLine
 10
-281.19676410072987
 20
-28.84001746600576
 30
0.0
 11
-248.11025548710634
 21
-159.49725990872207
 31
0.0
  0
LINE
  5
90
330
17
100
AcDbEntity
  8
0
100
AcDbLine
 10
-237.2464327448252
 20
50.033469699931175
 30
0.0
 11
-281.19676410072987
 21
-28.84001746600576
 31
0.0
  0
LINE
  5
91
330
17
100
AcDbEntity
  8
0
100
AcDbLine
 10
-237.2464327448252
 20
50.03346969993118
 30
0.0
 11
-183.306598676968
 21
68.87905346366507
 31
0.0
  0
LINE
  5
92
330
17
100
AcDbEntity
  8
0
100
AcDbLine
 10
-138.2592332716294
 20
-29.419869961283304
 30
0.0
 11
-183.306598676968
 21
68.87905346366506
 31
0.0
  0
LINE
  5
93
330
17
100
AcDbEntity
  8
0
100
AcDbLine
 10
-127.90558820544807
 20
-27.027910662503626
 30
0.0
 11
-107.63830505077955
 21
75.5579648659569
 31
0.0
  0
ARC
  5
94
330
17
100
AcDbEntity
  8
0
100
AcDbCircle
 10
-107.79594636104343
 20
100.55746784536254
 30
0.0
 40
25.0
100
AcDbArc
 50
270.3612896644485
 51
288.42803066402746
  0
LINE
  5
95
330
17
100
AcDbEntity
  8
0
100
AcDbLine
 10
-99.89311597908585
 20
76.8394309967106
 30
0.0
 11
-16.996970838394873
 21
-66.94373194953732
 31
0.0
  0
LINE
  5
96
330
17
100
AcDbEntity
  8
0
100
AcDbLine
 10
-16.99697083839488
 20
-66.94373194953732
 30
0.0
 11
-27.497750598429192
 21
-153.30252216476242
 31
0.0
  0
LINE
  5
97
330
17
100
AcDbEntity
  8
0
100
AcDbLine
 10
-27.497750598429192
 20
-153.30252216476242
 30
0.0
 11
-127.90558820544808
 21
-27.027910662503615
 31
0.0
  0
LINE
  5
98
330
17
100
AcDbEntity
  8
0
100
AcDbLine
 10
122.2357999050302
 20
-170.7580528623064
 30
0.0
 11
-14.022807891531016
 21
-234.2544805380047
 31
0.0
  0
ARC
  5
99
330
17
100
AcDbEntity
  8
0
100
AcDbCircle
 10
-34.11340135656087
 20
-249.13292313872435
 30
0.0
 40
25.0
100
AcDbArc
 50
36.52244932930508
 51
71.53020647840424
  0
LINE
  5
9A
330
17
100
AcDbEntity
  8
0
100
AcDbLine
 10
-23.670453840395584
 20
-204.67279870402967
 30
0.0
 11
-26.193285013390728
 21
-225.42065295827445
 31
0.0
  0
ARC
  5
9B
330
17
100
AcDbEntity
  8
0
100
AcDbCircle
 10
-9.311223273269825
 20
-184.20788977386087
 30
0.0
 40
25.0
100
AcDbArc
 50
234.9445295658299
 51
356.4678699664648
  0
LINE
  5
9C
330
17
100
AcDbEntity
  8
0
100
AcDbLine
 10
122.2357999050302
 20
-170.7580528623064
 30
0.0
 11
15.641286901621555
 21
-185.74809624442105
 31
0.0
  0
LINE
  5
9D
330
17
100
AcDbEntity
  8
0
100
AcDbLine
 10
236.0563330969869
 20
12.124046983970945
 30
0.0
 11
165.65063011298182
 21
-148.62077866323813
 31
0.0
  0
ARC
  5
9E
330
17
100
AcDbEntity
  8
0
100
AcDbCircle
 10
241.30375160102295
 20
36.567135967229476
 30
0.0
 40
25.0
100
AcDbArc
 50
257.8836989748724
 51
290.9925150846619
  0
LINE
  5
9F
330
17
100
AcDbEntity
  8
0
100
AcDbLine
 10
280.72056709431337
 20
-55.175442491060664
 30
0.0
 11
250.25990127317104
 21
13.226455106335933
 31
0.0
  0
ARC
  5
A0
330
17
100
AcDbEntity
  8
0
100
AcDbCircle
 10
295.2528002985546
 20
-75.51786609537918
 30
0.0
 40
25.0
100
AcDbArc
 50
125.541278300085
 51
199.81413733175052
  0
LINE
  5
A1
330
17
100
AcDbEntity
  8
0
100
AcDbLine
 10
165.65063011298182
 20
-148.6207786632381
 30
0.0
 11
271.732871320865
 21
-83.99211773693612
 31
0.0
  0
LINE
  5
A2
330
17
100
AcDbEntity
  8
0
100
AcDbLine
 10
-284.7736580069459
 20
-14.715012626301728
 30
0.0
 11
-295.9741092247792
 21
29.515102050521676
 31
0.0
  0
LINE
  5
A3
330
17
100
AcDbEntity
  8
0
100
AcDbLine
 10
-295.9741092247792
 20
29.515102050521666
 30
0.0
 11
-251.46161594343005
 21
45.066946715282846
 31
0.0
  0
LINE
  5
A4
330
17
100
AcDbEntity
  8
0
100
AcDbLine
 10
-251.46161594343005
 20
45.06694671528285
 30
0.0
 11
-284.7736580069459
 21
-14.715012626301764
 31
0.0
  0
LINE
  5
A5
330
17
100
AcDbEntity
  8
0
100
AcDbLine
 10
-280.26261058182047
 20
45.59717873347295
 30
0.0
 11
-221.59181632227398
 21
98.67144034219704
 31
0.0
  0
LINE
  5
A6
330
17
100
AcDbEntity
  8
0
100
AcDbLine
 10
-221.59181632227398
 20
98.67144034219704
 30
0.0
 11
-244.13211383155783
 21
58.22050831353444
 31
0.0
  0
LINE
  5
A7
330
17
100
AcDbEntity
  8
0
100
AcDbLine
 10
-244.13211383155783
 20
58.220508313534424
 30
0.0
 11
-280.26261058182047
 21
45.597178733472944
 31
0.0
  0
LINE
  5
A8
330
17
100
AcDbEntity
  8
0
100
AcDbLine
 10
-229.91693063295298
 20
63.18703129818272
 30
0.0
 11
-210.0298594382019
 21
98.87646994985604
 31
0.0
  0
ARC
  5
A9
330
17
100
AcDbEntity
  8
0
100
AcDbCircle
 10
-202.4744739718807
 20
122.70746133618542
 30
0.0
 40
25.0
100
AcDbArc
 50
252.40928499627512
 51
283.08356728870183
  0
LINE
  5
AA
330
17
100
AcDbEntity
  8
0
100
AcDbLine
 10
-187.49097420381167
 20
78.00987844739845
 30
0.0
 11
-196.81517504632518
 21
98.35643803795
 31
0.0
  0
LINE
  5
AB
330
17
100
AcDbEntity
  8
0
100
AcDbLine
 10
-187.49097420381167
 20
78.00987844739849
 30
0.0
 11
-229.91693063295304
 21
63.187031298182745
 31
0.0
  0
LINE
  5
AC
330
17
100
AcDbEntity
  8
0
100
AcDbLine
 10
-173.82470409032322
 20
72.19185265482889
 30
0.0
 11
-129.27096419136467
 21
87.75810812749414
 31
0.0
  0
ARC
  5
AD
330
17
100
AcDbEntity
  8
0
100
AcDbCircle
 10
-107.79594636104343
 20
100.55746784536254
 30
0.0
 40
25.0
100
AcDbArc
 50
210.79543249745979
 51
247.28737159881916
  0
LINE
  5
AE
330
17
100
AcDbEntity
  8
0
100
AcDbLine
 10
-135.16372356271637
 20
-12.171189006343685
 30
0.0
 11
-117.44868053523757
 21
77.49614258070469
 31
0.0
  0
LINE
  5
AF
330
17
100
AcDbEntity
  8
0
100
AcDbLine
 10
-135.16372356271637
 20
-12.171189006343685
 30
0.0
 11
-173.82470409032322
 21
72.19185265482889
 31
0.0
  0
ARC
  5
B0
330
17
100
AcDbEntity
  8
0
100
AcDbCircle
 10
-202.4744739718807
 20
122.70746133618542
 30
0.0
 40
25.0
100
AcDbArc
 50
-53.84251464566658
 51
9.715000864655476
  0
LINE
  5
B1
330
17
100
AcDbEntity
  8
0
100
AcDbLine
 10
-22.13911877876085
 20
187.47831426745404
 30
0.0
 11
-177.8329909132101
 21
126.92614746687167
 31
0.0
  0
LINE
  5
B2
330
17
100
AcDbEntity
  8
0
100
AcDbLine
 10
-22.139118778760896
 20
187.4783142674541
 30
0.0
 11
-93.31691092971913
 21
120.9377900454276
 31
0.0
  0
ARC
  5
B3
330
17
100
AcDbEntity
  8
0
100
AcDbCircle
 10
-107.79594636104343
 20
100.55746784536254
 30
0.0
 40
25.0
100
AcDbArc
 50
54.60841721153265
 51
187.72151443182898
  0
LINE
  5
B4
330
17
100
AcDbEntity
  8
0
100
AcDbLine
 10
-178.0090796171669
 20
81.32267763856234
 30
0.0
 11
-132.56926681983646
 21
97.19851064915689
 31
0.0
  0
LINE
  5
B5
330
17
100
AcDbEntity
  8
0
100
AcDbLine
 10
-178.0090796171669
 20
81.32267763856233
 30
0.0
 11
-187.72430587312127
 21
102.5225030489276
 31
0.0
  0
ARC
  5
B6
330
17
100
AcDbEntity
  8
0
100
AcDbCircle
 10
241.30375160102295
 20
36.567135967229476
 30
0.0
 40
25.0
100
AcDbArc
 50
190.7557295471343
 51
234.8097809092405
  0
LINE
  5
B7
330
17
100
AcDbEntity
  8
0
100
AcDbLine
 10
226.8964312578812
 20
16.13605375090791
 30
0.0
 11
151.4390155178075
 21
-156.1424495925314
 31
0.0
  0
LINE
  5
B8
330
17
100
AcDbEntity
  8
0
100
AcDbLine
 10
149.70760580307612
 20
-156.1424495925314
 30
0.0
 11
151.4390155178075
 21
-156.1424495925314
 31
0.0
  0
LINE
  5
B9
330
17
100
AcDbEntity
  8
0
100
AcDbLine
 10
149.70760580307612
 20
-156.79638581584382
 30
0.0
 11
149.70760580307612
 21
-156.1424495925314
 31
0.0
  0
LINE
  5
BA
330
17
100
AcDbEntity
  8
0
100
AcDbLine
 10
149.70760580307612
 20
-156.79638581584382
 30
0.0
 11
14.248721279854777
 21
-175.8455328899621
 31
0.0
  0
ARC
  5
BB
330
17
100
AcDbEntity
  8
0
100
AcDbCircle
 10
-9.311223273269825
 20
-184.20788977386087
 30
0.0
 40
25.0
100
AcDbArc
 50
19.541788032095056
 51
79.68365626430462
  0
LINE
  5
BC
330
17
100
AcDbEntity
  8
0
100
AcDbLine
 10
-6.832189508270968
 20
-65.83817455767306
 30
0.0
 11
-4.834151697948081
 21
-159.6120399184598
 31
0.0
  0
LINE
  5
BD
330
17
100
AcDbEntity
  8
0
100
AcDbLine
 10
-6.832189508270991
 20
-65.83817455767306
 30
0.0
 11
-6.832189508270991
 21
-60.89143596166542
 31
0.0
  0
LINE
  5
BE
330
17
100
AcDbEntity
  8
0
100
AcDbLine
 10
-8.94340098604072
 20
-60.89143596166542
 30
0.0
 11
-6.832189508270993
 21
-60.89143596166542
 31
0.0
  0
LINE
  5
BF
330
17
100
AcDbEntity
  8
0
100
AcDbLine
 10
-91.22980833288618
 20
81.83413825813234
 30
0.0
 11
-8.943400986040714
 21
-60.891435961665465
 31
0.0
  0
ARC
  5
C0
330
17
100
AcDbEntity
  8
0
100
AcDbCircle
 10
-107.79594636104343
 20
100.55746784536254
 30
0.0
 40
25.0
100
AcDbArc
 50
-48.49805127034265
 51
31.534499145902075
  0
LINE
  5
C1
330
17
100
AcDbEntity
  8
0
100
AcDbLine
 10
1.4287185247672247
 20
195.82148945760844
 30
0.0
 11
-86.48781133483722
 21
113.63276446551458
 31
0.0
  0
LINE
  5
C2
330
17
100
AcDbEntity
  8
0
100
AcDbLine
 10
178.8326400655847
 20
133.66921754212964
 30
0.0
 11
1.4287185247672198
 21
195.82148945760844
 31
0.0
  0
ARC
  5
C3
330
17
100
AcDbEntity
  8
0
100
AcDbCircle
 10
203.6030733623352
 20
130.28903495960006
 30
0.0
 40
25.0
100
AcDbArc
 50
172.229392599297
 51
215.8114173840599
  0
LINE
  5
C4
330
17
100
AcDbEntity
  8
0
100
AcDbLine
 10
183.32939241686282
 20
115.66105283897946
 30
0.0
 11
169.43638737741054
 21
100.57981805966219
 31
0.0
  0
LINE
  5
C5
330
17
100
AcDbEntity
  8
0
100
AcDbLine
 10
169.43638737741057
 20
100.57981805966219
 30
0.0
 11
176.79125659898045
 21
93.80442886540892
 31
0.0
  0
LINE
  5
C6
330
17
100
AcDbEntity
  8
0
100
AcDbLine
 10
176.79125659898045
 20
93.80442886540892
 30
0.0
 11
190.68426163843284
 21
108.88566364472634
 31
0.0
  0
ARC
  5
C7
330
17
100
AcDbEntity
  8
0
100
AcDbCircle
 10
203.6030733623352
 20
130.28903495960006
 30
0.0
 40
25.0
100
AcDbArc
 50
238.88533544969064
 51
279.81961365610516
  0
LINE
  5
C8
330
17
100
AcDbEntity
  8
0
100
AcDbLine
 10
207.86674378367698
 20
105.65529560605961
 30
0.0
 11
227.4588756214344
 21
57.383461510172964
 31
0.0
  0
ARC
  5
C9
330
17
100
AcDbEntity
  8
0
100
AcDbCircle
 10
241.30375160102295
 20
36.567135967229476
 30
0.0
 40
25.0
100
AcDbArc
 50
123.6277601194012
 51
167.68181148150333
  0
LINE
  5
CA
330
17
100
AcDbEntity
  8
0
100
AcDbLine
 10
216.87930413079584
 20
41.900649422176706
 30
0.0
 11
196.37610762144666
 21
42.1802283809033
 31
0.0
  0
LINE
  5
CB
330
17
100
AcDbEntity
  8
0
100
AcDbLine
 10
196.37610762144666
 20
42.1802283809033
 30
0.0
 11
196.23976157892255
 21
32.181157936272555
 31
0.0
  0
LINE
  5
CC
330
17
100
AcDbEntity
  8
0
100
AcDbLine
 10
196.23976157892258
 20
32.181157936272555
 30
0.0
 11
216.74295808827122
 21
31.90157897754597
 31
0.0
  0
LINE
  5
CD
330
17
100
AcDbEntity
  8
0
100
AcDbLine
 10
-306.94488368735404
 20
33.01964813050968
 30
5.0
 11
-306.94488368735404
 21
37.725407842730434
 31
5.0
  0
LINE
  5
CE
330
17
100
AcDbEntity
  8
0
100
AcDbLine
 10
-306.94488368735404
 20
37.725407842730434
 30
0.0
 11
-306.94488368735404
 21
37.725407842730434
 31
5.0
  0
LINE
  5
CF
330
17
100
AcDbEntity
  8
0
100
AcDbLine
 10
-306.94488368735404
 20
33.019648130510504
 30
0.0
 11
-306.94488368735404
 21
33.019648130510504
 31
5.0
  0
LINE
  5
D0
330
17
100
AcDbEntity
  8
0
100
AcDbLine
 10
-303.870857577372
 20
37.72540784273042
 30
0.0
 11
-303.870857577372
 21
37.72540784273042
 31
5.0
  0
LINE
  5
D1
330
17
100
AcDbEntity
  8
0
100
AcDbLine
 10
-306.94488368735404
 20
37.725407842730434
 30
5.0
 11
-303.870857577372
 21
37.725407842730434
 31
5.0
  0
LINE
  5
D2
330
17
100
AcDbEntity
  8
0
100
AcDbLine
 10
-187.8363531586614
 20
-275.75554501850195
 30
5.0
 11
-187.8363531586614
 21
-272.4096872932274
 31
5.0
  0
LINE
  5
D3
330
17
100
AcDbEntity
  8
0
100
AcDbLine
 10
-187.8363531586614
 20
-272.4096872932274
 30
5.0
 11
-187.8363531586614
 21
-272.4096872932274
 31
0.0
  0
LINE
  5
D4
330
17
100
AcDbEntity
  8
0
100
AcDbLine
 10
-187.8363531586614
 20
-275.75554501850195
 30
0.0
 11
-187.8363531586614
 21
-275.75554501850195
 31
5.0
  0
LINE
  5
D5
330
17
100
AcDbEntity
  8
0
100
AcDbLine
 10
-187.8363531586614
 20
-272.4096872932274
 30
5.0
 11
-236.34931319402943
 21
-207.11400486873094
 31
5.0
  0
LINE
  5
D6
330
17
100
AcDbEntity
  8
0
100
AcDbLine
 10
-236.34931319402938
 20
-207.11400486873097
 30
5.0
 11
-236.34931319402938
 21
-207.11400486873097
 31
0.0
  0
ARC
  5
D7
330
17
100
AcDbEntity
  8
0
100
AcDbCircle
 10
-246.94418661258922
 20
-184.47005076957475
 30
5.0
 40
25.0
100
AcDbArc
 50
216.94782486804982
 51
295.0744106492833
  0
LINE
  5
D8
330
17
100
AcDbEntity
  8
0
100
AcDbLine
 10
-266.9237668214599
 20
-199.49723861951205
 30
5.0
 11
-266.9237668214599
 21
-199.49723861951205
 31
0.0
  0
LINE
  5
D9
330
17
100
AcDbEntity
  8
0
100
AcDbLine
 10
-285.4450813332723
 20
-208.29611015225234
 30
5.0
 11
-266.9237668214599
 21
-199.49723861951205
 31
5.0
  0
LINE
  5
DA
330
17
100
AcDbEntity
  8
0
100
AcDbLine
 10
-285.4450813332723
 20
-208.29611015225234
 30
0.0
 11
-285.4450813332723
 21
-208.29611015225234
 31
5.0
  0
LINE
  5
DB
330
17
100
AcDbEntity
  8
0
100
AcDbLine
 10
-289.73614571677024
 20
-199.26357083837854
 30
0.0
 11
-289.73614571677024
 21
-199.26357083837854
 31
5.0
  0
LINE
  5
DC
330
17
100
AcDbEntity
  8
0
100
AcDbLine
 10
-289.73614571677024
 20
-199.26357083837854
 30
5.0
 11
-285.4450813332723
 21
-208.29611015225234
 31
5.0
  0
LINE
  5
DD
330
17
100
AcDbEntity
  8
0
100
AcDbLine
 10
-271.21483120495793
 20
-190.4646993056383
 30
5.0
 11
-289.73614571677024
 21
-199.26357083837854
 31
5.0
  0
LINE
  5
DE
330
17
100
AcDbEntity
  8
0
100
AcDbLine
 10
-271.2148312049578
 20
-190.46469930563828
 30
5.0
 11
-271.2148312049578
 21
-190.46469930563828
 31
0.0
  0
ARC
  5
DF
330
17
100
AcDbEntity
  8
0
100
AcDbCircle
 10
-246.94418661258922
 20
-184.47005076957475
 30
5.0
 40
25.0
100
AcDbArc
 50
127.96857150780856
 51
193.87390680241919
  0
LINE
  5
E0
330
17
100
AcDbEntity
  8
0
100
AcDbLine
 10
-262.32491497910456
 20
-164.76134216359372
 30
5.0
 11
-262.32491497910456
 21
-164.76134216359372
 31
0.0
  0
LINE
  5
E1
330
17
100
AcDbEntity
  8
0
100
AcDbLine
 10
-288.009080064988
 20
-127.67511242544677
 30
5.0
 11
-262.3249149791046
 21
-164.7613421635937
 31
5.0
  0
LINE
  5
E2
330
17
100
AcDbEntity
  8
0
100
AcDbLine
 10
-288.009080064988
 20
-127.67511242544677
 30
2.5
 11
-288.009080064988
 21
-127.67511242544677
 31
5.0
  0
LINE
  5
E3
330
17
100
AcDbEntity
  8
0
100
AcDbLine
 10
-293.7025408593758
 20
-119.45413291064634
 30
2.5
 11
-288.009080064988
 21
-127.67511242544678
 31
2.5
  0
LINE
  5
E4
330
17
100
AcDbEntity
  8
0
100
AcDbLine
 10
-293.70254085937574
 20
-119.45413291064627
 30
2.5
 11
-293.70254085937574
 21
-119.45413291064627
 31
5.0
  0
LINE
  5
E5
330
17
100
AcDbEntity
  8
0
100
AcDbLine
 10
-305.3770406173299
 20
-102.59693009117849
 30
5.0
 11
-293.70254085937574
 21
-119.45413291064628
 31
5.0
  0
LINE
  5
E6
330
17
100
AcDbEntity
  8
0
100
AcDbLine
 10
-305.3770406173299
 20
-102.59693009117859
 30
5.0
 11
-305.3770406173299
 21
-102.59693009117859
 31
0.0
  0
ARC
  5
E7
330
17
100
AcDbEntity
  8
0
100
AcDbCircle
 10
-315.2126246767208
 20
-79.61299469685034
 30
5.0
 40
25.0
100
AcDbArc
 50
205.52141709015183
 51
293.16767943083045
  0
LINE
  5
E8
330
17
100
AcDbEntity
  8
0
100
AcDbLine
 10
-337.7732320965023
 20
-90.3842059959801
 30
5.0
 11
-337.7732320965023
 21
-90.3842059959801
 31
0.0
  0
LINE
  5
E9
330
17
100
AcDbEntity
  8
0
100
AcDbLine
 10
-357.6705903689465
 20
-95.3394421430406
 30
5.0
 11
-337.7732320965022
 21
-90.38420599598008
 31
5.0
  0
LINE
  5
EA
330
17
100
AcDbEntity
  8
0
100
AcDbLine
 10
-357.6705903689465
 20
-95.3394421430406
 30
0.0
 11
-357.6705903689465
 21
-95.3394421430406
 31
5.0
  0
LINE
  5
EB
330
17
100
AcDbEntity
  8
0
100
AcDbLine
 10
-360.08717723049494
 20
-85.63582900459616
 30
0.0
 11
-360.08717723049494
 21
-85.63582900459616
 31
5.0
  0
LINE
  5
EC
330
17
100
AcDbEntity
  8
0
100
AcDbLine
 10
-360.08717723049494
 20
-85.63582900459616
 30
5.0
 11
-357.6705903689465
 21
-95.3394421430406
 31
5.0
  0
LINE
  5
ED
330
17
100
AcDbEntity
  8
0
100
AcDbLine
 10
-340.189818958051
 20
-80.68059285753571
 30
5.0
 11
-360.08717723049494
 21
-85.63582900459616
 31
5.0
  0
LINE
  5
EE
330
17
100
AcDbEntity
  8
0
100
AcDbLine
 10
-340.18981895805075
 20
-80.68059285753563
 30
5.0
 11
-340.18981895805075
 21
-80.68059285753563
 31
0.0
  0
ARC
  5
EF
330
17
100
AcDbEntity
  8
0
100
AcDbCircle
 10
-315.2126246767208
 20
-79.61299469685034
 30
5.0
 40
25.0
100
AcDbArc
 50
94.80123668384205
 51
182.44749902452213
  0
LINE
  5
F0
330
17
100
AcDbEntity
  8
0
100
AcDbLine
 10
-317.3051084721912
 20
-54.700718374408545
 30
5.0
 11
-317.3051084721912
 21
-54.700718374408545
 31
0.0
  0
LINE
  5
F1
330
17
100
AcDbEntity
  8
0
100
AcDbLine
 10
-306.94488368735404
 20
33.01964813050968
 30
5.0
 11
-317.30510847219125
 21
-54.700718374408694
 31
5.0
  0
LINE
  5
F2
330
17
100
AcDbEntity
  8
0
100
AcDbLine
 10
-246.6162578791433
 20
89.51856389314683
 30
5.0
 11
-303.870857577372
 21
37.72540784273042
 31
5.0
  0
LINE
  5
F3
330
17
100
AcDbEntity
  8
0
100
AcDbLine
 10
-246.6162578791433
 20
89.51856389314683
 30
2.5
 11
-246.6162578791433
 21
89.51856389314683
 31
5.0
  0
LINE
  5
F4
330
17
100
AcDbEntity
  8
0
100
AcDbLine
 10
-239.2003443457523
 20
96.2270828403712
 30
2.5
 11
-246.6162578791433
 21
89.51856389314682
 31
2.5
  0
LINE
  5
F5
330
17
100
AcDbEntity
  8
0
100
AcDbLine
 10
-239.20034434575234
 20
96.22708284037122
 30
2.5
 11
-239.20034434575234
 21
96.22708284037122
 31
5.0
  0
LINE
  5
F6
330
17
100
AcDbEntity
  8
0
100
AcDbLine
 10
-223.993937578901
 20
109.98296975238827
 30
5.0
 11
-239.20034434575234
 21
96.22708284037122
 31
5.0
  0
LINE
  5
F7
330
17
100
AcDbEntity
  8
0
100
AcDbLine
 10
-223.99393757890107
 20
109.98296975238819
 30
5.0
 11
-223.99393757890107
 21
109.98296975238819
 31
0.0
  0
ARC
  5
F8
330
17
100
AcDbEntity
  8
0
100
AcDbCircle
 10
-202.4744739718807
 20
122.70746133618542
 30
5.0
 40
25.0
100
AcDbArc
 50
32.78891893028761
 51
210.59588950388877
  0
LINE
  5
F9
330
17
100
AcDbEntity
  8
0
100
AcDbLine
 10
-181.45769010272568
 20
136.24610217628546
 30
5.0
 11
-181.45769010272568
 21
136.24610217628546
 31
0.0
  0
LINE
  5
FA
330
17
100
AcDbEntity
  8
0
100
AcDbLine
 10
-162.34702737427648
 20
143.6785850437129
 30
5.0
 11
-181.45769010272582
 21
136.24610217628543
 31
5.0
  0
LINE
  5
FB
330
17
100
AcDbEntity
  8
0
100
AcDbLine
 10
-162.34702737427648
 20
143.6785850437129
 30
2.5
 11
-162.34702737427648
 21
143.6785850437129
 31
5.0
  0
LINE
  5
FC
330
17
100
AcDbEntity
  8
0
100
AcDbLine
 10
-153.02707266486271
 20
147.30328423322854
 30
2.5
 11
-162.3470273742765
 21
143.67858504371284
 31
2.5
  0
LINE
  5
FD
330
17
100
AcDbEntity
  8
0
100
AcDbLine
 10
-153.02707266486271
 20
147.30328423322854
 30
2.5
 11
-153.02707266486271
 21
147.30328423322854
 31
5.0
  0
LINE
  5
FE
330
17
100
AcDbEntity
  8
0
100
AcDbLine
 10
-4.774704589265499
 20
204.96131532479788
 30
5.0
 11
-153.02707266486271
 21
147.30328423322857
 31
5.0
  0
LINE
  5
FF
330
17
100
AcDbEntity
  8
0
100
AcDbLine
 10
-4.774704589265486
 20
204.96131532479785
 30
0.0
 11
-4.774704589265486
 21
204.96131532479785
 31
5.0
  0
LINE
  5
100
330
17
100
AcDbEntity
  8
0
100
AcDbLine
 10
-4.774704589265504
 20
204.96131532479788
 30
5.0
 11
-4.774704589265504
 21
206.54107294741547
 31
5.0
  0
LINE
  5
101
330
17
100
AcDbEntity
  8
0
100
AcDbLine
 10
-4.774704589265504
 20
206.54107294741547
 30
0.0
 11
-4.774704589265504
 21
206.54107294741547
 31
5.0
  0
LINE
  5
102
330
17
100
AcDbEntity
  8
0
100
AcDbLine
 10
-0.4575781959970513
 20
206.54107294741544
 30
0.0
 11
-0.4575781959970513
 21
206.54107294741544
 31
5.0
  0
LINE
  5
103
330
17
100
AcDbEntity
  8
0
100
AcDbLine
 10
-4.774704589265504
 20
206.54107294741547
 30
5.0
 11
-0.4575781959971321
 21
206.54107294741547
 31
5.0
  0
LINE
  5
104
330
17
100
AcDbEntity
  8
0
100
AcDbLine
 10
102.3452626894437
 20
235.15534374984497
 30
5.0
 11
-0.45757819599714367
 21
206.54107294741542
 31
5.0
  0
LINE
  5
105
330
17
100
AcDbEntity
  8
0
100
AcDbLine
 10
102.3452626894437
 20
235.15534374984497
 30
2.5
 11
102.3452626894437
 21
235.15534374984497
 31
5.0
  0
LINE
  5
106
330
17
100
AcDbEntity
  8
0
100
AcDbLine
 10
111.97904061309177
 20
237.8368214987422
 30
2.5
 11
102.3452626894437
 21
235.15534374984497
 31
2.5
  0
LINE
  5
107
330
17
100
AcDbEntity
  8
0
100
AcDbLine
 10
111.97904061309177
 20
237.83682149874224
 30
2.5
 11
111.97904061309177
 21
237.83682149874224
 31
5.0
  0
LINE
  5
108
330
17
100
AcDbEntity
  8
0
100
AcDbLine
 10
131.73320106128074
 20
243.3352191273546
 30
5.0
 11
111.97904061309177
 21
237.83682149874224
 31
5.0
  0
LINE
  5
109
330
17
100
AcDbEntity
  8
0
100
AcDbLine
 10
131.7332010612811
 20
243.3352191273547
 30
5.0
 11
131.7332010612811
 21
243.3352191273547
 31
0.0
  0
ARC
  5
10A
330
17
100
AcDbEntity
  8
0
100
AcDbCircle
 10
156.6717801439567
 20
245.08658240695578
 30
5.0
 40
25.0
100
AcDbArc
 50
119.2699449594237
 51
184.01711931380817
  0
LINE
  5
10B
330
17
100
AcDbEntity
  8
0
100
AcDbLine
 10
144.44865683663943
 20
266.8947289722675
 30
5.0
 11
144.44865683663943
 21
266.8947289722675
 31
0.0
  0
LINE
  5
10C
330
17
100
AcDbEntity
  8
0
100
AcDbLine
 10
138.20318254995442
 20
286.4255579979258
 30
5.0
 11
144.44865683663937
 21
266.8947289722676
 31
5.0
  0
LINE
  5
10D
330
17
100
AcDbEntity
  8
0
100
AcDbLine
 10
138.20318254995442
 20
286.4255579979258
 30
0.0
 11
138.20318254995442
 21
286.4255579979258
 31
5.0
  0
LINE
  5
10E
330
17
100
AcDbEntity
  8
0
100
AcDbLine
 10
147.7280454258747
 20
289.4713726992685
 30
0.0
 11
147.7280454258747
 21
289.4713726992685
 31
5.0
  0
LINE
  5
10F
330
17
100
AcDbEntity
  8
0
100
AcDbLine
 10
147.7280454258747
 20
289.4713726992685
 30
5.0
 11
138.20318254995442
 21
286.4255579979258
 31
5.0
  0
LINE
  5
110
330
17
100
AcDbEntity
  8
0
100
AcDbLine
 10
153.9735197125597
 20
269.9405436736102
 30
5.0
 11
147.7280454258747
 21
289.4713726992685
 31
5.0
  0
LINE
  5
111
330
17
100
AcDbEntity
  8
0
100
AcDbLine
 10
153.9735197125597
 20
269.9405436736102
 30
5.0
 11
153.9735197125597
 21
269.9405436736102
 31
0.0
  0
ARC
  5
112
330
17
100
AcDbEntity
  8
0
100
AcDbCircle
 10
156.6717801439567
 20
245.08658240695578
 30
5.0
 40
25.0
100
AcDbArc
 50
31.448852539411444
 51
96.19602689379371
  0
LINE
  5
113
330
17
100
AcDbEntity
  8
0
100
AcDbLine
 10
177.99943650979694
 20
258.13001270502673
 30
5.0
 11
177.99943650979694
 21
258.13001270502673
 31
0.0
  0
LINE
  5
114
330
17
100
AcDbEntity
  8
0
100
AcDbLine
 10
197.27869177195487
 20
265.11353245023366
 30
5.0
 11
177.99943650979708
 21
258.1300127050268
 31
5.0
  0
LINE
  5
115
330
17
100
AcDbEntity
  8
0
100
AcDbLine
 10
197.27869177195487
 20
265.11353245023366
 30
0.0
 11
197.27869177195487
 21
265.11353245023366
 31
5.0
  0
LINE
  5
116
330
17
100
AcDbEntity
  8
0
100
AcDbLine
 10
200.6844390588208
 20
255.71135794547118
 30
0.0
 11
200.6844390588208
 21
255.71135794547118
 31
5.0
  0
LINE
  5
117
330
17
100
AcDbEntity
  8
0
100
AcDbLine
 10
200.6844390588208
 20
255.71135794547118
 30
5.0
 11
197.27869177195487
 21
265.11353245023366
 31
5.0
  0
LINE
  5
118
330
17
100
AcDbEntity
  8
0
100
AcDbLine
 10
181.4051837966628
 20
248.72783820026424
 30
5.0
 11
200.68443905882077
 21
255.71135794547118
 31
5.0
  0
LINE
  5
119
330
17
100
AcDbEntity
  8
0
100
AcDbLine
 10
181.40518379666284
 20
248.72783820026427
 30
5.0
 11
181.40518379666284
 21
248.72783820026427
 31
0.0
  0
LINE
  5
11A
330
17
100
AcDbEntity
  8
0
100
AcDbLine
 10
170.51665612354535
 20
224.27025686401208
 30
5.0
 11
170.51665612354535
 21
224.27025686401208
 31
0.0
  0
ARC
  5
11B
330
17
100
AcDbEntity
  8
0
100
AcDbCircle
 10
156.6717801439567
 20
245.08658240695578
 30
5.0
 40
25.0
100
AcDbArc
 50
-56.372239880598414
 51
8.374934473780854
  0
LINE
  5
11C
330
17
100
AcDbEntity
  8
0
100
AcDbLine
 10
198.71034392507042
 20
154.80558444466698
 30
5.0
 11
170.51665612354523
 21
224.27025686401234
 31
5.0
  0
LINE
  5
11D
330
17
100
AcDbEntity
  8
0
100
AcDbLine
 10
198.71034392507053
 20
154.80558444466675
 30
5.0
 11
198.71034392507053
 21
154.80558444466675
 31
0.0
  0
ARC
  5
11E
330
17
100
AcDbEntity
  8
0
100
AcDbCircle
 10
203.6030733623352
 20
130.28903495960006
 30
5.0
 40
25.0
100
AcDbArc
 50
58.885335449690146
 51
101.28615473774562
  0
LINE
  5
11F
330
17
100
AcDbEntity
  8
0
100
AcDbLine
 10
216.5218850862376
 20
151.69240627447383
 30
5.0
 11
216.5218850862376
 21
151.69240627447383
 31
0.0
  0
LINE
  5
120
330
17
100
AcDbEntity
  8
0
100
AcDbLine
 10
230.41489012568996
 20
166.77364105379118
 30
5.0
 11
216.52188508623763
 21
151.69240627447383
 31
5.0
  0
LINE
  5
121
330
17
100
AcDbEntity
  8
0
100
AcDbLine
 10
230.41489012568996
 20
166.77364105379118
 30
0.0
 11
230.41489012568996
 21
166.77364105379118
 31
5.0
  0
LINE
  5
122
330
17
100
AcDbEntity
  8
0
100
AcDbLine
 10
237.76975934725985
 20
159.99825185953793
 30
0.0
 11
237.76975934725985
 21
159.99825185953793
 31
5.0
  0
LINE
  5
123
330
17
100
AcDbEntity
  8
0
100
AcDbLine
 10
237.76975934725985
 20
159.99825185953793
 30
5.0
 11
230.41489012568996
 21
166.7736410537912
 31
5.0
  0
LINE
  5
124
330
17
100
AcDbEntity
  8
0
100
AcDbLine
 10
223.87675430780754
 20
144.91701708022057
 30
5.0
 11
237.76975934725988
 21
159.9982518595379
 31
5.0
  0
LINE
  5
125
330
17
100
AcDbEntity
  8
0
100
AcDbLine
 10
223.87675430780752
 20
144.91701708022055
 30
5.0
 11
223.87675430780752
 21
144.91701708022055
 31
0.0
  0
LINE
  5
126
330
17
100
AcDbEntity
  8
0
100
AcDbLine
 10
218.13530656657645
 20
109.94661135528122
 30
5.0
 11
218.13530656657645
 21
109.94661135528122
 31
0.0
  0
ARC
  5
127
330
17
100
AcDbEntity
  8
0
100
AcDbCircle
 10
203.6030733623352
 20
130.28903495960006
 30
5.0
 40
25.0
100
AcDbArc
 50
-54.45872169991824
 51
35.81141738405944
  0
LINE
  5
128
330
17
100
AcDbEntity
  8
0
100
AcDbLine
 10
226.47689527485636
 20
91.21489682304909
 30
5.0
 11
218.1353065665766
 21
109.94661135528104
 31
5.0
  0
LINE
  5
129
330
17
100
AcDbEntity
  8
0
100
AcDbLine
 10
226.47689527485636
 20
91.21489682304909
 30
2.5
 11
226.47689527485636
 21
91.21489682304909
 31
5.0
  0
LINE
  5
12A
330
17
100
AcDbEntity
  8
0
100
AcDbLine
 10
230.54495037427438
 20
82.07974889276905
 30
2.5
 11
226.47689527485633
 21
91.21489682304905
 31
2.5
  0
LINE
  5
12B
330
17
100
AcDbEntity
  8
0
100
AcDbLine
 10
230.54495037427438
 20
82.07974889276905
 30
2.5
 11
230.54495037427438
 21
82.07974889276905
 31
5.0
  0
LINE
  5
12C
330
17
100
AcDbEntity
  8
0
100
AcDbLine
 10
239.7024674237361
 20
61.51580104140848
 30
5.0
 11
230.54495037427438
 21
82.07974889276906
 31
5.0
  0
LINE
  5
12D
330
17
100
AcDbEntity
  8
0
100
AcDbLine
 10
239.70246742373598
 20
61.51580104140871
 30
5.0
 11
239.70246742373598
 21
61.51580104140871
 31
0.0
  0
ARC
  5
12E
330
17
100
AcDbEntity
  8
0
100
AcDbCircle
 10
241.30375160102295
 20
36.567135967229476
 30
5.0
 40
25.0
100
AcDbArc
 50
10.755729547137944
 51
93.67238697348829
  0
LINE
  5
12F
330
17
100
AcDbEntity
  8
0
100
AcDbLine
 10
265.86454511377445
 20
41.232692956912985
 30
5.0
 11
265.86454511377445
 21
41.232692956912985
 31
0.0
  0
LINE
  5
130
330
17
100
AcDbEntity
  8
0
100
AcDbLine
 10
286.3677416231233
 20
40.95311399818639
 30
5.0
 11
265.8645451137741
 21
41.232692956912985
 31
5.0
  0
LINE
  5
131
330
17
100
AcDbEntity
  8
0
100
AcDbLine
 10
286.3677416231233
 20
40.95311399818639
 30
0.0
 11
286.3677416231233
 21
40.95311399818639
 31
5.0
  0
LINE
  5
132
330
17
100
AcDbEntity
  8
0
100
AcDbLine
 10
286.23139558059927
 20
30.95404355355565
 30
0.0
 11
286.23139558059927
 21
30.95404355355565
 31
5.0
  0
LINE
  5
133
330
17
100
AcDbEntity
  8
0
100
AcDbLine
 10
286.23139558059927
 20
30.95404355355565
 30
5.0
 11
286.3677416231234
 21
40.953113998186396
 31
5.0
  0
LINE
  5
134
330
17
100
AcDbEntity
  8
0
100
AcDbLine
 10
265.7281990712502
 20
31.233622512282242
 30
5.0
 11
286.2313955805992
 21
30.95404355355565
 31
5.0
  0
LINE
  5
135
330
17
100
AcDbEntity
  8
0
100
AcDbLine
 10
265.72819907125034
 20
31.23362251228224
 30
5.0
 11
265.72819907125034
 21
31.23362251228224
 31
0.0
  0
ARC
  5
136
330
17
100
AcDbEntity
  8
0
100
AcDbCircle
 10
241.30375160102295
 20
36.567135967229476
 30
5.0
 40
25.0
100
AcDbArc
 50
314.33625156104785
 51
347.6818114815038
  0
LINE
  5
137
330
17
100
AcDbEntity
  8
0
100
AcDbLine
 10
258.77545087378775
 20
18.685868547886106
 30
5.0
 11
258.77545087378775
 21
18.685868547886106
 31
0.0
  0
LINE
  5
138
330
17
100
AcDbEntity
  8
0
100
AcDbLine
 10
289.8557150245933
 20
-51.107387391642234
 30
5.0
 11
258.7754508737876
 21
18.685868547886514
 31
5.0
  0
LINE
  5
139
330
17
100
AcDbEntity
  8
0
100
AcDbLine
 10
289.8557150245932
 20
-51.107387391642334
 30
5.0
 11
289.8557150245932
 21
-51.107387391642334
 31
0.0
  0
ARC
  5
13A
330
17
100
AcDbEntity
  8
0
100
AcDbCircle
 10
295.2528002985546
 20
-75.51786609537918
 30
5.0
 40
25.0
100
AcDbArc
 50
37.99020399918307
 51
102.46736023445277
  0
LINE
  5
13B
330
17
100
AcDbEntity
  8
0
100
AcDbLine
 10
314.95570037981867
 20
-60.129697640760455
 30
5.0
 11
314.95570037981867
 21
-60.129697640760455
 31
0.0
  0
LINE
  5
13C
330
17
100
AcDbEntity
  8
0
100
AcDbLine
 10
333.31388127182277
 20
-50.99534348561647
 30
5.0
 11
314.95570037981867
 21
-60.129697640760426
 31
5.0
  0
LINE
  5
13D
330
17
100
AcDbEntity
  8
0
100
AcDbLine
 10
333.31388127182277
 20
-50.99534348561647
 30
0.0
 11
333.31388127182277
 21
-50.99534348561647
 31
5.0
  0
LINE
  5
13E
330
17
100
AcDbEntity
  8
0
100
AcDbLine
 10
337.76855499169096
 20
-59.948325226328095
 30
0.0
 11
337.76855499169096
 21
-59.948325226328095
 31
5.0
  0
LINE
  5
13F
330
17
100
AcDbEntity
  8
0
100
AcDbLine
 10
337.76855499169096
 20
-59.948325226328095
 30
5.0
 11
333.31388127182277
 21
-50.99534348561647
 31
5.0
  0
LINE
  5
140
330
17
100
AcDbEntity
  8
0
100
AcDbLine
 10
319.41037409968675
 20
-69.08267938147209
 30
5.0
 11
337.76855499169096
 21
-59.94832522632809
 31
5.0
  0
LINE
  5
141
330
17
100
AcDbEntity
  8
0
100
AcDbLine
 10
319.41037409968686
 20
-69.08267938147205
 30
5.0
 11
319.41037409968686
 21
-69.08267938147205
 31
0.0
  0
LINE
  5
142
330
17
100
AcDbEntity
  8
0
100
AcDbLine
 10
311.4687962092132
 20
-94.54525363611901
 30
5.0
 11
311.4687962092132
 21
-94.54525363611901
 31
0.0
  0
ARC
  5
143
330
17
100
AcDbEntity
  8
0
100
AcDbCircle
 10
295.2528002985546
 20
-75.51786609537918
 30
5.0
 40
25.0
100
AcDbArc
 50
-49.560870301717074
 51
14.91628593355128
  0
LINE
  5
144
330
17
100
AcDbEntity
  8
0
100
AcDbLine
 10
321.3792311389189
 20
-112.49636811403403
 30
5.0
 11
311.4687962092132
 21
-94.54525363611899
 31
5.0
  0
LINE
  5
145
330
17
100
AcDbEntity
  8
0
100
AcDbLine
 10
321.3792311389189
 20
-112.49636811403403
 30
0.0
 11
321.3792311389189
 21
-112.49636811403403
 31
5.0
  0
LINE
  5
146
330
17
100
AcDbEntity
  8
0
100
AcDbLine
 10
312.62476896798574
 20
-117.32952361512241
 30
0.0
 11
312.62476896798574
 21
-117.32952361512241
 31
5.0
  0
LINE
  5
147
330
17
100
AcDbEntity
  8
0
100
AcDbLine
 10
312.62476896798574
 20
-117.32952361512241
 30
5.0
 11
321.37923113891884
 21
-112.49636811403403
 31
5.0
  0
LINE
  5
148
330
17
100
AcDbEntity
  8
0
100
AcDbLine
 10
302.71433403828013
 20
-99.37840913720744
 30
5.0
 11
312.62476896798574
 21
-117.32952361512241
 31
5.0
  0
LINE
  5
149
330
17
100
AcDbEntity
  8
0
100
AcDbLine
 10
302.7143340382801
 20
-99.37840913720741
 30
5.0
 11
302.7143340382801
 21
-99.37840913720741
 31
0.0
  0
ARC
  5
14A
330
17
100
AcDbEntity
  8
0
100
AcDbCircle
 10
295.2528002985546
 20
-75.51786609537918
 30
5.0
 40
25.0
100
AcDbArc
 50
222.88805539738192
 51
287.365211632652
  0
LINE
  5
14B
330
17
100
AcDbEntity
  8
0
100
AcDbLine
 10
276.9356804348813
 20
-92.53206957070604
 30
5.0
 11
276.9356804348813
 21
-92.53206957070604
 31
0.0
  0
LINE
  5
14C
330
17
100
AcDbEntity
  8
0
100
AcDbLine
 10
259.42442160359866
 20
-103.20048302533777
 30
5.0
 11
276.93568043488114
 21
-92.5320695707061
 31
5.0
  0
LINE
  5
14D
330
17
100
AcDbEntity
  8
0
100
AcDbLine
 10
259.42442160359866
 20
-103.20048302533777
 30
2.5
 11
259.42442160359866
 21
-103.20048302533777
 31
5.0
  0
LINE
  5
14E
330
17
100
AcDbEntity
  8
0
100
AcDbLine
 10
250.8844697698289
 20
-108.40329213935416
 30
2.5
 11
259.4244216035987
 21
-103.20048302533779
 31
2.5
  0
LINE
  5
14F
330
17
100
AcDbEntity
  8
0
100
AcDbLine
 10
250.8844697698289
 20
-108.40329213935416
 30
2.5
 11
250.8844697698289
 21
-108.40329213935416
 31
5.0
  0
LINE
  5
150
330
17
100
AcDbEntity
  8
0
100
AcDbLine
 10
159.70760580307612
 20
-163.95112520298036
 30
5.0
 11
250.8844697698289
 21
-108.40329213935416
 31
5.0
  0
LINE
  5
151
330
17
100
AcDbEntity
  8
0
100
AcDbLine
 10
159.70760580307612
 20
-163.95112520298036
 30
5.0
 11
159.70760580307612
 21
-163.95112520298036
 31
0.0
  0
LINE
  5
152
330
17
100
AcDbEntity
  8
0
100
AcDbLine
 10
159.70760580307612
 20
-166.1424495925314
 30
5.0
 11
159.70760580307612
 21
-163.95112520298036
 31
5.0
  0
LINE
  5
153
330
17
100
AcDbEntity
  8
0
100
AcDbLine
 10
159.70760580307612
 20
-166.1424495925314
 30
0.0
 11
159.70760580307612
 21
-166.1424495925314
 31
5.0
  0
LINE
  5
154
330
17
100
AcDbEntity
  8
0
100
AcDbLine
 10
155.81541491349492
 20
-166.1424495925314
 30
5.0
 11
159.70760580307612
 21
-166.1424495925314
 31
5.0
  0
LINE
  5
155
330
17
100
AcDbEntity
  8
0
100
AcDbLine
 10
155.81541491349483
 20
-166.14244959253136
 30
5.0
 11
155.81541491349483
 21
-166.14244959253136
 31
0.0
  0
LINE
  5
156
330
17
100
AcDbEntity
  8
0
100
AcDbLine
 10
17.851355357013546
 20
-230.43361674252282
 30
5.0
 11
155.8154149134949
 21
-166.1424495925313
 31
5.0
  0
LINE
  5
157
330
17
100
AcDbEntity
  8
0
100
AcDbLine
 10
17.851355357013546
 20
-230.43361674252282
 30
2.5
 11
17.851355357013546
 21
-230.43361674252282
 31
5.0
  0
LINE
  5
158
330
17
100
AcDbEntity
  8
0
100
AcDbLine
 10
8.787207529913275
 20
-234.6575040715686
 30
2.5
 11
17.851355357013553
 21
-230.43361674252284
 31
2.5
  0
LINE
  5
159
330
17
100
AcDbEntity
  8
0
100
AcDbLine
 10
8.78720752991326
 20
-234.65750407156858
 30
2.5
 11
8.78720752991326
 21
-234.65750407156858
 31
5.0
  0
LINE
  5
15A
330
17
100
AcDbEntity
  8
0
100
AcDbLine
 10
-9.798920562485485
 20
-243.3186283651051
 30
5.0
 11
8.78720752991326
 21
-234.65750407156855
 31
5.0
  0
LINE
  5
15B
330
17
100
AcDbEntity
  8
0
100
AcDbLine
 10
-9.798920562485417
 20
-243.31862836510513
 30
5.0
 11
-9.798920562485417
 21
-243.31862836510513
 31
0.0
  0
LINE
  5
15C
330
17
100
AcDbEntity
  8
0
100
AcDbLine
 10
-57.634067629017736
 20
-257.6051281704567
 30
5.0
 11
-57.634067629017736
 21
-257.6051281704567
 31
0.0
  0
ARC
  5
15D
330
17
100
AcDbEntity
  8
0
100
AcDbCircle
 10
-34.11340135656087
 20
-249.13292313872435
 30
5.0
 40
25.0
100
AcDbArc
 50
-160.19084823888545
 51
13.448531263674539
  0
LINE
  5
15E
330
17
100
AcDbEntity
  8
0
100
AcDbLine
 10
-77.92582963298676
 20
-260.5553190574026
 30
5.0
 11
-57.63406762901789
 21
-257.6051281704566
 31
5.0
  0
LINE
  5
15F
330
17
100
AcDbEntity
  8
0
100
AcDbLine
 10
-77.92582963298676
 20
-260.5553190574026
 30
2.5
 11
-77.92582963298676
 21
-260.5553190574026
 31
5.0
  0
LINE
  5
160
330
17
100
AcDbEntity
  8
0
100
AcDbLine
 10
-87.82178695997486
 20
-261.99407844744354
 30
2.5
 11
-77.92582963298678
 21
-260.5553190574026
 31
2.5
  0
LINE
  5
161
330
17
100
AcDbEntity
  8
0
100
AcDbLine
 10
-87.82178695997486
 20
-261.99407844744354
 30
2.5
 11
-87.82178695997486
 21
-261.99407844744354
 31
5.0
  0
LINE
  5
162
330
17
100
AcDbEntity
  8
0
100
AcDbLine
 10
-177.8363531586614
 20
-275.0811702849989
 30
5.0
 11
-87.82178695997484
 21
-261.99407844744354
 31
5.0
  0
LINE
  5
163
330
17
100
AcDbEntity
  8
0
100
AcDbLine
 10
-177.83635315866144
 20
-275.0811702849989
 30
5.0
 11
-177.83635315866144
 21
-275.0811702849989
 31
0.0
  0
LINE
  5
164
330
17
100
AcDbEntity
  8
0
100
AcDbLine
 10
-177.8363531586614
 20
-275.75554501850195
 30
5.0
 11
-177.8363531586614
 21
-275.0811702849989
 31
5.0
  0
LINE
  5
165
330
17
100
AcDbEntity
  8
0
100
AcDbLine
 10
-177.8363531586614
 20
-275.75554501850195
 30
0.0
 11
-177.8363531586614
 21
-275.75554501850195
 31
5.0
  0
LINE
  5
166
330
17
100
AcDbEntity
  8
0
100
AcDbLine
 10
-187.8363531586614
 20
-275.75554501850195
 30
5.0
 11
-177.8363531586614
 21
-275.75554501850195
 31
5.0
  0
LINE
  5
167
330
17
100
AcDbEntity
  8
0
100
AcDbLine
 10
-226.52353419667799
 20
-198.8921503014924
 30
5.0
 11
-226.52353419667799
 21
-198.8921503014924
 31
0.0
  0
LINE
  5
168
330
17
100
AcDbEntity
  8
0
100
AcDbLine
 10
-181.1919358744222
 20
-264.34796964212524
 30
5.0
 11
-226.5235341966779
 21
-198.89215030149245
 31
5.0
  0
LINE
  5
169
330
17
100
AcDbEntity
  8
0
100
AcDbLine
 10
-181.19193587442223
 20
-264.34796964212524
 30
5.0
 11
-181.19193587442223
 21
-264.34796964212524
 31
0.0
  0
LINE
  5
16A
330
17
100
AcDbEntity
  8
0
100
AcDbLine
 10
-113.06801362025718
 20
-230.37037953134234
 30
5.0
 11
-181.19193587442223
 21
-264.34796964212524
 31
5.0
  0
LINE
  5
16B
330
17
100
AcDbEntity
  8
0
100
AcDbLine
 10
-113.06801362025715
 20
-230.37037953134234
 30
0.0
 11
-113.06801362025715
 21
-230.37037953134234
 31
5.0
  0
LINE
  5
16C
330
17
100
AcDbEntity
  8
0
100
AcDbLine
 10
-224.96064369155442
 20
-196.37483302877715
 30
5.0
 11
-224.96064369155442
 21
-196.37483302877715
 31
0.0
  0
ARC
  5
16D
330
17
100
AcDbEntity
  8
0
100
AcDbCircle
 10
-246.94418661258922
 20
-184.47005076957475
 30
5.0
 40
25.0
100
AcDbArc
 50
324.7683244025748
 51
331.56305680131385
  0
LINE
  5
16E
330
17
100
AcDbEntity
  8
0
100
AcDbLine
 10
-195.77294471672198
 20
-205.2427251962017
 30
5.0
 11
-113.06801362025716
 21
-230.3703795313423
 31
5.0
  0
LINE
  5
16F
330
17
100
AcDbEntity
  8
0
100
AcDbLine
 10
-195.77294471672198
 20
-205.2427251962017
 30
2.5
 11
-195.77294471672198
 21
-205.2427251962017
 31
5.0
  0
LINE
  5
170
330
17
100
AcDbEntity
  8
0
100
AcDbLine
 10
-205.34108136067553
 20
-202.3357059044471
 30
2.5
 11
-195.77294471672198
 21
-205.2427251962017
 31
2.5
  0
LINE
  5
171
330
17
100
AcDbEntity
  8
0
100
AcDbLine
 10
-205.34108136067556
 20
-202.3357059044472
 30
2.5
 11
-205.34108136067556
 21
-202.3357059044472
 31
5.0
  0
LINE
  5
172
330
17
100
AcDbEntity
  8
0
100
AcDbLine
 10
-224.9606436915543
 20
-196.37483302877726
 30
5.0
 11
-205.34108136067556
 21
-202.3357059044472
 31
5.0
  0
LINE
  5
173
330
17
100
AcDbEntity
  8
0
100
AcDbLine
 10
-59.00396356935025
 20
-246.79627752347545
 30
5.0
 11
-59.00396356935025
 21
-246.79627752347545
 31
0.0
  0
LINE
  5
174
330
17
100
AcDbEntity
  8
0
100
AcDbLine
 10
-99.14448584908597
 20
-234.60066650844706
 30
5.0
 11
-59.003963569350276
 21
-246.79627752347545
 31
5.0
  0
LINE
  5
175
330
17
100
AcDbEntity
  8
0
100
AcDbLine
 10
-99.144485849086
 20
-234.60066650844706
 30
5.0
 11
-99.144485849086
 21
-234.60066650844706
 31
0.0
  0
LINE
  5
176
330
17
100
AcDbEntity
  8
0
100
AcDbLine
 10
-152.7265982028222
 20
-261.32536160208366
 30
5.0
 11
-99.14448584908597
 21
-234.60066650844706
 31
5.0
  0
LINE
  5
177
330
17
100
AcDbEntity
  8
0
100
AcDbLine
 10
-152.7265982028224
 20
-261.3253616020838
 30
0.0
 11
-152.7265982028224
 21
-261.3253616020838
 31
5.0
  0
LINE
  5
178
330
17
100
AcDbEntity
  8
0
100
AcDbLine
 10
-59.07282701905868
 20
-247.7091708434686
 30
5.0
 11
-59.07282701905868
 21
-247.7091708434686
 31
0.0
  0
ARC
  5
179
330
17
100
AcDbEntity
  8
0
100
AcDbCircle
 10
-34.11340135656087
 20
-249.13292313872435
 30
5.0
 40
25.0
100
AcDbArc
 50
174.63697486694403
 51
176.73523369548454
  0
LINE
  5
17A
330
17
100
AcDbEntity
  8
0
100
AcDbLine
 10
-89.26054635001579
 20
-252.09812112045546
 30
5.0
 11
-152.7265982028222
 21
-261.3253616020837
 31
5.0
  0
LINE
  5
17B
330
17
100
AcDbEntity
  8
0
100
AcDbLine
 10
-89.26054635001579
 20
-252.09812112045546
 30
2.5
 11
-89.26054635001579
 21
-252.09812112045546
 31
5.0
  0
LINE
  5
17C
330
17
100
AcDbEntity
  8
0
100
AcDbLine
 10
-79.36458902302772
 20
-250.65936173041453
 30
2.5
 11
-89.2605463500158
 21
-252.09812112045546
 31
2.5
  0
LINE
  5
17D
330
17
100
AcDbEntity
  8
0
100
AcDbLine
 10
-79.36458902302769
 20
-250.65936173041453
 30
2.5
 11
-79.36458902302769
 21
-250.65936173041453
 31
5.0
  0
LINE
  5
17E
330
17
100
AcDbEntity
  8
0
100
AcDbLine
 10
-59.072827019058685
 20
-247.70917084346857
 30
5.0
 11
-79.36458902302769
 21
-250.65936173041453
 31
5.0
  0
LINE
  5
17F
330
17
100
AcDbEntity
  8
0
100
AcDbLine
 10
-33.3957301548605
 20
-201.80771804993674
 30
2.5
 11
-33.3957301548605
 21
-201.80771804993674
 31
0.0
  0
LINE
  5
180
330
17
100
AcDbEntity
  8
0
100
AcDbLine
 10
-36.120168334462825
 20
-224.21359557363138
 30
5.0
 11
-36.120168334462825
 21
-224.21359557363138
 31
0.0
  0
LINE
  5
181
330
17
100
AcDbEntity
  8
0
100
AcDbLine
 10
-33.64508478620274
 20
-203.85841950157857
 30
5.0
 11
-36.12016833446284
 21
-224.21359557363155
 31
5.0
  0
LINE
  5
182
330
17
100
AcDbEntity
  8
0
100
AcDbLine
 10
-33.64508478620274
 20
-203.85841950157857
 30
2.5
 11
-33.64508478620274
 21
-203.85841950157857
 31
5.0
  0
LINE
  5
183
330
17
100
AcDbEntity
  8
0
100
AcDbLine
 10
-33.3957301548605
 20
-201.80771804993674
 30
2.5
 11
-33.64508478620267
 21
-203.85841950157857
 31
2.5
  0
LINE
  5
184
330
17
100
AcDbEntity
  8
0
100
AcDbLine
 10
-56.09694427759564
 20
-237.22814087952187
 30
5.0
 11
-56.09694427759564
 21
-237.22814087952187
 31
0.0
  0
ARC
  5
185
330
17
100
AcDbEntity
  8
0
100
AcDbCircle
 10
-34.11340135656087
 20
-249.13292313872435
 30
5.0
 40
25.0
100
AcDbArc
 50
94.60412454403573
 51
151.5630568013122
  0
LINE
  5
186
330
17
100
AcDbEntity
  8
0
100
AcDbLine
 10
-33.3957301548605
 20
-201.80771804993677
 30
2.5
 11
-28.99934007734843
 21
-199.6149679105144
 31
2.5
  0
LINE
  5
187
330
17
100
AcDbEntity
  8
0
100
AcDbLine
 10
-28.999340077348617
 20
-199.6149679105145
 30
5.0
 11
-28.999340077348617
 21
-199.6149679105145
 31
2.5
  0
LINE
  5
188
330
17
100
AcDbEntity
  8
0
100
AcDbLine
 10
-47.348742605410884
 20
-208.76694356379738
 30
5.0
 11
-28.999340077348577
 21
-199.61496791051434
 31
5.0
  0
LINE
  5
189
330
17
100
AcDbEntity
  8
0
100
AcDbLine
 10
-47.348742605410884
 20
-208.76694356379738
 30
2.5
 11
-47.348742605410884
 21
-208.76694356379738
 31
5.0
  0
LINE
  5
18A
330
17
100
AcDbEntity
  8
0
100
AcDbLine
 10
-56.29744328295247
 20
-213.23021099738986
 30
2.5
 11
-47.34874260541086
 21
-208.76694356379747
 31
2.5
  0
LINE
  5
18B
330
17
100
AcDbEntity
  8
0
100
AcDbLine
 10
-56.29744328295247
 20
-213.23021099738986
 30
2.5
 11
-56.29744328295247
 21
-213.23021099738986
 31
5.0
  0
LINE
  5
18C
330
17
100
AcDbEntity
  8
0
100
AcDbLine
 10
-86.12235969891363
 20
-228.10573124839732
 30
5.0
 11
-56.29744328295247
 21
-213.2302109973899
 31
5.0
  0
LINE
  5
18D
330
17
100
AcDbEntity
  8
0
100
AcDbLine
 10
-86.12235969891375
 20
-228.10573124839738
 30
0.0
 11
-86.12235969891375
 21
-228.10573124839738
 31
5.0
  0
LINE
  5
18E
330
17
100
AcDbEntity
  8
0
100
AcDbLine
 10
-56.09694427759548
 20
-237.22814087952193
 30
5.0
 11
-86.12235969891366
 21
-228.10573124839738
 31
5.0
  0
LINE
  5
18F
330
17
100
AcDbEntity
  8
0
100
AcDbLine
 10
-14.831882533708418
 20
-159.82506136265857
 30
5.0
 11
-14.831882533708418
 21
-159.82506136265857
 31
0.0
  0
LINE
  5
190
330
17
100
AcDbEntity
  8
0
100
AcDbLine
 10
-15.268685190045579
 20
-139.32461173503927
 30
5.0
 11
-14.831882533708333
 21
-159.82506136265846
 31
5.0
  0
LINE
  5
191
330
17
100
AcDbEntity
  8
0
100
AcDbLine
 10
-15.268685190045579
 20
-139.32461173503927
 30
2.5
 11
-15.268685190045579
 21
-139.32461173503927
 31
5.0
  0
LINE
  5
192
330
17
100
AcDbEntity
  8
0
100
AcDbLine
 10
-15.336641377905622
 20
-136.13522543919942
 30
2.5
 11
-15.268685190045648
 21
-139.32461173503924
 31
2.5
  0
LINE
  5
193
330
17
100
AcDbEntity
  8
0
100
AcDbLine
 10
-15.336641377905645
 20
-136.1352254391996
 30
0.0
 11
-15.336641377905645
 21
-136.1352254391996
 31
2.5
  0
LINE
  5
194
330
17
100
AcDbEntity
  8
0
100
AcDbLine
 10
-14.506254872463064
 20
-129.30609696875968
 30
2.5
 11
-15.336641377905622
 21
-136.13522543919942
 31
2.5
  0
LINE
  5
195
330
17
100
AcDbEntity
  8
0
100
AcDbLine
 10
-14.506254872463067
 20
-129.30609696875968
 30
2.5
 11
-14.506254872463067
 21
-129.30609696875968
 31
5.0
  0
LINE
  5
196
330
17
100
AcDbEntity
  8
0
100
AcDbLine
 10
-18.347688584071214
 20
-160.8981859000085
 30
5.0
 11
-14.506254872463066
 21
-129.30609696875968
 31
5.0
  0
LINE
  5
197
330
17
100
AcDbEntity
  8
0
100
AcDbLine
 10
-18.34768858407123
 20
-160.8981859000086
 30
5.0
 11
-18.34768858407123
 21
-160.8981859000086
 31
0.0
  0
ARC
  5
198
330
17
100
AcDbEntity
  8
0
100
AcDbCircle
 10
-9.311223273269825
 20
-184.20788977386087
 30
5.0
 40
25.0
100
AcDbArc
 50
102.75757432993635
 51
111.18980145660706
  0
LINE
  5
199
330
17
100
AcDbEntity
  8
0
100
AcDbLine
 10
-297.15606110252946
 20
-96.90346929679082
 30
5.0
 11
-297.15606110252946
 21
-96.90346929679082
 31
0.0
  0
ARC
  5
19A
330
17
100
AcDbEntity
  8
0
100
AcDbCircle
 10
-315.2126246767208
 20
-79.61299469685034
 30
5.0
 40
25.0
100
AcDbArc
 50
-43.75840250353946
 51
49.33536693064539
  0
LINE
  5
19B
330
17
100
AcDbEntity
  8
0
100
AcDbLine
 10
-298.9218670139184
 20
-60.64957689383166
 30
5.0
 11
-298.9218670139184
 21
-60.64957689383166
 31
0.0
  0
LINE
  5
19C
330
17
100
AcDbEntity
  8
0
100
AcDbLine
 10
-285.4815613445753
 20
-113.76067211625843
 30
5.0
 11
-297.1560611025293
 21
-96.90346929679092
 31
5.0
  0
LINE
  5
19D
330
17
100
AcDbEntity
  8
0
100
AcDbLine
 10
-285.4815613445753
 20
-113.76067211625843
 30
2.5
 11
-285.4815613445753
 21
-113.76067211625843
 31
5.0
  0
LINE
  5
19E
330
17
100
AcDbEntity
  8
0
100
AcDbLine
 10
-279.78810055018755
 20
-121.98165163105895
 30
2.5
 11
-285.48156134457537
 21
-113.7606721162585
 31
2.5
  0
LINE
  5
19F
330
17
100
AcDbEntity
  8
0
100
AcDbLine
 10
-279.78810055018755
 20
-121.98165163105895
 30
2.5
 11
-279.78810055018755
 21
-121.98165163105895
 31
5.0
  0
LINE
  5
1A0
330
17
100
AcDbEntity
  8
0
100
AcDbLine
 10
-261.08855866131773
 20
-148.9825490388508
 30
5.0
 11
-279.78810055018755
 21
-121.98165163105892
 31
5.0
  0
LINE
  5
1A1
330
17
100
AcDbEntity
  8
0
100
AcDbLine
 10
-261.08855866131785
 20
-148.98254903885072
 30
5.0
 11
-261.08855866131785
 21
-148.98254903885072
 31
0.0
  0
LINE
  5
1A2
330
17
100
AcDbEntity
  8
0
100
AcDbLine
 10
-288.94085745358234
 20
-42.73760660434036
 30
2.5
 11
-288.28923693184316
 21
-41.56820511695999
 31
2.5
  0
LINE
  5
1A3
330
17
100
AcDbEntity
  8
0
100
AcDbLine
 10
-288.94085745358234
 20
-42.73760660434033
 30
2.5
 11
-288.94085745358234
 21
-42.73760660434033
 31
5.0
  0
LINE
  5
1A4
330
17
100
AcDbEntity
  8
0
100
AcDbLine
 10
-298.92186701391836
 20
-60.64957689383151
 30
5.0
 11
-288.94085745358234
 21
-42.737606604340336
 31
5.0
  0
LINE
  5
1A5
330
17
100
AcDbEntity
  8
0
100
AcDbLine
 10
-288.2892369318431
 20
-41.56820511695993
 30
2.5
 11
-288.2892369318431
 21
-41.56820511695993
 31
0.0
  0
LINE
  5
1A6
330
17
100
AcDbEntity
  8
0
100
AcDbLine
 10
-262.8379132707077
 20
-142.07442065375957
 30
5.0
 11
-261.0885586613178
 21
-148.9825490388508
 31
5.0
  0
LINE
  5
1A7
330
17
100
AcDbEntity
  8
0
100
AcDbLine
 10
-262.8379132707077
 20
-142.07442065375957
 30
2.5
 11
-262.8379132707077
 21
-142.07442065375957
 31
5.0
  0
LINE
  5
1A8
330
17
100
AcDbEntity
  8
0
100
AcDbLine
 10
-265.2927403391772
 20
-132.38041095374848
 30
2.5
 11
-262.8379132707077
 21
-142.07442065375957
 31
2.5
  0
LINE
  5
1A9
330
17
100
AcDbEntity
  8
0
100
AcDbLine
 10
-265.2927403391772
 20
-132.38041095374848
 30
2.5
 11
-265.2927403391772
 21
-132.38041095374848
 31
5.0
  0
LINE
  5
1AA
330
17
100
AcDbEntity
  8
0
100
AcDbLine
 10
-291.21258291999743
 20
-30.024033745522466
 30
5.0
 11
-265.2927403391772
 21
-132.3804109537485
 31
5.0
  0
LINE
  5
1AB
330
17
100
AcDbEntity
  8
0
100
AcDbLine
 10
-291.21258291999743
 20
-30.02403374552248
 30
5.0
 11
-291.21258291999743
 21
-30.02403374552248
 31
2.5
  0
LINE
  5
1AC
330
17
100
AcDbEntity
  8
0
100
AcDbLine
 10
-288.28923693184316
 20
-41.56820511696002
 30
2.5
 11
-291.2125829199975
 21
-30.02403374552238
 31
2.5
  0
LINE
  5
1AD
330
17
100
AcDbEntity
  8
0
100
AcDbLine
 10
-291.8661308380591
 20
-27.443200277255965
 30
0.0
 11
-291.8661308380591
 21
-27.443200277255965
 31
5.0
  0
LINE
  5
1AE
330
17
100
AcDbEntity
  8
0
100
AcDbLine
 10
-300.1519239728479
 20
5.277051203026314
 30
5.0
 11
-291.8661308380592
 21
-27.443200277255997
 31
5.0
  0
LINE
  5
1AF
330
17
100
AcDbEntity
  8
0
100
AcDbLine
 10
-300.15192397284795
 20
5.2770512030264705
 30
0.0
 11
-300.15192397284795
 21
5.2770512030264705
 31
5.0
  0
LINE
  5
1B0
330
17
100
AcDbEntity
  8
0
100
AcDbLine
 10
-307.28425680566284
 20
-55.1126471986204
 30
5.0
 11
-307.28425680566284
 21
-55.1126471986204
 31
0.0
  0
LINE
  5
1B1
330
17
100
AcDbEntity
  8
0
100
AcDbLine
 10
-300.15192397284795
 20
5.277051203026312
 30
5.0
 11
-307.28425680566284
 21
-55.112647198620465
 31
5.0
  0
LINE
  5
1B2
330
17
100
AcDbEntity
  8
0
100
AcDbLine
 10
-297.67622965006353
 20
-37.8700330210297
 30
5.0
 11
-307.28425680566284
 21
-55.112647198620465
 31
5.0
  0
LINE
  5
1B3
330
17
100
AcDbEntity
  8
0
100
AcDbLine
 10
-297.67622965006353
 20
-37.8700330210297
 30
2.5
 11
-297.67622965006353
 21
-37.8700330210297
 31
5.0
  0
LINE
  5
1B4
330
17
100
AcDbEntity
  8
0
100
AcDbLine
 10
-292.8086560667529
 20
-29.134660824548575
 30
2.5
 11
-297.67622965006353
 21
-37.870033021029755
 31
2.5
  0
LINE
  5
1B5
330
17
100
AcDbEntity
  8
0
100
AcDbLine
 10
-292.8086560667529
 20
-29.134660824548575
 30
2.5
 11
-292.8086560667529
 21
-29.134660824548575
 31
5.0
  0
LINE
  5
1B6
330
17
100
AcDbEntity
  8
0
100
AcDbLine
 10
-291.8661308380592
 20
-27.443200277255997
 30
5.0
 11
-292.8086560667529
 21
-29.13466082454856
 31
5.0
  0
LINE
  5
1B7
330
17
100
AcDbEntity
  8
0
100
AcDbLine
 10
-138.2592332716294
 20
-33.32875541506212
 30
5.0
 11
-138.2592332716294
 21
-29.419869961283272
 31
5.0
  0
LINE
  5
1B8
330
17
100
AcDbEntity
  8
0
100
AcDbLine
 10
-138.2592332716294
 20
-29.419869961283315
 30
5.0
 11
-138.2592332716294
 21
-29.419869961283315
 31
0.0
  0
LINE
  5
1B9
330
17
100
AcDbEntity
  8
0
100
AcDbLine
 10
-138.2592332716294
 20
-33.32875541506212
 30
0.0
 11
-138.2592332716294
 21
-33.32875541506212
 31
5.0
  0
LINE
  5
1BA
330
17
100
AcDbEntity
  8
0
100
AcDbLine
 10
-135.67147804404206
 20
-33.32875541506212
 30
0.0
 11
-135.67147804404206
 21
-33.32875541506212
 31
5.0
  0
LINE
  5
1BB
330
17
100
AcDbEntity
  8
0
100
AcDbLine
 10
-138.2592332716294
 20
-33.32875541506212
 30
5.0
 11
-135.67147804404212
 21
-33.32875541506212
 31
5.0
  0
LINE
  5
1BC
330
17
100
AcDbEntity
  8
0
100
AcDbLine
 10
-183.30659867696795
 20
68.87905346366509
 30
5.0
 11
-138.2592332716294
 21
-29.41986996128327
 31
5.0
  0
LINE
  5
1BD
330
17
100
AcDbEntity
  8
0
100
AcDbLine
 10
-183.30659867696795
 20
68.87905346366509
 30
0.0
 11
-183.30659867696795
 21
68.87905346366509
 31
5.0
  0
LINE
  5
1BE
330
17
100
AcDbEntity
  8
0
100
AcDbLine
 10
-29.192324361818983
 20
-167.23875770926685
 30
0.0
 11
-29.192324361818983
 21
-167.23875770926685
 31
5.0
  0
LINE
  5
1BF
330
17
100
AcDbEntity
  8
0
100
AcDbLine
 10
-135.67147804404212
 20
-33.328755415062126
 30
5.0
 11
-29.192324361818976
 21
-167.23875770926685
 31
5.0
  0
LINE
  5
1C0
330
17
100
AcDbEntity
  8
0
100
AcDbLine
 10
-237.2464327448252
 20
50.03346969993118
 30
5.0
 11
-183.30659867696795
 21
68.87905346366509
 31
5.0
  0
LINE
  5
1C1
330
17
100
AcDbEntity
  8
0
100
AcDbLine
 10
-237.24643274482517
 20
50.0334696999312
 30
0.0
 11
-237.24643274482517
 21
50.0334696999312
 31
5.0
  0
LINE
  5
1C2
330
17
100
AcDbEntity
  8
0
100
AcDbLine
 10
-29.455367075877213
 20
-169.4020304452074
 30
5.0
 11
-29.455367075877213
 21
-169.4020304452074
 31
0.0
  0
LINE
  5
1C3
330
17
100
AcDbEntity
  8
0
100
AcDbLine
 10
-29.192324361818972
 20
-167.23875770926685
 30
5.0
 11
-29.455367075877028
 21
-169.4020304452059
 31
5.0
  0
LINE
  5
1C4
330
17
100
AcDbEntity
  8
0
100
AcDbLine
 10
-281.19676410072987
 20
-28.840017466005737
 30
5.0
 11
-237.2464327448252
 21
50.033469699931175
 31
5.0
  0
LINE
  5
1C5
330
17
100
AcDbEntity
  8
0
100
AcDbLine
 10
-281.19676410072987
 20
-28.840017466005683
 30
0.0
 11
-281.19676410072987
 21
-28.840017466005683
 31
5.0
  0
LINE
  5
1C6
330
17
100
AcDbEntity
  8
0
100
AcDbLine
 10
-33.46260751094104
 20
-190.66626723297293
 30
5.0
 11
-33.46260751094104
 21
-190.66626723297293
 31
0.0
  0
ARC
  5
1C7
330
17
100
AcDbEntity
  8
0
100
AcDbCircle
 10
-9.311223273269825
 20
-184.20788977386087
 30
5.0
 40
25.0
100
AcDbArc
 50
143.68427306649556
 51
194.97129567815642
  0
LINE
  5
1C8
330
17
100
AcDbEntity
  8
0
100
AcDbLine
 10
-255.59873063916612
 20
-129.92558388527897
 30
5.0
 11
-281.19676410072987
 21
-28.84001746600572
 31
5.0
  0
LINE
  5
1C9
330
17
100
AcDbEntity
  8
0
100
AcDbLine
 10
-255.59873063916612
 20
-129.92558388527897
 30
2.5
 11
-255.59873063916612
 21
-129.92558388527897
 31
5.0
  0
LINE
  5
1CA
330
17
100
AcDbEntity
  8
0
100
AcDbLine
 10
-253.14390357069658
 20
-139.6195935852901
 30
2.5
 11
-255.59873063916612
 21
-129.925583885279
 31
2.5
  0
LINE
  5
1CB
330
17
100
AcDbEntity
  8
0
100
AcDbLine
 10
-253.14390357069658
 20
-139.61959358529003
 30
2.5
 11
-253.14390357069658
 21
-139.61959358529003
 31
5.0
  0
LINE
  5
1CC
330
17
100
AcDbEntity
  8
0
100
AcDbLine
 10
-248.11025548710631
 20
-159.49725990872207
 30
5.0
 11
-253.14390357069658
 21
-139.61959358529006
 31
5.0
  0
LINE
  5
1CD
330
17
100
AcDbEntity
  8
0
100
AcDbLine
 10
-248.1102554871063
 20
-159.49725990872219
 30
5.0
 11
-248.1102554871063
 21
-159.49725990872219
 31
0.0
  0
LINE
  5
1CE
330
17
100
AcDbEntity
  8
0
100
AcDbLine
 10
-100.0458874700849
 20
-223.87544427129262
 30
5.0
 11
-100.0458874700849
 21
-223.87544427129262
 31
0.0
  0
LINE
  5
1CF
330
17
100
AcDbEntity
  8
0
100
AcDbLine
 10
-60.760710716544864
 20
-204.28151031984828
 30
5.0
 11
-100.04588747008485
 21
-223.87544427129262
 31
5.0
  0
LINE
  5
1D0
330
17
100
AcDbEntity
  8
0
100
AcDbLine
 10
-60.760710716544864
 20
-204.28151031984828
 30
2.5
 11
-60.760710716544864
 21
-204.28151031984828
 31
5.0
  0
LINE
  5
1D1
330
17
100
AcDbEntity
  8
0
100
AcDbLine
 10
-51.81201003900324
 20
-199.8182428862559
 30
2.5
 11
-60.76071071654485
 21
-204.28151031984828
 31
2.5
  0
LINE
  5
1D2
330
17
100
AcDbEntity
  8
0
100
AcDbLine
 10
-51.81201003900326
 20
-199.81824288625577
 30
2.5
 11
-51.81201003900326
 21
-199.81824288625577
 31
5.0
  0
LINE
  5
1D3
330
17
100
AcDbEntity
  8
0
100
AcDbLine
 10
-33.46260751094094
 20
-190.66626723297273
 30
5.0
 11
-51.81201003900326
 21
-199.81824288625577
 31
5.0
  0
LINE
  5
1D4
330
17
100
AcDbEntity
  8
0
100
AcDbLine
 10
-222.05362439979984
 20
-186.80669638482357
 30
5.0
 11
-222.05362439979984
 21
-186.80669638482357
 31
0.0
  0
ARC
  5
1D5
330
17
100
AcDbEntity
  8
0
100
AcDbCircle
 10
-246.94418661258922
 20
-184.47005076957475
 30
5.0
 40
25.0
100
AcDbArc
 50
-5.363025133056738
 51
92.67340295555393
  0
LINE
  5
1D6
330
17
100
AcDbEntity
  8
0
100
AcDbLine
 10
-202.43406206892095
 20
-192.76756926049364
 30
5.0
 11
-222.0536243997997
 21
-186.8066963848237
 31
5.0
  0
LINE
  5
1D7
330
17
100
AcDbEntity
  8
0
100
AcDbLine
 10
-202.43406206892095
 20
-192.76756926049364
 30
2.5
 11
-202.43406206892095
 21
-192.76756926049364
 31
5.0
  0
LINE
  5
1D8
330
17
100
AcDbEntity
  8
0
100
AcDbLine
 10
-192.8659254249674
 20
-195.67458855224814
 30
2.5
 11
-202.43406206892095
 21
-192.76756926049356
 31
2.5
  0
LINE
  5
1D9
330
17
100
AcDbEntity
  8
0
100
AcDbLine
 10
-192.8659254249674
 20
-195.67458855224814
 30
2.5
 11
-192.8659254249674
 21
-195.67458855224814
 31
5.0
  0
LINE
  5
1DA
330
17
100
AcDbEntity
  8
0
100
AcDbLine
 10
-100.04588747008484
 20
-223.87544427129265
 30
5.0
 11
-192.86592542496743
 21
-195.67458855224814
 31
5.0
  0
LINE
  5
1DB
330
17
100
AcDbEntity
  8
0
100
AcDbLine
 10
-107.63830505077954
 20
75.55796486595716
 30
5.0
 11
-107.63830505077954
 21
75.55796486595716
 31
0.0
  0
LINE
  5
1DC
330
17
100
AcDbEntity
  8
0
100
AcDbLine
 10
-111.61255833517845
 20
55.44168930792744
 30
5.0
 11
-107.63830505077955
 21
75.55796486595693
 31
5.0
  0
LINE
  5
1DD
330
17
100
AcDbEntity
  8
0
100
AcDbLine
 10
-111.61255833517845
 20
55.44168930792744
 30
2.5
 11
-111.61255833517845
 21
55.44168930792744
 31
5.0
  0
LINE
  5
1DE
330
17
100
AcDbEntity
  8
0
100
AcDbLine
 10
-113.55073604992603
 20
45.63131382346941
 30
2.5
 11
-111.61255833517846
 21
55.44168930792748
 31
2.5
  0
LINE
  5
1DF
330
17
100
AcDbEntity
  8
0
100
AcDbLine
 10
-113.55073604992603
 20
45.63131382346941
 30
2.5
 11
-113.55073604992603
 21
45.63131382346941
 31
5.0
  0
LINE
  5
1E0
330
17
100
AcDbEntity
  8
0
100
AcDbLine
 10
-127.90558820544808
 20
-27.027910662503636
 30
5.0
 11
-113.55073604992603
 21
45.6313138234694
 31
5.0
  0
LINE
  5
1E1
330
17
100
AcDbEntity
  8
0
100
AcDbLine
 10
-127.90558820544808
 20
-27.027910662503626
 30
0.0
 11
-127.90558820544808
 21
-27.027910662503626
 31
5.0
  0
LINE
  5
1E2
330
17
100
AcDbEntity
  8
0
100
AcDbLine
 10
-27.497750598429185
 20
-153.30252216476242
 30
5.0
 11
-27.497750598429185
 21
-153.30252216476242
 31
0.0
  0
LINE
  5
1E3
330
17
100
AcDbEntity
  8
0
100
AcDbLine
 10
-127.90558820544808
 20
-27.027910662503636
 30
5.0
 11
-27.497750598429192
 21
-153.30252216476242
 31
5.0
  0
LINE
  5
1E4
330
17
100
AcDbEntity
  8
0
100
AcDbLine
 10
-99.89311597908585
 20
76.83943099671066
 30
5.0
 11
-99.89311597908585
 21
76.83943099671066
 31
0.0
  0
ARC
  5
1E5
330
17
100
AcDbEntity
  8
0
100
AcDbCircle
 10
-107.79594636104343
 20
100.55746784536254
 30
5.0
 40
25.0
100
AcDbArc
 50
270.36128966444846
 51
288.42803066402746
  0
LINE
  5
1E6
330
17
100
AcDbEntity
  8
0
100
AcDbLine
 10
-16.99697083839488
 20
-66.94373194953732
 30
5.0
 11
-27.497750598429192
 21
-153.30252216476242
 31
5.0
  0
LINE
  5
1E7
330
17
100
AcDbEntity
  8
0
100
AcDbLine
 10
-16.996970838394873
 20
-66.94373194953735
 30
0.0
 11
-16.996970838394873
 21
-66.94373194953735
 31
5.0
  0
LINE
  5
1E8
330
17
100
AcDbEntity
  8
0
100
AcDbLine
 10
-16.99697083839488
 20
-66.94373194953732
 30
5.0
 11
-99.89311597908588
 21
76.83943099671066
 31
5.0
  0
LINE
  5
1E9
330
17
100
AcDbEntity
  8
0
100
AcDbLine
 10
-14.022807891531176
 20
-234.25448053800483
 30
5.0
 11
-14.022807891531176
 21
-234.25448053800483
 31
0.0
  0
LINE
  5
1EA
330
17
100
AcDbEntity
  8
0
100
AcDbLine
 10
4.563320200867494
 20
-225.59335624446828
 30
5.0
 11
-14.022807891531095
 21
-234.25448053800474
 31
5.0
  0
LINE
  5
1EB
330
17
100
AcDbEntity
  8
0
100
AcDbLine
 10
4.563320200867494
 20
-225.59335624446828
 30
2.5
 11
4.563320200867494
 21
-225.59335624446828
 31
5.0
  0
LINE
  5
1EC
330
17
100
AcDbEntity
  8
0
100
AcDbLine
 10
13.627468027967808
 20
-221.36946891542254
 30
2.5
 11
4.56332020086753
 21
-225.5933562444683
 31
2.5
  0
LINE
  5
1ED
330
17
100
AcDbEntity
  8
0
100
AcDbLine
 10
13.627468027967808
 20
-221.36946891542254
 30
2.5
 11
13.627468027967808
 21
-221.36946891542254
 31
5.0
  0
LINE
  5
1EE
330
17
100
AcDbEntity
  8
0
100
AcDbLine
 10
122.23579990503039
 20
-170.75805286230633
 30
5.0
 11
13.627468027967808
 21
-221.36946891542254
 31
5.0
  0
LINE
  5
1EF
330
17
100
AcDbEntity
  8
0
100
AcDbLine
 10
122.23579990503026
 20
-170.75805286230644
 30
5.0
 11
122.23579990503026
 21
-170.75805286230644
 31
0.0
  0
LINE
  5
1F0
330
17
100
AcDbEntity
  8
0
100
AcDbLine
 10
45.849157987137886
 20
-181.50006053137514
 30
5.0
 11
122.23579990503043
 21
-170.75805286230639
 31
5.0
  0
LINE
  5
1F1
330
17
100
AcDbEntity
  8
0
100
AcDbLine
 10
45.849157987137886
 20
-181.50006053137514
 30
2.5
 11
45.849157987137886
 21
-181.50006053137514
 31
5.0
  0
LINE
  5
1F2
330
17
100
AcDbEntity
  8
0
100
AcDbLine
 10
35.94659463267888
 20
-182.89262615314155
 30
2.5
 11
45.849157987137886
 21
-181.50006053137514
 31
2.5
  0
LINE
  5
1F3
330
17
100
AcDbEntity
  8
0
100
AcDbLine
 10
35.946594632678895
 20
-182.89262615314155
 30
2.5
 11
35.946594632678895
 21
-182.89262615314155
 31
5.0
  0
LINE
  5
1F4
330
17
100
AcDbEntity
  8
0
100
AcDbLine
 10
15.6412869016215
 20
-185.74809624442105
 30
5.0
 11
35.946594632678895
 21
-182.89262615314155
 31
5.0
  0
LINE
  5
1F5
330
17
100
AcDbEntity
  8
0
100
AcDbLine
 10
15.64128690162129
 20
-185.74809624442108
 30
5.0
 11
15.64128690162129
 21
-185.74809624442108
 31
0.0
  0
LINE
  5
1F6
330
17
100
AcDbEntity
  8
0
100
AcDbLine
 10
-26.19328501339077
 20
-225.4206529582745
 30
5.0
 11
-26.19328501339077
 21
-225.4206529582745
 31
0.0
  0
ARC
  5
1F7
330
17
100
AcDbEntity
  8
0
100
AcDbCircle
 10
-34.11340135656087
 20
-249.13292313872435
 30
5.0
 40
25.0
100
AcDbArc
 50
36.52244932930515
 51
71.53020647840432
  0
ARC
  5
1F8
330
17
100
AcDbEntity
  8
0
100
AcDbCircle
 10
-9.311223273269825
 20
-184.20788977386087
 30
5.0
 40
25.0
100
AcDbArc
 50
218.045213743789
 51
356.4678699664648
  0
ARC
  5
1F9
330
17
100
AcDbEntity
  8
0
100
AcDbCircle
 10
-9.311223273269825
 20
-184.20788977386087
 30
2.5
 40
25.0
100
AcDbArc
 50
218.04521374378862
 51
234.9445295658312
  0
LINE
  5
1FA
330
17
100
AcDbEntity
  8
0
100
AcDbLine
 10
-23.670453840395687
 20
-204.67279870403007
 30
2.5
 11
-23.670453840395687
 21
-204.67279870403007
 31
0.0
  0
LINE
  5
1FB
330
17
100
AcDbEntity
  8
0
100
AcDbLine
 10
-23.718201465130626
 20
-205.0654768862217
 30
2.5
 11
-23.670453840395634
 21
-204.6727987040301
 31
2.5
  0
LINE
  5
1FC
330
17
100
AcDbEntity
  8
0
100
AcDbLine
 10
-23.718201465130687
 20
-205.0654768862217
 30
2.5
 11
-23.718201465130687
 21
-205.0654768862217
 31
5.0
  0
LINE
  5
1FD
330
17
100
AcDbEntity
  8
0
100
AcDbLine
 10
-26.193285013390764
 20
-225.42065295827445
 30
5.0
 11
-23.71820146513069
 21
-205.0654768862217
 31
5.0
  0
LINE
  5
1FE
330
17
100
AcDbEntity
  8
0
100
AcDbLine
 10
165.65063011298184
 20
-148.6207786632381
 30
5.0
 11
165.65063011298184
 21
-148.6207786632381
 31
0.0
  0
LINE
  5
1FF
330
17
100
AcDbEntity
  8
0
100
AcDbLine
 10
236.05633309698683
 20
12.124046983970842
 30
5.0
 11
236.05633309698683
 21
12.124046983970842
 31
0.0
  0
LINE
  5
200
330
17
100
AcDbEntity
  8
0
100
AcDbLine
 10
165.6506301129818
 20
-148.62077866323813
 30
5.0
 11
236.05633309698686
 21
12.124046983970942
 31
5.0
  0
LINE
  5
201
330
17
100
AcDbEntity
  8
0
100
AcDbLine
 10
250.25990127317107
 20
13.226455106335944
 30
5.0
 11
250.25990127317107
 21
13.226455106335944
 31
0.0
  0
ARC
  5
202
330
17
100
AcDbEntity
  8
0
100
AcDbCircle
 10
241.30375160102295
 20
36.567135967229476
 30
5.0
 40
25.0
100
AcDbArc
 50
257.8836989748724
 51
290.9925150846618
  0
LINE
  5
203
330
17
100
AcDbEntity
  8
0
100
AcDbLine
 10
271.7328713208649
 20
-83.99211773693625
 30
5.0
 11
271.7328713208649
 21
-83.99211773693625
 31
0.0
  0
LINE
  5
204
330
17
100
AcDbEntity
  8
0
100
AcDbLine
 10
245.68166065581252
 20
-99.86334030558437
 30
5.0
 11
165.6506301129818
 21
-148.62077866323813
 31
5.0
  0
LINE
  5
205
330
17
100
AcDbEntity
  8
0
100
AcDbLine
 10
245.68166065581252
 20
-99.86334030558437
 30
2.5
 11
245.68166065581252
 21
-99.86334030558437
 31
5.0
  0
LINE
  5
206
330
17
100
AcDbEntity
  8
0
100
AcDbLine
 10
254.22161248958233
 20
-94.66053119156798
 30
2.5
 11
245.68166065581252
 21
-99.86334030558436
 31
2.5
  0
LINE
  5
207
330
17
100
AcDbEntity
  8
0
100
AcDbLine
 10
254.2216124895823
 20
-94.66053119156797
 30
2.5
 11
254.2216124895823
 21
-94.66053119156797
 31
5.0
  0
LINE
  5
208
330
17
100
AcDbEntity
  8
0
100
AcDbLine
 10
271.732871320865
 20
-83.99211773693614
 30
5.0
 11
254.2216124895823
 21
-94.66053119156797
 31
5.0
  0
LINE
  5
209
330
17
100
AcDbEntity
  8
0
100
AcDbLine
 10
280.72056709431325
 20
-55.175442491060366
 30
5.0
 11
280.72056709431325
 21
-55.175442491060366
 31
0.0
  0
LINE
  5
20A
330
17
100
AcDbEntity
  8
0
100
AcDbLine
 10
250.259901273171
 20
13.226455106335933
 30
5.0
 11
280.7205670943134
 21
-55.17544249106062
 31
5.0
  0
ARC
  5
20B
330
17
100
AcDbEntity
  8
0
100
AcDbCircle
 10
295.2528002985546
 20
-75.51786609537918
 30
5.0
 40
25.0
100
AcDbArc
 50
125.541278300085
 51
199.81413733175052
  0
LINE
  5
20C
330
17
100
AcDbEntity
  8
0
100
AcDbLine
 10
-295.9741092247792
 20
29.515102050521673
 30
0.0
 11
-295.9741092247792
 21
29.515102050521673
 31
5.0
  0
LINE
  5
20D
330
17
100
AcDbEntity
  8
0
100
AcDbLine
 10
-284.7736580069459
 20
-14.715012626301771
 30
5.0
 11
-295.9741092247792
 21
29.515102050521676
 31
5.0
  0
LINE
  5
20E
330
17
100
AcDbEntity
  8
0
100
AcDbLine
 10
-284.7736580069459
 20
-14.715012626301721
 30
5.0
 11
-284.7736580069459
 21
-14.715012626301721
 31
0.0
  0
LINE
  5
20F
330
17
100
AcDbEntity
  8
0
100
AcDbLine
 10
-251.46161594343005
 20
45.06694671528285
 30
5.0
 11
-284.7736580069459
 21
-14.715012626301771
 31
5.0
  0
LINE
  5
210
330
17
100
AcDbEntity
  8
0
100
AcDbLine
 10
-251.46161594343005
 20
45.066946715282825
 30
5.0
 11
-251.46161594343005
 21
45.066946715282825
 31
0.0
  0
LINE
  5
211
330
17
100
AcDbEntity
  8
0
100
AcDbLine
 10
-295.9741092247792
 20
29.515102050521666
 30
5.0
 11
-251.46161594343005
 21
45.066946715282846
 31
5.0
  0
LINE
  5
212
330
17
100
AcDbEntity
  8
0
100
AcDbLine
 10
-280.2626105818206
 20
45.59717873347291
 30
5.0
 11
-280.2626105818206
 21
45.59717873347291
 31
0.0
  0
LINE
  5
213
330
17
100
AcDbEntity
  8
0
100
AcDbLine
 10
-280.26261058182047
 20
45.59717873347295
 30
5.0
 11
-239.90773893191894
 21
82.10265035975584
 31
5.0
  0
LINE
  5
214
330
17
100
AcDbEntity
  8
0
100
AcDbLine
 10
-239.9077389319189
 20
82.10265035975584
 30
2.5
 11
-239.9077389319189
 21
82.10265035975584
 31
5.0
  0
LINE
  5
215
330
17
100
AcDbEntity
  8
0
100
AcDbLine
 10
-239.9077389319189
 20
82.10265035975584
 30
2.5
 11
-232.49182539852794
 21
88.81116930698022
 31
2.5
  0
LINE
  5
216
330
17
100
AcDbEntity
  8
0
100
AcDbLine
 10
-232.49182539852796
 20
88.81116930698025
 30
2.5
 11
-232.49182539852796
 21
88.81116930698025
 31
5.0
  0
LINE
  5
217
330
17
100
AcDbEntity
  8
0
100
AcDbLine
 10
-232.49182539852796
 20
88.81116930698025
 30
5.0
 11
-221.59181632227398
 21
98.67144034219706
 31
5.0
  0
LINE
  5
218
330
17
100
AcDbEntity
  8
0
100
AcDbLine
 10
-221.591816322274
 20
98.67144034219702
 30
0.0
 11
-221.591816322274
 21
98.67144034219702
 31
5.0
  0
LINE
  5
219
330
17
100
AcDbEntity
  8
0
100
AcDbLine
 10
-244.13211383155783
 20
58.220508313534424
 30
5.0
 11
-280.26261058182047
 21
45.597178733472944
 31
5.0
  0
LINE
  5
21A
330
17
100
AcDbEntity
  8
0
100
AcDbLine
 10
-244.1321138315579
 20
58.22050831353441
 30
0.0
 11
-244.1321138315579
 21
58.22050831353441
 31
5.0
  0
LINE
  5
21B
330
17
100
AcDbEntity
  8
0
100
AcDbLine
 10
-221.59181632227398
 20
98.67144034219704
 30
5.0
 11
-244.13211383155783
 21
58.22050831353444
 31
5.0
  0
LINE
  5
21C
330
17
100
AcDbEntity
  8
0
100
AcDbLine
 10
-210.0298594382019
 20
98.87646994985609
 30
5.0
 11
-210.0298594382019
 21
98.87646994985609
 31
0.0
  0
LINE
  5
21D
330
17
100
AcDbEntity
  8
0
100
AcDbLine
 10
-229.91693063295298
 20
63.18703129818272
 30
5.0
 11
-210.0298594382019
 21
98.87646994985604
 31
5.0
  0
LINE
  5
21E
330
17
100
AcDbEntity
  8
0
100
AcDbLine
 10
-229.91693063295298
 20
63.18703129818279
 30
5.0
 11
-229.91693063295298
 21
63.18703129818279
 31
0.0
  0
LINE
  5
21F
330
17
100
AcDbEntity
  8
0
100
AcDbLine
 10
-132.56926681983657
 20
97.19851064915683
 30
5.0
 11
-132.56926681983657
 21
97.19851064915683
 31
0.0
  0
LINE
  5
220
330
17
100
AcDbEntity
  8
0
100
AcDbLine
 10
-178.00907961716686
 20
81.32267763856234
 30
0.0
 11
-178.00907961716686
 21
81.32267763856234
 31
2.5
  0
LINE
  5
221
330
17
100
AcDbEntity
  8
0
100
AcDbLine
 10
-187.49097420381165
 20
78.00987844739852
 30
2.5
 11
-178.00907961716686
 21
81.32267763856237
 31
2.5
  0
LINE
  5
222
330
17
100
AcDbEntity
  8
0
100
AcDbLine
 10
-187.49097420381162
 20
78.00987844739852
 30
2.5
 11
-187.49097420381162
 21
78.00987844739852
 31
0.0
  0
LINE
  5
223
330
17
100
AcDbEntity
  8
0
100
AcDbLine
 10
-161.367311544424
 20
87.13700464959771
 30
5.0
 11
-229.91693063295304
 21
63.187031298182745
 31
5.0
  0
LINE
  5
224
330
17
100
AcDbEntity
  8
0
100
AcDbLine
 10
-161.367311544424
 20
87.13700464959771
 30
2.5
 11
-161.367311544424
 21
87.13700464959771
 31
5.0
  0
LINE
  5
225
330
17
100
AcDbEntity
  8
0
100
AcDbLine
 10
-151.92690902276135
 20
90.43530727806974
 30
2.5
 11
-161.367311544424
 21
87.13700464959771
 31
2.5
  0
LINE
  5
226
330
17
100
AcDbEntity
  8
0
100
AcDbLine
 10
-151.92690902276138
 20
90.43530727806976
 30
2.5
 11
-151.92690902276138
 21
90.43530727806976
 31
5.0
  0
LINE
  5
227
330
17
100
AcDbEntity
  8
0
100
AcDbLine
 10
-132.56926681983646
 20
97.19851064915689
 30
5.0
 11
-151.92690902276138
 21
90.43530727806977
 31
5.0
  0
LINE
  5
228
330
17
100
AcDbEntity
  8
0
100
AcDbLine
 10
-196.81517504632504
 20
98.35643803795
 30
5.0
 11
-196.81517504632504
 21
98.35643803795
 31
0.0
  0
ARC
  5
229
330
17
100
AcDbEntity
  8
0
100
AcDbCircle
 10
-202.4744739718807
 20
122.70746133618542
 30
5.0
 40
25.0
100
AcDbArc
 50
252.40928499627512
 51
283.0835672887019
  0
LINE
  5
22A
330
17
100
AcDbEntity
  8
0
100
AcDbLine
 10
-188.27261600908344
 20
79.71551755127929
 30
2.5
 11
-187.49097420381165
 21
78.00987844739852
 31
2.5
  0
LINE
  5
22B
330
17
100
AcDbEntity
  8
0
100
AcDbLine
 10
-188.2726160090835
 20
79.71551755127923
 30
2.5
 11
-188.2726160090835
 21
79.71551755127923
 31
5.0
  0
LINE
  5
22C
330
17
100
AcDbEntity
  8
0
100
AcDbLine
 10
-196.81517504632518
 20
98.35643803795
 30
5.0
 11
-188.27261600908352
 21
79.71551755127925
 31
5.0
  0
LINE
  5
22D
330
17
100
AcDbEntity
  8
0
100
AcDbLine
 10
-129.27096419136453
 20
87.75810812749418
 30
5.0
 11
-129.27096419136453
 21
87.75810812749418
 31
0.0
  0
LINE
  5
22E
330
17
100
AcDbEntity
  8
0
100
AcDbLine
 10
-148.62860639428936
 20
80.99490475640711
 30
5.0
 11
-129.27096419136467
 21
87.75810812749415
 31
5.0
  0
LINE
  5
22F
330
17
100
AcDbEntity
  8
0
100
AcDbLine
 10
-148.62860639428936
 20
80.99490475640711
 30
2.5
 11
-148.62860639428936
 21
80.99490475640711
 31
5.0
  0
LINE
  5
230
330
17
100
AcDbEntity
  8
0
100
AcDbLine
 10
-158.069008915952
 20
77.69660212793508
 30
2.5
 11
-148.62860639428933
 21
80.9949047564071
 31
2.5
  0
LINE
  5
231
330
17
100
AcDbEntity
  8
0
100
AcDbLine
 10
-158.069008915952
 20
77.69660212793508
 30
2.5
 11
-158.069008915952
 21
77.69660212793508
 31
5.0
  0
LINE
  5
232
330
17
100
AcDbEntity
  8
0
100
AcDbLine
 10
-173.82470409032314
 20
72.19185265482893
 30
5.0
 11
-158.069008915952
 21
77.69660212793508
 31
5.0
  0
LINE
  5
233
330
17
100
AcDbEntity
  8
0
100
AcDbLine
 10
-173.82470409032317
 20
72.1918526548289
 30
5.0
 11
-173.82470409032317
 21
72.1918526548289
 31
0.0
  0
LINE
  5
234
330
17
100
AcDbEntity
  8
0
100
AcDbLine
 10
-135.16372356271637
 20
-12.171189006343702
 30
5.0
 11
-173.82470409032317
 21
72.19185265482892
 31
5.0
  0
LINE
  5
235
330
17
100
AcDbEntity
  8
0
100
AcDbLine
 10
-135.16372356271637
 20
-12.171189006343683
 30
5.0
 11
-135.16372356271637
 21
-12.171189006343683
 31
0.0
  0
LINE
  5
236
330
17
100
AcDbEntity
  8
0
100
AcDbLine
 10
-117.44868053523759
 20
77.49614258070474
 30
5.0
 11
-117.44868053523759
 21
77.49614258070474
 31
0.0
  0
ARC
  5
237
330
17
100
AcDbEntity
  8
0
100
AcDbCircle
 10
-107.79594636104343
 20
100.55746784536254
 30
5.0
 40
25.0
100
AcDbArc
 50
210.7954324974597
 51
247.28737159881916
  0
LINE
  5
238
330
17
100
AcDbEntity
  8
0
100
AcDbLine
 10
-123.3611115343841
 20
47.569491538216965
 30
5.0
 11
-135.16372356271637
 21
-12.171189006343717
 31
5.0
  0
LINE
  5
239
330
17
100
AcDbEntity
  8
0
100
AcDbLine
 10
-123.3611115343841
 20
47.569491538216965
 30
2.5
 11
-123.3611115343841
 21
47.569491538216965
 31
5.0
  0
LINE
  5
23A
330
17
100
AcDbEntity
  8
0
100
AcDbLine
 10
-121.42293381963653
 20
57.37986702267503
 30
2.5
 11
-123.3611115343841
 21
47.56949153821696
 31
2.5
  0
LINE
  5
23B
330
17
100
AcDbEntity
  8
0
100
AcDbLine
 10
-121.42293381963651
 20
57.37986702267501
 30
2.5
 11
-121.42293381963651
 21
57.37986702267501
 31
5.0
  0
LINE
  5
23C
330
17
100
AcDbEntity
  8
0
100
AcDbLine
 10
-117.44868053523757
 20
77.49614258070469
 30
5.0
 11
-121.42293381963651
 21
57.379867022675
 31
5.0
  0
LINE
  5
23D
330
17
100
AcDbEntity
  8
0
100
AcDbLine
 10
-187.7243058731212
 20
102.52250304892763
 30
5.0
 11
-187.7243058731212
 21
102.52250304892763
 31
0.0
  0
ARC
  5
23E
330
17
100
AcDbEntity
  8
0
100
AcDbCircle
 10
-202.4744739718807
 20
122.70746133618542
 30
5.0
 40
25.0
100
AcDbArc
 50
-53.84251464566657
 51
9.71500086465548
  0
LINE
  5
23F
330
17
100
AcDbEntity
  8
0
100
AcDbLine
 10
-177.83299091321
 20
126.92614746687167
 30
5.0
 11
-177.83299091321
 21
126.92614746687167
 31
0.0
  0
LINE
  5
240
330
17
100
AcDbEntity
  8
0
100
AcDbLine
 10
-179.18174683587964
 20
83.88158256225682
 30
5.0
 11
-187.7243058731213
 21
102.52250304892759
 31
5.0
  0
LINE
  5
241
330
17
100
AcDbEntity
  8
0
100
AcDbLine
 10
-179.18174683587964
 20
83.88158256225682
 30
2.5
 11
-179.18174683587964
 21
83.88158256225682
 31
5.0
  0
LINE
  5
242
330
17
100
AcDbEntity
  8
0
100
AcDbLine
 10
-178.00907961716686
 20
81.32267763856234
 30
2.5
 11
-179.18174683587955
 21
83.88158256225687
 31
2.5
  0
LINE
  5
243
330
17
100
AcDbEntity
  8
0
100
AcDbLine
 10
-22.139118778761038
 20
187.47831426745392
 30
0.0
 11
-22.139118778761038
 21
187.47831426745392
 31
5.0
  0
LINE
  5
244
330
17
100
AcDbEntity
  8
0
100
AcDbLine
 10
-149.40237347534702
 20
137.98332952381475
 30
5.0
 11
-22.1391187787613
 21
187.47831426745378
 31
5.0
  0
LINE
  5
245
330
17
100
AcDbEntity
  8
0
100
AcDbLine
 10
-149.40237347534702
 20
137.98332952381475
 30
2.5
 11
-149.40237347534702
 21
137.98332952381475
 31
5.0
  0
LINE
  5
246
330
17
100
AcDbEntity
  8
0
100
AcDbLine
 10
-158.7223281847608
 20
134.35863033429905
 30
2.5
 11
-149.40237347534702
 21
137.98332952381475
 31
2.5
  0
LINE
  5
247
330
17
100
AcDbEntity
  8
0
100
AcDbLine
 10
-158.72232818476078
 20
134.3586303342991
 30
2.5
 11
-158.72232818476078
 21
134.3586303342991
 31
5.0
  0
LINE
  5
248
330
17
100
AcDbEntity
  8
0
100
AcDbLine
 10
-177.83299091321007
 20
126.92614746687167
 30
5.0
 11
-158.72232818476078
 21
134.3586303342991
 31
5.0
  0
LINE
  5
249
330
17
100
AcDbEntity
  8
0
100
AcDbLine
 10
-93.31691092971931
 20
120.9377900454275
 30
5.0
 11
-93.31691092971931
 21
120.9377900454275
 31
0.0
  0
LINE
  5
24A
330
17
100
AcDbEntity
  8
0
100
AcDbLine
 10
-78.33788104887674
 20
134.94092881228852
 30
5.0
 11
-93.31691092971916
 21
120.93779004542759
 31
5.0
  0
LINE
  5
24B
330
17
100
AcDbEntity
  8
0
100
AcDbLine
 10
-78.33788104887674
 20
134.94092881228852
 30
2.5
 11
-78.33788104887674
 21
134.94092881228852
 31
5.0
  0
LINE
  5
24C
330
17
100
AcDbEntity
  8
0
100
AcDbLine
 10
-71.03285546896393
 20
141.77002840717068
 30
2.5
 11
-78.33788104887677
 21
134.94092881228858
 31
2.5
  0
LINE
  5
24D
330
17
100
AcDbEntity
  8
0
100
AcDbLine
 10
-71.03285546896393
 20
141.77002840717068
 30
2.5
 11
-71.03285546896393
 21
141.77002840717068
 31
5.0
  0
LINE
  5
24E
330
17
100
AcDbEntity
  8
0
100
AcDbLine
 10
-22.139118778761294
 20
187.47831426745373
 30
5.0
 11
-71.03285546896394
 21
141.77002840717063
 31
5.0
  0
ARC
  5
24F
330
17
100
AcDbEntity
  8
0
100
AcDbCircle
 10
-107.79594636104343
 20
100.55746784536254
 30
5.0
 40
25.0
100
AcDbArc
 50
54.60841721153265
 51
187.721514431829
  0
LINE
  5
250
330
17
100
AcDbEntity
  8
0
100
AcDbLine
 10
226.8964312578812
 20
16.13605375090786
 30
5.0
 11
226.8964312578812
 21
16.13605375090786
 31
0.0
  0
ARC
  5
251
330
17
100
AcDbEntity
  8
0
100
AcDbCircle
 10
241.30375160102295
 20
36.567135967229476
 30
5.0
 40
25.0
100
AcDbArc
 50
190.7557295471343
 51
234.80978090924043
  0
LINE
  5
252
330
17
100
AcDbEntity
  8
0
100
AcDbLine
 10
216.74295808827145
 20
31.901578977545963
 30
5.0
 11
216.74295808827145
 21
31.901578977545963
 31
0.0
  0
LINE
  5
253
330
17
100
AcDbEntity
  8
0
100
AcDbLine
 10
196.23976157892258
 20
32.181157936272555
 30
5.0
 11
216.74295808827122
 21
31.90157897754597
 31
5.0
  0
LINE
  5
254
330
17
100
AcDbEntity
  8
0
100
AcDbLine
 10
196.23976157892258
 20
32.181157936272555
 30
0.0
 11
196.23976157892258
 21
32.181157936272555
 31
5.0
  0
LINE
  5
255
330
17
100
AcDbEntity
  8
0
100
AcDbLine
 10
151.43901551780755
 20
-156.1424495925314
 30
0.0
 11
151.43901551780755
 21
-156.1424495925314
 31
5.0
  0
LINE
  5
256
330
17
100
AcDbEntity
  8
0
100
AcDbLine
 10
151.4390155178075
 20
-156.1424495925314
 30
5.0
 11
226.8964312578812
 21
16.136053750907962
 31
5.0
  0
LINE
  5
257
330
17
100
AcDbEntity
  8
0
100
AcDbLine
 10
196.37610762144666
 20
42.1802283809033
 30
0.0
 11
196.37610762144666
 21
42.1802283809033
 31
5.0
  0
LINE
  5
258
330
17
100
AcDbEntity
  8
0
100
AcDbLine
 10
196.37610762144666
 20
42.1802283809033
 30
5.0
 11
196.23976157892255
 21
32.181157936272555
 31
5.0
  0
LINE
  5
259
330
17
100
AcDbEntity
  8
0
100
AcDbLine
 10
149.70760580307612
 20
-156.1424495925314
 30
5.0
 11
151.4390155178075
 21
-156.1424495925314
 31
5.0
  0
LINE
  5
25A
330
17
100
AcDbEntity
  8
0
100
AcDbLine
 10
149.70760580307612
 20
-156.1424495925314
 30
0.0
 11
149.70760580307612
 21
-156.1424495925314
 31
5.0
  0
LINE
  5
25B
330
17
100
AcDbEntity
  8
0
100
AcDbLine
 10
216.87930413079584
 20
41.900649422176706
 30
5.0
 11
196.37610762144666
 21
42.1802283809033
 31
5.0
  0
LINE
  5
25C
330
17
100
AcDbEntity
  8
0
100
AcDbLine
 10
216.87930413079556
 20
41.90064942217671
 30
5.0
 11
216.87930413079556
 21
41.90064942217671
 31
0.0
  0
LINE
  5
25D
330
17
100
AcDbEntity
  8
0
100
AcDbLine
 10
149.70760580307612
 20
-156.79638581584382
 30
5.0
 11
149.70760580307612
 21
-156.1424495925314
 31
5.0
  0
LINE
  5
25E
330
17
100
AcDbEntity
  8
0
100
AcDbLine
 10
149.70760580307615
 20
-156.79638581584385
 30
0.0
 11
149.70760580307615
 21
-156.79638581584385
 31
5.0
  0
ARC
  5
25F
330
17
100
AcDbEntity
  8
0
100
AcDbCircle
 10
241.30375160102295
 20
36.567135967229476
 30
5.0
 40
25.0
100
AcDbArc
 50
123.62776011940124
 51
167.68181148150333
  0
LINE
  5
260
330
17
100
AcDbEntity
  8
0
100
AcDbLine
 10
227.45887562143437
 20
57.38346151017319
 30
5.0
 11
227.45887562143437
 21
57.38346151017319
 31
0.0
  0
LINE
  5
261
330
17
100
AcDbEntity
  8
0
100
AcDbLine
 10
14.248721279854886
 20
-175.84553288996207
 30
5.0
 11
14.248721279854886
 21
-175.84553288996207
 31
0.0
  0
LINE
  5
262
330
17
100
AcDbEntity
  8
0
100
AcDbLine
 10
34.55402901091249
 20
-172.99006279868254
 30
5.0
 11
14.248721279854788
 21
-175.8455328899621
 31
5.0
  0
LINE
  5
263
330
17
100
AcDbEntity
  8
0
100
AcDbLine
 10
34.55402901091249
 20
-172.99006279868254
 30
2.5
 11
34.55402901091249
 21
-172.99006279868254
 31
5.0
  0
LINE
  5
264
330
17
100
AcDbEntity
  8
0
100
AcDbLine
 10
44.45659236537148
 20
-171.59749717691614
 30
2.5
 11
34.55402901091247
 21
-172.99006279868254
 31
2.5
  0
LINE
  5
265
330
17
100
AcDbEntity
  8
0
100
AcDbLine
 10
44.45659236537148
 20
-171.59749717691614
 30
2.5
 11
44.45659236537148
 21
-171.59749717691614
 31
5.0
  0
LINE
  5
266
330
17
100
AcDbEntity
  8
0
100
AcDbLine
 10
149.70760580307612
 20
-156.79638581584382
 30
5.0
 11
44.45659236537149
 21
-171.59749717691614
 31
5.0
  0
LINE
  5
267
330
17
100
AcDbEntity
  8
0
100
AcDbLine
 10
219.74740885979162
 20
76.38326445334127
 30
5.0
 11
227.4588756214344
 21
57.38346151017298
 31
5.0
  0
LINE
  5
268
330
17
100
AcDbEntity
  8
0
100
AcDbLine
 10
219.74740885979162
 20
76.38326445334127
 30
2.5
 11
219.74740885979162
 21
76.38326445334127
 31
5.0
  0
LINE
  5
269
330
17
100
AcDbEntity
  8
0
100
AcDbLine
 10
215.9866538308899
 20
85.64915467568858
 30
2.5
 11
219.74740885979162
 21
76.38326445334133
 31
2.5
  0
LINE
  5
26A
330
17
100
AcDbEntity
  8
0
100
AcDbLine
 10
215.9866538308899
 20
85.64915467568858
 30
2.5
 11
215.9866538308899
 21
85.64915467568858
 31
5.0
  0
LINE
  5
26B
330
17
100
AcDbEntity
  8
0
100
AcDbLine
 10
207.866743783677
 20
105.65529560605961
 30
5.0
 11
215.9866538308899
 21
85.64915467568858
 31
5.0
  0
LINE
  5
26C
330
17
100
AcDbEntity
  8
0
100
AcDbLine
 10
207.8667437836771
 20
105.65529560605948
 30
5.0
 11
207.8667437836771
 21
105.65529560605948
 31
0.0
  0
LINE
  5
26D
330
17
100
AcDbEntity
  8
0
100
AcDbLine
 10
-4.834151697948167
 20
-159.61203991845952
 30
5.0
 11
-4.834151697948167
 21
-159.61203991845952
 31
0.0
  0
ARC
  5
26E
330
17
100
AcDbEntity
  8
0
100
AcDbCircle
 10
-9.311223273269825
 20
-184.20788977386087
 30
5.0
 40
25.0
100
AcDbArc
 50
19.54178803209505
 51
79.6836562643046
  0
ARC
  5
26F
330
17
100
AcDbEntity
  8
0
100
AcDbCircle
 10
203.6030733623352
 20
130.28903495960006
 30
5.0
 40
25.0
100
AcDbArc
 50
238.88533544969064
 51
279.81961365610516
  0
LINE
  5
270
330
17
100
AcDbEntity
  8
0
100
AcDbLine
 10
190.68426163843282
 20
108.88566364472628
 30
5.0
 11
190.68426163843282
 21
108.88566364472628
 31
0.0
  0
LINE
  5
271
330
17
100
AcDbEntity
  8
0
100
AcDbLine
 10
-6.832189508271217
 20
-65.8381745576607
 30
0.0
 11
-6.832189508271217
 21
-65.8381745576607
 31
5.0
  0
LINE
  5
272
330
17
100
AcDbEntity
  8
0
100
AcDbLine
 10
-5.483975798484417
 20
-129.11385945508
 30
5.0
 11
-6.832189508271186
 21
-65.83817455766285
 31
5.0
  0
LINE
  5
273
330
17
100
AcDbEntity
  8
0
100
AcDbLine
 10
-5.483975798484417
 20
-129.11385945508
 30
2.5
 11
-5.483975798484417
 21
-129.11385945508
 31
5.0
  0
LINE
  5
274
330
17
100
AcDbEntity
  8
0
100
AcDbLine
 10
-5.270954354285398
 20
-139.11159029084024
 30
2.5
 11
-5.483975798484417
 21
-129.11385945508
 31
2.5
  0
LINE
  5
275
330
17
100
AcDbEntity
  8
0
100
AcDbLine
 10
-5.270954354285328
 20
-139.11159029084024
 30
2.5
 11
-5.270954354285328
 21
-139.11159029084024
 31
5.0
  0
LINE
  5
276
330
17
100
AcDbEntity
  8
0
100
AcDbLine
 10
-4.834151697948074
 20
-159.61203991845974
 30
5.0
 11
-5.270954354285328
 21
-139.11159029084024
 31
5.0
  0
LINE
  5
277
330
17
100
AcDbEntity
  8
0
100
AcDbLine
 10
176.79125659898045
 20
93.80442886540892
 30
5.0
 11
190.68426163843284
 21
108.88566364472634
 31
5.0
  0
LINE
  5
278
330
17
100
AcDbEntity
  8
0
100
AcDbLine
 10
176.79125659898045
 20
93.80442886540892
 30
0.0
 11
176.79125659898045
 21
93.80442886540892
 31
5.0
  0
LINE
  5
279
330
17
100
AcDbEntity
  8
0
100
AcDbLine
 10
-6.832189508270991
 20
-65.83817455766285
 30
5.0
 11
-6.832189508270991
 21
-60.89143596166542
 31
5.0
  0
LINE
  5
27A
330
17
100
AcDbEntity
  8
0
100
AcDbLine
 10
-6.832189508270991
 20
-60.89143596166542
 30
0.0
 11
-6.832189508270991
 21
-60.89143596166542
 31
5.0
  0
LINE
  5
27B
330
17
100
AcDbEntity
  8
0
100
AcDbLine
 10
169.43638737741057
 20
100.57981805966219
 30
0.0
 11
169.43638737741057
 21
100.57981805966219
 31
5.0
  0
LINE
  5
27C
330
17
100
AcDbEntity
  8
0
100
AcDbLine
 10
169.43638737741057
 20
100.57981805966219
 30
5.0
 11
176.79125659898045
 21
93.80442886540892
 31
5.0
  0
LINE
  5
27D
330
17
100
AcDbEntity
  8
0
100
AcDbLine
 10
-8.943400986040736
 20
-60.89143596166542
 30
5.0
 11
-6.832189508270993
 21
-60.89143596166542
 31
5.0
  0
LINE
  5
27E
330
17
100
AcDbEntity
  8
0
100
AcDbLine
 10
-8.9434009860406
 20
-60.89143596166542
 30
5.0
 11
-8.9434009860406
 21
-60.89143596166542
 31
0.0
  0
LINE
  5
27F
330
17
100
AcDbEntity
  8
0
100
AcDbLine
 10
183.32939241686282
 20
115.66105283897946
 30
5.0
 11
169.43638737741054
 21
100.57981805966219
 31
5.0
  0
LINE
  5
280
330
17
100
AcDbEntity
  8
0
100
AcDbLine
 10
183.3293924168629
 20
115.66105283897954
 30
5.0
 11
183.3293924168629
 21
115.66105283897954
 31
0.0
  0
LINE
  5
281
330
17
100
AcDbEntity
  8
0
100
AcDbLine
 10
-91.22980833288625
 20
81.83413825813247
 30
5.0
 11
-91.22980833288625
 21
81.83413825813247
 31
0.0
  0
LINE
  5
282
330
17
100
AcDbEntity
  8
0
100
AcDbLine
 10
-8.943400986040736
 20
-60.89143596166542
 30
5.0
 11
-91.22980833288618
 21
81.83413825813233
 31
5.0
  0
ARC
  5
283
330
17
100
AcDbEntity
  8
0
100
AcDbCircle
 10
203.6030733623352
 20
130.28903495960006
 30
5.0
 40
25.0
100
AcDbArc
 50
172.22939259929703
 51
215.8114173840599
  0
LINE
  5
284
330
17
100
AcDbEntity
  8
0
100
AcDbLine
 10
178.83264006558474
 20
133.66921754212967
 30
5.0
 11
178.83264006558474
 21
133.66921754212967
 31
0.0
  0
ARC
  5
285
330
17
100
AcDbEntity
  8
0
100
AcDbCircle
 10
-107.79594636104343
 20
100.55746784536254
 30
5.0
 40
25.0
100
AcDbArc
 50
-48.4980512703427
 51
31.53449914590206
  0
LINE
  5
286
330
17
100
AcDbEntity
  8
0
100
AcDbLine
 10
-86.48781133483718
 20
113.63276446551468
 30
5.0
 11
-86.48781133483718
 21
113.63276446551468
 31
0.0
  0
LINE
  5
287
330
17
100
AcDbEntity
  8
0
100
AcDbLine
 10
1.4287185247672247
 20
195.82148945760846
 30
5.0
 11
1.4287185247672247
 21
195.82148945760846
 31
0.0
  0
LINE
  5
288
330
17
100
AcDbEntity
  8
0
100
AcDbLine
 10
1.4287185247672087
 20
195.82148945760844
 30
5.0
 11
178.83264006558466
 21
133.66921754212967
 31
5.0
  0
LINE
  5
289
330
17
100
AcDbEntity
  8
0
100
AcDbLine
 10
-64.20375587408182
 20
134.46500282725782
 30
2.5
 11
-64.20375587408182
 21
134.46500282725782
 31
5.0
  0
LINE
  5
28A
330
17
100
AcDbEntity
  8
0
100
AcDbLine
 10
-71.50878145399464
 20
127.63590323237571
 30
2.5
 11
-64.2037558740818
 21
134.46500282725782
 31
2.5
  0
LINE
  5
28B
330
17
100
AcDbEntity
  8
0
100
AcDbLine
 10
-71.50878145399463
 20
127.63590323237568
 30
2.5
 11
-71.50878145399463
 21
127.63590323237568
 31
5.0
  0
LINE
  5
28C
330
17
100
AcDbEntity
  8
0
100
AcDbLine
 10
-86.48781133483722
 20
113.63276446551458
 30
5.0
 11
-71.50878145399463
 21
127.63590323237568
 31
5.0
  0
LINE
  5
28D
330
17
100
AcDbEntity
  8
0
100
AcDbLine
 10
-64.20375587408182
 20
134.46500282725782
 30
5.0
 11
1.4287185247672056
 21
195.82148945760844
 31
5.0
  0
LINE
  5
28E
330
17
100
AcDbEntity
  8
0
100
AcDbLine
 10
182.1390303396673
 20
143.10679050107692
 30
5.0
 11
182.1390303396673
 21
143.10679050107692
 31
0.0
  0
ARC
  5
28F
330
17
100
AcDbEntity
  8
0
100
AcDbCircle
 10
203.6030733623352
 20
130.28903495960006
 30
5.0
 40
25.0
100
AcDbArc
 50
124.36198851706415
 51
149.15547453366582
  0
LINE
  5
290
330
17
100
AcDbEntity
  8
0
100
AcDbLine
 10
189.49258641798312
 20
150.92623821472333
 30
5.0
 11
189.49258641798312
 21
150.92623821472333
 31
0.0
  0
LINE
  5
291
330
17
100
AcDbEntity
  8
0
100
AcDbLine
 10
161.25076590119815
 20
220.5095018351102
 30
5.0
 11
189.4925864179832
 21
150.92623821472307
 31
5.0
  0
LINE
  5
292
330
17
100
AcDbEntity
  8
0
100
AcDbLine
 10
161.2507659011981
 20
220.50950183511037
 30
5.0
 11
161.2507659011981
 21
220.50950183511037
 31
0.0
  0
LINE
  5
293
330
17
100
AcDbEntity
  8
0
100
AcDbLine
 10
16.90781857316264
 20
200.99443533689313
 30
0.0
 11
16.90781857316264
 21
200.99443533689313
 31
5.0
  0
LINE
  5
294
330
17
100
AcDbEntity
  8
0
100
AcDbLine
 10
16.907818573162764
 20
200.9944353368931
 30
5.0
 11
182.13903033966733
 21
143.1067905010769
 31
5.0
  0
ARC
  5
295
330
17
100
AcDbEntity
  8
0
100
AcDbCircle
 10
156.6717801439567
 20
245.08658240695578
 30
5.0
 40
25.0
100
AcDbArc
 50
207.09103737943664
 51
280.5538420537701
  0
LINE
  5
296
330
17
100
AcDbEntity
  8
0
100
AcDbLine
 10
134.41467881017834
 20
233.70144120370662
 30
5.0
 11
134.41467881017834
 21
233.70144120370662
 31
0.0
  0
LINE
  5
297
330
17
100
AcDbEntity
  8
0
100
AcDbLine
 10
114.660518361989
 20
228.20304357509417
 30
5.0
 11
134.41467881017832
 21
233.70144120370662
 31
5.0
  0
LINE
  5
298
330
17
100
AcDbEntity
  8
0
100
AcDbLine
 10
114.660518361989
 20
228.20304357509417
 30
2.5
 11
114.660518361989
 21
228.20304357509417
 31
5.0
  0
LINE
  5
299
330
17
100
AcDbEntity
  8
0
100
AcDbLine
 10
105.02674043834094
 20
225.5215658261969
 30
2.5
 11
114.660518361989
 21
228.20304357509414
 31
2.5
  0
LINE
  5
29A
330
17
100
AcDbEntity
  8
0
100
AcDbLine
 10
105.02674043834094
 20
225.5215658261969
 30
2.5
 11
105.02674043834094
 21
225.5215658261969
 31
5.0
  0
LINE
  5
29B
330
17
100
AcDbEntity
  8
0
100
AcDbLine
 10
16.90781857316276
 20
200.99443533689313
 30
5.0
 11
105.02674043834095
 21
225.5215658261969
 31
5.0
  0
LINE
  5
29C
330
17
100
AcDbEntity
  8
0
100
AcDbLine
 10
-293.70254085937574
 20
-119.45413291064627
 30
5.0
 11
-285.4815613445753
 21
-113.76067211625843
 31
5.0
  0
LINE
  5
29D
330
17
100
AcDbEntity
  8
0
100
AcDbLine
 10
-288.94085745358234
 20
-42.73760660434033
 30
5.0
 11
-297.67622965006353
 21
-37.8700330210297
 31
5.0
  0
LINE
  5
29E
330
17
100
AcDbEntity
  8
0
100
AcDbLine
 10
-292.8086560667529
 20
-29.134660824548575
 30
5.0
 11
-291.21258291999743
 21
-30.024033745522456
 31
5.0
  0
LINE
  5
29F
330
17
100
AcDbEntity
  8
0
100
AcDbLine
 10
-265.2927403391772
 20
-132.38041095374848
 30
5.0
 11
-255.59873063916612
 21
-129.92558388527894
 31
5.0
  0
LINE
  5
2A0
330
17
100
AcDbEntity
  8
0
100
AcDbLine
 10
-51.81201003900326
 20
-199.81824288625577
 30
5.0
 11
-47.34874260541088
 21
-208.76694356379738
 31
5.0
  0
LINE
  5
2A1
330
17
100
AcDbEntity
  8
0
100
AcDbLine
 10
35.946594632678895
 20
-182.89262615314155
 30
5.0
 11
34.55402901091249
 21
-172.99006279868254
 31
5.0
  0
LINE
  5
2A2
330
17
100
AcDbEntity
  8
0
100
AcDbLine
 10
-5.270954354285328
 20
-139.11159029084024
 30
5.0
 11
-15.268685190045579
 21
-139.32461173503927
 31
5.0
  0
LINE
  5
2A3
330
17
100
AcDbEntity
  8
0
100
AcDbLine
 10
-14.506254872463066
 20
-129.30609696875968
 30
5.0
 11
-5.483975798484417
 21
-129.11385945507996
 31
5.0
  0
LINE
  5
2A4
330
17
100
AcDbEntity
  8
0
100
AcDbLine
 10
-71.50878145399463
 20
127.63590323237568
 30
5.0
 11
-78.33788104887675
 21
134.94092881228852
 31
5.0
  0
LINE
  5
2A5
330
17
100
AcDbEntity
  8
0
100
AcDbLine
 10
-151.92690902276138
 20
90.43530727806976
 30
5.0
 11
-148.62860639428936
 21
80.99490475640711
 31
5.0
  0
LINE
  5
2A6
330
17
100
AcDbEntity
  8
0
100
AcDbLine
 10
-121.42293381963651
 20
57.37986702267501
 30
5.0
 11
-111.61255833517845
 21
55.44168930792744
 31
5.0
  0
LINE
  5
2A7
330
17
100
AcDbEntity
  8
0
100
AcDbLine
 10
-113.55073604992603
 20
45.63131382346941
 30
5.0
 11
-123.3611115343841
 21
47.56949153821698
 31
5.0
  0
LINE
  5
2A8
330
17
100
AcDbEntity
  8
0
100
AcDbLine
 10
-158.069008915952
 20
77.69660212793508
 30
5.0
 11
-161.367311544424
 21
87.13700464959773
 31
5.0
  0
LINE
  5
2A9
330
17
100
AcDbEntity
  8
0
100
AcDbLine
 10
-188.2726160090835
 20
79.71551755127923
 30
5.0
 11
-179.18174683587964
 21
83.88158256225682
 31
5.0
  0
LINE
  5
2AA
330
17
100
AcDbEntity
  8
0
100
AcDbLine
 10
-158.72232818476078
 20
134.3586303342991
 30
5.0
 11
-162.34702737427648
 21
143.6785850437129
 31
5.0
  0
LINE
  5
2AB
330
17
100
AcDbEntity
  8
0
100
AcDbLine
 10
-239.20034434575234
 20
96.22708284037122
 30
5.0
 11
-232.49182539852796
 21
88.81116930698023
 31
5.0
  0
LINE
  5
2AC
330
17
100
AcDbEntity
  8
0
100
AcDbLine
 10
-239.9077389319189
 20
82.10265035975584
 30
5.0
 11
-246.6162578791433
 21
89.51856389314683
 31
5.0
  0
LINE
  5
2AD
330
17
100
AcDbEntity
  8
0
100
AcDbLine
 10
-87.82178695997486
 20
-261.99407844744354
 30
5.0
 11
-89.2605463500158
 21
-252.09812112045546
 31
5.0
  0
LINE
  5
2AE
330
17
100
AcDbEntity
  8
0
100
AcDbLine
 10
-79.36458902302769
 20
-250.65936173041453
 30
5.0
 11
-77.92582963298675
 21
-260.5553190574026
 31
5.0
  0
LINE
  5
2AF
330
17
100
AcDbEntity
  8
0
100
AcDbLine
 10
8.78720752991326
 20
-234.65750407156858
 30
5.0
 11
4.5633202008675005
 21
-225.5933562444683
 31
5.0
  0
LINE
  5
2B0
330
17
100
AcDbEntity
  8
0
100
AcDbLine
 10
-23.718201465130687
 20
-205.0654768862217
 30
5.0
 11
-33.64508478620274
 21
-203.85841950157854
 31
5.0
  0
LINE
  5
2B1
330
17
100
AcDbEntity
  8
0
100
AcDbLine
 10
-56.29744328295247
 20
-213.23021099738986
 30
5.0
 11
-60.76071071654485
 21
-204.28151031984825
 31
5.0
  0
LINE
  5
2B2
330
17
100
AcDbEntity
  8
0
100
AcDbLine
 10
-192.8659254249674
 20
-195.67458855224814
 30
5.0
 11
-195.77294471672198
 21
-205.2427251962017
 31
5.0
  0
LINE
  5
2B3
330
17
100
AcDbEntity
  8
0
100
AcDbLine
 10
-205.34108136067556
 20
-202.3357059044472
 30
5.0
 11
-202.43406206892098
 21
-192.76756926049364
 31
5.0
  0
LINE
  5
2B4
330
17
100
AcDbEntity
  8
0
100
AcDbLine
 10
-253.14390357069658
 20
-139.61959358529003
 30
5.0
 11
-262.8379132707077
 21
-142.07442065375957
 31
5.0
  0
LINE
  5
2B5
330
17
100
AcDbEntity
  8
0
100
AcDbLine
 10
-279.78810055018755
 20
-121.98165163105895
 30
5.0
 11
-288.009080064988
 21
-127.6751124254468
 31
5.0
  0
LINE
  5
2B6
330
17
100
AcDbEntity
  8
0
100
AcDbLine
 10
-288.009080064988
 20
-127.67511242544677
 30
2.5
 11
-279.78810055018755
 21
-121.98165163105892
 31
2.5
  0
LINE
  5
2B7
330
17
100
AcDbEntity
  8
0
100
AcDbLine
 10
-285.48156134457537
 20
-113.76067211625852
 30
2.5
 11
-293.7025408593758
 21
-119.45413291064636
 31
2.5
  0
LINE
  5
2B8
330
17
100
AcDbEntity
  8
0
100
AcDbLine
 10
-246.6162578791433
 20
89.51856389314683
 30
2.5
 11
-239.9077389319189
 21
82.10265035975584
 31
2.5
  0
LINE
  5
2B9
330
17
100
AcDbEntity
  8
0
100
AcDbLine
 10
-232.49182539852794
 20
88.81116930698022
 30
2.5
 11
-239.2003443457523
 21
96.22708284037121
 31
2.5
  0
LINE
  5
2BA
330
17
100
AcDbEntity
  8
0
100
AcDbLine
 10
-162.3470273742765
 20
143.67858504371287
 30
2.5
 11
-158.7223281847608
 21
134.35863033429908
 31
2.5
  0
LINE
  5
2BB
330
17
100
AcDbEntity
  8
0
100
AcDbLine
 10
-149.40237347534702
 20
137.98332952381475
 30
2.5
 11
-153.02707266486271
 21
147.30328423322854
 31
2.5
  0
LINE
  5
2BC
330
17
100
AcDbEntity
  8
0
100
AcDbLine
 10
-153.02707266486271
 20
147.30328423322854
 30
5.0
 11
-149.40237347534702
 21
137.98332952381475
 31
5.0
  0
LINE
  5
2BD
330
17
100
AcDbEntity
  8
0
100
AcDbLine
 10
-71.03285546896393
 20
141.77002840717068
 30
5.0
 11
-64.2037558740818
 21
134.46500282725785
 31
5.0
  0
LINE
  5
2BE
330
17
100
AcDbEntity
  8
0
100
AcDbLine
 10
215.9866538308899
 20
85.64915467568858
 30
5.0
 11
225.25254405323716
 21
89.40990970459029
 31
5.0
  0
LINE
  5
2BF
330
17
100
AcDbEntity
  8
0
100
AcDbLine
 10
225.25254405323716
 20
89.40990970459029
 30
5.0
 11
224.81951127612177
 21
90.47683220940473
 31
5.0
  0
LINE
  5
2C0
330
17
100
AcDbEntity
  8
0
100
AcDbLine
 10
224.81951127612177
 20
90.47683220940473
 30
5.0
 11
226.47689527485636
 21
91.21489682304909
 31
5.0
  0
LINE
  5
2C1
330
17
100
AcDbEntity
  8
0
100
AcDbLine
 10
111.97904061309177
 20
237.83682149874224
 30
5.0
 11
114.660518361989
 21
228.20304357509417
 31
5.0
  0
LINE
  5
2C2
330
17
100
AcDbEntity
  8
0
100
AcDbLine
 10
105.02674043834094
 20
225.5215658261969
 30
5.0
 11
102.3452626894437
 21
235.15534374984497
 31
5.0
  0
LINE
  5
2C3
330
17
100
AcDbEntity
  8
0
100
AcDbLine
 10
102.3452626894437
 20
235.15534374984497
 30
2.5
 11
105.02674043834094
 21
225.5215658261969
 31
2.5
  0
LINE
  5
2C4
330
17
100
AcDbEntity
  8
0
100
AcDbLine
 10
114.660518361989
 20
228.20304357509414
 30
2.5
 11
111.97904061309177
 21
237.8368214987422
 31
2.5
  0
LINE
  5
2C5
330
17
100
AcDbEntity
  8
0
100
AcDbLine
 10
224.81951127612177
 20
90.47683220940473
 30
2.5
 11
224.81951127612177
 21
90.47683220940473
 31
5.0
  0
LINE
  5
2C6
330
17
100
AcDbEntity
  8
0
100
AcDbLine
 10
226.47689527485633
 20
91.21489682304905
 30
2.5
 11
224.8195112761218
 21
90.47683220940472
 31
2.5
  0
LINE
  5
2C7
330
17
100
AcDbEntity
  8
0
100
AcDbLine
 10
219.74740885979162
 20
76.38326445334133
 30
2.5
 11
221.76949674462276
 21
77.20397104485903
 31
2.5
  0
LINE
  5
2C8
330
17
100
AcDbEntity
  8
0
100
AcDbLine
 10
221.40980244399438
 20
78.01169379335104
 30
2.5
 11
221.76949674462276
 21
77.20397104485903
 31
2.5
  0
LINE
  5
2C9
330
17
100
AcDbEntity
  8
0
100
AcDbLine
 10
221.40980244399435
 20
78.01169379335103
 30
2.5
 11
230.54495037427438
 21
82.07974889276905
 31
2.5
  0
LINE
  5
2CA
330
17
100
AcDbEntity
  8
0
100
AcDbLine
 10
224.8195112761218
 20
90.47683220940473
 30
2.5
 11
225.2525440532372
 21
89.4099097045903
 31
2.5
  0
LINE
  5
2CB
330
17
100
AcDbEntity
  8
0
100
AcDbLine
 10
225.25254405323716
 20
89.40990970459029
 30
2.5
 11
215.9866538308899
 21
85.64915467568858
 31
2.5
  0
LINE
  5
2CC
330
17
100
AcDbEntity
  8
0
100
AcDbLine
 10
230.54495037427438
 20
82.07974889276905
 30
5.0
 11
221.40980244399438
 21
78.01169379335101
 31
5.0
  0
LINE
  5
2CD
330
17
100
AcDbEntity
  8
0
100
AcDbLine
 10
221.40980244399435
 20
78.01169379335103
 30
2.5
 11
221.40980244399435
 21
78.01169379335103
 31
5.0
  0
LINE
  5
2CE
330
17
100
AcDbEntity
  8
0
100
AcDbLine
 10
221.40980244399435
 20
78.01169379335103
 30
5.0
 11
221.76949674462276
 21
77.20397104485899
 31
5.0
  0
LINE
  5
2CF
330
17
100
AcDbEntity
  8
0
100
AcDbLine
 10
221.76949674462276
 20
77.20397104485899
 30
5.0
 11
219.74740885979162
 21
76.38326445334127
 31
5.0
  0
LINE
  5
2D0
330
17
100
AcDbEntity
  8
0
100
AcDbLine
 10
44.45659236537148
 20
-171.59749717691614
 30
5.0
 11
45.849157987137886
 21
-181.50006053137514
 31
5.0
  0
LINE
  5
2D1
330
17
100
AcDbEntity
  8
0
100
AcDbLine
 10
13.627468027967808
 20
-221.36946891542254
 30
5.0
 11
17.85135535701357
 21
-230.43361674252282
 31
5.0
  0
LINE
  5
2D2
330
17
100
AcDbEntity
  8
0
100
AcDbLine
 10
250.8844697698289
 20
-108.40329213935416
 30
5.0
 11
245.68166065581252
 21
-99.86334030558437
 31
5.0
  0
LINE
  5
2D3
330
17
100
AcDbEntity
  8
0
100
AcDbLine
 10
254.2216124895823
 20
-94.66053119156797
 30
5.0
 11
259.42442160359866
 21
-103.20048302533776
 31
5.0
  0
LINE
  5
2D4
330
17
100
AcDbEntity
  8
0
100
AcDbLine
 10
259.4244216035987
 20
-103.20048302533777
 30
2.5
 11
254.22161248958233
 21
-94.66053119156798
 31
2.5
  0
LINE
  5
2D5
330
17
100
AcDbEntity
  8
0
100
AcDbLine
 10
245.68166065581252
 20
-99.86334030558437
 30
2.5
 11
250.8844697698289
 21
-108.40329213935416
 31
2.5
  0
LINE
  5
2D6
330
17
100
AcDbEntity
  8
0
100
AcDbLine
 10
17.851355357013546
 20
-230.43361674252282
 30
2.5
 11
13.627468027967783
 21
-221.36946891542254
 31
2.5
  0
LINE
  5
2D7
330
17
100
AcDbEntity
  8
0
100
AcDbLine
 10
4.563320200867537
 20
-225.59335624446834
 30
2.5
 11
8.7872075299133
 21
-234.6575040715686
 31
2.5
  0
LINE
  5
2D8
330
17
100
AcDbEntity
  8
0
100
AcDbLine
 10
-77.92582963298679
 20
-260.5553190574026
 30
2.5
 11
-79.36458902302773
 21
-250.6593617304145
 31
2.5
  0
LINE
  5
2D9
330
17
100
AcDbEntity
  8
0
100
AcDbLine
 10
-89.26054635001579
 20
-252.09812112045546
 30
2.5
 11
-87.82178695997484
 21
-261.99407844744354
 31
2.5
  0
LINE
  5
2DA
330
17
100
AcDbEntity
  8
0
100
AcDbLine
 10
-195.77294471672198
 20
-205.2427251962017
 30
2.5
 11
-192.8659254249674
 21
-195.67458855224814
 31
2.5
  0
LINE
  5
2DB
330
17
100
AcDbEntity
  8
0
100
AcDbLine
 10
-202.43406206892095
 20
-192.76756926049356
 30
2.5
 11
-205.34108136067553
 21
-202.3357059044471
 31
2.5
  0
LINE
  5
2DC
330
17
100
AcDbEntity
  8
0
100
AcDbLine
 10
-33.64508478620267
 20
-203.85841950157857
 30
2.5
 11
-23.718201465130626
 21
-205.06547688622172
 31
2.5
  0
LINE
  5
2DD
330
17
100
AcDbEntity
  8
0
100
AcDbLine
 10
-47.34874260541088
 20
-208.7669435637975
 30
2.5
 11
-51.812010039003255
 21
-199.8182428862559
 31
2.5
  0
LINE
  5
2DE
330
17
100
AcDbEntity
  8
0
100
AcDbLine
 10
-60.760710716544864
 20
-204.28151031984828
 30
2.5
 11
-56.297443282952486
 21
-213.2302109973899
 31
2.5
  0
LINE
  5
2DF
330
17
100
AcDbEntity
  8
0
100
AcDbLine
 10
-15.268685190045648
 20
-139.32461173503924
 30
2.5
 11
-5.270954354285397
 21
-139.1115902908402
 31
2.5
  0
LINE
  5
2E0
330
17
100
AcDbEntity
  8
0
100
AcDbLine
 10
-5.483975798484417
 20
-129.11385945508
 30
2.5
 11
-14.506254872463069
 21
-129.3060969687597
 31
2.5
  0
LINE
  5
2E1
330
17
100
AcDbEntity
  8
0
100
AcDbLine
 10
-291.21258291999743
 20
-30.02403374552243
 30
2.5
 11
-292.8086560667529
 21
-29.134660824548558
 31
2.5
  0
LINE
  5
2E2
330
17
100
AcDbEntity
  8
0
100
AcDbLine
 10
-297.67622965006353
 20
-37.87003302102974
 30
2.5
 11
-288.94085745358234
 21
-42.73760660434037
 31
2.5
  0
LINE
  5
2E3
330
17
100
AcDbEntity
  8
0
100
AcDbLine
 10
-262.83791327070765
 20
-142.0744206537596
 30
2.5
 11
-253.14390357069655
 21
-139.61959358529006
 31
2.5
  0
LINE
  5
2E4
330
17
100
AcDbEntity
  8
0
100
AcDbLine
 10
-255.59873063916612
 20
-129.92558388527897
 30
2.5
 11
-265.2927403391772
 21
-132.3804109537485
 31
2.5
  0
LINE
  5
2E5
330
17
100
AcDbEntity
  8
0
100
AcDbLine
 10
-111.61255833517846
 20
55.441689307927476
 30
2.5
 11
-121.42293381963654
 21
57.37986702267504
 31
2.5
  0
LINE
  5
2E6
330
17
100
AcDbEntity
  8
0
100
AcDbLine
 10
-123.3611115343841
 20
47.569491538216965
 30
2.5
 11
-113.55073604992603
 21
45.6313138234694
 31
2.5
  0
LINE
  5
2E7
330
17
100
AcDbEntity
  8
0
100
AcDbLine
 10
45.849157987137886
 20
-181.50006053137514
 30
2.5
 11
44.45659236537148
 21
-171.59749717691614
 31
2.5
  0
LINE
  5
2E8
330
17
100
AcDbEntity
  8
0
100
AcDbLine
 10
34.55402901091247
 20
-172.99006279868254
 30
2.5
 11
35.94659463267888
 21
-182.89262615314155
 31
2.5
  0
LINE
  5
2E9
330
17
100
AcDbEntity
  8
0
100
AcDbLine
 10
-179.18174683587955
 20
83.88158256225687
 30
2.5
 11
-188.2726160090834
 21
79.71551755127928
 31
2.5
  0
LINE
  5
2EA
330
17
100
AcDbEntity
  8
0
100
AcDbLine
 10
-161.367311544424
 20
87.13700464959771
 30
2.5
 11
-158.069008915952
 21
77.69660212793507
 31
2.5
  0
LINE
  5
2EB
330
17
100
AcDbEntity
  8
0
100
AcDbLine
 10
-148.62860639428933
 20
80.9949047564071
 30
2.5
 11
-151.92690902276135
 21
90.43530727806974
 31
2.5
  0
LINE
  5
2EC
330
17
100
AcDbEntity
  8
0
100
AcDbLine
 10
-78.33788104887675
 20
134.94092881228855
 30
2.5
 11
-71.50878145399463
 21
127.63590323237571
 31
2.5
  0
LINE
  5
2ED
330
17
100
AcDbEntity
  8
0
100
AcDbLine
 10
-64.20375587408182
 20
134.46500282725782
 30
2.5
 11
-71.03285546896394
 21
141.77002840717066
 31
2.5
  0
LINE
  5
2EE
330
17
100
AcDbEntity
  8
0
100
AcDbLine
 10
221.76949674462276
 20
77.20397104485899
 30
5.0
 11
221.76949674462276
 21
77.20397104485899
 31
2.5
  0
LINE
  5
2EF
330
17
100
AcDbEntity
  8
0
100
AcDbLine
 10
225.25254405323716
 20
89.40990970459029
 30
2.5
 11
225.25254405323716
 21
89.40990970459029
 31
5.0
  0
ENDSEC
  0
SECTION
  2
OBJECTS
  0
DICTIONARY
  5
A
330
0
100
AcDbDictionary
280
0
281
1
  3
ACAD_COLOR
350
B
  3
ACAD_GROUP
350
C
  3
ACAD_LAYOUT
350
D
  3
ACAD_MATERIAL
350
E
  3
ACAD_MLEADERSTYLE
350
F
  3
ACAD_MLINESTYLE
350
10
  3
ACAD_PLOTSETTINGS
350
11
  3
ACAD_PLOTSTYLENAME
350
12
  3
ACAD_SCALELIST
350
14
  3
ACAD_TABLESTYLE
350
15
  3
ACAD_VISUALSTYLE
350
16
  3
EZDXF_META
350
2D
  0
DICTIONARY
  5
B
330
A
100
AcDbDictionary
280
0
281
1
  0
DICTIONARY
  5
C
330
A
100
AcDbDictionary
280
0
281
1
  0
DICTIONARY
  5
D
330
A
100
AcDbDictionary
280
0
281
1
  3
Model
350
1A
  3
Layout1
350
1E
  0
DICTIONARY
  5
E
330
A
100
AcDbDictionary
280
0
281
1
  3
ByBlock
350
1F
  3
ByLayer
350
20
  3
Global
350
21
  0
DICTIONARY
  5
F
330
A
100
AcDbDictionary
280
0
281
1
  3
Standard
350
2C
  0
DICTIONARY
  5
10
330
A
100
AcDbDictionary
280
0
281
1
  3
Standard
350
22
  0
DICTIONARY
  5
11
330
A
100
AcDbDictionary
280
0
281
1
  0
ACDBDICTIONARYWDFLT
  5
12
330
A
100
AcDbDictionary
280
0
281
1
  3
Normal
350
13
100
AcDbDictionaryWithDefault
340
13
  0
ACDBPLACEHOLDER
  5
13
330
12
  0
DICTIONARY
  5
14
330
A
100
AcDbDictionary
280
0
281
1
  0
DICTIONARY
  5
15
330
A
100
AcDbDictionary
280
0
281
1
  0
DICTIONARY
  5
16
330
A
100
AcDbDictionary
280
0
281
1
  0
LAYOUT
  5
1A
330
D
100
AcDbPlotSettings
  1

  2
Adobe PDF
  4
A3
  6

 40
7.5
 41
20.0
 42
7.5
 43
20.0
 44
420.0
 45
297.0
 46
0.0
 47
0.0
 48
0.0
 49
0.0
140
0.0
141
0.0
142
1.0
143
1.0
 70
1024
 72
1
 73
0
 74
5
  7

 75
16
 76
0
 77
2
 78
300
147
1.0
148
0.0
149
0.0
100
AcDbLayout
  1
Model
 70
1
 71
0
 10
0.0
 20
0.0
 11
420.0
 21
297.0
 12
0.0
 22
0.0
 32
0.0
 14
1e+20
 24
1e+20
 34
1e+20
 15
-1e+20
 25
-1e+20
 35
-1e+20
146
0.0
 13
0.0
 23
0.0
 33
0.0
 16
1.0
 26
0.0
 36
0.0
 17
0.0
 27
1.0
 37
0.0
 76
1
330
17
  0
LAYOUT
  5
1E
330
D
100
AcDbPlotSettings
  1

  2
Adobe PDF
  4
A3
  6

 40
7.5
 41
20.0
 42
7.5
 43
20.0
 44
420.0
 45
297.0
 46
0.0
 47
0.0
 48
0.0
 49
0.0
140
0.0
141
0.0
142
1.0
143
1.0
 70
0
 72
1
 73
0
 74
5
  7

 75
16
 76
0
 77
2
 78
300
147
1.0
148
0.0
149
0.0
100
AcDbLayout
  1
Layout1
 70
1
 71
1
 10
0.0
 20
0.0
 11
420.0
 21
297.0
 12
0.0
 22
0.0
 32
0.0
 14
1e+20
 24
1e+20
 34
1e+20
 15
-1e+20
 25
-1e+20
 35
-1e+20
146
0.0
 13
0.0
 23
0.0
 33
0.0
 16
1.0
 26
0.0
 36
0.0
 17
0.0
 27
1.0
 37
0.0
 76
1
330
1B
  0
MATERIAL
  5
1F
102
{ACAD_REACTORS
330
E
102
}
330
E
100
AcDbMaterial
  1
ByBlock
  2

 70
0
 40
1.0
 71
1
 41
1.0
 91
-1023410177
 42
1.0
 72
1
  3

 73
1
 74
1
 75
1
 44
0.5
 73
0
 45
1.0
 46
1.0
 77
1
  4

 78
1
 79
1
170
1
 48
1.0
171
1
  6

172
1
173
1
174
1
140
1.0
141
1.0
175
1
  7

176
1
177
1
178
1
143
1.0
179
1
  8

270
1
271
1
272
1
145
1.0
146
1.0
273
1
  9

274
1
275
1
276
1
 42
1.0
 72
1
  3

 73
1
 74
1
 75
1
 94
63
  0
MATERIAL
  5
20
102
{ACAD_REACTORS
330
E
102
}
330
E
100
AcDbMaterial
  1
ByLayer
  2

 70
0
 40
1.0
 71
1
 41
1.0
 91
-1023410177
 42
1.0
 72
1
  3

 73
1
 74
1
 75
1
 44
0.5
 73
0
 45
1.0
 46
1.0
 77
1
  4

 78
1
 79
1
170
1
 48
1.0
171
1
  6

172
1
173
1
174
1
140
1.0
141
1.0
175
1
  7

176
1
177
1
178
1
143
1.0
179
1
  8

270
1
271
1
272
1
145
1.0
146
1.0
273
1
  9

274
1
275
1
276
1
 42
1.0
 72
1
  3

 73
1
 74
1
 75
1
 94
63
  0
MATERIAL
  5
21
102
{ACAD_REACTORS
330
E
102
}
330
E
100
AcDbMaterial
  1
Global
  2

 70
0
 40
1.0
 71
1
 41
1.0
 91
-1023410177
 42
1.0
 72
1
  3

 73
1
 74
1
 75
1
 44
0.5
 73
0
 45
1.0
 46
1.0
 77
1
  4

 78
1
 79
1
170
1
 48
1.0
171
1
  6

172
1
173
1
174
1
140
1.0
141
1.0
175
1
  7

176
1
177
1
178
1
143
1.0
179
1
  8

270
1
271
1
272
1
145
1.0
146
1.0
273
1
  9

274
1
275
1
276
1
 42
1.0
 72
1
  3

 73
1
 74
1
 75
1
 94
63
  0
MLINESTYLE
  5
22
102
{ACAD_REACTORS
330
10
102
}
330
10
100
AcDbMlineStyle
  2
Standard
 70
0
  3

 62
256
 51
90.0
 52
90.0
 71
2
 49
0.5
 62
256
  6
BYLAYER
 49
-0.5
 62
256
  6
BYLAYER
  0
MLEADERSTYLE
  5
2C
102
{ACAD_REACTORS
330
F
102
}
330
F
100
AcDbMLeaderStyle
179
2
170
2
171
1
172
0
 90
2
 40
0.0
 41
0.0
173
1
 91
-1056964608
 92
-2
290
1
 42
2.0
291
1
 43
8.0
  3
Standard
 44
4.0
300

342
29
174
1
175
1
176
0
178
1
 93
-1056964608
 45
4.0
292
0
297
0
 46
4.0
 94
-1056964608
 47
1.0
 49
1.0
140
1.0
294
1
141
0.0
177
0
142
1.0
295
0
296
0
143
3.75
271
0
272
9
273
9
  0
DICTIONARY
  5
2D
330
A
100
AcDbDictionary
281
1
  3
CREATED_BY_EZDXF
350
2E
  3
WRITTEN_BY_EZDXF
350
2F2
  0
DICTIONARYVAR
  5
2E
330
2D
100
DictionaryVariables
280
0
  1
1.0.2 @ 2023-03-28T19:26:58.667485+00:00
  0
DICTIONARYVAR
  5
2F2
330
2D
100
DictionaryVariables
280
0
  1
1.0.2 @ 2023-03-28T19:26:58.713237+00:00
  0
ENDSEC
  0
EOF
